<svg xmlns="http://www.w3.org/2000/svg" xmlns:xlink="http://www.w3.org/1999/xlink" width="99" height="99" viewBox="0 0 99 99">
  <defs>
    <clipPath id="clip-path">
      <rect id="Rectangle_401223" data-name="Rectangle 401223" width="99" height="99" transform="translate(0)" fill="#8ce6fe"/>
    </clipPath>
    <clipPath id="clip-path-2">
      <rect id="Rectangle_401223-2" data-name="Rectangle 401223" width="88.539" height="88.539" fill="#f3f9ff"/>
    </clipPath>
    <clipPath id="clip-path-3">
      <rect id="Rectangle_408872" data-name="Rectangle 408872" width="65.333" height="49.507" fill="none"/>
    </clipPath>
  </defs>
  <g id="Group_1118707" data-name="Group 1118707" transform="translate(-619.921 -5755.871)">
    <g id="Group_1100724" data-name="Group 1100724" transform="translate(619.921 5755.871)">
      <g id="Group_1099654" data-name="Group 1099654" transform="translate(0 0)">
        <g id="Group_1099652" data-name="Group 1099652" clip-path="url(#clip-path)">
          <path id="Path_873521" data-name="Path 873521" d="M99,77.066A22,22,0,0,1,77.066,99H21.934A22,22,0,0,1,0,77.066V21.933A22,22,0,0,1,21.934,0H77.066A22,22,0,0,1,99,21.934Z" transform="translate(0)" fill="#ffdcd6"/>
        </g>
      </g>
      <g id="Group_1099659" data-name="Group 1099659" transform="translate(4.77 5.723)">
        <g id="Group_1099652-2" data-name="Group 1099652" transform="translate(0 0)" clip-path="url(#clip-path-2)">
          <path id="Path_873521-2" data-name="Path 873521" d="M88.539,68.922A19.674,19.674,0,0,1,68.923,88.539H19.616A19.674,19.674,0,0,1,0,68.922V19.616A19.674,19.674,0,0,1,19.616,0H68.923A19.674,19.674,0,0,1,88.539,19.616Z" fill="#f3f9ff"/>
        </g>
      </g>
    </g>
    <g id="Group_1100725" data-name="Group 1100725" transform="translate(636.343 5771.293)">
      <rect id="Rectangle_401104" data-name="Rectangle 401104" width="68" height="69" fill="none"/>
      <g id="Group_1118935" data-name="Group 1118935" transform="translate(1.29 8.266)">
        <g id="Group_1118934" data-name="Group 1118934" transform="translate(0 0)" clip-path="url(#clip-path-3)">
          <path id="Path_922164" data-name="Path 922164" d="M42.868,46.025c-8.784-5.119-9.952-5.11-17.418-.946-8.087,4.51-13.852,1.376-14.706-4.692C8.309,23.081,15.526,3.526,25.63.436c5.815-1.779,12.689,1.874,12.7,11.18a13.717,13.717,0,0,0,8.125,12.462c5.114,2.092,12.737.7,14.776,10.379C63.248,44.05,51.08,50.811,42.868,46.025" transform="translate(-2.097 0)" fill="#ffdcd6"/>
          <path id="Path_922165" data-name="Path 922165" d="M28.225,34.374h7.518V32.553h6.574V31.446H28.66a11.426,11.426,0,0,1-.435,2.928" transform="translate(-5.765 -6.422)" fill="#fec000"/>
          <path id="Path_922166" data-name="Path 922166" d="M28.659,29.7H42.344V27.766H28.361a11.442,11.442,0,0,1,.3,1.933" transform="translate(-5.793 -5.671)" fill="#fec000"/>
          <path id="Path_922167" data-name="Path 922167" d="M37.672,34.657v1.835h6.574V32.837H37.672Z" transform="translate(-7.694 -6.706)" fill="#fec000"/>
          <path id="Path_922168" data-name="Path 922168" d="M28.776,30.98c0,.071-.01.139-.01.21H42.421v-.995H28.736c.018.26.04.52.04.785" transform="translate(-5.869 -6.167)" fill="#e59507"/>
          <path id="Path_922169" data-name="Path 922169" d="M22.906,28.241c0-.264-.021-.524-.039-.785a11.241,11.241,0,1,0,.029.995c0-.07.01-.138.01-.21M6.939,31.285a3.331,3.331,0,1,1,3.331-3.331,3.331,3.331,0,0,1-3.331,3.331" transform="translate(0 -3.428)" fill="#fec000"/>
          <path id="Path_922170" data-name="Path 922170" d="M7.865,26.635A3.331,3.331,0,1,0,11.2,29.966a3.331,3.331,0,0,0-3.331-3.331" transform="translate(-0.926 -5.44)" fill="#f0f8ff"/>
          <path id="Path_922171" data-name="Path 922171" d="M60.539,21.563h0c.356.027.57-.3.836-.251,1.989.36,3.778.541,5.122.742.931.139,1.6.386,1.792.726.351.632-2.019.653-.707,2.208A10.489,10.489,0,0,0,66.4,27.231c-1.248,3.3.269,3.456-.127,4.2-.711,1.337-3.664,1.147-5.841.395-.851-.294-1.147-.405-1.007-.81,1.007-2.926-.262-4.88.454-6.481.118-.263-.415.095-.355-.2,1.442-2.389,1.019-2.772,1.019-2.772" transform="translate(-12.129 -4.352)" fill="#ff4650"/>
          <path id="Path_922172" data-name="Path 922172" d="M71.378,55.688a5.509,5.509,0,0,0,.446,1.492c.282.55-.9,2.008-1.694,2.258-.349.111-.33-.481.058-.976a1.336,1.336,0,0,0-.072-1.842Z" transform="translate(-14.273 -11.374)" fill="#fbb99d"/>
          <path id="Path_922173" data-name="Path 922173" d="M71.646,57.065s-.746,2.2-1.6,1.81c0,0-.512.729-.2.941s1.046-.279,1.405-.849c.536-.85.43-.612.637-.976a.7.7,0,0,0-.25-.926" transform="translate(-14.246 -11.655)" fill="#53424d"/>
          <path id="Path_922174" data-name="Path 922174" d="M67.262,48.76A9.832,9.832,0,0,1,70.133,52.7c.048.155.487,2,.5,2.157.049.723-.8,1.1-.867.972-.482-.91-4.374-4.762-4.423-6.875-.034-1.488.9-1.092,1.921-.193" transform="translate(-13.345 -9.795)" fill="#fbb99d"/>
          <path id="Path_922175" data-name="Path 922175" d="M67.485,33.874c1.572,3.212.491,3.036.286,9.517a2.635,2.635,0,0,0,.252.863l2.8,7.705c.092.24-1.923,1.993-2.347,1.023-.5-1.15-3.528-5.251-4.215-7.728A48.053,48.053,0,0,1,63.07,33.032l3.762-.253a3.658,3.658,0,0,1,.653,1.095" transform="translate(-12.87 -6.695)" fill="#5969b2"/>
          <path id="Path_922176" data-name="Path 922176" d="M59.331,58.365A5.489,5.489,0,0,0,59.1,59.9c.024.616-1.669,1.457-2.5,1.361-.364-.043-.1-.573.466-.864a1.341,1.341,0,0,0,.716-1.7Z" transform="translate(-11.527 -11.92)" fill="#fbb99d"/>
          <path id="Path_922177" data-name="Path 922177" d="M59.1,59.768s-1.611,1.693-2.219.992c0,0-.774.454-.577.776s1.069.173,1.638-.2c.847-.554.65-.38.993-.626a.7.7,0,0,0,.166-.945" transform="translate(-11.493 -12.207)" fill="#53424d"/>
          <path id="Path_922178" data-name="Path 922178" d="M58.755,50.269a9.665,9.665,0,0,1,.941,4.755c-.022.161-.4,2.014-.462,2.164-.263.677-1.193.675-1.2.53-.053-1.024-1.958-6.119-1.106-8.06.6-1.367,1.284-.622,1.829.611" transform="translate(-11.582 -9.992)" fill="#fbb99d"/>
          <path id="Path_922179" data-name="Path 922179" d="M62.749,32.932c.725,4.429-1.917,5.328-2.992,11.427a4.852,4.852,0,0,0-.041.9l.227,8.114c.3.756-2.718,1.4-2.884.262-.181-1.24-1.522-6.623-1.373-9.186A44.067,44.067,0,0,1,58.8,32.779l3.249.212Z" transform="translate(-11.371 -6.695)" fill="#5969b2"/>
          <path id="Path_922180" data-name="Path 922180" d="M59.192,21.993a1.642,1.642,0,0,1,1.992-.547c.373.223.443.859.332,1.4-.266,1.3-2.7,6.357-4.308,4.788-.571-.556-.743-.714-.5-1.548a14.967,14.967,0,0,1,2.48-4.093" transform="translate(-11.56 -4.347)" fill="#ff4650"/>
          <path id="Path_922181" data-name="Path 922181" d="M61.175,23.769s.129-2.57-1.292.1c0,0-2.374,3.251.867,3.923,2.644.548.865-3.35.865-3.35Z" transform="translate(-12.059 -4.627)" fill="#ff4650"/>
          <path id="Path_922182" data-name="Path 922182" d="M58.93,27.419a1.636,1.636,0,0,0,.6.831,2.032,2.032,0,0,0,2.166-.181.083.083,0,0,0-.084-.143c-.887.494-2.158.637-2.527-.55-.032-.1-.192-.059-.16.044" transform="translate(-12.035 -5.579)" fill="#ed3748"/>
          <path id="Path_922183" data-name="Path 922183" d="M63.125,28.23a1.985,1.985,0,0,0,3.064.134c.076-.075-.041-.193-.117-.117a1.829,1.829,0,0,1-2.83-.134c-.069-.082-.186.036-.117.117" transform="translate(-12.888 -5.736)" fill="#ed3748"/>
          <path id="Path_922184" data-name="Path 922184" d="M61.835,21.313s-.606,1.813.337,2.65,3.088,1.158,4.785-1.907Z" transform="translate(-12.59 -4.353)" fill="#fbb99d"/>
          <path id="Path_922185" data-name="Path 922185" d="M63.63,18.215s1.395,1.267.713,1.258-3.634.118-3.731-.99a5.419,5.419,0,0,1,2.438-3.871,1.141,1.141,0,0,1,1.629.508s-2.791.6-1.05,3.095" transform="translate(-12.379 -2.951)" fill="#53424d"/>
          <path id="Path_922186" data-name="Path 922186" d="M65.655,18.407s-2.141.388-2.01.6-.084.649-.082,1.069a2.542,2.542,0,0,1-.6,1.408c-.242.325.052.675.443.753a2.508,2.508,0,0,0,2.531-.867c-.656-.859-.283-2.963-.283-2.963" transform="translate(-12.842 -3.759)" fill="#fbb99d"/>
          <path id="Path_922187" data-name="Path 922187" d="M63.71,20.076c0-.419.214-.857.083-1.069s2.008-.6,2.008-.6a2.4,2.4,0,0,0-.356,1.1A8.082,8.082,0,0,1,63.6,20.636a1.594,1.594,0,0,0,.112-.559" transform="translate(-12.989 -3.759)" fill="#dc8162"/>
          <path id="Path_922188" data-name="Path 922188" d="M63.889,14.727c-.776.551-2.48,2.946-1.365,4.346.476.6,2.142.08,3.141-1.077a3.16,3.16,0,0,0,.254-2.721,1.366,1.366,0,0,0-2.03-.547" transform="translate(-12.695 -2.954)" fill="#fbb99d"/>
          <path id="Path_922189" data-name="Path 922189" d="M62.867,15.918c.1.277.121-.358.754-.518a1.168,1.168,0,0,1,.242-.028.53.53,0,0,1,.2.025.327.327,0,0,1,.195.329,1.455,1.455,0,0,0,.3.81,2.057,2.057,0,0,1,.382.882,1.15,1.15,0,0,0,.045.283.827.827,0,0,1,.056.357c-.007.118-.04.232-.056.349a.45.45,0,0,0,.123.422.845.845,0,0,0,.158.129.92.92,0,0,0,.389.146.89.89,0,0,0,.82-.364,2.586,2.586,0,0,0,.377-1.61,7.7,7.7,0,0,0-.115-1.14,1.747,1.747,0,0,0-.468-.916,2.375,2.375,0,0,0-1.891-.684c-1.663.164-1.6,1.31-1.514,1.528" transform="translate(-12.833 -2.937)" fill="#53424d"/>
          <path id="Path_922190" data-name="Path 922190" d="M65.5,17.978s-.525,1.386.056,1.533,2.905.236,2.781-.56c-.146-.936-.706-3.112-1.564-3.837a1.009,1.009,0,0,0-1.5.053,1.544,1.544,0,0,1,.223,2.811" transform="translate(-13.332 -3.023)" fill="#53424d"/>
          <path id="Path_922191" data-name="Path 922191" d="M65.3,18.546s.646-.5.964-.317-.225,1.092-.9.9-.263-.454-.066-.588" transform="translate(-13.276 -3.714)" fill="#fbb99d"/>
          <path id="Path_922192" data-name="Path 922192" d="M64.5,22.242a2.435,2.435,0,0,0,1.466-.417l-.046-.076a2.275,2.275,0,0,1-1.876.324,1.039,1.039,0,0,1-.689-.574l-.077.037a1.125,1.125,0,0,0,.742.624,1.929,1.929,0,0,0,.48.082" transform="translate(-12.924 -4.391)" fill="#feb801"/>
          <path id="Path_922193" data-name="Path 922193" d="M63.946,22.84a4.125,4.125,0,0,0,1.936-.952l.083-.058-.046-.076-.083.058c-.734.514-1.649,1.152-2.129.869-.246-.146-.364-.535-.349-1.157l-.084,0c-.016.668.113,1.073.392,1.239a.6.6,0,0,0,.281.08" transform="translate(-12.923 -4.395)" fill="#feb801"/>
          <path id="Path_922194" data-name="Path 922194" d="M63.368,23.565c.6.029,2.079-1.234,2.566-1.744l-.059-.064c-.465.485-1.933,1.744-2.5,1.717a.175.175,0,0,1-.15-.068.254.254,0,0,1-.036-.107,7.267,7.267,0,0,1,.132-1.763l-.08-.032a7.283,7.283,0,0,0-.136,1.812.333.333,0,0,0,.053.147.266.266,0,0,0,.207.1h.006" transform="translate(-12.885 -4.391)" fill="#feb801"/>
          <path id="Path_922195" data-name="Path 922195" d="M62.938,24.05a.3.3,0,1,1,.287.338.314.314,0,0,1-.287-.338" transform="translate(-12.854 -4.849)" fill="#feb801"/>
          <path id="Path_922196" data-name="Path 922196" d="M66.818,33.856a2.13,2.13,0,0,0,.972,2.523s-.769,2.55-2.35,1.72-1.594-3.231,1.377-4.243" transform="translate(-13.15 -6.914)" fill="#5969b2"/>
          <path id="Path_922197" data-name="Path 922197" d="M59.449,32.77a12.012,12.012,0,0,0,6.833-.063l-.3-.8a10.61,10.61,0,0,1-6.29.055Z" transform="translate(-12.142 -6.516)" fill="#4463cd"/>
          <path id="Path_922198" data-name="Path 922198" d="M61.1,32.22l-.46.968.436.134.294-1.086Z" transform="translate(-12.386 -6.58)" fill="#5a7fe5"/>
          <path id="Path_922199" data-name="Path 922199" d="M66.434,31.994l.181,1.178.547-.067-.408-1.2Z" transform="translate(-13.569 -6.516)" fill="#5a7fe5"/>
          <path id="Path_922200" data-name="Path 922200" d="M64.717,18.24c.018-.009-.02.009-.027.011a.437.437,0,0,1-.09.022c-.121.011-.177-.068-.205-.171-.018-.064-.119-.028-.1.036a.317.317,0,0,0,.486.187c.06-.032,0-.116-.063-.085" transform="translate(-13.131 -3.69)" fill="#1e100c"/>
          <path id="Path_922201" data-name="Path 922201" d="M63.3,17.759a.36.36,0,0,1-.1.067c-.118.051-.185-.021-.228-.127-.025-.062-.127-.026-.1.036.051.125.142.236.3.21a.436.436,0,0,0,.217-.119c.049-.047-.033-.113-.083-.067" transform="translate(-12.84 -3.608)" fill="#1e100c"/>
          <path id="Path_922202" data-name="Path 922202" d="M63.152,17.059a.319.319,0,0,1,.38.219c.031.078.147.023.119-.054a.444.444,0,0,0-.522-.292.065.065,0,0,0,.024.127" transform="translate(-12.883 -3.456)" fill="#3f302d"/>
          <path id="Path_922203" data-name="Path 922203" d="M64.45,17.6a.32.32,0,0,1,.426.107c.049.068.147-.018.1-.084a.442.442,0,0,0-.58-.14c-.074.038-.018.154.056.116" transform="translate(-13.145 -3.559)" fill="#3f302d"/>
          <path id="Path_922204" data-name="Path 922204" d="M63.8,17.653a.654.654,0,0,1-.021.359c-.066.161-.261.214-.379.34-.161.172-.033.3.188.388.053.021.088-.045.035-.067-.5-.2.127-.4.228-.6a.7.7,0,0,0,.038-.423c-.01-.047-.1-.041-.089.007" transform="translate(-12.934 -3.597)" fill="#dc8162"/>
          <path id="Path_922205" data-name="Path 922205" d="M63.975,19.35s-.013.445-.379.41-.367-.436-.367-.436Z" transform="translate(-12.914 -3.946)" fill="#faffff"/>
          <path id="Path_922206" data-name="Path 922206" d="M64.928,19.214a.251.251,0,1,1-.124-.333.251.251,0,0,1,.124.333" transform="translate(-13.163 -3.851)" fill="#f3a498"/>
          <path id="Path_922207" data-name="Path 922207" d="M62.468,18.246a.254.254,0,1,1-.076.352.254.254,0,0,1,.076-.352" transform="translate(-12.735 -3.718)" fill="#f3a498"/>
          <path id="Path_922208" data-name="Path 922208" d="M21.572,31.488s-2.881-1.4-3.447-2.97A1.893,1.893,0,0,1,18.7,26.21s2.15,3.242,3.835,3.882-.964,1.4-.964,1.4" transform="translate(-3.67 -5.353)" fill="#fbb99d"/>
          <path id="Path_922209" data-name="Path 922209" d="M25.407,32.152c.025.049.368.089.419.1a6.169,6.169,0,0,0,1.377.3,1.329,1.329,0,0,0,.65-.145,1.684,1.684,0,0,0,.314-.236c.038-.034.088-.072.134-.053a.105.105,0,0,1,.05.114c-.014.112-.108.193-.169.288a.361.361,0,0,0-.08.243c.02.07.115.113.176.134a2.209,2.209,0,0,0,.62.091c.169.006.364-.021.38.2a.564.564,0,0,0,.076.2.15.15,0,0,1,.012.107.256.256,0,0,1-.027.045.279.279,0,0,0-.042.106.236.236,0,0,1-.019.074.111.111,0,0,1-.08.051,2.086,2.086,0,0,1-.245.033c-.1.006-.193.026-.29.025-.08,0-.156-.018-.236-.018a10.069,10.069,0,0,1-1.147-.127,7.01,7.01,0,0,1-1.114-.357,5.165,5.165,0,0,1-.76-1.18" transform="translate(-5.189 -6.559)" fill="#fbb99d"/>
          <path id="Path_922210" data-name="Path 922210" d="M21.838,32.121c1.089.767,4.635,1.238,4.635,1.238l-.363-.972L22.3,30.5s-1.555.852-.466,1.62" transform="translate(-4.381 -6.229)" fill="#fbb99d"/>
          <path id="Path_922211" data-name="Path 922211" d="M18.772,23.1c-2.428.495-1.184,5.38-1.184,5.38l2.673-.046s.879-5.816-1.489-5.334" transform="translate(-3.527 -4.711)" fill="#025974"/>
          <path id="Path_922212" data-name="Path 922212" d="M27.913,57.584a7.143,7.143,0,0,0-.118,1.658c.335.677,2.881.961,3.77.563.124-.055.262-.267.023-.559s-1.648-.742-1.512-1.332-2.164-.33-2.164-.33" transform="translate(-5.671 -11.749)" fill="#ffa60e"/>
          <path id="Path_922213" data-name="Path 922213" d="M24.562,34.018,20.43,35.995a35.244,35.244,0,0,0,2.359,5.547l-.011,0L24.3,44.419a3.026,3.026,0,0,1,.314.961L25.7,52.656a1.047,1.047,0,0,0,.546.788,3.219,3.219,0,0,0,2.4.232c1.488-.46.461-9.368.115-10.46a54.264,54.264,0,0,0-2.216-5.237Z" transform="translate(-4.173 -6.948)" fill="#94b8ed"/>
          <path id="Path_922214" data-name="Path 922214" d="M14.163,57.216s-.879,1.144-.847,1.4A28.242,28.242,0,0,0,16.28,61.1a.4.4,0,0,0,.271-.481c-.072-.384-1.072-1.524-.691-1.973s-1.7-1.432-1.7-1.432" transform="translate(-2.72 -11.686)" fill="#e0880a"/>
          <path id="Path_922215" data-name="Path 922215" d="M13.488,58.709c.626-.081,3.243,2.347,2.916,2.631-.484.419-2.31-.852-2.82-1.626-.568-.862-.1-1.005-.1-1.005" transform="translate(-2.717 -11.99)" fill="#ffa60e"/>
          <path id="Path_922216" data-name="Path 922216" d="M20.954,35.546l-4.187-.551a35.352,35.352,0,0,0-.6,5.992l-.011,0v3.3a3.053,3.053,0,0,1-.168,1l-2.4,6.913a1.107,1.107,0,0,0,.114.972,3.413,3.413,0,0,0,1.983,1.45c1.509.373,4.712-7.931,4.914-9.062a55.98,55.98,0,0,0,.477-5.721Z" transform="translate(-2.763 -7.147)" fill="#94b8ed"/>
          <path id="Path_922217" data-name="Path 922217" d="M18.065,24.12c.441-1.932,2.973-1.346,4.7-.988,1.165.241,1.823.971,1.765,3.885-.025,1.274.45,4.393-.119,5.863,0,0-2.419,1.492-6.841-.383a29.139,29.139,0,0,1,.494-8.377" transform="translate(-3.567 -4.648)" fill="#025974"/>
          <path id="Path_922218" data-name="Path 922218" d="M29.159,30.5s-3.544-1.869-4.075-3.417a1.86,1.86,0,0,1,.6-2.258s2.156,3.19,3.8,3.844-.326,1.831-.326,1.831" transform="translate(-5.094 -5.069)" fill="#fbb99d"/>
          <path id="Path_922219" data-name="Path 922219" d="M23.681,24.013c-1.588,1.843,2.312,4.889,2.312,4.889l2.048-1.64s-2.812-5.046-4.361-3.249" transform="translate(-4.759 -4.825)" fill="#025974"/>
          <path id="Path_922220" data-name="Path 922220" d="M33.167,28.95c.051.018.322-.183.368-.209a6.04,6.04,0,0,0,1.188-.711,1.289,1.289,0,0,0,.367-.541,1.575,1.575,0,0,0,.066-.38c0-.05.014-.111.06-.129a.1.1,0,0,1,.112.048.75.75,0,0,1,.073.321c.012.068.041.188.106.227a.263.263,0,0,0,.216-.022,2.154,2.154,0,0,0,.5-.353c.125-.109.247-.26.4-.114a.562.562,0,0,0,.192.095.142.142,0,0,1,.081.068.218.218,0,0,1,.01.049.283.283,0,0,0,.041.1.208.208,0,0,1,.037.066.109.109,0,0,1-.022.09,2.175,2.175,0,0,1-.154.189c-.065.068-.12.148-.19.213s-.123.092-.18.146a9.829,9.829,0,0,1-.906.681,6.954,6.954,0,0,1-1.037.495,5.068,5.068,0,0,1-1.338-.333" transform="translate(-6.774 -5.509)" fill="#fbb99d"/>
          <path id="Path_922221" data-name="Path 922221" d="M30.716,31.372c1.295-.185,4.147-2.234,4.147-2.234l-.914-.451L29.959,29.9s-.537,1.656.758,1.472" transform="translate(-6.096 -5.859)" fill="#fbb99d"/>
          <path id="Path_922222" data-name="Path 922222" d="M20.463,23.134c0,.261.535.472,1.2.472s1.2-.211,1.2-.472-.536-.472-1.2-.472-1.2.21-1.2.472" transform="translate(-4.179 -4.628)" fill="#fbb99d"/>
          <path id="Path_922223" data-name="Path 922223" d="M22.646,21.426s-.46.54.2,1.342c0,0-1.557.927-2.386-.008a2.388,2.388,0,0,0,.251-1.676Z" transform="translate(-4.179 -4.306)" fill="#fbb99d"/>
          <path id="Path_922224" data-name="Path 922224" d="M23.445,16.613a7.5,7.5,0,0,1,.41,2.021c.064,1.534-.375,2.4-2.226,1.9-1.819-.5.928-4.194,1.816-3.921" transform="translate(-4.293 -3.39)" fill="#fbb99d"/>
          <path id="Path_922225" data-name="Path 922225" d="M22.82,21.688a4.5,4.5,0,0,1-.9-.105.538.538,0,0,1-.158.147,1.916,1.916,0,0,0,1.062-.042" transform="translate(-4.444 -4.408)" fill="#dc8162"/>
          <path id="Path_922226" data-name="Path 922226" d="M22.244,18.608c-.411.216-.474,1.8-1.317,1.912-1.2.157-2.114-2.029-1.971-3.158.139-1.105.564-1.618,1.94-1.908,1.266-.267,2.7.25,2.588,1.01a.915.915,0,0,1-.544.709c-.4.212.22.953-.7,1.435" transform="translate(-3.869 -3.142)" fill="#53424d"/>
          <path id="Path_922227" data-name="Path 922227" d="M22.732,19.995s-.695-.72-.4-1.046c.419-.464.883.6.883.6Z" transform="translate(-4.546 -3.846)" fill="#fbb99d"/>
          <path id="Path_922228" data-name="Path 922228" d="M24.692,35.637s-4.519.925-7.345-.5l.193-.761a13.087,13.087,0,0,0,6.99.381Z" transform="translate(-3.543 -7.021)" fill="#b3d0ff"/>
          <path id="Path_922229" data-name="Path 922229" d="M23.64,35.03h-.4L23.143,36.3h.662Z" transform="translate(-4.727 -7.154)" fill="#94b8ed"/>
          <path id="Path_922230" data-name="Path 922230" d="M20.039,34.821l-.29-.1-.5,1.167.6.2Z" transform="translate(-3.932 -7.092)" fill="#94b8ed"/>
          <path id="Path_922231" data-name="Path 922231" d="M25.257,36.348c.26.693.986,2.408,1.983,2,.134-.054.076-.274-.06-.219-.828.336-1.486-1.26-1.7-1.845-.051-.135-.271-.077-.219.06" transform="translate(-5.157 -7.395)" fill="#b3d0ff"/>
          <path id="Path_922232" data-name="Path 922232" d="M54.772,32.308h.886V30.487h2.488v1.821h1.378V30.487H63.28v1.821h.8l4.058-.628v-4.6l-4.058-.627H50.433v1.933H68.038v.995H50.433v1.107h4.339Z" transform="translate(-10.301 -5.402)" fill="#fec000"/>
          <path id="Path_922233" data-name="Path 922233" d="M54.772,33.344V31.523H50.433v3.656h4.339Z" transform="translate(-10.301 -6.438)" fill="#fec000"/>
          <path id="Path_922234" data-name="Path 922234" d="M57,31.523v3.656h2.488V31.523Z" transform="translate(-11.642 -6.438)" fill="#fec000"/>
          <path id="Path_922235" data-name="Path 922235" d="M61.858,31.523V34.15h3.755V31.523Z" transform="translate(-12.634 -6.438)" fill="#fec000"/>
          <rect id="Rectangle_408871" data-name="Rectangle 408871" width="17.605" height="0.995" transform="translate(40.132 22.983)" fill="#e59507"/>
          <path id="Path_922236" data-name="Path 922236" d="M68.747,33.076S66.7,34.3,66.539,34.447c-1.023.961-1.711,1.229-1.46,1.351.463.224,1.887-.585,2.1-.7a10.19,10.19,0,0,0,1.1-.738,4.623,4.623,0,0,0,.463-1.281" transform="translate(-13.281 -6.755)" fill="#fbb99d"/>
          <path id="Path_922237" data-name="Path 922237" d="M72.525,31.564c-.949,1.074-4.791,2.957-4.791,2.957l.1-.949,3.6-3.349s2.047.266,1.1,1.341" transform="translate(-13.834 -6.172)" fill="#fbb99d"/>
          <path id="Path_922238" data-name="Path 922238" d="M68.6,24.569a1.436,1.436,0,0,1,.443-1.878c.391-.212.922.157,1.339.536,1,.912,4.221,6.257,2.4,6.638-2.125.443-3.343-3.223-4.178-5.3" transform="translate(-13.98 -4.622)" fill="#ed3748"/>
          <path id="Path_922239" data-name="Path 922239" d="M25.357,9.528a.962.962,0,0,0-.6.22,1.891,1.891,0,0,0-1.643-1.206,1.517,1.517,0,0,0-.647.149,3.1,3.1,0,0,0-2.752-2.646,3.08,3.08,0,0,0-2.736,2.592,1.5,1.5,0,0,0-.517-.095,1.984,1.984,0,0,0-1.759,1.49,1.041,1.041,0,0,0-.616-.208,1.384,1.384,0,0,0-1.227,1.232H26.522a1.383,1.383,0,0,0-1.165-1.528" transform="translate(-2.626 -1.235)" fill="#b5d6fc"/>
          <path id="Path_922240" data-name="Path 922240" d="M51.456,17.686a.96.96,0,0,0-.6.22A1.891,1.891,0,0,0,49.212,16.7a1.524,1.524,0,0,0-.648.149A3.1,3.1,0,0,0,45.813,14.2,3.08,3.08,0,0,0,43.077,16.8a1.5,1.5,0,0,0-.517-.095,1.984,1.984,0,0,0-1.759,1.49,1.041,1.041,0,0,0-.616-.208,1.384,1.384,0,0,0-1.227,1.232H52.622a1.384,1.384,0,0,0-1.166-1.528" transform="translate(-7.957 -2.901)" fill="#b5d6fc"/>
        </g>
      </g>
    </g>
  </g>
</svg>
