<svg xmlns="http://www.w3.org/2000/svg" xmlns:xlink="http://www.w3.org/1999/xlink" width="178" height="178" viewBox="0 0 178 178">
  <defs>
    <clipPath id="clip-path">
      <rect id="Rectangle_408986" data-name="Rectangle 408986" width="88.323" height="100.574" fill="none"/>
    </clipPath>
    <clipPath id="clip-path-3">
      <rect id="Rectangle_408978" data-name="Rectangle 408978" width="17.795" height="14.686" fill="none"/>
    </clipPath>
  </defs>
  <g id="Group_1119114" data-name="Group 1119114" transform="translate(3897.926 7868)">
    <g id="Group_1118689" data-name="Group 1118689" transform="translate(-3897.926 -7868)">
      <path id="Path_882862" data-name="Path 882862" d="M89,0A89.047,89.047,0,1,1,0,89,89,89,0,0,1,89,0Z" transform="translate(0 -0.001)" fill="#953c2d"/>
      <path id="Path_882863" data-name="Path 882863" d="M78.668,0A78.668,78.668,0,1,1,0,78.668,78.668,78.668,0,0,1,78.668,0Z" transform="translate(10.332 10.331)" fill="#f3f9ff"/>
    </g>
    <g id="Group_1118690" data-name="Group 1118690" transform="translate(-3858.926 -7829)">
      <rect id="Rectangle_401104" data-name="Rectangle 401104" width="99.117" height="100.574" transform="translate(-0.074)" fill="none"/>
      <g id="Group_1119092" data-name="Group 1119092" transform="translate(4.926)">
        <g id="Group_1119091" data-name="Group 1119091" clip-path="url(#clip-path)">
          <rect id="Rectangle_408969" data-name="Rectangle 408969" width="17.795" height="14.687" transform="translate(39.084 78.91)" fill="#9a845a"/>
          <g id="Group_1119090" data-name="Group 1119090" transform="translate(0 0.001)">
            <g id="Group_1119089" data-name="Group 1119089" clip-path="url(#clip-path)">
              <path id="Path_923844" data-name="Path 923844" d="M43.9,68.565a5,5,0,1,1-5-5,5,5,0,0,1,5,5" transform="translate(9.36 17.55)" fill="#c3d9ff"/>
              <rect id="Rectangle_408970" data-name="Rectangle 408970" width="1.599" height="6.488" transform="translate(47.395 82.872)" fill="#329fff"/>
              <rect id="Rectangle_408971" data-name="Rectangle 408971" width="6.484" height="1.6" transform="translate(44.953 85.316)" fill="#329fff"/>
              <rect id="Rectangle_408972" data-name="Rectangle 408972" width="17.795" height="14.687" transform="translate(57.092 78.91)" fill="#9a845a"/>
              <path id="Path_923845" data-name="Path 923845" d="M58.011,68.565a5,5,0,1,1-5-5,5,5,0,0,1,5,5" transform="translate(13.256 17.55)" fill="#c3d9ff"/>
              <rect id="Rectangle_408973" data-name="Rectangle 408973" width="1.599" height="6.488" transform="translate(65.403 82.872)" fill="#329fff"/>
              <rect id="Rectangle_408974" data-name="Rectangle 408974" width="6.484" height="1.6" transform="translate(62.961 85.316)" fill="#329fff"/>
              <rect id="Rectangle_408975" data-name="Rectangle 408975" width="17.795" height="14.687" transform="translate(48.194 64.224)" fill="#9a845a"/>
              <path id="Path_923846" data-name="Path 923846" d="M51.038,57.056a5,5,0,1,1-5-5,5,5,0,0,1,5,5" transform="translate(11.331 14.372)" fill="#c3d9ff"/>
              <rect id="Rectangle_408976" data-name="Rectangle 408976" width="1.599" height="6.488" transform="translate(56.505 68.185)" fill="#329fff"/>
              <rect id="Rectangle_408977" data-name="Rectangle 408977" width="6.484" height="1.6" transform="translate(54.064 70.63)" fill="#329fff"/>
              <g id="Group_1119082" data-name="Group 1119082" transform="translate(48.195 64.224)" style="mix-blend-mode: multiply;isolation: isolate">
                <g id="Group_1119081" data-name="Group 1119081">
                  <g id="Group_1119080" data-name="Group 1119080" clip-path="url(#clip-path-3)">
                    <path id="Path_923847" data-name="Path 923847" d="M37.767,50.329V65.016h17.8V64.24l-16.09-.533Z" transform="translate(-37.767 -50.329)" fill="#d2d9d7"/>
                  </g>
                </g>
              </g>
              <g id="Group_1119085" data-name="Group 1119085" transform="translate(39.084 78.91)" style="mix-blend-mode: multiply;isolation: isolate">
                <g id="Group_1119084" data-name="Group 1119084">
                  <g id="Group_1119083" data-name="Group 1119083" clip-path="url(#clip-path-3)">
                    <path id="Path_923848" data-name="Path 923848" d="M30.628,61.838V76.524h17.8v-.776l-16.09-.533Z" transform="translate(-30.628 -61.838)" fill="#d2d9d7"/>
                  </g>
                </g>
              </g>
              <g id="Group_1119088" data-name="Group 1119088" transform="translate(57.092 78.91)" style="mix-blend-mode: multiply;isolation: isolate">
                <g id="Group_1119087" data-name="Group 1119087">
                  <g id="Group_1119086" data-name="Group 1119086" clip-path="url(#clip-path-3)">
                    <path id="Path_923849" data-name="Path 923849" d="M44.74,61.838V76.524h17.8v-.776l-16.09-.533Z" transform="translate(-44.74 -61.838)" fill="#d2d9d7"/>
                  </g>
                </g>
              </g>
              <path id="Path_923850" data-name="Path 923850" d="M61.546,2.985S63.092.511,64.983,1.838s1.935,4.386,1.089,5.386-2.137,5.282-1.841,5.33-.05.782-.721.7A2.282,2.282,0,0,1,61.5,10.338a6.672,6.672,0,0,0-.047-3.729Z" transform="translate(16.952 0.399)" fill="#8d3b26"/>
              <path id="Path_923851" data-name="Path 923851" d="M61.652,72.5a1.09,1.09,0,0,1,.643.912c.022.5.071,3.627.071,3.627a4.655,4.655,0,0,0-1.455.923c-.647.579-1.237,1.84-2.108,2.2a4.477,4.477,0,0,1-2.787.278c-.394-.165-.256-1.049.311-1.959.861-1.376,1.9-3.038,1.9-3.038Z" transform="translate(15.404 20.016)" fill="#8d3b26"/>
              <path id="Path_923852" data-name="Path 923852" d="M58.5,72.143A13.129,13.129,0,0,1,58.185,74a22.938,22.938,0,0,1-1.23,3.716c-.406.794-.336,1.376.918,1.008s3.243-3.578,3.618-4.931a3.4,3.4,0,0,0-.273-1.651c-.177-.926-2.714,0-2.714,0" transform="translate(15.664 19.804)" fill="#ffbd95"/>
              <path id="Path_923853" data-name="Path 923853" d="M68.665,74.62a4.509,4.509,0,0,1,.648,1.878c-.017.791-.542,2.663-1.15,2.749s-1.861-1.182-2.033-1.393c-1.068-1.322-1.2-4.115-1.2-4.115Z" transform="translate(17.927 20.358)" fill="#8d3b26"/>
              <path id="Path_923854" data-name="Path 923854" d="M67.622,71.832s1.161,3.451,1.171,3.864-.4,2.006-.976,2.02c-1.626.042-2.954-2.775-2.9-3.762s.092-2.055.092-2.055Z" transform="translate(17.922 19.832)" fill="#ffbd95"/>
              <path id="Path_923855" data-name="Path 923855" d="M55.111,13.445c-1.319-.26-3.637,2.964-4.4,7.335-1.325,7.6-2.321,10.542-.028,11.214,2.083.611,3.318-1.587,5.319-7.9,1.564-4.937,1.841-10.11-.892-10.648" transform="translate(13.615 3.707)" fill="#b30000"/>
              <path id="Path_923856" data-name="Path 923856" d="M54.852,33.566c-.63,1.644-1.111,3.174-.892,4.025.639,2.478,7.959,4.58,7.959,4.58H62.4V34.134c-2.82,0-4.73-.568-7.551-.568" transform="translate(14.883 9.267)" fill="#27547c"/>
              <path id="Path_923857" data-name="Path 923857" d="M54.378,35.954c-.935,1.706-.892,4.778-.427,8.773.634,5.448,2.422,14.124,2.643,14.9,1.009,3.528,4.485,3.38,5.018.577.147-.773,1.335-16.428,1.141-18.168a18.865,18.865,0,0,0-2.4-6.865c-.935-1.438-4.579-1.757-5.973.786" transform="translate(14.806 9.404)" fill="#27547c"/>
              <path id="Path_923858" data-name="Path 923858" d="M61.9,58.6c-.145-5.412-1.644-6.476-3.578-6.476-3.1,0-2.579,5.782-2.532,7.539.047,1.719,2.389,15.67,2.991,17.889h2.713c.357-3.787.524-14.518.406-18.952" transform="translate(15.386 14.391)" fill="#27547c"/>
              <path id="Path_923859" data-name="Path 923859" d="M71.629,14.888c-.5-1.126-3.083-1.623-4.267-1.977a31.434,31.434,0,0,0-4.785-.484s-5.658.567-6.883.521c-.518-.019-.9,1.847-1.1,2.379-1.119,2.986-2.451,6.462.355,8.885.639.554,1.2,6.856,1.2,9.775A15.648,15.648,0,0,1,55.025,39.4c2.82,0,4.73.568,7.551.568h8.462A47.987,47.987,0,0,1,69,33.988c-1.644-8.982,3.379-17.4,2.624-19.1" transform="translate(14.709 3.431)" fill="#cee0ff"/>
              <path id="Path_923860" data-name="Path 923860" d="M68.684,77.248c.179-1.778-.421-15.949-.726-17.681s-.615-8.207-5-7.3c-1.892.39-2.381,1.624-1.437,6.962.769,4.341,3.264,14.625,4.46,18.311a11.4,11.4,0,0,0,2.7-.292" transform="translate(16.856 14.406)" fill="#002d56"/>
              <path id="Path_923861" data-name="Path 923861" d="M60.564,34.01v8.037h.484s8.229-1.534,8.87-4.012c.219-.851-.263-2.381-.892-4.025Z" transform="translate(16.721 9.389)" fill="#27547c"/>
              <path id="Path_923862" data-name="Path 923862" d="M69.659,36.651c.893,1.729.775,4.8.211,8.782A143.793,143.793,0,0,1,66.835,59.6c-1.1,3.5-5.237,3.193-5.7.376-.128-.776-.374-16.293-.138-18.027s.508-4.921,1.812-6.822c.971-1.415,5.518-1.054,6.849,1.524" transform="translate(16.814 9.471)" fill="#27547c"/>
              <path id="Path_923863" data-name="Path 923863" d="M64.186,11.962a22.566,22.566,0,0,1-.327-4.5h-4.52a22.544,22.544,0,0,1-.325,4.5,8.485,8.485,0,0,1-2.2,2.32h9.572a8.485,8.485,0,0,1-2.2-2.32" transform="translate(15.686 2.061)" fill="#ffbd95"/>
              <path id="Path_923864" data-name="Path 923864" d="M63.882,9.223c-.031-.948-.023-1.757-.023-1.757h-4.52a22.544,22.544,0,0,1-.325,4.5,8.524,8.524,0,0,1-2.2,2.32l7.068-5.056Z" transform="translate(15.686 2.061)" fill="#ffa47c"/>
              <path id="Path_923865" data-name="Path 923865" d="M65.219,7.364c-.888,3.438-4.556,5.463-6.312,5.01-1.709-.442-3.3-3.85-2.727-7.405.561-3.505,3.212-5.2,5.809-4.53s4.118,3.488,3.23,6.925" transform="translate(15.478 0.081)" fill="#ffbd95"/>
              <path id="Path_923866" data-name="Path 923866" d="M58.553,2.69c.29,1.014,1.2,1.7,3.309,2.072,1.51.268,2.291,2.469,2.194,3.3-.037.319-.549,1.822-.549,1.822a5.413,5.413,0,0,0,1.018-7.136C61.978-1.547,58.182.394,58.123.7a8.83,8.83,0,0,0,.43,1.987" transform="translate(16.045 -0.001)" fill="#8d3b26"/>
              <path id="Path_923867" data-name="Path 923867" d="M60.064,1.826s-.137,1.464-1.411,1.638a6.9,6.9,0,0,0-2.575,1.1s.088-3.493,2.61-3.992,1.377,1.254,1.377,1.254" transform="translate(15.482 0.133)" fill="#8d3b26"/>
              <path id="Path_923868" data-name="Path 923868" d="M64.969,23.833c-.75-.351-2.393-.2-6.262-.4s-4.408-2.154-4.981-3.005c-.556-.827-.033-3.606,0-3.762-.667,2.287-.822,4.612,1.224,6.378.639.554,1.2,6.856,1.2,9.775a15.648,15.648,0,0,1-1.122,5.414,39.744,39.744,0,0,1,4.73.394s-.248-2.123-.5-3.212a11.981,11.981,0,0,1,.925-6.073c.925-1.8,5.084-3.206,5.536-3.805s0-1.353-.75-1.7" transform="translate(14.709 4.601)" fill="#b8d1ff"/>
              <path id="Path_923869" data-name="Path 923869" d="M62.489,58.806c-.133-1.863.138-10.167-.063-14.722-.148-3.362-.992-3.81-1.424-3.816L61,40.3c-.221,1.618-.02,15.228.111,17.676a21.138,21.138,0,0,0,.454,4.539c.769,4.341,3.264,14.625,4.46,18.309.225,0,1.012.02,1.313,0l.627-.133S65.416,68.9,63.93,63.113c-.388-1.511-1.34-2.9-1.441-4.307" transform="translate(16.813 11.117)" fill="#002d56"/>
              <path id="Path_923870" data-name="Path 923870" d="M55.428,38.814c-.145-2.219,2.667-4.2,3.941-4.887-1.787-.114-4.432-.361-4.432-.361-1.748,2.6-1.442,7.3-.977,11.3.627,5.374,2.371,13.872,2.63,14.846a20.825,20.825,0,0,0-.211,5.08c.047,1.719,2.389,15.67,2.99,17.889L57.6,60.667s-1.97-18.792-2.171-21.853" transform="translate(14.798 9.266)" fill="#002d56"/>
              <path id="Path_923871" data-name="Path 923871" d="M58.669,12.445s-2.981,7.418-2.912,8.786.734,10.186.715,13.322-.088,7.17-.366,7.519-3.292.37-3.292.023-.951-3.778-.185-4.891-1.074-4.291-.107-5.681c1.1-1.575-.912-4.913-.125-6.363.62-1.14-.835-3.574-.185-5.064.911-2.092-.07-4.434.486-5.312s3.548-2.832,5.972-2.339" transform="translate(14.368 3.414)" fill="#b30000"/>
              <path id="Path_923872" data-name="Path 923872" d="M64.77,12.445S60.5,19.892,60.5,21.718,63.677,42.79,64.542,42.79s4.767-.743,5.273-1.3.228-4.728-.7-5.192.438-3.467-.3-4.722.411-4.115-.531-5.682,1.706-4.274.835-5.286.918-5.448.6-6.1-3.167-2.55-4.942-2.066" transform="translate(16.703 3.414)" fill="#b30000"/>
              <path id="Path_923873" data-name="Path 923873" d="M54.413,28.42c.6-1.077-.353-3.368-2.843-4.378-1.972-.8-4.016-2.176-5.406-1.873-.633.138-1.312,1.6-1.467,1.9-.681,1.33,1.7,2.089,4.017,4.161,2.349,2.1,4.459,2.419,5.7.189" transform="translate(12.308 6.108)" fill="#b30000"/>
              <rect id="Rectangle_408981" data-name="Rectangle 408981" width="1.198" height="2.349" transform="translate(67.915 21.1) rotate(-82.222)" fill="#cee0ff"/>
              <path id="Path_923874" data-name="Path 923874" d="M69.094,13.545c1.775.643,3.348,3.12.4,9.512-3.226,7-3.41,9.67-5.69,8.954-2.07-.65-2.047-3.467-.2-9.83,1.443-4.973,2.866-9.586,5.486-8.637" transform="translate(17.184 3.705)" fill="#db0000"/>
              <path id="Path_923875" data-name="Path 923875" d="M67.511,21.425c-.309-.1-.239-1.2.158-2.458s.969-2.2,1.277-2.107.237,1.2-.158,2.458-.969,2.2-1.277,2.107" transform="translate(18.586 4.653)" fill="#cee0ff"/>
              <path id="Path_923876" data-name="Path 923876" d="M55.981,6.335l1.864-.152,5.441.57-.342,3.273L59.063,11.7l-1.94-1.713Z" transform="translate(15.456 1.706)" fill="#cee0ff"/>
              <path id="Path_923877" data-name="Path 923877" d="M57.846,6.182,59.063,11.7,57.122,9.988,55.981,6.334Z" transform="translate(15.456 1.706)" fill="#b8d1ff"/>
              <path id="Path_923878" data-name="Path 923878" d="M61.725,7.264a7.149,7.149,0,0,0,1.446-.951,13.69,13.69,0,0,0,1.3-1.979,9.218,9.218,0,0,1-1.032,2.55,18.081,18.081,0,0,1-1.8,1.216Z" transform="translate(17.018 1.196)" fill="#b8d1ff"/>
              <path id="Path_923879" data-name="Path 923879" d="M61.438,10.17a17.947,17.947,0,0,0,1.96-2c.209-.419.97-2.511.97-2.511A20.806,20.806,0,0,1,63.074,8c-.265.248-1.554,1.39-1.554,1.39Z" transform="translate(16.962 1.562)" fill="#b8d1ff"/>
              <rect id="Rectangle_408982" data-name="Rectangle 408982" width="17.795" height="14.687" transform="translate(52.848 15.729)" fill="#b79a77"/>
              <path id="Path_923880" data-name="Path 923880" d="M57.176,25.336s-.287-1.869-1.482-2.109a4.73,4.73,0,0,0-2.76.724c-1.36.485-2.952-.442-3.816-.293s-.87.694-.551.745c1.789.285,2.793,1.013,3.6,1.039s4.246.676,4.246.676Z" transform="translate(13.356 6.4)" fill="#cee0ff"/>
              <path id="Path_923881" data-name="Path 923881" d="M55.885,24.235a4.207,4.207,0,0,0-1.543-1.358c-.758-.248-1.637.334-2.3.213s-.482.262-.427.365a7.466,7.466,0,0,0,1.229.362c.36.119,1.688,1.365,3.04.417" transform="translate(14.233 6.299)" fill="#cee0ff"/>
              <path id="Path_923882" data-name="Path 923882" d="M68.29,27.449c.069-1.2-2.89-2.936-6.188-3.25-3.8-.361-7.215-1.254-7.23-.182-.006.481-.616,2.265-.015,2.7,1.231.888,3.754,1.1,6.234,2.026,3.742,1.4,7.057,1.185,7.2-1.294" transform="translate(15.072 6.489)" fill="#db0000"/>
              <path id="Path_923883" data-name="Path 923883" d="M54.685,19.054a5,5,0,1,1-5-5,5,5,0,0,1,5,5" transform="translate(12.338 3.88)" fill="#cee0ff"/>
              <rect id="Rectangle_408983" data-name="Rectangle 408983" width="1.599" height="6.488" transform="translate(61.159 19.691)" fill="#329fff"/>
              <rect id="Rectangle_408984" data-name="Rectangle 408984" width="6.484" height="1.6" transform="translate(58.718 22.136)" fill="#329fff"/>
              <path id="Path_923884" data-name="Path 923884" d="M35.42,26.365s3.513,1.108,3.637,1.28,6.212-2.245,5.924-2.5a2.387,2.387,0,0,0-2.01-.077c-.944.277-4.75-1.63-6.474-1.256s-1.077,2.556-1.077,2.556" transform="translate(9.746 6.559)" fill="#d17345"/>
              <path id="Path_923885" data-name="Path 923885" d="M1.636,71.587A9.374,9.374,0,0,0,.054,74.31a7.952,7.952,0,0,0,.057,2.141l3.457,1.166.278-.365a28.1,28.1,0,0,0,4.388,1.732,25.865,25.865,0,0,0,5.467-.542,7.931,7.931,0,0,0-.269-1.7c-.791-1.034-2.991-.383-3.99-.933a9.814,9.814,0,0,1-2.277-2.644Z" transform="translate(0 19.764)"/>
              <path id="Path_923886" data-name="Path 923886" d="M19.922,36.954s-9.869-4.932-11.014-3.6C7.722,34.743,6.9,37.572,7.255,41.247c.212,2.176-.325,15.4-1.544,19.431-1.5,4.973-5,21.976-5,21.976l6.753,1.572s4.313-15.894,5.48-18.982c.2-.528,1.018-3.311,1.294-3.805a33.3,33.3,0,0,0,1.69-5.631Z" transform="translate(0.196 9.145)" fill="#00233f"/>
              <path id="Path_923887" data-name="Path 923887" d="M13.5,13.427s-1.686,1.453-1.268,3.14c.785,3.167,14.547,10.748,16.052,10.773S31.5,24.8,29.9,23.5c-4.343-3.551-13.131-11.834-16.4-10.068" transform="translate(3.359 3.639)" fill="#d17345"/>
              <path id="Path_923888" data-name="Path 923888" d="M24.351,21.945s-1.381,1.4-.676,2.473C25,26.424,39.463,27.51,40.93,27.166s1.637-1.917-.154-2.445c-4.848-1.422-13.911-4.244-16.425-2.775" transform="translate(6.481 5.945)" fill="#d17345"/>
              <path id="Path_923889" data-name="Path 923889" d="M13.681,73.531a9.451,9.451,0,0,0-.923,3.017,7.914,7.914,0,0,0,.55,2.071l3.628.35.185-.422s3.439.595,4.672.684c1.54.115,5.132.2,5.7-.491a4.439,4.439,0,0,0-.652-2.065c-1.006-.823-3.425-.6-4.525-.914a10.624,10.624,0,0,1-2.888-1.952Z" transform="translate(3.522 20.301)" fill="#191919"/>
              <path id="Path_923890" data-name="Path 923890" d="M18.585,34.461s-10.043-2.8-11.011-1.307a10.042,10.042,0,0,0-1.293,7.468c.351,2.177,7.441,15.05,6.971,19.2s.713,25.6.713,25.6l8.439.139-.357-23.333s.219-1.9.237-2.516a29.207,29.207,0,0,0-.759-4.627Z" transform="translate(1.682 9.032)" fill="#002d56"/>
              <path id="Path_923891" data-name="Path 923891" d="M18.419,16.9a12.849,12.849,0,0,1-3.255-.44,10.5,10.5,0,0,1-2.995-1.808,31.168,31.168,0,0,1,2.56-5.464c.843-1.261,5.065,1.271,5.015,1.787s-1.654,4.263-1.325,5.926" transform="translate(3.359 2.439)" fill="#dd885b"/>
              <path id="Path_923892" data-name="Path 923892" d="M20.153,14.046c-1.314.424-5.652-1.1-6.087-1.616s-3.273,2.311-4.043,5.661c-.689,3-.826,8.6-1.718,15.6A40.407,40.407,0,0,1,6.39,40.218s.662,1.29,3.893,2.219c2.584.744,9.03.656,9.03.656S18,38.8,20.431,30.183c1.148-4.067,1.725-6.419,1.721-9.781a13.032,13.032,0,0,0-2-6.356" transform="translate(1.764 3.415)" fill="#232d29"/>
              <path id="Path_923893" data-name="Path 923893" d="M13.362,3.394c2.255-2.952,6.648-2.143,7.747-.323,1.374,2.273.671,2.821.772,3.351.369,1.969.869,2.722.715,3.257-.057.2-.806.184-.806.184s-.02,1.437-.024,2.579c0,.613-1.607.67-3.068.9a6.134,6.134,0,0,1-3.786-.915A7.672,7.672,0,0,1,12.88,8.68c-.7-3.006.054-4.73.482-5.286" transform="translate(3.477 0.397)" fill="#dd885b"/>
              <path id="Path_923894" data-name="Path 923894" d="M21.621,3.776a3.323,3.323,0,0,0-.147-1.291C20.834,1.279,18.283.445,15.8.536c-3.156.116-4.286,4.491-4.229,6.34C11.632,9,13.518,10.8,13.933,12.561c.231.971,1.49-.887,1.49-.887l.489-2.518S15.3,6.306,16.946,6.729c1.178.306.838,2.139.838,2.139l.569-.083a9.344,9.344,0,0,1,.539-2.856,15.554,15.554,0,0,1,2.73-2.153" transform="translate(3.194 0.146)" fill="#563b26"/>
              <path id="Path_923895" data-name="Path 923895" d="M17.171,7a2.729,2.729,0,0,0,1.88,2.968,6.531,6.531,0,0,0,1.821.047,11.272,11.272,0,0,1-.023,2.362c-.162.658-3.805.4-4.695-.512s.447-4.783.447-4.783Z" transform="translate(4.376 1.932)" fill="#563b26"/>
              <path id="Path_923896" data-name="Path 923896" d="M11.918,14.778s-1.8,1.311-1.594,2.953C10.7,20.815,23.074,28.8,24.521,28.9s3.4-2.275,2.012-3.614c-3.766-3.634-11.256-12.044-14.615-10.512" transform="translate(2.846 4.029)" fill="#dd885b"/>
              <path id="Path_923897" data-name="Path 923897" d="M21.3,23.573s-1.221,1.545-.4,2.532c1.536,1.85,16.029,1.368,17.451.866s1.42-2.081-.419-2.413c-4.972-.889-14.287-2.717-16.627-.985" transform="translate(5.69 6.309)" fill="#dd885b"/>
              <path id="Path_923898" data-name="Path 923898" d="M33.455,26.751s3.591,1.311,3.708,1.489,6.645-1.881,6.361-2.157a2.586,2.586,0,0,0-2.093-.193c-1.006.221-4.848-1.9-6.674-1.63s-1.3,2.49-1.3,2.49" transform="translate(9.217 6.691)" fill="#dd885b"/>
              <path id="Path_923899" data-name="Path 923899" d="M18.1,9.568s.743-.96,1.225-1.113.937-.355.937-.355l.2.583a6.755,6.755,0,0,0-.989.177,4.22,4.22,0,0,0-1.217.965Z" transform="translate(4.998 2.236)" fill="#563b26"/>
            </g>
          </g>
        </g>
      </g>
    </g>
  </g>
</svg>
