<svg xmlns="http://www.w3.org/2000/svg" xmlns:xlink="http://www.w3.org/1999/xlink" width="178" height="178" viewBox="0 0 178 178">
  <defs>
    <clipPath id="clip-path">
      <rect id="Rectangle_408952" data-name="Rectangle 408952" width="84.165" height="100.667" fill="none"/>
    </clipPath>
    <clipPath id="clip-path-3">
      <rect id="Rectangle_408947" data-name="Rectangle 408947" width="7.059" height="8.778" fill="none"/>
    </clipPath>
    <clipPath id="clip-path-4">
      <rect id="Rectangle_408950" data-name="Rectangle 408950" width="15.555" height="65.496" fill="none"/>
    </clipPath>
  </defs>
  <g id="Group_1119112" data-name="Group 1119112" transform="translate(-715.785 -3831.999)">
    <g id="Group_1118684" data-name="Group 1118684" transform="translate(715.785 3832)">
      <path id="Path_882862" data-name="Path 882862" d="M89,0A89.047,89.047,0,1,1,0,89,89,89,0,0,1,89,0Z" transform="translate(0 -0.001)" fill="#953c2d"/>
      <path id="Path_882863" data-name="Path 882863" d="M78.668,0A78.668,78.668,0,1,1,0,78.668,78.668,78.668,0,0,1,78.668,0Z" transform="translate(10.332 10.331)" fill="#f3f9ff"/>
    </g>
    <g id="Group_1118687" data-name="Group 1118687" transform="translate(754.785 3871)">
      <rect id="Rectangle_401104" data-name="Rectangle 401104" width="99.117" height="100.574" transform="translate(0 2)" fill="none"/>
      <g id="Group_1119066" data-name="Group 1119066" transform="translate(7.476 2)">
        <g id="Group_1119065" data-name="Group 1119065" clip-path="url(#clip-path)">
          <g id="Group_1119064" data-name="Group 1119064" transform="translate(0 0)">
            <g id="Group_1119063" data-name="Group 1119063" clip-path="url(#clip-path)">
              <path id="Path_923712" data-name="Path 923712" d="M18.22,17.194c-1.334,1.8-.594,3.41.842,4.565s10.069,5.087,10.666,4.855,2.245-3.055,1.843-3.876-7.128-5.554-8.482-6.237-3.306-1.42-4.869.693" transform="translate(4.059 3.66)" fill="#ffa47c"/>
              <path id="Path_923713" data-name="Path 923713" d="M19.916,14.608c.713-.3,2.862.91,3.918,1.763,1.494,1.209,5.228,4.238,5.228,4.238A9.82,9.82,0,0,1,27.7,24.059a8,8,0,0,1-2.648,2.715s-6.3-4.289-6.96-5.847c-.2-.466-.151-5.489,1.825-6.32" transform="translate(4.173 3.374)" fill="#191919"/>
              <path id="Path_923714" data-name="Path 923714" d="M15.289,7.193s-.541,6.546-.935,6.849c-1.224.942-5.563,1.609-6.438,3.3-1.058,2.047,3.933,11.621,4.512,14.744s-1.058,7.86-1.644,10.878,8.819,7.064,9.168,7.078a18.572,18.572,0,0,0,4.159-3.71c.623-.969.35-8.774.427-10.76s.81-8.923.918-9.375a13.766,13.766,0,0,0-.065-6.089c-.091-.647-.015-1.721-.321-2.143-.61-.842-4.138-2.062-4.18-2.473s-.305-6.121-.305-6.121Z" transform="translate(1.8 1.667)" fill="#ffbd95"/>
              <path id="Path_923715" data-name="Path 923715" d="M14.423,12.754s4.119,2.481,5.608,2.237c.3-.049.926-.788.926-.788s3.795,1.347,4.253,2.184a15.524,15.524,0,0,1,.686,3.572,30.28,30.28,0,0,1-.249,6.332c-.211,1.536-.251,3.574-.589,6.19-.288,2.24-.26,7.843-.26,7.843s-2.149,0-5.469-.287a67.815,67.815,0,0,1-8.46-1.182c-.718-.637,1.127-6.608,1.019-7.272S7.492,19.309,7.475,17.81a3.054,3.054,0,0,1,1.944-2.977c1.155-.52,5-2.079,5-2.079" transform="translate(1.732 2.955)" fill="#303030"/>
              <path id="Path_923716" data-name="Path 923716" d="M10.089,14.246S8.47,17.5,9.606,19.187s5.852,9.087,7.28,9.585c5.108,1.776-1.394,7.327-2.038,8.168S15.57,39,15.57,39l-4.6-.487c-1.556.245.734-7.335.209-8.955s-3-9.773-2.986-10.979,1.9-4.338,1.9-4.338" transform="translate(1.898 3.301)" fill="#191919"/>
              <path id="Path_923717" data-name="Path 923717" d="M19.461,11.4,13.721,9.087l-.6,4.516,1.876,1.026Z" transform="translate(3.038 2.106)" fill="#ffa47c"/>
              <path id="Path_923718" data-name="Path 923718" d="M13.866,15.876c-1.335-1.844-3.223-1.334-4.909.042S.165,26.16.182,26.873s2.26,3.11,3.236,2.82,8.192-6.865,9.374-8.245,2.637-3.412,1.074-5.573" transform="translate(0.042 3.401)" fill="#ffbd95"/>
              <path id="Path_923719" data-name="Path 923719" d="M22.191,3.2c-1.206-1.578-5.237-3.546-7.815-1.123a6.12,6.12,0,0,0-1.334,7.248,7.122,7.122,0,0,0,2.918,3.435,14.506,14.506,0,0,0,4.007,1.211c.453-.07,1.334-3.122,1.457-3.088a.573.573,0,0,0,.564-.337c.092-.363.092-2.67.224-2.889s1.361-2.648-.021-4.456" transform="translate(2.875 0.218)" fill="#ffbd95"/>
              <path id="Path_923720" data-name="Path 923720" d="M22.81,4.778s-2.139-1.764-5.582.409c-.741.468.022,3.152-.176,3.343S15.025,6.3,15.059,6.6c.35,3.013-.867,4.422-1.132,4.392-.8-.087-2.524-4.556-.733-7.6A5.522,5.522,0,0,1,19.346.957c.807.324,3.3.958,3.465,3.821" transform="translate(2.875 0.177)" fill="#8d3b26"/>
              <path id="Path_923721" data-name="Path 923721" d="M15.912,6.447c.117.959.028,2.211-.49,2.269s-1.035-.672-1.152-1.632S14.48,5.3,15,5.24s.8.246.914,1.207" transform="translate(3.3 1.213)" fill="#ffbd95"/>
              <rect id="Rectangle_408944" data-name="Rectangle 408944" width="0.718" height="3.727" transform="matrix(0.15, -0.989, 0.989, 0.15, 2.961, 98.524)" fill="#191919"/>
              <path id="Path_923722" data-name="Path 923722" d="M3.483,75.378a6.86,6.86,0,0,0-1.267,2.54c-.172.741.018,2.387.5,2.46a34.4,34.4,0,0,1,4.455.941c1.407.418,1.584,1.269,5.259,1.818,1.073.16,3.419.065,3.46-.392.192-2.16-3.518-1.4-4.472-2.633a15.216,15.216,0,0,0-4.2-4.06,32.451,32.451,0,0,0-3.728-.674" transform="translate(0.499 17.459)" fill="#191919"/>
              <rect id="Rectangle_408945" data-name="Rectangle 408945" width="3.727" height="0.696" transform="translate(20.758 98.077)" fill="#191919"/>
              <path id="Path_923723" data-name="Path 923723" d="M17.137,75.661a6.5,6.5,0,0,0-.867,2.616c-.058.734.381,2.282.863,2.282a36.054,36.054,0,0,1,4.546.252c1.453.2,2,1.032,5.712,1.024,1.085,0,3.1-.079,3-.512-.568-2.445-3.564-1.24-4.7-2.283a15.287,15.287,0,0,0-4.769-3.275,33.46,33.46,0,0,0-3.787-.1" transform="translate(3.768 17.518)" fill="#191919"/>
              <path id="Path_923724" data-name="Path 923724" d="M12.5,38.21s-.1,1.526-.121,3.7S15.1,50.779,16.349,56.13s1.811,6.4,1.748,7.7-1.259,5.811-1.479,9.585c-.2,3.465-1.057,10.048.979,12.438.467.548,1.063.366,2.857.368s2.652-.849,2.881-1.645c1.551-5.392,1.452-19.862,1.477-22.01.015-1.389.239-10.993-.151-18.767-.126-2.5-.956-8.232-1.052-9.262-.068-.718-11.1,3.672-11.1,3.672" transform="translate(2.869 7.983)" fill="#191919"/>
              <path id="Path_923725" data-name="Path 923725" d="M12.435,34.026a19.278,19.278,0,0,0-2.164,5.637c-.331,2.149-.377,6.189-.552,11.681A61.745,61.745,0,0,1,8.382,63.077c-.4,1.237-2.324,5.916-3.362,9.4-.99,3.333-2.96,9.347-2.03,12.217.239.733.914,1.118,2.647,1.584s2.434.451,2.9-.108c3.579-4.327,6.577-19.46,7.7-21.294,1.8-2.928,3.652-12.79,5.664-19.388.812-2.662,3.806-9.391,3.806-9.391Z" transform="translate(0.636 7.883)" fill="#303030"/>
              <path id="Path_923726" data-name="Path 923726" d="M16.746,36.8s.49,1.675-1.345,3.834-5.119,1.937-5.119,1.937v1.679s3.635.271,5.832-1.941A7.837,7.837,0,0,0,18.461,36.8Z" transform="translate(2.382 8.526)" fill="#191919"/>
              <path id="Path_923727" data-name="Path 923727" d="M14.579,16.259c.43.753-.581,3.81-1.73,4.994-1.628,1.68-5.576,6.395-5.576,6.395a8.021,8.021,0,0,1-3.229-1.825A7.359,7.359,0,0,1,1.9,22.533s6.026-7.131,7.807-7.81a3.586,3.586,0,0,1,4.872,1.536" transform="translate(0.44 3.317)" fill="#191919"/>
              <path id="Path_923728" data-name="Path 923728" d="M24.42,34.322s-8.45.273-10.39-.016a28.464,28.464,0,0,1-3.955-.941,16.678,16.678,0,0,0-.291,2.683c.121.234,4.262.909,7.443.932s7.37-.151,7.391-.676.18-1.993-.2-1.982" transform="translate(2.261 7.73)" fill="#585858"/>
              <path id="Path_923729" data-name="Path 923729" d="M1.457,23.745C-.99,24.125.227,29.11.944,31.516s3.516,9.2,3.516,9.2L7.107,40.1A67.807,67.807,0,0,0,5.414,26.656c-.168-.691-1.467-3.3-3.957-2.91" transform="translate(0 5.492)" fill="#ffbd95"/>
              <rect id="Rectangle_408946" data-name="Rectangle 408946" width="3.547" height="1.011" transform="translate(23.034 21.615) rotate(-6.94)" fill="#cee0ff"/>
              <path id="Path_923730" data-name="Path 923730" d="M5.821,19.634c.371.368,1.4-.065,2.3-.969s1.329-1.935.958-2.3-1.4.065-2.3.969-1.329,1.936-.958,2.3" transform="translate(1.318 3.76)" fill="#cee0ff"/>
              <path id="Path_923731" data-name="Path 923731" d="M31.165,21.61c-1.287-2.051-4.983-.28-6.481.7s-5.409,4.429-5.409,4.429l1.548,2.187a38.666,38.666,0,0,0,9.317-3.5,2.7,2.7,0,0,0,1.025-3.817" transform="translate(4.465 4.787)" fill="#ffa47c"/>
              <path id="Path_923732" data-name="Path 923732" d="M16.729,29.488h0a.428.428,0,0,1,.156-.579L18.458,28a.425.425,0,0,1,.58.158h0a.428.428,0,0,1-.158.579l-1.573.905a.425.425,0,0,1-.58-.158" transform="translate(3.862 6.474)" fill="#818181"/>
              <path id="Path_923733" data-name="Path 923733" d="M16.355,28.96l0,0a.426.426,0,0,1,.158-.578l1.573-.905a.427.427,0,0,1,.581.158h0a.427.427,0,0,1-.156.579l-1.574.905a.424.424,0,0,1-.579-.158" transform="translate(3.775 6.352)" fill="#818181"/>
              <path id="Path_923734" data-name="Path 923734" d="M16.021,28.423h0a.427.427,0,0,1,.158-.579l1.573-.905a.425.425,0,0,1,.58.158h0a.427.427,0,0,1-.158.579l-1.573.905a.425.425,0,0,1-.58-.158" transform="translate(3.698 6.228)" fill="#818181"/>
              <path id="Path_923735" data-name="Path 923735" d="M15.749,27.875v0a.427.427,0,0,1,.156-.578l1.574-.905a.425.425,0,0,1,.58.158h0a.428.428,0,0,1-.158.579l-1.573.905a.425.425,0,0,1-.58-.158" transform="translate(3.635 6.101)" fill="#818181"/>
              <path id="Path_923736" data-name="Path 923736" d="M20.648,25s-2.08.787-2.62,1.014a18.309,18.309,0,0,0-2.275,1.727s.983.315,1.18.8.586,1.792.586,1.792a13.049,13.049,0,0,0,2.7-1.026c.773-.51,1.791-1.248,1.791-1.248Z" transform="translate(3.649 5.791)" fill="#818181"/>
              <path id="Path_923737" data-name="Path 923737" d="M23.429,5.383s.845-4.26-4.738-5.252-7.933,3.856-7.2,7.272c.722,3.359,1.248,4.959.881,5.509s-.477.919-.367.991,3.158-.073,4.077-1.505S17.7,7.844,18.36,6.89s5.068-1.506,5.068-1.506" transform="translate(2.632 0.001)" fill="#303030"/>
              <g id="Group_1119059" data-name="Group 1119059" transform="translate(19.258 5.31)" opacity="0.5">
                <g id="Group_1119058" data-name="Group 1119058">
                  <g id="Group_1119057" data-name="Group 1119057" clip-path="url(#clip-path-3)">
                    <path id="Path_923738" data-name="Path 923738" d="M17.954,13.089H21.41L22.7,4.311H16.5a.867.867,0,0,0-.867.867v5.593a2.318,2.318,0,0,0,2.318,2.318" transform="translate(-15.636 -4.311)" fill="#c7d9d7"/>
                  </g>
                </g>
              </g>
              <path id="Path_923739" data-name="Path 923739" d="M17.153,5.3a.569.569,0,1,1-.569-.569.569.569,0,0,1,.569.569" transform="translate(3.71 1.095)" fill="#303030"/>
              <rect id="Rectangle_408948" data-name="Rectangle 408948" width="7.957" height="1.543" transform="translate(25.878 34.757) rotate(-89.451)" fill="#303030"/>
              <rect id="Rectangle_408949" data-name="Rectangle 408949" width="1.543" height="6.662" transform="matrix(1, -0.025, 0.025, 1, 32.513, 24.984)" fill="#303030"/>
              <path id="Path_923740" data-name="Path 923740" d="M23.011,41.384H1.308a1.126,1.126,0,0,1,0-2.253h21.7a1.126,1.126,0,0,1,0,2.253" transform="translate(0.042 9.065)" fill="#191919"/>
              <path id="Path_923741" data-name="Path 923741" d="M8.385,46.5h0a1.029,1.029,0,0,1-1.026-1.026V40.4a1.026,1.026,0,1,1,2.052,0v5.073A1.029,1.029,0,0,1,8.385,46.5" transform="translate(1.705 9.123)" fill="#191919"/>
              <path id="Path_923742" data-name="Path 923742" d="M4.67,42.382h0a.484.484,0,0,0,.435-.521l-.182-2.048a.482.482,0,0,0-.523-.436h0a.482.482,0,0,0-.434.521l.181,2.047a.481.481,0,0,0,.523.436" transform="translate(0.918 9.122)" fill="#818181"/>
              <path id="Path_923743" data-name="Path 923743" d="M5.4,42.385h0a.484.484,0,0,0,.435-.521l-.182-2.048a.481.481,0,0,0-.523-.435h0A.481.481,0,0,0,4.7,39.9l.181,2.047a.481.481,0,0,0,.523.436" transform="translate(1.088 9.123)" fill="#818181"/>
              <path id="Path_923744" data-name="Path 923744" d="M6.117,42.346h0a.482.482,0,0,0,.434-.521l-.181-2.047a.481.481,0,0,0-.523-.436h0a.481.481,0,0,0-.434.521l.181,2.047a.481.481,0,0,0,.523.436" transform="translate(1.253 9.114)" fill="#818181"/>
              <path id="Path_923745" data-name="Path 923745" d="M6.8,42.242h0a.484.484,0,0,0,.435-.521l-.182-2.048a.481.481,0,0,0-.523-.435h0a.481.481,0,0,0-.434.521l.181,2.047a.481.481,0,0,0,.523.436" transform="translate(1.412 9.09)" fill="#818181"/>
              <path id="Path_923746" data-name="Path 923746" d="M6.384,35.861a38.627,38.627,0,0,1,1.6,3.624,20.8,20.8,0,0,1-.124,3.231s-.931-.707-1.511-.571-2.042.62-2.042.62A14.687,14.687,0,0,1,3.5,39.6c-.028-1.048-.22-2.715-.22-2.715Z" transform="translate(0.761 8.308)" fill="#818181"/>
              <g id="Group_1119062" data-name="Group 1119062" transform="translate(22.333 11.421)" opacity="0.7">
                <g id="Group_1119061" data-name="Group 1119061">
                  <g id="Group_1119060" data-name="Group 1119060" clip-path="url(#clip-path-4)">
                    <path id="Path_923747" data-name="Path 923747" d="M21.972,74.762,31.71,74.3,33.688,9.272l-10.536.5c-1.779.085-3.149,1.074-3.188,2.3l-1.831,60.18c-.043,1.437,1.75,2.61,3.839,2.51" transform="translate(-18.133 -9.272)" fill="#9abbb7"/>
                  </g>
                </g>
              </g>
              <path id="Path_923748" data-name="Path 923748" d="M40.266,27.232s-1.408,1.278-2.41.558c-1.884-1.356-2.384-15.344-2-16.744s1.91-1.506,2.352.241c1.187,4.728,3.566,13.577,2.054,15.945" transform="translate(8.279 2.314)" fill="#d17345"/>
              <path id="Path_923749" data-name="Path 923749" d="M35.806,12.081s.48-3.117.4-3.274,4-4.055,4.09-3.741a2.134,2.134,0,0,1-.693,1.59c-.56.639-.552,4.262-1.476,5.472s-2.318-.048-2.318-.048" transform="translate(8.295 1.17)" fill="#d17345"/>
              <path id="Path_923750" data-name="Path 923750" d="M68.086,70.973a9.06,9.06,0,0,1,2.128,2.171,7.668,7.668,0,0,1,.454,2.016l-2.956,1.913-.347-.275a27.134,27.134,0,0,1-3.693,2.664,25.048,25.048,0,0,1-5.243.792,7.662,7.662,0,0,1-.153-1.655c.494-1.155,2.707-1.07,3.51-1.822a9.475,9.475,0,0,0,1.5-3.015Z" transform="translate(13.495 16.442)"/>
              <path id="Path_923751" data-name="Path 923751" d="M43.465,41.162s8-6.132,9.389-5.156c1.439,1.015,2.944,2.637,3.479,6.16.32,2.085.863,13.52,3.362,16.621C62.843,62.69,72.3,79.342,72.3,79.342L66.36,82.418S56.578,67.013,55.03,65.727c-.421-.349-2.646-1.349-3.022-1.744-1.019-1.075-1.478-5.738-1.478-5.738Z" transform="translate(10.069 8.317)" fill="#00233f"/>
              <path id="Path_923752" data-name="Path 923752" d="M55.916,18.293s1.075,1.86.16,3.264c-1.719,2.639-16.669,5.187-18.049,4.732s-2.126-3.333-.252-4.018C42.86,20.41,53.5,15.648,55.916,18.293" transform="translate(8.491 4.057)" fill="#d17345"/>
              <path id="Path_923753" data-name="Path 923753" d="M48.546,76.623a9.122,9.122,0,0,1,.89,2.912,7.639,7.639,0,0,1-.531,2l-3.5.337-.179-.408s-3.319.574-4.509.66c-1.487.11-4.954.19-5.5-.474a4.285,4.285,0,0,1,.629-1.993c.971-.794,3.306-.584,4.367-.882A10.254,10.254,0,0,0,43,76.89Z" transform="translate(8.152 17.751)" fill="#3b0500"/>
              <path id="Path_923754" data-name="Path 923754" d="M44.327,37.471s9.184-2.572,10.119-1.132a9.1,9.1,0,0,1,1.407,7.022c-.339,2.1-6.833,14.583-6.379,18.586s-.69,24.709-.69,24.709l-8.144.134.344-22.521s-.212-1.831-.229-2.429a28.484,28.484,0,0,1,.733-4.466Z" transform="translate(9.415 8.317)" fill="#002d56"/>
              <path id="Path_923755" data-name="Path 923755" d="M48.255,18a12.442,12.442,0,0,0,3.151.351,10.19,10.19,0,0,0,3.229-.991,30,30,0,0,0-1.118-5.716c-.494-1.378-5.04,0-5.113.5s.549,4.38-.149,5.859" transform="translate(11.179 2.561)" fill="#d17345"/>
              <path id="Path_923756" data-name="Path 923756" d="M49.522,16.068c1.132.7,5.55.291,6.078-.087s2.522,2.931,2.458,6.248C58,25.2,55.6,30.46,54.8,37.223,54.539,39.4,56.277,43.8,56.277,43.8s-.923,1.052-4.164,1.165c-2.6.091-8.609-1.5-8.609-1.5s.409-4.225,1.192-12.527c.384-4.061-.475-6.612.317-9.758s4.51-5.109,4.51-5.109" transform="translate(10.078 3.696)" fill="#b8d1ff"/>
              <path id="Path_923757" data-name="Path 923757" d="M53.469,5.4c-2.615-2.452-6.669-.985-7.427.923a3.857,3.857,0,0,0-.2,3.312c-.038,1.934-.4,2.729-.164,3.215.086.18.8.046.8.046s.248,1.366.432,2.452c.094.584,1.636.382,3.063.368a5.919,5.919,0,0,0,3.46-1.472,7.4,7.4,0,0,0,1.34-3.887c.19-2.974-.8-4.5-1.3-4.956" transform="translate(10.555 0.954)" fill="#dd885b"/>
              <path id="Path_923758" data-name="Path 923758" d="M45.986,7.049s-1.218-1.941-.666-2.478c.945-.918,3.316-1.224,5.7-1.531,3.022-.39,4.792,3.6,5.031,5.365.277,2.031-.819,4.992-.934,6.733-.067.961-1.973-1.554-1.973-1.554l-.866-2.319s.133-2.812-1.368-2.147c-1.073.479-.459,2.17-.459,2.17l-.554.011a9.006,9.006,0,0,0-.967-2.633,14.974,14.974,0,0,0-2.94-1.617" transform="translate(10.465 0.699)" fill="#563b26"/>
              <path id="Path_923759" data-name="Path 923759" d="M49.692,9.742a2.636,2.636,0,0,1-1.319,3.123,6.275,6.275,0,0,1-1.727.334s-.813,1.4-.553,2,4.636.018,5.338-.99-1.184-4.482-1.184-4.482Z" transform="translate(10.666 2.255)" fill="#563b26"/>
              <path id="Path_923760" data-name="Path 923760" d="M56.642,19.354s.67,2.04-.414,3.212c-2.036,2.2-16.23,1.5-17.421.761s-1.383-3.7.458-3.965c5-.728,15.606-3.1,17.376-.009" transform="translate(8.779 4.125)" fill="#dd885b"/>
              <path id="Path_923761" data-name="Path 923761" d="M41.981,24.749s-1.159,1.508-2.274.977c-2.094-1-5.063-14.68-4.929-16.127s1.613-1.82,2.357-.179c2.006,4.444,5.913,12.73,4.845,15.329" transform="translate(8.055 1.933)" fill="#dd885b"/>
              <path id="Path_923762" data-name="Path 923762" d="M46.3,11.851a2.987,2.987,0,0,1,1.028.1,6.329,6.329,0,0,1,1.224.93l.342-.294a8.739,8.739,0,0,0-1.665-1.426,1.7,1.7,0,0,0-1.03.137Z" transform="translate(10.704 2.576)" fill="#563b26"/>
              <path id="Path_923763" data-name="Path 923763" d="M34.925,10.98s-.521-3.111-.649-3.233S36.8,2.64,36.985,2.911a2.138,2.138,0,0,1-.159,1.728c-.331.782.813,4.218.314,5.659s-2.216.681-2.216.681" transform="translate(7.939 0.672)" fill="#dd885b"/>
            </g>
          </g>
        </g>
      </g>
    </g>
  </g>
</svg>
