<svg xmlns="http://www.w3.org/2000/svg" xmlns:xlink="http://www.w3.org/1999/xlink" width="99" height="99" viewBox="0 0 99 99">
  <defs>
    <clipPath id="clip-path">
      <rect id="Rectangle_401223" data-name="Rectangle 401223" width="99" height="99" transform="translate(0)" fill="#8ce6fe"/>
    </clipPath>
    <clipPath id="clip-path-2">
      <rect id="Rectangle_401223-2" data-name="Rectangle 401223" width="88.539" height="88.539" fill="#f3f9ff"/>
    </clipPath>
    <clipPath id="clip-path-3">
      <rect id="Rectangle_408873" data-name="Rectangle 408873" width="64" height="61.275" fill="none"/>
    </clipPath>
  </defs>
  <g id="Group_1118705" data-name="Group 1118705" transform="translate(-619.921 -5755.871)">
    <g id="Group_1100724" data-name="Group 1100724" transform="translate(619.921 5755.871)">
      <g id="Group_1099654" data-name="Group 1099654" transform="translate(0 0)">
        <g id="Group_1099652" data-name="Group 1099652" clip-path="url(#clip-path)">
          <path id="Path_873521" data-name="Path 873521" d="M99,77.066A22,22,0,0,1,77.066,99H21.934A22,22,0,0,1,0,77.066V21.933A22,22,0,0,1,21.934,0H77.066A22,22,0,0,1,99,21.934Z" transform="translate(0)" fill="#ffdcd6"/>
        </g>
      </g>
      <g id="Group_1099659" data-name="Group 1099659" transform="translate(4.77 5.723)">
        <g id="Group_1099652-2" data-name="Group 1099652" transform="translate(0 0)" clip-path="url(#clip-path-2)">
          <path id="Path_873521-2" data-name="Path 873521" d="M88.539,68.922A19.674,19.674,0,0,1,68.923,88.539H19.616A19.674,19.674,0,0,1,0,68.922V19.616A19.674,19.674,0,0,1,19.616,0H68.923A19.674,19.674,0,0,1,88.539,19.616Z" fill="#f3f9ff"/>
        </g>
      </g>
    </g>
    <g id="Group_1100725" data-name="Group 1100725" transform="translate(636.343 5771.293)">
      <rect id="Rectangle_401104" data-name="Rectangle 401104" width="68" height="69" transform="translate(-1.71 0.266)" fill="none"/>
      <g id="Group_1118937" data-name="Group 1118937" transform="translate(0.29 4.266)">
        <g id="Group_1118936" data-name="Group 1118936" transform="translate(0 0)" clip-path="url(#clip-path-3)">
          <path id="Path_922241" data-name="Path 922241" d="M34.662,53.072c-9.4-6.687-10.981-4.506-19.347-.488C6.25,56.938.708,52.812.068,45.812c-1.308-14.318,16.674-7.89,14.673-23.089-1.475-11.2,3.382-16.106,9.967-17.23C31.224,4.379,40.383,6.747,39.975,17.35c-.226,5.866,7.95,8.277,13.268,11.085,8,4.224,6.918,15.087,3.72,19.989-5.376,8.241-13.514,10.9-22.3,4.647" transform="translate(0 -0.711)" fill="#ffdcd6"/>
          <path id="Path_922242" data-name="Path 922242" d="M52.594,45.128c.07-.491-1.269-3.879-1.7-4.04a1.391,1.391,0,0,1-.637-.637,28.217,28.217,0,0,1-1.291-2.621c-.217-.458-.462-.895-.706-1.338A5.407,5.407,0,0,0,47.7,35.38a.517.517,0,0,0-.789.013c-.163.246.035.456.115.694.18.53.345,1.065.506,1.6.035.118.273.632.194.745-.379.547-1.031-.82-1.144-1.031a3,3,0,0,0-1.163-1.367A.278.278,0,0,0,45.186,36c-.119.054-.118.222-.089.349.166.75.6,1.422.749,2.175a.359.359,0,0,1-.064.351c-.39.316-1-.483-1.223-.727-.14-.155-.33-.334-.526-.262a.348.348,0,0,0-.2.331,1.006,1.006,0,0,0,.105.392,10.005,10.005,0,0,0,.488,1.119c.1.168.43.639.233.819a.185.185,0,0,1-.148.035,1.035,1.035,0,0,1-.486-.281.508.508,0,0,0-.524-.123c-.207.112-.2.411-.135.637a8.67,8.67,0,0,0,1.194,2.254q.722,1.133,1.545,2.194a29.462,29.462,0,0,0,2.347,2.682,4.644,4.644,0,0,0,2.7,1.633,5.27,5.27,0,0,0,2.086-.359,1.605,1.605,0,0,0,.832-.841.341.341,0,0,0,.029-.16.374.374,0,0,0-.1-.182,11.181,11.181,0,0,1-.99-1.279,2.774,2.774,0,0,1-.416-1.629" transform="translate(-5.875 -4.774)" fill="#cc8b6e"/>
          <path id="Path_922243" data-name="Path 922243" d="M65.336,60.753c1.15,1.846-7.87,5.38-9.609,2.534a84.74,84.74,0,0,1-7.076-15.2l4.361-2.039s8.7,8.884,12.324,14.7" transform="translate(-6.597 -6.244)" fill="#cc8b6e"/>
          <path id="Path_922244" data-name="Path 922244" d="M56.791,47.669l-9.379,3.7L55.1,67.739l12.27-6.578Z" transform="translate(-6.429 -6.464)" fill="#953c2d"/>
          <path id="Path_922245" data-name="Path 922245" d="M54.785,36.466a10.871,10.871,0,1,1-4.487-14.7,10.867,10.867,0,0,1,4.487,14.7" transform="translate(-4.653 -2.778)" fill="#ffb21b"/>
          <path id="Path_922246" data-name="Path 922246" d="M54.386,36.295a10.318,10.318,0,1,1-4.26-13.955,10.317,10.317,0,0,1,4.26,13.955" transform="translate(-4.74 -2.865)" fill="#ffc91d"/>
          <path id="Path_922247" data-name="Path 922247" d="M52.8,35.61a8.131,8.131,0,1,1-3.357-11,8.132,8.132,0,0,1,3.357,11" transform="translate(-5.083 -3.208)" fill="#ffb21b"/>
          <path id="Path_922248" data-name="Path 922248" d="M52.364,35.851a7.789,7.789,0,1,1-3.217-10.533,7.79,7.79,0,0,1,3.217,10.533" transform="translate(-5.111 -3.309)" fill="#ffe984"/>
          <path id="Path_922249" data-name="Path 922249" d="M43.325,36.466l.551-1.036a4.951,4.951,0,0,1-1.6-1.455l1-1.1a4.377,4.377,0,0,0,1.555,1.442c.622.331,1.174.318,1.406-.12.22-.413.012-.859-.65-1.563-.959-1.013-1.465-1.981-.9-3.04a2.282,2.282,0,0,1,2.876-.958l.552-1.036,1.068.569-.51.958a4.465,4.465,0,0,1,1.389,1.2l-.971,1.063a4.136,4.136,0,0,0-1.376-1.207c-.707-.377-1.1-.194-1.261.112-.192.359.069.79.81,1.634,1.054,1.15,1.256,2.028.734,3.006a2.363,2.363,0,0,1-3.012.985l-.591,1.114Z" transform="translate(-5.732 -3.742)" fill="#ffb21b"/>
          <path id="Path_922250" data-name="Path 922250" d="M53.739,45.827a4.7,4.7,0,0,0-.676-3.579c-1.158-1.431-1-3.164-1.8-3.177-.828-.014-.864.587-.719,1.794.215,1.794-.054,2.956-.785,3.268s2.074,4.093,3.982,1.693" transform="translate(-6.73 -5.298)" fill="#cc8b6e"/>
          <path id="Path_922251" data-name="Path 922251" d="M24.373,17.758c.081-.489,2.377-3.317,2.84-3.341a1.391,1.391,0,0,0,.8-.416,28.229,28.229,0,0,0,2.02-2.111c.345-.372.71-.714,1.076-1.063.273-.259.538-.716.864-.893a.518.518,0,0,1,.749.249c.081.284-.171.426-.319.628-.331.451-.65.912-.965,1.375-.069.1-.449.52-.41.651.2.636,1.231-.471,1.4-.639a2.993,2.993,0,0,1,1.52-.953.278.278,0,0,1,.235.038c.1.088.044.247-.021.36-.385.665-1,1.174-1.37,1.848a.358.358,0,0,0-.043.354c.275.419,1.1-.16,1.384-.326.181-.105.416-.218.581-.09a.345.345,0,0,1,.09.374,1,1,0,0,1-.219.341,9.969,9.969,0,0,1-.8.921c-.143.131-.6.48-.468.71a.192.192,0,0,0,.131.079A1.029,1.029,0,0,0,34,15.732a.51.51,0,0,1,.537.041c.164.169.066.451-.063.649a8.724,8.724,0,0,1-1.817,1.79q-1.03.861-2.133,1.628a29.525,29.525,0,0,1-3.045,1.851,4.649,4.649,0,0,1-3.064.745,5.3,5.3,0,0,1-1.882-.97,1.612,1.612,0,0,1-.541-1.053.341.341,0,0,1,.022-.162.38.38,0,0,1,.151-.144,11.238,11.238,0,0,0,1.328-.921,2.774,2.774,0,0,0,.887-1.428" transform="translate(-2.981 -1.338)" fill="#cc8b6e"/>
          <path id="Path_922252" data-name="Path 922252" d="M18.212,18.665l7.832,6.346L13.78,38.312,4.058,28.346Z" transform="translate(-0.55 -2.531)" fill="#07c3f3"/>
          <path id="Path_922253" data-name="Path 922253" d="M44.127,9.3l-.191-2.263-2.77-.383a.631.631,0,0,1-.474-.349c-.053-.1-.108-.206-.167-.306a.607.607,0,0,1-.018-.59l1.3-2.443L40.083,1.489,37.864,3.139a.731.731,0,0,1-.678.094c-.153-.052-.309-.1-.467-.138a.734.734,0,0,1-.522-.467L35.3,0,33.044.242,32.725,3a.794.794,0,0,1-.41.614c-.1.05-.191.1-.284.159a.793.793,0,0,1-.73.031L28.844,2.693,27.473,4.505,29.12,6.455a.922.922,0,0,1,.18.863l-.023.08a.921.921,0,0,1-.61.626l-2.407.76.191,2.264,2.7.373a.779.779,0,0,1,.577.422l.006.01a.777.777,0,0,1,.01.729l-1.224,2.3,1.724,1.481,2.044-1.52a.709.709,0,0,1,.685-.081q.2.079.411.143a.708.708,0,0,1,.469.443l.838,2.462,2.259-.242.271-2.351a.692.692,0,0,1,.421-.549,6.031,6.031,0,0,0,.575-.286.685.685,0,0,1,.623-.036l2.381,1.08,1.37-1.812-1.507-1.782a.717.717,0,0,1-.115-.714q.092-.25.162-.509A.717.717,0,0,1,41.6,10.1Zm-7.711,3.642a4.089,4.089,0,1,1,2.85-3.535,4.093,4.093,0,0,1-2.85,3.535" transform="translate(-3.56 0)" fill="#025974"/>
          <path id="Path_922254" data-name="Path 922254" d="M24.367,18.191a4.7,4.7,0,0,1,1.722-3.21c1.535-1.016,1.9-2.717,2.675-2.487.794.236.647.82.145,1.927-.745,1.647-.838,2.836-.235,3.354s-3.209,3.279-4.307.416" transform="translate(-3.304 -1.692)" fill="#cc8b6e"/>
          <path id="Path_922255" data-name="Path 922255" d="M70.444,42.78a1.043,1.043,0,0,0-.653.239,2.054,2.054,0,0,0-1.785-1.31,1.655,1.655,0,0,0-.7.162A3.362,3.362,0,0,0,64.315,39a3.345,3.345,0,0,0-2.973,2.815,1.626,1.626,0,0,0-.562-.1,2.155,2.155,0,0,0-1.91,1.618A1.131,1.131,0,0,0,58.2,43.1a1.5,1.5,0,0,0-1.333,1.338H71.711a1.5,1.5,0,0,0-1.266-1.66" transform="translate(-7.711 -5.288)" fill="#b5d6fc"/>
          <path id="Path_922256" data-name="Path 922256" d="M29.017,47.772a1.043,1.043,0,0,0-.653.239A2.054,2.054,0,0,0,26.58,46.7a1.655,1.655,0,0,0-.7.162,3.362,3.362,0,0,0-2.988-2.874A3.345,3.345,0,0,0,19.915,46.8a1.626,1.626,0,0,0-.562-.1,2.155,2.155,0,0,0-1.91,1.618,1.131,1.131,0,0,0-.669-.226,1.5,1.5,0,0,0-1.333,1.338H30.284a1.5,1.5,0,0,0-1.266-1.66" transform="translate(-2.094 -5.965)" fill="#b5d6fc"/>
        </g>
      </g>
    </g>
  </g>
</svg>
