<svg xmlns="http://www.w3.org/2000/svg" xmlns:xlink="http://www.w3.org/1999/xlink" width="99" height="99" viewBox="0 0 99 99">
  <defs>
    <clipPath id="clip-path">
      <rect id="Rectangle_401223" data-name="Rectangle 401223" width="99" height="99" transform="translate(0)" fill="#8ce6fe"/>
    </clipPath>
    <clipPath id="clip-path-2">
      <rect id="Rectangle_401223-2" data-name="Rectangle 401223" width="88.539" height="88.539" fill="#f3f9ff"/>
    </clipPath>
    <clipPath id="clip-path-3">
      <rect id="Rectangle_408876" data-name="Rectangle 408876" width="64.23" height="55.297" fill="none"/>
    </clipPath>
  </defs>
  <g id="Group_1118704" data-name="Group 1118704" transform="translate(-619.921 -5755.871)">
    <g id="Group_1100724" data-name="Group 1100724" transform="translate(619.921 5755.871)">
      <g id="Group_1099654" data-name="Group 1099654" transform="translate(0 0)">
        <g id="Mask_Group_1099652" data-name="Mask Group 1099652" clip-path="url(#clip-path)">
          <path id="Path_873521" data-name="Path 873521" d="M99,77.066A22,22,0,0,1,77.066,99H21.934A22,22,0,0,1,0,77.066V21.933A22,22,0,0,1,21.934,0H77.066A22,22,0,0,1,99,21.934Z" transform="translate(0)" fill="#ffdcd6"/>
        </g>
      </g>
      <g id="Group_1099659" data-name="Group 1099659" transform="translate(4.77 5.723)">
        <g id="Group_1099652" data-name="Group 1099652" transform="translate(0 0)" clip-path="url(#clip-path-2)">
          <path id="Path_873521-2" data-name="Path 873521" d="M88.539,68.922A19.674,19.674,0,0,1,68.923,88.539H19.616A19.674,19.674,0,0,1,0,68.922V19.616A19.674,19.674,0,0,1,19.616,0H68.923A19.674,19.674,0,0,1,88.539,19.616Z" fill="#f3f9ff"/>
        </g>
      </g>
    </g>
    <g id="Group_1100725" data-name="Group 1100725" transform="translate(636.343 5771.293)">
      <rect id="Rectangle_401104" data-name="Rectangle 401104" width="68" height="69" transform="translate(0.29 0.266)" fill="none"/>
      <g id="Group_1118941" data-name="Group 1118941" transform="translate(2.29 7.266)">
        <g id="Group_1118940" data-name="Group 1118940" clip-path="url(#clip-path-3)">
          <path id="Path_922267" data-name="Path 922267" d="M54.434,51.925c-11.541-5.708-13.083-5.687-22.963-.908-10.7,5.178-18.28,1.686-19.356-5.169C9.049,26.3,18.731,4.11,32.082.52c7.684-2.066,16.719,2,16.65,12.526-.038,5.822,4.109,11.779,10.611,14.02,6.726,2.318,11.6.714,14.209,11.642,2.585,10.832-8.328,18.552-19.118,13.216" transform="translate(-9.706 0)" fill="#fff0c5"/>
          <path id="Path_922268" data-name="Path 922268" d="M19.25,93.187A2.1,2.1,0,0,1,21,95.1c-.321,3.181-1.437,6.816-1.59,9.96-.058,1.175.27,2.2,1.4,1.078.858-2.549,1.678-5.111,2.539-7.658.115-.339.134-.99.206-1.149a10.036,10.036,0,0,1,.9-.777,1.934,1.934,0,0,1,2.732,1.212c.19.94-.587,2.526-.9,3.492-.065.2-.368.536-.024.693a6.915,6.915,0,0,0-.6,1.071,76.383,76.383,0,0,0-2.985,9.443c-.589,2.513-.251,5.26-1.213,7.55-.478,1.138-1.2,1.752-1.369,3.092-.408,3.242.211,7.086-.045,10.392a58.355,58.355,0,0,1-6.78.008.9.9,0,0,1-.876-.876c-.32-2.444.232-5.6.014-8.14-.188-2.2-1.6-2.343-2.873-3.66-2.2-2.276-1.7-4.309-2.745-6.815-.991-2.372-4.645-4.7-6.262-6.8-1.588-2.063.756-3.434,2.7-3.176,2.076.277,3.958,4.056,5.393,3.935a1.479,1.479,0,0,0,1.4-1.317c.412-3.563-.484-8.119.01-11.621a1.934,1.934,0,0,1,3.774-.3l.04,10.317c.476,1.016,1.567,1.01,1.868-.2.8-3.222.817-7.086,1.58-10.37a2,2,0,0,1,1.967-1.3" transform="translate(0 -78.334)" fill="#c86f5d"/>
          <path id="Path_922269" data-name="Path 922269" d="M184.777,113.02a1.943,1.943,0,0,1,1.448,1.831c-.2,3.294-1.506,7.147-1.612,10.366-.033,1.02.607,1.387,1.426.777l2.871-8.76a1.871,1.871,0,0,1,3.48.2c.22.961-.746,3.3-1.081,4.348-1.077,3.373-2.532,7.005-3.366,10.416-.841,3.438-.146,6.879-2.493,9.935l-.036,8.01c-2.385.036-4.785.008-7.17,0-.958-.813-.616-2.024-.637-3.187-.018-.985.1-2.162,0-3.108-.182-1.7-1.827-2.213-2.872-3.342-2.512-2.712-1.584-5.739-3.739-8.371a22.852,22.852,0,0,0-1.834-1.591c-.941-.984-1.808-2.138-2.866-3.11-.2-.181-.328-.4-.64-.4-.063-.758-.708-.923-.24-1.912.386-.815,1.265-.865,1.515-1.275a4.651,4.651,0,0,1,2.694.413c.925.579,2.7,3.084,3.511,3.339,1.457.456,2.128-.422,2.246-1.754.319-3.6-.259-7.658,0-11.31a1.9,1.9,0,0,1,3.622-.135c.092,2.775-.008,5.557.033,8.332.022,1.478-.463,3.513,1.742,2.459l1.844-11.063a1.882,1.882,0,0,1,2.151-1.116" transform="translate(-138.918 -94.98)" fill="#fecdbf"/>
          <path id="Path_922270" data-name="Path 922270" d="M145.045,15.81a5.777,5.777,0,0,0-.486.869c-.687,1.6-3.5,10.425-3.5,11.8v2.709a12.663,12.663,0,0,1-.409,1.664c-.07.239-.169.914-.547.806-.041-2.774.059-5.556-.033-8.332a1.9,1.9,0,0,0-3.622.135c-.262,3.652.316,7.708,0,11.31-.118,1.332-.79,2.211-2.246,1.754-.815-.256-2.585-2.76-3.511-3.339A4.651,4.651,0,0,0,128,34.77c.154-.254,1.2-3.3,1.243-3.628a1.813,1.813,0,0,0-3-1.63c-.344-.156-.041-.491.024-.693.309-.966,1.086-2.553.9-3.492a1.934,1.934,0,0,0-2.732-1.212,10.034,10.034,0,0,0-.9.777c-.927-.611-1.526-1.786-2.549-2.231a2.1,2.1,0,0,0-1.753-1.912c-1.395-2.72,2.426-3.579,4.292-2.3,1.669,1.145,3.108,4.69,5.392,2.585l.044-12.465c.365-1.788,3.267-1.879,3.619-.132.341,3.169-.329,6.905.033,10,.131,1.12,1.227,1.495,1.875.593l1.677-10.751a1.878,1.878,0,0,1,3.626.272,5.044,5.044,0,0,1-.025.94c-.239,3.208-1.228,6.685-1.559,9.92a.8.8,0,0,0,1.408.6l2.873-8.758a1.832,1.832,0,0,1,2.669-.9c1.766.935.531,2.927.095,4.3Z" transform="translate(-99.983 -5.896)" fill="#fcb0a0"/>
          <path id="Path_922271" data-name="Path 922271" d="M131.509,145.61a1.813,1.813,0,0,1,3,1.63c-.046.328-1.089,3.374-1.243,3.628-.25.411-1.129.46-1.515,1.275-.468.989.177,1.154.24,1.912.056.676-.8,2.786-.938,3.763-.324,2.238.026,3.991-.994,6.176-.347.742-1.129,1.486-1.241,2.264-.439,3.06.326,6.993-.049,10.149-.257,1.164-2.505.737-3.471.751.256-3.305-.363-7.15.045-10.392.169-1.34.891-1.954,1.369-3.092.962-2.29.625-5.038,1.213-7.55a76.384,76.384,0,0,1,2.985-9.443,6.916,6.916,0,0,1,.6-1.071" transform="translate(-105.248 -121.994)" fill="#ba5d50"/>
          <path id="Path_922272" data-name="Path 922272" d="M291.815,193.99l.036-8.01c2.347-3.056,1.652-6.5,2.493-9.935.835-3.411,2.29-7.043,3.366-10.416,1.51-1.066,3.369-.339,3.149,1.628-.257,2.29-2.432,6.325-3.071,8.886-.831,3.329-.025,6.811-2.465,9.645l-.074,7.414c-.359,1.179-2.4.773-3.434.788" transform="translate(-245.319 -138.826)" fill="#fcb0a0"/>
          <path id="Path_922273" data-name="Path 922273" d="M190.706,249.219c4.1,2.133,2.479,7.207,5.652,10.043l2.634,2.226c.021,1.163-.321,2.373.637,3.187a77.124,77.124,0,0,1-8.055.008.956.956,0,0,1-.785-.49c-.25-4.984.047-9.99-.083-14.974" transform="translate(-160.303 -209.51)" fill="#fcb0a0"/>
          <path id="Path_922274" data-name="Path 922274" d="M257.388,67.423a1.882,1.882,0,0,0-2.151,1.115L253.394,79.6c-2.2,1.054-1.72-.98-1.742-2.459.379.108.478-.568.547-.806a12.663,12.663,0,0,0,.409-1.664V71.964c0-1.373,2.81-10.2,3.5-11.8a5.779,5.779,0,0,1,.486-.869,1.8,1.8,0,0,1,2.955,1.92Z" transform="translate(-211.53 -49.383)" fill="#f79f8e"/>
          <path id="Path_922275" data-name="Path 922275" d="M198.047,239.63l-2.634-2.226c-3.173-2.836-1.553-7.91-5.652-10.043a32.593,32.593,0,0,1-.159-4.143,22.848,22.848,0,0,1,1.834,1.591c2.155,2.631,1.227,5.658,3.739,8.371,1.045,1.129,2.69,1.638,2.872,3.342.1.946-.019,2.122,0,3.107" transform="translate(-159.358 -187.652)" fill="#f79f8e"/>
        </g>
      </g>
    </g>
  </g>
</svg>
