<svg xmlns="http://www.w3.org/2000/svg" xmlns:xlink="http://www.w3.org/1999/xlink" width="178" height="178" viewBox="0 0 178 178">
  <defs>
    <clipPath id="clip-path">
      <rect id="Rectangle_408968" data-name="Rectangle 408968" width="96.008" height="92.862" fill="none"/>
    </clipPath>
    <clipPath id="clip-path-2">
      <rect id="Rectangle_408967" data-name="Rectangle 408967" width="96.008" height="92.863" fill="none"/>
    </clipPath>
    <clipPath id="clip-path-3">
      <rect id="Rectangle_408957" data-name="Rectangle 408957" width="28.013" height="33.112" fill="none"/>
    </clipPath>
    <clipPath id="clip-path-5">
      <rect id="Rectangle_408959" data-name="Rectangle 408959" width="83.281" height="42.83" fill="none"/>
    </clipPath>
  </defs>
  <g id="Group_1119113" data-name="Group 1119113" transform="translate(-1066.785 -3831.999)">
    <g id="Group_1118683" data-name="Group 1118683" transform="translate(1066.785 3832)">
      <path id="Path_882862" data-name="Path 882862" d="M89,0A89.047,89.047,0,1,1,0,89,89,89,0,0,1,89,0Z" transform="translate(0 -0.001)" fill="#953c2d"/>
      <path id="Path_882863" data-name="Path 882863" d="M78.668,0A78.668,78.668,0,1,1,0,78.668,78.668,78.668,0,0,1,78.668,0Z" transform="translate(10.332 10.331)" fill="#f3f9ff"/>
    </g>
    <g id="Group_1118686" data-name="Group 1118686" transform="translate(1105.785 3871)">
      <rect id="Rectangle_401104" data-name="Rectangle 401104" width="99.117" height="100.574" fill="none"/>
      <g id="Group_1119079" data-name="Group 1119079" transform="translate(8.207 11)">
        <g id="Group_1119078" data-name="Group 1119078" clip-path="url(#clip-path)">
          <path id="Path_923843" data-name="Path 923843" d="M0,0,2.64,0,2.635,6.836l-2.64,0Z" transform="translate(61.526 15.89) rotate(-89.609)" fill="#b8d1ff"/>
          <g id="Group_1119077" data-name="Group 1119077" transform="translate(0 -0.001)">
            <g id="Group_1119076" data-name="Group 1119076" clip-path="url(#clip-path-2)">
              <path id="Path_923764" data-name="Path 923764" d="M53.514,59.107l-4.1-.455a35.225,35.225,0,0,0-3.488,3.108A3.577,3.577,0,0,0,45,64.592s3.48,1.009,4.952,0a32.964,32.964,0,0,1,3.566-2.017Z" transform="translate(7.492 17.14)"/>
              <path id="Path_923765" data-name="Path 923765" d="M48.744,13.25c-1.339-.5-2.785,1.141-3.557,4.426-.7,2.985-1.211,5.084-1.416,5.86-.212.8-1.419,5.872-1.659,7.155a2.1,2.1,0,0,0,1.528,2.5c.894.315,2.526-1.186,3.483-3.176S52.341,14.6,48.744,13.25" transform="translate(7.008 3.847)" fill="#191919"/>
              <path id="Path_923766" data-name="Path 923766" d="M63.782,26.523c1.241-4.13,4.433-11.2,2.6-12.451-2.392-1.628-9.3-2.668-9.3-2.668v.132s-6.973.593-9.385,2.184c-1.85,1.221,1.31,8.682,2.5,12.83.286,1,.226,5.449.09,9.4-.033.973-.775,5.447-.665,7.3.033.553,5.7,2.126,7.276,2.225,1.582-.075,7.211-1.693,7.25-2.246.133-1.85-.553-6.334-.574-7.309-.087-3.95-.091-8.4.206-9.394" transform="translate(7.852 3.333)" fill="#ffbd95"/>
              <path id="Path_923767" data-name="Path 923767" d="M59.269,11.537c-.153-.79-.524-4.691-.524-4.691l-2.333-.018V6.96l-2.333-.018s-.419,3.895-.582,4.683S51.4,13.586,51.4,13.586l4.964.037v-.131l4.965.037s-1.913-1.2-2.066-1.994" transform="translate(8.564 1.996)" fill="#ffbd95"/>
              <path id="Path_923768" data-name="Path 923768" d="M59.119,10.436c-.14-1.2-.307-2.9-.358-3.426l-.149-.165-2.2-.017V6.96l-2.333-.018s-.419,3.9-.582,4.683S51.4,13.586,51.4,13.586l.234,0c2.22-.637,4.427-1.273,4.724-1.366A19.834,19.834,0,0,0,59.119,10.436Z" transform="translate(8.564 1.996)" fill="#ffa47c"/>
              <path id="Path_923769" data-name="Path 923769" d="M50.9,31.7l-3.439,6.387-.218,3.123H57.431l7.621-.265,1.4-2.606L64.5,31.7Z" transform="translate(7.871 9.263)" fill="#191919"/>
              <path id="Path_923770" data-name="Path 923770" d="M46.921,38.7l1.036,27.726h6.351L54.9,38.7s-.944-3.543-4.231-3.543c-2.821,0-3.751,3.543-3.751,3.543" transform="translate(7.817 10.274)" fill="#303030"/>
              <path id="Path_923771" data-name="Path 923771" d="M50.677,35.158h0c-2.822,0-3.752,3.543-3.752,3.543l1.036,27.725h2.721Z" transform="translate(7.817 10.274)" fill="#191919"/>
              <path id="Path_923772" data-name="Path 923772" d="M59.107,59.429l4.1-.455A35.265,35.265,0,0,1,66.7,62.082a3.581,3.581,0,0,1,.931,2.833s-3.481,1.009-4.955,0A32.881,32.881,0,0,0,59.107,62.9Z" transform="translate(9.847 17.234)"/>
              <path id="Path_923773" data-name="Path 923773" d="M65.621,39.022,64.586,66.748H58.227l-.593-27.726s.945-3.543,4.234-3.543c2.821,0,3.753,3.543,3.753,3.543" transform="translate(9.602 10.368)" fill="#303030"/>
              <path id="Path_923774" data-name="Path 923774" d="M61.627,35.5c-3.081.178-3.993,3.511-3.993,3.511l.593,27.726h3.4Z" transform="translate(9.602 10.376)" fill="#191919"/>
              <path id="Path_923775" data-name="Path 923775" d="M67.1,14.113c-.262-.613-2-1.078-3.559-1.628a26.252,26.252,0,0,1-2.6-1.095L57.1,13.777l-3.8-2.459a26.158,26.158,0,0,1-2.617,1.047c-1.566.522-3.312.954-3.584,1.562s2.434,12.524,2.74,13.537-.555,7.729.225,9.851l6.846.649h.015l7.046.172c.644-2.42-.146-9.663.176-10.67s3.22-12.731,2.953-13.353" transform="translate(7.843 3.308)" fill="#cee0ff"/>
              <path id="Path_923776" data-name="Path 923776" d="M58.03,36.294c-.654-.461-1.638-.927-2.234-1.343s0-1.822-.007-2.552,1.834-2.078,3.072-2.568,3.375-.288,3.877-1.241-.808-1.876-1.385-1.881-4.269-1.224-4.846-1.138-4.941.547-5.636-.053S47.2,13.6,47.2,13.6c.752,3.75,2.428,12.558,2.623,13.2.307,1.013-.554,7.729.225,9.851l6.847.647h.015l7.046.171-2.3-.8c-.616-.213-2.963.088-3.618-.373" transform="translate(7.863 3.974)" fill="#b8d1ff"/>
              <path id="Path_923777" data-name="Path 923777" d="M55.7,12.257l.3,1.427L53.7,12.7l1.332-.684Z" transform="translate(8.947 3.513)" fill="#b8d1ff"/>
              <path id="Path_923778" data-name="Path 923778" d="M55.954,12.268l-.3,1.412,2.306-.945-1.323-.7Z" transform="translate(9.272 3.517)" fill="#b8d1ff"/>
              <path id="Path_923779" data-name="Path 923779" d="M54.719,12.494l2.246.017-.637,2.157-.9-.006Z" transform="translate(9.116 3.651)" fill="#191919"/>
              <path id="Path_923780" data-name="Path 923780" d="M55.518,14.171l-1.34,21.647,1.6,1.95,1.466-2.011-.822-21.58Z" transform="translate(9.026 4.141)" fill="#191919"/>
              <path id="Path_923781" data-name="Path 923781" d="M56.189,14.22,57.012,35.8l-1.466,2.012L55.7,14.024Z" transform="translate(9.254 4.099)" fill="#303030"/>
              <path id="Path_923782" data-name="Path 923782" d="M53.141,11.4l1.566,15,.636,13.552-2.291,1.808L48,40.375s2.157-8.894.98-13.068C48.22,24.6,46.16,14.213,46.832,13.8s6.309-2.4,6.309-2.4" transform="translate(7.78 3.331)" fill="#191919"/>
              <path id="Path_923783" data-name="Path 923783" d="M59.1,11.488,58.3,26.4l.989,14.45,2.294,1.323,4.468.036S63.5,30.809,63.884,28s2.189-14.245,1.521-14.668S59.1,11.488,59.1,11.488" transform="translate(9.712 3.358)" fill="#303030"/>
              <path id="Path_923784" data-name="Path 923784" d="M45.523,31.219c-.975.675-2.08.693-3.838-2.071s-5.039-9.782-5.039-9.782l1.577-1.091s4.711,4.536,5.729,5.987,4.123,5.192,1.57,6.957" transform="translate(6.105 5.341)" fill="#ffa47c"/>
              <path id="Path_923785" data-name="Path 923785" d="M38.012,20.445s-2.7.028-2.914,0a10.858,10.858,0,0,1-1.491-1.082s2.05-1.465,3.2-1.419a3.168,3.168,0,0,1,1.92.472c.32.357-.717,2.031-.717,2.031" transform="translate(5.599 5.243)" fill="#ffa47c"/>
              <path id="Path_923786" data-name="Path 923786" d="M37.633,20.174a6.616,6.616,0,0,1-1.609.008c-.1-.01-.248.034-.344.022-.077-.008-.216-.081-.292-.09s-.138.03-.205.021c-.092-.012-.2-.119-.286-.131s-.22.01-.289.008c-.273-.01-.255-.217-.339-.23a1.532,1.532,0,0,1-.38-.076,4.2,4.2,0,0,1-.821-1.3c-.042-.185-.5-1.169-.42-1.242s.47-.065.778.433a4.665,4.665,0,0,0,.672.955,5.671,5.671,0,0,1-.037-1.19c.024-.2.22-.211.362-.156.083.031.307.536.307.536s.238-.308.313-.286c.26.075.32.5.379.636.049.11.194-.33.3-.283.407.172.308,1.348.745,1.31a1.381,1.381,0,0,1,1.164,1.057" transform="translate(5.438 5.006)" fill="#ffa47c"/>
              <path id="Path_923787" data-name="Path 923787" d="M45.507,31.548c-.975.675-2.485.246-4.243-2.519a91.506,91.506,0,0,1-4.3-8.357l2.582-2.163S42.982,22.382,44,23.834s4.061,5.947,1.508,7.713" transform="translate(6.159 5.409)" fill="#303030"/>
              <path id="Path_923788" data-name="Path 923788" d="M63.854,12.972c1.357-.437,3.34,1.051,3.983,4.369.583,3.016,1.01,5.138,1.185,5.924.181.81,1.188,5.934,1.378,7.227a2.079,2.079,0,0,1-1.624,2.426c-.906.273-2.477-1.306-3.356-3.339s-5.211-15.434-1.566-16.606" transform="translate(10.399 3.769)" fill="#303030"/>
              <path id="Path_923789" data-name="Path 923789" d="M71.081,27.618C70.947,26.352,69.554,24.9,67.2,25.1c-3.042.262-10.042,1.764-10.042,1.764l.218,2.046a71.954,71.954,0,0,0,7.8,1.207c1.659-.028,6.254.812,5.9-2.5" transform="translate(9.523 7.33)" fill="#ffbd95"/>
              <path id="Path_923790" data-name="Path 923790" d="M58.553,26.471s-2.668-.424-2.889-.425a10.351,10.351,0,0,0-1.608.853A17.706,17.706,0,0,1,57.2,28.567a1.452,1.452,0,0,0,1.816.023c.359-.308-.468-2.119-.468-2.119" transform="translate(9.006 7.612)" fill="#ffbd95"/>
              <path id="Path_923791" data-name="Path 923791" d="M58.157,26.776a6.7,6.7,0,0,0-1.594-.244c-.1,0-.243-.07-.338-.072-.078,0-.224.049-.3.047s-.132-.049-.2-.05c-.092,0-.212.088-.3.087s-.217-.041-.286-.049c-.272-.031-.279.177-.364.177a1.463,1.463,0,0,0-.386.021,4.022,4.022,0,0,0-.969,1.168c-.065.178-.637,1.085-.566,1.169s.458.133.824-.315.833-.968.78-.846a5.688,5.688,0,0,0-.181,1.175c0,.2.194.24.341.207.086-.019.369-.486.369-.486s.2.339.275.328c.267-.036.377-.452.451-.574.062-.1.153.355.267.326.425-.111.467-1.291.9-1.189a1.339,1.339,0,0,0,1.281-.877" transform="translate(8.805 7.732)" fill="#ffbd95"/>
              <path id="Path_923792" data-name="Path 923792" d="M71.195,27.6c-.135-1.265-1.382-2.923-4.43-2.715A72.79,72.79,0,0,0,58.193,26.4l.091,3.583s4.874.543,6.532.516,6.73.412,6.379-2.9" transform="translate(9.695 7.266)" fill="#303030"/>
              <path id="Path_923793" data-name="Path 923793" d="M51.6,11.979l1.344-1.725,3.105,2.52-1.142,2.342Z" transform="translate(8.597 2.997)" fill="#e0f2ff"/>
              <path id="Path_923794" data-name="Path 923794" d="M60.381,12.04l-1.322-1.746-3.149,2.482,1.123,2.349Z" transform="translate(9.315 3.009)" fill="#e0f2ff"/>
              <path id="Path_923795" data-name="Path 923795" d="M51.484,6.75c.491,3.322,2.232,6.46,4.176,6.289,1.858-.162,4.9-3.622,4.657-6.978S58.072.144,55.285.3c-2.343.133-4.307,3.026-3.8,6.448" transform="translate(8.564 0.087)" fill="#ffbd95"/>
              <path id="Path_923796" data-name="Path 923796" d="M51.471,4.384a4.407,4.407,0,0,1,5.414-.066c.667.438.408,3.086.59,3.268s.495-2.121.642-1.872c1.072,1.788.93,4.378,1.16,4.339.7-.119,2.035-4.647.35-7.618A4.525,4.525,0,0,0,54.146.252a4.324,4.324,0,0,0-2.675,4.133" transform="translate(8.575 0.001)" fill="#8d3b26"/>
              <path id="Path_923797" data-name="Path 923797" d="M56.873,5.524c-.065.963.061,2.207.517,2.246s.88-.712.946-1.675-.252-1.774-.709-1.812-.688.278-.754,1.241" transform="translate(9.473 1.251)" fill="#ffbd95"/>
              <path id="Path_923798" data-name="Path 923798" d="M89.173,33.384H5.893l-2-2.564H90.946Z" transform="translate(0.648 9.007)" fill="#564031"/>
              <rect id="Rectangle_408954" data-name="Rectangle 408954" width="83.28" height="46.515" transform="translate(6.541 38.57)" fill="#6d513c"/>
              <rect id="Rectangle_408955" data-name="Rectangle 408955" width="87.054" height="2.533" transform="translate(4.54 37.294)" fill="#9c7245"/>
              <rect id="Rectangle_408956" data-name="Rectangle 408956" width="94.07" height="1.662" transform="translate(1.938 83.425)" fill="#9c7245"/>
              <path id="Path_923799" data-name="Path 923799" d="M89.173,31.587H5.893l-2-.768H90.946Z" transform="translate(0.648 9.007)" fill="#564031"/>
              <g id="Group_1119069" data-name="Group 1119069" transform="translate(14.095 46.879)" style="mix-blend-mode: multiply;isolation: isolate">
                <g id="Group_1119068" data-name="Group 1119068">
                  <g id="Group_1119067" data-name="Group 1119067" clip-path="url(#clip-path-3)">
                    <path id="Path_923800" data-name="Path 923800" d="M40.094,65.623V40.044a3.706,3.706,0,0,1-3.643-3.766H15.725a3.706,3.706,0,0,1-3.643,3.766v25.58a3.706,3.706,0,0,1,3.643,3.767H36.451a3.706,3.706,0,0,1,3.643-3.767" transform="translate(-12.082 -36.277)" fill="#bfbdb7"/>
                  </g>
                </g>
              </g>
              <g id="Group_1119072" data-name="Group 1119072" transform="translate(53.418 46.879)" style="mix-blend-mode: multiply;isolation: isolate">
                <g id="Group_1119071" data-name="Group 1119071">
                  <g id="Group_1119070" data-name="Group 1119070" clip-path="url(#clip-path-3)">
                    <path id="Path_923801" data-name="Path 923801" d="M73.8,65.623V40.044a3.706,3.706,0,0,1-3.643-3.766H49.433a3.706,3.706,0,0,1-3.643,3.766v25.58a3.706,3.706,0,0,1,3.643,3.767H70.159A3.706,3.706,0,0,1,73.8,65.623" transform="translate(-45.79 -36.277)" fill="#bfbdb7"/>
                  </g>
                </g>
              </g>
              <g id="Group_1119075" data-name="Group 1119075" transform="translate(6.541 40.594)" style="mix-blend-mode: multiply;isolation: isolate">
                <g id="Group_1119074" data-name="Group 1119074">
                  <g id="Group_1119073" data-name="Group 1119073" clip-path="url(#clip-path-5)">
                    <path id="Path_923802" data-name="Path 923802" d="M88.887,31.413H5.607l.1,42.831H27.965L43.1,36.975Z" transform="translate(-5.607 -31.413)" fill="#bfbdb7"/>
                  </g>
                </g>
              </g>
              <rect id="Rectangle_408960" data-name="Rectangle 408960" width="1.424" height="26.356" transform="translate(21.238 64.805)" fill="#515151"/>
              <path id="Path_923803" data-name="Path 923803" d="M22.144,52.552H2.531V48.271H22.144a1.685,1.685,0,0,1,1.592,1.764v.753a1.685,1.685,0,0,1-1.592,1.764" transform="translate(0.422 14.106)" fill="#191919"/>
              <rect id="Rectangle_408961" data-name="Rectangle 408961" width="1.424" height="44.498" transform="translate(2.077 46.663)" fill="#515151"/>
              <path id="Path_923804" data-name="Path 923804" d="M3.71,39.717l-1.231.149a.609.609,0,0,1-.653-.562L.007,24.931a.647.647,0,0,1,.524-.746l1.231-.15a.61.61,0,0,1,.652.563L4.232,38.971a.646.646,0,0,1-.523.746" transform="translate(0 7.023)" fill="#191919"/>
              <path id="Path_923805" data-name="Path 923805" d="M30.6,27.664l.146-2.584,1.591-.771-.182,3.132-1.506.857Z" transform="translate(5.098 7.104)" fill="#002d56"/>
              <path id="Path_923806" data-name="Path 923806" d="M23.2,35.236c.486,2.509,2.913,1.181,4.068.406S31.6,31.885,31.6,31.885l-.635-2.712s-6.364,2.631-6.7,2.818-1.556.691-1.062,3.245" transform="translate(3.846 8.525)" fill="#b5ccf9"/>
              <path id="Path_923807" data-name="Path 923807" d="M34.016,28.616v0a.374.374,0,0,0-.526-.183L32,29.282a.458.458,0,0,0-.168.585v0a.376.376,0,0,0,.527.185l1.487-.853a.458.458,0,0,0,.167-.585" transform="translate(5.296 8.294)" fill="#ffa47c"/>
              <path id="Path_923808" data-name="Path 923808" d="M33.78,28.031h0a.373.373,0,0,0-.526-.185l-1.489.852a.458.458,0,0,0-.167.585v0a.375.375,0,0,0,.526.185l1.489-.853a.458.458,0,0,0,.167-.585" transform="translate(5.257 8.123)" fill="#ffa47c"/>
              <path id="Path_923809" data-name="Path 923809" d="M33.516,27.475h0a.374.374,0,0,0-.526-.185l-1.487.852a.458.458,0,0,0-.168.585v0a.376.376,0,0,0,.527.185l1.487-.852a.46.46,0,0,0,.167-.587" transform="translate(5.213 7.961)" fill="#ffa47c"/>
              <path id="Path_923810" data-name="Path 923810" d="M33.211,26.964h0a.374.374,0,0,0-.526-.185L31.2,27.63a.457.457,0,0,0-.168.585v0a.376.376,0,0,0,.527.185l1.487-.853a.458.458,0,0,0,.167-.585" transform="translate(5.162 7.811)" fill="#ffa47c"/>
              <path id="Path_923811" data-name="Path 923811" d="M28.6,30.467a29.274,29.274,0,0,1,2.179-2.733,15.853,15.853,0,0,1,2.474-1s-.245,1.02.035,1.458,1.1,1.494,1.1,1.494a12.19,12.19,0,0,1-2.141,1.751A7.946,7.946,0,0,1,30.611,32Z" transform="translate(4.764 7.812)" fill="#ffa47c"/>
              <path id="Path_923841" data-name="Path 923841" d="M0,0,2.4-.122,2.236,3.245l-2.4.122Z" transform="translate(32.549 38.738) rotate(-40.557)" fill="#b5ccf9"/>
              <path id="Path_923812" data-name="Path 923812" d="M29.933,64.491a7.426,7.426,0,0,0-.813,2.754c-.054.774.357,2.4.81,2.4a29.881,29.881,0,0,1,4.263.266c1.363.205,1.871,1.085,5.356,1.076,1.017,0,2.866-.075,2.812-.539s-3.343-1.306-4.4-2.4A14.267,14.267,0,0,0,33.484,64.6a28.05,28.05,0,0,0-3.551-.109" transform="translate(4.851 18.833)" fill="#191919"/>
              <rect id="Rectangle_408963" data-name="Rectangle 408963" width="3.494" height="0.731" transform="translate(34.647 88.482)" fill="#191919"/>
              <path id="Path_923813" data-name="Path 923813" d="M20.9,41.293s13.116,4.75,13.657,5.429S38.78,73.054,38.78,73.054A5.363,5.363,0,0,1,35.493,74.2a11.445,11.445,0,0,1-3.174,0s-3.607-16.462-3.493-18.638a24.84,24.84,0,0,0-.64-5.442s-15.245-.837-16.29-1.838c-5.959-5.7.6-8.953.6-8.953L20.984,40Z" transform="translate(1.565 11.494)" fill="#00233f"/>
              <path id="Path_923814" data-name="Path 923814" d="M21.589,21.241c-2.117.289-2.435,2.065-2.086,4.237s3.734,12.608,4.909,13.157c.612.286,2.69-.182,2.9-1.193S25.822,27.09,25.24,25.364s-1.17-4.461-3.65-4.122" transform="translate(3.229 6.199)" fill="#b5ccf9"/>
              <path id="Path_923815" data-name="Path 923815" d="M19.616,12.827s-1.995,6.332-2.315,6.705c-1.023,1.2-3.873,1.442-5.032,2.944-1.4,1.821-.441,11.554-.579,14.849s-2.457,9.7-3.636,12.613,6.356,7.229,6.673,7.326a18.331,18.331,0,0,0,5.26-2.63c.776-.833,1.521-8.929,2.016-10.919s2.645-8.834,2.84-9.265a15.673,15.673,0,0,0,1.24-6.174,7.332,7.332,0,0,0,.163-2.243c-.377-1-3.339-3.064-3.29-3.489s1.028-6.263,1.028-6.263Z" transform="translate(1.321 3.749)" fill="#ffbd95"/>
              <rect id="Rectangle_408964" data-name="Rectangle 408964" width="3.494" height="0.756" transform="translate(26.908 91.476)" fill="#191919"/>
              <path id="Path_923816" data-name="Path 923816" d="M23.3,66.68a7.827,7.827,0,0,0-.812,2.844c-.055.8.356,2.481.808,2.481a29.167,29.167,0,0,1,4.263.274c1.363.213,1.872,1.122,5.357,1.113,1.016,0,2.865-.078,2.81-.557s-3.343-1.348-4.4-2.482a14.271,14.271,0,0,0-4.472-3.56A27.1,27.1,0,0,0,23.3,66.68" transform="translate(3.746 19.472)" fill="#191919"/>
              <path id="Path_923817" data-name="Path 923817" d="M17.206,18.016l4.65,5.492,1.007-2.481s3.066,1.569,3.3,2.522a25.655,25.655,0,0,1-.024,4.466,34.17,34.17,0,0,1-1.578,6.344c-.52,1.5-.993,3.555-1.858,6.123a74.863,74.863,0,0,0-1.66,7.306,8.451,8.451,0,0,1-5.259-.284c-3.436-1.25-7.1-1.887-7.224-2.077-.52-.814,1.954-5.74,2.309-8.968.076-.693.265-12.976.569-14.5a3.009,3.009,0,0,1,2.409-2.551,19.31,19.31,0,0,0,3.355-1.394" transform="translate(1.415 5.265)" fill="#cee0ff"/>
              <path id="Path_923818" data-name="Path 923818" d="M19.656,29.024c-3.033-9.767-5.226-9.686-5.226-9.686l-.436-.273c-.045.012-.1.03-.142.04a3.007,3.007,0,0,0-2.409,2.55c-.3,1.522-.493,13.8-.569,14.5-.355,3.227-2.829,8.154-2.309,8.968.108.169,3.067.7,6.155,1.71l5.669.805a5.874,5.874,0,0,0,.659-.155s.918-5.108,1.66-7.306c.479-1.423,2.087-6.73,2.4-7.831,0,0-1.2,2.3-2.49,2-1.057-.253-1.289.071-2.962-5.316" transform="translate(1.415 5.572)" fill="#b5ccf9"/>
              <path id="Path_923819" data-name="Path 923819" d="M8.59,39.172A18.619,18.619,0,0,0,8,45.267c.338,2.764.954,5.868,6.78,6.469s9.456.946,9.638.965-.444,5.549-.209,9.409.643,14.07.643,14.07a14.054,14.054,0,0,0,3.574.454c2.312.052,3.063-.852,3.063-.852s1.59-24.172,1.032-26.177c-.94-3.388-10.7-6.16-11.07-6.76a9.745,9.745,0,0,1-.229-2.782Z" transform="translate(1.321 11.447)" fill="#002d56"/>
              <path id="Path_923820" data-name="Path 923820" d="M13.474,19.293c-2.124.255-2.537,2.356-2.14,4.745s4.482,13.725,5.083,14.106,4.126.08,4.319-1.02-3.008-11.139-3.63-13.045-1.142-5.085-3.632-4.786" transform="translate(1.866 5.633)" fill="#cee0ff"/>
              <path id="Path_923821" data-name="Path 923821" d="M18.464,14l3.986,2.99L21.9,20l-4.343-.428-1.129-1.423,1.52-4.5Z" transform="translate(2.737 3.988)" fill="#ffa47c"/>
              <path id="Path_923822" data-name="Path 923822" d="M22.2,8.213C20.647,7.136,16.578,6.72,15.224,10a6.952,6.952,0,0,0,1.329,7.468A6.459,6.459,0,0,0,20.179,19.7a11.665,11.665,0,0,0,3.791-.3c.358-.233.069-3.494.183-3.506a.569.569,0,0,0,.363-.534c-.045-.382-.827-2.6-.79-2.864s.252-3.047-1.527-4.281" transform="translate(2.442 2.172)" fill="#ffbd95"/>
              <path id="Path_923823" data-name="Path 923823" d="M23.251,9.552s-2.4-.912-4.573,2.441c-.467.722,1.087,3.026.983,3.282-.111.277-2.465-1.4-2.336-1.127,1.315,2.772.765,4.574.532,4.643-.706.209-3.672-3.461-3.194-7.052a5.131,5.131,0,0,1,4.369-4.594,3.856,3.856,0,0,1,4.218,2.406" transform="translate(2.434 2.088)" fill="#8d3b26"/>
              <path id="Path_923824" data-name="Path 923824" d="M18.333,13.068c.423.881.772,2.118.355,2.365s-1.1-.269-1.525-1.149-.428-1.8-.009-2.043.756-.054,1.179.827" transform="translate(2.806 3.549)" fill="#ffbd95"/>
              <path id="Path_923825" data-name="Path 923825" d="M20.149,21.176l-.043,1.407-1.1-1.277Z" transform="translate(3.167 6.189)" fill="#b8d1ff"/>
              <path id="Path_923826" data-name="Path 923826" d="M19.949,22.573l.447-1.361.315.743Z" transform="translate(3.323 6.199)" fill="#b8d1ff"/>
              <path id="Path_923827" data-name="Path 923827" d="M8.551,39.172l-.386,1.478,13.043,1.025.177-1.562Z" transform="translate(1.36 11.448)" fill="#3b1b1d"/>
              <path id="Path_923828" data-name="Path 923828" d="M19.441,41.543h-.288c-.315,0-.574-.39-.574-.867s.259-.867.574-.867h.288c.316,0,.574.39.574.867s-.258.867-.574.867" transform="translate(3.095 11.634)" fill="#722c1d"/>
              <path id="Path_923829" data-name="Path 923829" d="M15.462,18.377l1.126-1.247,4.151,5.228-.889,1.478Z" transform="translate(2.576 5.006)" fill="#e0f2ff"/>
              <path id="Path_923830" data-name="Path 923830" d="M20.332,21.639l.677-1.884.582,1.051L20.791,23Z" transform="translate(3.387 5.773)" fill="#e0f2ff"/>
              <path id="Path_923831" data-name="Path 923831" d="M15.8,35.685c.565,2.5,5.116.761,7.3-.211s8.288-4.512,8.288-4.512l-.8-2.68S18.758,31.956,18.129,32.2s-2.9.947-2.325,3.486" transform="translate(2.618 8.265)" fill="#cee0ff"/>
              <path id="Path_923832" data-name="Path 923832" d="M30.909,28.242a7.926,7.926,0,0,1,1.8-3.877,5.667,5.667,0,0,1,2.989-1.9l3.245,1.009a8.28,8.28,0,0,0-4.12,2.06A6.3,6.3,0,0,0,33.278,28a10.251,10.251,0,0,0,.157,5.209,9.853,9.853,0,0,0,1.139,2.341l-3.537,1.655s-1.021-5.612-.127-8.964" transform="translate(5.088 6.566)" fill="#cee0ff"/>
              <path id="Path_923833" data-name="Path 923833" d="M33.423,28.76v0a.385.385,0,0,0-.5-.269l-1.585.6a.447.447,0,0,0-.243.552v0a.386.386,0,0,0,.5.269l1.584-.6a.446.446,0,0,0,.244-.552" transform="translate(5.177 8.319)" fill="#ffbd95"/>
              <path id="Path_923834" data-name="Path 923834" d="M33.423,28.115v0a.385.385,0,0,0-.5-.269l-1.585.6a.447.447,0,0,0-.243.552v0a.386.386,0,0,0,.5.269l1.584-.6a.446.446,0,0,0,.244-.552" transform="translate(5.177 8.13)" fill="#ffbd95"/>
              <path id="Path_923835" data-name="Path 923835" d="M33.423,27.48v0a.385.385,0,0,0-.5-.269l-1.585.6a.447.447,0,0,0-.243.552v0a.386.386,0,0,0,.5.269l1.584-.6a.446.446,0,0,0,.244-.552" transform="translate(5.177 7.945)" fill="#ffbd95"/>
              <path id="Path_923836" data-name="Path 923836" d="M33.447,26.818v0a.385.385,0,0,0-.5-.269l-1.585.6a.447.447,0,0,0-.243.552v0a.386.386,0,0,0,.5.269l1.584-.6a.446.446,0,0,0,.244-.552" transform="translate(5.181 7.751)" fill="#ffbd95"/>
              <path id="Path_923837" data-name="Path 923837" d="M27.993,29.6a28.121,28.121,0,0,1,2.52-2.347,22.424,22.424,0,0,1,3-.725s-.8,1.109-.581,1.587.887,1.658.887,1.658a11.708,11.708,0,0,1-2.351,1.381,7.738,7.738,0,0,1-1.688.287Z" transform="translate(4.664 7.753)" fill="#ffbd95"/>
              <path id="Path_923842" data-name="Path 923842" d="M0,0,2.33-.08,2.22,3.391l-2.33.08Z" transform="translate(31.342 36.955) rotate(-20.107)" fill="#cee0ff"/>
              <path id="Path_923838" data-name="Path 923838" d="M75.392,16.1a17.393,17.393,0,0,1,2.567.4,11.927,11.927,0,0,1,2.074.782.874.874,0,0,1,.561.951l-.89,4.949a14.123,14.123,0,0,0-2.635-1.137,11.62,11.62,0,0,0-2.815-.362Z" transform="translate(12.371 4.705)" fill="#002d56"/>
              <path id="Path_923839" data-name="Path 923839" d="M72.71,15.879a17.472,17.472,0,0,1,2.582-.261,11.484,11.484,0,0,1,2.18.235.824.824,0,0,1,.742.782l.157,5.116c-.133-.46-1.381-.46-2.8-.509a8.894,8.894,0,0,0-2.814.522Z" transform="translate(12.114 4.564)" fill="#27547c"/>
              <rect id="Rectangle_408966" data-name="Rectangle 408966" width="0.299" height="17.167" transform="translate(84.782 20.104)" fill="#303030"/>
              <path id="Path_923840" data-name="Path 923840" d="M73.6,27.311H72.5a1.891,1.891,0,0,0-1.788,1.98h4.666a1.891,1.891,0,0,0-1.787-1.98" transform="translate(11.781 7.981)" fill="#303030"/>
            </g>
          </g>
        </g>
      </g>
    </g>
  </g>
</svg>
