<svg xmlns="http://www.w3.org/2000/svg" xmlns:xlink="http://www.w3.org/1999/xlink" width="107.004" height="102.673" viewBox="0 0 107.004 102.673">
  <defs>
    <clipPath id="clip-path">
      <rect id="Rectangle_401492" data-name="Rectangle 401492" width="59.93" height="59.93" transform="translate(-0.025 -0.064)" fill="#fff0ee" stroke="#707070" stroke-width="1"/>
    </clipPath>
    <clipPath id="clip-path-2">
      <rect id="Rectangle_408930" data-name="Rectangle 408930" width="55.355" height="55.339" fill="#fff0ee"/>
    </clipPath>
    <clipPath id="clip-path-3">
      <rect id="Rectangle_407253" data-name="Rectangle 407253" width="19" height="18.533" fill="#eebc32"/>
    </clipPath>
    <clipPath id="clip-path-4">
      <rect id="Rectangle_407253-2" data-name="Rectangle 407253" width="11.91" height="11.617" fill="#eebc32"/>
    </clipPath>
  </defs>
  <g id="Group_1119133" data-name="Group 1119133" transform="translate(-810 -2053.246)">
    <path id="Path_920870" data-name="Path 920870" d="M0,0H107V102.673H0Z" transform="translate(810 2053.246)" fill="#f69a8b"/>
    <g id="Group_1118644" data-name="Group 1118644" transform="translate(821 2062.219)">
      <g id="Group_1118062" data-name="Group 1118062" transform="translate(0 -0.001)">
        <circle id="Ellipse_11771" data-name="Ellipse 11771" cx="42.5" cy="42.5" r="42.5" fill="#953c2d"/>
        <g id="Group_1118061" data-name="Group 1118061" transform="translate(12.736 11.766)">
          <rect id="Rectangle_401104" data-name="Rectangle 401104" width="55.839" height="56.739" transform="translate(2.046)" fill="none"/>
          <g id="Mask_Group_1098697" data-name="Mask Group 1098697" transform="translate(0 0)" clip-path="url(#clip-path)">
            <g id="Group_1119035" data-name="Group 1119035" transform="translate(1.975 1.935)">
              <g id="Group_1119034" data-name="Group 1119034" clip-path="url(#clip-path-2)">
                <path id="Path_923435" data-name="Path 923435" d="M59.492,52.249a3.542,3.542,0,0,1,.218,4.594,1.322,1.322,0,0,0,.956-.246c1.321-.835,2.657-2.661,3.938-3.6,2.009-1.475,4.3.789,2.642,2.963s-4.533,4.047-6.181,6.332c.015,1.781-.331,4.935,2.175,4.9-2.832-4.606,4.294-7.854,5.776-2.646l1.281-.322c-.439-1.119-.852-1.747-.532-3.018a3.284,3.284,0,0,1,5.96-.885c.866,1.4.309,2.5-.133,3.9a1.079,1.079,0,0,0,.793-.248,38.214,38.214,0,0,0,2.894-2.721,9.281,9.281,0,0,1,1.448-1.122,1.941,1.941,0,0,1,2.244,3.049c-1.455,1.98-4.392,3.879-5.858,5.854a1.49,1.49,0,0,0-.363.6,15.925,15.925,0,0,0,.127,3.014,23.888,23.888,0,0,0,1.049,4.888c.46,1.427,2.241,3.644-.569,3.536-.2.2.929,4.748.964,5.541a2,2,0,0,1-3.884.829l-1.57-4.6-1.279,3.938c.138,1.329,1.138,3.339.158,4.488a2.092,2.092,0,0,1-3.405-.452l-2.375-7.654c-.392-.049-.254,0-.336.224-.694,1.9-1.515,6.171-2.478,7.63a1.88,1.88,0,0,1-2.365.775c-1.4-.5-1.37-1.467-1.215-2.75.282-2.336,1.124-4.8,1.421-7.162-2.878.338-2.805-4.032-3.692-5.937-.41-.065-.249.036-.334.225a25.66,25.66,0,0,0-1.1,3.4c-.19,1.367.989,3.325.225,4.554a2.058,2.058,0,0,1-3.51,0l-2.5-8.01c-.411-.064-.249.037-.335.226-.93,2.055-1.37,4.914-2.228,7.077-1.076,2.713-4.267,2.091-3.994-.947.443-4.913,3.225-11.751,2.532-16.529a2.5,2.5,0,0,0-.639-1.248c-1.26-1.747-4.841-4.141-5.813-5.786a1.941,1.941,0,0,1,.289-2.688c1.469-1.243,2.671.088,3.774,1.042.6.518,2.793,2.942,3.444,2.81.308-.062.178-.219.088-.4a3.326,3.326,0,1,1,6.01-2.326l1.365-.481c-2.626-3.32,2.029-7.48,4.916-4.594m-2.877.94c-1.414.322-1.368,2.729.329,2.982a1.54,1.54,0,1,0-.329-2.982m2.772,11.035a4.45,4.45,0,0,1,.38-3.232l6.2-6.315c.274-.124-.006-.4-.081-.4-.4.021-3.672,3.67-4.735,4.086-1.971.771-6.7-1.064-7.991,1.316-.065.119-.244.264-.117.374a4.834,4.834,0,0,1,2.968,3.3c.235.166.572-.2.9-.245,1.348-.2,1.46.6,2.476,1.116m-9.663-7.992c-2.03.25-1.6,3.281.266,3.177,2-.111,1.895-3.443-.266-3.177m4.53,13.447V63.5c0-.628-1.382-1.7-2.044-1.806-1.633-.274-3.666.142-5.258.091-1.913-.06-3.876-2.974-5.366-4.068-.22-.161-.324-.3-.648-.232-.07.3.171.38.32.561,1.308,1.588,5.685,5.063,6.265,6.57,1.322,3.429-1.373,12.922-2.043,16.9a8.608,8.608,0,0,0-.21,1.8l.483-.109,3.329-10.6a.924.924,0,0,1,1.611-.091l3.4,10.689.483.109L52,69.445c.168-.975-.365-4.212.395-4.75.405-.287,1.376-.124,1.376.252v4.492ZM72.5,60.566c-2.017.445-.9,3.935,1.154,2.762A1.509,1.509,0,0,0,72.5,60.566m9.188,1.253c-.324-.07-.428.071-.648.233-1.4,1.032-3.433,3.875-5.222,3.924-.31.008-.612-.155-.941-.154-1.981.01-5.217-.625-6.022,1.61a4.1,4.1,0,0,1,2.734,2.482,25.849,25.849,0,0,1,.3,6.9,2.282,2.282,0,0,1-1.847,1.845l.359,1.306c2.108.516,4.222-.249,6.312-.5a34.328,34.328,0,0,1-1.422-5.4,37.39,37.39,0,0,1-.349-3.995,3.8,3.8,0,0,1,.56-1.845c1.319-1.877,4.292-3.941,5.863-5.849.149-.181.389-.259.32-.561m-14.81,4.44c1.375-1.256-.721-3.81-2.2-2.119a1.533,1.533,0,0,0,2.2,2.119m2.778,5.907v4.492l.241.237.241-.237V71.043c0-.843-1.252-1.928-2.076-2.095-1.672-.338-3.618.135-5.223.1-1.575-.031-3.869-2.811-5.134-3.864-.18-.15-.26-.389-.561-.32-.069.3.17.38.32.561,1.5,1.808,3.726,3.4,5.216,5.212A3.879,3.879,0,0,1,63.707,72.5c.648,4.742-1.5,11.718-2.345,16.557-.038.217-.287,1.1.035,1.156s.37-.308.448-.511c1.262-3.277,1.941-6.835,3.191-10.125a.924.924,0,0,1,1.611.091L69.98,90.215l.453-.256L67.887,76.664c.167-.954-.342-4.293.337-4.812.4-.3,1.309-.114,1.434.314M56.02,66.631v3.449c0,.525-1.143,1.45-1.75,1.377-.042.368.065,1.454.407,1.57,2.218.259,4.311-.332,6.477-.623l-.64-1.364Zm4.812,13.477-.963-5.776-1.122.161L60.349,80Zm14.76,1.282-.962.243-.137.287L76.072,86.9l.483.107Z" transform="translate(-32.913 -43.052)" fill="#fff0ee"/>
                <path id="Path_923436" data-name="Path 923436" d="M43.321,111.312c.044-.253-.226-.168-.4-.166-.593.009-1.322.339-1.841.087a.9.9,0,0,1-.063-1.508,51.33,51.33,0,0,1,5.447-.983c.923-.031,1.166.458,1,1.329a39.029,39.029,0,0,1-1.769,4.654.947.947,0,0,1-1.37.492c-.966-.423.338-2.1.205-2.78A27.654,27.654,0,0,1,2.383,79.279,25.611,25.611,0,0,1,4.7,75.1a.932.932,0,0,1,1.535.8c-.069.422-1.738,2.934-2.089,3.7a26.014,26.014,0,0,0,16.11,35.767,26.516,26.516,0,0,0,23.064-4.055" transform="translate(0 -62.867)" fill="#fff0ee"/>
                <path id="Path_923437" data-name="Path 923437" d="M91.788,43.105a.932.932,0,0,1-1.535-.8c.069-.422,1.738-2.934,2.089-3.7A25.991,25.991,0,0,0,53.169,6.9c-.044.253.226.169.4.166.824-.013,2.535-.668,2.326.867-.093.68-1.047.73-1.577.843a29.236,29.236,0,0,1-4.589.682c-.7-.052-.774-.56-.734-1.181l2-5.233c.383-.3,1.333-.274,1.5.278.253.844-.624,1.6-.532,2.452A27.654,27.654,0,0,1,94.107,38.928a25.625,25.625,0,0,1-2.319,4.177" transform="translate(-41.131 0)" fill="#fff0ee"/>
              </g>
            </g>
          </g>
        </g>
      </g>
      <g id="Group_1118063" data-name="Group 1118063" transform="translate(0 66.083)">
        <g id="Group_1116914" data-name="Group 1116914" transform="translate(0 0)" clip-path="url(#clip-path-3)">
          <path id="Path_893319" data-name="Path 893319" d="M19,9.266a9.386,9.386,0,0,1-9.5,9.267A9.386,9.386,0,0,1,0,9.266,9.385,9.385,0,0,1,9.5,0,9.385,9.385,0,0,1,19,9.266" transform="translate(0 0)" fill="#eebc32"/>
        </g>
      </g>
      <g id="Group_1118064" data-name="Group 1118064" transform="translate(73.004 12.999)">
        <g id="Group_1116914-2" data-name="Group 1116914" transform="translate(0 0)" clip-path="url(#clip-path-4)">
          <path id="Path_893319-2" data-name="Path 893319" d="M11.91,5.808a5.884,5.884,0,0,1-5.955,5.809A5.883,5.883,0,0,1,0,5.808,5.883,5.883,0,0,1,5.955,0,5.883,5.883,0,0,1,11.91,5.808" transform="translate(0 0)" fill="#eebc32"/>
        </g>
      </g>
    </g>
  </g>
</svg>
