<svg xmlns="http://www.w3.org/2000/svg" xmlns:xlink="http://www.w3.org/1999/xlink" width="150" height="150" viewBox="0 0 150 150">
  <defs>
    <clipPath id="clip-path">
      <rect id="Rectangle_407255" data-name="Rectangle 407255" width="150" height="150" transform="translate(0)" fill="#f69a8b"/>
    </clipPath>
    <clipPath id="clip-path-2">
      <rect id="Rectangle_401492" data-name="Rectangle 401492" width="96.296" height="96.297" transform="translate(0.148 0.223)" fill="#953c2d" stroke="#707070" stroke-width="1"/>
    </clipPath>
    <clipPath id="clip-path-3">
      <rect id="Rectangle_408918" data-name="Rectangle 408918" width="72.512" height="92.772" fill="#953c2d"/>
    </clipPath>
  </defs>
  <g id="Group_1118052" data-name="Group 1118052" transform="translate(-429.664 -5602)">
    <g id="Group_1118051" data-name="Group 1118051" transform="translate(250.336 1917.467)">
      <g id="Group_1116923" data-name="Group 1116923" transform="translate(179.328 3684.533)" clip-path="url(#clip-path)">
        <path id="Path_893365" data-name="Path 893365" d="M148.169,44.41C139.386,14.569,73.684-19.323,25.142,13.36s-13,149.535-6.586,125.918c6.165-22.7,33.5-4.155,54.014-3.491,22.845.739,37.666-5.15,37.63-5.238,10.531-3.911,17.983-9.053,24.206-18.726C146.839,92.5,153.455,62.367,148.169,44.41" transform="translate(0.001 3.798)" fill="#f69a8b"/>
      </g>
      <g id="Group_1115380" data-name="Group 1115380" transform="translate(221.88 3726.838)">
        <rect id="Rectangle_401104" data-name="Rectangle 401104" width="60.924" height="61.907" transform="translate(2.232 0)" fill="none"/>
        <g id="Mask_Group_1098697" data-name="Mask Group 1098697" transform="translate(-15.7 -15.454)" clip-path="url(#clip-path-2)">
          <g id="Group_1119014" data-name="Group 1119014" transform="translate(11.637 2.289)">
            <g id="Group_1119013" data-name="Group 1119013" clip-path="url(#clip-path-3)">
              <path id="Path_923316" data-name="Path 923316" d="M68.1,35.958c.988.1,3.589-.408,4.073.736.424,1,.387,10.094.22,11.652a3.774,3.774,0,0,1-.218,1.075c-.5,1.181-9.539,2.913-9.7,3.595l-.006,27.316c1.091.519,1.577.286,2.172,1.517a67.672,67.672,0,0,1,1.826,8.778,1.914,1.914,0,0,1-2.141,2.144l-57.3-.193a1.96,1.96,0,0,1-1.013-1.951A61.01,61.01,0,0,1,7.5,82.831c.469-1.7.841-1.982,2.51-2.5L10,53.015.388,49.6c-.34-1.828-.714-12.421.1-13.238,4.4-.949,9.228-.107,13.745-.452,1.088-7.888,6.57-14.942,14.573-16.47C22.65,13.411,24.741,2.575,33.364.394c11.465-2.9,18.523,10.9,10.3,19.05,7.994,1.53,13.523,8.576,14.528,16.513h6.274v-9.08c-1.42-1.389-8.071-2.977-8.536-4.7a1.93,1.93,0,0,1,2.017-2.343,18.252,18.252,0,0,1,2.119.873c2.617,1.042,5.921,2.412,8.032,4.186ZM35,3.686c-9.1,1.241-7.761,15.74,2.19,14.734C46.507,17.478,45.476,2.258,35,3.686M18.408,35.958h35.66c.315-.253.384-.275.37-.682-.172-4.719-5.147-10.119-9.364-11.786-4.271-1.688-13.884-1.651-18.14.192-3.994,1.73-8.73,7.08-8.9,11.594-.015.406.055.429.37.682M68.762,39.59H3.714v7.594l6.27,1.981c-.246-1.85.526-3.912,2.74-3.236a2.32,2.32,0,0,1,.9.759V80.533H58.856V46.689a2.32,2.32,0,0,1,.9-.759c2.214-.677,2.986,1.386,2.74,3.236l6.27-1.981ZM9.988,89.118h52.5l-1.21-4.966-49.816-.008c-.453-.055-.443.091-.586.421-.462,1.069-.462,3.307-.888,4.554" transform="translate(0 -0.001)" fill="#953c2d"/>
              <path id="Path_923317" data-name="Path 923317" d="M77.545,138.777c20.844-2.819,23,27.124,4.832,29.266-20.467,2.412-22.646-26.856-4.832-29.266m5.693,12.792c-.186-3.011-.474-7.431-3.137-9.258-1.893,0-3.415,7.616-3.137,9.258Zm-9.9,0,1.316-7.926a11.616,11.616,0,0,0-5.615,7.755Zm17.827,0a11.378,11.378,0,0,0-5.609-7.922l1.316,7.926ZM73.334,155.2l-4.3.171a11.616,11.616,0,0,0,5.615,7.755Zm9.9,0H76.965c-.279,1.642,1.244,9.258,3.137,9.258,2.073-.211,3.608-8.78,3.137-9.258m7.923,0-4.293,0-1.316,7.926a11.378,11.378,0,0,0,5.609-7.922" transform="translate(-43.863 -92.829)" fill="#953c2d"/>
            </g>
          </g>
        </g>
      </g>
    </g>
    <circle id="Ellipse_11767" data-name="Ellipse 11767" cx="11.5" cy="11.5" r="11.5" transform="translate(556.664 5622)" fill="#fcdf8e"/>
    <circle id="Ellipse_11768" data-name="Ellipse 11768" cx="5.5" cy="5.5" r="5.5" transform="translate(463.664 5729)" fill="#fcdf8e"/>
    <circle id="Ellipse_11769" data-name="Ellipse 11769" cx="3.5" cy="3.5" r="3.5" transform="translate(456.664 5741)" fill="#fed0c8"/>
    <circle id="Ellipse_11770" data-name="Ellipse 11770" cx="3.5" cy="3.5" r="3.5" transform="translate(553.664 5615)" fill="#fcc4ba"/>
  </g>
</svg>
