<svg xmlns="http://www.w3.org/2000/svg" xmlns:xlink="http://www.w3.org/1999/xlink" width="70" height="70" viewBox="0 0 70 70">
  <defs>
    <clipPath id="clip-path">
      <rect id="Rectangle_408927" data-name="Rectangle 408927" width="39" height="38.808" fill="#953c2d"/>
    </clipPath>
  </defs>
  <g id="Group_1118641" data-name="Group 1118641" transform="translate(-268.711 -957.673)">
    <circle id="Ellipse_5614" data-name="Ellipse 5614" cx="35" cy="35" r="35" transform="translate(268.711 957.673)" fill="#fff"/>
    <g id="Group_1119030" data-name="Group 1119030" transform="translate(284.711 973.673)">
      <g id="Group_1119029" data-name="Group 1119029" clip-path="url(#clip-path)">
        <path id="Path_923420" data-name="Path 923420" d="M101.28,0l6.714.026c.643.292.777.983,1.172,1.5a3.964,3.964,0,0,0,2.155,1.406c.846.165,1.806-.082,2,1.117.37,7.032.3,14.274-7.147,17.422-1.487.629-1.576.657-3.075.033a11.9,11.9,0,0,1-7.241-10.339,56.162,56.162,0,0,1,0-6.908c.134-1.434.99-1.126,2.012-1.325a3.964,3.964,0,0,0,2.106-1.343c.437-.549.579-1.33,1.306-1.587m-.708,10.14a1.256,1.256,0,0,0-.153,1.467c.116.189,2.256,2.314,2.456,2.439a1.184,1.184,0,0,0,1.444-.1A49.87,49.87,0,0,0,108.656,9.6c.757-1.1-.233-2.37-1.414-1.747l-3.665,3.574c-.783-.5-1.948-2.371-3.006-1.288" transform="translate(-85.094)" fill="#953c2d"/>
        <path id="Path_923421" data-name="Path 923421" d="M10.765,258.108H.918c-.241,0-.783-.664-.828-.952a26.482,26.482,0,0,1,.135-5.527A7.917,7.917,0,0,1,3.308,246.8l.222.008a6.646,6.646,0,0,0,9.182-.054c.217,0,1.647,1.362,1.606,1.6a9.891,9.891,0,0,0-3.075,4.276,11.011,11.011,0,0,0-.477,2.082Z" transform="translate(0.001 -219.3)" fill="#953c2d"/>
        <path id="Path_923422" data-name="Path 923422" d="M225.373,258.108v-3.394a11.011,11.011,0,0,0-.477-2.082,9.891,9.891,0,0,0-3.075-4.276c-.041-.24,1.389-1.6,1.606-1.6a6.7,6.7,0,0,0,8.66.541c.253-.178.462-.572.745-.5a7.98,7.98,0,0,1,3.083,4.828,26.482,26.482,0,0,1,.135,5.527c-.046.288-.587.952-.828.952Z" transform="translate(-197.138 -219.3)" fill="#953c2d"/>
        <path id="Path_923423" data-name="Path 923423" d="M130.552,289.342h-12.8v-3.727a8.031,8.031,0,0,1,.391-1.278,6.777,6.777,0,0,1,1.683-2.438,7.836,7.836,0,0,0,3.04,1.605,6.311,6.311,0,0,0,5.607-1.605,6.807,6.807,0,0,1,1.715,2.516c.06.163.359,1.123.359,1.2Z" transform="translate(-104.655 -250.534)" fill="#953c2d"/>
        <path id="Path_923424" data-name="Path 923424" d="M242.572,164.757a4.375,4.375,0,1,1-3.746,4.571,4.451,4.451,0,0,1,3.746-4.571" transform="translate(-212.248 -146.39)" fill="#953c2d"/>
        <path id="Path_923425" data-name="Path 923425" d="M36.9,164.87a4.36,4.36,0,1,1-3.03,6.858,4.354,4.354,0,0,1,3.03-6.858" transform="translate(-29.388 -146.501)" fill="#953c2d"/>
        <path id="Path_923426" data-name="Path 923426" d="M146.113,212.525c5.732-.892,5.743,7.965,0,7.068-3.749-.586-3.724-6.488,0-7.068" transform="translate(-127.366 -188.822)" fill="#953c2d"/>
      </g>
    </g>
  </g>
</svg>
