<svg xmlns="http://www.w3.org/2000/svg" xmlns:xlink="http://www.w3.org/1999/xlink" width="178" height="178" viewBox="0 0 178 178">
  <defs>
    <clipPath id="clip-path">
      <rect id="Rectangle_408943" data-name="Rectangle 408943" width="61.559" height="94.667" fill="none"/>
    </clipPath>
  </defs>
  <g id="Group_1119111" data-name="Group 1119111" transform="translate(-363.785 -3831.999)">
    <g id="Group_1118682" data-name="Group 1118682" transform="translate(363.785 3832)">
      <path id="Path_882862" data-name="Path 882862" d="M89,0A89.047,89.047,0,1,1,0,89,89,89,0,0,1,89,0Z" transform="translate(0 -0.001)" fill="#953c2d"/>
      <path id="Path_882863" data-name="Path 882863" d="M78.668,0A78.668,78.668,0,1,1,0,78.668,78.668,78.668,0,0,1,78.668,0Z" transform="translate(10.332 10.331)" fill="#f3f9ff"/>
    </g>
    <g id="Group_1118685" data-name="Group 1118685" transform="translate(402.785 3871)">
      <rect id="Rectangle_401104" data-name="Rectangle 401104" width="99.117" height="100.574" transform="translate(-0.074)" fill="none"/>
      <g id="Group_1119056" data-name="Group 1119056" transform="translate(18.926 3)">
        <g id="Group_1119055" data-name="Group 1119055" transform="translate(0 0.001)" clip-path="url(#clip-path)">
          <path id="Path_923649" data-name="Path 923649" d="M12.034,51.171s1.485,2.084,1.386,2.656c-.055.325-.268,1.691-1.293,1.688a6.1,6.1,0,0,1-2.48-.879c-.808-.307-.654-3.551-.654-3.551l.517-.65Z" transform="translate(6.973 39.153)" fill="#191919"/>
          <path id="Path_923650" data-name="Path 923650" d="M5.941,51.171s-1.485,2.084-1.386,2.656c.055.325.268,1.691,1.293,1.688a6.1,6.1,0,0,0,2.48-.879c.808-.307.655-3.551.655-3.551l-.519-.65Z" transform="translate(3.533 39.153)" fill="#191919"/>
          <path id="Path_923651" data-name="Path 923651" d="M7.092,25.485C4.034,25.476,4,27.549,4.085,34.091S4.65,47.9,5.075,48.917s4.1.931,4.524.338,1.487-14.168,1.487-16.293-.661-7.466-3.993-7.477" transform="translate(3.155 19.784)" fill="#dd885b"/>
          <path id="Path_923652" data-name="Path 923652" d="M7.054,44.686l-.444-.011a2.072,2.072,0,0,1-2.016-2.117l.071-3a2.072,2.072,0,0,1,2.117-2.016l.444.011a2.071,2.071,0,0,1,2.016,2.116l-.071,3a2.076,2.076,0,0,1-2.117,2.018" transform="translate(3.565 29.143)" fill="#dd885b"/>
          <path id="Path_923653" data-name="Path 923653" d="M6.506,39.307c-.934,0-2.08.2-1.952,6.3a122.711,122.711,0,0,0,1.57,14.561H8.333S9.411,48.876,9.416,46.711c.012-4.929.043-7.4-2.91-7.4" transform="translate(3.528 30.515)" fill="#dd885b"/>
          <path id="Path_923654" data-name="Path 923654" d="M5.632,11.912c-1.446-.274-2.929,1.3-3.411,4.206s-.512,4.935-.62,5.693c-.11.782-1.066,5.269-1.142,6.5A2.314,2.314,0,0,0,2.09,30.958c.963.165,1.707-2.061,2.426-4.064s5-14.246,1.116-14.982" transform="translate(0.351 9.223)" fill="#dd885b"/>
          <path id="Path_923655" data-name="Path 923655" d="M2.813,19.968c-1.2-.023-2.206.632-2.5,4.221s.023,11.98.023,11.98l1.936.037s.918-7.018,1.414-8.912c.512-1.954,2.263-7.265-.87-7.326" transform="translate(0.143 15.501)" fill="#dd885b"/>
          <path id="Path_923656" data-name="Path 923656" d="M12.01,25.485c3.059-.009,2.956,2.391,2.871,8.933s-.8,13.667-1.222,14.687-3.73.743-4.155.149S8.017,35.086,8.017,32.962s.661-7.466,3.993-7.477" transform="translate(6.224 19.784)" fill="#dd885b"/>
          <path id="Path_923657" data-name="Path 923657" d="M12.427,12.393c1.332-.631,3.142.54,4.3,3.261s1.673,4.7,1.958,5.416c.295.739,2.288,4.89,2.657,6.082a2.367,2.367,0,0,1-.947,2.993c-.892.4-3.29-2.847-4.173-4.791-.977-2.149-7.375-11.267-3.8-12.962" transform="translate(8.811 9.491)" fill="#dd885b"/>
          <path id="Path_923658" data-name="Path 923658" d="M16.074,20.35c1.132-.394,2.275-.075,3.586,3.338S23.079,35.4,23.079,35.4l-1.83.645s-3.315-6.159-4.1-7.981-3.453-6.882-1.073-7.713" transform="translate(11.729 15.695)" fill="#dd885b"/>
          <path id="Path_923659" data-name="Path 923659" d="M10.995,44.686l.4-.009a2.056,2.056,0,0,0,2-2.1l-.073-3.036a2.055,2.055,0,0,0-2.1-2l-.4.009a2.058,2.058,0,0,0-2,2.1L8.9,42.686a2.058,2.058,0,0,0,2.1,2" transform="translate(6.849 29.143)" fill="#dd885b"/>
          <path id="Path_923660" data-name="Path 923660" d="M11.656,39.307c.934,0,2.08.572,1.952,6.67a112.358,112.358,0,0,1-1.57,14.191H9.83S8.752,48.876,8.747,46.711c-.012-4.929-.043-7.4,2.91-7.4" transform="translate(6.789 30.515)" fill="#dd885b"/>
          <path id="Path_923661" data-name="Path 923661" d="M13.168,11.831c-.171-.764-.6-4.546-.6-4.546H7.56s-.425,3.782-.6,4.546-1.59,1.918-1.59,1.918a5.912,5.912,0,0,0,4.691,2.313A6.321,6.321,0,0,0,14.5,13.749a5.859,5.859,0,0,1-1.332-1.918" transform="translate(4.173 5.655)" fill="#dd885b"/>
          <path id="Path_923662" data-name="Path 923662" d="M12.955,10.428c-.108-.819-.222-1.766-.3-2.41l-2.29-.732H7.562s-.426,3.78-.6,4.546S5.375,13.75,5.375,13.75l7.581-3.309Z" transform="translate(4.173 5.656)" fill="#d17345"/>
          <path id="Path_923663" data-name="Path 923663" d="M16.54,7.909c0,4.245-3.208,8.473-5.931,8.473-2.6,0-5.931-4.228-5.931-8.473S7.334.223,10.609.223,16.54,3.664,16.54,7.909" transform="translate(3.632 0.172)" fill="#dd885b"/>
          <path id="Path_923664" data-name="Path 923664" d="M4.118,25s-.79,8.349-.79,10.971.385,11.671.385,11.671h7.594l.435-10.7.664,10.7h6.754s.345-9.939-.1-14.4C18.819,30.809,19.054,25,19.054,25Z" transform="translate(2.584 19.411)" fill="#002d56"/>
          <path id="Path_923665" data-name="Path 923665" d="M19.541,11.945a12.455,12.455,0,0,0-3.162-1.021,9.622,9.622,0,0,1-4,2.247l-.847-.064a7.714,7.714,0,0,1-4.274-2.183,15.509,15.509,0,0,0-3.469,1.1c-1.981,1.2.242,14.244,0,19.952-.062,1.449-.792,7.5-.663,9.294.041.536,16.829.675,16.868.14a56.5,56.5,0,0,0-.414-6.063c-.121-3.83,1.945-22.2-.036-23.4" transform="translate(2.295 8.48)" fill="#b79a77"/>
          <path id="Path_923666" data-name="Path 923666" d="M6.148,11.568S3.8,11.607,3.036,13.3.572,21.309.572,21.309l5.119,2.21L6.8,21.6Z" transform="translate(0.444 8.98)" fill="#9f8163"/>
          <path id="Path_923667" data-name="Path 923667" d="M11.881,11.34s2.341.039,3.11,1.732,3.359,7.791,3.359,7.791l-5.173,1.83-1.3-1.918Z" transform="translate(9.224 8.803)" fill="#b79a77"/>
          <path id="Path_923668" data-name="Path 923668" d="M5.108,8.933c-.263-.462-1.149-2.426-.956-3.311A17.239,17.239,0,0,1,5.729,2.233,12.63,12.63,0,0,1,9.62.077a12.159,12.159,0,0,1,2.656,0c.963.155,2.657.81,3.043,1.579s1.339,1.656,1.652,2.272a8.466,8.466,0,0,1,.774,2.426c-.078.231-.5,2.156-.54,2.309a3.8,3.8,0,0,1-.316.592,16.977,16.977,0,0,1-1.416-2.478c-.039-.385-8.125-.5-8.626-.231A11.672,11.672,0,0,0,5.108,8.933" transform="translate(3.202 -0.001)" fill="#603b26"/>
          <path id="Path_923669" data-name="Path 923669" d="M7.814,52.225a1.849,1.849,0,0,1-1.7,1.288c-.716-.112-1.078-1.06-.842-1.958a1.53,1.53,0,0,1,1.7-1.288,1.531,1.531,0,0,1,.842,1.958" transform="translate(4.04 38.997)" fill="#303030"/>
          <path id="Path_923670" data-name="Path 923670" d="M9.391,52.225a1.849,1.849,0,0,0,1.7,1.288c.716-.112,1.078-1.06.842-1.958a1.53,1.53,0,0,0-1.7-1.288,1.531,1.531,0,0,0-.842,1.958" transform="translate(7.236 38.997)" fill="#303030"/>
          <path id="Path_923671" data-name="Path 923671" d="M1,30.767a8.364,8.364,0,0,0,.506,1.279,5.84,5.84,0,0,0,.686.671,1.051,1.051,0,0,1,.309.7c-.126.218-.487-.005-.657-.167a6.087,6.087,0,0,1-.76-.8,5.729,5.729,0,0,1-.718-1.172c-.041-.247.634-.51.634-.51" transform="translate(0.284 23.885)" fill="#d17345"/>
          <path id="Path_923672" data-name="Path 923672" d="M.812,30.6a7.748,7.748,0,0,0,.8,1c.21.155.384.112.7.185.259.06.59.233.632.465s-.368.183-.586.165a2.2,2.2,0,0,1-1.011-.341,5.383,5.383,0,0,1-.956-.851c-.1-.208.426-.625.426-.625" transform="translate(0.289 23.756)" fill="#d17345"/>
          <path id="Path_923673" data-name="Path 923673" d="M.733,30.513a6.507,6.507,0,0,0,.808.711c.2.1.336.036.606.048.226.011.524.1.592.291s-.277.206-.462.226a1.834,1.834,0,0,1-.888-.13A4.416,4.416,0,0,1,.471,31.1c-.115-.158.263-.584.263-.584" transform="translate(0.348 23.688)" fill="#d17345"/>
          <path id="Path_923674" data-name="Path 923674" d="M4.121,34.535c-.043.153-.433.1-.718-.075a2.015,2.015,0,0,1-.655-1.132c-.06-.334-.291-.785-.535-.734a2.076,2.076,0,0,0-.933,1.053,4.537,4.537,0,0,0-.055,1.46,5.025,5.025,0,0,0,.757,1,2.148,2.148,0,0,1,.508.746.328.328,0,0,1-.158.382c-.1.076-.341-.346-.711-.593A10.453,10.453,0,0,1,.449,35.614c-.05-.068-.368-1.43-.442-1.846s.524-2.5.444-2.645.057-3.306.057-3.306L2.9,27.144a18.133,18.133,0,0,0-.329,3.016A7.145,7.145,0,0,0,3.2,31.251a4.668,4.668,0,0,1,.41,1.918c.075.618.574,1.13.508,1.366" transform="translate(0 21.072)" fill="#dd885b"/>
          <path id="Path_923675" data-name="Path 923675" d="M20.686,31.686h0a.358.358,0,0,1-.476-.2l-.663-1.5a.39.39,0,0,1,.169-.508h0a.359.359,0,0,1,.478.2l.661,1.5a.388.388,0,0,1-.169.508" transform="translate(15.147 22.859)" fill="#dd885b"/>
          <path id="Path_923676" data-name="Path 923676" d="M20.361,31.885l0,0a.36.36,0,0,1-.476-.2l-.663-1.5a.389.389,0,0,1,.171-.508.359.359,0,0,1,.478.2l.661,1.5a.388.388,0,0,1-.169.508" transform="translate(14.894 23.014)" fill="#dd885b"/>
          <path id="Path_923677" data-name="Path 923677" d="M20.034,32.058l0,0a.36.36,0,0,1-.476-.2l-.663-1.5a.39.39,0,0,1,.169-.508h0a.359.359,0,0,1,.478.2l.661,1.5a.39.39,0,0,1-.169.508" transform="translate(14.64 23.148)" fill="#dd885b"/>
          <path id="Path_923678" data-name="Path 923678" d="M19.7,32.192h0a.357.357,0,0,1-.476-.2l-.663-1.5a.39.39,0,0,1,.169-.508h0a.359.359,0,0,1,.478.2l.661,1.5a.388.388,0,0,1-.169.508" transform="translate(14.383 23.252)" fill="#dd885b"/>
          <path id="Path_923679" data-name="Path 923679" d="M18.174,28.787a15.262,15.262,0,0,0,.121,2.478A17.413,17.413,0,0,0,19.6,33.479s.329-.856.751-.986,1.544-.359,1.544-.359a12.807,12.807,0,0,0-.693-2.528,8.767,8.767,0,0,0-.911-1.389Z" transform="translate(14.106 21.905)" fill="#dd885b"/>
          <path id="Path_923680" data-name="Path 923680" d="M6.766,1.284H3.983L5.9,2l-2.425.929,1.293.384-.782.5.837.691Z" transform="translate(2.695 0.996)" fill="#603b26"/>
          <path id="Path_923681" data-name="Path 923681" d="M8.017,4.389s2.03.581,2.226,1.362.391,1.481.391,1.481a4.855,4.855,0,0,0,0-2.2c-.323-.57.586-.261.716.066A13.5,13.5,0,0,0,12.2,6.454l-.261-2.064.847,2.064L13.11,5.1l-.659-2.5Z" transform="translate(6.224 2.022)" fill="#603b26"/>
          <path id="Path_923682" data-name="Path 923682" d="M7.171,37.608c-.473-2.554-1.309-26.492-1.309-26.5a9.218,9.218,0,0,0-2.078.766c-1.979,1.2.243,14.244,0,19.95-.06,1.449-.792,7.5-.661,9.3.016.218,5.43.423,5.43.423a20.332,20.332,0,0,1-1.382-3.938" transform="translate(2.295 8.626)" fill="#9f8163"/>
          <path id="Path_923683" data-name="Path 923683" d="M27.48,12.485,23.361,19.16l1.382-.782-2.3,3.983,2.883-3.006-1.515,5.031,1.9-3.027-.533,3.371L26.649,21.8l.048,3.759.783-3.2.586,3.2.634-2.249.6,2.249,4.405.549.375-2.21,1.222,2-.293-2.785,1.762,1.83-.59-2.586,2.64,3.151L36.9,21.8l1.913,1.071-.734-2.883L40,21.5l-2.9-7.452Z" transform="translate(17.426 9.691)" fill="#603b26"/>
          <path id="Path_923684" data-name="Path 923684" d="M30.839,23.219H26.268l.288-5.174h3.9Z" transform="translate(20.393 14.008)" fill="#dd885b"/>
          <path id="Path_923685" data-name="Path 923685" d="M29.177,42.619a2.377,2.377,0,0,1,3.974.259c.728,1.274.872,3.88.728,5.647-.153,1.911-1.092,4.135-1.011,6.4a17.193,17.193,0,0,0,.954,4.315c.057.531-.616,1.057-1.377,1.172a1.281,1.281,0,0,1-1.608-1.176,25.485,25.485,0,0,0-.19-4.308,64.4,64.4,0,0,1-1.442-7.258c-.535-3.832-.028-5.048-.028-5.048" transform="translate(22.483 32.342)" fill="#dd885b"/>
          <path id="Path_923686" data-name="Path 923686" d="M33.9,48.78a1.749,1.749,0,0,1-1.364,1.6c-.7.128-1.648.256-2.077-.423C29.344,48.176,28,38.842,28,38.842s-.547-4.649,1.352-5.127,4.476-.394,4.855,2.8-.123,9.278-.3,12.266" transform="translate(21.678 26.008)" fill="#ffbd95"/>
          <path id="Path_923687" data-name="Path 923687" d="M27.8,42.62a2.38,2.38,0,0,0-3.979.259c-.723,1.274-.867,3.88-.727,5.643.151,1.915,1.089,4.135,1.011,6.4a17.431,17.431,0,0,1-.957,4.311c-.05.531.62,1.057,1.377,1.176a1.285,1.285,0,0,0,1.611-1.179,24.52,24.52,0,0,1,.188-4.3,64.424,64.424,0,0,0,1.439-7.258c.538-3.832.037-5.048.037-5.048" transform="translate(17.895 32.341)" fill="#dd885b"/>
          <path id="Path_923688" data-name="Path 923688" d="M23.715,48.78a1.747,1.747,0,0,0,1.364,1.6c.7.131,1.648.259,2.077-.419,1.114-1.787,2.458-11.118,2.458-11.118s.545-4.654-1.348-5.127-4.473-.394-4.86,2.8.128,9.281.309,12.269" transform="translate(18.062 26.008)" fill="#ffbd95"/>
          <path id="Path_923689" data-name="Path 923689" d="M31.131,20.841c1.993-.97,2.49.416,3.633,4.563s2.48,8.466.572,8.9-2.215-4.4-3.066-6.75-2.737-5.931-1.139-6.716" transform="translate(23.685 15.949)" fill="#dd885b"/>
          <path id="Path_923690" data-name="Path 923690" d="M32.321,27.874a22.932,22.932,0,0,0,.933,4.912c.588,2.442,1.521,6.125,1.521,6.125l1.21-.266s.082-3.391,0-5.587c-.1-2.371-.338-4.27-1.057-5.34-1.2-1.776-2.606.156-2.606.156" transform="translate(25.092 20.935)" fill="#dd885b"/>
          <path id="Path_923691" data-name="Path 923691" d="M26.248,21.065c-1.981-.986-2.49.391-3.679,4.53s-2.556,8.443-.654,8.9,2.261-4.382,3.132-6.725,2.8-5.9,1.2-6.7" transform="translate(16.281 16.116)" fill="#dd885b"/>
          <path id="Path_923692" data-name="Path 923692" d="M25.445,20.183c-1.323-.407-3.81,4.036-3.81,4.036l4.336,2.787s1.126-6.313-.526-6.823" transform="translate(16.796 15.647)" fill="#b90051"/>
          <path id="Path_923693" data-name="Path 923693" d="M30.433,18.044l.16,2.185L26.3,22.1l.226-4.054Z" transform="translate(20.42 14.008)" fill="#d17345"/>
          <path id="Path_923694" data-name="Path 923694" d="M31.487,20.183c1.322-.407,3.808,4.036,3.808,4.036l-4.336,2.787s-1.124-6.313.528-6.823" transform="translate(23.745 15.647)" fill="#b90051"/>
          <path id="Path_923695" data-name="Path 923695" d="M40.249,54.936H22.121l3.247-34.61H29.55a3.877,3.877,0,0,0,2.219,1.123,3.477,3.477,0,0,0,2.208-1.123h3.741Z" transform="translate(17.173 15.779)" fill="#b90051"/>
          <path id="Path_923696" data-name="Path 923696" d="M35.734,18.094c0,3.6-3.315,6.519-5.556,6.519-2.032,0-5.562-2.919-5.562-6.519s2.49-6.526,5.562-6.526,5.556,2.924,5.556,6.526" transform="translate(19.11 8.98)" fill="#dd885b"/>
          <path id="Path_923697" data-name="Path 923697" d="M30.2,14.425a7.833,7.833,0,0,0,2.64,2.288,18.981,18.981,0,0,0,2.879.732,5.154,5.154,0,0,0-1.455-4.43A4.5,4.5,0,0,0,30.2,11.6s-2.743-.526-4.078,1.21c-2.062,2.691-1.449,4.634-1.449,4.634a9.269,9.269,0,0,0,3.348-1.2c.81-.59,2.18-1.815,2.18-1.815" transform="translate(19.088 8.947)" fill="#603b26"/>
          <path id="Path_923698" data-name="Path 923698" d="M30.024,51.083s-.488,3.5,1.783,3.507c1.892,0,1.645-1.792.814-3.769a1.219,1.219,0,0,1-.993,1.524c-1.259.206-1.6-1.261-1.6-1.261" transform="translate(23.275 39.453)" fill="#191919"/>
          <path id="Path_923699" data-name="Path 923699" d="M26.213,50.82s.465,3.835-1.808,3.844c-1.892,0-1.645-1.792-.814-3.769a1.219,1.219,0,0,0,.995,1.524c1.258.21,1.627-1.6,1.627-1.6" transform="translate(17.829 39.453)" fill="#191919"/>
          <path id="Path_923700" data-name="Path 923700" d="M23.378,27.138c-.735.069-1.242.661-1.942,1.48a35.707,35.707,0,0,0-2.274,3.764l.766,1.208s1.249-.927,2.016-1.561a15.2,15.2,0,0,0,2.6-3.322c.266-.778-.679-1.615-1.165-1.569" transform="translate(14.877 21.066)" fill="#dd885b"/>
          <path id="Path_923701" data-name="Path 923701" d="M26.294,20.326l1.142,33.321,12.813,1.29H22.121l3.247-34.61Z" transform="translate(17.174 15.779)" fill="#8b003d"/>
          <path id="Path_923702" data-name="Path 923702" d="M34.557,34.443a5.493,5.493,0,0,1-.272.858,3.829,3.829,0,0,1-.416.471.684.684,0,0,0-.171.471c.092.137.318-.027.423-.139a4.139,4.139,0,0,0,.458-.558,3.8,3.8,0,0,0,.416-.8c.014-.163-.439-.3-.439-.3" transform="translate(26.156 26.739)" fill="#d17345"/>
          <path id="Path_923703" data-name="Path 923703" d="M34.814,34.33a5.146,5.146,0,0,1-.474.691c-.13.11-.245.091-.446.153-.167.052-.375.179-.393.334s.249.1.391.08a1.431,1.431,0,0,0,.645-.27,3.469,3.469,0,0,0,.584-.6c.059-.142-.307-.389-.307-.389" transform="translate(26.008 26.651)" fill="#d17345"/>
          <path id="Path_923704" data-name="Path 923704" d="M34.8,34.272a4.181,4.181,0,0,1-.494.5c-.124.073-.218.039-.394.06-.146.016-.338.092-.373.217s.192.123.313.126a1.2,1.2,0,0,0,.574-.126,2.886,2.886,0,0,0,.574-.409c.069-.108-.2-.369-.2-.369" transform="translate(26.031 26.606)" fill="#d17345"/>
          <path id="Path_923705" data-name="Path 923705" d="M33.165,37.017c.036.1.288.044.465-.082A1.316,1.316,0,0,0,34,36.166c.025-.22.155-.526.316-.5a1.358,1.358,0,0,1,.657.643,2.961,2.961,0,0,1,.1.95,3.272,3.272,0,0,1-.448.691,1.379,1.379,0,0,0-.3.512.212.212,0,0,0,.121.242c.069.046.206-.242.435-.421a6.734,6.734,0,0,0,.719-.728c.028-.046.172-.95.2-1.226s-.46-1.606-.414-1.707-.19-2.155-.19-2.155L33.461,32.1a11.153,11.153,0,0,1,.517,1.988,4.7,4.7,0,0,1-.366.743,3.076,3.076,0,0,0-.179,1.272c-.021.407-.322.764-.268.915" transform="translate(25.742 24.92)" fill="#dd885b"/>
          <path id="Path_923706" data-name="Path 923706" d="M27.838,13.192l2.544,2.959-.021-.755,1.851,1.434L32,15.947l1.966,1.37-.886-1.87Z" transform="translate(21.612 10.241)" fill="#603b26"/>
          <path id="Path_923707" data-name="Path 923707" d="M23.547,39.81,22.218,52.057l6.445.782L30.1,39.81Z" transform="translate(17.249 30.905)" fill="#363e3b"/>
          <path id="Path_923708" data-name="Path 923708" d="M28.2,39.81l1.393,13.239,6.285-.743-1.352-12.5Z" transform="translate(21.89 30.905)" fill="#363e3b"/>
          <path id="Path_923709" data-name="Path 923709" d="M30.474,47.23l.341.824V47.37l.719,1.108-.2-1.249,1.368.988-.325-.988,1.593,1.249-.567-1.4,1.286.481-.719-.743Z" transform="translate(23.658 36.344)" fill="#363e3b"/>
          <path id="Path_923710" data-name="Path 923710" d="M29.689,39.81H23.134l-.385,3.562,6.688-1.281Z" transform="translate(17.66 30.905)" fill="#2a322f"/>
          <path id="Path_923711" data-name="Path 923711" d="M28.2,39.81l.133,1.782h6.329l-.137-1.782Z" transform="translate(21.89 30.905)" fill="#2a322f"/>
        </g>
      </g>
    </g>
  </g>
</svg>
