<svg xmlns="http://www.w3.org/2000/svg" xmlns:xlink="http://www.w3.org/1999/xlink" width="70" height="70" viewBox="0 0 70 70">
  <defs>
    <clipPath id="clip-path">
      <rect id="Rectangle_408926" data-name="Rectangle 408926" width="47.177" height="54.292" fill="#953c2d"/>
    </clipPath>
  </defs>
  <g id="Group_1118640" data-name="Group 1118640" transform="translate(-268.711 -957.673)">
    <circle id="Ellipse_5614" data-name="Ellipse 5614" cx="35" cy="35" r="35" transform="translate(268.711 957.673)" fill="#fff"/>
    <g id="Group_1119028" data-name="Group 1119028" transform="translate(280.711 965.672)">
      <g id="Group_1119027" data-name="Group 1119027" clip-path="url(#clip-path)">
        <path id="Path_923411" data-name="Path 923411" d="M70.827.071c10.145-1.223,10.927,13.8,1.448,14.259C63.017,14.782,62.127,1.12,70.827.071m.2,2.366V7.595c.63.477,3.467,2.3,4.038,2.22a1.047,1.047,0,0,0,.793-.732c.171-1.2-2.544-1.781-3.167-2.653V2.437a1.051,1.051,0,0,0-1.664,0" transform="translate(-54.01 0)" fill="#953c2d"/>
        <path id="Path_923412" data-name="Path 923412" d="M74.305,179.147a25.035,25.035,0,0,0,7.12,1.607c.215.093.544,1.185.794,1.543a4.145,4.145,0,0,0,6.634,0c.25-.358.578-1.45.794-1.543a25.035,25.035,0,0,0,7.12-1.607v6.405c0,.566-1.162,1.2-1.739,1.256-6.073.555-12.982-.434-19.144,0-.466.135-1.577-.953-1.577-1.251Z" transform="translate(-61.943 -149.342)" fill="#953c2d"/>
        <path id="Path_923413" data-name="Path 923413" d="M141.17,240.231c9.513-.922,10.665,13.482,1.446,14.256-9.574.8-10.7-13.358-1.446-14.256m-.257,4.816a2.661,2.661,0,0,1,1.674-.175c.536.166.5,1.2,1.527,1.149,1.531-.081.451-1.955-.33-2.514-.3-.215-.885-.337-1-.5-.285-.409.056-1.074-1-1.013-.911.053-.572.72-.915,1.1-.208.229-.878.34-1.256.74a2.509,2.509,0,0,0,.924,4.083c.988.4,2.957.181,2.639,1.727-.676.324-1.844.579-2.428-.024-.386-.4-.368-1.639-1.495-1.163-1.048.443-.363,1.795.2,2.378a7.217,7.217,0,0,0,1.554.86c.185.263.055,1.248,1.074,1.1.878-.125.5-.942.642-1.116.237-.294,1.951-.261,2.27-1.8a2.622,2.622,0,0,0-2.032-3.215c-.473-.161-3.191-.485-2.047-1.615" transform="translate(-112.371 -200.228)" fill="#953c2d"/>
        <path id="Path_923414" data-name="Path 923414" d="M71.053,121.147v3.743a3.413,3.413,0,0,0,2.154,2.172c3.664-.211,8.33.543,11.89.059.884-.12,2.427-1.347,2.427-2.231v-3.743h3.411c.326,0,.686.6.738.926a27.779,27.779,0,0,1,0,4.633c-.431,3.1-5.789,3.589-8.231,3.87-.625-.9-.878-1.768-1.847-2.413a4.113,4.113,0,0,0-6.3,2.471c-2.461-.383-7.939-.752-8.38-3.928a27.256,27.256,0,0,1-.022-4.318c.038-.415.244-1.24.756-1.24Z" transform="translate(-55.696 -100.992)" fill="#953c2d"/>
        <path id="Path_923415" data-name="Path 923415" d="M184.27,60.682c.121.1,2.442-1.152,2.346.584a.745.745,0,0,1-.351.664,33.548,33.548,0,0,1-3.949,1.211c-2.206.321-1.49-1.615-1.533-3.212-.019-.706-.434-1.469-.018-2.166a.9.9,0,0,1,1.671.181c.033.174-.131,2,.338,1.663,8.831-12.525,1.878-30.236-12.9-33.684a.928.928,0,0,1,.8-1.643,23.413,23.413,0,0,1,5.622,2.213,23.7,23.7,0,0,1,7.982,34.191" transform="translate(-141.295 -20.231)" fill="#953c2d"/>
        <path id="Path_923416" data-name="Path 923416" d="M5.709,68.7a21.87,21.87,0,0,0,10.105,32.9c.853.333,3.345.629,3.175,1.751-.2,1.318-2.178.5-3,.239A23.6,23.6,0,0,1,4.045,67.954c-.544-.224-1.026.36-1.615.127a.977.977,0,0,1-.4-1.476,31.2,31.2,0,0,1,4.3-1.358c.83-.1,1.156.02,1.36.884-.33,1.095.893,4.811-.611,5.038-1.613.244-.775-2.885-1.374-2.468" transform="translate(0 -54.368)" fill="#953c2d"/>
        <path id="Path_923417" data-name="Path 923417" d="M116.116,121.147v3.577c0,.337-.933.562-1.24.59a73.816,73.816,0,0,1-10.493,0c-.278-.033-1.078-.328-1.078-.586v-3.577Z" transform="translate(-86.118 -100.992)" fill="#953c2d"/>
        <path id="Path_923418" data-name="Path 923418" d="M118.77,94.847l-1.728.01c-.126-.035-.16-1.039-1.347-1.179a35.451,35.451,0,0,0-5.485.013c-.986.156-1.086,1.135-1.194,1.166l-1.728-.01a2.8,2.8,0,0,1,1.862-2.714,22.319,22.319,0,0,1,7.757,0,2.8,2.8,0,0,1,1.862,2.714" transform="translate(-89.438 -76.522)" fill="#953c2d"/>
        <path id="Path_923419" data-name="Path 923419" d="M129.88,170.035a2.274,2.274,0,1,1,1.222,4.381c-3.2.741-3.84-3.837-1.222-4.381" transform="translate(-106.916 -141.688)" fill="#953c2d"/>
      </g>
    </g>
  </g>
</svg>
