<svg xmlns="http://www.w3.org/2000/svg" xmlns:xlink="http://www.w3.org/1999/xlink" width="99" height="99" viewBox="0 0 99 99">
  <defs>
    <clipPath id="clip-path">
      <rect id="Rectangle_401223" data-name="Rectangle 401223" width="99" height="99" transform="translate(0)" fill="#8ce6fe"/>
    </clipPath>
    <clipPath id="clip-path-2">
      <rect id="Rectangle_401223-2" data-name="Rectangle 401223" width="88.539" height="88.539" fill="#f3f9ff"/>
    </clipPath>
    <clipPath id="clip-path-3">
      <rect id="Rectangle_408875" data-name="Rectangle 408875" width="68" height="50.517" fill="none"/>
    </clipPath>
  </defs>
  <g id="Group_1118703" data-name="Group 1118703" transform="translate(-619.921 -5755.871)">
    <g id="Group_1100724" data-name="Group 1100724" transform="translate(619.921 5755.871)">
      <g id="Group_1099654" data-name="Group 1099654" transform="translate(0 0)">
        <g id="Group_1099652" data-name="Group 1099652" clip-path="url(#clip-path)">
          <path id="Path_873521" data-name="Path 873521" d="M99,77.066A22,22,0,0,1,77.066,99H21.934A22,22,0,0,1,0,77.066V21.933A22,22,0,0,1,21.934,0H77.066A22,22,0,0,1,99,21.934Z" transform="translate(0)" fill="#ffdcd6"/>
        </g>
      </g>
      <g id="Group_1099659" data-name="Group 1099659" transform="translate(4.77 5.723)">
        <g id="Group_1099652-2" data-name="Group 1099652" transform="translate(0 0)" clip-path="url(#clip-path-2)">
          <path id="Path_873521-2" data-name="Path 873521" d="M88.539,68.922A19.674,19.674,0,0,1,68.923,88.539H19.616A19.674,19.674,0,0,1,0,68.922V19.616A19.674,19.674,0,0,1,19.616,0H68.923A19.674,19.674,0,0,1,88.539,19.616Z" fill="#f3f9ff"/>
        </g>
      </g>
    </g>
    <g id="Group_1100725" data-name="Group 1100725" transform="translate(636.343 5771.293)">
      <rect id="Rectangle_401104" data-name="Rectangle 401104" width="68" height="69" fill="none"/>
      <g id="Group_1118939" data-name="Group 1118939" transform="translate(0 9.242)">
        <g id="Group_1118938" data-name="Group 1118938" transform="translate(0 0)" clip-path="url(#clip-path-3)">
          <path id="Path_922257" data-name="Path 922257" d="M75.2,25.251A25.256,25.256,0,0,1,49.939,50.515h0V0h0A25.257,25.257,0,0,1,75.2,25.251" transform="translate(-18.624 0)" fill="#025974"/>
          <path id="Path_922258" data-name="Path 922258" d="M34.912,0V50.515A25.548,25.548,0,0,1,9.651,25.248,25.26,25.26,0,0,1,34.912,0" transform="translate(-3.599 0)" fill="#025974"/>
          <path id="Path_922259" data-name="Path 922259" d="M28.2,49.514a24.394,24.394,0,0,0,2.442.554,6.124,6.124,0,0,1,2.984.34,24.222,24.222,0,0,0,2.938-.007c-3.492-1.42-4.488-2.075-8.364-.887M44.31,2.053A3.519,3.519,0,0,1,42.658,3.27c-.676.228-1.794.381-1.907,1.251-.3,2.236-1.4,1.195-2.422,2.093-.669.6-.792,2.208,1.425,3.12,3.263,1.316,3.508-1.238,5.172-1.948.762-.32,4.317-1.405,4.335.04,0,.974-1.579.037-1.946.892-.609,1.361,5.066,1.3,6.088,2.059a1.924,1.924,0,0,1-.261,2.95c-3.29,2.349-7.662-4.365-14.732-2.462a7.368,7.368,0,0,0-4.79,4.877c-1.724,7-.845,7.868-.02,8.806A8.535,8.535,0,0,0,43.012,27.4c.669-.218,2.62-2.066,2.536-.6-.164,6.489,2.363,6.737,3.572,8.564.87,1.324.776,8.071-.808,10.853a.46.46,0,0,0,.227.282A25.094,25.094,0,0,0,44.31,2.053M10.424,20.377a7.412,7.412,0,0,1,1.092,1.3c.348.765.152,1.992-1.578,3.231a24.939,24.939,0,0,0,1.378,8.69c1.776.672,1.978,3.125,2.649,4.61C16.284,43.293,21.121,46.9,26,48.776c-.257-.668-2.046-3.024-1.312-6.342a22,22,0,0,1,2.656-7.458c2.1-3.157,2.886-5.11-.615-6.63-1.231-.538-3.083-.43-4.061-1.365-1.094-1.08-.817-2.1-3.592-3.5-1.78-.895-3.725-1.316-5.527-2.118-1.068-.476-1.731-2.441-.446-3.272,4.475-2.884-3.3.344-.43-2.8.734-.828,1.326-.374,1.987.142,1.228.962,1.39-2.546,4.656-2.676,1.591-.04,1.879-1.406,3.018-2.355a14.036,14.036,0,0,1,3.3-2.055,12.019,12.019,0,0,0,2.715-1.358c1.09-.863,1.721-4.115-.535-3.057-2.652,1.2-5.1,1.376-5.379.629-.741-1.828,5.262.06,5.827-2.021a1.367,1.367,0,0,1,1.378-1.124c.9.08,1.143,1.05,1.452,1.732,2.393,5.36,7.323-.852,8.135-2.515a25.1,25.1,0,0,0-28.8,19.75" transform="translate(-3.7 -0.099)" fill="#8ce6fe"/>
          <path id="Path_922260" data-name="Path 922260" d="M60.136,23.883H52.818a33.6,33.6,0,0,0-5.54-16.725c1.376-.474,2.592-.973,3.631-1.452A26.053,26.053,0,0,0,48.29,3.829c-.8.325-1.694.649-2.657.958a42.969,42.969,0,0,0-3-3.582A24.766,24.766,0,0,0,37.55.138a39.939,39.939,0,0,1,5.167,5.441,35.138,35.138,0,0,1-6.432.864V.039C35.834.011,35.377,0,34.915,0s-.924.011-1.381.039v6.4a35.149,35.149,0,0,1-6.426-.864A40.833,40.833,0,0,1,32.269.138,24.777,24.777,0,0,0,27.18,1.211a43.342,43.342,0,0,0-2.987,3.575c-.963-.309-1.849-.633-2.652-.958a26.788,26.788,0,0,0-2.625,1.877c1.04.479,2.256.978,3.632,1.452a33.591,33.591,0,0,0-5.541,16.725H9.69c-.028.451-.039.908-.039,1.365s.011.931.039,1.386h7.317a33.585,33.585,0,0,0,5.541,16.725c-1.321.451-2.493.93-3.505,1.393a25.993,25.993,0,0,0,2.619,1.887c.776-.309,1.618-.617,2.531-.907A43.7,43.7,0,0,0,27.1,49.224a24.352,24.352,0,0,0,5.154,1.145,40.284,40.284,0,0,1-5.161-5.43,35.209,35.209,0,0,1,6.437-.864v6.4c.456.033.919.044,1.381.044s.919-.011,1.37-.038v-6.4a35.138,35.138,0,0,1,6.432.864A40.071,40.071,0,0,1,37.55,50.38a24.726,24.726,0,0,0,5.085-1.068,42.749,42.749,0,0,0,3-3.581c.963.307,1.854.632,2.657.957a26.047,26.047,0,0,0,2.619-1.876c-1.04-.478-2.256-.979-3.631-1.453a33.6,33.6,0,0,0,5.54-16.725h7.318c.028-.455.038-.918.038-1.38s-.01-.919-.038-1.371m-26.6,17.441a38.39,38.39,0,0,0-8.2,1.2,31.262,31.262,0,0,1-5.578-15.89H33.534Zm0-17.441H19.758A31.381,31.381,0,0,1,25.347,7.994,38.281,38.281,0,0,0,33.534,9.2ZM44.477,42.524a37.976,37.976,0,0,0-8.192-1.2V26.633H50.067a31.378,31.378,0,0,1-5.59,15.89M36.285,23.883V9.2a38.275,38.275,0,0,0,8.192-1.205,31.375,31.375,0,0,1,5.59,15.888Z" transform="translate(-3.599 0)" fill="#cff5ff"/>
          <path id="Path_922261" data-name="Path 922261" d="M24.236,30.092c1.02-.785,8.5-6.368,9.425-5.618.614.494,3.379,4.744,4.177,4.759a75.28,75.28,0,0,0,7.594-.527c1.316-.111,2.62-.134,3.937-.164.984-.023,2.294-.433,3.233-.208a1.311,1.311,0,0,1,1,1.756c-.346.677-1.079.513-1.717.64-1.431.285-2.855.609-4.275.946-.311.073-1.778.209-1.931.528-.746,1.54,3.191,1.221,3.814,1.2a7.9,7.9,0,0,1,4.6.8.706.706,0,0,1,.384.475c.03.332-.351.544-.674.646-1.91.6-3.991.5-5.886,1.144-.308.1-.653.279-.707.594-.211,1.265,2.388,1.583,3.229,1.76.532.11,1.183.3,1.273.824a.887.887,0,0,1-.486.863,2.7,2.7,0,0,1-1.024.27,26.349,26.349,0,0,1-3.163.364c-.505,0-2-.124-2.148.54a.472.472,0,0,0,.112.373,2.68,2.68,0,0,0,1.267.707c.457.181.941.512.957,1,.019.6-.67.965-1.265,1.12a23.258,23.258,0,0,1-6.642.267c-2.328-.091-4.652-.286-6.959-.583a78.232,78.232,0,0,1-9.1-1.723c-2.612-.655-5.562-1.576-7.19-3.846A10.036,10.036,0,0,1,14.982,36.9a10.046,10.046,0,0,1-.823-2.969,4.062,4.062,0,0,1,.819-2.916.881.881,0,0,1,.327-.27,1.009,1.009,0,0,1,.543-.014,29.5,29.5,0,0,0,4.171.535,7.374,7.374,0,0,0,4.218-1.178" transform="translate(-5.275 -9.102)" fill="#fbb99d"/>
          <rect id="Rectangle_408874" data-name="Rectangle 408874" width="15.876" height="18.472" transform="translate(0 18.934)" fill="#6b4502"/>
          <path id="Path_922262" data-name="Path 922262" d="M56.57,26.834c-1.263-.246-2.459-1.277-3.6-1.817A21.869,21.869,0,0,0,45.709,23.4c-1.38-.137-4.1-2.034-5.347-.756-2.044,2.09,3.365,4.02,4.364,4.845a2.792,2.792,0,0,1,1.06,3.133,3.669,3.669,0,0,1-1.765,1.536,75.163,75.163,0,0,1-7.027,2.928c-1.227.49-2.4,1.053-3.594,1.616-.89.419-2.245.64-2.985,1.261a1.311,1.311,0,0,0-.105,2.016c.612.451,1.2-.024,1.822-.2,1.408-.385,2.826-.732,4.246-1.068.312-.073,1.684-.608,1.963-.393,1.356,1.044-2.307,2.52-2.875,2.778a7.907,7.907,0,0,0-3.751,2.775.706.706,0,0,0-.13.6c.122.311.557.33.892.277,1.975-.32,3.794-1.337,5.775-1.612a.937.937,0,0,1,.9.215c.756,1.037-1.428,2.484-2.1,3.018-.426.337-.924.8-.769,1.307a.886.886,0,0,0,.821.554,2.706,2.706,0,0,0,1.037-.217,26.3,26.3,0,0,0,2.991-1.09c.453-.224,1.733-1.005,2.163-.478a.469.469,0,0,1,.067.382,2.675,2.675,0,0,1-.816,1.2,1.3,1.3,0,0,0-.41,1.319c.251.546,1.031.564,1.633.436a23.257,23.257,0,0,0,6.059-2.734q3.062-1.684,5.962-3.636a78.142,78.142,0,0,0,7.372-5.615c2.042-1.754,4.268-3.9,4.708-6.657a9.947,9.947,0,0,0,.026-2.353A10.012,10.012,0,0,0,67.3,25.76a4.058,4.058,0,0,0-2.038-2.242.882.882,0,0,0-.413-.1,1.013,1.013,0,0,0-.492.231A29.387,29.387,0,0,1,60.868,26a7.372,7.372,0,0,1-4.3.835" transform="translate(-11.144 -8.279)" fill="#cc8b6e"/>
          <path id="Path_922263" data-name="Path 922263" d="M83.641,37.278,93.4,30.949l-5.557-16.4L75.374,20.76Z" transform="translate(-28.111 -5.425)" fill="#953c2d"/>
          <path id="Path_922264" data-name="Path 922264" d="M28.755,30.553a30.588,30.588,0,0,1,7.158,1.587c3.107,1.222,5.667-.925,9.364,0s9.474-1.349,8.818-3.284c-.609-1.8-3.866-.628-4.868-.873-3.049-.744-7.126-3.26-8.928-3.63-3.31-.68-10.852,2.741-11.545,6.2" transform="translate(-10.724 -9.05)" fill="#fbb99d"/>
          <path id="Path_922265" data-name="Path 922265" d="M24.036,49.773h0a2.162,2.162,0,0,1-2.155-2.155V27.062a2.155,2.155,0,0,1,4.31,0V47.618a2.162,2.162,0,0,1-2.155,2.155" transform="translate(-8.16 -9.289)" fill="#fcdf8e"/>
          <path id="Path_922266" data-name="Path 922266" d="M83.428,41.829h0a2.162,2.162,0,0,0,.963-2.892l-9.2-18.382a2.155,2.155,0,0,0-3.854,1.929l9.2,18.382a2.162,2.162,0,0,0,2.892.963" transform="translate(-26.52 -7.222)" fill="#eebc32"/>
        </g>
      </g>
    </g>
  </g>
</svg>
