<svg xmlns="http://www.w3.org/2000/svg" xmlns:xlink="http://www.w3.org/1999/xlink" width="295.332" height="290.843" viewBox="0 0 295.332 290.843">
  <defs>
    <clipPath id="clip-path">
      <rect id="Rectangle_408987" data-name="Rectangle 408987" width="295" height="226.374" fill="none"/>
    </clipPath>
  </defs>
  <g id="Group_1118677" data-name="Group 1118677" transform="translate(-285 -3621.157)">
    <path id="Path_893294" data-name="Path 893294" d="M30,0H265a30,30,0,0,1,30,30V163a30,30,0,0,1-30,30H30A30,30,0,0,1,0,163V30A30,30,0,0,1,30,0Z" transform="translate(285.332 3719)" fill="#ffdcd6"/>
    <g id="Group_1119094" data-name="Group 1119094" transform="translate(285 3621.157)">
      <g id="Group_1119093" data-name="Group 1119093" clip-path="url(#clip-path)">
        <path id="Path_923900" data-name="Path 923900" d="M258.8,324.27a23.185,23.185,0,0,0,.184,5.68,7.269,7.269,0,0,0,.678,1.86c1.768,3.1,3.789,3.614,4.372,6.187l-19.23-.462a117.175,117.175,0,0,1,.543-12.935" transform="translate(-93.815 -112.749)" fill="#332013"/>
        <line id="Line_3354" data-name="Line 3354" x2="18.393" y2="0.804" transform="translate(150.972 222.775)" fill="none" stroke="#000" stroke-miterlimit="10" stroke-width="1"/>
        <path id="Path_923901" data-name="Path 923901" d="M207.463,319.141a23,23,0,0,0-1.2,5.54,7.435,7.435,0,0,0,.206,1.982c.958,3.476,2.789,4.519,2.729,7.164l-18.478-5.652a115.4,115.4,0,0,1,3.656-12.357" transform="translate(-73.095 -109.81)" fill="#332013"/>
        <line id="Line_3355" data-name="Line 3355" x2="17.585" y2="5.756" transform="translate(118.099 216.417)" fill="none" stroke="#000" stroke-miterlimit="10" stroke-width="1"/>
        <path id="Path_923902" data-name="Path 923902" d="M213.485,254.826c.657,9.169,5.336,12.042,5.336,12.042l8.011,15.628,2.6,20.987,18.239.543a149.1,149.1,0,0,0,.762-23.149,68.187,68.187,0,0,0-9.112-30.3" transform="translate(-81.818 -87.125)" fill="#513620"/>
        <path id="Path_923903" data-name="Path 923903" d="M195.842,248.483a56.576,56.576,0,0,0-1.224,8.192,18.888,18.888,0,0,0,1.185,8.132l2.1,12-5.287,21.228,16.784,4.652s5.344-8.777,7.266-13.908a58.767,58.767,0,0,0,2.557-25.92c-1.367-10.623-2.378-17.034-2.378-17.034" transform="translate(-73.819 -85.473)" fill="#513620"/>
        <path id="Path_923904" data-name="Path 923904" d="M226.317,283.952l-7.6-14.818s-6.594-5.944-5.335-12.042" transform="translate(-81.719 -89.391)" fill="none" stroke="#000" stroke-miterlimit="10" stroke-width="1"/>
        <path id="Path_923905" data-name="Path 923905" d="M258.4,285.6a34.1,34.1,0,0,1,5.506,5.643" transform="translate(-99.031 -99.302)" fill="none" stroke="#604229" stroke-miterlimit="10" stroke-width="1"/>
        <path id="Path_923906" data-name="Path 923906" d="M259.648,291.514l4.592,4.185" transform="translate(-99.51 -101.36)" fill="none" stroke="#604229" stroke-miterlimit="10" stroke-width="1"/>
        <path id="Path_923907" data-name="Path 923907" d="M261.007,297.308a42.059,42.059,0,0,1,3.73,4.413" transform="translate(-100.031 -103.374)" fill="none" stroke="#604229" stroke-miterlimit="10" stroke-width="1"/>
        <path id="Path_923908" data-name="Path 923908" d="M260.594,301.2l4.128,4.446" transform="translate(-99.873 -104.726)" fill="none" stroke="#604229" stroke-miterlimit="10" stroke-width="1"/>
        <path id="Path_923909" data-name="Path 923909" d="M201.992,300.406l6.084,3.94" transform="translate(-77.414 -104.452)" fill="none" stroke="#604229" stroke-miterlimit="10" stroke-width="1"/>
        <path id="Path_923910" data-name="Path 923910" d="M202.06,304.242a64.451,64.451,0,0,0,7.351,3.312" transform="translate(-77.44 -105.785)" fill="none" stroke="#604229" stroke-miterlimit="10" stroke-width="1"/>
        <path id="Path_923911" data-name="Path 923911" d="M203.38,308.979l5.854,4.2" transform="translate(-77.945 -107.432)" fill="none" stroke="#604229" stroke-miterlimit="10" stroke-width="1"/>
        <path id="Path_923912" data-name="Path 923912" d="M253.174,261.746a21.848,21.848,0,0,0,1.292-4.348,9.384,9.384,0,0,0-.266-4.507" transform="translate(-97.029 -87.931)" fill="none" stroke="#000" stroke-miterlimit="10" stroke-width="1"/>
        <path id="Path_923913" data-name="Path 923913" d="M219.874,182.473l-.822,5.449s1.662,3.092,7.628,2.87A11.25,11.25,0,0,0,232.7,189l-.065-6.874" transform="translate(-83.952 -63.327)" fill="#a56d47"/>
        <path id="Path_923914" data-name="Path 923914" d="M235.856,170.059c-.85-2.807-1.959-6.5-3.428-8.626-1.615-2.34-3.848-2.708-6.528-2.5a10.983,10.983,0,0,0-7.8,4.768c-2.447,3.521-1.914,8.588.366,12.045,2.775,4.207,6.441,4.731,9.853,4.21,2.167-.331,6.128-1.821,7.316-4.159,1.085-2.134.886-3.534.218-5.74" transform="translate(-82.972 -55.244)" fill="#a56d47"/>
        <path id="Path_923915" data-name="Path 923915" d="M210.527,170.559c.69,1.492,1.785,2.213,2.843,3.352a3.232,3.232,0,0,0,.826.711,2.681,2.681,0,0,0,1.258.231,10.65,10.65,0,0,0,2.363-.269,4.068,4.068,0,0,0,1.942-.913,4.387,4.387,0,0,0,1.118-2.571,10.482,10.482,0,0,0-.672-5.49c1.3.029,2.269-1.418,2.3-2.788a8.246,8.246,0,0,0-1.218-3.852,5.61,5.61,0,0,0,3.787.81c1.289-.265,2.7-.915,2.8-2.3a10.366,10.366,0,0,1,3.072,4.174,11.942,11.942,0,0,0-.751-7.327c-.375-.838-1.015-1.729-1.892-1.7a7.017,7.017,0,0,0-1.417.463c-1.192.309-2.325-.584-3.478-1.025a5.05,5.05,0,0,0-5.434,1.341c-.536.589-.945,1.305-1.534,1.834-1.028.924-2.366,1.2-3.453,2.012a9.953,9.953,0,0,0-2.821,3.173c-1.676,3.067-1.048,7.089.358,10.13" transform="translate(-80.162 -52.769)" fill="#1c100d"/>
        <path id="Path_923916" data-name="Path 923916" d="M227.834,176.135A2.449,2.449,0,0,0,226.091,175c-1.837-.038-2.751,2.263-2.463,3.922a3.418,3.418,0,0,0,1.95,2.6c1.457.578,3.121.136,3.317-1.6" transform="translate(-85.685 -60.848)" fill="#a56d47"/>
        <path id="Path_923917" data-name="Path 923917" d="M225.4,178.8q1.9.625,3.775,1.324" transform="translate(-86.386 -62.171)" fill="none" stroke="#000" stroke-miterlimit="10" stroke-width="1"/>
        <path id="Path_923918" data-name="Path 923918" d="M228.694,175.267a3.251,3.251,0,0,1,1.486,1.385" transform="translate(-87.647 -60.941)" fill="none" stroke="#000" stroke-miterlimit="10" stroke-width="1"/>
        <path id="Path_923919" data-name="Path 923919" d="M224.1,182.476a3.316,3.316,0,0,0,2.305,1.892,2.4,2.4,0,0,0,2.55-1.29,6.149,6.149,0,0,0,.222-.6" transform="translate(-85.887 -63.447)" fill="none" stroke="#000" stroke-miterlimit="10" stroke-width="1"/>
        <path id="Path_923920" data-name="Path 923920" d="M228.939,187.72c1.879,1.421,4.82,1.735,7.264,1.354" transform="translate(-87.741 -65.271)" fill="none" stroke="#000" stroke-miterlimit="10" stroke-width="1"/>
        <path id="Path_923921" data-name="Path 923921" d="M242.647,171.446q.467.618.984,1.193a1.692,1.692,0,0,1,.553.989,1.088,1.088,0,0,1-.272.724,2.831,2.831,0,0,1-.588.5" transform="translate(-92.995 -59.612)" fill="none" stroke="#000" stroke-miterlimit="10" stroke-width="1"/>
        <path id="Path_923922" data-name="Path 923922" d="M231.474,170.942a12.221,12.221,0,0,0,2.643-3.79" transform="translate(-88.712 -58.119)" fill="none" stroke="#000" stroke-miterlimit="10" stroke-width="1"/>
        <path id="Path_923923" data-name="Path 923923" d="M241.121,165.426c.3.718,1.884.962,2.9.879" transform="translate(-92.41 -57.519)" fill="none" stroke="#000" stroke-miterlimit="10" stroke-width="1"/>
        <path id="Path_923924" data-name="Path 923924" d="M237.282,171.932a.916.916,0,0,1-.538,1.133.864.864,0,0,1-.95-.772.916.916,0,0,1,.537-1.133.864.864,0,0,1,.951.772" transform="translate(-90.357 -59.507)"/>
        <path id="Path_923925" data-name="Path 923925" d="M244.7,169.247a.916.916,0,0,1-.538,1.133.864.864,0,0,1-.95-.772.916.916,0,0,1,.537-1.133.864.864,0,0,1,.951.772" transform="translate(-93.202 -58.573)"/>
        <path id="Path_923926" data-name="Path 923926" d="M240.9,178.989a4.809,4.809,0,0,0,1.338.083,2.189,2.189,0,0,0,1.234-.512" transform="translate(-92.323 -62.086)" fill="none" stroke="#000" stroke-miterlimit="10" stroke-width="1"/>
        <path id="Path_923927" data-name="Path 923927" d="M208.626,191.8s-7.638,5.049-9.082,8.653-.839,12.177-1.332,15.947-3.223,17.881-3.223,17.881,9.092,2.481,23.6,2.578c10.885.073,17.505-2.586,17.505-2.586s-1.226-21.563-2.674-28.383-9.3-12.551-9.3-12.551Z" transform="translate(-74.73 -66.688)" fill="#e49134"/>
        <path id="Path_923928" data-name="Path 923928" d="M236.707,206.2s10.822,6.417,17.815,7.169,9.966-1.11,13.554-8.968a79,79,0,0,0,5.33-17.005l-10.737-1.127-6.727,10.038a66.353,66.353,0,0,1-8.538-2.791" transform="translate(-90.718 -64.767)" fill="#a56d47"/>
        <path id="Path_923929" data-name="Path 923929" d="M190.65,209.441s-5.056,3.306-7.859,3.957c-12.343,2.865-13-12.178-13.926-21.053l7.643-1.433c1.2,1.982,5.8,8.814,5.8,8.814" transform="translate(-64.718 -66.38)" fill="#a56d47"/>
        <path id="Path_923930" data-name="Path 923930" d="M267.563,201.489c1.364.613,2.809,1,4.188,1.579a8.435,8.435,0,0,1,3.641,2.6" transform="translate(-102.544 -70.058)" fill="none" stroke="#000" stroke-miterlimit="10" stroke-width="1"/>
        <path id="Path_923931" data-name="Path 923931" d="M179.623,206.244a31.211,31.211,0,0,1,6.456-3.377" transform="translate(-68.841 -70.537)" fill="none" stroke="#000" stroke-miterlimit="10" stroke-width="1"/>
        <path id="Path_923932" data-name="Path 923932" d="M228.14,196.155a13.147,13.147,0,0,1,5.213-3.072c3.739-1.07,7.733.053,11.279,1.7s7.02,3.158,7.02,3.158L243.743,217.8A64.71,64.71,0,0,1,234,212.2" transform="translate(-87.435 -66.989)" fill="#e49134"/>
        <path id="Path_923933" data-name="Path 923933" d="M207.795,190.336c-3.411.114-7.3-.218-10.482,1.078a27.508,27.508,0,0,0-5.04,2.9q-3.084,2.108-6.076,4.362l7.248,15.4,13.148-9.187" transform="translate(-71.36 -66.18)" fill="#e49134"/>
        <path id="Path_923934" data-name="Path 923934" d="M200.569,218.873s1.3-10.876,1.113-13.81" transform="translate(-76.868 -71.301)" fill="none" stroke="#000" stroke-miterlimit="10" stroke-width="1"/>
        <line id="Line_3356" data-name="Line 3356" x2="10.379" y2="5.259" transform="translate(146.991 142.891)" fill="none" stroke="#000" stroke-miterlimit="10" stroke-width="1"/>
        <path id="Path_923935" data-name="Path 923935" d="M200.667,246.307a23.207,23.207,0,0,0,5.83,3.6" transform="translate(-76.906 -85.641)" fill="none" stroke="#cc7d36" stroke-miterlimit="10" stroke-width="1"/>
        <path id="Path_923936" data-name="Path 923936" d="M200.684,242.812a36.443,36.443,0,0,0,7,4.946" transform="translate(-76.912 -84.426)" fill="none" stroke="#cc7d36" stroke-miterlimit="10" stroke-width="1"/>
        <path id="Path_923937" data-name="Path 923937" d="M202.79,240.345a43.091,43.091,0,0,0,7.539,5.435" transform="translate(-77.719 -83.568)" fill="none" stroke="#cc7d36" stroke-miterlimit="10" stroke-width="1"/>
        <path id="Path_923938" data-name="Path 923938" d="M210.319,241.107a53.259,53.259,0,0,1,7.045,3.267" transform="translate(-80.605 -83.833)" fill="none" stroke="#cc7d36" stroke-miterlimit="10" stroke-width="1"/>
        <path id="Path_923939" data-name="Path 923939" d="M249.427,238.626l-3.849-2.271a.829.829,0,0,0-.587-.17.845.845,0,0,0-.338.208l-2.435,2.087a67.792,67.792,0,0,0-5.472,5.051c-1.275,1.362-2.442,2.831-3.608,4.3a.163.163,0,0,0-.009.247l2.955,4.07" transform="translate(-89.327 -82.118)" fill="none" stroke="#cc7d36" stroke-miterlimit="10" stroke-width="1"/>
        <path id="Path_923940" data-name="Path 923940" d="M234.066,249.022a.981.981,0,0,0,.273.381,13.852,13.852,0,0,0,2.032,1.666" transform="translate(-89.706 -86.585)" fill="none" stroke="#cc7d36" stroke-miterlimit="10" stroke-width="1"/>
        <path id="Path_923941" data-name="Path 923941" d="M237.714,246.22a4.508,4.508,0,0,0,2.263,1.863" transform="translate(-91.104 -85.611)" fill="none" stroke="#cc7d36" stroke-miterlimit="10" stroke-width="1"/>
        <path id="Path_923942" data-name="Path 923942" d="M242.866,240.5l1.878,2.293" transform="translate(-93.078 -83.622)" fill="none" stroke="#cc7d36" stroke-miterlimit="10" stroke-width="1"/>
        <path id="Path_923943" data-name="Path 923943" d="M247.113,237.908a17.5,17.5,0,0,1,1.647,2.378" transform="translate(-94.706 -82.721)" fill="none" stroke="#cc7d36" stroke-miterlimit="10" stroke-width="1"/>
        <path id="Path_923944" data-name="Path 923944" d="M251.347,234.226l.828,2.357" transform="translate(-96.329 -81.441)" fill="none" stroke="#cc7d36" stroke-miterlimit="10" stroke-width="1"/>
        <path id="Path_923945" data-name="Path 923945" d="M257.332,235.461a5.689,5.689,0,0,0-.7,2.241" transform="translate(-98.356 -81.87)" fill="none" stroke="#cc7d36" stroke-miterlimit="10" stroke-width="1"/>
        <path id="Path_923946" data-name="Path 923946" d="M258.083,240.14l.684-1.815" transform="translate(-98.91 -82.866)" fill="none" stroke="#cc7d36" stroke-miterlimit="10" stroke-width="1"/>
        <path id="Path_923947" data-name="Path 923947" d="M233.457,257.948a9.587,9.587,0,0,0,2.774-.715" transform="translate(-89.472 -89.44)" fill="none" stroke="#cc7d36" stroke-miterlimit="10" stroke-width="1"/>
        <path id="Path_923948" data-name="Path 923948" d="M177.54,190.58q-.169-1.95-.184-3.911a6.614,6.614,0,0,0-.152-1.7,6,6,0,0,0-.733-1.5,9.544,9.544,0,0,0-1.509-2.036c-.1-.09-.22-.181-.343-.142a.367.367,0,0,0-.191.209,1.6,1.6,0,0,0-.146.83,10.924,10.924,0,0,1-.741-2.143,2.6,2.6,0,0,0-2.117,2,1.944,1.944,0,0,0-1.608,1.718c-.767.085-1.158.84-1.409,1.532a6.989,6.989,0,0,0-.334,2.65,25.379,25.379,0,0,0,1.082,5.641" transform="translate(-64.41 -62.65)" fill="#a56d47"/>
        <path id="Path_923949" data-name="Path 923949" d="M177.7,182.117a6.5,6.5,0,0,0,1.232,2.342" transform="translate(-68.102 -63.322)" fill="none" stroke="#000" stroke-miterlimit="10" stroke-width="1"/>
        <path id="Path_923950" data-name="Path 923950" d="M173.875,182.49a14.684,14.684,0,0,0-.086,1.6,3.2,3.2,0,0,0,.332,1.654" transform="translate(-66.605 -63.452)" fill="none" stroke="#000" stroke-miterlimit="10" stroke-width="1"/>
        <path id="Path_923951" data-name="Path 923951" d="M171.176,185a.911.911,0,0,0-.219.56,8.612,8.612,0,0,0,.019,2.435" transform="translate(-65.49 -64.326)" fill="none" stroke="#000" stroke-miterlimit="10" stroke-width="1"/>
        <path id="Path_923952" data-name="Path 923952" d="M169.3,187.265a4.878,4.878,0,0,0-.149,2.739" transform="translate(-64.782 -65.112)" fill="none" stroke="#000" stroke-miterlimit="10" stroke-width="1"/>
        <path id="Path_923953" data-name="Path 923953" d="M277.907,182.213q.54-2.292.9-4.626a7.9,7.9,0,0,1,.476-2,7.067,7.067,0,0,1,1.134-1.644,11.206,11.206,0,0,1,2.151-2.134.348.348,0,0,1,.625.183,1.944,1.944,0,0,1,.031,1.018,12.977,12.977,0,0,0,1.254-2.412,3.207,3.207,0,0,1,2.176,2.793,2.4,2.4,0,0,1,1.619,2.359c.9.25,1.235,1.226,1.414,2.1a8.451,8.451,0,0,1-.061,3.223,30.181,30.181,0,0,1-2.267,6.515" transform="translate(-106.508 -59.316)" fill="#a56d47"/>
        <path id="Path_923954" data-name="Path 923954" d="M286.143,172.763a7.67,7.67,0,0,1-1.874,2.552" transform="translate(-108.946 -60.07)" fill="none" stroke="#000" stroke-miterlimit="10" stroke-width="1"/>
        <path id="Path_923955" data-name="Path 923955" d="M291.2,173.9a17.871,17.871,0,0,1-.175,1.93,3.814,3.814,0,0,1-.682,1.907" transform="translate(-111.273 -60.465)" fill="none" stroke="#000" stroke-miterlimit="10" stroke-width="1"/>
        <path id="Path_923956" data-name="Path 923956" d="M294.157,177.365a1.111,1.111,0,0,1,.163.71,10.306,10.306,0,0,1-.443,2.9" transform="translate(-112.629 -61.67)" fill="none" stroke="#000" stroke-miterlimit="10" stroke-width="1"/>
        <path id="Path_923957" data-name="Path 923957" d="M295.985,180.406a5.882,5.882,0,0,1-.3,3.293" transform="translate(-113.323 -62.727)" fill="none" stroke="#000" stroke-miterlimit="10" stroke-width="1"/>
        <path id="Path_923958" data-name="Path 923958" d="M128.838,56.344l-4,12.43-12.955-8.181,5.257-8.722Z" transform="translate(-42.88 -18.036)" fill="#ce8d57"/>
        <path id="Path_923959" data-name="Path 923959" d="M132.364,21.936c3.089,1.512,4.294,5.112,5.035,8.362,1.108,4.86,2.366,13.925-2.492,17.088-4.2,2.736-9.87-.638-12.814-3.969-3.6-4.077-5.744-10.4-3.276-15.7a11.183,11.183,0,0,1,.953-1.655c2.7-3.879,8.274-6.236,12.593-4.123" transform="translate(-45.13 -7.351)" fill="#ce8d57"/>
        <path id="Path_923960" data-name="Path 923960" d="M110.225,35a14.025,14.025,0,0,0,6.726-3.684,13.411,13.411,0,0,0,3.707-6.951,13.7,13.7,0,0,1,.548-2.491c.092-.234,2.138.638,2.342.742a5.658,5.658,0,0,1,1.882,1.39,9.662,9.662,0,0,1,2.188,4.868c1.382-1.922,2.106-4.605,1.112-6.779a7.405,7.405,0,0,0-1.834-2.331,9.535,9.535,0,0,0-6.567-2.833c-.947.038-1.876.282-2.82.365a19.577,19.577,0,0,1-2.38-.005,14.526,14.526,0,0,0-5.295.554c-7.431,2.575-7.186,12.6-10,18.852a29.9,29.9,0,0,1-4,6.1,20.333,20.333,0,0,0-2.3,3.333c-1.077,2.128-1.725,5.6-.474,7.785,1.224,2.135,3.9,2.271,5.8,3.357a26.69,26.69,0,0,1,3.317,2.7,12.272,12.272,0,0,0,5.733,2.586,3.182,3.182,0,0,0,1.348,0,2.831,2.831,0,0,0,1.378-1c1.422-1.738,1.667-4.248,1.382-6.527s-1.025-4.472-1.328-6.747c-.524-3.948.288-7.943,1.1-11.837" transform="translate(-35.403 -5.886)" fill="#332013"/>
        <path id="Path_923961" data-name="Path 923961" d="M123.3,43.481a3.3,3.3,0,0,0-2.046-1.882c-2.378-.44-4,2.432-3.946,4.7a4.71,4.71,0,0,0,2.035,3.881c1.781,1.08,4.027.843,4.611-1.426" transform="translate(-44.957 -14.448)" fill="#ce8d57"/>
        <path id="Path_923962" data-name="Path 923962" d="M120.016,46.242q2.346,1.236,4.648,2.565" transform="translate(-45.996 -16.078)" fill="none" stroke="#000" stroke-miterlimit="10" stroke-width="1"/>
        <path id="Path_923963" data-name="Path 923963" d="M124.736,41.9a3.477,3.477,0,0,1,1.58,2.316" transform="translate(-47.805 -14.57)" fill="none" stroke="#000" stroke-miterlimit="10" stroke-width="1"/>
        <path id="Path_923964" data-name="Path 923964" d="M122.543,54.881a2.558,2.558,0,0,0,3.554-2.095" transform="translate(-46.965 -18.354)" fill="none" stroke="#000" stroke-miterlimit="10" stroke-width="1"/>
        <path id="Path_923965" data-name="Path 923965" d="M129.289,59a12.091,12.091,0,0,0,5.306,2.49" transform="translate(-49.55 -20.513)" fill="none" stroke="#000" stroke-miterlimit="10" stroke-width="1"/>
        <path id="Path_923966" data-name="Path 923966" d="M145.59,40.367a7.221,7.221,0,0,0,1.1,3.744,3.22,3.22,0,0,1,.677,1.469,1.771,1.771,0,0,1-.455,1.205,4.864,4.864,0,0,1-.986.822" transform="translate(-55.797 -14.036)" fill="none" stroke="#000" stroke-miterlimit="10" stroke-width="1"/>
        <path id="Path_923967" data-name="Path 923967" d="M138.272,36.171c-1.288,1.308-3.223,1.616-4.669,2.723" transform="translate(-51.203 -12.577)" fill="none" stroke="#000" stroke-miterlimit="10" stroke-width="1"/>
        <path id="Path_923968" data-name="Path 923968" d="M139.748,42.581c.146.5,0,.988-.327,1.1s-.711-.208-.857-.706,0-.988.327-1.1.711.209.857.706" transform="translate(-53.083 -14.553)"/>
        <path id="Path_923969" data-name="Path 923969" d="M149.631,41.592c.046.519-.193.967-.534,1s-.655-.359-.7-.877.192-.967.534-1,.656.359.7.877" transform="translate(-56.87 -14.156)"/>
        <path id="Path_923970" data-name="Path 923970" d="M147.087,35.569a14.5,14.5,0,0,0,1.945,1.406,1.982,1.982,0,0,1,.638.574" transform="translate(-56.371 -12.367)" fill="none" stroke="#000" stroke-miterlimit="10" stroke-width="1"/>
        <path id="Path_923971" data-name="Path 923971" d="M141.328,52.453a2.921,2.921,0,0,0,2.858,1.054" transform="translate(-54.164 -18.238)" fill="none" stroke="#000" stroke-miterlimit="10" stroke-width="1"/>
        <path id="Path_923972" data-name="Path 923972" d="M85.905,294.516a34.3,34.3,0,0,0-.687,9.651,11.553,11.553,0,0,0,.545,3.061c1.885,5.3,7.314,9.084,7.519,13.213l-29.426-6.474a181.425,181.425,0,0,1,4.3-19.714" transform="translate(-24.473 -102.313)" fill="#332013"/>
        <line id="Line_3357" data-name="Line 3357" x2="28.177" y2="7.003" transform="translate(39.896 208.561)" fill="none" stroke="#000" stroke-miterlimit="10" stroke-width="1"/>
        <path id="Path_923973" data-name="Path 923973" d="M150.011,299.767s-.541,5.738.209,8.877a11.379,11.379,0,0,0,1.035,2.916c2.719,4.873,10.295,8.611,11.169,12.641l-30.041-1.02a182.7,182.7,0,0,1,1.028-20.2" transform="translate(-50.733 -104.229)" fill="#332013"/>
        <line id="Line_3358" data-name="Line 3358" x2="28.728" y2="1.541" transform="translate(81.651 215.811)" fill="none" stroke="#000" stroke-miterlimit="10" stroke-width="1"/>
        <path id="Path_923974" data-name="Path 923974" d="M81.651,63.712c-6.182.436-24.215,6.31-32.466,16.14a16.779,16.779,0,0,0-2.561,3.756,17.844,17.844,0,0,0-1.229,6.3,111.433,111.433,0,0,0,4.9,40.247L64.62,125.5,63.6,90.6,86.275,79.914" transform="translate(-17.316 -22.153)" fill="#9e493e"/>
        <path id="Path_923975" data-name="Path 923975" d="M38.251,100.08c-5.851,1.9-11.663,4.2-16.723,7.843A55.933,55.933,0,0,0,8.792,121.5a100.012,100.012,0,0,0-6.443,10.55A18.473,18.473,0,0,0,.1,138.021c-.509,3.624.921,7.221,2.523,10.469,6.11,12.387,15.881,23.485,28.569,27.371,2.551.781,5.456,1.216,7.735-.227a11.778,11.778,0,0,0,3.46-4.22l14.235-24.222c2.033-3.46,4.4-7.192,8.1-8.292,2.645-.785,5.459-.052,8.1.744a174.08,174.08,0,0,1,19.548,7.2c2.561,1.12,5.476,2.307,8,1.1a8.848,8.848,0,0,0,3.085-2.911c4.26-5.8,6.715-12.826,9.105-19.724,1.207-3.482,2.423-7.295,1.316-10.813-.928-2.952-3.318-5.087-5.67-6.954-7.022-5.576-14.774-10.258-23.194-12.9-7.291-2.283-16.58-3.673-23.971-1.046-7.436,2.644-15.242,4.031-22.8,6.487" transform="translate(0 -32.046)" fill="#cca37a"/>
        <path id="Path_923976" data-name="Path 923976" d="M1.275,158.292c3.131-5.372,10.443-8.669,15.9-5.219a23.8,23.8,0,0,1,4.919,4.524c6.7,7.581,12.864,16.339,16.3,26.141.98,2.8,1.718,5.923.746,8.723a3.652,3.652,0,0,1-1.763,2.239c-1.787.791-4.508-.442-6.155-1.22a31.774,31.774,0,0,1-8.5-6.235,75.97,75.97,0,0,1-10.212-12.377,50.592,50.592,0,0,1-4.245-7.833C7.315,164.819,6,162.1,6.9,159.632a3.628,3.628,0,0,1,1.965-2.072,8.443,8.443,0,0,1,6.583.292c3.35,1.48,5.676,4.243,7.745,7.277q3.547,5.2,6.647,10.722a41.872,41.872,0,0,1,3.536,7.612,8.084,8.084,0,0,1,.464,3.932,1.8,1.8,0,0,1-.386.9,1.773,1.773,0,0,1-1.964.139,13.2,13.2,0,0,1-3.042-1.847,48.961,48.961,0,0,1-11.177-12.209,26.958,26.958,0,0,1-3.932-8.415c-.186-.783-.216-1.819.469-2.176a1.331,1.331,0,0,1,.95-.042,5.9,5.9,0,0,1,2.181,1.3c5.307,4.394,10.218,10.224,12.3,17.117" transform="translate(-0.489 -52.732)" fill="none" stroke="#a37d5a" stroke-miterlimit="10" stroke-width="1"/>
        <path id="Path_923977" data-name="Path 923977" d="M109.809,69.587c1.631,4.339,4.98,9.063,6.78,13.353,2.761,6.579,4.186,9.969,1.393,17.89-2.088,5.922-4.262,14.617-3.1,20.881,1.3,7.01,2.66,11,4.614,17.9,4.222,14.918,8.192,21.581,8.239,37.214.037,12.317-1.343,47.588-1.343,47.588s-20.5,1.817-25.844,2.58-15.4-.294-20.522-1.845S67.1,216.136,67.1,216.136L75.416,166.2s-5.207-11.356-8.262-20.882c-4-12.469-.741-17.8,2.587-26.606s7.843-9.83,8.8-16.11,2.531-24.371,4.731-29.831c3.6-8.92,13.568-9.06,13.568-9.06Z" transform="translate(-25.029 -22.153)" fill="#9e493e"/>
        <path id="Path_923978" data-name="Path 923978" d="M82.337,220.811a123.92,123.92,0,0,1,5.344,13.942" transform="translate(-31.556 -76.776)" fill="none" stroke="#000" stroke-miterlimit="10" stroke-width="1"/>
        <path id="Path_923979" data-name="Path 923979" d="M157.592,229.135q-4.289,16.038-9.559,31.758" transform="translate(-56.734 -79.671)" fill="none" stroke="#000" stroke-miterlimit="10" stroke-width="1"/>
        <path id="Path_923980" data-name="Path 923980" d="M138.517,249.861l7.7-15.1" transform="translate(-53.087 -81.628)" fill="none" stroke="#000" stroke-miterlimit="10" stroke-width="1"/>
        <path id="Path_923981" data-name="Path 923981" d="M78.831,287a32.952,32.952,0,0,0,8.582,6.978" transform="translate(-30.212 -99.791)" fill="none" stroke="#823933" stroke-miterlimit="10" stroke-width="1"/>
        <path id="Path_923982" data-name="Path 923982" d="M80.765,279.8a50.25,50.25,0,0,0,6.756,8.476" transform="translate(-30.953 -97.285)" fill="none" stroke="#823933" stroke-miterlimit="10" stroke-width="1"/>
        <path id="Path_923983" data-name="Path 923983" d="M84.038,276.011a21.083,21.083,0,0,0,4.448,7.1" transform="translate(-32.208 -95.969)" fill="none" stroke="#823933" stroke-miterlimit="10" stroke-width="1"/>
        <path id="Path_923984" data-name="Path 923984" d="M87.146,269.2A10.837,10.837,0,0,0,89.8,274.67" transform="translate(-33.399 -93.603)" fill="none" stroke="#823933" stroke-miterlimit="10" stroke-width="1"/>
        <path id="Path_923985" data-name="Path 923985" d="M138.055,226.808a36.4,36.4,0,0,0,8.316-8.264" transform="translate(-52.91 -75.988)" fill="none" stroke="#823933" stroke-miterlimit="10" stroke-width="1"/>
        <path id="Path_923986" data-name="Path 923986" d="M141.328,219.325a44.625,44.625,0,0,0,6.356-5.788" transform="translate(-54.164 -74.247)" fill="none" stroke="#823933" stroke-miterlimit="10" stroke-width="1"/>
        <path id="Path_923987" data-name="Path 923987" d="M141.453,214.627l6.759-5.262" transform="translate(-54.212 -72.797)" fill="none" stroke="#823933" stroke-miterlimit="10" stroke-width="1"/>
        <path id="Path_923988" data-name="Path 923988" d="M130,217.364a38.323,38.323,0,0,0,8.546-5.449" transform="translate(-49.821 -73.683)" fill="none" stroke="#823933" stroke-miterlimit="10" stroke-width="1"/>
        <path id="Path_923989" data-name="Path 923989" d="M133.678,207.151a37.351,37.351,0,0,0,8.363-5.763c1.356-1.235,1.887-3.595,3.153-4.932" transform="translate(-51.232 -68.308)" fill="none" stroke="#823933" stroke-miterlimit="10" stroke-width="1"/>
        <path id="Path_923990" data-name="Path 923990" d="M135.945,202.416a20.149,20.149,0,0,0,7.241-6.07" transform="translate(-52.101 -68.27)" fill="none" stroke="#823933" stroke-miterlimit="10" stroke-width="1"/>
        <path id="Path_923991" data-name="Path 923991" d="M168.25,179.06c2.535,2.881,3.874,6.683,5.154,10.378.107.31.2.7-.006.941-.245.289-.714.135-.976-.137s-.443-.642-.763-.834c.687,2.119,2.808,3.335,3.868,5.275a1.792,1.792,0,0,1,.221,1.2c-.062.264-.578.158-.82.065a2.742,2.742,0,0,1,.232,1.1c-.09.475-.326.788-.749.6-.229-.1-.83-.4-.83-.4s-.5.476-.663.491a5.422,5.422,0,0,1-2.321-.468c-.792-.287-1.607-.447-2.4-.727a13.148,13.148,0,0,1-4.815-3.132,23.781,23.781,0,0,1-4.227-6.055" transform="translate(-60.997 -62.259)" fill="#ce8d57"/>
        <path id="Path_923992" data-name="Path 923992" d="M179.077,192.695a13.5,13.5,0,0,1-.607-4.469" transform="translate(-68.396 -65.446)" fill="none" stroke="#000" stroke-miterlimit="10" stroke-width="1"/>
        <path id="Path_923993" data-name="Path 923993" d="M181.359,202.113a18.247,18.247,0,0,1-5.67-5.166" transform="translate(-67.333 -68.479)" fill="none" stroke="#000" stroke-miterlimit="10" stroke-width="1"/>
        <path id="Path_923994" data-name="Path 923994" d="M178.783,204s-1.095-.53-1.689-.829a13.029,13.029,0,0,1-4.528-4.291" transform="translate(-66.136 -69.153)" fill="none" stroke="#000" stroke-miterlimit="10" stroke-width="1"/>
        <path id="Path_923995" data-name="Path 923995" d="M169.092,200.577a15.483,15.483,0,0,0,2.317,2.211,44,44,0,0,0,4.281,2.367" transform="translate(-64.805 -69.741)" fill="none" stroke="#000" stroke-miterlimit="10" stroke-width="1"/>
        <path id="Path_923996" data-name="Path 923996" d="M115.561,63.712a19.342,19.342,0,0,1,9.558,4.822c3.851,3.828,5.334,9.549,6.65,14.962,1.987,8.169,5.089,21.527,5.96,24.506s11.11,27.027,15.592,34.833L141.86,149.26s-19.5-25.324-23.255-34.942-4.443-30.893-4.443-30.893" transform="translate(-43.753 -22.153)" fill="#9e493e"/>
        <path id="Path_923997" data-name="Path 923997" d="M141.86,159.768s-19.5-25.325-23.255-34.942-4.444-30.893-4.444-30.893" transform="translate(-43.753 -32.661)" fill="none" stroke="#000" stroke-miterlimit="10" stroke-width="1"/>
        <path id="Path_923998" data-name="Path 923998" d="M70.5,66.737A44.079,44.079,0,0,0,60.088,77.488a56.856,56.856,0,0,0-8.585,17.3,81.314,81.314,0,0,0-2.437,14.559,58.4,58.4,0,0,0-.157,13.235,22.322,22.322,0,0,0,4.986,11.948c3.854,4.329,9.555,6.121,15,7.583a40.368,40.368,0,0,0,10.627,1.791,15.113,15.113,0,0,0,10.047-3.483,16.269,16.269,0,0,0,4.034-6.032c2.608-6.379,2.357-13.645,1.419-20.524S92.506,100.156,92.6,93.207a30.844,30.844,0,0,1,2.332-11.776c1.154-2.667,4.044-7.906,7.61-6.861a4.028,4.028,0,0,1,2.317,2.494,26.879,26.879,0,0,1,1.541,3.99A15.908,15.908,0,0,0,107.533,72c-1.841-7.373-10.3-9.77-16.633-10.418a30.463,30.463,0,0,0-20.4,5.16" transform="translate(-18.623 -21.355)" fill="#e5bd7c"/>
        <path id="Path_923999" data-name="Path 923999" d="M147.269,115.131c-.87-2.98-3.973-16.337-5.959-24.507a22.81,22.81,0,0,0-2.255-6.413" transform="translate(-53.293 -29.28)" fill="none" stroke="#000" stroke-miterlimit="10" stroke-width="1"/>
        <line id="Line_3359" data-name="Line 3359" x1="11.837" y2="7.686" transform="translate(94.825 115.077)" fill="none" stroke="#000" stroke-miterlimit="10" stroke-width="1"/>
        <path id="Path_924000" data-name="Path 924000" d="M135.484,124.216c1.229-2.532,3.531-4.319,4.858-6.8" transform="translate(-51.924 -40.827)" fill="none" stroke="#823933" stroke-miterlimit="10" stroke-width="1"/>
        <path id="Path_924001" data-name="Path 924001" d="M134.134,119.972a26.6,26.6,0,0,1,5.244-5.438" transform="translate(-51.407 -39.824)" fill="none" stroke="#823933" stroke-miterlimit="10" stroke-width="1"/>
        <path id="Path_924002" data-name="Path 924002" d="M132.453,116.241a55.738,55.738,0,0,1,6.678-6.848" transform="translate(-50.763 -38.036)" fill="none" stroke="#823933" stroke-miterlimit="10" stroke-width="1"/>
        <path id="Path_924003" data-name="Path 924003" d="M130.258,114.677a41.141,41.141,0,0,1,3.942-4.04" transform="translate(-49.921 -38.469)" fill="none" stroke="#823933" stroke-miterlimit="10" stroke-width="1"/>
        <path id="Path_924004" data-name="Path 924004" d="M133.56,108.166a26.231,26.231,0,0,1,5.865-4.108" transform="translate(-51.187 -36.181)" fill="none" stroke="#823933" stroke-miterlimit="10" stroke-width="1"/>
        <path id="Path_924005" data-name="Path 924005" d="M133.207,105.25a49.384,49.384,0,0,1,5.051-3.128" transform="translate(-51.052 -35.508)" fill="none" stroke="#823933" stroke-miterlimit="10" stroke-width="1"/>
        <path id="Path_924006" data-name="Path 924006" d="M127.725,83.1c-.96-1.886-3.131-2.671-5.141-2.941-4.564-.613-9.154.564-13.62,1.732" transform="translate(-41.76 -27.812)" fill="none" stroke="#000" stroke-miterlimit="10" stroke-width="1"/>
        <path id="Path_924007" data-name="Path 924007" d="M99.164,100.466c2.1-7.8,9.4-16.823,18.149-20.437" transform="translate(-38.005 -27.827)" fill="none" stroke="#000" stroke-miterlimit="10" stroke-width="1"/>
        <path id="Path_924008" data-name="Path 924008" d="M58.779,166.293a37.336,37.336,0,0,0,14.717,4.2" transform="translate(-22.527 -57.82)" fill="none" stroke="#c69f67" stroke-miterlimit="10" stroke-width="1"/>
        <path id="Path_924009" data-name="Path 924009" d="M56.349,158.8a38.818,38.818,0,0,0,11.6,5.807" transform="translate(-21.596 -55.214)" fill="none" stroke="#c69f67" stroke-miterlimit="10" stroke-width="1"/>
        <path id="Path_924010" data-name="Path 924010" d="M59.707,153.054a52.4,52.4,0,0,0,10.278,7.656" transform="translate(-22.883 -53.217)" fill="none" stroke="#c69f67" stroke-miterlimit="10" stroke-width="1"/>
        <path id="Path_924011" data-name="Path 924011" d="M65.867,155.585a29.394,29.394,0,0,0,7.789,2.394" transform="translate(-25.244 -54.097)" fill="none" stroke="#c69f67" stroke-miterlimit="10" stroke-width="1"/>
        <path id="Path_924012" data-name="Path 924012" d="M59.926,145.449q4.275,2.925,8.783,5.441" transform="translate(-22.967 -50.573)" fill="none" stroke="#c69f67" stroke-miterlimit="10" stroke-width="1"/>
        <path id="Path_924013" data-name="Path 924013" d="M52.317,102.874l8.371,1.84a2.076,2.076,0,0,0,1.4-.02,2.3,2.3,0,0,0,.84-1.008A108.623,108.623,0,0,1,69.77,92.85a2.326,2.326,0,0,0,.4-.729,2.234,2.234,0,0,0-.024-.976c-.335-1.831-.961-3.652-.784-5.507.166-1.739,1.032-3.481.557-5.155-.463-1.63-2.024-2.577-3.452-3.362" transform="translate(-20.051 -26.815)" fill="none" stroke="#c69f67" stroke-miterlimit="10" stroke-width="1"/>
        <path id="Path_924014" data-name="Path 924014" d="M54.755,114.962a20.519,20.519,0,0,0-1.08,3.189" transform="translate(-20.571 -39.972)" fill="none" stroke="#c69f67" stroke-miterlimit="10" stroke-width="1"/>
        <path id="Path_924015" data-name="Path 924015" d="M61.168,116.523a5.492,5.492,0,0,0-.519,2.274" transform="translate(-23.244 -40.515)" fill="none" stroke="#c69f67" stroke-miterlimit="10" stroke-width="1"/>
        <path id="Path_924016" data-name="Path 924016" d="M65.17,117.328q.112,1.7.225,3.4" transform="translate(-24.976 -40.795)" fill="none" stroke="#c69f67" stroke-miterlimit="10" stroke-width="1"/>
        <path id="Path_924017" data-name="Path 924017" d="M69.166,114.708a5.157,5.157,0,0,1,2.053,1.674" transform="translate(-26.508 -39.884)" fill="none" stroke="#c69f67" stroke-miterlimit="10" stroke-width="1"/>
        <path id="Path_924018" data-name="Path 924018" d="M72.656,110.114l2.9,1.568" transform="translate(-27.845 -38.287)" fill="none" stroke="#c69f67" stroke-miterlimit="10" stroke-width="1"/>
        <path id="Path_924019" data-name="Path 924019" d="M76.551,105.287a6.8,6.8,0,0,0,2.637.162" transform="translate(-29.338 -36.608)" fill="none" stroke="#c69f67" stroke-miterlimit="10" stroke-width="1"/>
        <path id="Path_924020" data-name="Path 924020" d="M79.136,96.656a5.8,5.8,0,0,1,2.389-.2" transform="translate(-30.329 -33.522)" fill="none" stroke="#c69f67" stroke-miterlimit="10" stroke-width="1"/>
        <path id="Path_924021" data-name="Path 924021" d="M78.775,89.434a13.343,13.343,0,0,1,3.1.667" transform="translate(-30.191 -31.096)" fill="none" stroke="#c69f67" stroke-miterlimit="10" stroke-width="1"/>
        <path id="Path_924022" data-name="Path 924022" d="M79.442,84.948a9.535,9.535,0,0,1,2.281-.258" transform="translate(-30.446 -29.447)" fill="none" stroke="#c69f67" stroke-miterlimit="10" stroke-width="1"/>
        <path id="Path_924023" data-name="Path 924023" d="M78.842,80.76a10.764,10.764,0,0,1,2.729-.9" transform="translate(-30.216 -27.767)" fill="none" stroke="#c69f67" stroke-miterlimit="10" stroke-width="1"/>
        <path id="Path_924024" data-name="Path 924024" d="M75.542,78.27l2.174-1.409" transform="translate(-28.951 -26.725)" fill="none" stroke="#c69f67" stroke-miterlimit="10" stroke-width="1"/>
        <path id="Path_924025" data-name="Path 924025" d="M110.006,173.072q-1.925-.639-3.812-1.4a5.376,5.376,0,0,1-2.738-1.892,5.8,5.8,0,0,1-.637-2.922c-.1-3.409.231-6.972,1.916-9.88a3.91,3.91,0,0,1,1.1-1.31,4.391,4.391,0,0,1,1.561-.567c3.034-.682,6.356-1.327,9.111.18" transform="translate(-39.4 -53.672)" fill="none" stroke="#c69f67" stroke-miterlimit="10" stroke-width="1"/>
        <path id="Path_924026" data-name="Path 924026" d="M110.538,182.479q.853-1.291,1.67-2.606" transform="translate(-42.364 -62.542)" fill="none" stroke="#c69f67" stroke-miterlimit="10" stroke-width="1"/>
        <path id="Path_924027" data-name="Path 924027" d="M105.843,180.633a24.208,24.208,0,0,1,2.145-2.021" transform="translate(-40.564 -62.104)" fill="none" stroke="#c69f67" stroke-miterlimit="10" stroke-width="1"/>
        <path id="Path_924028" data-name="Path 924028" d="M100.162,176.849a6.118,6.118,0,0,0,2.815-.946" transform="translate(-38.387 -61.162)" fill="none" stroke="#c69f67" stroke-miterlimit="10" stroke-width="1"/>
        <path id="Path_924029" data-name="Path 924029" d="M100.879,170.089a5.349,5.349,0,0,0,2.226-.054" transform="translate(-38.662 -59.121)" fill="none" stroke="#c69f67" stroke-miterlimit="10" stroke-width="1"/>
        <path id="Path_924030" data-name="Path 924030" d="M102.642,162.09l2.061.564" transform="translate(-39.338 -56.359)" fill="none" stroke="#c69f67" stroke-miterlimit="10" stroke-width="1"/>
        <path id="Path_924031" data-name="Path 924031" d="M106.917,153.691a8.263,8.263,0,0,1,2.09,2.232" transform="translate(-40.976 -53.439)" fill="none" stroke="#c69f67" stroke-miterlimit="10" stroke-width="1"/>
        <path id="Path_924032" data-name="Path 924032" d="M114.415,152.539a5.676,5.676,0,0,0,.818,2.006" transform="translate(-43.85 -53.038)" fill="none" stroke="#c69f67" stroke-miterlimit="10" stroke-width="1"/>
        <path id="Path_924033" data-name="Path 924033" d="M119.5,152.311q.226,1.236.452,2.471" transform="translate(-45.799 -52.959)" fill="none" stroke="#c69f67" stroke-miterlimit="10" stroke-width="1"/>
        <path id="Path_924034" data-name="Path 924034" d="M122.823,153.183a6.622,6.622,0,0,1,.2,3.017" transform="translate(-47.072 -53.262)" fill="none" stroke="#c69f67" stroke-miterlimit="10" stroke-width="1"/>
        <path id="Path_924035" data-name="Path 924035" d="M362.583,309.294l.587,22.6h-38.8a7.711,7.711,0,0,1,5.3-6.19,14.553,14.553,0,0,0,8.308-7.464c.656-1.262,1.227-9.935,1.227-9.935" transform="translate(-124.316 -107.197)" fill="#704532"/>
        <line id="Line_3360" data-name="Line 3360" x1="37.434" transform="translate(200.833 222.312)" fill="none" stroke="#000" stroke-miterlimit="10" stroke-width="1"/>
        <line id="Line_3361" data-name="Line 3361" x2="3.861" y2="2.635" transform="translate(211.283 214.605)" fill="none" stroke="#000" stroke-miterlimit="10" stroke-width="1"/>
        <line id="Line_3362" data-name="Line 3362" x2="4.148" y2="2.733" transform="translate(209.515 216.432)" fill="none" stroke="#000" stroke-miterlimit="10" stroke-width="1"/>
        <path id="Path_924036" data-name="Path 924036" d="M357.151,145.375s-4.332,21.881-7,34.972a141.186,141.186,0,0,0-3.4,29.078c-.46,15.591-1.464,50.594-1.464,50.594l26.8.632,1.738-51.226L386.575,169.7s6.063-8.775,4.426-19.707" transform="translate(-132.329 -50.547)" fill="#3a1b1a"/>
        <path id="Path_924037" data-name="Path 924037" d="M430.1,299.914l5.337,21.916-37.854,8.825a7.863,7.863,0,0,1,3.869-7.247,14.894,14.894,0,0,0,6.533-9.173c.374-1.38-.9-9.974-.9-9.974" transform="translate(-152.363 -104.281)" fill="#704532"/>
        <line id="Line_3363" data-name="Line 3363" x1="36.525" y2="8.515" transform="translate(245.473 215.358)" fill="none" stroke="#000" stroke-miterlimit="10" stroke-width="1"/>
        <line id="Line_3364" data-name="Line 3364" x2="4.323" y2="1.693" transform="translate(254.044 213.976)" fill="none" stroke="#000" stroke-miterlimit="10" stroke-width="1"/>
        <line id="Line_3365" data-name="Line 3365" x2="4.624" y2="1.723" transform="translate(252.704 216.161)" fill="none" stroke="#000" stroke-miterlimit="10" stroke-width="1"/>
        <path id="Path_924038" data-name="Path 924038" d="M398.407,146.472l-1.33,16.05s-1.935,18.126-3,28.478-1.09,15.683,1.423,26.36c3.686,15.655,10.178,41.7,10.178,41.7l25.022-5.308-10.442-52.594,5.1-36.443s6.178-12.137,4.05-24.237" transform="translate(-150.769 -48.843)" fill="#3a1b1a"/>
        <path id="Path_924039" data-name="Path 924039" d="M396.539,147.6l.369,11.938s-1.766,23.588-2.83,33.939a81.364,81.364,0,0,0-.555,14.384" transform="translate(-150.769 -51.321)" fill="none" stroke="#000" stroke-miterlimit="10" stroke-width="1"/>
        <path id="Path_924040" data-name="Path 924040" d="M421.469,161.968a23.779,23.779,0,0,0,8.908,11.263" transform="translate(-161.528 -56.317)" fill="none" stroke="#000" stroke-miterlimit="10" stroke-width="1"/>
        <path id="Path_924041" data-name="Path 924041" d="M359.118,165.684a14.511,14.511,0,0,0,6.862-2.87,30.3,30.3,0,0,0,5.393-5.349" transform="translate(-137.632 -54.75)" fill="none" stroke="#000" stroke-miterlimit="10" stroke-width="1"/>
        <line id="Line_3366" data-name="Line 3366" y1="5.61" x2="25.413" transform="translate(253.079 197.652)" fill="none" stroke="#000" stroke-miterlimit="10" stroke-width="1"/>
        <path id="Path_924042" data-name="Path 924042" d="M435.382,234.144a49.777,49.777,0,0,0-2.438,7.564" transform="translate(-165.926 -81.412)" fill="none" stroke="#000" stroke-miterlimit="10" stroke-width="1"/>
        <path id="Path_924043" data-name="Path 924043" d="M391.681,158.146a34.977,34.977,0,0,0,1.2,8.943,1.272,1.272,0,0,0,.184.446,1,1,0,0,0,.491.3,13.184,13.184,0,0,0,2.307.6" transform="translate(-150.112 -54.988)" fill="none" stroke="#000" stroke-miterlimit="10" stroke-width="1"/>
        <line id="Line_3367" data-name="Line 3367" x2="25.936" y2="0.962" transform="translate(213.663 203.447)" fill="none" stroke="#000" stroke-miterlimit="10" stroke-width="1"/>
        <path id="Path_924044" data-name="Path 924044" d="M273.423,73.494a28.146,28.146,0,0,0-5.418-4.263,23.613,23.613,0,0,0-2.7-1.221,41.308,41.308,0,0,1-6-2.659,10.953,10.953,0,0,1-4.539-4.73,25.357,25.357,0,0,1-1.275-4.9,2.582,2.582,0,0,1,0-1.769c.283-.528,1.362-.04,1.362-.04a25.035,25.035,0,0,1-.727-2.447c-.041-.436.232-.943.653-.95a2.715,2.715,0,0,1,1.1.5s-.288-1.47.156-1.967a.989.989,0,0,1,1.246-.074,4.315,4.315,0,0,1,.878,1.052s-.239-.77.233-1,1.306.552,1.842,1.057a12.123,12.123,0,0,0,3.442,2.181c.63.279,1.279.494,1.916.751.261.106.456.256.7.382.22.114.855.131,1,.3q-.507-.6-1.007-1.205a3.061,3.061,0,0,1-.922-1.942c.009-.232.028-.537.229-.635.609-.3,2.359.637,3.1,1.091a16.04,16.04,0,0,0,3.325,1.032,10.137,10.137,0,0,1,2.45,1.438c1.538,1.1,3.653,3.53,4.569,4.256,2.226,1.764,5.707,3.964,5.707,3.964" transform="translate(-97.087 -16.963)" fill="#ce8d57"/>
        <path id="Path_924045" data-name="Path 924045" d="M255.9,56.914a19.388,19.388,0,0,1,1.641,3.1,5.286,5.286,0,0,0,2.266,2.558,5.413,5.413,0,0,0,1.419.383c3.539.584,6.955-.569,10.094,1.834" transform="translate(-98.075 -19.789)" fill="none" stroke="#000" stroke-miterlimit="10" stroke-width="1"/>
        <path id="Path_924046" data-name="Path 924046" d="M257.533,52.6q.869,1.443,1.745,2.881a9.442,9.442,0,0,0,1.155,1.622,9.1,9.1,0,0,0,3.556,1.993" transform="translate(-98.7 -18.289)" fill="none" stroke="#000" stroke-miterlimit="10" stroke-width="1"/>
        <path id="Path_924047" data-name="Path 924047" d="M260.611,50.435c1.574,2.492,3.43,5.006,6.1,6.1" transform="translate(-99.879 -17.536)" fill="none" stroke="#000" stroke-miterlimit="10" stroke-width="1"/>
        <path id="Path_924048" data-name="Path 924048" d="M275.207,56a21.2,21.2,0,0,1,3.745.824" transform="translate(-105.473 -19.472)" fill="none" stroke="#000" stroke-miterlimit="10" stroke-width="1"/>
        <path id="Path_924049" data-name="Path 924049" d="M436.43,154.3a24.278,24.278,0,0,0-2.18,5.837,53.807,53.807,0,0,0-1.071,6.241,10.279,10.279,0,0,1-.48,2.574.908.908,0,0,0-.092.678.655.655,0,0,0,.529.323,2.011,2.011,0,0,0,1.878-.772,6.115,6.115,0,0,0-.4.84c-.453.888-.884,1.8-1.384,2.66a20.006,20.006,0,0,0-1.112,2.108,8.609,8.609,0,0,0-.387,1.065,2.25,2.25,0,0,0,.064,1.55c.153.306.772.014,1.049-.175a3.438,3.438,0,0,0,.023,1.436c.248.558.633.871,1.113.511.26-.194.928-.755.928-.755a3.354,3.354,0,0,0,.973.4,7.215,7.215,0,0,0,2.784-1.3c.913-.6,1.892-1.053,2.8-1.646a17.468,17.468,0,0,0,5.159-5.371,30.836,30.836,0,0,0,3.588-8.793" transform="translate(-165.421 -53.651)" fill="#ce8d57"/>
        <path id="Path_924050" data-name="Path 924050" d="M436.813,174.783a11.527,11.527,0,0,0-.226-4.719" transform="translate(-167.322 -59.132)" fill="none" stroke="#000" stroke-miterlimit="10" stroke-width="1"/>
        <path id="Path_924051" data-name="Path 924051" d="M433.387,185.05a24.058,24.058,0,0,0,5.654-8.147" transform="translate(-166.096 -61.509)" fill="none" stroke="#000" stroke-miterlimit="10" stroke-width="1"/>
        <path id="Path_924052" data-name="Path 924052" d="M436.757,186.633s1.224-1,1.887-1.551c2.085-1.748,3.277-4,4.469-6.71" transform="translate(-167.387 -62.02)" fill="none" stroke="#000" stroke-miterlimit="10" stroke-width="1"/>
        <path id="Path_924053" data-name="Path 924053" d="M447.595,179.431a20.443,20.443,0,0,1-2.281,3.453,58.582,58.582,0,0,1-4.705,4.26" transform="translate(-168.863 -62.388)" fill="none" stroke="#000" stroke-miterlimit="10" stroke-width="1"/>
        <path id="Path_924054" data-name="Path 924054" d="M345.14,48.334c-4.273.391-12.771,3.291-18.66,7.066-4.4,2.821-16.94,13.119-16.94,13.119l-18.7-10.09L281.208,73.17s16.116,19.14,30.424,20.02c11,.676,20.674-10.788,25.865-21.149" transform="translate(-107.773 -16.806)" fill="#66322d"/>
        <path id="Path_924055" data-name="Path 924055" d="M407.936,49.217l-15.081-5.533L372.665,47l-9.052,3.768s-4.177,18.245-3.415,25.862-1.744,27.417-1.858,30.836-.37,4.614-.385,7.783a9.28,9.28,0,0,0,.942,4.685s7.669,4.58,25.17,3.272c19.485-1.457,31.906-7.314,31.906-7.314s-.493-8.191-.194-10.649a39.514,39.514,0,0,0-.448-9.854c-.534-2.62-4.568-35.452-4.568-35.452Z" transform="translate(-137.186 -15.189)" fill="#66322d"/>
        <path id="Path_924056" data-name="Path 924056" d="M406.223,115.957a8.9,8.9,0,0,1-3.642-.9,6.648,6.648,0,0,1-2.349-2.4c-1.509-2.5-1.8-5.558-2.022-8.5q-.7-9.283-.982-18.592a155.634,155.634,0,0,1,.16-15.822,47.78,47.78,0,0,1,1-8.777,10.465,10.465,0,0,1,4.777-6.436,20.467,20.467,0,0,0,7.751-9.813,55.133,55.133,0,0,1,12.029,4.858,10.77,10.77,0,0,0-2.1,4.981,52.052,52.052,0,0,0-.134,20.668,15.522,15.522,0,0,0,1.536,4.742,6.1,6.1,0,0,0,3.677,3.052,3.8,3.8,0,0,0,4.2-1.714c-.335.62.21,2.824.269,3.562q.153,1.917.321,3.832.336,3.832.736,7.656c.424,4.049,3.087,9.049.4,12.805-2.32,3.246-7.331,4.789-10.9,5.661a45.551,45.551,0,0,1-14.722,1.136" transform="translate(-152.19 -15.549)" fill="#d2653e"/>
        <path id="Path_924057" data-name="Path 924057" d="M414.81,46.3a31.122,31.122,0,0,1-5.756,7.933c-2.6,2.762-5.35,4.607-6.458,8.559-.673,2.4-.514,4.862-.606,7.334q-.155,4.179-.165,8.362c-.015,6.017.1,12.044.678,18.035.373,3.892.08,9.7,1.284,13.446,1.612,5.017,5.543,4.143,9.814,4.1a41.7,41.7,0,0,0,8.345-.9c4.811-1.03,10.654-3.16,12.87-8.156" transform="translate(-153.999 -16.099)" fill="none" stroke="#e49134" stroke-linecap="round" stroke-miterlimit="10" stroke-width="2"/>
        <path id="Path_924058" data-name="Path 924058" d="M374.468,58.2c-2.246-2.575-4.424-5.719-3.908-9.56a30.359,30.359,0,0,0-9.012,2.927,212.869,212.869,0,0,0-4.531,26.984q-1.1,11.559-2.2,23.121c-.451,4.745-.865,9.743,1.008,14.1a3.2,3.2,0,0,0,.777,1.2,3.282,3.282,0,0,0,1.668.61,52.291,52.291,0,0,0,10.087.651,8.525,8.525,0,0,0,4.968-1.3c2.35-1.78,2.5-4.942,2.391-7.7-.14-3.456-.342-6.905-.453-10.365-.274-8.544-.154-17.1.257-25.639.239-4.988,1.019-12.648-1.057-15.028" transform="translate(-135.839 -16.912)" fill="#d2653e"/>
        <path id="Path_924059" data-name="Path 924059" d="M369.106,49.387a13.912,13.912,0,0,0,2.624,9.983,11.1,11.1,0,0,1,1.733,2.59,7.7,7.7,0,0,1,.364,2.6c.144,7.723-.431,15.6-.744,23.379-.157,3.915-.22,7.836-.1,11.753s.939,8.023.173,11.9c-.442,2.235-.429,3.454-2.542,4.03-3.812,1.04-10.449-.329-14.314-.912" transform="translate(-136.553 -17.172)" fill="none" stroke="#e49134" stroke-linecap="round" stroke-miterlimit="10" stroke-width="2"/>
        <path id="Path_924060" data-name="Path 924060" d="M355.511,123.263c3.247,1.174,6.781,1,10.214.82l4.8-.258" transform="translate(-136.25 -42.859)" fill="none" stroke="#000" stroke-miterlimit="10" stroke-width="1"/>
        <path id="Path_924061" data-name="Path 924061" d="M406.624,122.766c3.772,1.4,7.9,1.166,11.9.916A87.731,87.731,0,0,0,434.47,121.7" transform="translate(-155.839 -42.315)" fill="none" stroke="#000" stroke-miterlimit="10" stroke-width="1"/>
        <path id="Path_924062" data-name="Path 924062" d="M360.144,87.194a4.134,4.134,0,0,0,2.513.875,49.142,49.142,0,0,0,8.478.152" transform="translate(-138.025 -30.317)" fill="none" stroke="#000" stroke-miterlimit="10" stroke-width="1"/>
        <path id="Path_924063" data-name="Path 924063" d="M404.836,88.176a40.793,40.793,0,0,0,17.141.01" transform="translate(-155.154 -30.659)" fill="none" stroke="#000" stroke-miterlimit="10" stroke-width="1"/>
        <path id="Path_924064" data-name="Path 924064" d="M437.275,79.382l5,13.837-5.994,30.161,15.738,6.061s10.5-21.136,10.178-33.675c-.553-21.435-15.678-37.318-17.663-39.05a67.993,67.993,0,0,0-6.58-4.55" transform="translate(-167.205 -18.138)" fill="#66322d"/>
        <path id="Path_924065" data-name="Path 924065" d="M437.275,93.89l5,13.837-5.994,30.161" transform="translate(-167.205 -32.646)" fill="none" stroke="#000" stroke-miterlimit="10" stroke-width="1"/>
        <path id="Path_924066" data-name="Path 924066" d="M326.8,79.51a30.617,30.617,0,0,1,6.254,5.1" transform="translate(-125.247 -27.646)" fill="none" stroke="#000" stroke-miterlimit="10" stroke-width="1"/>
        <path id="Path_924067" data-name="Path 924067" d="M381.45,49.29a7.258,7.258,0,0,0,4.035,3.5,11.766,11.766,0,0,0,5.315.527A18.934,18.934,0,0,0,403.976,45.6" transform="translate(-146.191 -15.856)" fill="none" stroke="#000" stroke-miterlimit="10" stroke-width="1"/>
        <line id="Line_3368" data-name="Line 3368" y1="17.365" x2="10.439" transform="translate(179.573 45.368)" fill="none" stroke="#000" stroke-miterlimit="10" stroke-width="1"/>
        <line id="Line_3369" data-name="Line 3369" x2="17.772" y2="5.263" transform="translate(270.406 98.551)" fill="none" stroke="#000" stroke-miterlimit="10" stroke-width="1"/>
        <path id="Path_924068" data-name="Path 924068" d="M385.091,37.25l-.323,5.779s1.887,2.626,7.134,1.459,11.229-5.6,11.229-5.6l-3.2-9Z" transform="translate(-147.462 -10.394)" fill="#ce8d57"/>
        <path id="Path_924069" data-name="Path 924069" d="M376.633,24.634a9.894,9.894,0,0,0,.829,4.963c1.226,2.195,3.886,3.055,6.328,3.151,4.993.2,10.353-2.534,12.066-7.409a17,17,0,0,0,.726-5.832,17.535,17.535,0,0,0-.825-5.787,10.022,10.022,0,0,0-9.883-6.531c-9.228.745-9.163,10.3-9.241,17.445" transform="translate(-144.343 -2.49)" fill="#ce8d57"/>
        <path id="Path_924070" data-name="Path 924070" d="M397.626,24.22a1.35,1.35,0,0,0,1.334-.468,3.646,3.646,0,0,0,.683-1.352,15.009,15.009,0,0,0-.324-10.352A11.7,11.7,0,0,0,391.9,5.293,14.3,14.3,0,0,0,387.43,4.9a10.747,10.747,0,0,0-7.44,3.166,11.284,11.284,0,0,0-2.909,3.993,1.886,1.886,0,0,0-.053,1.4,1.475,1.475,0,0,0,1.293.749,8.087,8.087,0,0,0,1.541-.188,1.846,1.846,0,0,1,.628-.006,2.62,2.62,0,0,1,.691.3,5.667,5.667,0,0,0,4.365.549,1.681,1.681,0,0,1,.638-.134,1.631,1.631,0,0,1,.451.134,5.894,5.894,0,0,0,6.035-1.16,10.941,10.941,0,0,0,.582,2c.327.666.8,1.242,1.183,1.871A19.554,19.554,0,0,1,396,21.212c.307.85.675,2.723,1.63,3.008" transform="translate(-144.453 -1.695)" fill="#211917"/>
        <path id="Path_924071" data-name="Path 924071" d="M404.064,24.461a3.034,3.034,0,0,1,1.856-1.679c2.188-.45,3.741,1.97,3.728,3.925a4.035,4.035,0,0,1-1.81,3.4c-1.626.981-3.7.846-4.285-1.087" transform="translate(-154.662 -7.902)" fill="#ce8d57"/>
        <path id="Path_924072" data-name="Path 924072" d="M408.246,26.676Q406.1,27.809,404,29.022" transform="translate(-154.832 -9.275)" fill="none" stroke="#000" stroke-miterlimit="10" stroke-width="1"/>
        <path id="Path_924073" data-name="Path 924073" d="M405.563,23.082a3.046,3.046,0,0,0-1.418,2.039" transform="translate(-154.888 -8.026)" fill="none" stroke="#000" stroke-miterlimit="10" stroke-width="1"/>
        <path id="Path_924074" data-name="Path 924074" d="M406.671,34.232a2.349,2.349,0,0,1-3.32-1.693" transform="translate(-154.584 -11.314)" fill="none" stroke="#000" stroke-miterlimit="10" stroke-width="1"/>
        <path id="Path_924075" data-name="Path 924075" d="M372.191,12.092a51.282,51.282,0,0,0-5.023,1.387,6.852,6.852,0,0,0-2.287,1.182c-.559.532-.675,1.323,0,1.731a3.442,3.442,0,0,0,1.429.338c1.026.085,2.068.105,3.108.124,3.227.06,6.458.12,9.7.021a15.5,15.5,0,0,0,3.35-.367,8.687,8.687,0,0,0,3.279-1.675,17.521,17.521,0,0,0,2.279-2.332Z" transform="translate(-139.663 -4.204)" fill="#d2653e"/>
        <path id="Path_924076" data-name="Path 924076" d="M377.071,8.324a9.313,9.313,0,0,1,5.324-7c4.229-1.849,10.3-1.976,13.783,1.04,2.9,2.509,3.922,6.762,4.056,10.89,0,0-5.157-3.752-7.977-4.192s-15.186-.734-15.186-.734" transform="translate(-144.513 0)" fill="#d2653e"/>
        <path id="Path_924077" data-name="Path 924077" d="M380.9,11.14a34.3,34.3,0,0,1,12.986,1.514" transform="translate(-145.981 -3.829)" fill="none" stroke="#000" stroke-miterlimit="10" stroke-width="1"/>
        <path id="Path_924078" data-name="Path 924078" d="M384.773,44.412a16.827,16.827,0,0,0,5.7-.341,10.341,10.341,0,0,0,4.972-2.808" transform="translate(-147.464 -14.347)" fill="none" stroke="#000" stroke-miterlimit="10" stroke-width="1"/>
        <path id="Path_924079" data-name="Path 924079" d="M383.827,29.868c-.456-.067-.925,0-1.375-.1-1.241-.277-.907-1.63-.683-2.577a20.445,20.445,0,0,0,.762-3.486c.022-.369-.16-.469-.268-.772" transform="translate(-146.23 -7.973)" fill="none" stroke="#000" stroke-miterlimit="10" stroke-width="1"/>
        <path id="Path_924080" data-name="Path 924080" d="M383.071,36.132a4.016,4.016,0,0,0,1.942-.032,2.582,2.582,0,0,0,1.536-1.183" transform="translate(-146.812 -12.141)" fill="none" stroke="#000" stroke-miterlimit="10" stroke-width="1"/>
        <path id="Path_924081" data-name="Path 924081" d="M391.1,25.519c.041.584-.236,1.08-.618,1.108s-.724-.421-.764-1,.236-1.08.618-1.109.723.421.764,1.005" transform="translate(-149.359 -8.523)"/>
        <path id="Path_924082" data-name="Path 924082" d="M378.978,25.908c.04.584-.237,1.08-.619,1.108s-.724-.421-.764-1.005.237-1.08.617-1.108.724.421.765,1.005" transform="translate(-144.712 -8.658)"/>
        <path id="Path_924083" data-name="Path 924083" d="M388.3,21.689a13.4,13.4,0,0,1,2.576.215,4.656,4.656,0,0,1,2.3,1.153" transform="translate(-148.815 -7.541)" fill="none" stroke="#000" stroke-miterlimit="10" stroke-width="1"/>
        <path id="Path_924084" data-name="Path 924084" d="M376.7,21.9a6.6,6.6,0,0,1,3.195-.6" transform="translate(-144.369 -7.401)" fill="none" stroke="#000" stroke-miterlimit="10" stroke-width="1"/>
      </g>
    </g>
  </g>
</svg>
