<svg xmlns="http://www.w3.org/2000/svg" xmlns:xlink="http://www.w3.org/1999/xlink" width="107.004" height="102.673" viewBox="0 0 107.004 102.673">
  <defs>
    <clipPath id="clip-path">
      <rect id="Rectangle_401492" data-name="Rectangle 401492" width="59.93" height="59.93" transform="translate(0.975 -0.036)" fill="#fff0ee" stroke="#707070" stroke-width="1"/>
    </clipPath>
    <clipPath id="clip-path-2">
      <rect id="Rectangle_408932" data-name="Rectangle 408932" width="61.264" height="55.324" fill="#fff0ee"/>
    </clipPath>
    <clipPath id="clip-path-3">
      <rect id="Rectangle_407253" data-name="Rectangle 407253" width="19" height="18.533" fill="#eebc32"/>
    </clipPath>
    <clipPath id="clip-path-4">
      <rect id="Rectangle_407253-2" data-name="Rectangle 407253" width="11.91" height="11.617" fill="#eebc32"/>
    </clipPath>
  </defs>
  <g id="Group_1119134" data-name="Group 1119134" transform="translate(-285 -2182.299)">
    <path id="Path_920872" data-name="Path 920872" d="M0,0H107V102.673H0Z" transform="translate(285 2182.299)" fill="#f69a8b"/>
    <g id="Group_1118646" data-name="Group 1118646" transform="translate(296 2191.271)">
      <g id="Group_1118062" data-name="Group 1118062" transform="translate(0 -0.001)">
        <circle id="Ellipse_11771" data-name="Ellipse 11771" cx="42.5" cy="42.5" r="42.5" fill="#953c2d"/>
        <g id="Group_1118061" data-name="Group 1118061" transform="translate(12.736 11.766)">
          <rect id="Rectangle_401104" data-name="Rectangle 401104" width="55.839" height="56.739" transform="translate(2.046)" fill="none"/>
          <g id="Group_1098697" data-name="Group 1098697" transform="translate(0 0)" clip-path="url(#clip-path)">
            <g id="Group_1119039" data-name="Group 1119039" transform="translate(-0.025 1.964)">
              <g id="Group_1119038" data-name="Group 1119038" clip-path="url(#clip-path-2)">
                <path id="Path_923447" data-name="Path 923447" d="M29.659,156.488l3.506-11.857a5.665,5.665,0,0,1,5.109-3.494c.277-.188.123-1,.205-1.375a4.72,4.72,0,0,1,7.6-2.591c2.43,2.041,2.225,5.21.084,7.376,2.828,1.093,6.85,3.065,3.689,6.41a5.557,5.557,0,0,1,1.552,2.132c1.382,2.768,2.406,5.9,3.7,8.728a4.381,4.381,0,0,1,4.077,3.953c1.3-.2,2.895.4,1.616,1.749H.456c-1.533-1.906,1.185-1.829,2.516-1.728,0-.39-.17-.737-.183-1.132a150.059,150.059,0,0,1,0-15.992c.246-2.723,2.237-3.282,4.657-3.062a3.143,3.143,0,0,1,2.374,1.138,7.647,7.647,0,0,1,.526.878v3.95l2.808-.177c-.334-1.372.216-3.2.614-4.565.735-2.522,1.667-3.492,4.478-2.982a2.784,2.784,0,0,1,2.715-2.993,40.714,40.714,0,0,1,6.464.047,3.584,3.584,0,0,1,1.609,1.024c.654.882,1.208,3.782-.452,3.586-1.49-.176-.189-2.4-1.548-2.815a33.13,33.13,0,0,0-5.546-.086c-.426.036-1.038.082-1.3.459-.5.723-.022,3.465-.189,4.463h3.248c.909,0,2.546,1.472,2.546,2.37v12.027h1.931V148.5c0-1.253,1.931-1.072,1.931-.176Zm12.768-18.57a2.954,2.954,0,0,0-2.2,3.355l4.2,2.144a2.95,2.95,0,0,0-2-5.5M40,148.258c-1.574-.225-2.492-2.052-.433-2.124L47.6,149.7a1.067,1.067,0,0,0,1.108-1.816,40.859,40.859,0,0,0-5.354-2.9c-2.99-1.5-6.289-3.808-8.515.269L31.416,157.54l6.977-3.555ZM18.247,151.4v-5c0-.85-1.9-1.09-2.294-.494a37.474,37.474,0,0,0-1.16,4.386c-.01.4.335,1.112.733,1.112ZM4.728,149.465H8.591c-.017-.444.117-1.511-.292-1.77-.448-.283-3.229-.334-3.483.189Zm40.029.881-2.991-1.159-1.046,3.438,3.811-1.888ZM21.934,161.931l1.819-.025.288-.414c-.283-3.395.379-7.39,0-10.71-.035-.3-.3-1.317-.614-1.317H20l.028,1.991c.568.31,1.9,1.49,1.9,2.135ZM8.591,151.221H4.728v13.958c0,.88,3.863.88,3.863,0Zm44.595,10.71L49.4,153.163a2.963,2.963,0,0,0-3.273-1.193c-4.2,2.162-8.461,4.265-12.608,6.533-.9.495-3,1.337-3.146,2.3a4.111,4.111,0,0,0,3.718,4.961l12.7-10.5c.832-.288,1.875,2.211,1.976,2.766a.922.922,0,0,1-1.376,1.014c-.459-.224-.587-1.468-.962-1.319l-9.4,8.075H50.2c.053-.946-2.289-3.935-1.287-4.578,1.138-.731,1.612.715,1.726.715ZM20.178,160v-5.882c0-.366-.758-.894-1.152-.955a48,48,0,0,0-7.2-.019c-.5.045-1.484.4-1.484.974V160h2.108c-.187-2.7.092-3.986,3.079-3.871,2.772.107,2.619,1.516,2.538,3.871Zm-3.863-1.931H14.209v3.863h2.107Zm-5.969,3.863v2.9c0,.711.744.922,1.309.974a50.462,50.462,0,0,0,7.547-.019c.347-.055.977-.435.977-.779v-3.072l-2.09.017c-.048,2.658-5.556,2.66-5.654,0Zm17.381,1.931H21.934l-.176,1.931h5.969Zm29.5,1.931c.2-.576-.869-1.931-1.317-1.931H51.43c.186.592,1,1.931,1.668,1.931Z" transform="translate(0 -112.195)" fill="#fff0ee"/>
                <path id="Path_923448" data-name="Path 923448" d="M125.015,0H111.438a5.2,5.2,0,0,0-5.189,5.189V18.61a5.2,5.2,0,0,0,5.189,5.189h13.577A5.2,5.2,0,0,0,130.2,18.61V5.189A5.2,5.2,0,0,0,125.015,0M128.1,18.61a3.086,3.086,0,0,1-3.082,3.082H111.438a3.086,3.086,0,0,1-3.082-3.082V5.189a3.086,3.086,0,0,1,3.082-3.082h13.577A3.086,3.086,0,0,1,128.1,5.189Z" transform="translate(-87.595)" fill="#fff0ee"/>
                <path id="Path_923449" data-name="Path 923449" d="M143.716,35.534l4.444-4.444a1.053,1.053,0,1,0-1.49-1.49l-4.444,4.444-5.069-5.069a1.053,1.053,0,1,0-1.49,1.49l5.068,5.069-4.444,4.444a1.053,1.053,0,1,0,1.49,1.49l4.444-4.444,5.068,5.069a1.053,1.053,0,0,0,1.49-1.49Z" transform="translate(-111.595 -23.634)" fill="#fff0ee"/>
              </g>
            </g>
          </g>
        </g>
      </g>
      <g id="Group_1118063" data-name="Group 1118063" transform="translate(0 66.083)">
        <g id="Group_1116914" data-name="Group 1116914" transform="translate(0 0)" clip-path="url(#clip-path-3)">
          <path id="Path_893319" data-name="Path 893319" d="M19,9.266a9.386,9.386,0,0,1-9.5,9.267A9.386,9.386,0,0,1,0,9.266,9.385,9.385,0,0,1,9.5,0,9.385,9.385,0,0,1,19,9.266" transform="translate(0 0)" fill="#eebc32"/>
        </g>
      </g>
      <g id="Group_1118064" data-name="Group 1118064" transform="translate(73.004 12.999)">
        <g id="Group_1116914-2" data-name="Group 1116914" transform="translate(0 0)" clip-path="url(#clip-path-4)">
          <path id="Path_893319-2" data-name="Path 893319" d="M11.91,5.808a5.884,5.884,0,0,1-5.955,5.809A5.883,5.883,0,0,1,0,5.808,5.883,5.883,0,0,1,5.955,0,5.883,5.883,0,0,1,11.91,5.808" transform="translate(0 0)" fill="#eebc32"/>
        </g>
      </g>
    </g>
  </g>
</svg>
