<svg xmlns="http://www.w3.org/2000/svg" xmlns:xlink="http://www.w3.org/1999/xlink" width="295" height="309.833" viewBox="0 0 295 309.833">
  <defs>
    <clipPath id="clip-path">
      <rect id="Rectangle_407647" data-name="Rectangle 407647" width="289.429" height="281.317" transform="translate(0 -38)" fill="none"/>
    </clipPath>
    <clipPath id="clip-path-2">
      <rect id="Rectangle_407646" data-name="Rectangle 407646" width="329.646" height="277.127" fill="none"/>
    </clipPath>
    <clipPath id="clip-path-3">
      <rect id="Rectangle_407645" data-name="Rectangle 407645" width="2.295" height="1.914" fill="none"/>
    </clipPath>
  </defs>
  <g id="Group_1118083" data-name="Group 1118083" transform="translate(-284.903 -3587.167)">
    <path id="Path_893294" data-name="Path 893294" d="M30,0H265c16.569,0,30,11.03,30,24.637V133.863c0,13.607-13.431,24.637-30,24.637H30c-16.569,0-30-11.031-30-24.637V24.637C0,11.03,13.431,0,30,0Z" transform="translate(284.903 3738.5)" fill="#fff0ee"/>
    <g id="Group_1118091" data-name="Group 1118091" transform="translate(287.903 3625.167)">
      <g id="Group_1118090" data-name="Group 1118090" clip-path="url(#clip-path)">
        <g id="Group_1118089" data-name="Group 1118089" transform="translate(0 -33.81)">
          <g id="Group_1118088" data-name="Group 1118088" clip-path="url(#clip-path-2)">
            <path id="Path_893812" data-name="Path 893812" d="M241.315,318.2c-9.894-2.016-.228-5.376-14.194-8.737s-23.168,17.25-26.416,8.065a63.939,63.939,0,0,0-5.508-12.2,7.781,7.781,0,0,0-.454-.692l-.01-.014h0a5.407,5.407,0,0,0-2.392-1.872c-5.359-2.059-7.308-.965-11.449,0s-3.654,1.555-8.525,6.2-1.218,3.925-4.872,2.917a36.467,36.467,0,0,1-7.064-2.917l-2.193-3.636a53.653,53.653,0,0,1-9.256-2.275c-4.745-1.658-2.193,4.291-3.411,6.055s-4.879,3.331-6.462,3.1-12.913.265-15.708-4.7-5.132-.573-8.151,1.605-12.418,1.169-16.692,0-4.628,2.268-11.537-2.887-7.463.115-8.222.115-7.035,7.056-11.664,8.569-6.333-4.032-6.82-5.8-6.09-7.309-12.1-5.8a14.188,14.188,0,0,0-2.968,1.2,26.292,26.292,0,0,0-13.935,22.981l-1.049,62.755H260.954V341.681a23.668,23.668,0,0,0-19.341-23.425c-.1-.017-.2-.036-.3-.057" transform="translate(-14.516 -115.149)" fill="#bca291"/>
            <path id="Path_893813" data-name="Path 893813" d="M14.391,446.691l47.351.2a64.291,64.291,0,0,0,9.688-12.022c1.136-1.876,2.179-4.285,1.064-6.173a4.123,4.123,0,0,0-3.628-1.812,9.822,9.822,0,0,0-4.04,1.167,35.474,35.474,0,0,0-13.508,11.356,64.181,64.181,0,0,0,3.475-24.81,14.47,14.47,0,0,0-1-4.987,5.673,5.673,0,0,0-3.6-3.323,5.5,5.5,0,0,0-4.558,1.177,12.886,12.886,0,0,0-3.063,3.793,38.423,38.423,0,0,0-5.2,20.948c-.8-9.781-1.642-19.754-3.66-29.352s-5.3-19.033-10.692-27.177c-1.439-2.172-3.6-4.488-6.133-3.981a4.766,4.766,0,0,0-3.325,3.4,13.575,13.575,0,0,0-.289,4.988,163.621,163.621,0,0,0,10.906,48.153A36.2,36.2,0,0,0,9.01,414.165c-2.46-1.265-5.752-2.134-7.73-.183-1.736,1.713-1.4,4.6-.771,6.969,2.442,9.18,7.025,19.259,13.881,25.739" transform="translate(0 -175.368)" fill="#446048"/>
            <path id="Path_893814" data-name="Path 893814" d="M38.453,394.2a263.809,263.809,0,0,1,11.921,55.073" transform="translate(-18.445 -186.02)" fill="none" stroke="#587a5c" stroke-miterlimit="10" stroke-width="1.399"/>
            <path id="Path_893815" data-name="Path 893815" d="M10.144,459.376a50.038,50.038,0,0,1,14.73,22.669" transform="translate(-4.866 -216.776)" fill="none" stroke="#587a5c" stroke-miterlimit="10" stroke-width="1.399"/>
            <path id="Path_893816" data-name="Path 893816" d="M90.361,452.8s-4.659,13.675-4.385,24.985" transform="translate(-41.234 -213.673)" fill="none" stroke="#587a5c" stroke-miterlimit="10" stroke-width="1.399"/>
            <path id="Path_893817" data-name="Path 893817" d="M119.08,486.8a35.571,35.571,0,0,0-11.236,11.524" transform="translate(-51.729 -229.718)" fill="none" stroke="#587a5c" stroke-miterlimit="10" stroke-width="1.399"/>
            <path id="Path_893818" data-name="Path 893818" d="M3.692,514.84s4.522-6.189,8.324-6.745,3.905,3.094,9.763,1.425,7.708-2.133,10.072-1.484.684,1.8,6.405.858,10.038-2.482,11.271-.209,6.372,2.295,9.66.73,9.181,1.773,9.934,3.65-63.888,2.713-65.43,1.773" transform="translate(-1.771 -239.488)" fill="#785252"/>
            <path id="Path_893819" data-name="Path 893819" d="M551.869,448.254l-47.351.2a64.307,64.307,0,0,1-9.687-12.022c-1.136-1.876-2.179-4.285-1.064-6.174a4.125,4.125,0,0,1,3.628-1.812,9.829,9.829,0,0,1,4.04,1.167,35.47,35.47,0,0,1,13.507,11.356,64.179,64.179,0,0,1-3.475-24.81,14.483,14.483,0,0,1,1-4.987,5.676,5.676,0,0,1,3.6-3.323,5.5,5.5,0,0,1,4.558,1.177,12.889,12.889,0,0,1,3.063,3.792,38.426,38.426,0,0,1,5.2,20.949c.8-9.781,1.642-19.754,3.66-29.352s5.3-19.033,10.692-27.177c1.439-2.172,3.6-4.488,6.133-3.981a4.766,4.766,0,0,1,3.325,3.4,13.577,13.577,0,0,1,.289,4.989A163.624,163.624,0,0,1,542.081,429.8a36.2,36.2,0,0,1,15.169-14.073c2.46-1.265,5.752-2.133,7.73-.183,1.736,1.712,1.4,4.6.771,6.969-2.442,9.18-7.025,19.258-13.881,25.739" transform="translate(-282.641 -176.105)" fill="#446048"/>
            <path id="Path_893820" data-name="Path 893820" d="M584.085,395.762a263.811,263.811,0,0,0-11.921,55.073" transform="translate(-320.475 -186.757)" fill="none" stroke="#587a5c" stroke-miterlimit="10" stroke-width="1.399"/>
            <path id="Path_893821" data-name="Path 893821" d="M609.806,460.939a50.038,50.038,0,0,0-14.73,22.669" transform="translate(-331.465 -217.514)" fill="none" stroke="#587a5c" stroke-miterlimit="10" stroke-width="1.399"/>
            <path id="Path_893822" data-name="Path 893822" d="M539.115,454.362s4.659,13.675,4.385,24.985" transform="translate(-304.622 -214.41)" fill="none" stroke="#587a5c" stroke-miterlimit="10" stroke-width="1.399"/>
            <path id="Path_893823" data-name="Path 893823" d="M504.09,488.363a35.568,35.568,0,0,1,11.236,11.524" transform="translate(-287.822 -230.455)" fill="none" stroke="#587a5c" stroke-miterlimit="10" stroke-width="1.399"/>
            <path id="Path_893824" data-name="Path 893824" d="M569.515,516.4s-4.522-6.189-8.324-6.745-3.905,3.094-9.763,1.425-7.708-2.133-10.072-1.484-.684,1.8-6.405.858-10.038-2.482-11.271-.209-6.372,2.295-9.661.73-9.181,1.773-9.934,3.65,63.888,2.712,65.43,1.773" transform="translate(-287.817 -240.225)" fill="#785252"/>
            <path id="Path_893825" data-name="Path 893825" d="M177.775,206.495s-1.034,5.92-2.653,7.306-6.195-2.115-8.875,4.438,9.638,6.961,11.812,6.429,2.479-5.27,2.825-6.2,3.493-8.622,3.493-8.622Z" transform="translate(-79.561 -97.443)" fill="#9f5927"/>
            <path id="Path_893826" data-name="Path 893826" d="M132.037,248.332c-18.379-2.3-23.768-3.179-37.222,4.563s-16.036,38.962-14.72,42.225,85.436,11.734,88.46,11.357,9.87-30.368-.04-42.732-26.01-14.106-36.478-15.413" transform="translate(-38.272 -116.424)" fill="#6b4502"/>
            <path id="Path_893827" data-name="Path 893827" d="M211.781,257.064l-4.145,51.5-9.075-.915L203.92,254.4s5.194-1.293,7.86,2.662" transform="translate(-95.243 -119.955)" fill="#243827"/>
            <path id="Path_893828" data-name="Path 893828" d="M121.232,246.855l-8.738,50.906,9.01,1.429,7.995-52.907s-4.708-2.576-8.267.572" transform="translate(-53.96 -115.751)" fill="#88672e"/>
            <path id="Path_893829" data-name="Path 893829" d="M176.64,239.9c0-.121.132-12.173-11.436-13.587a11.154,11.154,0,0,0-8.641,2.136c-3.916,3.128-4.563,8.352-4.588,8.573l2.465.295c.047-.391,1.282-9.636,10.467-8.5,9.314,1.138,9.259,10.628,9.252,11.032Z" transform="translate(-72.897 -106.741)" fill="#243827"/>
            <path id="Path_893830" data-name="Path 893830" d="M179.5,232.329s-1.195,2.865-2.395,2.865a2.054,2.054,0,0,1-1.68-.67,3.388,3.388,0,0,1-2.04.325,1.974,1.974,0,0,1-1.44-1.06,4.52,4.52,0,0,1-2.6,0c-1.28-.441-1.32-.969-1.32-.969s-1.24.116-1.76-.49-.76-1.426.72-3.837,1.6-3.061,2.88-3.02a1.775,1.775,0,0,1,1.52,2.07s1.16-1.258,2.12-.812.48,1.762.48,1.762.96-1.153,1.96-.909.84,2.476.84,2.476.48-1.5,1.72-1.015,1.589,1.049.994,3.285" transform="translate(-79.559 -106.398)" fill="#9f5927"/>
            <path id="Path_893831" data-name="Path 893831" d="M185.495,235.985a18.517,18.517,0,0,1-1.26,3.5" transform="translate(-88.372 -111.36)" fill="none" stroke="#7c310b" stroke-linecap="round" stroke-miterlimit="10" stroke-width="0.817"/>
            <path id="Path_893832" data-name="Path 893832" d="M178.9,234.229a18.526,18.526,0,0,1-1.26,3.5" transform="translate(-85.211 -110.531)" fill="none" stroke="#7c310b" stroke-linecap="round" stroke-miterlimit="10" stroke-width="0.817"/>
            <path id="Path_893833" data-name="Path 893833" d="M171.707,232.559a18.5,18.5,0,0,1-1.453,3.423" transform="translate(-81.665 -109.743)" fill="none" stroke="#7c310b" stroke-linecap="round" stroke-miterlimit="10" stroke-width="0.817"/>
            <path id="Path_893834" data-name="Path 893834" d="M276.178,6.535s14.256-4.078,14.75,9.142S276.422,29.7,276.422,29.7L245.4,33.439a7.356,7.356,0,0,1-6.908-3.069q-.06-.085-.119-.171a10.123,10.123,0,0,1,5.823-15.447Z" transform="translate(-113.501 -2.804)" fill="#6585b8"/>
            <path id="Path_893835" data-name="Path 893835" d="M300.175,139.149s10.815-11.584,11.771-18.924c.97-7.444,1.537-20.51-6.257-26.31-3.006-2.238-9.77-1.754-9.77-1.754s-3.4-44.335-22.925-44.687-22.55,9.652-22.55,9.652,6.628,91.39,14.765,90.366,34.965-8.343,34.965-8.343" transform="translate(-120.13 -22.398)" fill="#1f3443"/>
            <path id="Path_893836" data-name="Path 893836" d="M278.656,35.983s-6.311-14.866-2.39-20.683l-2.758.583s-3.829,10.251,1.136,20.5l5.022.532" transform="translate(-130.517 -7.22)" fill="#1f3443"/>
            <path id="Path_893837" data-name="Path 893837" d="M314.729,25.376c-.1.086.08.591.846,1.094a4.376,4.376,0,0,0,3.744.326,7.427,7.427,0,0,0,4-3.869,8.293,8.293,0,0,0,.873-3.279,6.434,6.434,0,0,0-.933-3.689,5.052,5.052,0,0,0-3.162-2.322,4.378,4.378,0,0,0-3.651.729,4.254,4.254,0,0,0-1.611,2.991,3.843,3.843,0,0,0,.853,2.811,3.184,3.184,0,0,0,2.076,1.176,2.653,2.653,0,0,0,1.706-.4c.811-.553.852-1.168.734-1.207-.139-.089-.439.266-1.091.427a1.921,1.921,0,0,1-2.2-.934,2.289,2.289,0,0,1-.292-1.645,2.294,2.294,0,0,1,2.982-1.841,3.016,3.016,0,0,1,1.81,1.393,5.373,5.373,0,0,1,.084,4.931,6.406,6.406,0,0,1-2.768,3.284,4.079,4.079,0,0,1-2.817.332c-.694-.17-1.072-.424-1.187-.307" transform="translate(-150.953 -6.378)" fill="#416599"/>
            <path id="Path_893838" data-name="Path 893838" d="M249.729,64a5.269,5.269,0,0,0,.9-.631c.289-.212.683-.421,1.123-.7a13,13,0,0,1,1.643-.725,13.34,13.34,0,0,1,4.817-.77,16.443,16.443,0,0,1,6.3,1.384,18.487,18.487,0,0,1,6.328,4.617,31.5,31.5,0,0,1,5,7.634,66.869,66.869,0,0,1,3.594,9.544q.421,1.263.764,2.575.361,1.305.728,2.631c.42,1.785.9,3.585,1.265,5.435a166.276,166.276,0,0,1,2.962,21.058c.527,6.526.741,12.426.88,17.38.1,4.937.19,8.941.249,11.744.036,1.365.065,2.435.085,3.194a5.366,5.366,0,0,0,.089,1.113,5.373,5.373,0,0,0,.086-1.114c.019-.758.045-1.829.079-3.195.037-2.774.087-6.79.028-11.755s-.211-10.879-.7-17.433a158.961,158.961,0,0,0-2.911-21.179c-.368-1.861-.852-3.676-1.279-5.473q-.372-1.336-.74-2.651-.35-1.319-.777-2.592a66.238,66.238,0,0,0-3.688-9.642,31.811,31.811,0,0,0-5.19-7.777,18.9,18.9,0,0,0-6.617-4.691,16.674,16.674,0,0,0-6.535-1.3,13.256,13.256,0,0,0-4.938.944,12.12,12.12,0,0,0-1.651.818c-.437.309-.822.547-1.1.785a5.2,5.2,0,0,0-.8.774" transform="translate(-119.786 -28.636)" fill="#29485b"/>
            <path id="Path_893839" data-name="Path 893839" d="M330.286,180.869a8.609,8.609,0,0,0,.687-1.861c.4-1.213.89-2.994,1.427-5.212s1.084-4.885,1.575-7.867c.468-2.987.874-6.288,1.128-9.768.237-3.483.3-6.811.252-9.833-.068-3.023-.228-5.742-.457-8.016s-.461-4.107-.683-5.365a8.654,8.654,0,0,0-.419-1.941,8.761,8.761,0,0,0,.083,1.984c.118,1.267.263,3.1.405,5.372s.245,4.972.268,7.975c0,3-.083,6.3-.318,9.761-.251,3.455-.631,6.734-1.051,9.706-.444,2.968-.917,5.631-1.383,7.855s-.859,4.022-1.154,5.258a8.745,8.745,0,0,0-.36,1.952" transform="translate(-158.421 -61.821)" fill="#29485b"/>
            <path id="Path_893840" data-name="Path 893840" d="M339.273,170.021c.027.242,3.472.054,7.7-.421s7.627-1.058,7.6-1.3-3.471-.054-7.7.421-7.626,1.057-7.6,1.3" transform="translate(-162.738 -79.37)" fill="#29485b"/>
            <path id="Path_893841" data-name="Path 893841" d="M352.56,183.4c-.072,0-.082.295-.352.679a5.292,5.292,0,0,1-1.61,1.274,3.98,3.98,0,0,0-1.189,1.1,2.225,2.225,0,0,0-.384.926,1.547,1.547,0,0,0,.277,1.133c1.268,1.44,3.57-.007,3.424-1.747a6.384,6.384,0,0,0-.758-2.709l-.366.6c4.287-.216,7.422-.51,7.414-.714s-3.156-.254-7.447-.138l-.619.017.253.587a5.964,5.964,0,0,1,.652,2.338,1.387,1.387,0,0,1-.715,1.318c-.454.26-1,.246-1.2-.046a1,1,0,0,1,.071-1.166,3.647,3.647,0,0,1,.931-.985,4.535,4.535,0,0,0,1.561-1.622c.225-.533.1-.86.057-.848" transform="translate(-167.407 -86.545)" fill="#29485b"/>
            <path id="Path_893842" data-name="Path 893842" d="M315.406,103.829c.078.231,2.22-.3,4.785-1.194s4.581-1.8,4.5-2.03-2.22.3-4.785,1.194-4.581,1.8-4.5,2.03" transform="translate(-151.289 -47.45)" fill="#29485b"/>
            <path id="Path_893843" data-name="Path 893843" d="M303.58,91.028c.03.231,3.153-.037,6.823-1.208s6.393-2.742,6.288-2.948c-.109-.23-2.945.97-6.548,2.1-3.6,1.149-6.6,1.8-6.563,2.052" transform="translate(-145.617 -40.98)" fill="#29485b"/>
            <path id="Path_893844" data-name="Path 893844" d="M329.135,161.082c-.043-.24-2.411,0-5.289.525s-5.177,1.154-5.134,1.4,2.41,0,5.289-.526,5.176-1.154,5.133-1.394" transform="translate(-152.876 -75.969)" fill="#29485b"/>
            <path id="Path_893845" data-name="Path 893845" d="M321.567,195.313c.05.238,1.8.056,3.9-.408s3.771-1.031,3.72-1.271-1.8-.057-3.9.407-3.771,1.033-3.72,1.271" transform="translate(-154.245 -91.325)" fill="#29485b"/>
            <path id="Path_893846" data-name="Path 893846" d="M318.72,186.222c-.2.129.3,1.322,1.123,2.664s1.657,2.326,1.862,2.2-.3-1.321-1.123-2.664-1.657-2.324-1.862-2.2" transform="translate(-152.858 -87.872)" fill="#29485b"/>
            <path id="Path_893847" data-name="Path 893847" d="M320.607,178.658c-.2.142.9,2.061,2.456,4.287s2.972,3.917,3.168,3.776-.9-2.06-2.458-4.287-2.971-3.916-3.167-3.777" transform="translate(-153.774 -84.303)" fill="#29485b"/>
            <path id="Path_893848" data-name="Path 893848" d="M319.186,167.57c-.193.161,1.818,2.936,4.095,6.486s3.982,6.528,4.2,6.413-1.159-3.305-3.476-6.9-4.647-6.154-4.823-6" transform="translate(-153.097 -79.072)" fill="#29485b"/>
            <path id="Path_893849" data-name="Path 893849" d="M324.878,165.211c-.2.137,1.121,2.454,2.947,5.175s3.468,4.815,3.667,4.677-1.12-2.453-2.948-5.175-3.468-4.815-3.666-4.677" transform="translate(-155.824 -77.959)" fill="#29485b"/>
            <path id="Path_893850" data-name="Path 893850" d="M329.885,163.694c-.168.189.956,1.452,2.113,3.155s1.942,3.2,2.174,3.112-.224-1.821-1.459-3.617-2.681-2.831-2.828-2.65" transform="translate(-158.227 -77.236)" fill="#29485b"/>
            <path id="Path_893851" data-name="Path 893851" d="M302.864,27.606c.06-.325-1.233-.679-2.165-2.367a8.48,8.48,0,0,1-1-3.206,12.76,12.76,0,0,1,.226-4.214,14.505,14.505,0,0,1,3.608-6.805c1.368-1.5,2.516-2.176,2.373-2.492-.085-.242-1.54-.063-3.386,1.314a12.738,12.738,0,0,0-4.72,7.5,12.394,12.394,0,0,0-.081,5.024,8.368,8.368,0,0,0,1.734,3.792,4.575,4.575,0,0,0,2.358,1.568c.664.14,1.033.018,1.054-.118" transform="translate(-142.701 -3.979)" fill="#416599"/>
            <path id="Path_893852" data-name="Path 893852" d="M339.588,172.528l-.2,1.8-.216,1.829q-.22,1.83-.459,3.659-.482,3.654-1.05,7.269c-.38,2.4-.791,4.791-1.259,7.1-.235,1.151-.484,2.285-.753,3.351-.134.532-.274,1.048-.416,1.522s-.29.909-.406,1.2l-.041.1-.031.071-.014.035-.007.013s-.01.028-.005.017a.154.154,0,0,1,.023-.035.1.1,0,0,0,.014-.021l.02-.032q.019-.031.042-.06l.022-.029.044-.063c.03-.042.061-.082.095-.121l.051-.058c.013.008-.088-.1-.028-.074l.035-.041.072-.08c.1-.106.2-.2.3-.295a4.694,4.694,0,0,1,1.131-.763,3.624,3.624,0,0,1,.768-.27,1.193,1.193,0,0,1,.534-.045c.026.014-.035.033-.149.037a3.588,3.588,0,0,1-.446-.015,11.36,11.36,0,0,1-1.268-.194c-.941-.191-1.985-.476-3.043-.8s-2.147-.706-3.237-1.108c-2.183-.806-4.388-1.715-6.583-2.674q-1.648-.717-3.291-1.469l-1.635-.76-1.6-.763-.124-.059a4.988,4.988,0,0,0-6.681,2.439,5.161,5.161,0,0,0,1.929,6.522l1.658,1.026,1.639.989q1.643.978,3.309,1.926c2.229,1.256,4.492,2.473,6.848,3.629,1.18.577,2.383,1.138,3.635,1.675s2.552,1.048,3.994,1.507c.724.228,1.484.443,2.341.625.43.09.885.172,1.387.236a13.024,13.024,0,0,0,1.7.107,9.931,9.931,0,0,0,2.364-.29,8.5,8.5,0,0,0,1.634-.6,7.97,7.97,0,0,0,1.894-1.285c.157-.142.312-.3.463-.461l.112-.122.055-.062c.067.018-.028-.1-.009-.1l.122-.151c.081-.1.16-.2.237-.306l.115-.156.086-.127.17-.256.083-.129c.029-.044.055-.087.075-.121l.255-.441c.082-.146.14-.264.21-.4l.1-.2.084-.177.165-.354.142-.327c.366-.864.622-1.609.856-2.332s.429-1.407.614-2.083c.368-1.352.678-2.657.967-3.952.573-2.585,1.056-5.123,1.5-7.655s.852-5.05,1.239-7.569q.293-1.889.566-3.779l.269-1.894.261-1.921a6.691,6.691,0,1,0-13.251-1.855c-.006.043-.011.087-.016.13Z" transform="translate(-148.371 -78.537)" fill="#6585b8"/>
            <path id="Path_893853" data-name="Path 893853" d="M359.871,226.044c.12.093,1.863,1.45,3.693,3.218a.326.326,0,0,1-.1.533.315.315,0,0,1-.34-.065c-1.842-1.778-3.608-3.153-3.638-3.176a.323.323,0,0,1-.059-.449.313.313,0,0,1,.443-.06" transform="translate(-172.375 -106.637)" fill="#416599"/>
            <path id="Path_893854" data-name="Path 893854" d="M361.176,227.592a.305.305,0,0,0,.1.012,10.265,10.265,0,0,1,3.455.86.314.314,0,0,0,.415-.167.322.322,0,0,0-.164-.421,10.69,10.69,0,0,0-3.733-.912.322.322,0,0,0-.071.629" transform="translate(-173.134 -107.101)" fill="#416599"/>
            <path id="Path_893855" data-name="Path 893855" d="M436.481,148.078s6.324-2.892,10.77-.385,6.19,11.479,6.19,11.479H441.282Z" transform="translate(-209.366 -69.213)" fill="#3a3e6b"/>
            <path id="Path_893856" data-name="Path 893856" d="M459.123,182.695s9.734-9.283,13.5.166c4.055,10.18-.96,17.113-.96,17.113l-7.737-6.186Z" transform="translate(-220.226 -84.289)" fill="#3a3e6b"/>
            <path id="Path_893857" data-name="Path 893857" d="M410.174,146.59s14.517-10.074,28.977,8.933,9.652,44.266-.522,51.627-23.412.955-23.412.955Z" transform="translate(-196.747 -67.916)" fill="#1a1c35"/>
            <path id="Path_893858" data-name="Path 893858" d="M370.638,430.228h7.739c1.044-5.228,2.025-11.451,2.927-17.5.762-5.108,1.466-10.1,2.106-14.263,1.155-7.533,2.25-14.783,2.775-21.479a88.835,88.835,0,0,0,.275-10.189c-.013-.362-.031-.72-.05-1.077a46.088,46.088,0,0,0-.785-6.466,33.1,33.1,0,0,0-.815-3.264l-13.605-.982-.034,4.543-.026,3.48-.023,3.076-.052,6.855-.295,39.115Z" transform="translate(-177.783 -167.525)" fill="#9f5927"/>
            <path id="Path_893859" data-name="Path 893859" d="M380.193,477.963c-.58,3.62-1.187,7.135-1.817,10.288h-7.739l.078-10.288a65.567,65.567,0,0,0,9.478,0" transform="translate(-177.783 -225.547)" fill="#f2f6f8"/>
            <path id="Path_893860" data-name="Path 893860" d="M371.479,382.1c3.431,1.878,10.606,3.726,15.11,4.8a88.962,88.962,0,0,0,.275-10.189l-15.339-.689Z" transform="translate(-178.186 -177.443)" fill="#7c310b"/>
            <path id="Path_893861" data-name="Path 893861" d="M328.535,510.3H361a4.662,4.662,0,0,0,.427-1.83c.2-2.787-.673-7.235-1.1-10.04-.053-.328-.1-.634-.132-.91a9.782,9.782,0,0,1-.1-1.145c0-2.289-2-1.9-2-1.9-3.285,3.269-7-1.634-9.177-.026,0,0-.935.681-3.513,3.034s-6.96,3.907-10.692,5.492c-4.818,2.043-6.184,4.085-6.45,5.491a2.606,2.606,0,0,0,.267,1.83" transform="translate(-157.434 -233.169)" fill="#025974"/>
            <path id="Path_893862" data-name="Path 893862" d="M328.535,523.12H361a4.66,4.66,0,0,0,.427-1.83H328.268a2.606,2.606,0,0,0,.267,1.83" transform="translate(-157.434 -245.993)" fill="#2a3f2d"/>
            <path id="Path_893863" data-name="Path 893863" d="M383.415,513.336h.964a7.3,7.3,0,0,1-1.745-5.276,9.327,9.327,0,0,1,3.418-6.594c-.052-.327-.1-.634-.131-.91a10.125,10.125,0,0,0-4.06,7.465,8.079,8.079,0,0,0,1.554,5.315" transform="translate(-183.161 -236.209)" fill="#2a3f2d"/>
            <path id="Path_893864" data-name="Path 893864" d="M360.211,502.311a.537.537,0,0,0,.519-.412.543.543,0,0,0-.39-.657l-2.028-.511a.534.534,0,0,0-.648.4.544.544,0,0,0,.39.658l2.028.511a.517.517,0,0,0,.129.016" transform="translate(-171.552 -236.283)" fill="#f2f6f8"/>
            <path id="Path_893865" data-name="Path 893865" d="M364,499.287a.536.536,0,0,0,.519-.412.543.543,0,0,0-.39-.657l-2.028-.511a.534.534,0,0,0-.648.4.544.544,0,0,0,.39.658l2.028.511a.52.52,0,0,0,.129.016" transform="translate(-173.369 -234.856)" fill="#f2f6f8"/>
            <path id="Path_893866" data-name="Path 893866" d="M356.06,505.012a.537.537,0,0,0,.519-.412.543.543,0,0,0-.391-.657l-2.028-.511a.534.534,0,0,0-.648.4.543.543,0,0,0,.39.658l2.028.511a.52.52,0,0,0,.13.016" transform="translate(-169.561 -237.558)" fill="#f2f6f8"/>
            <path id="Path_893867" data-name="Path 893867" d="M352.163,507.189a.537.537,0,0,0,.519-.412.543.543,0,0,0-.39-.658l-2.028-.511a.534.534,0,0,0-.648.4.544.544,0,0,0,.39.658l2.028.511a.522.522,0,0,0,.13.016" transform="translate(-167.692 -238.585)" fill="#f2f6f8"/>
            <path id="Path_893868" data-name="Path 893868" d="M347.913,509.2a.536.536,0,0,0,.519-.412.543.543,0,0,0-.39-.658l-2.028-.511a.534.534,0,0,0-.648.4.544.544,0,0,0,.39.658l2.028.511a.514.514,0,0,0,.129.016" transform="translate(-165.653 -239.536)" fill="#f2f6f8"/>
            <path id="Path_893869" data-name="Path 893869" d="M343.3,510.921a.537.537,0,0,0,.519-.412.543.543,0,0,0-.391-.657l-2.028-.511a.533.533,0,0,0-.648.4.543.543,0,0,0,.39.657l2.028.511a.518.518,0,0,0,.129.016" transform="translate(-163.443 -240.346)" fill="#f2f6f8"/>
            <path id="Path_893870" data-name="Path 893870" d="M409.1,145.585s7.922-7.2,1.98-10.888-22.611,1.675-25.747,8.878S392,149.781,392,149.781Z" transform="translate(-184.533 -62.998)" fill="#6585b8"/>
            <path id="Path_893871" data-name="Path 893871" d="M421.465,360.271q.038,1.656.119,3.308.087,1.769.224,3.544c.266,3.5.664,7.038,1.16,10.689.843,6.2,1.969,12.723,3.211,19.966.769,4.484,1.485,9.683,2.27,14.957.81,5.434,1.692,10.947,2.785,15.841l9.145.358-.817-16.865L437.9,377.7l-.482-9.949-.081-1.69-.293-6.073-.241-4.979H421.468c-.042,1.765-.042,3.517,0,5.265" transform="translate(-202.149 -167.525)" fill="#9f5927"/>
            <path id="Path_893872" data-name="Path 893872" d="M447.361,476.648l.469,9.687-9.146-.358c-.608-2.726-1.213-6.012-1.716-9a31.263,31.263,0,0,0,10.393-.327" transform="translate(-209.599 -224.927)" fill="#f2f6f8"/>
            <path id="Path_893873" data-name="Path 893873" d="M422.152,377.948c.266,3.5.553,6.211,1.049,9.862a128.124,128.124,0,0,0,14.976-1.2l-.417-8.037Z" transform="translate(-202.493 -178.351)" fill="#7c310b"/>
            <path id="Path_893874" data-name="Path 893874" d="M433.571,505.6c0,.086,0,.169,0,.25.008.38.024.721.04,1.014.039.644.084,1.04.084,1.04h21.063a11.94,11.94,0,0,0,.024-2.054,10.746,10.746,0,0,0-3.762-7.914c-3.982-3.125-2.444-2.472-3.261-3.9-.092-.158-.809-2.578-.885-2.745-.685-1.479-1.315-2.178-5.089-2.178-5.005,0-5.445,2.465-5.98,3.763a24.56,24.56,0,0,0-.833,3.018c-.126.54-.252,1.117-.376,1.7-.309,1.473-.6,3.011-.793,4.239a22.538,22.538,0,0,0-.236,3.761" transform="translate(-207.969 -230.811)" fill="#025974"/>
            <path id="Path_893875" data-name="Path 893875" d="M433.574,511.643c0,.085,0,.168,0,.25.008.38.024.721.04,1.014a5.954,5.954,0,0,0,2.189-2.879c1.3-3.6-.7-7.926-.785-8.11l-.042.021c-.126.54-.252,1.117-.376,1.7a9.857,9.857,0,0,1,.262,6.037,4.969,4.969,0,0,1-1.291,1.963" transform="translate(-207.971 -236.851)" fill="#2a3f2d"/>
            <path id="Path_893876" data-name="Path 893876" d="M433.582,520.807c.028,1.217.124,2.054.124,2.054h21.063a11.965,11.965,0,0,0,.024-2.054Z" transform="translate(-207.975 -245.765)" fill="#2a3f2d"/>
            <path id="Path_893877" data-name="Path 893877" d="M447.48,500.322a.592.592,0,0,0,.15-.019,10.27,10.27,0,0,1,4.883-.1.6.6,0,0,0,.739-.425.611.611,0,0,0-.419-.75,11.378,11.378,0,0,0-5.5.1.611.611,0,0,0-.431.743.6.6,0,0,0,.581.457" transform="translate(-214.354 -235.351)" fill="#f2f6f8"/>
            <path id="Path_893878" data-name="Path 893878" d="M447,496.03a.6.6,0,0,0,.151-.02,10.262,10.262,0,0,1,4.883-.1.6.6,0,0,0,.739-.425.611.611,0,0,0-.419-.75,11.379,11.379,0,0,0-5.5.1.61.61,0,0,0-.43.743.6.6,0,0,0,.581.457" transform="translate(-214.123 -233.326)" fill="#f2f6f8"/>
            <path id="Path_893879" data-name="Path 893879" d="M449.21,503.98a.592.592,0,0,0,.151-.02,10.372,10.372,0,0,1,4.884-.1.6.6,0,0,0,.737-.427.61.61,0,0,0-.418-.749,11.39,11.39,0,0,0-5.5.1.61.61,0,0,0-.431.743.6.6,0,0,0,.581.457" transform="translate(-215.184 -237.077)" fill="#f2f6f8"/>
            <path id="Path_893880" data-name="Path 893880" d="M451.245,508.137a.6.6,0,0,0,.151-.02,10.366,10.366,0,0,1,4.884-.1.6.6,0,0,0,.737-.427.609.609,0,0,0-.418-.748,11.381,11.381,0,0,0-5.5.1.611.611,0,0,0-.431.743.6.6,0,0,0,.581.457" transform="translate(-216.16 -239.039)" fill="#f2f6f8"/>
            <path id="Path_893881" data-name="Path 893881" d="M373.293,178.914c.069.741.12,1.655.162,2.71q.021.543.042,1.132c.11,3.282.169,7.6.365,12.078.018.4.037.806.059,1.209.475,9.645-.393,13.272-1.209,16.994-1.842,8.4,31.445,6.085,36.508,3.961,3.845-1.612,5.012-21.427,4.106-33.746-.03-.416-.058-.826-.088-1.227-.241-3.352-.414-6.1-.381-7.706.158-7.455-.61-15.426-1.626-18.859s-13.191-6.447-13.191-6.447l-14.116,1.48a23.756,23.756,0,0,0-10.664,6.234c-4.983,5.009-.686,14.337.033,22.187" transform="translate(-177.902 -70.319)" fill="#6585b8"/>
            <path id="Path_893882" data-name="Path 893882" d="M412.541,202.407a.4.4,0,0,0,.074-.007.417.417,0,0,0,.331-.485c-2.924-16.32-.028-35.183,0-35.372a.416.416,0,0,0-.342-.478.41.41,0,0,0-.471.346c-.03.19-2.948,19.189,0,35.653a.414.414,0,0,0,.4.343" transform="translate(-197.057 -78.362)" fill="#f2f6f8"/>
            <path id="Path_893883" data-name="Path 893883" d="M393.51,201.773a.388.388,0,0,0,.074-.007.417.417,0,0,0,.331-.485c-2.924-16.32-.028-35.183,0-35.372a.417.417,0,0,0-.342-.478.411.411,0,0,0-.471.346c-.03.19-2.948,19.189,0,35.652a.413.413,0,0,0,.4.343" transform="translate(-187.928 -78.063)" fill="#f2f6f8"/>
            <path id="Path_893884" data-name="Path 893884" d="M375.276,191.54l.031,0a.348.348,0,0,0,.369-.326,104.542,104.542,0,0,0-.335-13.354.346.346,0,1,0-.689.065,103.841,103.841,0,0,1,.334,13.24.35.35,0,0,0,.29.371" transform="translate(-179.708 -83.782)" fill="#416599"/>
            <path id="Path_893885" data-name="Path 893885" d="M405.064,236.439a.45.45,0,0,1-.1,0c-8.159-.556-14.418-8.856-14.757-9.265a.448.448,0,0,1,.053-.625.433.433,0,0,1,.617.053c.07.085,6.13,8.337,14.147,8.951a.445.445,0,0,1,.038.882" transform="translate(-187.122 -106.859)" fill="#332cb7"/>
            <path id="Path_893886" data-name="Path 893886" d="M399.841,160c5.3.134,10.432-6.019,10.648-6.281a.433.433,0,0,0-.053-.6.417.417,0,0,0-.594.053c-.051.061-5.085,6.1-9.98,5.975h-.005c-3.47-.091-4.738-3.782-4.79-3.939a.421.421,0,0,0-.534-.269.43.43,0,0,0-.266.542c.06.18,1.5,4.416,5.569,4.523h.006" transform="translate(-189.106 -72.208)" fill="#416599"/>
            <path id="Path_893887" data-name="Path 893887" d="M353.495,324.065c20.984,11.284,59.419,4.691,59.419,4.691a157.346,157.346,0,0,0-1.526-19.3c-.046-.369-.093-.739-.142-1.112-.577-4.458-1.259-9.087-1.972-13.589q-.068-.438-.14-.874c-.22-1.382-.442-2.749-.664-4.094q-.074-.441-.147-.879c-.423-2.533-.843-4.978-1.248-7.277q-.088-.486-.172-.964c-1.632-9.191-2.957-15.793-2.957-15.793-22.461,6.359-38.877-.54-38.877-.54a135.062,135.062,0,0,0-4,12.961q-.136.532-.267,1.066c-1.328,5.356-2.423,11.024-3.457,17.488-.048.3-.1.605-.145.91-.322,2.055-.64,4.19-.96,6.42q-.078.553-.157,1.117h0c-.51,3.627-1.024,7.5-1.562,11.695q-.072.561-.145,1.132-.428,3.337-.879,6.945" transform="translate(-169.56 -124.736)" fill="#025974"/>
            <path id="Path_893888" data-name="Path 893888" d="M387.745,375.21c1.676,0,3.285-.029,4.807-.078a168.5,168.5,0,0,0,20.62-1.912.4.4,0,0,0,.327-.467.4.4,0,0,0-.461-.332,167.882,167.882,0,0,1-20.523,1.9c-10.552.335-25.427-.268-36.358-5.053a.4.4,0,0,0-.525.212.408.408,0,0,0,.209.533c9.486,4.151,21.863,5.2,31.9,5.2" transform="translate(-170.57 -174.24)" fill="#3a3e6b"/>
            <path id="Path_893889" data-name="Path 893889" d="M394,277.4c2.081,0,4.044-.087,5.82-.218a86.132,86.132,0,0,0,14.053-2.174.406.406,0,0,0,.286-.494.4.4,0,0,0-.487-.29,85.367,85.367,0,0,1-13.925,2.15c-7.285.534-17.773.33-26.372-3.681a.4.4,0,0,0-.53.2.408.408,0,0,0,.2.538c6.651,3.1,14.388,3.969,20.959,3.969" transform="translate(-178.824 -128.667)" fill="#3a3e6b"/>
            <path id="Path_893890" data-name="Path 893890" d="M379.894,156.36s1.211,16.993,1.49,24.477a49.968,49.968,0,0,1-2.671,18,52.464,52.464,0,0,1-2.9,6.532c-.361.136-2.467-3.952-1.458-10.622,1.859-12.29.2-32.118,1.021-34.992s4.515-3.393,4.515-3.393" transform="translate(-179.437 -73.785)" fill="#1a1c35"/>
            <path id="Path_893891" data-name="Path 893891" d="M375.852,184.276a14.254,14.254,0,0,1,4.65-1.3,1.484,1.484,0,0,1,1.573,1.347,64.446,64.446,0,0,1,.381,8.639,1.488,1.488,0,0,1-1.37,1.4l-4.089.3a1.488,1.488,0,0,1-1.582-1.55,33.423,33.423,0,0,0-.4-7.174,1.5,1.5,0,0,1,.841-1.662" transform="translate(-179.866 -86.345)" fill="#3a3e6b"/>
            <path id="Path_893892" data-name="Path 893892" d="M429.868,154.544a23.215,23.215,0,0,0-7.694,15.675c-.757,10.2,7.524,23.21,15.719,26.272a10.336,10.336,0,0,1,.435,7.316s-17.339-3.342-21.183-24.788,7.746-26.217,7.746-26.217c1.463-.608,3.979.574,4.977,1.742" transform="translate(-199.716 -72.028)" fill="#1a1c35"/>
            <path id="Path_893893" data-name="Path 893893" d="M421.043,179.3a14.1,14.1,0,0,0-4.726-.728,1.476,1.476,0,0,0-1.394,1.511,63.74,63.74,0,0,0,.612,8.547,1.469,1.469,0,0,0,1.508,1.217l4.059-.19a1.481,1.481,0,0,0,1.38-1.712,33.131,33.131,0,0,1-.423-7.109,1.482,1.482,0,0,0-1.018-1.537" transform="translate(-199.025 -84.263)" fill="#3a3e6b"/>
            <path id="Path_893894" data-name="Path 893894" d="M416.868,233.136s19.395,18.167,20.241,19.885c2,4.067-.629,12.282-11.158,14.2s-39.516-35.521-40.8-37.523c-2.755-4.292-1.075-9.581,2.283-12.526s10.844-2.83,13-1.416,16.431,17.384,16.431,17.384" transform="translate(-184.082 -101.357)" fill="#db8819"/>
            <path id="Path_893895" data-name="Path 893895" d="M415.909,278.049c9.083,9.973,19.87,20.04,25.456,19.023,10.536-1.915,13.166-10.134,11.162-14.2-.033-.06-.083-.136-.15-.238-2.863,1.89-7.422,3.339-14.652,3.161-7.731-.186-15.387-3.643-21.815-7.745" transform="translate(-199.498 -131.209)" fill="#c71"/>
            <path id="Path_893896" data-name="Path 893896" d="M390.144,218.9c-.343.879-.763,1.678-1.081,2.567a4.492,4.492,0,0,1,1.081-2.567" transform="translate(-186.621 -103.298)" fill="#9f5927"/>
            <path id="Path_893897" data-name="Path 893897" d="M400.262,216.609a18.621,18.621,0,0,0-5.933.04,9.984,9.984,0,0,1,5.933-.04" transform="translate(-189.147 -102.012)" fill="#9f5927"/>
            <path id="Path_893898" data-name="Path 893898" d="M394.329,216.977a2.8,2.8,0,0,1,2.593.492,7.451,7.451,0,0,0-2.593-.492" transform="translate(-189.147 -102.34)" fill="#9f5927"/>
            <path id="Path_893899" data-name="Path 893899" d="M393.132,217.518a2.947,2.947,0,0,1,.73.938,1.244,1.244,0,0,1-.73-.938" transform="translate(-188.573 -102.645)" fill="#9f5927"/>
            <path id="Path_893900" data-name="Path 893900" d="M392.023,218.154a11.17,11.17,0,0,0,0,2.453,4.113,4.113,0,0,1-.246-1.869.9.9,0,0,1,.246-.584" transform="translate(-187.912 -102.945)" fill="#9f5927"/>
            <path id="Path_893901" data-name="Path 893901" d="M482.56,302.435c.1-.94.3-1.823.377-2.765a4.514,4.514,0,0,1-.377,2.765" transform="translate(-231.468 -141.412)" fill="#9f5927"/>
            <path id="Path_893902" data-name="Path 893902" d="M468.986,309.136a18.681,18.681,0,0,0,5.713-1.624,10.013,10.013,0,0,1-5.713,1.624" transform="translate(-224.957 -145.113)" fill="#9f5927"/>
            <path id="Path_893903" data-name="Path 893903" d="M477.541,307.512a2.8,2.8,0,0,1-2.629.218,7.452,7.452,0,0,0,2.629-.218" transform="translate(-227.8 -145.113)" fill="#9f5927"/>
            <path id="Path_893904" data-name="Path 893904" d="M480.129,306.131a2.913,2.913,0,0,1-.948-.71,1.232,1.232,0,0,1,.948.71" transform="translate(-229.848 -144.126)" fill="#9f5927"/>
            <path id="Path_893905" data-name="Path 893905" d="M481.08,303.812a11.128,11.128,0,0,0-.636-2.366,4.094,4.094,0,0,1,.722,1.737.9.9,0,0,1-.086.629" transform="translate(-230.453 -142.25)" fill="#9f5927"/>
            <path id="Path_893906" data-name="Path 893906" d="M433.133,211.132l2.142-3.164c.724-1.059,1.433-2.129,2.138-3.193,1.408-2.129,2.785-4.262,4.056-6.383.641-1.057,1.242-2.117,1.8-3.153.279-.518.541-1.032.784-1.534s.466-.99.653-1.45c.136-.337.256-.663.345-.943-.046-.1-.1-.2-.157-.319-.1-.2-.215-.415-.339-.64-.25-.451-.529-.939-.828-1.433s-.615-1-.941-1.509c-.653-1.019-1.339-2.056-2.048-3.09s-1.43-2.078-2.166-3.118-1.48-2.081-2.228-3.125l-2.261-3.129-2.013-2.753c.874-1.382,1.773-2.747,2.685-4.1,1.8-2.666,3.694-5.292,5.229-8.123l.323.425c.811,1.058,1.6,2.135,2.389,3.209s1.563,2.164,2.337,3.255l1.155,1.643,1.14,1.659c1.513,2.222,2.99,4.482,4.432,6.82.716,1.173,1.429,2.363,2.125,3.6.347.621.692,1.252,1.034,1.906s.684,1.327,1.018,2.056c.168.364.335.742.5,1.146s.336.832.5,1.323a14.386,14.386,0,0,1,.5,1.793,9.977,9.977,0,0,1,.195,1.44l.007.112,0,.129,0,.258c0,.1,0,.134,0,.191l-.006.158-.017.316-.011.158-.015.141q-.03.28-.068.558c-.027.17-.057.333-.087.5s-.065.315-.1.465l-.053.223-.027.111-.029.1-.115.408c-.039.139-.08.255-.121.382-.082.257-.167.486-.252.718a21.886,21.886,0,0,1-1.091,2.423,39.75,39.75,0,0,1-2.359,3.931c-.81,1.208-1.648,2.348-2.5,3.456-1.7,2.211-3.47,4.288-5.289,6.3-.91,1.006-1.84,1.986-2.776,2.96q-.709.724-1.426,1.441c-.24.239-.484.474-.728.711l-.369.356-.386.366a4.441,4.441,0,0,1-6.342-.22,4.608,4.608,0,0,1-.421-5.686Z" transform="translate(-207.252 -75.491)" fill="#6585b8"/>
            <path id="Path_893907" data-name="Path 893907" d="M447.335,254.676a.325.325,0,0,0,.142-.033.34.34,0,0,0,.159-.449c-.1-.213-2.487-5.249-6.907-6.526a.332.332,0,0,0-.411.232.339.339,0,0,0,.229.418c4.127,1.192,6.465,6.115,6.488,6.165a.333.333,0,0,0,.3.193" transform="translate(-211.2 -116.867)" fill="#416599"/>
            <path id="Path_893908" data-name="Path 893908" d="M440.3,255.742a.327.327,0,0,0,.227-.091,38.446,38.446,0,0,0,3.388-3.734.342.342,0,0,0-.057-.474.33.33,0,0,0-.467.058,37.846,37.846,0,0,1-3.319,3.658.341.341,0,0,0-.016.477.33.33,0,0,0,.243.107" transform="translate(-211.04 -118.62)" fill="#416599"/>
            <path id="Path_893909" data-name="Path 893909" d="M439.7,252.806a.474.474,0,1,0,.474-.481.478.478,0,0,0-.474.481" transform="translate(-210.91 -119.07)" fill="#416599"/>
            <path id="Path_893910" data-name="Path 893910" d="M431.9,187.552h1.388a.338.338,0,0,0,0-.675H431.9a.338.338,0,0,0,0,.675" transform="translate(-207.008 -88.186)" fill="#332cb7"/>
            <path id="Path_893911" data-name="Path 893911" d="M441.683,197.253a.328.328,0,0,0,.189-.06.34.34,0,0,0,.085-.47L430.908,180.5a.33.33,0,0,0-.463-.086.341.341,0,0,0-.084.47l11.048,16.222a.331.331,0,0,0,.274.146" transform="translate(-206.402 -85.108)" fill="#416599"/>
            <path id="Path_893912" data-name="Path 893912" d="M457.2,216.765a.327.327,0,0,1-.261-.131.336.336,0,0,1,.062-.467,12.09,12.09,0,0,1,5.15-2.231.333.333,0,0,1,.082.661,11.628,11.628,0,0,0-4.833,2.1.324.324,0,0,1-.2.068" transform="translate(-219.149 -100.953)" fill="#416599"/>
            <path id="Path_893913" data-name="Path 893913" d="M421.191,255.769c-.274.311-1.117,1.387-1.231,1.491-1.972,1.8-4.882,1.715-6.15,2.878,0,0-8.968,5.137-7.2,6.276.971.627,2.687.046,4.03-.6-.063.106-.124.2-.184.291-1.25,1.883-4.854,3.616-3.914,5.22s3.231-.152,3.231-.152.474,1.79,3.134,1.176a2.182,2.182,0,0,0,2.463,1.067,2.432,2.432,0,0,0,2.9.81c1.422-.7,4.606-4.657,8.855-11.557a12.473,12.473,0,0,0-5.93-6.9" transform="translate(-194.925 -120.696)" fill="#9f5927"/>
            <path id="Path_893914" data-name="Path 893914" d="M457.873,215.866a.319.319,0,0,1-.107-.018.334.334,0,0,1-.2-.424,8.1,8.1,0,0,1,1.771-2.658.325.325,0,0,1,.464.007.337.337,0,0,1-.007.471,7.561,7.561,0,0,0-1.608,2.4.328.328,0,0,1-.31.224" transform="translate(-219.47 -100.358)" fill="#416599"/>
            <path id="Path_893915" data-name="Path 893915" d="M391.062,214.439a2.994,2.994,0,0,0-.253-2.3c-.665-.791-1.06.643-1.944.343s-1.065-.728-1.452.238-.069,1.017-.782,1.436,2.12,1.65,2.12,1.65Z" transform="translate(-185.399 -99.992)" fill="#db8819"/>
            <path id="Path_893916" data-name="Path 893916" d="M393.123,216.711a3.433,3.433,0,0,0-2.311,1.365" transform="translate(-187.46 -102.264)" fill="none" stroke="#f2f6f8" stroke-linecap="round" stroke-miterlimit="10" stroke-width="0.802"/>
            <path id="Path_893917" data-name="Path 893917" d="M479.12,306.482s.066,1.566.939,2.111.815-.943,1.747-.934,1.233.36,1.309-.68-.244-.989.309-1.61-2.518-.907-2.518-.907Z" transform="translate(-229.818 -143.673)" fill="#db8819"/>
            <path id="Path_893918" data-name="Path 893918" d="M479.12,306.482a3.475,3.475,0,0,0,1.785-2.02" transform="translate(-229.818 -143.673)" fill="none" stroke="#f2f6f8" stroke-linecap="round" stroke-miterlimit="10" stroke-width="0.802"/>
            <path id="Path_893919" data-name="Path 893919" d="M411.189,80.8a13.555,13.555,0,0,1,7.5,2.187,6.35,6.35,0,0,1,2.236-1.744,5.39,5.39,0,0,1,.579-.221c3.768-1.2,6.963,4.14,8.948,3.187s-.087-5.07-.087-5.07,2.469,1.818,3.492.007c1.01-1.79-1.524-4.644-1.582-4.71.071,0,2.313.085,2.331-1.808.031-3.234-8.131-7.035-15.351-3a15.776,15.776,0,0,0-6.785,7.169,16.507,16.507,0,0,0-1.276,4" transform="translate(-197.234 -32.035)" fill="#1a1c35"/>
            <path id="Path_893920" data-name="Path 893920" d="M411.189,88.725a13.554,13.554,0,0,1,7.5,2.187,6.351,6.351,0,0,1,2.236-1.744c-1.087-1.362-4.366-4.941-8.455-4.445a16.507,16.507,0,0,0-1.276,4" transform="translate(-197.234 -39.959)" fill="#e6a23a"/>
            <path id="Path_893921" data-name="Path 893921" d="M396.735,112.893A21.779,21.779,0,0,0,402.432,96c-.78-8.274-9.656-14.014-20.91-8.871C369.152,92.784,375.3,104.7,376.9,107.8s19.837,5.095,19.837,5.095" transform="translate(-179.375 -40.195)" fill="#1a1c35"/>
            <path id="Path_893922" data-name="Path 893922" d="M379.206,122.211s-2.3-1.988-3.016.5.884,7.03,3.692,5.774Z" transform="translate(-180.365 -57.316)" fill="#7c310b"/>
            <path id="Path_893923" data-name="Path 893923" d="M395.6,141.34l.767,6.336s3.958,5.462,12.755-2.86a29.363,29.363,0,0,1-2.068-8.877,12.353,12.353,0,0,0-1.749,1.293,6.793,6.793,0,0,1-.731.478c-2.3,1.465-5.808,3.353-8.974,3.63" transform="translate(-189.756 -64.149)" fill="#9f5927"/>
            <path id="Path_893924" data-name="Path 893924" d="M395.6,142.5l.364,3c2.587-1.057,7.176-3.352,9.341-7.112-.227.152-.471.312-.731.478-2.3,1.466-5.808,3.353-8.974,3.63" transform="translate(-189.756 -65.304)" fill="#1a1c35"/>
            <path id="Path_893925" data-name="Path 893925" d="M378.282,111.769q.163.989.32,1.865c.785,4.393,1.477,6.758,2.7,7.679,6.175,4.654,16.81-3.917,17.152-4.193a.025.025,0,0,1,.009-.008q.041-.772.053-1.524a39.892,39.892,0,0,0-1.5-11.645,8.841,8.841,0,0,0-7.022-7.782c-3.905-.744-6.94,1.452-8.823,2.4-2.843,1.439-4.088,5.683-3.2,11.285q.161,1.007.312,1.919" transform="translate(-181.164 -45.307)" fill="#9f5927"/>
            <path id="Path_893926" data-name="Path 893926" d="M390.185,136.571a1.769,1.769,0,0,1-.207-.036.277.277,0,0,1-.2-.337.272.272,0,0,1,.331-.2,1.736,1.736,0,0,0,1.662-.529.271.271,0,0,1,.412,0,.3.3,0,0,1-.02.388,2.243,2.243,0,0,1-1.981.716" transform="translate(-186.961 -63.881)" fill="#7c310b"/>
            <path id="Path_893927" data-name="Path 893927" d="M392.241,109.886a.806.806,0,0,0-.527,1.247c.55.954,2.564-.536,4.44,1.077,0,0,.272-2.555-3.913-2.325" transform="translate(-187.817 -51.847)" fill="#1a1c35"/>
            <path id="Path_893928" data-name="Path 893928" d="M396.023,123.568c.084.519,1.2.763,2.5.546s2.281-.814,2.2-1.332-1.2-.762-2.5-.545-2.282.813-2.2,1.332" transform="translate(-189.957 -57.645)" fill="#7c310b"/>
            <g id="Group_1118087" data-name="Group 1118087" transform="translate(197.118 66.414)" opacity="0.8">
              <g id="Group_1118086" data-name="Group 1118086">
                <g id="Group_1118085" data-name="Group 1118085" clip-path="url(#clip-path-3)">
                  <path id="Path_893929" data-name="Path 893929" d="M378.831,125.807q.163.989.32,1.865c1.184-.244,2.049-.8,1.969-1.29s-1.084-.735-2.289-.576" transform="translate(-378.831 -125.758)" fill="#7c310b"/>
                </g>
              </g>
            </g>
            <path id="Path_893930" data-name="Path 893930" d="M387.039,122.482a2.527,2.527,0,0,1-.593.035.294.294,0,0,1-.207-.115.3.3,0,0,1-.056-.232l.563-3.284a.293.293,0,1,1,.577.1l-.5,2.924a2.286,2.286,0,0,0,1.14-.456.29.29,0,0,1,.41.054.3.3,0,0,1-.053.416,2.828,2.828,0,0,1-1.28.556" transform="translate(-185.238 -55.986)" fill="#1a1c35"/>
            <path id="Path_893931" data-name="Path 893931" d="M412.3,131.236c.047.074,1.322,2.091,2.752,2.506h0l.005-.008c.028-.514.045-1.022.054-1.523a5.389,5.389,0,0,1-2.814-.976" transform="translate(-197.769 -61.929)" fill="#1a1c35"/>
            <path id="Path_893932" data-name="Path 893932" d="M413.23,119.23s2.183-4.293,4.727-1.632c2.1,2.192-.057,9.182-3.768,7.531Z" transform="translate(-198.213 -55.083)" fill="#9f5927"/>
            <path id="Path_893933" data-name="Path 893933" d="M415.128,125.623l-.032,0a.294.294,0,0,1-.309-.28,5.572,5.572,0,0,1,2.442-4.954.29.29,0,0,1,.4.1.3.3,0,0,1-.1.407,4.974,4.974,0,0,0-2.161,4.414.3.3,0,0,1-.244.309" transform="translate(-198.956 -56.792)" fill="#1a1c35"/>
            <path id="Path_893934" data-name="Path 893934" d="M418.037,125.2a.29.29,0,0,1-.193-.035c-.285-.165-1.128-.545-1.6-.332a.291.291,0,0,1-.386-.152.3.3,0,0,1,.15-.391,2.781,2.781,0,0,1,2.13.36.3.3,0,0,1,.109.405.293.293,0,0,1-.207.146" transform="translate(-199.46 -58.6)" fill="#1a1c35"/>
            <path id="Path_893935" data-name="Path 893935" d="M392.954,116.506a.924.924,0,1,0,.9-1.136,1.039,1.039,0,0,0-.9,1.136" transform="translate(-188.487 -54.442)" fill="#1a1c35"/>
            <path id="Path_893936" data-name="Path 893936" d="M380.722,119.334a.924.924,0,1,0,.9-1.137,1.039,1.039,0,0,0-.9,1.137" transform="translate(-182.62 -55.777)" fill="#1a1c35"/>
            <path id="Path_893937" data-name="Path 893937" d="M390.138,128.993a4.639,4.639,0,0,1-4.454,1.185" transform="translate(-185 -60.871)" fill="none" stroke="#7c310b" stroke-linecap="round" stroke-miterlimit="10" stroke-width="1.203"/>
            <path id="Path_893938" data-name="Path 893938" d="M394.794,97.116s-3.262,4.2-5.021,3.588.329-4.268.329-4.268-5.181,4.08-7.529,3.439,1.132-3.993,1.132-3.993-3.7,4.648-6.215,4.83-.552-3.4-.552-3.4-1.54,4.816-3.093,4.684-.586-6.836,4.007-9.832,17.242-4.712,16.943,4.947" transform="translate(-178.991 -42.384)" fill="#1a1c35"/>
            <path id="Path_893939" data-name="Path 893939" d="M408.717,105.549s.058,8.341,2.082,8.04,3.542-3.806,1.053-9.951Z" transform="translate(-196.048 -48.906)" fill="#1a1c35"/>
            <path id="Path_893940" data-name="Path 893940" d="M380.48,111.471s1.112-.073.893,1.009-2.6.328-3.864,2.468c0,0-1.065-2.332,2.971-3.477" transform="translate(-181.018 -52.602)" fill="#1a1c35"/>
            <path id="Path_893941" data-name="Path 893941" d="M258.833,475.191l.451,10.686,10.712.205-.771-10.045Z" transform="translate(-124.154 -224.239)" fill="#9f5927"/>
            <path id="Path_893942" data-name="Path 893942" d="M265.613,504.108c0,.084,0,.166,0,.247-.008.376-.023.713-.039,1-.038.636-.083,1.027-.083,1.027H244.693a11.765,11.765,0,0,1-.024-2.028,10.609,10.609,0,0,1,3.714-7.813c3.931-3.085,2.413-2.441,3.22-3.847.091-.156.8-2.546.873-2.71.676-1.46,1.3-2.15,5.024-2.15,4.941,0,5.376,2.433,5.9,3.715a24.241,24.241,0,0,1,.822,2.979c.124.533.249,1.1.372,1.683.3,1.454.589,2.973.783,4.185a22.263,22.263,0,0,1,.233,3.713" transform="translate(-117.346 -230.205)" fill="#446048"/>
            <path id="Path_893943" data-name="Path 893943" d="M282.516,510.071c0,.085,0,.166,0,.247-.008.375-.023.712-.039,1a5.882,5.882,0,0,1-2.16-2.842c-1.286-3.557.691-7.825.775-8.005l.042.02c.124.533.249,1.1.372,1.682a9.732,9.732,0,0,0-.259,5.96,4.9,4.9,0,0,0,1.274,1.938" transform="translate(-134.249 -236.169)" fill="#2a3f2d"/>
            <path id="Path_893944" data-name="Path 893944" d="M265.608,519.117c-.028,1.2-.122,2.028-.122,2.028H244.693a11.831,11.831,0,0,1-.024-2.028Z" transform="translate(-117.345 -244.967)" fill="#2a3f2d"/>
            <path id="Path_893945" data-name="Path 893945" d="M265.4,498.9a.582.582,0,0,1-.149-.019,10.135,10.135,0,0,0-4.821-.1.591.591,0,0,1-.729-.419.6.6,0,0,1,.413-.74,11.229,11.229,0,0,1,5.434.1.6.6,0,0,1,.426.733.6.6,0,0,1-.574.451" transform="translate(-124.56 -234.688)" fill="#f2f6f8"/>
            <path id="Path_893946" data-name="Path 893946" d="M266.057,494.291a.6.6,0,0,1-.149-.019,10.136,10.136,0,0,0-4.821-.1.591.591,0,0,1-.729-.42.6.6,0,0,1,.413-.74,11.234,11.234,0,0,1,5.434.1.6.6,0,0,1,.425.734.6.6,0,0,1-.573.451" transform="translate(-124.875 -232.515)" fill="#f2f6f8"/>
            <path id="Path_893947" data-name="Path 893947" d="M263.691,502.5a.582.582,0,0,1-.149-.02,10.234,10.234,0,0,0-4.821-.1.592.592,0,0,1-.728-.421.6.6,0,0,1,.413-.739,11.236,11.236,0,0,1,5.434.1.6.6,0,0,1,.426.733.6.6,0,0,1-.574.451" transform="translate(-123.74 -236.391)" fill="#f2f6f8"/>
            <path id="Path_893948" data-name="Path 893948" d="M261.683,506.61a.579.579,0,0,1-.149-.02,10.236,10.236,0,0,0-4.822-.1.592.592,0,0,1-.728-.421.6.6,0,0,1,.414-.739,11.234,11.234,0,0,1,5.434.1.6.6,0,0,1,.426.734.6.6,0,0,1-.574.451" transform="translate(-122.777 -238.328)" fill="#f2f6f8"/>
            <path id="Path_893949" data-name="Path 893949" d="M236.43,288.371c.679,13.055,9.822,71.072,9.822,71.072l12.3-.888s.9-21.554,1.538-39.637-1.7-28.4-1.7-28.4-1.334-4.073-.318-14.658c.841-8.767,3.806-36.676,5.013-45.985l.383-2.981s-19.289-5.512-24.159.664a4.948,4.948,0,0,0-.858,1.659c-.469,1.57-3.447,5.192-3.873,8.322-1.945,14.281,1.288,40.121,1.845,50.827" transform="translate(-112.227 -106.003)" fill="#953c2d"/>
            <path id="Path_893950" data-name="Path 893950" d="M269.222,470.718c-.009.257-.02.5-.029.734l-1.183-.009-.66-.007-11.346-.1c-.042-.237-.085-.481-.132-.736l11.408.1.793.007Z" transform="translate(-122.733 -222.075)" fill="#3a3e6b"/>
            <path id="Path_893951" data-name="Path 893951" d="M276.59,358.375c0,.307.005.479.005.5a.4.4,0,0,1-.069.233l-.66-.007a.4.4,0,0,1-.065-.217c0-.022,0-.2-.005-.518-.045-4.261-.344-33.5-.19-42.761.139-8.543-1.955-25.2-1.976-25.37a.477.477,0,0,1,0-.086c1.416-15.953,5.37-56.82,5.41-57.231a.4.4,0,1,1,.79.079c-.04.411-3.985,41.2-5.4,57.18.121.963,2.114,17.058,1.976,25.441-.152,9.269.147,38.557.19,42.756" transform="translate(-131.25 -109.742)" fill="#3a3e6b"/>
            <path id="Path_893952" data-name="Path 893952" d="M200.922,473.139l-.7,12.491-9.283.077-.8-12.685Z" transform="translate(-91.203 -223.216)" fill="#9f5927"/>
            <path id="Path_893953" data-name="Path 893953" d="M149.3,508.2h33.122a4.759,4.759,0,0,0,.436-1.867c.207-2.843-.686-7.382-1.123-10.243-.054-.334-.1-.646-.134-.929a10.021,10.021,0,0,1-.1-1.168c0-2.335-2.037-1.935-2.037-1.935-3.352,3.336-7.147-1.667-9.363-.026,0,0-.954.694-3.585,3.1s-7.1,3.986-10.909,5.6c-4.915,2.085-6.309,4.169-6.581,5.6a2.657,2.657,0,0,0,.272,1.867" transform="translate(-71.457 -232.027)" fill="#446048"/>
            <path id="Path_893954" data-name="Path 893954" d="M149.3,521.287h33.122a4.759,4.759,0,0,0,.436-1.867h-33.83a2.658,2.658,0,0,0,.272,1.867" transform="translate(-71.457 -245.11)" fill="#2a3f2d"/>
            <path id="Path_893955" data-name="Path 893955" d="M205.29,511.306h.984a7.443,7.443,0,0,1-1.78-5.383,9.517,9.517,0,0,1,3.488-6.727c-.054-.334-.1-.646-.134-.928a10.331,10.331,0,0,0-4.142,7.616,8.24,8.24,0,0,0,1.585,5.423" transform="translate(-97.706 -235.129)" fill="#2a3f2d"/>
            <path id="Path_893956" data-name="Path 893956" d="M181.359,500.5a.548.548,0,0,0,.529-.421.554.554,0,0,0-.4-.671l-2.069-.521a.544.544,0,0,0-.661.4.555.555,0,0,0,.4.672l2.069.521a.512.512,0,0,0,.132.017" transform="translate(-85.738 -235.414)" fill="#f2f6f8"/>
            <path id="Path_893957" data-name="Path 893957" d="M185.021,497.068a.547.547,0,0,0,.529-.42.554.554,0,0,0-.4-.671l-2.069-.522a.545.545,0,0,0-.661.4.555.555,0,0,0,.4.671l2.069.521a.534.534,0,0,0,.132.016" transform="translate(-87.494 -233.794)" fill="#f2f6f8"/>
            <path id="Path_893958" data-name="Path 893958" d="M177.383,502.813a.547.547,0,0,0,.529-.421.554.554,0,0,0-.4-.671l-2.069-.521a.544.544,0,0,0-.661.4.555.555,0,0,0,.4.671l2.069.521a.534.534,0,0,0,.132.016" transform="translate(-83.83 -236.505)" fill="#f2f6f8"/>
            <path id="Path_893959" data-name="Path 893959" d="M173.406,505.034a.547.547,0,0,0,.529-.421.554.554,0,0,0-.4-.671l-2.069-.522a.545.545,0,0,0-.661.4.554.554,0,0,0,.4.671l2.069.522a.541.541,0,0,0,.132.016" transform="translate(-81.923 -237.553)" fill="#f2f6f8"/>
            <path id="Path_893960" data-name="Path 893960" d="M169.07,507.09a.547.547,0,0,0,.529-.421.554.554,0,0,0-.4-.671l-2.069-.522a.545.545,0,0,0-.661.4.554.554,0,0,0,.4.671l2.069.522a.537.537,0,0,0,.132.016" transform="translate(-79.843 -238.523)" fill="#f2f6f8"/>
            <path id="Path_893961" data-name="Path 893961" d="M164.368,508.842a.547.547,0,0,0,.529-.421.554.554,0,0,0-.4-.671l-2.069-.522a.545.545,0,0,0-.661.4.554.554,0,0,0,.4.671l2.069.521a.517.517,0,0,0,.132.017" transform="translate(-77.588 -239.349)" fill="#f2f6f8"/>
            <path id="Path_893962" data-name="Path 893962" d="M219.044,218.9q.84.215,1.688.412c7.225,1.681,14.809,2.366,20.119,1.084,2.621-.632,4.3-3.885,5.369-7.52a14.269,14.269,0,0,0,.746-3.018,58.271,58.271,0,0,0-2.459-19.535c-11.3.858-22.939.835-36.208-3.326,0,0-3.5,6.437-4.941,9.6a66.606,66.606,0,0,0-2.926,7.388l0,.006a19.482,19.482,0,0,0-.872,3.931c-.313,3.6,8.974,8.284,19.487,10.977" transform="translate(-95.717 -88.243)" fill="#953c2d"/>
            <path id="Path_893963" data-name="Path 893963" d="M238.806,197.62h.309a103.212,103.212,0,0,0,13.68-.954.345.345,0,0,0,.286-.393.341.341,0,0,0-.388-.29,102.483,102.483,0,0,1-13.591.946c-6.908.023-16.545-.723-23.169-4.4a.338.338,0,0,0-.462.137.348.348,0,0,0,.135.468c6.655,3.7,16.227,4.489,23.2,4.489" transform="translate(-103.335 -90.831)" fill="#3a3e6b"/>
            <path id="Path_893964" data-name="Path 893964" d="M278.982,224.156a.389.389,0,0,0,.377-.3.393.393,0,0,0-.289-.472,12.287,12.287,0,0,1-4.482-2.428c-3.012-2.517-4.678-6.115-4.951-10.694a.387.387,0,1,0-.773.048c.359,6,3.059,9.446,5.261,11.277a12.8,12.8,0,0,0,4.769,2.562.384.384,0,0,0,.087.011" transform="translate(-128.965 -99.045)" fill="#3a3e6b"/>
            <path id="Path_893965" data-name="Path 893965" d="M205.2,263.525c-3.218,10.011-2.924,15.01-2.924,15.01s2.514,10.262-.169,28.052c-2.015,13.356-3.246,31.964-3.734,40.409-.015.256-.03.5-.043.736-.133,2.359-.2,3.752-.2,3.752l-12.829,1.4s-.105-1.521-.276-4.149c-.016-.233-.032-.477-.048-.729-.933-14.3-3.538-56.068-3.169-71.29.035-1.4.093-2.567.18-3.475.062-.64.152-1.454.266-2.413,1.391-11.663,6.463-45.065,9.98-56.27,2.715-8.641,21.748.209,21.748.209s-5.562,38.747-8.782,48.756" transform="translate(-87.188 -99.462)" fill="#953c2d"/>
            <path id="Path_893966" data-name="Path 893966" d="M201.324,468.72q-.023.383-.043.736l-13.307,1c-.015-.233-.032-.477-.048-.728Z" transform="translate(-90.142 -221.186)" fill="#3a3e6b"/>
            <path id="Path_893967" data-name="Path 893967" d="M234.893,236.073a.4.4,0,0,0,.351-.215.4.4,0,0,0-.167-.542A10.9,10.9,0,0,1,230,227.971a.4.4,0,0,0-.456-.329.4.4,0,0,0-.324.463,11.516,11.516,0,0,0,5.487,7.923.388.388,0,0,0,.183.046" transform="translate(-109.948 -107.42)" fill="#3a3e6b"/>
            <path id="Path_893968" data-name="Path 893968" d="M208.462,361.572a.4.4,0,0,0,.362-.374c.027-.415,2.655-41.577,3.536-50.964.848-9.04-.423-22.036-.543-23.223,2.979-9.245,11.2-46.023,11.283-46.4a.4.4,0,0,0-.3-.48.4.4,0,0,0-.473.3c-.083.373-8.345,37.333-11.29,46.4a.408.408,0,0,0-.018.168c.015.137,1.427,13.8.551,23.147-.881,9.4-3.511,50.573-3.537,50.988a.4.4,0,0,0,.369.427.37.37,0,0,0,.059,0" transform="translate(-99.787 -113.314)" fill="#3a3e6b"/>
            <path id="Path_893969" data-name="Path 893969" d="M214.91,93.325c.264-1-.565-4.559-.564-4.56h0c.025-.147.045-.3.068-.444.042-.268.084-.537.122-.8.008-.031.008-.068.015-.1s.008-.059.012-.089c.008-.067.016-.133.026-.2.469-3.6.589-6.075,1.649-7.908a6.345,6.345,0,0,1,2.754-2.489,17.349,17.349,0,0,1,3.095-1.163c.067-.02.127-.04.2-.059l.046-.012c.642-.18,1.351-.351,2.12-.517.51-.111,1.042-.222,1.612-.331v0h0l.477-.089.706-.135c.227-.037.462-.082.7-.119l1.556-.208h0v0l16.374-2.258.057.011h0l.18.034v0c.338.06,1.013.194,1.922.389.365.073.761.163,1.193.258h0c1.141.254,2.515.579,4,.962.215.055.426.108.647.165.549.142,1.122.3,1.7.462a9.473,9.473,0,0,1,3.537,1.8,8.029,8.029,0,0,1,.643.571,10.375,10.375,0,0,1,2.62,7.4c0,.435-.01.877-.038,1.323a23.8,23.8,0,0,1-.56,3.8c-.056.25-.137.5-.2.757-.111.438-.215.877-.348,1.314-.117.389-.255.778-.387,1.167-.079.232-.146.464-.23.7-.052.144-.1.294-.153.439-.257.717-.512,1.437-.756,2.169h0c-.323.977-.638,1.959-.932,2.942-.081.255-.155.5-.235.752-.109.389-.227.776-.338,1.163-.385,1.349-.746,2.689-1.077,4-.062.246-.123.491-.183.733-.365,1.489-.69,2.937-.971,4.314q-.084.41-.161.809c-.377,1.93-.659,3.707-.83,5.244-.029.237-.05.476-.074.708-.249,2.66-3.334,19.321-3.306,19.76-21.2,4.707-35.217-3.609-36.208-3.326.082-.6-1.529-35.293-.486-39.333" transform="translate(-102.814 -33.904)" fill="#9f5927"/>
            <path id="Path_893970" data-name="Path 893970" d="M280.1,91.012a.36.36,0,0,0,.032.037l.1.109.319.354.35.394.707.806,1.415,1.645q1.409,1.663,2.772,3.368c.9,1.137,1.8,2.282,2.669,3.437s1.717,2.322,2.545,3.492c1.648,2.342,3.183,4.732,4.537,7.123.673,1.2,1.3,2.4,1.843,3.583.274.594.528,1.185.76,1.766s.44,1.155.623,1.715.328,1.1.448,1.623a11.43,11.43,0,0,1,.246,1.451l.019.168.008.155a2.839,2.839,0,0,1,.016.3c0,.03,0,.061,0,.093a1.691,1.691,0,0,1,0,.191l-.008.27-.022.314,0,.03-.006.089-.014.1-.025.207c-.026.261-.084.576-.13.875s-.118.633-.178.952-.14.657-.217.993c-.157.672-.328,1.357-.51,2.05-.358,1.386-.761,2.8-1.185,4.212s-.868,2.842-1.329,4.268-.928,2.855-1.407,4.286l-1.453,4.292-1.481,4.264-.026.071a4.8,4.8,0,0,0,2.874,6.094,4.68,4.68,0,0,0,5.729-2.274l.548-1.054c.179-.348.36-.694.533-1.043l1.041-2.091c.689-1.4,1.375-2.8,2.031-4.213s1.314-2.836,1.945-4.273,1.26-2.884,1.855-4.357,1.182-2.967,1.739-4.507q.412-1.156.8-2.361c.13-.4.253-.819.38-1.227.121-.427.242-.844.358-1.286s.229-.885.329-1.378l.078-.362.037-.179.036-.2.134-.8c.04-.279.066-.585.1-.878s.037-.576.056-.866.016-.567.018-.846v-.42l-.016-.408a24.342,24.342,0,0,0-.32-3.114c-.166-.988-.368-1.944-.609-2.854s-.5-1.8-.8-2.657c-.139-.434-.294-.85-.448-1.273s-.314-.832-.48-1.235c-.657-1.631-1.377-3.184-2.133-4.693a92.579,92.579,0,0,0-4.951-8.572c-.878-1.364-1.788-2.7-2.711-4.014s-1.87-2.612-2.838-3.885-1.952-2.531-2.957-3.774c-.5-.622-1.009-1.244-1.53-1.857l-.79-.925-.4-.467-.442-.5a7.049,7.049,0,0,0-10.06-.559,7.3,7.3,0,0,0-.551,10.211" transform="translate(-133.483 -37.258)" fill="#9f5927"/>
            <path id="Path_893971" data-name="Path 893971" d="M313.3,205.182s-.1,9.185-.9,12.355-7.028,3.891-10.66,3.675-.948-11.829-.948-11.829-3.248,1.092-2.7-.627c.366-1.146,4.791-5.414,4.791-5.414Z" transform="translate(-142.954 -95.956)" fill="#9f5927"/>
            <path id="Path_893972" data-name="Path 893972" d="M303.93,225.346l.029.007c1.494.28,6.716-.991,7.063-2.82a44.965,44.965,0,0,0,.506-5.16c.157-3.826-.368-4.585-.776-4.823-1.242-.726-6.3.425-7.3.663a.351.351,0,0,0-.258.422.346.346,0,0,0,.416.262c2.216-.527,6.022-1.193,6.8-.738.06.035.583.45.43,4.185a44.022,44.022,0,0,1-.495,5.057c-.225,1.186-4.82,2.532-6.258,2.261a.347.347,0,0,0-.4.281.352.352,0,0,0,.249.4" transform="translate(-145.426 -100.189)" fill="#7c310b"/>
            <path id="Path_893973" data-name="Path 893973" d="M309.677,217.529a.328.328,0,0,0,.119.012l4.4-.354a.351.351,0,0,0-.055-.7l-4.4.354a.352.352,0,0,0-.064.688" transform="translate(-148.42 -102.158)" fill="#7c310b"/>
            <path id="Path_893974" data-name="Path 893974" d="M309.405,223.732a.329.329,0,0,0,.119.011l4.4-.354a.351.351,0,0,0-.055-.7l-4.4.354a.352.352,0,0,0-.064.689" transform="translate(-148.29 -105.085)" fill="#7c310b"/>
            <path id="Path_893975" data-name="Path 893975" d="M309.213,229.208a.348.348,0,0,0,.126.011l4.072-.425a.351.351,0,0,0-.071-.7l-4.072.425a.352.352,0,0,0-.056.688" transform="translate(-148.197 -107.636)" fill="#7c310b"/>
            <path id="Path_893976" data-name="Path 893976" d="M319.061,159.837a1.7,1.7,0,0,1,0,.191l-.008.27-.022.314c.253-.116.585-.264.976-.429,1.742-.738,4.606-1.807,6.381-1.691a.345.345,0,0,0,.364-.325.35.35,0,0,0-.318-.37,15,15,0,0,0-5.442,1.235c-.486.186-.938.372-1.329.539-.223.1-.424.185-.6.266" transform="translate(-153.03 -74.459)" fill="#7c310b"/>
            <path id="Path_893977" data-name="Path 893977" d="M320.3,158.327a.34.34,0,0,0,.313-.136,33.248,33.248,0,0,1,3.539-3.78.351.351,0,0,0,.027-.491.338.338,0,0,0-.483-.027,33.2,33.2,0,0,0-3.629,3.878.351.351,0,0,0,.067.486.337.337,0,0,0,.167.068" transform="translate(-153.492 -72.579)" fill="#7c310b"/>
            <path id="Path_893978" data-name="Path 893978" d="M237.364.119s8.382-1.311,12.339,4.758c3.358,5.152,1.714,8.732,3.244,11.575s4.79,2.84,4.24,7.56,4.375,3.27,4.738,8.066-2.2,5.691,1.275,7.438,7.251,8.771,4.114,12.49c-4.5,5.331-19.527-3.873-28.032,1.761s-18.682,3.715-18.411-.828,5.855-7.265,3.477-10.546-4.22-7.8-2.037-12.037,1.078-3.714.321-8.189c-.466-2.752.078-6.506.4-9.7.381-3.83.475-5.39,3.911-8.345C232.431-.6,237.364.119,237.364.119" transform="translate(-105.941 0)" fill="#1a1c35"/>
            <path id="Path_893979" data-name="Path 893979" d="M232.781,68.706s20.063.243,26.019,8.93-6.862,24.647-6.412,40.535a125.723,125.723,0,0,1-2.113,27.58s-29.723.261-43.407-4.975c0,0,2.131-46.744,4.133-55.126A23.636,23.636,0,0,1,223.113,70.51c3.714-1.852,9.668-1.8,9.668-1.8" transform="translate(-99.228 -32.422)" fill="#eebc32"/>
            <path id="Path_893980" data-name="Path 893980" d="M311.973,187.334s9.15,3.123,10.335,4.06a2.628,2.628,0,0,0,1.015-2.337l-10.684-3.829s-1.268-.211-.666,2.107" transform="translate(-149.565 -87.405)" fill="#ed8888"/>
            <path id="Path_893981" data-name="Path 893981" d="M285.679,76.172s6.046.1,18,18.9,10.462,26.757,9.847,28.543a88.009,88.009,0,0,1-6.864,13.978l-10.683-3.829s3.595-12.855,1.735-16.789-14.238-21.287-14.238-21.287-15.771-15.879,2.2-19.519" transform="translate(-132.904 -35.945)" fill="#eebc32"/>
            <path id="Path_893982" data-name="Path 893982" d="M208.466,76.731s-10.082-.8-12.514,19.219c-2.358,19.405-3.046,26.411-3.046,26.411-2.81,1.479-7.232,24.053-8.672,25.839,0,0,7.649-.572,7.969,4.569,0,0,7.97-9.012,11.09-14.91,3.6-6.8,7.382-39.424,7.382-39.424Z" transform="translate(-88.371 -36.207)" fill="#eebc32"/>
            <path id="Path_893983" data-name="Path 893983" d="M291.843,109.324a20.1,20.1,0,0,0,5.265,11.366" transform="translate(-139.988 -51.589)" fill="none" stroke="#7a2323" stroke-miterlimit="10" stroke-width="1.182"/>
            <path id="Path_893984" data-name="Path 893984" d="M244.779,63.866c5,5.611,13.787.007,13.952-2.253a39.668,39.668,0,0,1-1.9-12.074l-12.659,5.286q.073.57.147,1.145a51.878,51.878,0,0,1,.5,5.5,19.568,19.568,0,0,1-.044,2.4" transform="translate(-117.123 -23.377)" fill="#9f5927"/>
            <path id="Path_893985" data-name="Path 893985" d="M244.958,63.968c6.689-1.847,10.757-9.125,10.757-9.125l-11.257,3.629a51.927,51.927,0,0,1,.5,5.5" transform="translate(-117.259 -25.88)" fill="#1a1c35"/>
            <path id="Path_893986" data-name="Path 893986" d="M233.037,39.224s-1.132-3.171-3.68-2.333-2.294,9.547,2.6,9.071Z" transform="translate(-109.25 -17.342)" fill="#7c310b"/>
            <path id="Path_893987" data-name="Path 893987" d="M250.346,32.527c-1.228,3.521-10.01,7.853-13.721,6.243-2.252-.978-4.278-3.018-5.505-7.627-.007-.024-.013-.049-.019-.073-.072-.273-.139-.54-.2-.806-.114-.48-.213-.948-.3-1.4-.019-.106-.039-.211-.055-.314-.047-.279-.087-.55-.119-.811-.041-.322-.07-.627-.086-.914-.267-4.651-.662-9.873,3.446-12.9s10.609-4,14.474.068c0,0,2.88,3.557,2.942,10.288s.028,5.7-.86,8.242" transform="translate(-110.416 -5.329)" fill="#9f5927"/>
            <path id="Path_893988" data-name="Path 893988" d="M245.033,54.689a1.379,1.379,0,0,1-.164-.033.223.223,0,0,1-.153-.273.217.217,0,0,1,.268-.155,1.389,1.389,0,0,0,1.336-.395.216.216,0,0,1,.309-.014.224.224,0,0,1,.014.313,1.79,1.79,0,0,1-1.61.556" transform="translate(-117.379 -25.37)" fill="#7c310b"/>
            <path id="Path_893989" data-name="Path 893989" d="M249.236,35.624c.078.617.46,1.077.855,1.026s.651-.593.573-1.211-.46-1.077-.855-1.026-.651.594-.574,1.211" transform="translate(-119.544 -16.238)" fill="#1a1c35"/>
            <path id="Path_893990" data-name="Path 893990" d="M236.7,36.769c.078.618.461,1.077.855,1.026s.652-.594.574-1.211-.461-1.077-.855-1.026-.651.594-.574,1.211" transform="translate(-113.532 -16.778)" fill="#1a1c35"/>
            <path id="Path_893991" data-name="Path 893991" d="M245.881,29.281a3.562,3.562,0,0,1,3.372-.092c.962.521.561,1.524-.636,1.211a3.883,3.883,0,0,0-2.2-.078.59.59,0,0,1-.538-1.041" transform="translate(-117.82 -13.589)" fill="#1a1c35"/>
            <path id="Path_893992" data-name="Path 893992" d="M236.277,29.666a3.578,3.578,0,0,0-3.126,1.288c-.675.869.087,1.625,1.061.851a3.919,3.919,0,0,1,1.982-.965.593.593,0,0,0,.082-1.173" transform="translate(-111.712 -13.991)" fill="#1a1c35"/>
            <path id="Path_893993" data-name="Path 893993" d="M242.012,39.31a2.458,2.458,0,0,0,.516-.008.325.325,0,0,0-.074-.645A1.888,1.888,0,0,1,241,38.2c.983-1.4,1.485-4.854,1.506-5.01a.324.324,0,0,0-.271-.369.321.321,0,0,0-.363.275c-.153,1.076-.727,4.053-1.535,4.9a.328.328,0,0,0-.019.43,2.618,2.618,0,0,0,1.694.887" transform="translate(-115.239 -15.484)" fill="#1a1c35"/>
            <path id="Path_893994" data-name="Path 893994" d="M231.431,46.458c-.072-.273-.139-.54-.2-.806-.114-.48-.213-.948-.3-1.4-.019-.106-.038-.211-.055-.314.076-.007.152-.014.23-.018,1.721-.116,3.156.361,3.2,1.064.046.682-1.231,1.329-2.88,1.472" transform="translate(-110.745 -20.718)" fill="#7c310b"/>
            <path id="Path_893995" data-name="Path 893995" d="M257.267,41.461c.046.7-1.312,1.369-3.034,1.486s-3.155-.36-3.2-1.064,1.312-1.369,3.034-1.486,3.155.36,3.2,1.064" transform="translate(-120.411 -19.055)" fill="#7c310b"/>
            <path id="Path_893996" data-name="Path 893996" d="M258.124,14.037s2.307,7.223,4.418,8.634,3.806-2.17,3.806-2.17-4.434-11.044-8.224-6.464" transform="translate(-123.814 -6.099)" fill="#1a1c35"/>
            <path id="Path_893997" data-name="Path 893997" d="M240.991,13.384s4.153,5.919,9.275,4.43,1.593-5.776,1.593-5.776-9.629-3.819-10.869,1.346" transform="translate(-115.596 -5.039)" fill="#1a1c35"/>
            <path id="Path_893998" data-name="Path 893998" d="M235.08,12.829s-2.432,7.808-7.484,6.556,1.914-9.031,5.282-8.776,2.2,2.22,2.2,2.22" transform="translate(-108.316 -5.004)" fill="#1a1c35"/>
            <path id="Path_893999" data-name="Path 893999" d="M267.317,32.685s1.409-2.775,4.166-1.7,1.988,10.643-3.372,9.836Z" transform="translate(-128.223 -14.504)" fill="#9f5927"/>
            <path id="Path_894000" data-name="Path 894000" d="M264.064,23.727s.95,1.277.911,5.919-.545,5.806-.545,5.806,2.847-3.815,2.056-10.238c-1.164-9.47-2.422-1.487-2.422-1.487" transform="translate(-126.663 -9.712)" fill="#1a1c35"/>
            <path id="Path_894001" data-name="Path 894001" d="M269.865,39.6a.258.258,0,0,0,.2.3.252.252,0,0,0,.055.006.256.256,0,0,0,.246-.206,5.312,5.312,0,0,1,.8-1.775c.543.448.979.866.985.871a.243.243,0,0,0,.178.07.255.255,0,0,0,.181-.079.263.263,0,0,0-.01-.365c-.02-.019-.455-.436-1.013-.9a3.089,3.089,0,0,1,1.548-.943.257.257,0,0,0,.185-.311.252.252,0,0,0-.306-.19c-2.424.6-3.019,3.4-3.043,3.514" transform="translate(-129.443 -17.023)" fill="#1a1c35"/>
            <path id="Path_894002" data-name="Path 894002" d="M245.946,48.74a23.8,23.8,0,0,0-5.073.623" transform="translate(-115.539 -23)" fill="none" stroke="#7c310b" stroke-linecap="round" stroke-miterlimit="10" stroke-width="1.225"/>
            <path id="Path_894003" data-name="Path 894003" d="M206.868,166.541s5.985-36.906,7.282-43.238" transform="translate(-99.228 -58.186)" fill="none" stroke="#7a2323" stroke-miterlimit="10" stroke-width="1.182"/>
            <path id="Path_894004" data-name="Path 894004" d="M252.7,75.021c-.959-8.121,11.234-14.46,11.234-14.46a19.948,19.948,0,0,1,8.141,5.353l-6.418,3.593c-8.314,6.472-5.227,9.607-4.624,17.67l18,20.426s-23.157-5.695-26.332-32.582" transform="translate(-121.184 -28.578)" fill="#1f3443"/>
            <path id="Path_894005" data-name="Path 894005" d="M213.588,118.395s3.1-14.119,1.585-24.3,3.253-15.983,3.253-15.983a5.978,5.978,0,0,0,3.714-3.221l-.37-3.229A29.2,29.2,0,0,0,213.6,80.33c-3.312,5.528-.426,34.117-.426,34.117l-.22-13.1" transform="translate(-101.692 -33.817)" fill="#1f3443"/>
          </g>
        </g>
      </g>
    </g>
  </g>
</svg>
