<svg xmlns="http://www.w3.org/2000/svg" xmlns:xlink="http://www.w3.org/1999/xlink" width="400" height="374.693" viewBox="0 0 400 374.693">
  <defs>
    <clipPath id="clip-path">
      <rect id="Rectangle_408942" data-name="Rectangle 408942" width="361.124" height="315.951" fill="none"/>
    </clipPath>
    <clipPath id="clip-path-3">
      <rect id="Rectangle_408933" data-name="Rectangle 408933" width="291.646" height="291.645" fill="none"/>
    </clipPath>
  </defs>
  <g id="Group_1119048" data-name="Group 1119048" transform="translate(-179.711 -897)">
    <g id="Group_1119049" data-name="Group 1119049">
      <g id="Group_1118637" data-name="Group 1118637" transform="translate(-839.957 -6452)">
        <path id="Path_891656" data-name="Path 891656" d="M25,0H375c13.807,0,25,7.57,25,16.909V357.785c0,9.338-11.193,16.909-25,16.909H25c-13.807,0-25-7.57-25-16.909V16.909C0,7.57,11.193,0,25,0Z" transform="translate(1019.668 7349)" fill="#fff0c5"/>
      </g>
      <g id="Group_1119047" data-name="Group 1119047" transform="translate(198.711 926)">
        <g id="Group_1119046" data-name="Group 1119046" clip-path="url(#clip-path)">
          <g id="Group_1119045" data-name="Group 1119045">
            <g id="Group_1119044" data-name="Group 1119044" clip-path="url(#clip-path)">
              <g id="Group_1119043" data-name="Group 1119043" transform="translate(15.185)" opacity="0.6" style="mix-blend-mode: multiply;isolation: isolate">
                <g id="Group_1119042" data-name="Group 1119042">
                  <g id="Group_1119041" data-name="Group 1119041" clip-path="url(#clip-path-3)">
                    <path id="Path_923450" data-name="Path 923450" d="M300.551,101.355a147.294,147.294,0,0,1,3.912,14.817,144.861,144.861,0,0,1,3.025,25.926c.019.676.033,1.354.039,2.028q.034,2.821-.043,5.63A145.83,145.83,0,0,1,68.268,257.738v0a145.075,145.075,0,0,1-45.39-67.446q-1.473-4.6-2.629-9.225A145.725,145.725,0,0,1,207.386,7.367q4.4,1.458,8.692,3.186,3.887,1.567,7.673,3.348a145.463,145.463,0,0,1,76.8,87.454" transform="translate(-15.892 0)" fill="#5a9fba"/>
                    <path id="Path_923451" data-name="Path 923451" d="M208.254,7.367c-1.582,1.7-4.09,2.585-6.224,3.478-3.584,1.5-1.69,7.959-1.1,12.011a8.115,8.115,0,0,1-2.111,6.651c-3.66.728-1.765,7.6-5.181,7.7s-3.066,4.316-6.221,4.883-4.023,6.181-8.1,8.378-5.71-1.426-6.991-3.6.655-4.462,1.436-6.717,3.151-5.26,4.375-6.652-.006-1.835-1.673-5.222-1.584-4.161-3.465-6.392-7.859-.319-11.216-1.162-3.325,1.065-4.845,4.134-.339,7.283-2.79,6.65-5.738.835-7.4-.464-4.062-2.784-1.827-4.918,1.645-3.2-.405-3.875a18.23,18.23,0,0,0-6.918-1.287c-2.888.093-7.394-1.468-10.577.3s-1.982,3.106-.766,5.165,7.83-2.285,8.081-.811-4.043,4.744-7.893,7.644-4.4,1.187-6.828,5.412-5.167,3.658-7.7,5.469-4.263,6.478-3.054,8.871,6.386.847,9.894,1.726,5.834-.535,7.3,2.663,3.245,3.189,4.222,2.431-.746-1.985.468-5.486,7.69-7.581,8.256-13.1,4.481-7.887,6.26-8.233,3.346,3.154,4.557,5.548,2.793,1.772,3.389-.529,3.38-2.641,4.711-1.954,1.919,2.164,2.88,5.862,4.792,2.465,4.473,4.942-6.528,4.611-11.1,6.3-2.793,3.785-.957,7.425,4.253,2.864,1.307,8.253-8.569-.369-11.5,3.682-10.3,15.752-14.315,21.264-4.529,18.851-2.824,23.646-1.6,8.017-7.1,5.942-8.365-6.329-11.227-6.409-10.8,4.292-12.294,7.44-3.718,8.7-4.595,10.646,3.154,9.328,7.975,9.284,8.5-.549,10.5-4.7,7.867-2.52,6.61,1.888,3.98,3.395,6.184,4.025,2.51,2.975,3.938,6.744,6.714,4.3,9.047-.228,8.947-3.312,13.577-4.129,3.936-4.373,10.641-4.965,6.286.877,12.467,4.9,8.214-3.519,14.193-1.513,2.988,10.023,11.838,9.188,11.3-3.618,14.563-2.441,6.166,5.366,13.81,4.918,6.6,8.115,3.5,15.783.308,13.468.142,21.973S218.984,213.9,216,217.076s-3,10.078-1.248,14.856-3.9,6.584-6.549,10.1.9,14.613,3.353,22.276,2.643,8.94-2.642,8.41-10.832-12.99-10.832-12.99l-2.585-8.067c-2.584-8.068-12.38-12.268-17.845-20.306s-.836-19.968-8.9-23.614-15.384-1.521-17.185-7.394-2.811-6.438-7.727-9.979-4.154-5.341-4.916-9.1-1.767-3.434-2.074-5.782,1.885-6.609,2.853-9.145-.544-5.162-3.946-6.074-7.688,4.465-12.225,2.8-7.379-10.2-9.728-9.892-5.233.674-6.958-.551-5.307-1.636-7.9-.7-10.242,5.17-15.228,2.1-4.578-6.649-8.63-9.58-6.852-9.592-8.8-9.079.405,2.651,1.169,6.075,4.759,8.263,1.784,7.657-8.668-9.009-8.668-9.009l-1.888-4.511c-1.891-4.51-3.277-6.068-6.265-8.447s-7.8-9.067-7.4-14.085.1-8.705,1.127-15.928,3.573-7.6,4.47-9.66a5.3,5.3,0,0,0-3.941-6.743c-3.543-.648-2.687-4.922-6.754-6.512-1.242-.483-2.848-.167-4.524.373A145.938,145.938,0,0,1,52.976,49.672a22.811,22.811,0,0,0,2.375-.366c4.026-.958,11.019-1.529,17.522-5.7,2.083-1.334,3.12-4.583,5.72-5.583s9.189,1.614,9.047-.565-5.306-1.637-4.332-4.5,5.276-4.693,12.261-6.15,36.424-14.477,38.309-14.578-.025,2.26,2.358,2.415,3.677-3.1,5.936-3.071.062,1.234,2.252,2.338c1.038.526.9-8.575,7.334-10.5a15.867,15.867,0,0,0,5.257-3.3,145.183,145.183,0,0,1,51.239,7.259" transform="translate(-16.76 0)" fill="#bce7f6"/>
                    <path id="Path_923452" data-name="Path 923452" d="M151.39,129.2s-9.574-1.771-14.875.427-7.3,5.339-5.4,6.065,3.625-.66,7.468,1.445,4.326-4.722,8.344-4.674,4.69-1.5,4.459-3.263" transform="translate(-20.99 -5.722)" fill="#bce7f6"/>
                    <path id="Path_923453" data-name="Path 923453" d="M161.315,129.36s-7.638,3.615-7.652,7.288,3.265-1.713,7.477-1.061,6.693-.977,6.42-3.39-2.806-4.843-6.245-2.838" transform="translate(-22.025 -5.726)" fill="#bce7f6"/>
                    <path id="Path_923454" data-name="Path 923454" d="M173.29,129.369s-2.046,1.425-1.464,3.24,3.988,2.559,5.628-.135-1.822-4.125-4.164-3.105" transform="translate(-22.829 -5.744)" fill="#bce7f6"/>
                    <path id="Path_923455" data-name="Path 923455" d="M304.319,85.557c.229,5.616,1.3,9.264-2.641,9.671-6.443.669-7.964,2.756-22.8,2.061S270.368,83.926,263.9,77.152s-12.648-2.488-15.163-15.144,8.982-15.185,3.176-23.706c-2.9-4.26-1.967-9.44-.3-13.552a145.087,145.087,0,0,1,52.715,60.807" transform="translate(-26.241 -1.102)" fill="#bce7f6"/>
                    <path id="Path_923456" data-name="Path 923456" d="M316.574,121.583A145.412,145.412,0,0,1,300.9,222.672c-.434-8.369,2.388-21.447-7.534-32.033-15.209-16.229,6.711-19.073,2.522-30.552s-8.172-14.306,5.222-23.726a76.754,76.754,0,0,0,15.46-14.779" transform="translate(-28.002 -5.413)" fill="#bce7f6"/>
                    <path id="Path_923457" data-name="Path 923457" d="M284.7,113.74s-6.549.9-8.154,6.03-1.456,5.6-.587,10.444,4.347-1.905,7.194-3.158,6.364,1.722,6.839-3.729.27-9.831-5.292-9.587" transform="translate(-27.441 -5.063)" fill="#bce7f6"/>
                  </g>
                </g>
              </g>
              <path id="Path_923458" data-name="Path 923458" d="M51.489,67.708a10.909,10.909,0,1,0-19.731,6.4h0l8.823,14.7,8.823-14.7h0a10.841,10.841,0,0,0,2.087-6.4M40.581,73a5.295,5.295,0,1,1,5.3-5.3,5.295,5.295,0,0,1-5.3,5.3" transform="translate(-1.321 -2.529)" fill="#bd4761"/>
              <path id="Path_923459" data-name="Path 923459" d="M306.329,67.708a10.909,10.909,0,1,0-19.731,6.4h0l8.823,14.7,8.823-14.7h0a10.841,10.841,0,0,0,2.087-6.4M295.421,73a5.295,5.295,0,1,1,5.3-5.3,5.3,5.3,0,0,1-5.3,5.3" transform="translate(-12.666 -2.529)" fill="#3b7564"/>
              <path id="Path_923460" data-name="Path 923460" d="M272.72,60.025l-5.628-17.791-2.155,5.556c-11.361-9.336-47.075-35.081-96.723-36.248-60.7-1.425-97.759,32.719-97.759,32.719L59.967,55.748A152.828,152.828,0,0,1,212.215,26.662q4.579,1.637,9.043,3.556,4.039,1.74,7.968,3.7a153.37,153.37,0,0,1,18.127,10.66q6.26,4.282,12.087,9.188l-4.329,2.717Z" transform="translate(-2.67 -0.512)" fill="#444"/>
              <path id="Path_923461" data-name="Path 923461" d="M361.124,309.023s-76.207,20.5-180.561,20.5S0,309.023,0,309.023s5.238-.254,14.769-.639c11.539-.467,29.371-1.123,51.814-1.74h.009q2.339-.066,4.761-.13c.1,0,.16,0,.16,0,62.119-1.638,156.7-2.871,250.943.741h.01q12.238.472,24.469,1.053,7.1.338,14.19.719" transform="translate(0 -13.574)" fill="#c2c2c2"/>
              <path id="Path_923462" data-name="Path 923462" d="M347.621,308.3a1263.6,1263.6,0,0,1-166.371,10.81A1265.276,1265.276,0,0,1,15.457,308.384c11.538-.467,29.37-1.123,51.813-1.74h.01q2.339-.066,4.761-.13c.1,0,.159,0,.159,0,62.12-1.639,156.7-2.872,250.943.74h.01q12.24.473,24.469,1.053" transform="translate(-0.688 -13.574)" fill="#a1a1a1"/>
              <path id="Path_923463" data-name="Path 923463" d="M87.648,255.571l-19.7,23.021L57.3,271.563,80.4,231.6Z" transform="translate(-2.551 -10.31)" fill="#2a2b2b"/>
              <path id="Path_923464" data-name="Path 923464" d="M62.188,298.549c-.6-2.1-1.714-6.337-2.164-7.844l12.061-14.329-13.509-9.141-8.933,16.26a114.659,114.659,0,0,0-8.87,9.483l28.179,19.609a2,2,0,0,0,.027-1.97c-1.219-2.1-6.024-9.368-6.792-12.068" transform="translate(-1.815 -11.897)" fill="#f3803d"/>
              <path id="Path_923465" data-name="Path 923465" d="M66.943,316.572,38.764,296.963l1.921-2.786,28.178,19.609Z" transform="translate(-1.726 -13.096)" fill="#ffefdf"/>
              <path id="Path_923466" data-name="Path 923466" d="M87.212,209.624l-6.976-50.619h24.917c1.649,5.578,3.73,13.773,3.665,19.442-.554,10.509-1.329,22.776-2.077,33.154-.866,11.993-1.726,21.453-2.109,22.766-.8,2.734-3.247,4.041-5.186,5.439l-11.2-13.295c.75-.531,1.191-.781,1.191-.781Z" transform="translate(-3.572 -7.079)" fill="#683534"/>
              <path id="Path_923467" data-name="Path 923467" d="M63.288,169.4H85.479l10.957,54.47,2.1,10.415,9.385,45.749-11.835,4.346c-5.565-11.586-12.056-22.315-12.76-23.5-.011-.02-.024-.038-.032-.053-1.239-1.91-2.219-19.665-2.219-19.665s-.119-.257-.341-.73c-.015-.033-.032-.069-.048-.105-.1-.215-.222-.473-.356-.762-.045-.1-.093-.2-.14-.3q-.3-.633-.674-1.443c-.078-.168-.159-.338-.243-.515-.042-.093-.087-.185-.132-.281-1.005-2.15-2.337-4.988-3.829-8.145-5.14-10.9-12.183-25.649-14.369-29.342-2.629-4.44.5-21.434,2.349-30.14" transform="translate(-2.668 -7.541)" fill="#444"/>
              <path id="Path_923468" data-name="Path 923468" d="M63.288,169.4h2.677c-1.263,10.126-2.9,24.956-1.958,27.325.967,2.425,10,19.713,15.956,31.052q.278.539.554,1.057c.02.038.042.077.059.117q.377.718.734,1.392a1.063,1.063,0,0,1,.051.1c.069.129.135.258.2.383q.549,1.052,1.039,1.976c.108.206.216.41.318.6s.2.389.3.574c.087.162.17.321.248.473s.161.306.236.449c.06.111.118.219.171.324.048.09.093.18.14.263.087.164.168.321.246.467.031.053.057.105.084.159l.85,1.611s.59,19.02,2.111,22.2c.009.021.02.045.032.072.735,1.6,6.956,12.8,11.5,24.387H96.082c-5.565-11.586-12.056-22.315-12.76-23.5-.011-.02-.024-.038-.032-.053-1.239-1.91-2.219-19.665-2.219-19.665l-.027-.056c-.014-.033-.035-.075-.06-.132a.4.4,0,0,1-.017-.039.786.786,0,0,1-.039-.08c-.015-.033-.033-.069-.051-.108-.042-.093-.09-.195-.147-.314-.015-.033-.03-.069-.048-.105-.1-.215-.219-.469-.356-.762-.045-.1-.093-.2-.14-.3-.2-.419-.422-.9-.674-1.443-.081-.168-.159-.338-.243-.515-.042-.093-.087-.185-.132-.281-.942-2.015-2.17-4.634-3.55-7.556-.09-.195-.183-.393-.279-.59-5.14-10.9-12.183-25.649-14.369-29.342-2.629-4.44.5-21.434,2.349-30.14" transform="translate(-2.668 -7.541)" fill="#2a2b2b"/>
              <path id="Path_923469" data-name="Path 923469" d="M135.562,304.273c-2.371-.332-10.922-1.024-13.481-2.07-1.986-.812-6.857-2.543-8.3-3.111l-3.95-21.325-16.678,5.06,9.636,19.95a112.779,112.779,0,0,0,1.96,12.637l32.323-9.923a1.969,1.969,0,0,0-1.511-1.218" transform="translate(-4.147 -12.366)" fill="#f3803d"/>
              <path id="Path_923470" data-name="Path 923470" d="M138.606,309.964l-32.323,9.923-.992-3.181,32.322-9.923Z" transform="translate(-4.687 -13.657)" fill="#ffefdf"/>
              <path id="Path_923471" data-name="Path 923471" d="M17.232,249.876s4.146,30.236,36.469,30.452l-2.354-2.881S26.973,274.155,22.162,251.6Z" transform="translate(-0.767 -11.124)" fill="#434244"/>
              <path id="Path_923472" data-name="Path 923472" d="M120.452,138.908l2.164-.5a5.356,5.356,0,0,1,5.331-3.125c5.682.326,10.217,5.869,12,10.768.366,1.025,1.923.364,1.556-.653-2.137-5.872-8.66-13.215-15.725-11.686-2.71.585-4.37,2.608-5.324,5.191" transform="translate(-5.362 -5.944)" fill="#444"/>
              <path id="Path_923473" data-name="Path 923473" d="M153.778,122.992c-.448-.636-11.923,4.344-11.923,4.344a8.856,8.856,0,0,0,.628-5.817c0-.018-.01-.036-.013-.054-.05-.174-.134-.353-.3-.4a.468.468,0,0,0-.246.017,2.481,2.481,0,0,0-1.474,1.439,18.959,18.959,0,0,0-.636,2.023,10.5,10.5,0,0,1-2.156,3.395c-1.462,1.766-.24,5.73-.24,5.73s-.276.185-.65.443l3.138,5.492,2.4-1.4,1.763.173c1.276-.045,11.743-5.878,11.566-6.661a5.2,5.2,0,0,0-.2-.654c-.125-.333-.265-.639-.359-.843-.072-.15-.12-.239-.12-.239a7.79,7.79,0,0,0,.03-.96,4.445,4.445,0,0,0-.092-.919.89.89,0,0,0-.37-.639,5.407,5.407,0,0,0-1.9.273c-2.394.565-6.135,1.7-6.048,1.427.124-.384,7.5-4.876,7.5-4.876a1.683,1.683,0,0,0-.009-.616,1.739,1.739,0,0,0-.289-.684" transform="translate(-6.089 -5.389)" fill="#b77158"/>
              <path id="Path_923474" data-name="Path 923474" d="M155.588,129.355c-.205.091-.417.181-.632.265a19.144,19.144,0,0,1-3.332.968c-.821.159-1.361.211-1.425.216.055-.031.532-.289,1.278-.651.8-.387,1.9-.9,3.14-1.384.3-.118.592-.227.876-.333a4.483,4.483,0,0,1,.094.919" transform="translate(-6.687 -5.718)" fill="#8e503d"/>
              <path id="Path_923475" data-name="Path 923475" d="M156.127,131.495a20.246,20.246,0,0,1-3.836,1.17,20.394,20.394,0,0,1,3.481-2.013c.094.2.233.51.355.843" transform="translate(-6.78 -5.816)" fill="#8e503d"/>
              <path id="Path_923476" data-name="Path 923476" d="M137.506,135.441c.03-.021.067-.041.1-.062a4.685,4.685,0,0,0,.47-.347,1.562,1.562,0,0,0,.291-.37,2.034,2.034,0,0,0,.1-1.252,11.178,11.178,0,0,1-.157-4.122c.393-1.588,1.613-2.831,2.292-4.322a11.214,11.214,0,0,1,1.535-3.194c.1-.1.206-.2.316-.311-.05-.167-.131-.352-.3-.395a.551.551,0,0,0-.247.019,2.462,2.462,0,0,0-1.472,1.442,18.838,18.838,0,0,0-.637,2.02,10.534,10.534,0,0,1-2.152,3.395c-1.467,1.768-.248,5.732-.248,5.732s-.292.14-.645.27c-.025.008-.054.02-.084.032l-.259.107Z" transform="translate(-6.073 -5.389)" fill="#cc836d"/>
              <path id="Path_923477" data-name="Path 923477" d="M141.183,136.147l.221-.115a3.317,3.317,0,0,0,.561-.392,4.014,4.014,0,0,0,1.252-4.17,3.28,3.28,0,0,0-.252-.636l-.121-.217s0,.091-.012.247-.02.381-.049.648a11.909,11.909,0,0,1-1.157,3.854c-.123.238-.232.437-.315.568l-.126.213" transform="translate(-6.285 -5.815)" fill="#8e503d"/>
              <path id="Path_923478" data-name="Path 923478" d="M96.5,101.771s4.434,3.751,6.212,5.334a19.049,19.049,0,0,1,4.479,5.432c.741,1.54,8.144,25.995,8.144,25.995l6.653-2.475,2.3-.859,2.771-1.027,2.08-.775L134,131.586l.387-.143.22.413,5.457,10.467s-4.6,2.307-10.122,4.842c-.488.227-.977.446-1.474.674-6.914,3.133-14.737,6.35-16.741,5.853a13.744,13.744,0,0,1-4.143-2.4,104.949,104.949,0,0,1-9.3-8.338v-32.1Z" transform="translate(-4.296 -4.531)" fill="#615269"/>
              <path id="Path_923479" data-name="Path 923479" d="M136.216,131.435l5.67,12.111-3.169,1.192-6.33-11.849Z" transform="translate(-5.894 -5.851)" fill="#4e4256"/>
              <path id="Path_923480" data-name="Path 923480" d="M111.263,146.546a23.4,23.4,0,0,0,3.683-4.5.425.425,0,0,1,.785.213,21.049,21.049,0,0,0,.609,4.191.421.421,0,0,1-.812.224,22.154,22.154,0,0,1-.547-3.17,24.268,24.268,0,0,1-3.123,3.642c-.392.375-.988-.221-.6-.6" transform="translate(-4.947 -6.314)" fill="#4e4256"/>
              <path id="Path_923481" data-name="Path 923481" d="M114.369,149.8l4.089,35.093.756,6.44A87.895,87.895,0,0,0,158.3,183.58l-.513-1.822-10.87-38.418-28.547,5.668Z" transform="translate(-5.091 -6.381)" fill="#895652"/>
              <path id="Path_923482" data-name="Path 923482" d="M114.369,150.066l4.089,35.093.756,6.44a87.895,87.895,0,0,0,39.083-7.755l-.513-1.822c-9.063,3.432-19.819,2.971-27.338-3-4.861-3.854-7.952-9.583-9.691-15.54a74.933,74.933,0,0,1-2.388-14.21Z" transform="translate(-5.091 -6.645)" fill="#683534"/>
              <path id="Path_923483" data-name="Path 923483" d="M119.366,148.592l1.692-.336a24.353,24.353,0,0,1,2.157-10.686l-2.6.966a26.987,26.987,0,0,0-1.254,10.056" transform="translate(-5.312 -6.124)" fill="#444"/>
              <path id="Path_923484" data-name="Path 923484" d="M59.557,89.9a4.055,4.055,0,0,0,.151.416c1.134,2.94,4.006,4.905,6.84,6.342,8.586,4.368,19.04,5.986,27.913,2.215,3.408-1.459,6.636-3.832,8.072-7.248a13.326,13.326,0,0,0,.416-8.164,35.136,35.136,0,0,0-3.077-7.8,37.038,37.038,0,0,0,1.905-4.028,13.121,13.121,0,0,0,.771-2.994c.506-4.067-1.474-8.147-4.407-11.005a23.363,23.363,0,0,0-10.559-6.152,15.921,15.921,0,0,0-4.943-.416c-4.581.355-8.927,3.363-11.829,6.78a20.26,20.26,0,0,0-3.726,17.8,29.171,29.171,0,0,0-5.994,6.1A9.844,9.844,0,0,0,59.557,89.9" transform="translate(-2.636 -2.271)" fill="#1d1e1e"/>
              <path id="Path_923485" data-name="Path 923485" d="M108.751,177.744c-.357-3.379-2.447-9.852-3.2-16.288-1.412-12.032-.243-24.066-2.239-36.017-1.709-10.227-2.388-21.255-12.47-26.814-8.422-4.644-21.169-6.311-27.23,2.891-6.222,9.446-5.862,23.945-6,34.756-.2,16.146,1.639,29.716,2.479,37.86,0,0-1.324,26.974-.646,43.667,0,3.224.942,9.829.942,9.829s36.166,1.849,57.055-17.007c0,0-2.195-7.724-2.069-9.516-.395-2.61-6.623-23.363-6.623-23.363" transform="translate(-2.564 -4.223)" fill="#615269"/>
              <path id="Path_923486" data-name="Path 923486" d="M75.7,94.683s6.039,5.352,7.385,5.033,3.5-2.643,3.5-2.643c-.226-.362-1.932-1.884-1.713-2.874a43.419,43.419,0,0,1,1.754-5.4L79.2,85.167s-.6,2.177-1.338,4.467c-.748,2.32-1.632,4.747-2.169,5.049" transform="translate(-3.37 -3.791)" fill="#b77158"/>
              <path id="Path_923487" data-name="Path 923487" d="M77.969,89.631A40.239,40.239,0,0,0,83.1,94.094a2.538,2.538,0,0,0,1.863.105,43.851,43.851,0,0,1,1.758-5.394l-7.415-3.637s-.6,2.178-1.338,4.462" transform="translate(-3.471 -3.792)" fill="#8e503d"/>
              <path id="Path_923488" data-name="Path 923488" d="M77.563,61.706a13.731,13.731,0,0,1,17.354-.976,6.886,6.886,0,0,1,2.462,2.861c1.384,3.943,2.312,17.933-1.34,24.146s-8,4.756-9.526,4.1-8.6-4.7-10.021-7.351-3.55-15.665-2.317-18.834a13.334,13.334,0,0,1,3.387-3.943" transform="translate(-3.286 -2.586)" fill="#cc836d"/>
              <path id="Path_923489" data-name="Path 923489" d="M77.16,60.609a13.73,13.73,0,0,1,17.353-.976,6.889,6.889,0,0,1,2.463,2.861c1.384,3.943,2.311,17.933-1.34,24.146s-8,4.756-9.527,4.1-8.6-4.7-10.02-7.35S72.539,67.72,73.772,64.551a13.337,13.337,0,0,1,3.388-3.942" transform="translate(-3.268 -2.537)" fill="#b77158"/>
              <path id="Path_923490" data-name="Path 923490" d="M90.006,80.56a2.336,2.336,0,0,0-1.017-.194,3.342,3.342,0,0,0,1.931,1.623.491.491,0,0,0,.2.032.5.5,0,0,0,.22-.1,3.9,3.9,0,0,0,1.075-1.1.753.753,0,0,0,.129-.283c.056-.341-.169-.251-.364-.16a3.111,3.111,0,0,1-2.17.178" transform="translate(-3.962 -3.575)" fill="#ea7c6f"/>
              <path id="Path_923491" data-name="Path 923491" d="M91.057,81.511c.192-.2.412-.368.609-.561a5.183,5.183,0,0,0,.663-.775c-1.143-.677-1.209-1.817-1.244-3.113a3.762,3.762,0,0,1,.845-2.477,3.725,3.725,0,0,1,.317-.344,1.346,1.346,0,0,1,.363-.235c-.061.081-.1.174-.157.257a7.078,7.078,0,0,0-.419.653,4.641,4.641,0,0,0-.3.726,4.567,4.567,0,0,0-.222,1.552,3.777,3.777,0,0,0,.348,1.494,2.988,2.988,0,0,0,1.189,1.334s-.687.92-.755,1a3.953,3.953,0,0,1-.586.53,1.368,1.368,0,0,1-.715.341.438.438,0,0,1-.242-.054.888.888,0,0,0,.12-.112l.047-.054c.045-.055.092-.107.141-.158" transform="translate(-4.04 -3.295)" fill="#8e503d"/>
              <path id="Path_923492" data-name="Path 923492" d="M84.1,83.259a9.522,9.522,0,0,0,8.236,1.083,7.164,7.164,0,0,1-4.716,1.025,4.725,4.725,0,0,1-3.52-2.108" transform="translate(-3.744 -3.706)" fill="#8e503d"/>
              <path id="Path_923493" data-name="Path 923493" d="M76.5,78.41c-.375-.239-2.062-3.115-3.666-1.685s-2.3,4.03-1.151,5.676c1.051,1.5,2.565,3.168,4.693,2.892Z" transform="translate(-3.166 -3.398)" fill="#b77158"/>
              <path id="Path_923494" data-name="Path 923494" d="M72.7,78.832a2.03,2.03,0,0,0-.041,1.078c.3,1.532,1.564,2.816,2.778,4.013a3.938,3.938,0,0,1-.208-2.371c.058-.271.144-.539.178-.814.134-1.108-1.971-3.937-2.706-1.906" transform="translate(-3.232 -3.478)" fill="#cc836d"/>
              <path id="Path_923495" data-name="Path 923495" d="M76.078,84.417l-.071-.054c-.045-.036-.118-.086-.2-.161a3.1,3.1,0,0,1-.587-.7,2.931,2.931,0,0,1-.409-1.236,2.613,2.613,0,0,1,.34-1.536,1.4,1.4,0,0,1,.118-.183L75.3,80.5l0-.006v0h0l0-.009-.017-.045-.036-.089c-.024-.059-.048-.118-.075-.175a6.548,6.548,0,0,0-.333-.655c-.118-.205-.245-.4-.37-.57a3.956,3.956,0,0,0-.375-.463.913.913,0,0,0-.408-.25.654.654,0,0,0-.374.024.358.358,0,0,0-.181.14.266.266,0,0,0-.032.072.256.256,0,0,1,.012-.078.354.354,0,0,1,.16-.186.721.721,0,0,1,.436-.095,1.131,1.131,0,0,1,.551.237,3.829,3.829,0,0,1,.475.453,5.758,5.758,0,0,1,.454.568,5.432,5.432,0,0,1,.4.676c.031.06.059.122.087.184l.042.095.054.133.037.093c-.015.028-.037.055-.055.083l-.082.118a1.164,1.164,0,0,0-.1.161,2.751,2.751,0,0,0-.368,1.351,3.082,3.082,0,0,0,.226,1.162,3.3,3.3,0,0,0,.426.739c.063.083.122.142.157.186l.056.065" transform="translate(-3.255 -3.477)" fill="#8e503d"/>
              <path id="Path_923496" data-name="Path 923496" d="M98.458,71.9s-1.386-2.083-2.6-2.369-1.929.671-1.539,1.041A26.756,26.756,0,0,0,98.458,71.9" transform="translate(-4.194 -3.093)" fill="#444"/>
              <path id="Path_923497" data-name="Path 923497" d="M79.9,72.543s2.445-2.912,4.289-3.563,2.725.352,2.078.9S79.9,72.543,79.9,72.543" transform="translate(-3.557 -3.061)" fill="#444"/>
              <path id="Path_923498" data-name="Path 923498" d="M84.284,80.551c-.149.575-1.5.723-3.019.331s-2.629-1.177-2.481-1.752,1.5-.723,3.019-.331,2.63,1.177,2.481,1.752" transform="translate(-3.507 -3.498)" fill="#cc836d"/>
              <path id="Path_923499" data-name="Path 923499" d="M100.454,79.413c.141.428-.787,1.119-2.075,1.544s-2.444.424-2.586,0,.787-1.119,2.074-1.545,2.445-.422,2.586,0" transform="translate(-4.264 -3.521)" fill="#ea7c6f"/>
              <path id="Path_923500" data-name="Path 923500" d="M82.151,72.816a2.62,2.62,0,0,0,1.365,1.036,1.107,1.107,0,0,1,.8-.475c.787-.046,1.485.94,1.559,2.2s-.5,2.325-1.29,2.371-1.485-.94-1.559-2.2a3.428,3.428,0,0,1,.106-1.091,4.225,4.225,0,0,1-.982-1.841" transform="translate(-3.657 -3.242)" fill="#1d1e1e"/>
              <path id="Path_923501" data-name="Path 923501" d="M84.408,75.919a2.2,2.2,0,0,1-2.754-.886,2.2,2.2,0,0,1,2.754.886" transform="translate(-3.635 -3.333)" fill="#ffefdf"/>
              <path id="Path_923502" data-name="Path 923502" d="M97.78,73.333a2.376,2.376,0,0,1-1.234.935,1,1,0,0,0-.724-.429c-.712-.042-1.342.849-1.41,1.992s.456,2.1,1.167,2.143,1.342-.85,1.409-1.992a3.093,3.093,0,0,0-.1-.986,3.819,3.819,0,0,0,.888-1.663" transform="translate(-4.203 -3.265)" fill="#1d1e1e"/>
              <path id="Path_923503" data-name="Path 923503" d="M95.781,76.138a1.99,1.99,0,0,0,2.489-.8,1.993,1.993,0,0,0-2.489.8" transform="translate(-4.264 -3.347)" fill="#ffefdf"/>
              <path id="Path_923504" data-name="Path 923504" d="M81.1,95.134S76.13,93.413,68.99,96.919c0,0,6.1,7.193,13.477,6.847s6.659-6.256,6.659-6.256-5.251-2.369-8.027-2.376" transform="translate(-3.071 -4.216)" fill="#b77158"/>
              <path id="Path_923505" data-name="Path 923505" d="M99.73,67.853a16.735,16.735,0,0,1-12.383-4.615,9.555,9.555,0,0,0,2.664,4.006A13.933,13.933,0,0,1,80.8,64.11a10.858,10.858,0,0,1-3.965,7.126c-.332,1.953-.442,4-.774,5.958a5,5,0,0,0-3.6-1.56,14.564,14.564,0,0,1,24.81-15.1,13.725,13.725,0,0,1,2.461,7.323" transform="translate(-3.156 -2.424)" fill="#1d1e1e"/>
              <path id="Path_923506" data-name="Path 923506" d="M59.557,89.9a4.055,4.055,0,0,0,.151.416,19.6,19.6,0,0,1,9.7-13.03c-.03-2.948.688-6.191,3-8.013A15.814,15.814,0,0,0,78.3,59.391a15.678,15.678,0,0,0,5.374,3.627,5.137,5.137,0,0,1-.6-4.172,34.61,34.61,0,0,0,15.018,5.192,14.116,14.116,0,0,1,3.689,7.589,13.121,13.121,0,0,0,.771-2.994,12.147,12.147,0,0,0-1.739-7.588,16.044,16.044,0,0,0-2.668-3.417,23.363,23.363,0,0,0-10.559-6.152,15.921,15.921,0,0,0-4.943-.416c-4.581.355-8.927,3.363-11.829,6.78A19.592,19.592,0,0,0,66.442,69.5a20.126,20.126,0,0,0,.643,6.145,29.171,29.171,0,0,0-5.994,6.1A9.844,9.844,0,0,0,59.557,89.9" transform="translate(-2.636 -2.271)" fill="#444"/>
              <path id="Path_923507" data-name="Path 923507" d="M66.78,69.5a26.737,26.737,0,0,1,5.23-5.827c2.789-2.5,5.767-5.041,7.2-8.5a5.67,5.67,0,0,0,2.547,2.418c.279-1.247.567-2.486.853-3.734a39.407,39.407,0,0,0,18.534,7.2,16.074,16.074,0,0,0-2.669-3.416,23.353,23.353,0,0,0-10.558-6.153,15.9,15.9,0,0,0-4.944-.415c-4.581.354-8.926,3.363-11.829,6.779A19.593,19.593,0,0,0,66.78,69.5" transform="translate(-2.973 -2.271)" fill="#595959"/>
              <path id="Path_923508" data-name="Path 923508" d="M66.4,70.727s.013,3.675-4.9,7.976c-4.953,4.569-1.972,12.053-1.972,12.053L60.7,85.346l7.545-8.237L67.9,70.357Z" transform="translate(-2.611 -3.132)" fill="#444"/>
              <path id="Path_923509" data-name="Path 923509" d="M103.075,115.022c4.625,6.592,9.539,17.231,1.193,23.129a49.95,49.95,0,0,1,2.342,9.007.591.591,0,0,1-1.139.312,50.387,50.387,0,0,1-2.184-9.2.767.767,0,0,1,.042-1.227c7.967-5.377,2.738-15.375-.795-21.709a.314.314,0,0,1,.541-.317" transform="translate(-4.563 -5.114)" fill="#4e4256"/>
              <path id="Path_923510" data-name="Path 923510" d="M46.289,215.4s.8-8.592,3.592-10.705,15.756-3.841,16.769-2.76,4.265,11.336,4.265,11.336l-4.278.63s-1.931-7.546-3.1-8.327-11.209,2.259-11.729,2.5-1.749,7.57-1.749,7.57Z" transform="translate(-2.061 -8.975)" fill="#932f49"/>
              <path id="Path_923511" data-name="Path 923511" d="M103.615,260.437l-5.567,6-78.833,3.012s-.982-.51-2.183-1.269h-.008c-1.82-1.148-4.133-2.857-4.273-4.221-.233-2.264,2.536-39.668,3.438-41.92S26.5,214.9,26.5,214.9s59.145-3.2,62.931-2.7,10.69,4.9,10.69,4.9Z" transform="translate(-0.567 -9.444)" fill="#bd4761"/>
              <path id="Path_923512" data-name="Path 923512" d="M19.149,240.254l4.3-4.535,65.288-4.4,3.414,4.944s.276,20.564-.037,21.8-71.534,4.741-72.72,3.907-.246-21.715-.246-21.715" transform="translate(-0.837 -10.298)" fill="#932f49"/>
              <path id="Path_923513" data-name="Path 923513" d="M19.156,240.254l-.2,2.888,73.317-5.08-.113-1.8-3.414-4.944-65.288,4.4Z" transform="translate(-0.844 -10.298)" fill="#edd7c3"/>
              <path id="Path_923514" data-name="Path 923514" d="M21.18,243.123l69.1-4.391-.089,1.081-69.03,4.465Z" transform="translate(-0.942 -10.628)" fill="#59595b"/>
              <path id="Path_923515" data-name="Path 923515" d="M103.815,260.439l-5.567,6-78.833,3.012s-.982-.51-2.183-1.269l74.5-5.677,4.232-3.572L94.81,244.167l.226-18.246-.19-8.176L89.626,212.2c3.786.493,10.69,4.9,10.69,4.9Z" transform="translate(-0.767 -9.447)" fill="#932f49"/>
              <path id="Path_923516" data-name="Path 923516" d="M99.393,214.6s2.4,4.886,2.073,13.808h1.305s-.332-9.712-1.689-12.908Z" transform="translate(-4.425 -9.553)" fill="#59595b"/>
              <path id="Path_923517" data-name="Path 923517" d="M97.577,231.979s-2.019,30.933-52.668,46.388c0,0,7.452,1.737,10.023,1.165,0,0,19.935-9.195,27.85-15.073,10.493-6.367,16.983-19.608,19.452-31.726Z" transform="translate(-1.999 -10.327)" fill="#59595b"/>
              <path id="Path_923518" data-name="Path 923518" d="M53.3,157.644l12.664-30.822,1.671-29.8a31.3,31.3,0,0,0-15.39,17.522c-3.094,6.342-11.183,30.089-13.747,40.133,6.893-1.021,8.667,6.2,14.8,2.967" transform="translate(-1.714 -4.319)" fill="#615269"/>
              <path id="Path_923519" data-name="Path 923519" d="M51.795,154.255c-6.938-4.459-4.914,1.5-12.572,1.748-4.756,5.546,6.471,36.159,6.471,36.159L59.3,189.03c.194-2.5-6.156-30.1-7.5-34.775" transform="translate(-1.694 -6.794)" fill="#615269"/>
              <path id="Path_923520" data-name="Path 923520" d="M65.322,210c-1.149.415-3.1-7.8-3.1-7.8l-2.326-.3.491,3.509-1.808,4.836s-1,.074-2.233.09c-.153,0-.31,0-.468,0a20.04,20.04,0,0,1-2.192-.1c-.066,0-.132-.013-.195-.019a6.313,6.313,0,0,1-.892-.175,1.4,1.4,0,0,1-.617-.316l.559-3.985s-3.779-4.062-3.979-4.881a12.451,12.451,0,0,1,.961-3.276c.281-.747.157-2.271.448-3l3.9-.114,3.913.608c.446.316,1.752,1.29,2.385,1.792l0,0c.311.247.633.511.959.786a16.982,16.982,0,0,1,3.088,3.251,4.1,4.1,0,0,1,.618,1.333c.655,2.9,1.631,7.342.483,7.755" transform="translate(-2.162 -8.658)" fill="#b77158"/>
              <path id="Path_923521" data-name="Path 923521" d="M53.921,210.69c-.065,0-.132-.013-.195-.019.044-.161.106-.373.177-.627.161-.578.364-1.363.568-2.216a13.415,13.415,0,0,0,.352-2.235c.006-.151.011-.288.015-.409s-.01-.226-.015-.313l-.008-.276s.049.088.13.255c.04.082.09.186.143.308s.086.264.134.425a5.267,5.267,0,0,1,.033,2.5,6.271,6.271,0,0,1-.986,2.163c-.13.181-.248.326-.348.44" transform="translate(-2.392 -9.108)" fill="#8e503d"/>
              <path id="Path_923522" data-name="Path 923522" d="M56.693,210.815c-.154,0-.311,0-.469,0,.006-.033.017-.069.026-.1.161-.577.364-1.363.566-2.214a13.382,13.382,0,0,0,.354-2.236c0-.151.011-.286.014-.405s-.011-.229-.013-.315c-.007-.177-.01-.275-.01-.275s.047.087.13.252c.039.083.09.186.141.309s.088.267.136.424a5.266,5.266,0,0,1,.032,2.506,6.209,6.209,0,0,1-.908,2.052" transform="translate(-2.503 -9.138)" fill="#8e503d"/>
              <path id="Path_923523" data-name="Path 923523" d="M61.458,189.678l-17.074,4.561,1.406,4.279,16.99-4.353Z" transform="translate(-1.976 -8.444)" fill="#4e4256"/>
              <path id="Path_923524" data-name="Path 923524" d="M57.843,149.8S63.2,138.679,64,133.01s-.691-10.393,0-10.738,2.073,7.372,1.728,11.289-6.676,18.655-7.888,16.239" transform="translate(-2.575 -5.443)" fill="#4e4256"/>
              <path id="Path_923525" data-name="Path 923525" d="M102.157,72.011l1.485.551a10.116,10.116,0,0,0,.473,7.368c1.844,3.531,1.029,9.808,1.029,9.808l-4.069-12.21v-3Z" transform="translate(-4.5 -3.206)" fill="#1d1e1e"/>
              <path id="Path_923526" data-name="Path 923526" d="M220.682,84.233a213.264,213.264,0,0,0-63.06-7.128l4.02,4.369s-6.126.22-9.38,5.3-1.619,18.558,9.762,17.138S190.844,95.485,217.3,99.6c0,0,7.316.075,9.231-5.465s-3.086-9.737-5.85-9.9" transform="translate(-6.713 -3.426)" fill="#918178"/>
              <path id="Path_923527" data-name="Path 923527" d="M163.078,83.338s7.225,2.855,6.467,10.918c-.687,6.268-7.023,10.717-13.83,6.425-6.537-4.4-2.494-18.051,7.363-17.343" transform="translate(-6.79 -3.709)" fill="#6e6659"/>
              <path id="Path_923528" data-name="Path 923528" d="M163.264,83.031a14.338,14.338,0,0,1,4.234,3.5,11.365,11.365,0,0,1,1.494,2.444,9.479,9.479,0,0,1,.734,2.872,10.17,10.17,0,0,1-.347,2.92,11.212,11.212,0,0,1-1.061,2.736,9.357,9.357,0,0,1-4.263,4.079,8.344,8.344,0,0,1-5.929.315,7.538,7.538,0,0,1-4.663-3.751A9.632,9.632,0,0,1,155.646,87.1a6.551,6.551,0,0,1,5.926-1.237,6.943,6.943,0,0,1,4.683,3.848,4.789,4.789,0,0,1,.334,1.638,6.183,6.183,0,0,1-.17,1.576,7.694,7.694,0,0,1-1.309,2.763,8.671,8.671,0,0,1-2.185,2.08,6.387,6.387,0,0,1-2.951,1.084,5.05,5.05,0,0,1-.863-.021,3.083,3.083,0,0,1-.929-.291,3.584,3.584,0,0,1-1.353-1.179,5.63,5.63,0,0,1-.061-6.166,4.843,4.843,0,0,1,2.571-1.956,3.435,3.435,0,0,1,.814-.161,2.521,2.521,0,0,1,.862-.014,2.349,2.349,0,0,1,.873.216l.417.189c.123.09.241.19.355.288a3.27,3.27,0,0,1,1,3.015,2.742,2.742,0,0,1-1.877,2.279,3.814,3.814,0,0,1-2.7-.573,3.55,3.55,0,0,0,2.524.075,2,2,0,0,0,1.083-1.871,2.068,2.068,0,0,0-.893-1.8,1.929,1.929,0,0,0-1.812.111,3.272,3.272,0,0,0-2.235,3.269,3.6,3.6,0,0,0,.6,2.018,1.719,1.719,0,0,0,.654.583c.109.09.237.068.352.118a3.326,3.326,0,0,0,.483.01c2.819-.279,5.671-3.962,4.681-6.589a5.127,5.127,0,0,0-3.422-2.731,4.674,4.674,0,0,0-4.25.859,7.772,7.772,0,0,0-1.725,8.775,5.652,5.652,0,0,0,3.539,2.813,6.456,6.456,0,0,0,4.621-.226c2.9-1.3,4.629-4.768,4.561-8a8.254,8.254,0,0,0-.235-2.422,11.272,11.272,0,0,0-.961-2.356,15.434,15.434,0,0,0-3.385-4.08" transform="translate(-6.792 -3.696)" fill="#564c44"/>
              <path id="Path_923529" data-name="Path 923529" d="M184.116,98.909s5.213-15-7.73-21.718a7.359,7.359,0,0,1,5.943.269,20.964,20.964,0,0,1,5.939,20.527Z" transform="translate(-7.852 -3.414)" fill="#2a2b2b"/>
              <path id="Path_923530" data-name="Path 923530" d="M210.851,99.014s4.68-13.468-6.941-19.5a6.609,6.609,0,0,1,5.336.242,18.823,18.823,0,0,1,5.333,18.429Z" transform="translate(-9.078 -3.52)" fill="#2a2b2b"/>
              <path id="Path_923531" data-name="Path 923531" d="M176.991,101.266s-16.773,3.831-20.22,8.25-3.522,19.476-3.995,21.007,4.469,6.969,3.995,8.6-8.3,7.224-9.318,11.565-1.415,38.16,5.323,42.762,23.406,4.629,37.959,1.9-8.474-11.66-8.474-11.66L169.3,170.628l-4.5-21.4-.917-22.79,6.734-20.864Z" transform="translate(-6.539 -4.508)" fill="#444"/>
              <path id="Path_923532" data-name="Path 923532" d="M220.437,164.346c-.419,8.174-2.471,16.487-6.727,22.006a20.373,20.373,0,0,1-4.738,4.465,29.145,29.145,0,0,1-11.514,4.268c-7.37,1.3-15.474,1-21.375-5.42-4.177-4.548-6.654-11.558-8.512-18.568a161.02,161.02,0,0,1-5.232-37.12c-.337-13.595,3.269-22.95,8.971-28.492,7.281-7.089,17.98-7.966,28.257-3.561a24.5,24.5,0,0,1,9.742,7.2c6.025,7.544,7.919,19.6,9.421,30.829,1.074,8.053,2.123,16.219,1.706,24.4" transform="translate(-7.226 -4.418)" fill="#2a2b2b"/>
              <path id="Path_923533" data-name="Path 923533" d="M208.972,191.107a29.15,29.15,0,0,1-11.515,4.268c-7.37,1.3-15.473,1-21.374-5.42-4.177-4.547-6.654-11.558-8.512-18.568a161.071,161.071,0,0,1-5.233-37.119c-.336-13.6,3.27-22.951,8.972-28.492.676,3.457-.4,8.162-1.436,11.848a75.633,75.633,0,0,0-1.9,33.984c2.12,11.165,7.546,21.231,14.969,25.92,5.069,3.206,10.735,3.824,16.078,5.936a21.7,21.7,0,0,1,9.954,7.643" transform="translate(-7.226 -4.709)" fill="#444"/>
              <path id="Path_923534" data-name="Path 923534" d="M295.056,175.821c.348-.948-13.43-9.508-13.43-9.508a11.482,11.482,0,0,0,6.666-3.623l.047-.054a.662.662,0,0,0,.2-.612.62.62,0,0,0-.2-.248,3.222,3.222,0,0,0-2.623-.51,24.745,24.745,0,0,0-2.627.814,13.614,13.614,0,0,1-5.21.207c-2.962-.256-6.287,3.973-6.287,3.973s-.4-.159-.952-.367l-3.54,7.4,3.263,1.529,1.117,2.007c.989,1.327,14.932,8.184,15.636,7.417a6.5,6.5,0,0,0,.549-.694c.265-.379.487-.755.634-1.005.106-.186.165-.3.165-.3a10.136,10.136,0,0,0,1.046-.676,5.745,5.745,0,0,0,.913-.776,1.151,1.151,0,0,0,.408-.867,7.012,7.012,0,0,0-1.7-1.828c-2.37-2.136-6.345-5.283-5.986-5.4.5-.15,10.735,4.4,10.735,4.4a2.171,2.171,0,0,0,.65-.462,2.275,2.275,0,0,0,.517-.813" transform="translate(-11.891 -7.176)" fill="#b77158"/>
              <path id="Path_923535" data-name="Path 923535" d="M290.3,182.3c-.248-.152-.5-.311-.749-.478a24.941,24.941,0,0,1-3.49-2.839c-.774-.759-1.229-1.295-1.28-1.359.074.036.7.354,1.637.883,1,.566,2.358,1.363,3.793,2.326.347.232.679.463,1,.689a5.812,5.812,0,0,1-.912.778" transform="translate(-12.678 -7.907)" fill="#b54b57"/>
              <path id="Path_923536" data-name="Path 923536" d="M288.437,184.439a26.435,26.435,0,0,1-4.079-3.226,26.377,26.377,0,0,1,4.715,2.225c-.147.249-.372.624-.636,1" transform="translate(-12.659 -8.067)" fill="#b54b57"/>
              <path id="Path_923537" data-name="Path 923537" d="M269.913,167.674c.044.016.094.041.138.057a6.2,6.2,0,0,0,.717.246,2.037,2.037,0,0,0,.609.037,2.623,2.623,0,0,0,1.409-.816,14.517,14.517,0,0,1,4.281-3.209c1.983-.754,4.208-.37,6.3-.744,1.516-.273,3.015-.939,4.54-.72.182.027.369.071.565.107a.662.662,0,0,0,.2-.608.7.7,0,0,0-.2-.249,3.192,3.192,0,0,0-2.624-.506,24.561,24.561,0,0,0-2.625.811,13.681,13.681,0,0,1-5.207.211c-2.967-.259-6.294,3.964-6.294,3.964s-.366-.209-.764-.487c-.028-.021-.062-.043-.1-.066l-.3-.2Z" transform="translate(-12.016 -7.176)" fill="#cc836d"/>
              <path id="Path_923538" data-name="Path 923538" d="M272.275,171.951l.285.151a4.3,4.3,0,0,0,.832.309,5.209,5.209,0,0,0,5.37-1.742,4.251,4.251,0,0,0,.491-.739l.143-.29-.273.169c-.167.113-.421.259-.726.425a15.418,15.418,0,0,1-4.964,1.61c-.345.045-.636.075-.838.083l-.32.023" transform="translate(-12.121 -7.552)" fill="#8e503d"/>
              <path id="Path_923539" data-name="Path 923539" d="M227.677,147.9q-3.725,1.538-7.4,3.16c12.28,10.547,42.782,24.949,44.48,24.372,1.591-.535,2.932-5.5,3.567-9.118a28.368,28.368,0,0,0,.394-2.908c.158-2.4-21.569-15.935-28.283-20.056-4.544.569-8.554,2.816-12.756,4.549" transform="translate(-9.806 -6.382)" fill="#f3803d"/>
              <path id="Path_923540" data-name="Path 923540" d="M269.273,163.41c.157-2.4-21.569-15.935-28.283-20.057a26.735,26.735,0,0,0-6.943,2.018,14.786,14.786,0,0,0-1.1,2.106c-.154.356-.273.813-.011,1.1a.724.724,0,0,0,.739.157,2.039,2.039,0,0,0,.684-.419c1.219-.973,2.438-1.962,3.643-2.965a147.025,147.025,0,0,0,25.59,18.429,36.8,36.8,0,0,0,5.29,2.537,28.39,28.39,0,0,0,.394-2.909" transform="translate(-10.363 -6.382)" fill="#f9a050"/>
              <path id="Path_923541" data-name="Path 923541" d="M180.3,273.828l-7.944,12.629,11.964,8.071,8.614-12.469Z" transform="translate(-7.673 -12.19)" fill="#b77158"/>
              <path id="Path_923542" data-name="Path 923542" d="M222.456,238.607,193.49,282.579l-15.1-11.1,27.014-41.846Z" transform="translate(-7.942 -10.223)" fill="#385077"/>
              <path id="Path_923543" data-name="Path 923543" d="M191.634,314.453a1.958,1.958,0,0,0,.061-1.955c-1.2-2.083-5.92-9.283-6.648-11.959-.566-2.079-.007-5.3.271-6.637l-12.673-8.275a117.559,117.559,0,0,0-9.111,9.426Z" transform="translate(-7.28 -12.715)" fill="#444"/>
              <path id="Path_923544" data-name="Path 923544" d="M189.557,317.659l-28.1-19.4,1.984-2.768,28.1,19.4Z" transform="translate(-7.188 -13.155)" fill="#2a2b2b"/>
              <path id="Path_923545" data-name="Path 923545" d="M230.524,196.206c-.011-.4-.018-.8-.03-1.2-.018-.858-.036-1.708-.058-2.544-.011-.545-.024-1.082-.037-1.613-.061-2.53-.119-4.915-.172-7.038H206.886c1.2,12.579,3.02,35.321,1.037,40.067-.06.142-.512.9-1.255,2.1l17.047,10.81c2.954-5.134,7.025-10.354,7.128-11.572.212-2.537-.037-16.44-.319-29.01" transform="translate(-9.2 -8.183)" fill="#683534"/>
              <path id="Path_923546" data-name="Path 923546" d="M231.287,192.462a19.271,19.271,0,0,1-2.071-2.037,15.631,15.631,0,0,1-3.455-6.613h1.094a14.5,14.5,0,0,0,2.092,4.56c.152.218,1.227,1.41,2.3,2.479.013.531.027,1.067.037,1.612" transform="translate(-10.05 -8.183)" fill="#243754"/>
              <path id="Path_923547" data-name="Path 923547" d="M218.334,286.254l2.68,16.224,12.824-2.084-1.531-15.348Z" transform="translate(-9.72 -12.69)" fill="#b77158"/>
              <path id="Path_923548" data-name="Path 923548" d="M253.547,310.805a2,2,0,0,0-1.293-1.489c-2.31-.757-10.738-2.978-13.109-4.481-1.841-1.168-3.632-3.923-4.341-5.1l-15.053,2.22a114.663,114.663,0,0,0-.3,12.987Z" transform="translate(-9.767 -13.344)" fill="#444"/>
              <path id="Path_923549" data-name="Path 923549" d="M253.973,314.68l-34.1,4.139-.423-3.359,34.1-4.139Z" transform="translate(-9.769 -13.859)" fill="#2a2b2b"/>
              <path id="Path_923550" data-name="Path 923550" d="M189.018,185.126l4.832-.02,1.1,0,2.992-.012,1.086-.006,13.9-.058,16.983,60.718,4.755,36.759-20.255.867-3.063-31.29s-18.363-43.847-21.5-51.837c-.136-.35-.268-.693-.4-1.034L187.9,195.3c-.133-.34-.265-.674-.391-1-2.166-5.5-3.6-9.149-3.6-9.149Z" transform="translate(-8.187 -8.237)" fill="#895652"/>
              <path id="Path_923551" data-name="Path 923551" d="M195.118,185.1a14.124,14.124,0,0,1-7.045,10.2c-.133-.341-.265-.674-.391-1a13.059,13.059,0,0,0,6.336-9.193Z" transform="translate(-8.355 -8.24)" fill="#243754"/>
              <path id="Path_923552" data-name="Path 923552" d="M197.5,94.135c.266.266,11.93,8.9,11.93,8.9s-.268-5.317-.4-8.087c-.037-.858-.064-1.471-.064-1.607,0-1.107.946-5.9.946-5.9l-11.772-5.383s-.185,2.427-.366,5.107a60.164,60.164,0,0,0-.279,6.977" transform="translate(-8.79 -3.653)" fill="#b77158"/>
              <path id="Path_923553" data-name="Path 923553" d="M197.791,87.158c3.27,2.374,10.472,7.569,11.192,7.774a.544.544,0,0,0,.064.013c-.037-.858-.064-1.471-.064-1.607,0-1.107.946-5.9.946-5.9l-11.772-5.383s-.185,2.427-.366,5.107" transform="translate(-8.805 -3.653)" fill="#8e503d"/>
              <path id="Path_923554" data-name="Path 923554" d="M196.471,81.276a5.61,5.61,0,0,0,1.609,2.013h0a11.919,11.919,0,0,0,.943.752c1.382.99,14.31,6.531,16.3,6.265s3.87-7.111,3.973-7.83c.64-4.417,2.4-18.065,2.4-18.065-4.913-14.872-22.441-7.171-24.434-5.71s-.8,22.575-.8,22.575" transform="translate(-8.731 -2.467)" fill="#b77158"/>
              <path id="Path_923555" data-name="Path 923555" d="M198.176,84.55a11.922,11.922,0,0,0,.943.752c1.381.99,14.309,6.531,16.3,6.265s3.869-7.111,3.973-7.83c-1.24,3.006-2.642,7.163-4.052,7.03-2.125-.2-15.6-5.391-17.165-6.217" transform="translate(-8.822 -3.728)" fill="#cc836d"/>
              <path id="Path_923556" data-name="Path 923556" d="M220.905,70.878s-.913-3.872-2.634-3.244-1.225.987-1.225.987Z" transform="translate(-9.659 -3.008)" fill="#38102b"/>
              <path id="Path_923557" data-name="Path 923557" d="M201.56,69.128s4.393-5.059,6.192-3.262c1.049,1.049.32,1.764.32,1.764Z" transform="translate(-8.973 -2.915)" fill="#38102b"/>
              <path id="Path_923558" data-name="Path 923558" d="M204.249,72.355c0,1.374.694,2.488,1.55,2.488s1.549-1.114,1.549-2.488-.694-2.488-1.549-2.488-1.55,1.114-1.55,2.488" transform="translate(-9.093 -3.11)" fill="#1d1e1e"/>
              <path id="Path_923559" data-name="Path 923559" d="M202.7,71.015A3.187,3.187,0,0,0,206.12,72.4a3.189,3.189,0,0,0-3.419-1.384" transform="translate(-9.024 -3.158)" fill="#ffefdf"/>
              <path id="Path_923560" data-name="Path 923560" d="M219.471,73.36c0,1.036-.523,1.876-1.168,1.876s-1.168-.84-1.168-1.876.523-1.875,1.168-1.875,1.168.839,1.168,1.875" transform="translate(-9.666 -3.182)" fill="#1d1e1e"/>
              <path id="Path_923561" data-name="Path 923561" d="M220.516,72.494a2.579,2.579,0,0,1-2.433.984,2.579,2.579,0,0,1,2.433-.984" transform="translate(-9.709 -3.226)" fill="#ffefdf"/>
              <path id="Path_923562" data-name="Path 923562" d="M218.373,79.357c.2.545,1.38.608,2.627.14s2.092-1.286,1.889-1.831-1.38-.608-2.627-.141-2.093,1.287-1.889,1.832" transform="translate(-9.72 -3.437)" fill="#cc836d"/>
              <path id="Path_923563" data-name="Path 923563" d="M201.955,76.758c-.213.821,1.139,1.882,3.02,2.37s3.577.216,3.79-.606-1.14-1.881-3.02-2.369-3.577-.217-3.79.6" transform="translate(-8.99 -3.379)" fill="#cc836d"/>
              <path id="Path_923564" data-name="Path 923564" d="M215.148,82.886l-.319.2a5.594,5.594,0,0,1-.932.457,6.939,6.939,0,0,1-6.607-.874,5.67,5.67,0,0,1-.781-.683l-.256-.277.319.2a8.409,8.409,0,0,0,.883.488,10.4,10.4,0,0,0,6.353.841,8.281,8.281,0,0,0,.979-.242l.36-.11" transform="translate(-9.182 -3.637)" fill="#8e503d"/>
              <path id="Path_923565" data-name="Path 923565" d="M210.2,77.716a4.6,4.6,0,0,0,4.938.4,2.627,2.627,0,0,1-2.625,2.072,2.684,2.684,0,0,1-2.313-2.471" transform="translate(-9.358 -3.46)" fill="#cc836d"/>
              <path id="Path_923566" data-name="Path 923566" d="M212.954,79.566a3.377,3.377,0,0,0,1.084-.4,1.508,1.508,0,0,0,.767-.912.885.885,0,0,0-.428-.94,1.634,1.634,0,0,0-.728-.274,1.661,1.661,0,0,0-.293-.019c-.006-.121,0-.253,0-.4a12.2,12.2,0,0,1,.3-2.4,11.883,11.883,0,0,1,1.268-3.273,22.651,22.651,0,0,1-.515,3.442c-.184.839-.41,1.59-.6,2.176a1.721,1.721,0,0,1,.9.188,1.676,1.676,0,0,1,.7.615,1.4,1.4,0,0,1,.161,1.049,1.946,1.946,0,0,1-1.229,1.346,2.884,2.884,0,0,1-1.364.19,2.609,2.609,0,0,1-.872-.228c-.14-.067-.231-.12-.271-.143a3.277,3.277,0,0,0,1.133-.011" transform="translate(-9.43 -3.158)" fill="#8e503d"/>
              <path id="Path_923567" data-name="Path 923567" d="M198.165,82.5a8.11,8.11,0,0,1-5.639-3.112,6.482,6.482,0,0,1-.561-.836c-.761-1.38-.978-6.162.979-7.274,1.372-.778,2.371.351,2.845,1.1v0a4.422,4.422,0,0,1,.31.566Z" transform="translate(-8.521 -3.161)" fill="#cc836d"/>
              <path id="Path_923568" data-name="Path 923568" d="M198.18,82.517A8.11,8.11,0,0,1,192.54,79.4q-.133-.2-.234-.385c-.761-1.38-.979-6.162.978-7.272a1.879,1.879,0,0,1,2.52.645v0a4.422,4.422,0,0,1,.31.566Z" transform="translate(-8.536 -3.182)" fill="#b77158"/>
              <path id="Path_923569" data-name="Path 923569" d="M192.366,75.222a2.051,2.051,0,0,0,.09,1.159c.535,1.605,2.138,2.83,3.673,3.967a4.024,4.024,0,0,1-.539-2.513,8.844,8.844,0,0,0,.1-.893c.011-1.2-2.744-3.981-3.324-1.72" transform="translate(-8.561 -3.31)" fill="#cc836d"/>
              <path id="Path_923570" data-name="Path 923570" d="M196.92,80.8l-.088-.05c-.054-.033-.145-.077-.247-.147a3.5,3.5,0,0,1-.757-.684,3.082,3.082,0,0,1-.623-1.275,2.659,2.659,0,0,1,.193-1.685,1.541,1.541,0,0,1,.112-.211l.031-.051c.008-.013,0,0,0-.007v0h0l0-.009-.025-.046-.053-.092-.106-.179a7.566,7.566,0,0,0-.463-.661c-.161-.2-.329-.394-.492-.567a4.584,4.584,0,0,0-.487-.451,1.073,1.073,0,0,0-.495-.22.8.8,0,0,0-.424.07.409.409,0,0,0-.187.171.248.248,0,0,0-.027.08.186.186,0,0,1,0-.085.377.377,0,0,1,.158-.219.871.871,0,0,1,.485-.153,1.352,1.352,0,0,1,.657.189,4.129,4.129,0,0,1,.6.428,6.426,6.426,0,0,1,.59.553,5.761,5.761,0,0,1,.546.676c.043.061.083.123.123.187l.059.1.077.136.054.1c-.014.032-.034.064-.053.1l-.078.136a1.29,1.29,0,0,0-.1.183,2.809,2.809,0,0,0-.248,1.491,3.216,3.216,0,0,0,.406,1.217,3.509,3.509,0,0,0,.58.741c.081.082.157.138.2.181l.073.063" transform="translate(-8.582 -3.309)" fill="#8e503d"/>
              <path id="Path_923571" data-name="Path 923571" d="M223.472,62.662a.847.847,0,0,1,.8,1.11,1.376,1.376,0,0,1-1.271.842,2.343,2.343,0,0,1-1.654-.344,18.327,18.327,0,0,0-23.582-1.562,13.821,13.821,0,0,1,.3,2.358,15.4,15.4,0,0,1-1.952,7.887,5.653,5.653,0,0,0-3.514-2.588,17.562,17.562,0,0,1-.681-8.843c.061-.376.138-.75.222-1.118-1.386-.681-2.213-2.917-1.256-4.119a2.359,2.359,0,0,1,.719-4.433,6.27,6.27,0,0,1,9.962-4.173,2.888,2.888,0,0,1,4.915.046,5.208,5.208,0,0,1,8.224,1.792,4.959,4.959,0,0,1,6.83,6.347,1.46,1.46,0,1,1,1.239,2.619,2.121,2.121,0,0,1,.705,4.18" transform="translate(-8.44 -2.062)" fill="#38102b"/>
              <path id="Path_923572" data-name="Path 923572" d="M223.472,62.662a.847.847,0,0,1,.8,1.11,1.376,1.376,0,0,1-1.271.842,2.343,2.343,0,0,1-1.654-.344,18.327,18.327,0,0,0-23.582-1.562,13.821,13.821,0,0,1,.3,2.358,2.989,2.989,0,0,1-1.6-.046,1.67,1.67,0,0,1-1.034-2.091,1.039,1.039,0,1,1-1.285-1.6,5.123,5.123,0,0,1-2.228.191c.061-.376.138-.75.222-1.118-1.386-.681-2.213-2.917-1.256-4.119a2.425,2.425,0,0,1-1.255-2.481,2.368,2.368,0,0,1,1.209-1.684,2.27,2.27,0,0,1,.766-.268,6.27,6.27,0,0,1,9.962-4.173,2.888,2.888,0,0,1,4.915.046,5.208,5.208,0,0,1,8.224,1.792,4.959,4.959,0,0,1,6.83,6.347,1.46,1.46,0,1,1,1.239,2.619,2.209,2.209,0,0,1,2.367,1.753,1.974,1.974,0,0,1,.015.475,2.217,2.217,0,0,1-1.677,1.952" transform="translate(-8.44 -2.062)" fill="#4a0f2f"/>
              <path id="Path_923573" data-name="Path 923573" d="M225.206,60.71a6.459,6.459,0,0,1-2.834-.2,3.291,3.291,0,0,1-1.715-1.057,1.6,1.6,0,0,1-.061-1.907,2.661,2.661,0,0,1-3.1-3.942,4.655,4.655,0,0,1-5.558-1.333,4.213,4.213,0,0,1-3.59,1.845A3.93,3.93,0,0,0,211.3,55.58a11.276,11.276,0,0,1-7.351,1.47,2.7,2.7,0,0,0,2.028-2,2.967,2.967,0,0,1-4.294-.483,11.133,11.133,0,0,1-2.612,2.473,3.816,3.816,0,0,1-3.445.414,2.338,2.338,0,0,1-1.285-2.971,3.718,3.718,0,0,1-2.957-1.455,3.622,3.622,0,0,1-.5-.911,2.3,2.3,0,0,1,.764-.268,6.271,6.271,0,0,1,9.962-4.173,2.889,2.889,0,0,1,4.915.046,5.209,5.209,0,0,1,8.225,1.792,4.959,4.959,0,0,1,6.829,6.347,1.46,1.46,0,1,1,1.241,2.619,2.208,2.208,0,0,1,2.365,1.753,1.976,1.976,0,0,1,.016.475" transform="translate(-8.498 -2.063)" fill="#5f1234"/>
              <path id="Path_923574" data-name="Path 923574" d="M235.48,178.265A17.509,17.509,0,0,0,232.465,174c-.331-3.011-.739-6.636-1.207-10.638-1.953-16.615-4.969-39.623-7.909-51.361a28.371,28.371,0,0,0-2.175-6.424A59.941,59.941,0,0,0,215,99.816a.106.106,0,0,1-.031-.023.007.007,0,0,0-.008-.008,28.489,28.489,0,0,0-2.911-1.6c-.032-.077-.061-.157-.1-.233-1.236-2.633-3.868-4.361-6.6-5.369a20.692,20.692,0,0,0-9.2-1.175c-3.186.318-4.8,2.495-4.005,4.963a44.157,44.157,0,0,0-3.806,2.264c-6.745,4.777-8.851,21.446-9.066,38.865-.162,13.6.826,27.646,1.663,36.872a9.741,9.741,0,0,0-2.266,9.828,10.057,10.057,0,0,0,5.223,5.977,23.608,23.608,0,0,0,7.833,2.153,75.529,75.529,0,0,0,39.1-5.157c2.436-1.02,5.129-2.572,5.491-5.188a6.529,6.529,0,0,0-.843-3.721" transform="translate(-7.934 -4.065)" fill="#f3803d"/>
              <path id="Path_923575" data-name="Path 923575" d="M235.511,153.906c1.016-4.1,2.948-8.175,4.305-12.184.025-.072.059-.129.089-.195a31.862,31.862,0,0,1-2.41-7.11c-2.178-5.339-11.752-28.759-12.885-30.651a8.759,8.759,0,0,0-3.323-2.266,71.436,71.436,0,0,0-7.656-2.994s4.854,20.413,5.245,21.048S222,146.229,222,146.229s7.276,7.248,13.288,10.7a9.237,9.237,0,0,1,.224-3.026" transform="translate(-9.51 -4.385)" fill="#f3803d"/>
              <path id="Path_923576" data-name="Path 923576" d="M214.745,285.07l-105.78-.467a4.245,4.245,0,0,1-4.226-4.264l.277-62.8a4.245,4.245,0,0,1,4.264-4.226l105.78.467a4.245,4.245,0,0,1,4.226,4.264l-.277,62.8a4.246,4.246,0,0,1-4.264,4.227" transform="translate(-4.663 -9.496)" fill="#3b7564"/>
              <path id="Path_923577" data-name="Path 923577" d="M210.973,281.558l-97.867-.432a4.246,4.246,0,0,1-4.227-4.264l.248-56.134a4.246,4.246,0,0,1,4.264-4.227l97.867.433a4.246,4.246,0,0,1,4.227,4.264l-.248,56.133a4.246,4.246,0,0,1-4.264,4.227" transform="translate(-4.847 -9.638)" fill="#4c8c7b"/>
              <rect id="Rectangle_408934" data-name="Rectangle 408934" width="4.444" height="103.713" transform="matrix(0.004, -1, 1, 0.004, 105.327, 217.366)" fill="#3b7564"/>
              <rect id="Rectangle_408935" data-name="Rectangle 408935" width="4.445" height="103.712" transform="translate(105.274 229.544) rotate(-89.747)" fill="#3b7564"/>
              <rect id="Rectangle_408936" data-name="Rectangle 408936" width="4.445" height="103.713" transform="translate(105.22 241.722) rotate(-89.747)" fill="#3b7564"/>
              <rect id="Rectangle_408937" data-name="Rectangle 408937" width="4.444" height="103.712" transform="translate(105.166 253.899) rotate(-89.747)" fill="#3b7564"/>
              <rect id="Rectangle_408938" data-name="Rectangle 408938" width="4.444" height="103.712" transform="translate(105.113 266.076) rotate(-89.747)" fill="#3b7564"/>
              <path id="Path_923578" data-name="Path 923578" d="M182.069,213.051l-3.829-.016.032-7.343c0-.726-.445-1.234-.848-1.235l-25.132-.111h0c-.4,0-.855.5-.859,1.228l-.032,7.342-3.829-.016.032-7.343a4.891,4.891,0,0,1,4.686-5.038h.019l25.132.111a4.888,4.888,0,0,1,4.661,5.079Z" transform="translate(-6.57 -8.927)" fill="#3b7564"/>
              <path id="Path_923579" data-name="Path 923579" d="M175.351,204.486c-.747-.613-3.459-6.173-3.412-6.861s-4.216-2.107-4.216-2.107l-.072-6.218-9.6-1.281v.169l-.578,6.285s.1,3.414.092,4.446-.429,4.949-.308,6.2,3.036,3.014,3.974,3.265,1.669,1.895,2.1,2.765,2.228.579,3.686.324a1.764,1.764,0,0,0,.977-.777c1.036-1.4,1.917-4.216,2.519-4.361.781-.193,3.38.7,3.38.7s2.208-1.929,1.465-2.541" transform="translate(-7 -8.37)" fill="#b77158"/>
              <path id="Path_923580" data-name="Path 923580" d="M160.387,203.133c-1.5-3.942-1.481-8.276-1.416-12.495.013-.83.032-1.661.046-2.491l-.97-.129v.169l-.578,6.285s.1,3.415.092,4.446-.429,4.95-.308,6.2,3.036,3.014,3.974,3.265,1.669,1.894,2.1,2.765,2.227.58,3.685.324a1.758,1.758,0,0,0,.977-.777c-3.5-.966-6.281-4.1-7.6-7.558" transform="translate(-7 -8.37)" fill="#cc836d"/>
              <path id="Path_923581" data-name="Path 923581" d="M190.786,112.535a131.01,131.01,0,0,0-17.638,72.915,28.737,28.737,0,0,1-11.957.575,28.073,28.073,0,0,1-6.394-1.8c-4.916-25.05.582-52.249,16.123-72.507a36.406,36.406,0,0,1,8.532-8.487A32.879,32.879,0,0,1,186.1,99.89a14.45,14.45,0,0,1,6.653-1.059c.6.1.908,1.3,1.458,1.577,1.223,4.149-1.242,8.385-3.425,12.126" transform="translate(-6.813 -4.396)" fill="#f3803d"/>
              <path id="Path_923582" data-name="Path 923582" d="M161.191,186.078a28.1,28.1,0,0,1-6.4-1.8c-4.915-25.05.583-52.249,16.124-72.507a36.388,36.388,0,0,1,8.532-8.487,32.879,32.879,0,0,1,6.648-3.338c-9.4,11.762-17.46,24.692-22.384,38.9-5.24,15.128-6.742,31.829-2.525,47.238" transform="translate(-6.813 -4.449)" fill="#f9a050"/>
              <path id="Path_923583" data-name="Path 923583" d="M188.929,110.042c-.029-.182-.335-.2-.338,0-.09,6.93-2.6,13.539-5.234,19.852a157.716,157.716,0,0,0-6.537,18.306,134.964,134.964,0,0,0-3.73,18.053q-.687,5.032-1,10.109c-.212,3.483.187,7.363-2.124,10.246a.928.928,0,0,0-.1.163,33.63,33.63,0,0,0,4.122-.725c1.954-4.475.425-10.369.907-15.16a141.315,141.315,0,0,1,3.865-21.4c1.916-7.375,4.694-14.37,7.367-21.489,2.232-5.945,3.8-11.6,2.8-17.954" transform="translate(-7.562 -4.892)" fill="#cc4f29"/>
              <path id="Path_923584" data-name="Path 923584" d="M228.986,179.653c-9.931,1.216-19.464,2.161-29.379.2a.162.162,0,0,0-.086.311c8.8,2.588,18.226,1.742,27.247.611a63.857,63.857,0,0,1-15.424,5.312,67.737,67.737,0,0,1-9.071,1.331c-2.7.2-5.519-.129-8.161.449a.471.471,0,0,0,0,.9c5.2,1.589,12.4.018,17.632-1.227a69.765,69.765,0,0,0,17.454-7.1c.343-.188.213-.834-.211-.782" transform="translate(-8.627 -7.998)" fill="#cc4f29"/>
              <path id="Path_923585" data-name="Path 923585" d="M227.02,127.427c-1.964-7.308-3.956-15.229-7.527-21.933a.441.441,0,0,0-.8.339c1.784,7.432,4.757,14.626,6.708,22.041,1.964,7.462,3.178,15.019,4.746,22.56.188.906,1.744.72,1.639-.222a153.863,153.863,0,0,0-4.763-22.785" transform="translate(-9.735 -4.687)" fill="#cc4f29"/>
              <path id="Path_923586" data-name="Path 923586" d="M211.115,100.707c-.4.106-.81.2-1.217.282.395-1.806-.079-4.408-1.649-5.348-.263-.158-.489.144-.385.384a17.4,17.4,0,0,1,1.246,2.472,6.672,6.672,0,0,1,.118,2.613,22.159,22.159,0,0,1-3.6.344c1.015-1.642-.182-4.762-1.477-5.747-.207-.158-.44.1-.4.308.194.986.961,1.771,1.24,2.758a4.525,4.525,0,0,1-.175,2.673,20.763,20.763,0,0,1-3.027-.3c-.118-.021-.233-.048-.351-.071a8.716,8.716,0,0,1-.395-2.528c.032-.847.42-1.637.409-2.465A.269.269,0,0,0,201,95.9c-1.106,1.092-.973,3.485-.369,5.011a22.2,22.2,0,0,1-2.735-.828c-.16-.06-.315-.136-.472-.2a12.859,12.859,0,0,1-.027-2.921c.2-1,.814-1.827,1.044-2.8.054-.228-.2-.472-.422-.325-1.413.958-1.994,3.813-1.465,5.649a16.027,16.027,0,0,0-2.6-1.123.148.148,0,0,0-.142.246c1.887,2.114,5.694,3.029,8.374,3.444a21.955,21.955,0,0,0,9.155-.536.416.416,0,0,0-.221-.8" transform="translate(-8.626 -4.175)" fill="#cc4f29"/>
              <path id="Path_923587" data-name="Path 923587" d="M237.852,134.557c-2.178-5.34-11.752-28.759-12.885-30.651a8.748,8.748,0,0,0-3.323-2.266,15.333,15.333,0,0,1,2.312,3.445,56.908,56.908,0,0,1,3.032,8.874c1.126,3.676,2.573,7.236,4.02,10.788q2.872,7.041,5.735,14.089c.705,1.723.759,3.6,1.838,5.115.176.245.406.505.7.5.452-.015.635-.59.674-1.041a17.485,17.485,0,0,0,.029-2.357,30.2,30.2,0,0,1-2.135-6.493" transform="translate(-9.867 -4.525)" fill="#f9a050"/>
              <path id="Path_923588" data-name="Path 923588" d="M183.541,101.417l2.5,42.319,4.517.146L189.016,98.5a31.611,31.611,0,0,0-5.475,2.918" transform="translate(-8.171 -4.385)" fill="#444"/>
              <path id="Path_923589" data-name="Path 923589" d="M215.649,99.2s4.3-.1,6.392,2.711l6.351,28.711,1.453,8.52-3.242-3.223Z" transform="translate(-9.6 -4.416)" fill="#444"/>
              <path id="Path_923590" data-name="Path 923590" d="M179.334,167.711s7.139-11.6,6.523-21.925l3.152-1.262,1.364,1.408s-.971,19.512-9.737,26.623Z" transform="translate(-7.984 -6.434)" fill="#444"/>
              <path id="Path_923591" data-name="Path 923591" d="M310.008,221.4l3.753,6.858-5.373,2.1-3.405-5.9Z" transform="translate(-13.577 -9.856)" fill="#e79e80"/>
              <path id="Path_923592" data-name="Path 923592" d="M269.279,291.736l5.115,5.344,15.727-13.406,1.309-1.118s2.2-2.022,4.617-4.365c2.634-2.565,5.521-5.52,6.064-6.685.681-1.454.413-6.079.413-6.079l-7.473-3.224-3.974,5.437-.574.781-4.808,6.562-.429.59Z" transform="translate(-11.988 -11.673)" fill="#b77158"/>
              <path id="Path_923593" data-name="Path 923593" d="M286.46,275.208l4.425,8.69,1.309-1.118s7.41-7.475,9.829-9.819c1.563-1.333,1.444-4.707.87-5.5-2.7-1.073-10.247,2.07-11.051.4l-.574.782Z" transform="translate(-12.752 -11.897)" fill="#8e503d"/>
              <path id="Path_923594" data-name="Path 923594" d="M276.889,311.72a1.193,1.193,0,0,0,.29-1.158c-.442-1.4-2.326-6.3-2.413-7.994a10.307,10.307,0,0,1,1.022-3.922l-6.484-6.578a71.634,71.634,0,0,0-6.655,4.438Z" transform="translate(-11.692 -13.002)" fill="#444"/>
              <path id="Path_923595" data-name="Path 923595" d="M275.275,313.32l-14.24-15.213,1.542-1.393,14.24,15.213Z" transform="translate(-11.621 -13.209)" fill="#f7e4d9"/>
              <path id="Path_923596" data-name="Path 923596" d="M273.6,302.123l-.082.017c-.2.048-.458.187-.374.438a.671.671,0,0,0,.263.3,4.39,4.39,0,0,0,1.257.6,3.363,3.363,0,0,0,1.5.237c.526-.079.554-.646.139-.939a3.814,3.814,0,0,0-2.7-.649" transform="translate(-12.159 -13.448)" fill="#f7e4d9"/>
              <path id="Path_923597" data-name="Path 923597" d="M273.856,304.1l-.082.017c-.205.048-.458.187-.374.438a.671.671,0,0,0,.263.3,4.392,4.392,0,0,0,1.257.6,3.364,3.364,0,0,0,1.5.237c.526-.079.554-.646.139-.94a3.818,3.818,0,0,0-2.7-.648" transform="translate(-12.17 -13.536)" fill="#f7e4d9"/>
              <path id="Path_923598" data-name="Path 923598" d="M274.665,306.089l-.082.017c-.205.048-.458.187-.374.438a.671.671,0,0,0,.263.3,4.392,4.392,0,0,0,1.257.6,3.363,3.363,0,0,0,1.5.237c.526-.079.553-.646.14-.939a3.814,3.814,0,0,0-2.7-.649" transform="translate(-12.206 -13.624)" fill="#f7e4d9"/>
              <path id="Path_923599" data-name="Path 923599" d="M305.173,250.035c-.007-.245-.011-.489-.018-.733-.011-.524-.022-1.041-.035-1.553-.007-.333-.014-.659-.023-.984-.037-1.544-.073-3-.105-4.295H290.748c-.328,7.565-1.01,24.451-1.01,24.451s15.567,1.561,15.63.817c.129-1.548-.023-10.033-.195-17.7" transform="translate(-12.898 -10.794)" fill="#2a2b2b"/>
              <path id="Path_923600" data-name="Path 923600" d="M305.679,247.749a11.764,11.764,0,0,1-1.264-1.243,9.548,9.548,0,0,1-2.109-4.036h.668a8.84,8.84,0,0,0,1.277,2.783c.092.133.748.86,1.4,1.512.009.325.016.652.023.984" transform="translate(-13.458 -10.794)" fill="#243754"/>
              <path id="Path_923601" data-name="Path 923601" d="M305.608,250.035a11.244,11.244,0,0,1-6.1-7.564h.659a10.591,10.591,0,0,0,5.421,6.831c.007.244.011.488.018.733" transform="translate(-13.333 -10.794)" fill="#243754"/>
              <path id="Path_923602" data-name="Path 923602" d="M297.577,260.826l3.906,11.9,2.458,32.689-7.827,1.273-4.093-30.07-4.965-12.432Z" transform="translate(-12.779 -11.611)" fill="#b77158"/>
              <path id="Path_923603" data-name="Path 923603" d="M316.314,313.414a1.221,1.221,0,0,0-.789-.909c-1.41-.461-6.553-1.817-8-2.735a10.564,10.564,0,0,1-2.65-3.111l-9.186,1.355a69.706,69.706,0,0,0-.183,7.926Z" transform="translate(-13.154 -13.652)" fill="#444"/>
              <path id="Path_923604" data-name="Path 923604" d="M316.574,315.779l-20.808,2.526-.259-2.049,20.808-2.526Z" transform="translate(-13.155 -13.966)" fill="#f7e4d9"/>
              <path id="Path_923605" data-name="Path 923605" d="M306.324,310.654c-.011.026-.023.051-.033.076-.079.192-.11.476.145.554a.683.683,0,0,0,.4-.034,4.358,4.358,0,0,0,1.219-.66,3.272,3.272,0,0,0,1.063-1.062c.239-.466-.213-.821-.7-.66a3.734,3.734,0,0,0-2.1,1.787" transform="translate(-13.633 -13.748)" fill="#f7e4d9"/>
              <path id="Path_923606" data-name="Path 923606" d="M308.1,311.6c-.011.025-.023.051-.033.076-.079.191-.11.476.145.554a.68.68,0,0,0,.4-.034,4.35,4.35,0,0,0,1.22-.66,3.272,3.272,0,0,0,1.063-1.062c.239-.466-.213-.821-.7-.66a3.734,3.734,0,0,0-2.1,1.787" transform="translate(-13.712 -13.791)" fill="#f7e4d9"/>
              <path id="Path_923607" data-name="Path 923607" d="M310.216,312.118c-.011.025-.023.051-.033.076-.079.191-.11.476.145.554a.683.683,0,0,0,.4-.034,4.36,4.36,0,0,0,1.219-.66,3.273,3.273,0,0,0,1.063-1.062c.239-.466-.213-.821-.7-.66a3.734,3.734,0,0,0-2.1,1.787" transform="translate(-13.806 -13.813)" fill="#f7e4d9"/>
              <path id="Path_923608" data-name="Path 923608" d="M279.885,243.272l2.949-.01.671,0,1.825-.007.663,0,8.482-.036,7.078,22.8-15.177,4.953s-5.025-16.022-5.987-18.468c-.083-.214-.164-.422-.245-.631-.33-.837-.643-1.636-.939-2.387-.081-.206-.161-.411-.238-.611-1.322-3.359-2.2-5.582-2.2-5.582Z" transform="translate(-12.321 -10.827)" fill="#444"/>
              <path id="Path_923609" data-name="Path 923609" d="M286.15,243.248a13.172,13.172,0,0,1-5.6,9.25l-.246-.631a12.5,12.5,0,0,0,5.186-8.617Z" transform="translate(-12.478 -10.829)" fill="#243754"/>
              <path id="Path_923610" data-name="Path 923610" d="M283.607,243.26a8.622,8.622,0,0,1-4.3,6.223q-.123-.311-.239-.611a7.967,7.967,0,0,0,3.866-5.61Z" transform="translate(-12.423 -10.829)" fill="#243754"/>
              <path id="Path_923611" data-name="Path 923611" d="M293.324,204.794c1.489-.323.228-5.279.148-6.4a48.092,48.092,0,0,1,.155-6.257l-8.982-1.509s.053,2.489-.008,5.143c-.061,2.689.532,10.785,8.687,9.017" transform="translate(-12.671 -8.487)" fill="#b77158"/>
              <path id="Path_923612" data-name="Path 923612" d="M284.638,195.774a44.15,44.15,0,0,0,6.829,3.1,2.8,2.8,0,0,0,2-.475,48.342,48.342,0,0,1,.161-6.256l-8.983-1.51s.051,2.493-.009,5.139" transform="translate(-12.671 -8.487)" fill="#8e503d"/>
              <path id="Path_923613" data-name="Path 923613" d="M281.246,170.573a13.415,13.415,0,0,1,16.115-2.658,6.352,6.352,0,0,1,2.609,2.283c1.719,3.355,4.094,15.668,1.351,21.556s-6.961,5.045-8.462,4.617-8.545-3.282-10.159-5.484-5.007-13.528-4.2-16.466a11.915,11.915,0,0,1,2.741-3.847" transform="translate(-12.393 -7.404)" fill="#cc836d"/>
              <path id="Path_923614" data-name="Path 923614" d="M280.751,169.641a13.414,13.414,0,0,1,16.115-2.658,6.355,6.355,0,0,1,2.608,2.283c1.72,3.355,4.1,15.668,1.352,21.556s-6.962,5.045-8.462,4.617-8.546-3.282-10.16-5.484-5.006-13.528-4.2-16.466a11.936,11.936,0,0,1,2.742-3.847" transform="translate(-12.371 -7.362)" fill="#b77158"/>
              <path id="Path_923615" data-name="Path 923615" d="M300.344,186.841a.751.751,0,0,0,.033.593,1.121,1.121,0,0,0,.7.55,2.694,2.694,0,0,0,1.285.031,2.273,2.273,0,0,0,1.006-.417,1.119,1.119,0,0,0,.444-.956c-.18-1.656-3.065-.93-3.466.2" transform="translate(-13.369 -8.266)" fill="#d87b71"/>
              <path id="Path_923616" data-name="Path 923616" d="M288.264,188.681a1.014,1.014,0,0,0,.171-.788,1.52,1.52,0,0,0-.716-.972,3.657,3.657,0,0,0-1.67-.5,3.079,3.079,0,0,0-1.467.182,1.522,1.522,0,0,0-.927,1.091c-.361,2.232,3.677,2.322,4.608.989" transform="translate(-12.627 -8.298)" fill="#cc836d"/>
              <path id="Path_923617" data-name="Path 923617" d="M300.254,179.249c-1.027-.341-2.134-.495-2.058.269a1.119,1.119,0,0,0,.406.65,4.507,4.507,0,0,0,2.262.936,2.431,2.431,0,0,0,.787.046c.711-.113.766-.713.2-1.168a6.594,6.594,0,0,0-1.595-.734" transform="translate(-13.275 -7.967)" fill="#444"/>
              <path id="Path_923618" data-name="Path 923618" d="M288,180.674c.976-.468,1.878-1.127,1.293-1.623a1.113,1.113,0,0,0-.744-.185,4.507,4.507,0,0,0-2.276.9,2.438,2.438,0,0,0-.6.514c-.432.576-.055,1.045.67.977a6.6,6.6,0,0,0,1.657-.581" transform="translate(-12.709 -7.963)" fill="#444"/>
              <path id="Path_923619" data-name="Path 923619" d="M293.547,184.853c-.25.3.23.67.482.371a.9.9,0,0,1,1.5.42c.185.638-.606,1.093-1.146,1.042-.389-.036-.476.564-.087.6.976.091,2.216-.8,1.792-1.889a1.513,1.513,0,0,0-2.544-.546" transform="translate(-13.065 -8.207)" fill="#8e503d"/>
              <path id="Path_923620" data-name="Path 923620" d="M275.2,181.091a25.579,25.579,0,0,0,1.934,4.588l.212-.667a2.062,2.062,0,0,1,3.389-.759,5.3,5.3,0,0,1,.8,1.031c.083-1.4,1.153-3.99,1.09-5.355l-.5-5.447a7.391,7.391,0,0,0,4.463,1.178,3.219,3.219,0,0,1-.816-2.324c.457.686,1.143,1.783,1.935,1.985a12.833,12.833,0,0,0,4.8.341,3.89,3.89,0,0,1-1.992-2.638,13.292,13.292,0,0,0,9.506,3.065,12.868,12.868,0,0,0,8.8-4.471c-.095-.034-.187-.076-.281-.118-3.219-1.376-5.7-3.929-8.424-6.08-.182-.139-.364-.277-.553-.417a6.421,6.421,0,0,0,1.858-2.09c-4.176-1.665-8.565-3.362-13.06-3.01a15.856,15.856,0,0,0-13.048,9.649,17.024,17.024,0,0,0-.113,11.537" transform="translate(-12.209 -7.116)" fill="#1d1e1e"/>
              <path id="Path_923621" data-name="Path 923621" d="M275.2,181.091a13.5,13.5,0,0,0,3.746-3.685c.332,1.048.662,2.1,1,3.152a21.685,21.685,0,0,0,1.058-10.675,5.419,5.419,0,0,0,4.469,2.242c-.151-1.13-.3-2.267-.446-3.405a6.747,6.747,0,0,0,5.024,3.073,7.51,7.51,0,0,1-.446-3.143,21.055,21.055,0,0,0,18.936,2.85,17.751,17.751,0,0,1-3.469-2.038h-.008c-1.708-1.261-3.283-2.727-4.947-4.041-.182-.139-.364-.277-.553-.417a6.421,6.421,0,0,0,1.858-2.09c-4.176-1.665-8.565-3.362-13.06-3.01a15.856,15.856,0,0,0-13.048,9.649,14.12,14.12,0,0,0-.949,3.66,18.981,18.981,0,0,0,.836,7.877" transform="translate(-12.209 -7.116)" fill="#444"/>
              <path id="Path_923622" data-name="Path 923622" d="M274.374,173.214a13.393,13.393,0,0,0,3.231-3.285c0,1.4,0,2.791,0,4.193a26.247,26.247,0,0,0,3.846-9.169,8.291,8.291,0,0,0,3.279,2.962c.144-1.549.288-3.091.425-4.641a6.859,6.859,0,0,0,4.745,3.451c.028-.951.054-1.895.082-2.845a13.51,13.51,0,0,0,15.086,5.582c-1.708-1.262-3.284-2.728-4.947-4.042-.182-.139-.365-.277-.554-.417a6.4,6.4,0,0,0,1.858-2.09c-4.176-1.665-8.564-3.362-13.06-3.01a15.857,15.857,0,0,0-13.048,9.649,14.089,14.089,0,0,0-.948,3.66" transform="translate(-12.214 -7.116)" fill="#595959"/>
              <path id="Path_923623" data-name="Path 923623" d="M281.959,184.893c-.357-.174-2.15-2.551-3.425-1.118s-1.628,3.812-.438,5.153c1.086,1.224,2.6,2.547,4.46,2.083Z" transform="translate(-12.348 -8.161)" fill="#b77158"/>
              <path id="Path_923624" data-name="Path 923624" d="M278.619,185.666a1.813,1.813,0,0,0,.074.96,7.677,7.677,0,0,0,2.876,3.274,3.524,3.524,0,0,1-.429-2.081c.025-.247.074-.493.075-.741,0-1-2.152-3.29-2.6-1.413" transform="translate(-12.402 -8.234)" fill="#cc836d"/>
              <path id="Path_923625" data-name="Path 923625" d="M282.188,190.274l-.068-.04c-.044-.029-.114-.065-.193-.121a2.767,2.767,0,0,1-.592-.565,2.612,2.612,0,0,1-.49-1.054,2.333,2.333,0,0,1,.143-1.4,1.191,1.191,0,0,1,.087-.175l.023-.043c.006-.011,0,0,0,0h0l0-.007-.02-.038-.04-.076c-.028-.05-.055-.1-.084-.148a5.951,5.951,0,0,0-.363-.546c-.126-.17-.257-.326-.386-.468a3.535,3.535,0,0,0-.38-.373.821.821,0,0,0-.388-.18.577.577,0,0,0-.329.059.283.283,0,0,0-.167.209.3.3,0,0,1,0-.071.312.312,0,0,1,.122-.182.641.641,0,0,1,.377-.128,1,1,0,0,1,.513.153,3.355,3.355,0,0,1,.467.354,5.292,5.292,0,0,1,.462.456,4.834,4.834,0,0,1,.427.559c.033.051.065.1.1.155l.046.079.061.112.043.079c-.012.026-.028.053-.041.079l-.06.113a1.168,1.168,0,0,0-.074.152,2.452,2.452,0,0,0-.187,1.237,2.753,2.753,0,0,0,.32,1.007,2.908,2.908,0,0,0,.455.611c.064.068.122.115.158.149l.056.053" transform="translate(-12.418 -8.232)" fill="#8e503d"/>
              <path id="Path_923626" data-name="Path 923626" d="M277.359,159.382a1.029,1.029,0,0,0-.186.825.993.993,0,0,0,.862.564,3.777,3.777,0,0,0,2.83-.99,1.408,1.408,0,0,0,.655-1.282c-.13-.558-.811-.786-1.384-.773a3.29,3.29,0,0,0-2.777,1.657" transform="translate(-12.338 -7.022)" fill="#932f49"/>
              <path id="Path_923627" data-name="Path 923627" d="M300.371,162.266s-21.525,11.866-26.342,13.912c0,0-2.135-10.312,3.415-15.157A36.684,36.684,0,0,1,280.7,159c3.147-1.713,6.945-3.059,10.507-2.288a17.427,17.427,0,0,1,6.465,3.2,23.931,23.931,0,0,1,2.7,2.348" transform="translate(-12.181 -6.967)" fill="#bd4761"/>
              <path id="Path_923628" data-name="Path 923628" d="M274.047,176.448s37.4-8.808,37.128-11.214-10.785-2.7-10.785-2.7Z" transform="translate(-12.2 -7.236)" fill="#932f49"/>
              <path id="Path_923629" data-name="Path 923629" d="M297.929,159.918a13.437,13.437,0,0,1-2.863,2.925c-3.345,2.712-7.258,5.13-11.563,5.167a4.78,4.78,0,0,1-1.943-.308,3.738,3.738,0,0,1-2.03-2.6,6.631,6.631,0,0,1,.215-3.379A11.146,11.146,0,0,1,280.956,159c3.148-1.713,6.946-3.059,10.507-2.289a17.442,17.442,0,0,1,6.465,3.2" transform="translate(-12.438 -6.967)" fill="#932f49"/>
              <path id="Path_923630" data-name="Path 923630" d="M293.433,202.142s6.593,1.547,8.216,3.41,8.962,14.269,8.962,14.269l-7.439,4.786Z" transform="translate(-13.063 -8.999)" fill="#526995"/>
              <path id="Path_923631" data-name="Path 923631" d="M276.537,248.063c-.405-4.859.167-18.732.245-25.18.115-9.308,1.24-18.215,4.844-20.768.319-.226,1.155-.74,2.033-1.21-.426-1.319-.145-2.522,1.557-2.693a23.086,23.086,0,0,1,7.131.818c1.458.539,1.723,1.34,1.894,2.719.019.041.034.083.052.125a15.206,15.206,0,0,1,1.556.853l0,0a.1.1,0,0,0,.017.012,32.054,32.054,0,0,1,3.3,3.077,15.118,15.118,0,0,1,1.162,3.432c1.571,6.273,3.183,18.567,4.227,27.445.174,1.488.928,8.921,1.067,10.171Z" transform="translate(-12.304 -8.822)" fill="#526995"/>
              <path id="Path_923632" data-name="Path 923632" d="M300.637,208.1a43.828,43.828,0,0,1,1.453,4.906c.186-.7.5-1.4.718-2.058a.09.09,0,0,1,.173.048,11.691,11.691,0,0,1-.642,3.018l-.007.01c.226.977.44,1.954.655,2.92a62.422,62.422,0,0,1,1.443,8.335c.019.238-.358.284-.415.055-.693-2.833-1.154-5.726-1.8-8.572s-1.546-5.647-2.166-8.5a.307.307,0,0,1,.591-.163" transform="translate(-13.357 -9.255)" fill="#3d557a"/>
              <path id="Path_923633" data-name="Path 923633" d="M293.782,203.222c-.216.057-.433.106-.651.151a2.827,2.827,0,0,0-.881-2.858c-.14-.084-.262.077-.205.205a9.381,9.381,0,0,1,.666,1.32,3.574,3.574,0,0,1,.062,1.4,11.844,11.844,0,0,1-1.924.183c.542-.877-.1-2.544-.79-3.071-.111-.084-.235.054-.213.164.1.526.513.946.662,1.473a2.411,2.411,0,0,1-.094,1.428,11.122,11.122,0,0,1-1.617-.16c-.063-.011-.125-.025-.188-.037a4.674,4.674,0,0,1-.21-1.351c.017-.452.225-.874.219-1.318a.144.144,0,0,0-.244-.1,2.76,2.76,0,0,0-.2,2.677,11.85,11.85,0,0,1-1.461-.442c-.085-.033-.168-.073-.252-.109a6.92,6.92,0,0,1-.014-1.56c.108-.537.435-.977.558-1.5.029-.121-.109-.252-.225-.173a3.093,3.093,0,0,0-.783,3.018,8.575,8.575,0,0,0-1.39-.6.079.079,0,0,0-.076.131c1.008,1.13,3.042,1.619,4.475,1.84a11.734,11.734,0,0,0,4.893-.287.222.222,0,0,0-.118-.428" transform="translate(-12.666 -8.882)" fill="#3d557a"/>
              <path id="Path_923634" data-name="Path 923634" d="M283.285,201.031s-7.444.672-9.217,3.779-6.086,18.786-6.086,18.786h10.126l3.537-15.9Z" transform="translate(-11.93 -8.949)" fill="#526995"/>
              <path id="Path_923635" data-name="Path 923635" d="M286.062,220.008l.677,26.823h31.116l.541-26.985Z" transform="translate(-12.735 -9.787)" fill="#b5966e"/>
              <path id="Path_923636" data-name="Path 923636" d="M269.948,224.645c.557,2.033,1.305,4.627,2.074,6.881.913,2.689,1.857,4.889,2.528,5.057,1.653.418,13.322,2.77,15.249,3.154v0l.05.008.221.045,0-.011.053-.164.373-1.121.118-.356.577-1.73.126-.376.2-.622h0l-.016,0h0a.087.087,0,0,0-.016-.008c-.07-.03-.238-.087-.414-.168-.016-.009-.036-.016-.057-.025l-.18-.074-12.974-5.216c-.27-1.379-.7-3.335-1.138-5.274Z" transform="translate(-12.017 -10.001)" fill="#b77158"/>
              <path id="Path_923637" data-name="Path 923637" d="M275.078,224.645l2.331,7.4c.585.389,12.454,3.964,13.535,4.287l0,0,.064.016.009,0,.527-.319.205-.622h0l-.016,0h0a.086.086,0,0,0-.016-.008c-.07-.03-.237-.087-.413-.168-.016-.009-.037-.016-.057-.025l-.181-.074-12.974-5.216c-.269-1.379-.7-3.335-1.137-5.274Z" transform="translate(-12.246 -10.001)" fill="#cc836d"/>
              <path id="Path_923638" data-name="Path 923638" d="M305.723,238.4c.088-.532-8-3.653-8-3.653a6.135,6.135,0,0,0,3.139-2.566l.019-.033a.354.354,0,0,0,.045-.341.326.326,0,0,0-.13-.111,1.722,1.722,0,0,0-1.427-.007,13.276,13.276,0,0,0-1.3.69,7.292,7.292,0,0,1-2.715.628c-1.58.161-2.9,2.713-2.9,2.713s-.226-.044-.536-.1l-1.121,4.238,1.865.478.786.942c.652.6,8.656,2.807,8.948,2.335a3.546,3.546,0,0,0,.22-.419c.1-.226.181-.444.233-.59.036-.109.055-.177.055-.177a5.267,5.267,0,0,0,.483-.46,3.088,3.088,0,0,0,.4-.5.616.616,0,0,0,.128-.5,3.748,3.748,0,0,0-1.072-.79c-1.457-.886-3.858-2.141-3.681-2.236.248-.129,6.074,1.239,6.074,1.239a1.181,1.181,0,0,0,.3-.308,1.222,1.222,0,0,0,.19-.479" transform="translate(-12.946 -10.308)" fill="#b77158"/>
              <path id="Path_923639" data-name="Path 923639" d="M303.817,242.368c-.145-.055-.293-.113-.44-.177a13.249,13.249,0,0,1-2.115-1.142c-.483-.321-.774-.557-.808-.586.042.011.4.116.948.3.582.2,1.374.482,2.223.843q.307.132.594.263a3.135,3.135,0,0,1-.4.5" transform="translate(-13.375 -10.705)" fill="#8e503d"/>
              <path id="Path_923640" data-name="Path 923640" d="M303.05,243.679a14.078,14.078,0,0,1-2.463-1.287,14.094,14.094,0,0,1,2.7.7c-.053.145-.133.365-.234.589" transform="translate(-13.381 -10.791)" fill="#8e503d"/>
              <path id="Path_923641" data-name="Path 923641" d="M291.685,236.645c.025,0,.053.012.077.016a3.3,3.3,0,0,0,.4.057,1.087,1.087,0,0,0,.323-.041,1.4,1.4,0,0,0,.659-.569A7.706,7.706,0,0,1,295.073,234a18.44,18.44,0,0,1,3.231-1.02,7.787,7.787,0,0,1,2.312-.83c.1,0,.2,0,.307,0a.355.355,0,0,0,.045-.339.383.383,0,0,0-.131-.111,1.707,1.707,0,0,0-1.428,0,13.243,13.243,0,0,0-1.3.687,7.325,7.325,0,0,1-2.713.631c-1.583.16-2.909,2.708-2.909,2.708s-.212-.074-.45-.18c-.016-.009-.036-.016-.056-.025l-.181-.074Z" transform="translate(-12.985 -10.308)" fill="#cc836d"/>
              <path id="Path_923642" data-name="Path 923642" d="M280.324,214.7c.567-3.228,2.21-7.8-.8-10.247-.315-.255.105-.808.438-.568,2.356,1.716,2.222,4.55,1.781,7.164-.707,4.179-1.2,8.614-2.426,12.673-.067.224-.436.193-.42-.056a79.788,79.788,0,0,1,1.428-8.966" transform="translate(-12.416 -9.074)" fill="#3d557a"/>
              <rect id="Rectangle_408939" data-name="Rectangle 408939" width="35.209" height="3.888" transform="translate(271.967 206.692)" fill="#b5966e"/>
              <rect id="Rectangle_408940" data-name="Rectangle 408940" width="32.288" height="1.492" transform="translate(273.374 210.58)" fill="#a0815f"/>
              <path id="Path_923643" data-name="Path 923643" d="M316.216,238.011c.336-.492,3.335-.3,2.42-.353s-4.075-1.692-3.882-2.335,5.311-.394,5.311-.394-3.917-1.1-3.3-2.264c.2-.379.917-.543,1.786-.593-.711-.665-1.164-1.333-.58-1.642,1.373-.73,4.809,1.92,4.809,1.92,3.65,3.48-3.171,7.663-3.171,7.663s-3.73-1.51-3.394-2" transform="translate(-14.012 -10.253)" fill="#b77158"/>
              <path id="Path_923644" data-name="Path 923644" d="M287.573,183.65c0,1.2.606,2.173,1.353,2.173s1.353-.973,1.353-2.173-.606-2.173-1.353-2.173-1.353.973-1.353,2.173" transform="translate(-12.802 -8.079)" fill="#1d1e1e"/>
              <path id="Path_923645" data-name="Path 923645" d="M286.22,182.478a2.785,2.785,0,0,0,2.986,1.209,2.785,2.785,0,0,0-2.986-1.209" transform="translate(-12.742 -8.121)" fill="#ffefdf"/>
              <path id="Path_923646" data-name="Path 923646" d="M301.28,183.5c0,.9-.457,1.638-1.019,1.638s-1.02-.733-1.02-1.638.457-1.638,1.02-1.638,1.019.733,1.019,1.638" transform="translate(-13.321 -8.096)" fill="#1d1e1e"/>
              <path id="Path_923647" data-name="Path 923647" d="M302.193,182.74a2.253,2.253,0,0,1-2.124.86,2.25,2.25,0,0,1,2.124-.86" transform="translate(-13.358 -8.134)" fill="#ffefdf"/>
              <path id="Path_923648" data-name="Path 923648" d="M296.676,189.631a5.172,5.172,0,0,1-1.807,1.226,6.461,6.461,0,0,1-1.257.383,5.556,5.556,0,0,1-1.455.079l.029,0a4.4,4.4,0,0,1-1.693-.406,1.759,1.759,0,0,1-.929-.9,4.2,4.2,0,0,0,1.247.6,4.442,4.442,0,0,0,.7.154,6.709,6.709,0,0,0,.726.057h.029a6.43,6.43,0,0,0,2.244-.345,21.185,21.185,0,0,0,2.169-.851" transform="translate(-12.891 -8.442)" fill="#8e503d"/>
            </g>
          </g>
        </g>
      </g>
    </g>
  </g>
</svg>
