<svg xmlns="http://www.w3.org/2000/svg" xmlns:xlink="http://www.w3.org/1999/xlink" width="150" height="150" viewBox="0 0 150 150">
  <defs>
    <clipPath id="clip-path">
      <rect id="Rectangle_407255" data-name="Rectangle 407255" width="150" height="150" transform="translate(0)" fill="#f69a8b"/>
    </clipPath>
    <clipPath id="clip-path-2">
      <rect id="Rectangle_401492" data-name="Rectangle 401492" width="96.296" height="96.297" transform="translate(0 0)" fill="#953c2d" stroke="#707070" stroke-width="1"/>
    </clipPath>
    <clipPath id="clip-path-3">
      <rect id="Rectangle_408919" data-name="Rectangle 408919" width="75.097" height="92.602" fill="#953c2d"/>
    </clipPath>
  </defs>
  <g id="Group_1118053" data-name="Group 1118053" transform="translate(-429.664 -5602)">
    <g id="Group_1118051" data-name="Group 1118051" transform="translate(250.336 1917.467)">
      <g id="Group_1116923" data-name="Group 1116923" transform="translate(179.328 3684.533)" clip-path="url(#clip-path)">
        <path id="Path_893365" data-name="Path 893365" d="M148.169,44.41C139.386,14.569,73.684-19.323,25.142,13.36s-13,149.535-6.586,125.918c6.165-22.7,33.5-4.155,54.014-3.491,22.845.739,37.666-5.15,37.63-5.238,10.531-3.911,17.983-9.053,24.206-18.726C146.839,92.5,153.455,62.367,148.169,44.41" transform="translate(0.001 3.798)" fill="#f69a8b"/>
      </g>
      <g id="Group_1115380" data-name="Group 1115380" transform="translate(221.88 3726.838)">
        <rect id="Rectangle_401104" data-name="Rectangle 401104" width="60.924" height="61.907" transform="translate(2.232 0)" fill="none"/>
        <g id="Mask_Group_1098697" data-name="Mask Group 1098697" transform="translate(-15.7 -15.454)" clip-path="url(#clip-path-2)">
          <g id="Group_1119016" data-name="Group 1119016" transform="translate(23.086 126.621)">
            <g id="Group_1119015" data-name="Group 1119015" transform="translate(-15 -124)" clip-path="url(#clip-path-3)">
              <path id="Path_923318" data-name="Path 923318" d="M6.048.079,68.329,0A7.177,7.177,0,0,1,75.1,6.5V86.1a7.231,7.231,0,0,1-6.767,6.5H6.765A7.218,7.218,0,0,1,0,86.1L.009,6.242A7.218,7.218,0,0,1,6.048.079m.26,2.913A4.419,4.419,0,0,0,2.922,6.5l.131,80.261a4.466,4.466,0,0,0,3.976,2.921H68.066a4.278,4.278,0,0,0,4.114-3.844l-.138-80a4.466,4.466,0,0,0-3.976-2.921Z" transform="translate(0.001)" fill="#953c2d"/>
              <path id="Path_923319" data-name="Path 923319" d="M23.411,27.247l61.615.083.553.508L85.456,100.7l-62.79-.133-.1-72.573Zm59.764,2.862h-58.1V98.021h58.1Z" transform="translate(-16.579 -20.019)" fill="#953c2d"/>
              <path id="Path_923320" data-name="Path 923320" d="M120.881,315.8a77.242,77.242,0,0,1,9.222-.049,1.465,1.465,0,0,1-.254,2.916,56.8,56.8,0,0,1-8.965-.064c-1.585-.344-1.173-2.467,0-2.8" transform="translate(-88.051 -231.902)" fill="#953c2d"/>
              <path id="Path_923321" data-name="Path 923321" d="M56.29,144.954v10.081H66.37c.163-1.131-.491-3.311.646-3.994.837-.5,2.058-.412,2.264.685a31.384,31.384,0,0,1,0,5.026,1.689,1.689,0,0,1-.8,1.062c-4.177-.039-9.025.527-13.137.151-1.281-.117-1.82-.351-1.982-1.731a87.632,87.632,0,0,1-.009-12.752c.058-.431.607-1.445.942-1.445h8.489c.976,0,.9,2.918-.531,2.918Z" transform="translate(-39.035 -104.357)" fill="#953c2d"/>
              <path id="Path_923322" data-name="Path 923322" d="M66.664,230.718c-.288-1.588.009-5.571,2.477-4,.672.428.766,6.351-.15,6.741l-13.88.189c-.706.025-1.078-.463-1.326-1.061.065-4.112-.5-8.841-.132-12.891.115-1.284.358-1.823,1.731-1.982a42.591,42.591,0,0,1,7.589.122.8.8,0,0,1,.528.325l.112,1.946a3.078,3.078,0,0,1-.8.53H56.583v10.081Z" transform="translate(-39.329 -159.879)" fill="#953c2d"/>
              <path id="Path_923323" data-name="Path 923323" d="M56.3,67.733v9.948l.4.4h9.683c.132-1.116-.312-2.868.293-3.819a1.4,1.4,0,0,1,2.376-.043c.462.773.526,6.515-.414,6.515H54.307c-.335,0-.885-1.014-.942-1.445a86.906,86.906,0,0,1,0-12.494c.076-.83.064-1.371.915-1.738s6.9-.407,7.927-.183c1.933.425,1.259,2.861.587,2.861Z" transform="translate(-39.043 -47.562)" fill="#953c2d"/>
              <path id="Path_923326" data-name="Path 923326" d="M132.253,78.321c-1.857.371-2.474-2.679,0-2.9,7.572-.685,16.571-.155,24.407,0,2.164.273,1.95,1.758.811,2.9Z" transform="translate(-96.048 -55.232)" fill="#953c2d"/>
              <path id="Path_923338" data-name="Path 923338" d="M132.253,78.321c-1.857.371-2.474-2.679,0-2.9,7.572-.685,16.571-.155,24.407,0,2.164.273,1.95,1.758.811,2.9Z" transform="translate(-96.048 -35.023)" fill="#953c2d"/>
              <path id="Path_923340" data-name="Path 923340" d="M132.253,78.321c-1.857.371-2.474-2.679,0-2.9,7.572-.685,16.571-.155,24.407,0,2.164.273,1.95,1.758.811,2.9Z" transform="translate(-96.048 -14.814)" fill="#953c2d"/>
              <path id="Path_923336" data-name="Path 923336" d="M131.727,78.321c-1.259.371-1.678-2.679,0-2.9,5.134-.685,11.237-.155,16.55,0,1.468.273,1.322,1.758.55,2.9Z" transform="translate(-96.048 -49.398)" fill="#953c2d"/>
              <path id="Path_923337" data-name="Path 923337" d="M131.727,78.321c-1.259.371-1.678-2.679,0-2.9,5.134-.685,11.237-.155,16.55,0,1.468.273,1.322,1.758.55,2.9Z" transform="translate(-96.048 -29.189)" fill="#953c2d"/>
              <path id="Path_923339" data-name="Path 923339" d="M131.727,78.321c-1.259.371-1.678-2.679,0-2.9,5.134-.685,11.237-.155,16.55,0,1.468.273,1.322,1.758.55,2.9Z" transform="translate(-96.048 -8.98)" fill="#953c2d"/>
              <path id="Path_923327" data-name="Path 923327" d="M83.2,55.377a2.27,2.27,0,0,1,.185,2.046c-2.408,3.1-4.411,6.543-6.8,9.645-.814,1.056-1.5,2.651-3.13,1.9-.57-.262-3.385-3.325-3.453-4-.28-2.78,3.357-1.176,4.112.419,2.71-3.318,4.713-7.295,7.752-10.3a1.712,1.712,0,0,1,1.337.292" transform="translate(-51.419 -40.447)" fill="#953c2d"/>
              <path id="Path_923328" data-name="Path 923328" d="M70.573,219.066c-.457-.61-1.05-.837-.55-1.959.921-2.067,3.153.359,3.977,1.314l7.044-9.927c1.7-1.124,3.089.312,2.066,2.066l-7.922,11.175c-1.621,1.307-3.684-1.426-4.616-2.669" transform="translate(-51.307 -152.892)" fill="#953c2d"/>
              <path id="Path_923329" data-name="Path 923329" d="M70.359,140.475c1.53-1.533,3.126,1.648,3.755,1.517l7.037-9.691c1.826-1.15,3.047.238,2.106,2.106a95.313,95.313,0,0,1-7.28,10.227c-.407.475-1.134,1.356-1.793,1.294-1.155-.8-5.361-3.913-3.824-5.452" transform="translate(-51.449 -96.896)" fill="#953c2d"/>
              <path id="Path_923333" data-name="Path 923333" d="M207.183,251.231c1.113-1.112,3.572.434,2.18,2.047-1.341,1.555-3.464-.764-2.18-2.047" transform="translate(-151.929 -184.307)" fill="#953c2d"/>
              <path id="Path_923334" data-name="Path 923334" d="M208.3,98.144c1.855-.288,2.167,2.642.456,2.885a1.46,1.46,0,1,1-.456-2.885" transform="translate(-152.12 -72.094)" fill="#953c2d"/>
              <path id="Path_923335" data-name="Path 923335" d="M209.635,177.168c-.73.725-2.506.5-2.582-.886-.162-2.932,4.49-1.009,2.582.886" transform="translate(-152.123 -128.41)" fill="#953c2d"/>
            </g>
          </g>
        </g>
      </g>
    </g>
    <circle id="Ellipse_11767" data-name="Ellipse 11767" cx="11.5" cy="11.5" r="11.5" transform="translate(556.664 5622)" fill="#fcdf8e"/>
    <circle id="Ellipse_11768" data-name="Ellipse 11768" cx="5.5" cy="5.5" r="5.5" transform="translate(463.664 5729)" fill="#fcdf8e"/>
    <circle id="Ellipse_11769" data-name="Ellipse 11769" cx="3.5" cy="3.5" r="3.5" transform="translate(456.664 5741)" fill="#fed0c8"/>
    <circle id="Ellipse_11770" data-name="Ellipse 11770" cx="3.5" cy="3.5" r="3.5" transform="translate(553.664 5615)" fill="#fcc4ba"/>
  </g>
</svg>
