<svg xmlns="http://www.w3.org/2000/svg" xmlns:xlink="http://www.w3.org/1999/xlink" width="70" height="70" viewBox="0 0 70 70">
  <defs>
    <clipPath id="clip-path">
      <rect id="Rectangle_408925" data-name="Rectangle 408925" width="42.094" height="36.964" fill="#953c2d"/>
    </clipPath>
  </defs>
  <g id="Group_1118639" data-name="Group 1118639" transform="translate(-268.711 -957.673)">
    <circle id="Ellipse_5614" data-name="Ellipse 5614" cx="35" cy="35" r="35" transform="translate(268.711 957.673)" fill="#fff"/>
    <g id="Group_1119026" data-name="Group 1119026" transform="translate(282.711 974.672)">
      <g id="Group_1119025" data-name="Group 1119025" clip-path="url(#clip-path)">
        <path id="Path_923409" data-name="Path 923409" d="M18.455,5.426l.249-.075c2.61-4.757,8.173-6.828,13.121-4.2,5.083,2.7,6.419,9.3,4.076,14.318a12.039,12.039,0,0,1-1.008,1.762c-.325.269-1.5-.019-2.046,0A11.325,11.325,0,0,0,22.34,26.959a14.185,14.185,0,0,1-.1,2.313,35.6,35.6,0,0,1-2.836,2.464,1.276,1.276,0,0,1-1.738-.053C12.153,26.251.486,19.68.019,11.154-.586.114,13.1-4.383,18.455,5.426m.481,11.924-1.68-6.691a1.247,1.247,0,0,0-1.663-.683c-.818.335-2.043,3.941-2.677,4.79-.832.248-2.046-.308-2.655.476a1.277,1.277,0,0,0,.477,1.935,17.6,17.6,0,0,0,3.191.047c1.024-.162,1.17-1.93,1.873-2.522.566,2.007.839,4.526,1.563,6.448.391,1.038,1.488,1.5,2.225.531.49-.645,1.922-4.2,2.234-4.391,1.32-.289,3.248.2,4.493-.084a1.23,1.23,0,0,0,0-2.358c-1.67.135-3.908-.273-5.508-.019a1.42,1.42,0,0,0-.842.6Z" transform="translate(0 0.001)" fill="#953c2d"/>
        <path id="Path_923410" data-name="Path 923410" d="M212.559,163.888c7.9-.892,13.062,8.083,7.8,14.181a8.656,8.656,0,1,1-7.8-14.181m4.8,9.2c.258-.27.967-.98,1.127-1.222a1.238,1.238,0,0,0-1.953-1.5l-3.864,3.88c-.421.174-1.154-.979-1.47-1.237-.677-.554-1.368-.936-2.051-.124a1.122,1.122,0,0,0-.057,1.509,34.343,34.343,0,0,0,3,2.9c.7.226,1.163-.14,1.651-.59,1.133-1.046,2.533-2.486,3.613-3.613" transform="translate(-180.402 -144.094)" fill="#953c2d"/>
      </g>
    </g>
  </g>
</svg>
