<svg xmlns="http://www.w3.org/2000/svg" xmlns:xlink="http://www.w3.org/1999/xlink" width="107.004" height="102.673" viewBox="0 0 107.004 102.673">
  <defs>
    <clipPath id="clip-path">
      <rect id="Rectangle_408929" data-name="Rectangle 408929" width="59.289" height="58.137" fill="#fff0ee"/>
    </clipPath>
    <clipPath id="clip-path-2">
      <rect id="Rectangle_407253" data-name="Rectangle 407253" width="19" height="18.533" fill="#eebc32"/>
    </clipPath>
    <clipPath id="clip-path-3">
      <rect id="Rectangle_407253-2" data-name="Rectangle 407253" width="11.91" height="11.617" fill="#eebc32"/>
    </clipPath>
  </defs>
  <g id="Group_1119132" data-name="Group 1119132" transform="translate(-285 -2053.246)">
    <path id="Path_920869" data-name="Path 920869" d="M0,0H107V102.673H0Z" transform="translate(285 2053.246)" fill="#f69a8b"/>
    <g id="Group_1118643" data-name="Group 1118643" transform="translate(296 2062.219)">
      <g id="Group_1118062" data-name="Group 1118062" transform="translate(0 -0.001)">
        <circle id="Ellipse_11771" data-name="Ellipse 11771" cx="42.5" cy="42.5" r="42.5" transform="translate(-0.289 -0.299)" fill="#953c2d"/>
        <g id="Group_1118061" data-name="Group 1118061" transform="translate(12.736 11.766)">
          <rect id="Rectangle_401104" data-name="Rectangle 401104" width="55.839" height="56.739" transform="translate(2.046)" fill="none"/>
          <g id="Group_1119033" data-name="Group 1119033" transform="translate(-0.025 1.936)">
            <g id="Group_1119033-2" data-name="Group 1119033" clip-path="url(#clip-path)">
              <path id="Path_923432" data-name="Path 923432" d="M56.677,57.225c.348-1.245,1.583-2.229,2.489-.835-.2,1.545.476,6.889-.145,7.931-.592.993-3.774.156-4.863.571C44.751,79.877,23.537,83.139,10.3,71.1A29.6,29.6,0,0,1,2.338,39.077c.652-1.743,1.64-3.3,2.35-5.014L.317,30.436a1.323,1.323,0,0,1-.268-1.206c.254-.868,2.593-2.738,3.081-3.721a1.26,1.26,0,0,1,1.344-.2L30.6,47.51a12.187,12.187,0,0,0,1.626-1.245c1.627-1.417,4.479-4.811,6.1-5.735a1.26,1.26,0,0,1,1.268-.085L56.191,57.037ZM54.351,62.66h2.717V59.943l-.98-.086-17-16.977L31.25,49.944l-1.229-.117L3.9,27.729,2.623,29.673,30.677,53.454h.385l7.074-6.716a1.371,1.371,0,0,1,1.283-.1c.624.2,5.055,4.871,5.915,5.73C48.267,55.3,51.05,58.4,54.063,61.3a1.069,1.069,0,0,1,.288,1.363M15.733,48.3l.093-4.654L6.514,35.709A23.833,23.833,0,0,0,2.731,48.3Zm2.135-2.717V48.3h3.493l-2.43-2.13Zm0,4.852A48.425,48.425,0,0,0,20.1,65.182c1.638,5.086,6.2,14.38,12.886,9.977,5.028-3.312,7.548-13.936,8.145-19.606a20.8,20.8,0,0,0,.213-3.853,10.342,10.342,0,0,0-2.589-2.61l-7.013,6.583c-.656.569-1.1.462-1.747,0-2.014-1.431-4.018-3.7-6.015-5.239Zm-2.135,0h-13A26.937,26.937,0,0,0,18.513,73.95,14.124,14.124,0,0,0,23.3,75.372c-5.9-6.632-7.368-16.329-7.567-24.938M51.634,64.8c-2.4-.37-1.22-2,.191-2.816l-8.534-8.247c-.4,7.625-2.263,15.855-7.375,21.732A25.948,25.948,0,0,0,51.634,64.8" transform="translate(0 -20.303)" fill="#fff0ee"/>
              <path id="Path_923433" data-name="Path 923433" d="M71.728.11a29.925,29.925,0,0,1,28.793,14.948c2.235,4.038,4.089,10.566,3.469,15.179-.19,1.414-1.918,1.581-2.141-.595-.333-3.243-.046-5.283-1.068-8.635C95.82,4.724,75.658-3.064,61.034,5.911c-1.3.8-4.11,3.793-4.752,1.254C56.4,5.931,62.038,2.9,63.291,2.347A28.478,28.478,0,0,1,71.728.11" transform="translate(-45.36 0)" fill="#fff0ee"/>
              <path id="Path_923434" data-name="Path 923434" d="M129.188,32.282c-5.7.212-5.781-8.191,0-7.956l.178-1.812c1.676-.964,2.171.256,1.955,1.812.889.135,3.5-.3,4.081.285.456.478.2,1.849-.49,1.849h-3.59v3.687c5.741-.048,5.741,8.161,0,7.956.16,1.472-.143,2.721-1.847,1.946l-.286-1.945H125.4c-.714,0-.656-2.135.388-2.135h3.4Zm0-5.822a1.882,1.882,0,1,0,0,3.687Zm2.135,9.509c3.061.311,2.953-3.836,0-3.687Z" transform="translate(-100.647 -17.869)" fill="#fff0ee"/>
            </g>
          </g>
        </g>
      </g>
      <g id="Group_1118063" data-name="Group 1118063" transform="translate(0 66.083)">
        <g id="Group_1116914" data-name="Group 1116914" transform="translate(0 0)" clip-path="url(#clip-path-2)">
          <path id="Path_893319" data-name="Path 893319" d="M19,9.266a9.386,9.386,0,0,1-9.5,9.267A9.386,9.386,0,0,1,0,9.266,9.385,9.385,0,0,1,9.5,0,9.385,9.385,0,0,1,19,9.266" transform="translate(0 0)" fill="#eebc32"/>
        </g>
      </g>
      <g id="Group_1118064" data-name="Group 1118064" transform="translate(73.004 12.999)">
        <g id="Group_1116914-2" data-name="Group 1116914" transform="translate(0 0)" clip-path="url(#clip-path-3)">
          <path id="Path_893319-2" data-name="Path 893319" d="M11.91,5.808a5.884,5.884,0,0,1-5.955,5.809A5.883,5.883,0,0,1,0,5.808,5.883,5.883,0,0,1,5.955,0,5.883,5.883,0,0,1,11.91,5.808" transform="translate(0 0)" fill="#eebc32"/>
        </g>
      </g>
    </g>
  </g>
</svg>
