<svg xmlns="http://www.w3.org/2000/svg" xmlns:xlink="http://www.w3.org/1999/xlink" width="295" height="234.046" viewBox="0 0 295 234.046">
  <defs>
    <clipPath id="clip-path">
      <rect id="Rectangle_408844" data-name="Rectangle 408844" width="269.648" height="229.975" fill="none"/>
    </clipPath>
  </defs>
  <g id="Group_1118677" data-name="Group 1118677" transform="translate(-285.332 -3619.846)">
    <path id="Path_893294" data-name="Path 893294" d="M30,0H265c16.569,0,30,10.571,30,23.61V128.282c0,13.04-13.431,23.61-30,23.61H30c-16.569,0-30-10.571-30-23.61V23.61C0,10.571,13.431,0,30,0Z" transform="translate(285.332 3702)" fill="#ffdcd6"/>
    <g id="Group_1118924" data-name="Group 1118924" transform="translate(296.395 3619.846)">
      <g id="Group_1118923" data-name="Group 1118923" clip-path="url(#clip-path)">
        <path id="Path_921794" data-name="Path 921794" d="M70.724,302.549s-2.135,6.105-2.1,9.737a12.289,12.289,0,0,0,.425,3.468c1.853,6.07,9.6,12.255,9.552,16.892l-34.373-9.475a194.117,194.117,0,0,1,6.5-21.741" transform="translate(-15.066 -102.671)" fill="#332013"/>
        <line id="Line_3339" data-name="Line 3339" x2="32.721" y2="9.678" transform="translate(29.995 217.075)" fill="none" stroke="#000" stroke-miterlimit="10" stroke-width="1"/>
        <path id="Path_921795" data-name="Path 921795" d="M143.886,307.131s-.572,6.442.357,9.953a12.3,12.3,0,0,0,1.263,3.257c3.286,5.43,12.318,9.524,13.4,14.032l-35.647-.752a193.981,193.981,0,0,1,.972-22.672" transform="translate(-41.972 -104.613)" fill="#332013"/>
        <line id="Line_3340" data-name="Line 3340" x2="34.096" y2="1.354" transform="translate(81.254 225.486)" fill="none" stroke="#000" stroke-miterlimit="10" stroke-width="1"/>
        <path id="Path_921796" data-name="Path 921796" d="M45.63,161.917a20.664,20.664,0,0,0,2.953,12.576c2.244,3.644,5.561,9.511,5.561,9.511l8.132,32.723L47.506,261.938l29.213,7.784s4.068-11.116,11.624-37.9c2.929-10.383,3.1-22.107.223-36.307s-12.014-42.371-12.014-42.371" transform="translate(-15.515 -52.162)" fill="#825231"/>
        <path id="Path_921797" data-name="Path 921797" d="M110.2,146.761c7.836,16.623,18.036,37,21.765,55.164,2.28,11.108,2.656,55.458,3.471,66.748l-28.984-.754-1.742-57.6L86.453,175.791s-13.2-11.292-12.084-24.46" transform="translate(-25.308 -49.989)" fill="#825231"/>
        <path id="Path_921798" data-name="Path 921798" d="M100.314,208.272,86.595,181.583s-8.349-5.28-10.571-11.922" transform="translate(-25.895 -57.789)" fill="none" stroke="#000" stroke-miterlimit="10" stroke-width="1"/>
        <path id="Path_921799" data-name="Path 921799" d="M67.289,213.516a17.659,17.659,0,0,0,5.825,2.521" transform="translate(-22.919 -72.726)" fill="none" stroke="#49301d" stroke-miterlimit="10" stroke-width="1"/>
        <path id="Path_921800" data-name="Path 921800" d="M65.947,206.807l7.036,5.11" transform="translate(-22.462 -70.441)" fill="none" stroke="#49301d" stroke-miterlimit="10" stroke-width="1"/>
        <path id="Path_921801" data-name="Path 921801" d="M63.327,200.319q4.715,2.288,9.193,5.024" transform="translate(-21.57 -68.231)" fill="none" stroke="#49301d" stroke-miterlimit="10" stroke-width="1"/>
        <path id="Path_921802" data-name="Path 921802" d="M61.05,304.739a78.554,78.554,0,0,1,5.756,6.116" transform="translate(-20.794 -103.798)" fill="none" stroke="#49301d" stroke-miterlimit="10" stroke-width="1"/>
        <path id="Path_921803" data-name="Path 921803" d="M62.809,298.661q2.943,3.37,5.714,6.886" transform="translate(-21.394 -101.728)" fill="none" stroke="#49301d" stroke-miterlimit="10" stroke-width="1"/>
        <path id="Path_921804" data-name="Path 921804" d="M62.263,291.659a38.1,38.1,0,0,1,7.067,5.832" transform="translate(-21.208 -99.343)" fill="none" stroke="#49301d" stroke-miterlimit="10" stroke-width="1"/>
        <path id="Path_921805" data-name="Path 921805" d="M69.285,288.962a29.19,29.19,0,0,0,5.389,5.394" transform="translate(-23.599 -98.424)" fill="none" stroke="#49301d" stroke-miterlimit="10" stroke-width="1"/>
        <path id="Path_921806" data-name="Path 921806" d="M76.114,281.135a18.3,18.3,0,0,0,3.392,4" transform="translate(-25.925 -95.758)" fill="none" stroke="#49301d" stroke-miterlimit="10" stroke-width="1"/>
        <path id="Path_921807" data-name="Path 921807" d="M146.639,314.748a44.368,44.368,0,0,1,8.43,3.4" transform="translate(-49.947 -107.207)" fill="none" stroke="#49301d" stroke-miterlimit="10" stroke-width="1"/>
        <path id="Path_921808" data-name="Path 921808" d="M151.2,311.829l6.561,3.037" transform="translate(-51.501 -106.213)" fill="none" stroke="#49301d" stroke-miterlimit="10" stroke-width="1"/>
        <path id="Path_921809" data-name="Path 921809" d="M153.485,307.191a18.44,18.44,0,0,1,5.424,3.476" transform="translate(-52.279 -104.633)" fill="none" stroke="#49301d" stroke-miterlimit="10" stroke-width="1"/>
        <path id="Path_921810" data-name="Path 921810" d="M150.2,298.626a33.53,33.53,0,0,1,7.624,4.629" transform="translate(-51.16 -101.716)" fill="none" stroke="#49301d" stroke-miterlimit="10" stroke-width="1"/>
        <path id="Path_921811" data-name="Path 921811" d="M111.16,31.258a46.256,46.256,0,0,0-3.035-10.7c-1.427-3.691-3.84-7.04-7.845-8.093a10.746,10.746,0,0,0-11.4,3.831,10.181,10.181,0,0,0-1.24,2.318c-1.667,4.375-.939,9.42,1.145,13.523,1.64,3.229,3.966,5.6,7.538,6.43,4.152.967,9.743.657,13.261-2.026,1.65-1.258,1.823-3.333,1.581-5.28" transform="translate(-29.537 -4.12)" fill="#ad603a"/>
        <path id="Path_921812" data-name="Path 921812" d="M118.176,25.837s5.52,5.233,4.952,6.461-2.812,1.383-2.812,1.383" transform="translate(-40.252 -8.8)" fill="#ad603a"/>
        <path id="Path_921813" data-name="Path 921813" d="M108.981,39.682,106.8,51.115s-8.821,3.825-14.5,1.921-5.857-4.926-5.857-4.926l4.808-12.6" transform="translate(-29.443 -12.095)" fill="#ad603a"/>
        <path id="Path_921814" data-name="Path 921814" d="M87.734,24.949a12.38,12.38,0,0,0,3.213-5.621,28.97,28.97,0,0,0,.912-6.473,12.389,12.389,0,0,1,9.529.142A9.491,9.491,0,0,0,96.61,3.964a4.386,4.386,0,0,0-3.065-.613,10.124,10.124,0,0,0-1.9.876,12.316,12.316,0,0,1-4.293.93,15.452,15.452,0,0,0-4.332.774,5.113,5.113,0,0,0-2.75,2.34,4.583,4.583,0,0,0-.246,1.593,3.057,3.057,0,0,1-1.147,1.679c-.677.553-1.48.925-2.2,1.418a8.06,8.06,0,0,0-3.329,7.79c.812,4.9,5.991,8.168,6.871,13.055a1.921,1.921,0,0,0,.442,1.138,1.6,1.6,0,0,0,.825.32c1.354.233,3.852.6,5.089-.189,1.327-.845,1.893-3.308,2.085-4.735a25.02,25.02,0,0,0-.084-5.565" transform="translate(-24.948 -1.113)" fill="#211917"/>
        <path id="Path_921815" data-name="Path 921815" d="M95.52,35.288a3.5,3.5,0,0,0-2.655-1.17c-2.586.3-3.449,3.537-2.742,5.684a4.618,4.618,0,0,0,3.214,3.079c2.151.486,4.407-.423,4.365-2.763" transform="translate(-30.616 -11.617)" fill="#ad603a"/>
        <path id="Path_921816" data-name="Path 921816" d="M92.137,39.529q2.78.463,5.542,1.028" transform="translate(-31.383 -13.464)" fill="none" stroke="#000" stroke-miterlimit="10" stroke-width="1"/>
        <path id="Path_921817" data-name="Path 921817" d="M95.481,34.1a3.49,3.49,0,0,1,2.3,1.726" transform="translate(-32.522 -11.614)" fill="none" stroke="#000" stroke-miterlimit="10" stroke-width="1"/>
        <path id="Path_921818" data-name="Path 921818" d="M97.336,46.413a2.764,2.764,0,0,0,3.081-3.079" transform="translate(-33.154 -14.76)" fill="none" stroke="#000" stroke-miterlimit="10" stroke-width="1"/>
        <path id="Path_921819" data-name="Path 921819" d="M107.024,50.77a20.045,20.045,0,0,0,7.456-.243" transform="translate(-36.454 -17.21)" fill="none" stroke="#000" stroke-miterlimit="10" stroke-width="1"/>
        <path id="Path_921820" data-name="Path 921820" d="M109.779,25.7a20.542,20.542,0,0,0,3.617-3.319" transform="translate(-37.392 -7.622)" fill="none" stroke="#000" stroke-miterlimit="10" stroke-width="1"/>
        <path id="Path_921821" data-name="Path 921821" d="M116.93,38.246a4.147,4.147,0,0,0,3.537.421" transform="translate(-39.828 -13.027)" fill="none" stroke="#000" stroke-miterlimit="10" stroke-width="1"/>
        <path id="Path_921822" data-name="Path 921822" d="M116.569,26.817a.754.754,0,1,1-1.3.636.754.754,0,1,1,1.3-.636" transform="translate(-39.22 -8.926)"/>
        <path id="Path_921823" data-name="Path 921823" d="M141.89,263.99c-2.27-2.623-5.276-4.483-7.509-7.144-6.306-7.513-5.545-17.815-2.159-26.439,1.733-4.413,4.12-8.53,6.144-12.809a20.957,20.957,0,0,0,1.17-5.259c.715-3.872,3.811-5.948,7.23-7.449,2.059-.9,4.432-1.619,6.517-.775,2.016.816,3.236,2.9,3.855,4.986,1.355,4.564.817,9.376.929,14.059a62.935,62.935,0,0,0,1.751,15.037c1.653,6.085,5.615,13.943,12.323,15.4" transform="translate(-44.16 -69.396)" fill="none" stroke="#b78358" stroke-linecap="round" stroke-miterlimit="10" stroke-width="3"/>
        <path id="Path_921824" data-name="Path 921824" d="M136.377,244.853a22.908,22.908,0,0,0-2.617-7.353,9.461,9.461,0,0,0-6.132-4.624c-6.334-1.143-14.005-1.791-19.581,2.082a16.217,16.217,0,0,0-4.935,6.023c-3.627,7.03-4.047,15.24-4,23.15a11.262,11.262,0,0,0,.58,4.231c2.663,6.5,9.361,9.579,16,10.224,5.844.567,15.457,0,19.275-5.177,2.245-3.04,2.438-7.9,2.711-11.556a60.814,60.814,0,0,0-1.3-17" transform="translate(-33.757 -79.021)" fill="#e5bd88"/>
        <path id="Path_921825" data-name="Path 921825" d="M117.235,226.89s42.287-10.513,45.914-11.392,14.083-.425,19.132,5.417c4.091,4.734,3.608,21.5.18,28.977-2.315,5.052-49.544,21.975-49.544,21.975s-19.739-16.573-20.188-17.256,4.506-27.721,4.506-27.721" transform="translate(-38.387 -73.283)" fill="#e5bd88"/>
        <path id="Path_921826" data-name="Path 921826" d="M119.846,233.534a16.082,16.082,0,0,1,10.934,2.09,22.968,22.968,0,0,1,5.914,5.5,33.1,33.1,0,0,1,6.6,13.456,24,24,0,0,1-1.352,14.8,41.834,41.834,0,0,1-2.615,4.686,13.557,13.557,0,0,1-2.278,3.024" transform="translate(-40.821 -79.47)" fill="none" stroke="#b29067" stroke-linecap="round" stroke-miterlimit="10" stroke-width="1"/>
        <path id="Path_921827" data-name="Path 921827" d="M136.539,227.4c13.005-3.726,26.978-6.922,39.983-10.648" transform="translate(-46.507 -73.828)" fill="none" stroke="#b29067" stroke-linecap="round" stroke-miterlimit="10" stroke-width="1"/>
        <path id="Path_921828" data-name="Path 921828" d="M161.228,262.893c4.752-7.829,5.056-17.776,3.007-26.66a26.452,26.452,0,0,0-6.71-12.747c-2.037-2.051-4.527-3.751-5.919-6.285a14.491,14.491,0,0,1-1.422-4.521c-.293-1.676-.4-3.606.748-4.863a5.867,5.867,0,0,1,2.847-1.441,14.632,14.632,0,0,1,6.521-.719c4.252.767,7.106,4.655,10.658,7.118,1.383.959,2.9,1.716,4.232,2.75a19.122,19.122,0,0,1,4.641,5.725,40.044,40.044,0,0,1,2.527,33.924" transform="translate(-51.089 -70.002)" fill="none" stroke="#b78358" stroke-linecap="round" stroke-miterlimit="10" stroke-width="3"/>
        <path id="Path_921829" data-name="Path 921829" d="M99.734,263.523c5.445,2.588,11.687,3.22,17.645,3.245a69.6,69.6,0,0,0,19.479-2.351" transform="translate(-33.971 -89.759)" fill="none" stroke="#f7d3a9" stroke-linecap="round" stroke-linejoin="round" stroke-width="2"/>
        <path id="Path_921830" data-name="Path 921830" d="M104.407,263.664c1.393,5.58,4.21,10.7,7.306,15.546,2.479,3.882,5.25,7.73,9.1,10.259" transform="translate(-35.562 -89.807)" fill="none" stroke="#f7d3a9" stroke-linecap="round" stroke-linejoin="round" stroke-width="2"/>
        <path id="Path_921831" data-name="Path 921831" d="M117.674,266.716a82.681,82.681,0,0,0,18.3,21.838" transform="translate(-40.081 -90.847)" fill="none" stroke="#f7d3a9" stroke-linecap="round" stroke-linejoin="round" stroke-width="2"/>
        <path id="Path_921832" data-name="Path 921832" d="M131.969,267.377a92.825,92.825,0,0,0,12.481,15.381" transform="translate(-44.95 -91.072)" fill="none" stroke="#f7d3a9" stroke-linecap="round" stroke-linejoin="round" stroke-width="2"/>
        <path id="Path_921833" data-name="Path 921833" d="M144.7,266.06q3.395,4.293,7.146,8.285" transform="translate(-49.288 -90.623)" fill="none" stroke="#f7d3a9" stroke-linecap="round" stroke-linejoin="round" stroke-width="2"/>
        <path id="Path_921834" data-name="Path 921834" d="M98.781,274.835a27.023,27.023,0,0,0,7.566,15.593" transform="translate(-33.646 -93.612)" fill="none" stroke="#f7d3a9" stroke-linecap="round" stroke-linejoin="round" stroke-width="2"/>
        <path id="Path_921835" data-name="Path 921835" d="M102.549,284.187c6.571-4.437,11.606-10.751,16.532-16.963" transform="translate(-34.929 -91.02)" fill="none" stroke="#f7d3a9" stroke-linecap="round" stroke-linejoin="round" stroke-width="2"/>
        <path id="Path_921836" data-name="Path 921836" d="M98.736,275.47a137.465,137.465,0,0,0,11.272-9.8" transform="translate(-33.631 -90.492)" fill="none" stroke="#f7d3a9" stroke-linecap="round" stroke-linejoin="round" stroke-width="2"/>
        <path id="Path_921837" data-name="Path 921837" d="M114.326,289.337a18.222,18.222,0,0,0,2.194-1.76,47.376,47.376,0,0,0,3.546-3.434,55.4,55.4,0,0,0,4.147-5.4l9.047-12.828" transform="translate(-38.941 -90.575)" fill="none" stroke="#f7d3a9" stroke-linecap="round" stroke-linejoin="round" stroke-width="2"/>
        <path id="Path_921838" data-name="Path 921838" d="M131.81,290.218c.626-.613,1.3-1.173,1.915-1.8a24.956,24.956,0,0,0,3.054-4.064c3.928-6.087,7.641-12.451,9.435-19.47" transform="translate(-44.896 -90.224)" fill="none" stroke="#f7d3a9" stroke-linecap="round" stroke-linejoin="round" stroke-width="2"/>
        <path id="Path_921839" data-name="Path 921839" d="M143.05,182.188c2.787,2.76,3.687,8.435,5.69,11.808a13.085,13.085,0,0,1,1.12,2.489s-1.207.907-1.147,1.751a3.864,3.864,0,0,0,1.65,1.141,2.223,2.223,0,0,0,2.62-.632c.078-.12.155-.262.293-.3a.572.572,0,0,1,.336.049,2.933,2.933,0,0,0,3.491-1.511,1.786,1.786,0,0,0,2.057.214c.66-.332.666-.651,1.1-1.247a.8.8,0,0,1,.324-.3c.3-.113.594.16.9.233a1.69,1.69,0,0,0,1.3-.611,3.477,3.477,0,0,0,.42-1.221c.763-3.883.439-5.83-1.206-9.457-1.7-3.752-4.149-9.224-6.622-12.488" transform="translate(-48.725 -58.62)" fill="#ad603a"/>
        <path id="Path_921840" data-name="Path 921840" d="M158.04,208.71a2.138,2.138,0,0,0,.362-1.224,10.231,10.231,0,0,0-.9-4.86" transform="translate(-53.648 -69.017)" fill="none" stroke="#000" stroke-miterlimit="10" stroke-width="1"/>
        <path id="Path_921841" data-name="Path 921841" d="M163.694,206.2a16.13,16.13,0,0,0,.024-3.745,15.909,15.909,0,0,0-1.05-3.546" transform="translate(-55.406 -67.753)" fill="none" stroke="#000" stroke-miterlimit="10" stroke-width="1"/>
        <path id="Path_921842" data-name="Path 921842" d="M169.118,204.623a15.1,15.1,0,0,0-.533-6.953" transform="translate(-57.422 -67.329)" fill="none" stroke="#000" stroke-miterlimit="10" stroke-width="1"/>
        <path id="Path_921843" data-name="Path 921843" d="M3.6,157.167a29.411,29.411,0,0,0-.9,3.718,23.162,23.162,0,0,1-1.033,3.328C.641,166.992-.458,170.263.2,173.247a7.708,7.708,0,0,0,1.015,2.923,8.16,8.16,0,0,0,.839,1.367,7.26,7.26,0,0,0,1.41,1.232l1.8,1.317A7.079,7.079,0,0,0,6.657,181a.7.7,0,0,0,.626.032c.272-.168.228-.571.15-.882a2.572,2.572,0,0,0,.462.847.871.871,0,0,0,.874.282.939.939,0,0,0,.468-.408,1.718,1.718,0,0,0,.263-.975c.078.145.27.388.343.536.106.217.468.148.68.032.557-.3.561-1.012.418-1.631a.972.972,0,0,0,.877-.724,5.3,5.3,0,0,0-.056-2.127,3.128,3.128,0,0,1,.919-2.9,8.563,8.563,0,0,0-.6,1.817,2.057,2.057,0,0,0,.253,1.8.71.71,0,0,0,.613.266c.305-.048.493-.351.638-.622.769-1.433,1.766-2.821,2.431-4.3a17.3,17.3,0,0,0,1.176-4.759c.333-2.394.622-4.9,1.977-6.906" transform="translate(0 -53.533)" fill="#ad603a"/>
        <path id="Path_921844" data-name="Path 921844" d="M19.208,180.308q1.189-.877,2.31-1.846" transform="translate(-6.542 -60.786)" fill="none" stroke="#000" stroke-miterlimit="10" stroke-width="1"/>
        <path id="Path_921845" data-name="Path 921845" d="M9.427,183.954c-.65-1.844-2.562-3.021-3.211-4.865a6.855,6.855,0,0,1-.287-1.3,2.854,2.854,0,0,1,.477-2.358,11.829,11.829,0,0,1,1.232-1.148,9.777,9.777,0,0,0,2.951-5.315" transform="translate(-2 -57.553)" fill="none" stroke="#000" stroke-miterlimit="10" stroke-width="1"/>
        <path id="Path_921846" data-name="Path 921846" d="M13.088,186.977a11.506,11.506,0,0,0-1.224-2.954,7.985,7.985,0,0,1-1.207-2.806,7.239,7.239,0,0,1,.262-3.266" transform="translate(-3.601 -60.612)" fill="none" stroke="#000" stroke-miterlimit="10" stroke-width="1"/>
        <path id="Path_921847" data-name="Path 921847" d="M15.92,185.949a18.592,18.592,0,0,0-1.076-3.685,4.755,4.755,0,0,1,.667-4.2" transform="translate(-4.98 -60.65)" fill="none" stroke="#000" stroke-miterlimit="10" stroke-width="1"/>
        <path id="Path_921848" data-name="Path 921848" d="M111.247,57.464c3.745.673,9.572,1.811,12.884,3.685,4.351,2.461,6.99,4.349,8.862,8.983,4.286,10.609,2.846,25.905,4.109,37.544l12.417,33.658-16.264,6.033S117.6,125.448,115.07,111.151s.076-30.236.076-30.236" transform="translate(-37.892 -19.573)" fill="#513620"/>
        <path id="Path_921849" data-name="Path 921849" d="M65.626,55.21c-11.779-1.665-21.68,1.131-30.042,8.246A108.491,108.491,0,0,0,23.627,75.507a79.877,79.877,0,0,0-8.778,14.036c-4.655,9.509-5.936,13.337-8.775,23.536-1.447,5.2-3.029,14.3-3.029,14.3s16.415,2.6,16.4,2.047S32.95,95.376,32.95,95.376L58.3,73.013" transform="translate(-1.037 -18.646)" fill="#513620"/>
        <path id="Path_921850" data-name="Path 921850" d="M57.214,61.033c-8.59,16.93-12.257,36.429-17.508,54.581a25.96,25.96,0,0,0-1.418,7.872,13.07,13.07,0,0,0,3.143,8.093l60.332-9.185s3.081-6.869,1.852-12.439a103.476,103.476,0,0,1-2.246-23.763c.164-10.051.086-20.329-1.377-22.388a19.455,19.455,0,0,0-9.631-6.542c-4.285-1.139-15.9-3.161-20.322-2.681s-12.824,6.451-12.824,6.451" transform="translate(-13.039 -18.567)" fill="#513620"/>
        <path id="Path_921851" data-name="Path 921851" d="M92.106,89.605c-1.676-6.024-4.894-11.38-12.04-11.389-9.174-.011-18.391-.659-27.575-.35a9.933,9.933,0,0,0-8.205,4.047c-5.33,6.442-7.243,14.052-9.1,22.068-2.361,10.185-4.736,20.49-4.6,30.946a14.685,14.685,0,0,0,1.282,6.733,12.435,12.435,0,0,0,6.091,5.127c5.842,2.649,12.451,2.908,18.864,2.949,4.436.03,8.872-.026,13.308-.081a29.717,29.717,0,0,0,16.76-5.707c7.859-5.8,7.667-15.2,8.031-24.068A118.594,118.594,0,0,0,92.99,93.5c-.24-1.3-.527-2.611-.884-3.894" transform="translate(-10.414 -26.494)" fill="#d2653e"/>
        <path id="Path_921852" data-name="Path 921852" d="M104.9,76.447l-2.929-1.114a35.631,35.631,0,0,1,11.988-15.854c1.97-1,4.479.764,4.479.764a32.461,32.461,0,0,0-13.539,16.2" transform="translate(-34.734 -20.154)" fill="#3d1916"/>
        <path id="Path_921853" data-name="Path 921853" d="M65.446,71.414,62.339,71a25.486,25.486,0,0,1,4.087-10.422A49.456,49.456,0,0,1,70.7,55a4.659,4.659,0,0,1,4.864-.715,60.2,60.2,0,0,0-6.5,8,22.394,22.394,0,0,0-3.612,9.131" transform="translate(-21.233 -18.361)" fill="#3d1916"/>
        <path id="Path_921854" data-name="Path 921854" d="M44.119,140.172c-2.4-.234-5.23-.36-6.792,1.315-2.227,2.39-1.792,6.771-2.138,9.688q-.524,4.425-1.049,8.851c-.275,2.32-.722,4.668.153,6.928,1.3,3.368,5.812,6.051,9.807,5.931,4.617.476,9.355.109,13.982.249,4.959.15,11.353,1.91,16.067-.1a9.371,9.371,0,0,0,5.279-5.3,15.579,15.579,0,0,0,.483-5.923Q79.643,156.4,79.2,151c-.211-2.593-.267-6.914-2.2-9.033-1.786-1.962-5.563-1.149-8.061-1.049-4.1.162-8.2.094-12.3-.042-4.91-.163-7.648-.232-12.531-.708" transform="translate(-11.505 -47.698)" fill="#bc5535"/>
        <path id="Path_921855" data-name="Path 921855" d="M51,74.978a9.419,9.419,0,0,0-4,1.389c-2.555,1.8-3.127,5.293-3.428,8.405-.572,5.925-1.685,9.048-1.849,15a4.12,4.12,0,0,0,.158,1.557,3.274,3.274,0,0,0,1.344,1.5,12.273,12.273,0,0,0,4.966,1.66,65.7,65.7,0,0,0,9.462.528l17.718.133a8.045,8.045,0,0,0,2.885-.33,5.931,5.931,0,0,0,2.905-2.765,21.937,21.937,0,0,0,2.13-7.338c.841-5.064,5.629-17.138,4.3-18.156S62.726,73.1,51,74.978" transform="translate(-14.211 -25.303)" fill="#bc5535"/>
        <path id="Path_921856" data-name="Path 921856" d="M41.875,100.441a5.83,5.83,0,0,0,4.3,3.282c8.654,1.637,18.117,1.143,26.919.843a6.687,6.687,0,0,0,4.03-1.122c1.933-1.432,2.527-4.022,3.2-6.2,1.84-5.986,2.095-12.188,4.628-17.993" transform="translate(-14.263 -26.993)" fill="none" stroke="#632f27" stroke-miterlimit="10" stroke-width="1"/>
        <path id="Path_921857" data-name="Path 921857" d="M61.5,120.282c1.677,2.141,3.209,5.118,3.209,7.775a2.047,2.047,0,0,1-.535,1.453,2.874,2.874,0,0,1-1.923.7,2.614,2.614,0,0,1-2.156-.727,2.09,2.09,0,0,1-.334-1.557c.324-3.069,3-5.459,4.932-7.8" transform="translate(-20.349 -40.915)" fill="none" stroke="#632f27" stroke-miterlimit="10" stroke-width="2"/>
        <path id="Path_921858" data-name="Path 921858" d="M65,130.429a3.318,3.318,0,1,1-3.416-3.216A3.318,3.318,0,0,1,65,130.429" transform="translate(-19.882 -43.33)" fill="#89422f"/>
        <path id="Path_921859" data-name="Path 921859" d="M61.7,130.357a.443.443,0,1,1-.456-.429.444.444,0,0,1,.456.429" transform="translate(-20.715 -44.255)" fill="#632f27"/>
        <path id="Path_921860" data-name="Path 921860" d="M61.538,133.381a.442.442,0,1,1-.456-.429.443.443,0,0,1,.456.429" transform="translate(-20.659 -45.285)" fill="#632f27"/>
        <path id="Path_921861" data-name="Path 921861" d="M65.005,130.449a.443.443,0,1,1-.456-.429.443.443,0,0,1,.456.429" transform="translate(-21.84 -44.287)" fill="#632f27"/>
        <path id="Path_921862" data-name="Path 921862" d="M64.841,133.473a.443.443,0,1,1-.456-.429.443.443,0,0,1,.456.429" transform="translate(-21.784 -45.317)" fill="#632f27"/>
        <path id="Path_921863" data-name="Path 921863" d="M37.662,144.262c3.2-.75,6.541-.107,9.8.351a138.347,138.347,0,0,0,20.456,1.048c1.888-.016,3.879-.392,5.742.007a4.525,4.525,0,0,1,3.311,2.456,6.7,6.7,0,0,1,.365,2.4q.176,6.109.353,12.22" transform="translate(-12.828 -49.02)" fill="none" stroke="#632f27" stroke-miterlimit="10" stroke-width="1"/>
        <path id="Path_921864" data-name="Path 921864" d="M35.136,161.569c1.989-.528,3.866-2.018,5.873-1.566a5.57,5.57,0,0,1,1.82.876,21.011,21.011,0,0,1,9.125,18.651" transform="translate(-11.968 -54.47)" fill="none" stroke="#ad4e34" stroke-miterlimit="10" stroke-width="1"/>
        <path id="Path_921865" data-name="Path 921865" d="M38.843,159.223a3.313,3.313,0,0,0,.775,2.418" transform="translate(-13.226 -54.233)" fill="none" stroke="#ad4e34" stroke-miterlimit="10" stroke-width="1"/>
        <path id="Path_921866" data-name="Path 921866" d="M45.561,161.069a8.14,8.14,0,0,1,1.948-2.312" transform="translate(-15.519 -54.075)" fill="none" stroke="#ad4e34" stroke-miterlimit="10" stroke-width="1"/>
        <path id="Path_921867" data-name="Path 921867" d="M50.876,165.767a10.513,10.513,0,0,1,1.739-.8" transform="translate(-17.329 -56.192)" fill="none" stroke="#ad4e34" stroke-miterlimit="10" stroke-width="1"/>
        <path id="Path_921868" data-name="Path 921868" d="M53.69,170.5A6.936,6.936,0,0,1,56,170.276" transform="translate(-18.287 -57.992)" fill="none" stroke="#ad4e34" stroke-miterlimit="10" stroke-width="1"/>
        <path id="Path_921869" data-name="Path 921869" d="M57.11,176.79l2.5-.076" transform="translate(-19.452 -60.191)" fill="none" stroke="#ad4e34" stroke-miterlimit="10" stroke-width="1"/>
        <path id="Path_921870" data-name="Path 921870" d="M58.733,183.946a8.631,8.631,0,0,1,3.165.377" transform="translate(-20.005 -62.648)" fill="none" stroke="#ad4e34" stroke-miterlimit="10" stroke-width="1"/>
        <path id="Path_921871" data-name="Path 921871" d="M120.546,103.46a4.3,4.3,0,0,0-2.818.661c-2.414,1.2-4.961,2.524-6.32,4.853s-1.255,5.234-.751,7.885,1.369,5.261,1.4,7.959a11.406,11.406,0,0,0,.227,3.4,6.616,6.616,0,0,0,2.389,2.991,19.523,19.523,0,0,0,7.094,3.53" transform="translate(-37.574 -35.219)" fill="none" stroke="#ad4e34" stroke-miterlimit="10" stroke-width="1"/>
        <path id="Path_921872" data-name="Path 921872" d="M110.907,136.111a9.958,9.958,0,0,0,2.614.259" transform="translate(-37.776 -46.361)" fill="none" stroke="#ad4e34" stroke-miterlimit="10" stroke-width="1"/>
        <path id="Path_921873" data-name="Path 921873" d="M111.066,131.671l1.947-.059" transform="translate(-37.83 -44.829)" fill="none" stroke="#ad4e34" stroke-miterlimit="10" stroke-width="1"/>
        <path id="Path_921874" data-name="Path 921874" d="M108.554,118.4a12.7,12.7,0,0,0,2.239.4" transform="translate(-36.975 -40.329)" fill="none" stroke="#ad4e34" stroke-miterlimit="10" stroke-width="1"/>
        <path id="Path_921875" data-name="Path 921875" d="M111.477,108.188a9.843,9.843,0,0,1,1.726,1.226" transform="translate(-37.97 -36.85)" fill="none" stroke="#ad4e34" stroke-miterlimit="10" stroke-width="1"/>
        <path id="Path_921876" data-name="Path 921876" d="M118.919,103.171a4.744,4.744,0,0,0,.855,2.145" transform="translate(-40.505 -35.141)" fill="none" stroke="#ad4e34" stroke-miterlimit="10" stroke-width="1"/>
        <path id="Path_921877" data-name="Path 921877" d="M115.357,147.053a5.443,5.443,0,0,0,2.107-1.9" transform="translate(-39.292 -49.442)" fill="none" stroke="#ad4e34" stroke-miterlimit="10" stroke-width="1"/>
        <path id="Path_921878" data-name="Path 921878" d="M122.906,149.886a3.469,3.469,0,0,0,1.34-1.712" transform="translate(-41.863 -50.47)" fill="none" stroke="#ad4e34" stroke-miterlimit="10" stroke-width="1"/>
        <path id="Path_921879" data-name="Path 921879" d="M109.418,123.691a6.364,6.364,0,0,0,2.319-.066" transform="translate(-37.269 -42.108)" fill="none" stroke="#ad4e34" stroke-miterlimit="10" stroke-width="1"/>
        <path id="Path_921880" data-name="Path 921880" d="M97,174.445a1.9,1.9,0,0,0,.221,1.22.521.521,0,0,0,.527.251c.26-.074.332-.4.348-.673.036-.581.252-3.207-.294-3.561C97.222,171.305,97.029,173.965,97,174.445Z" transform="translate(-33.036 -58.464)" fill="none" stroke="#632f27" stroke-miterlimit="10" stroke-width="2"/>
        <path id="Path_921881" data-name="Path 921881" d="M182.725,266.744a29.87,29.87,0,0,1,8.287,6.556" transform="translate(-62.238 -90.856)" fill="none" stroke="#d6aa76" stroke-miterlimit="10" stroke-width="1"/>
        <path id="Path_921882" data-name="Path 921882" d="M186.188,264.324a35.991,35.991,0,0,1,6.045,6.306" transform="translate(-63.418 -90.032)" fill="none" stroke="#d6aa76" stroke-miterlimit="10" stroke-width="1"/>
        <path id="Path_921883" data-name="Path 921883" d="M188.22,255.062a51.592,51.592,0,0,1,5.527,10.67" transform="translate(-64.11 -86.877)" fill="none" stroke="#d6aa76" stroke-miterlimit="10" stroke-width="1"/>
        <path id="Path_921884" data-name="Path 921884" d="M181.627,247.69c3.84,2.68,7.832,5.531,9.938,9.713" transform="translate(-61.864 -84.366)" fill="none" stroke="#d6aa76" stroke-miterlimit="10" stroke-width="1"/>
        <path id="Path_921885" data-name="Path 921885" d="M186.121,244.369A40.789,40.789,0,0,1,193.577,253" transform="translate(-63.395 -83.235)" fill="none" stroke="#d6aa76" stroke-miterlimit="10" stroke-width="1"/>
        <path id="Path_921886" data-name="Path 921886" d="M191.663,240.842q2.4,3.779,4.442,7.772" transform="translate(-65.283 -82.034)" fill="none" stroke="#d6aa76" stroke-miterlimit="10" stroke-width="1"/>
        <path id="Path_921887" data-name="Path 921887" d="M197.475,222.439a45.469,45.469,0,0,1,8.688.595,11.67,11.67,0,0,1,4.2,1.331" transform="translate(-67.262 -75.76)" fill="none" stroke="#d6aa76" stroke-miterlimit="10" stroke-width="1"/>
        <path id="Path_921888" data-name="Path 921888" d="M203.411,226.21a40.62,40.62,0,0,1,9.977,1.946" transform="translate(-69.284 -77.05)" fill="none" stroke="#d6aa76" stroke-miterlimit="10" stroke-width="1"/>
        <path id="Path_921889" data-name="Path 921889" d="M210.473,232.181a27.53,27.53,0,0,1,5.9,1.459" transform="translate(-71.69 -79.084)" fill="none" stroke="#d6aa76" stroke-miterlimit="10" stroke-width="1"/>
        <path id="Path_921890" data-name="Path 921890" d="M124.936,240.17c3.5,1.232,7.086,2.719,9.515,5.525" transform="translate(-42.555 -81.805)" fill="none" stroke="#d6aa76" stroke-miterlimit="10" stroke-width="1"/>
        <path id="Path_921891" data-name="Path 921891" d="M128.16,248.252l6.039,2.135a3.736,3.736,0,0,1,2.457,1.761" transform="translate(-43.653 -84.558)" fill="none" stroke="#d6aa76" stroke-miterlimit="10" stroke-width="1"/>
        <path id="Path_921892" data-name="Path 921892" d="M129.548,253.531q3.976,1.34,7.835,3" transform="translate(-44.126 -86.356)" fill="none" stroke="#d6aa76" stroke-miterlimit="10" stroke-width="1"/>
        <path id="Path_921893" data-name="Path 921893" d="M148.674,132.167a41,41,0,0,1-2.085,6.457" transform="translate(-49.93 -45.018)" fill="none" stroke="#000" stroke-miterlimit="10" stroke-width="1"/>
        <path id="Path_921894" data-name="Path 921894" d="M141.6,133.66q1.5-1.754,3-3.51" transform="translate(-48.23 -44.331)" fill="none" stroke="#000" stroke-miterlimit="10" stroke-width="1"/>
        <path id="Path_921895" data-name="Path 921895" d="M295.848,309.3l.627,22.843H255s.352-4.393,5.67-6.258a15.263,15.263,0,0,0,8.883-7.545c.7-1.275,1.312-10.043,1.312-10.043" transform="translate(-86.855 -105.011)" fill="#704532"/>
        <line id="Line_3341" data-name="Line 3341" x1="40.022" transform="translate(168.971 224.728)" fill="none" stroke="#000" stroke-miterlimit="10" stroke-width="1"/>
        <line id="Line_3342" data-name="Line 3342" x2="4.128" y2="2.664" transform="translate(180.144 216.937)" fill="none" stroke="#000" stroke-miterlimit="10" stroke-width="1"/>
        <line id="Line_3343" data-name="Line 3343" x2="4.435" y2="2.763" transform="translate(178.253 218.784)" fill="none" stroke="#000" stroke-miterlimit="10" stroke-width="1"/>
        <path id="Path_921896" data-name="Path 921896" d="M288.595,145.375s-4.632,22.118-7.486,35.352a135.338,135.338,0,0,0-3.639,29.394c-.492,15.76-1.565,51.144-1.565,51.144l28.65.639,1.858-51.783,13.641-40.16s6.482-8.871,4.732-19.921" transform="translate(-93.976 -49.517)" fill="#3a1b1a"/>
        <path id="Path_921897" data-name="Path 921897" d="M362.972,299.915l5.706,22.154-40.471,8.921s-.636-4.363,4.137-7.326a15.088,15.088,0,0,0,6.984-9.272c.4-1.4-.959-10.082-.959-10.082" transform="translate(-111.782 -102.155)" fill="#704532"/>
        <line id="Line_3344" data-name="Line 3344" x1="39.05" y2="8.608" transform="translate(216.697 217.698)" fill="none" stroke="#000" stroke-miterlimit="10" stroke-width="1"/>
        <line id="Line_3345" data-name="Line 3345" x2="4.622" y2="1.711" transform="translate(225.861 216.301)" fill="none" stroke="#000" stroke-miterlimit="10" stroke-width="1"/>
        <line id="Line_3346" data-name="Line 3346" x2="4.943" y2="1.742" transform="translate(224.428 218.51)" fill="none" stroke="#000" stroke-miterlimit="10" stroke-width="1"/>
        <path id="Path_921898" data-name="Path 921898" d="M329.376,146.538l-1.422,16.225s-2.069,18.323-3.205,28.788-1.166,15.854,1.522,26.647c3.94,15.825,10.882,42.15,10.882,42.15l26.752-5.366-11.163-53.166,5.452-36.839s6.605-12.269,4.33-24.5" transform="translate(-110.365 -47.848)" fill="#3a1b1a"/>
        <path id="Path_921899" data-name="Path 921899" d="M327.38,147.6l.394,12.067s-1.888,23.844-3.025,34.308a77.8,77.8,0,0,0-.593,14.541" transform="translate(-110.365 -50.275)" fill="none" stroke="#000" stroke-miterlimit="10" stroke-width="1"/>
        <path id="Path_921900" data-name="Path 921900" d="M352.092,161.969a24.314,24.314,0,0,0,9.524,11.385" transform="translate(-119.927 -55.169)" fill="none" stroke="#000" stroke-miterlimit="10" stroke-width="1"/>
        <path id="Path_921901" data-name="Path 921901" d="M289.742,165.773a16,16,0,0,0,7.336-2.9,31.59,31.59,0,0,0,5.766-5.408" transform="translate(-98.69 -53.634)" fill="none" stroke="#000" stroke-miterlimit="10" stroke-width="1"/>
        <line id="Line_3347" data-name="Line 3347" y1="5.671" x2="27.17" transform="translate(224.83 199.8)" fill="none" stroke="#000" stroke-miterlimit="10" stroke-width="1"/>
        <path id="Path_921902" data-name="Path 921902" d="M366.174,234.144a48.316,48.316,0,0,0-2.607,7.646" transform="translate(-123.835 -79.752)" fill="none" stroke="#000" stroke-miterlimit="10" stroke-width="1"/>
        <path id="Path_921903" data-name="Path 921903" d="M322.3,158.146a33.55,33.55,0,0,0,1.281,9.04,1.248,1.248,0,0,0,.2.45,1.081,1.081,0,0,0,.525.3,14.76,14.76,0,0,0,2.467.6" transform="translate(-109.781 -53.867)" fill="none" stroke="#000" stroke-miterlimit="10" stroke-width="1"/>
        <line id="Line_3348" data-name="Line 3348" x2="27.729" y2="0.973" transform="translate(182.689 205.658)" fill="none" stroke="#000" stroke-miterlimit="10" stroke-width="1"/>
        <path id="Path_921904" data-name="Path 921904" d="M205.435,73.763a29.906,29.906,0,0,0-5.792-4.31,25.984,25.984,0,0,0-2.89-1.234,45.492,45.492,0,0,1-6.417-2.688,11.373,11.373,0,0,1-4.852-4.782,24.514,24.514,0,0,1-1.363-4.955,2.477,2.477,0,0,1,0-1.788c.3-.533,1.457-.041,1.457-.041a24.254,24.254,0,0,1-.777-2.473.84.84,0,0,1,.7-.96,2.979,2.979,0,0,1,1.18.5s-.308-1.486.167-1.988a1.1,1.1,0,0,1,1.333-.075,4.422,4.422,0,0,1,.939,1.063s-.255-.778.249-1.013,1.4.559,1.97,1.069a13.084,13.084,0,0,0,3.68,2.2c.673.282,1.368.5,2.048.759.279.107.488.258.75.386.235.115.915.133,1.07.306q-.542-.606-1.076-1.219a3.028,3.028,0,0,1-.986-1.963c.009-.234.03-.543.245-.642.651-.3,2.522.644,3.315,1.1a17.878,17.878,0,0,0,3.555,1.043,11,11,0,0,1,2.62,1.454c1.645,1.114,3.906,3.568,4.885,4.3,2.38,1.783,6.1,4.007,6.1,4.007" transform="translate(-62.655 -16.617)" fill="#ce8d57"/>
        <path id="Path_921905" data-name="Path 921905" d="M186.525,56.914a19.268,19.268,0,0,1,1.754,3.132,5.458,5.458,0,0,0,2.423,2.585,6.074,6.074,0,0,0,1.517.387c3.784.591,7.436-.576,10.792,1.854" transform="translate(-63.533 -19.386)" fill="none" stroke="#000" stroke-miterlimit="10" stroke-width="1"/>
        <path id="Path_921906" data-name="Path 921906" d="M188.157,52.6q.929,1.459,1.866,2.913a9.6,9.6,0,0,0,1.234,1.639,9.9,9.9,0,0,0,3.8,2.014" transform="translate(-64.089 -17.916)" fill="none" stroke="#000" stroke-miterlimit="10" stroke-width="1"/>
        <path id="Path_921907" data-name="Path 921907" d="M191.234,50.435c1.683,2.52,3.668,5.06,6.519,6.171" transform="translate(-65.137 -17.179)" fill="none" stroke="#000" stroke-miterlimit="10" stroke-width="1"/>
        <path id="Path_921908" data-name="Path 921908" d="M205.83,56a23.793,23.793,0,0,1,4,.833" transform="translate(-70.108 -19.075)" fill="none" stroke="#000" stroke-miterlimit="10" stroke-width="1"/>
        <path id="Path_921909" data-name="Path 921909" d="M367.386,154.3a23.72,23.72,0,0,0-2.33,5.9,51.691,51.691,0,0,0-1.145,6.308,9.89,9.89,0,0,1-.514,2.6.874.874,0,0,0-.1.686.707.707,0,0,0,.566.326,2.21,2.21,0,0,0,2.008-.781,6,6,0,0,0-.424.849c-.485.9-.944,1.819-1.48,2.689a19.863,19.863,0,0,0-1.189,2.13,8.306,8.306,0,0,0-.413,1.076,2.155,2.155,0,0,0,.068,1.567c.164.309.826.015,1.122-.177a3.291,3.291,0,0,0,.025,1.451c.265.564.677.88,1.19.517.278-.2.992-.764.992-.764a3.7,3.7,0,0,0,1.04.4,7.921,7.921,0,0,0,2.977-1.317c.977-.607,2.022-1.065,3-1.664a18.141,18.141,0,0,0,5.515-5.429,30.239,30.239,0,0,0,3.836-8.889" transform="translate(-123.387 -52.558)" fill="#ce8d57"/>
        <path id="Path_921910" data-name="Path 921910" d="M367.452,174.835a11.035,11.035,0,0,0-.242-4.77" transform="translate(-125.076 -57.926)" fill="none" stroke="#000" stroke-miterlimit="10" stroke-width="1"/>
        <path id="Path_921911" data-name="Path 921911" d="M364.01,185.138a24.345,24.345,0,0,0,6.045-8.235" transform="translate(-123.986 -60.255)" fill="none" stroke="#000" stroke-miterlimit="10" stroke-width="1"/>
        <path id="Path_921912" data-name="Path 921912" d="M367.381,186.723s1.309-1.007,2.017-1.568c2.229-1.767,3.5-4.039,4.778-6.783" transform="translate(-125.135 -60.756)" fill="none" stroke="#000" stroke-miterlimit="10" stroke-width="1"/>
        <path id="Path_921913" data-name="Path 921913" d="M378.7,179.432a20.608,20.608,0,0,1-2.439,3.491,61.542,61.542,0,0,1-5.031,4.305" transform="translate(-126.446 -61.117)" fill="none" stroke="#000" stroke-miterlimit="10" stroke-width="1"/>
        <path id="Path_921914" data-name="Path 921914" d="M280.184,48.334c-4.569.395-13.654,3.327-19.95,7.142-4.707,2.852-18.111,13.262-18.111,13.262l-19.989-10.2-10.3,14.9s17.23,19.348,32.528,20.238c11.765.684,22.1-10.9,27.653-21.379" transform="translate(-72.153 -16.463)" fill="#66322d"/>
        <path id="Path_921915" data-name="Path 921915" d="M342.016,49.277l-16.124-5.593-21.586,3.35-9.678,3.809s-4.466,18.443-3.651,26.143-1.864,27.715-1.987,31.171-.4,4.664-.411,7.867a8.976,8.976,0,0,0,1.008,4.736s8.2,4.63,26.91,3.307c20.832-1.473,34.111-7.394,34.111-7.394s-.527-8.28-.208-10.765a37.8,37.8,0,0,0-.479-9.961c-.57-2.648-4.884-35.837-4.884-35.837Z" transform="translate(-98.293 -14.879)" fill="#66322d"/>
        <path id="Path_921916" data-name="Path 921916" d="M337.476,116.732a9.963,9.963,0,0,1-3.894-.913,6.916,6.916,0,0,1-2.512-2.428c-1.613-2.523-1.925-5.618-2.162-8.589q-.748-9.383-1.05-18.794a148.737,148.737,0,0,1,.171-15.994,45.776,45.776,0,0,1,1.065-8.872,10.653,10.653,0,0,1,5.107-6.506,20.926,20.926,0,0,0,8.287-9.919,60.942,60.942,0,0,1,12.861,4.911,10.586,10.586,0,0,0-2.245,5.035,49.809,49.809,0,0,0-.143,20.893A15.1,15.1,0,0,0,354.6,80.35a6.445,6.445,0,0,0,3.931,3.085,4.169,4.169,0,0,0,4.489-1.732c-.358.627.225,2.854.287,3.6q.163,1.938.343,3.874.359,3.873.787,7.739c.453,4.093,3.3,9.148.433,12.944-2.481,3.282-7.838,4.841-11.659,5.722a51.422,51.422,0,0,1-15.74,1.149" transform="translate(-111.628 -15.232)" fill="#d2653e"/>
        <path id="Path_921917" data-name="Path 921917" d="M346.33,46.3a31.594,31.594,0,0,1-6.154,8.019c-2.783,2.793-5.72,4.657-6.9,8.652-.721,2.429-.55,4.914-.648,7.413q-.166,4.225-.177,8.453a176.357,176.357,0,0,0,.725,18.231c.4,3.935.086,9.8,1.373,13.593,1.723,5.071,5.927,4.188,10.492,4.149a47.054,47.054,0,0,0,8.922-.911c5.144-1.041,11.391-3.194,13.76-8.245" transform="translate(-113.236 -15.771)" fill="none" stroke="#e49134" stroke-linecap="round" stroke-miterlimit="10" stroke-width="2"/>
        <path id="Path_921918" data-name="Path 921918" d="M306.476,58.3c-2.4-2.6-4.73-5.782-4.178-9.665a33.852,33.852,0,0,0-9.635,2.959,204.438,204.438,0,0,0-4.844,27.278q-1.173,11.686-2.347,23.372c-.482,4.8-.925,9.849,1.078,14.251a3.222,3.222,0,0,0,.831,1.216,3.649,3.649,0,0,0,1.783.617,59.073,59.073,0,0,0,10.784.657,9.515,9.515,0,0,0,5.311-1.312c2.512-1.8,2.676-5,2.556-7.785-.15-3.493-.366-6.981-.484-10.478-.293-8.638-.164-17.287.274-25.919.256-5.042,1.089-12.786-1.13-15.191" transform="translate(-97.096 -16.567)" fill="#d2653e"/>
        <path id="Path_921919" data-name="Path 921919" d="M300.615,49.387a13.5,13.5,0,0,0,2.806,10.092,11.224,11.224,0,0,1,1.853,2.618,7.386,7.386,0,0,1,.389,2.63c.154,7.807-.46,15.771-.8,23.633-.168,3.958-.235,7.921-.1,11.881s1,8.11.185,12.025c-.473,2.26-.458,3.491-2.718,4.074-4.076,1.051-11.171-.333-15.3-.922" transform="translate(-97.731 -16.822)" fill="none" stroke="#e49134" stroke-linecap="round" stroke-miterlimit="10" stroke-width="2"/>
        <path id="Path_921920" data-name="Path 921920" d="M286.134,123.263c3.471,1.187,7.25,1.015,10.92.829l5.129-.26" transform="translate(-97.461 -41.985)" fill="none" stroke="#000" stroke-miterlimit="10" stroke-width="1"/>
        <path id="Path_921921" data-name="Path 921921" d="M337.248,122.778c4.032,1.414,8.443,1.178,12.718.926a98.944,98.944,0,0,0,17.054-2" transform="translate(-114.871 -41.452)" fill="none" stroke="#000" stroke-miterlimit="10" stroke-width="1"/>
        <path id="Path_921922" data-name="Path 921922" d="M290.767,87.194a4.579,4.579,0,0,0,2.686.885,55.632,55.632,0,0,0,9.065.154" transform="translate(-99.039 -29.699)" fill="none" stroke="#000" stroke-miterlimit="10" stroke-width="1"/>
        <path id="Path_921923" data-name="Path 921923" d="M335.459,88.176a46.073,46.073,0,0,0,18.326.01" transform="translate(-114.262 -30.034)" fill="none" stroke="#000" stroke-miterlimit="10" stroke-width="1"/>
        <path id="Path_921924" data-name="Path 921924" d="M367.967,79.678l5.347,13.987L366.9,124.154l16.826,6.127s11.227-21.365,10.882-34.04c-.591-21.669-16.762-37.724-18.884-39.475a73.015,73.015,0,0,0-7.034-4.6" transform="translate(-124.972 -17.768)" fill="#66322d"/>
        <path id="Path_921925" data-name="Path 921925" d="M367.967,93.89l5.347,13.987-6.409,30.489" transform="translate(-124.973 -31.98)" fill="none" stroke="#000" stroke-miterlimit="10" stroke-width="1"/>
        <path id="Path_921926" data-name="Path 921926" d="M257.424,79.51a32.447,32.447,0,0,1,6.687,5.15" transform="translate(-87.682 -27.082)" fill="none" stroke="#000" stroke-miterlimit="10" stroke-width="1"/>
        <path id="Path_921927" data-name="Path 921927" d="M312.073,49.331a7.648,7.648,0,0,0,4.314,3.536,13.266,13.266,0,0,0,5.683.533,20.5,20.5,0,0,0,14.087-7.8" transform="translate(-106.296 -15.533)" fill="none" stroke="#000" stroke-miterlimit="10" stroke-width="1"/>
        <line id="Line_3349" data-name="Line 3349" y1="17.554" x2="11.161" transform="translate(146.241 45.861)" fill="none" stroke="#000" stroke-miterlimit="10" stroke-width="1"/>
        <line id="Line_3350" data-name="Line 3350" x2="19" y2="5.32" transform="translate(243.355 99.622)" fill="none" stroke="#000" stroke-miterlimit="10" stroke-width="1"/>
        <path id="Path_921928" data-name="Path 921928" d="M315.737,37.33l-.345,5.842s2.017,2.655,7.627,1.475,12.005-5.66,12.005-5.66l-3.42-9.094Z" transform="translate(-107.426 -10.182)" fill="#ce8d57"/>
        <path id="Path_921929" data-name="Path 921929" d="M307.256,24.825a9.52,9.52,0,0,0,.886,5.017c1.311,2.219,4.155,3.089,6.765,3.186,5.339.2,11.069-2.561,12.9-7.49a16.316,16.316,0,0,0,.776-5.895,16.832,16.832,0,0,0-.882-5.849,10.742,10.742,0,0,0-10.566-6.6c-9.866.753-9.8,10.41-9.88,17.635" transform="translate(-104.654 -2.44)" fill="#ce8d57"/>
        <path id="Path_921930" data-name="Path 921930" d="M329.681,24.43a1.493,1.493,0,0,0,1.427-.473,3.633,3.633,0,0,0,.731-1.367,14.4,14.4,0,0,0-.348-10.464A12.279,12.279,0,0,0,323.562,5.3a16.138,16.138,0,0,0-4.781-.4,11.823,11.823,0,0,0-7.954,3.2,11.455,11.455,0,0,0-3.11,4.037,1.81,1.81,0,0,0-.057,1.412,1.6,1.6,0,0,0,1.383.758,9.128,9.128,0,0,0,1.648-.19,2.067,2.067,0,0,1,.671-.006,2.868,2.868,0,0,1,.737.306,6.368,6.368,0,0,0,4.667.555,1.892,1.892,0,0,1,.682-.135,1.812,1.812,0,0,1,.483.136,6.579,6.579,0,0,0,6.452-1.172,10.561,10.561,0,0,0,.623,2.021c.349.673.853,1.255,1.265,1.891a19.29,19.29,0,0,1,1.668,3.679c.328.859.722,2.752,1.743,3.04" transform="translate(-104.751 -1.66)" fill="#211917"/>
        <path id="Path_921931" data-name="Path 921931" d="M334.722,24.48a3.189,3.189,0,0,1,1.985-1.7c2.34-.455,4,1.991,3.986,3.968a4.024,4.024,0,0,1-1.935,3.436c-1.738.992-3.96.855-4.581-1.1" transform="translate(-113.825 -7.741)" fill="#ce8d57"/>
        <path id="Path_921932" data-name="Path 921932" d="M339.162,26.676q-2.293,1.145-4.541,2.371" transform="translate(-113.976 -9.086)" fill="none" stroke="#000" stroke-miterlimit="10" stroke-width="1"/>
        <path id="Path_921933" data-name="Path 921933" d="M336.284,23.082a3.087,3.087,0,0,0-1.517,2.061" transform="translate(-114.026 -7.862)" fill="none" stroke="#000" stroke-miterlimit="10" stroke-width="1"/>
        <path id="Path_921934" data-name="Path 921934" d="M337.525,34.251a2.535,2.535,0,0,1-3.55-1.712" transform="translate(-113.756 -11.083)" fill="none" stroke="#000" stroke-miterlimit="10" stroke-width="1"/>
        <path id="Path_921935" data-name="Path 921935" d="M303.353,12.092s-3.488.739-5.371,1.4a7.5,7.5,0,0,0-2.445,1.2c-.6.538-.722,1.337,0,1.75a3.854,3.854,0,0,0,1.528.342c1.1.086,2.211.106,3.323.125,3.451.061,6.9.121,10.37.021a17.489,17.489,0,0,0,3.582-.371,9.49,9.49,0,0,0,3.505-1.693,18.263,18.263,0,0,0,2.437-2.357Z" transform="translate(-100.495 -4.119)" fill="#d2653e"/>
        <path id="Path_921936" data-name="Path 921936" d="M307.7,8.415a9.42,9.42,0,0,1,5.692-7.08c4.521-1.869,11.013-2,14.736,1.051,3.1,2.536,4.193,6.836,4.336,11.008,0,0-5.514-3.793-8.529-4.238S307.7,8.415,307.7,8.415" transform="translate(-104.805 0)" fill="#d2653e"/>
        <path id="Path_921937" data-name="Path 921937" d="M311.526,11.141a38.671,38.671,0,0,1,13.883,1.53" transform="translate(-106.11 -3.751)" fill="none" stroke="#000" stroke-miterlimit="10" stroke-width="1"/>
        <path id="Path_921938" data-name="Path 921938" d="M315.4,44.446a19,19,0,0,0,6.091-.344,11.233,11.233,0,0,0,5.316-2.839" transform="translate(-107.428 -14.055)" fill="none" stroke="#000" stroke-miterlimit="10" stroke-width="1"/>
        <path id="Path_921939" data-name="Path 921939" d="M314.607,29.943c-.487-.068-.99,0-1.47-.1-1.327-.28-.969-1.648-.73-2.605a19.7,19.7,0,0,0,.815-3.524c.023-.373-.171-.474-.287-.781" transform="translate(-106.331 -7.811)" fill="none" stroke="#000" stroke-miterlimit="10" stroke-width="1"/>
        <path id="Path_921940" data-name="Path 921940" d="M313.7,36.145a4.534,4.534,0,0,0,2.076-.032,2.745,2.745,0,0,0,1.642-1.2" transform="translate(-106.848 -11.893)" fill="none" stroke="#000" stroke-miterlimit="10" stroke-width="1"/>
        <path id="Path_921941" data-name="Path 921941" d="M321.82,25.529c.044.59-.253,1.091-.661,1.12s-.774-.426-.817-1.015.253-1.092.661-1.121.774.426.817,1.016" transform="translate(-109.111 -8.349)"/>
        <path id="Path_921942" data-name="Path 921942" d="M309.7,25.919c.043.59-.253,1.091-.661,1.12s-.774-.426-.817-1.016.253-1.091.66-1.12.774.426.818,1.016" transform="translate(-104.982 -8.482)"/>
        <path id="Path_921943" data-name="Path 921943" d="M318.92,21.69a15.132,15.132,0,0,1,2.754.218,5.091,5.091,0,0,1,2.46,1.165" transform="translate(-108.628 -7.388)" fill="none" stroke="#000" stroke-miterlimit="10" stroke-width="1"/>
        <path id="Path_921944" data-name="Path 921944" d="M307.321,21.907a7.409,7.409,0,0,1,3.416-.608" transform="translate(-104.677 -7.25)" fill="none" stroke="#000" stroke-miterlimit="10" stroke-width="1"/>
      </g>
    </g>
  </g>
</svg>
