<svg id="Group_1118711" data-name="Group 1118711" xmlns="http://www.w3.org/2000/svg" xmlns:xlink="http://www.w3.org/1999/xlink" width="105.334" height="105.693" viewBox="0 0 105.334 105.693">
  <defs>
    <clipPath id="clip-path">
      <rect id="Rectangle_407255" data-name="Rectangle 407255" width="105.334" height="105.693" transform="translate(0)" fill="#07c3f3"/>
    </clipPath>
    <clipPath id="clip-path-2">
      <rect id="Rectangle_401492" data-name="Rectangle 401492" width="65.388" height="65.389" transform="translate(-0.289 0)" fill="#953c2d" stroke="#707070" stroke-width="1"/>
    </clipPath>
    <clipPath id="clip-path-3">
      <rect id="Rectangle_408889" data-name="Rectangle 408889" width="59.784" height="63.374" fill="#953c2d"/>
    </clipPath>
  </defs>
  <g id="Group_1116923" data-name="Group 1116923" clip-path="url(#clip-path)">
    <path id="Path_893365" data-name="Path 893365" d="M104.048,31.292C97.88,10.265,51.742-13.615,17.656,9.414s-9.13,105.365-4.625,88.724c4.329-15.992,23.523-2.928,37.93-2.46C67,96.2,77.411,92.049,77.386,91.987c7.4-2.756,12.628-6.379,17-13.195,8.73-13.615,13.376-34.847,9.664-47.5" transform="translate(0.001 2.676)" fill="#f69a8b"/>
  </g>
  <g id="Group_1115380" data-name="Group 1115380" transform="translate(20 20)">
    <rect id="Rectangle_401104" data-name="Rectangle 401104" width="60.924" height="61.907" transform="translate(2.232 0)" fill="none"/>
    <g id="Mask_Group_1098697" data-name="Mask Group 1098697" transform="translate(0 0)" clip-path="url(#clip-path-2)">
      <g id="Group_1118958" data-name="Group 1118958" transform="translate(2.711 1)">
        <g id="Group_1118957" data-name="Group 1118957" clip-path="url(#clip-path-3)">
          <path id="Path_922519" data-name="Path 922519" d="M52.412,1.778h-38.6l-.272.272V17.49l.272.272h3.814a10.254,10.254,0,0,1,1.243.574,4,4,0,0,1-.982,7.166c.1.669-.105,1.524.015,2.156.113.591,1.557,1.673,1.085,2.82,1.07-.179,2.914.238,3.869,0,.167-.041.251-.458.49-.638.58-.435,4.154-.429,4.725,0,.232.175.323.55.4.595a51.715,51.715,0,0,0,6.416.042c.415-.075.56-.781,1.276-.9a35.227,35.227,0,0,1,5.447-.018c1.882.161,1.1,1.824.537,1.824H36.791v4.359H56.136a2.444,2.444,0,0,0,1.687-1.4c.338-1.486-.282-2.773-1.864-2.963-3.073-.369-6.807.317-9.954-.036-1.193-.26-.588-1.776-.222-1.776h6.63V13.13c0-.524,1.816-.953,1.816,0V29.569c7.406-1.019,7.407,9.01,0,7.992V62.355c0,.533-1.188,1.113-1.718,1.006L1.319,63.315C-.276,62.959-.069,59.483.144,58.221a2.364,2.364,0,0,1,2.111-1.976A6.883,6.883,0,0,1,2.5,53.859a4.011,4.011,0,0,1,1.321-1.222h7.9V49.367H8.183A7.266,7.266,0,0,1,6.1,48.186a4.08,4.08,0,0,1,1.726-6.626l.1-2.1c-.615-.674-1.009-.9-1.113-1.983a55.309,55.309,0,0,1,0-8.005c.128-1.067.911-1.358,1.058-1.849a6.97,6.97,0,0,0,.037-1.78c-.1-.516-.984-.7-1.458-1.085A4.008,4.008,0,0,1,6.1,18.944a7.266,7.266,0,0,1,2.088-1.182h3.542l0-16.261A1.734,1.734,0,0,1,12.944,0L53,.005a1.314,1.314,0,0,1,1.213,1.148,54.84,54.84,0,0,1,.02,7.99.926.926,0,0,1-1.825.173ZM8.588,19.62c-2.162.44-2.253,3.675-.181,4.094a61.754,61.754,0,0,0,8.848.032c2.076-.329,2.089-3.7-.031-4.126a60.443,60.443,0,0,0-8.635,0m7.5,6.134H9.727v1.816h6.357Zm.908,3.633H8.91l-.272.272v7.81l.272.272h8.083Zm9.808,2h-2.18v4.359H26.8Zm-4,1.09H18.991v2.361h3.814Zm12.17,0H28.618v2.361H34.7c.545-.577.168-1.608.272-2.361M13.542,49.64v2.725c.159.259.362.251.626.282,2.186.257,4.879-.233,7.1-.018,2.179.211,2.186,1.8,2.1,3.624.684-.109,2.162.955,2.162,1.561v3.724H52.412V37.561H35.974c-.228,0-.743-.771-.818-.81a53.488,53.488,0,0,0-6.593-.1c-.163.04-.267.518-.6.712a13.114,13.114,0,0,1-4.12.161c-.689-.156-.809-.83-.984-.873-.953-.236-2.8.182-3.869,0,.472,1.147-.972,2.229-1.085,2.82-.121.632.083,1.487-.015,2.156a3.967,3.967,0,0,1-.808,7.737c-.647.065-3.387-.221-3.54.275m2.543-10.081H9.727v1.816h6.357ZM8.407,43.415a2.114,2.114,0,0,0,.181,4.094,54.259,54.259,0,0,0,8.3.026,2.121,2.121,0,0,0,.523-4.124ZM21.534,56.27c-.067-.6.226-1.384-.272-1.816H4.278V56.27H8.183c.926,0,1.037,1.816.363,1.816H2.371a3.032,3.032,0,0,0-.454.454v2.725l.272.272H23.713V58.359l-.272-.272H12c-.591,0-.627-1.816.182-1.816Z" transform="translate(0)" fill="#953c2d"/>
          <path id="Path_922520" data-name="Path 922520" d="M137.645,31.646c13.488-1.633,14.728,18.559,1.763,19.2-12.092.6-13.623-17.764-1.763-19.2m.178,1.813c-10.784,1.479-7.052,18.831,3.908,14.988,8.449-2.962,5.453-16.272-3.908-14.988" transform="translate(-105.979 -25.821)" fill="#953c2d"/>
          <path id="Path_922521" data-name="Path 922521" d="M157.035,272.781l17.6-.038a.919.919,0,1,1-.187,1.828l-17.346-.1a.952.952,0,0,1-.065-1.691" transform="translate(-128.115 -223.202)" fill="#953c2d"/>
          <path id="Path_922522" data-name="Path 922522" d="M156.76,224.362a.979.979,0,0,1,.323-1.5l17.345-.1a.919.919,0,1,1,.187,1.828c-5.474-.363-11.5.454-16.909,0-.283-.024-.744-.031-.947-.232" transform="translate(-128.097 -182.303)" fill="#953c2d"/>
          <path id="Path_922523" data-name="Path 922523" d="M157.024,297.789H167.74c.461,0,1.071,1.646-.9,1.825a65.8,65.8,0,0,1-9.415-.048c-1-.221-1.106-1.138-.4-1.778" transform="translate(-128.133 -243.699)" fill="#953c2d"/>
          <path id="Path_922524" data-name="Path 922524" d="M203,247.789h9.627c.593,0,.593,1.816,0,1.816H203c-.5,0-.706-1.57,0-1.816" transform="translate(-165.758 -202.781)" fill="#953c2d"/>
          <path id="Path_922525" data-name="Path 922525" d="M163.208,248.949c-.2.2-.666.209-.948.232a32.214,32.214,0,0,1-4.908-.012.9.9,0,0,1,.006-1.795,34.914,34.914,0,0,1,5.434-.012.968.968,0,0,1,.416,1.586" transform="translate(-128.095 -202.349)" fill="#953c2d"/>
          <path id="Path_922526" data-name="Path 922526" d="M232.258,299.015c-.313.314-4.458.314-5.121.213a.913.913,0,0,1-.189-1.8,34.736,34.736,0,0,1,4.894,0,.968.968,0,0,1,.416,1.586" transform="translate(-185.156 -243.333)" fill="#953c2d"/>
          <path id="Path_922527" data-name="Path 922527" d="M166.4,68.835c.912-.165,1.439.557,1.042,1.423-1.061.73-4.047,4.575-4.985,4.835a.574.574,0,0,1-.374,0,30.2,30.2,0,0,1-3.6-3.509c-.261-.876.457-1.36,1.293-1.106.535.162,1.808,1.936,2.4,2.322.291,0,3.38-3.813,4.221-3.965" transform="translate(-129.651 -56.313)" fill="#953c2d"/>
        </g>
      </g>
    </g>
  </g>
</svg>
