<svg xmlns="http://www.w3.org/2000/svg" xmlns:xlink="http://www.w3.org/1999/xlink" width="295" height="180" viewBox="0 0 295 180">
  <defs>
    <clipPath id="clip-path">
      <rect id="Rectangle_408457" data-name="Rectangle 408457" width="295" height="180" transform="translate(389.711 3120)" fill="#fff" stroke="#707070" stroke-width="1"/>
    </clipPath>
    <clipPath id="clip-path-2">
      <rect id="Rectangle_408888" data-name="Rectangle 408888" width="300.711" height="174.837" fill="none"/>
    </clipPath>
    <clipPath id="clip-path-3">
      <rect id="Rectangle_408879" data-name="Rectangle 408879" width="320.711" height="174.837" fill="none"/>
    </clipPath>
    <clipPath id="clip-path-4">
      <rect id="Rectangle_408877" data-name="Rectangle 408877" width="307.388" height="142.682" fill="none"/>
    </clipPath>
    <clipPath id="clip-path-5">
      <rect id="Rectangle_408878" data-name="Rectangle 408878" width="277.949" height="29.518" fill="#f69a8b"/>
    </clipPath>
    <clipPath id="clip-path-7">
      <rect id="Rectangle_408880" data-name="Rectangle 408880" width="281.299" height="22.008" fill="#eebc32"/>
    </clipPath>
  </defs>
  <g id="Mask_Group_1116942" data-name="Mask Group 1116942" transform="translate(-389.711 -3120)" clip-path="url(#clip-path)">
    <g id="Group_1118956" data-name="Group 1118956" transform="translate(384 3125.163)">
      <g id="Group_1118955" data-name="Group 1118955" clip-path="url(#clip-path-2)">
        <g id="Group_1118949" data-name="Group 1118949">
          <g id="Group_1118948" data-name="Group 1118948" clip-path="url(#clip-path-3)">
            <g id="Group_1118944" data-name="Group 1118944" transform="translate(6.661 30.787)" opacity="0.4" style="mix-blend-mode: screen;isolation: isolate">
              <g id="Group_1118943" data-name="Group 1118943">
                <g id="Group_1118942" data-name="Group 1118942" clip-path="url(#clip-path-4)">
                  <path id="Path_922276" data-name="Path 922276" d="M321.138,214.679c-5.054-.4-39.559-.752-87.8-.918-20.119-.07-42.625-.109-66.383-.109s-46.264.039-66.383.109c-38.5.136-68.247.38-81.26.682a44.522,44.522,0,0,1-.629-34.183c2.13-5.264,14.2-2.969,17.314-7.814,3.823-5.95-1.3-19.066,2.523-25.012,3.9-6.078,7.971-12.326,14.184-16.532,8.548-5.791,20.846-7.562,26.324-15.865,4.028-6.1,2.946-13.764,3.31-20.873s3.63-15.4,11.28-17c11.982-2.512,20.034,13.229,32.315,13.915,13.846.768,20.94-17.276,34.692-18.954,9.288-1.136,17.288,5.694,23.1,12.361s11.965,14.3,21.184,15.842c13.329,2.221,26.884-9.535,39.5-5.058,9.429,3.345,12.6,13.779,14.53,22.791s5.1,19.446,14.53,22.791c9.762,3.457,23-2.19,30.2,4.713,3.707,3.554,3.9,9.054,3,13.88s-2.651,9.632-2.031,14.492c1.052,8.225,8.45,14.369,13.581,21.218,4.28,5.709,6.577,14.109,2.912,19.527" transform="translate(-15.578 -71.997)" fill="#edd7c8"/>
                </g>
              </g>
            </g>
            <g id="Group_1118947" data-name="Group 1118947" transform="translate(21.381)" opacity="0.5">
              <g id="Group_1118946" data-name="Group 1118946">
                <g id="Group_1118945" data-name="Group 1118945" clip-path="url(#clip-path-5)">
                  <path id="Path_922277" data-name="Path 922277" d="M542.735,6.573a3.36,3.36,0,0,0-2.844-.407,9.477,9.477,0,0,0-2.619,1.3,4.418,4.418,0,0,0,.686-4.346A5.121,5.121,0,0,0,534.386.155a7.546,7.546,0,0,0-6.239,1.679,19.093,19.093,0,0,0-3.975,4.941A3.09,3.09,0,0,0,522.48,2.69a5.029,5.029,0,0,0-4.653.771,11.5,11.5,0,0,0-2.769,3.131,1.86,1.86,0,0,0-.575-2.166,3.437,3.437,0,0,0-2.99-.467,6.921,6.921,0,0,0-2.64,1.542,16.649,16.649,0,0,0-4.56,6.312h38.344a8.463,8.463,0,0,0,.98-2.725,2.647,2.647,0,0,0-.883-2.515" transform="translate(-310.031 0)" fill="#f69a8b"/>
                  <path id="Path_922278" data-name="Path 922278" d="M647.987,45.336a3.1,3.1,0,0,0-4.181.371,16.369,16.369,0,0,0,2.377-3.917,5.166,5.166,0,0,0-.158-4.361c-1.032-1.8-3.471-2.7-5.688-2.453a9.582,9.582,0,0,0-5.677,2.971,21.626,21.626,0,0,0-3.072,4.269,2.911,2.911,0,0,0-1.534-3.176,5.745,5.745,0,0,0-5.595.571,14.521,14.521,0,0,0-3.772,4.134,1.986,1.986,0,0,0-.555-2.709,3.753,3.753,0,0,0-3.164-.453,7.018,7.018,0,0,0-2.769,1.632,12.487,12.487,0,0,0-3.712,7.3h37.236a2.879,2.879,0,0,0,.263-4.18" transform="translate(-370.815 -19.998)" fill="#f69a8b"/>
                  <path id="Path_922279" data-name="Path 922279" d="M154.579,6.573a3.36,3.36,0,0,1,2.844-.407,9.475,9.475,0,0,1,2.619,1.3,4.418,4.418,0,0,1-.686-4.346A5.121,5.121,0,0,1,162.928.155a7.546,7.546,0,0,1,6.239,1.679,19.1,19.1,0,0,1,3.975,4.941,3.09,3.09,0,0,1,1.692-4.084,5.029,5.029,0,0,1,4.653.771,11.5,11.5,0,0,1,2.769,3.131,1.859,1.859,0,0,1,.575-2.166,3.437,3.437,0,0,1,2.99-.467,6.924,6.924,0,0,1,2.64,1.542,16.644,16.644,0,0,1,4.56,6.312H154.677a8.462,8.462,0,0,1-.98-2.725,2.648,2.648,0,0,1,.883-2.515" transform="translate(-109.334 0)" fill="#f69a8b"/>
                  <path id="Path_922280" data-name="Path 922280" d="M50.777,45.336a3.1,3.1,0,0,1,4.181.371,16.353,16.353,0,0,1-2.377-3.917,5.166,5.166,0,0,1,.158-4.361c1.032-1.8,3.471-2.7,5.688-2.453A9.582,9.582,0,0,1,64.1,37.947a21.626,21.626,0,0,1,3.072,4.269A2.911,2.911,0,0,1,68.71,39.04a5.745,5.745,0,0,1,5.595.571,14.52,14.52,0,0,1,3.772,4.134,1.986,1.986,0,0,1,.555-2.709,3.753,3.753,0,0,1,3.163-.453,7.019,7.019,0,0,1,2.769,1.632,12.488,12.488,0,0,1,3.712,7.3H51.04a2.879,2.879,0,0,1-.263-4.18" transform="translate(-50 -19.998)" fill="#f69a8b"/>
                </g>
              </g>
            </g>
          </g>
        </g>
        <path id="Path_922281" data-name="Path 922281" d="M389.871,387.528l5.855,7.4h.765l-5.451-8.533Z" transform="translate(-223.156 -221.167)" fill="#edd7c8"/>
        <g id="Group_1118954" data-name="Group 1118954">
          <g id="Group_1118953" data-name="Group 1118953" clip-path="url(#clip-path-3)">
            <path id="Path_922283" data-name="Path 922283" d="M719.968,386.395l-5.451,8.533h.766l5.855-7.4Z" transform="translate(-408.979 -221.167)" fill="#edd7c8"/>
            <path id="Path_922284" data-name="Path 922284" d="M351.267,387.528l-5.855,7.4h-.766l5.451-8.533Z" transform="translate(-197.271 -221.167)" fill="#edd7c8"/>
            <path id="Path_922286" data-name="Path 922286" d="M21.169,386.395l5.451,8.533h-.766L20,387.527Z" transform="translate(-11.448 -221.167)" fill="#edd7c8"/>
            <g id="Group_1118952" data-name="Group 1118952" transform="translate(19.728 151.772)" opacity="0.5" style="mix-blend-mode: multiply;isolation: isolate">
              <g id="Group_1118951" data-name="Group 1118951">
                <g id="Group_1118950" data-name="Group 1118950" clip-path="url(#clip-path-7)">
                  <path id="Path_922287" data-name="Path 922287" d="M689.841,391.563H693.2a13.773,13.773,0,0,0,2.252-2.454,1.964,1.964,0,0,0,.379-.7.741.741,0,0,0-.2-.737,1.033,1.033,0,0,0-1.088.05,5.644,5.644,0,0,0-2.141,1.862A20.7,20.7,0,0,0,694.1,383.3a3.576,3.576,0,0,0-.032-1.356,1.224,1.224,0,0,0-2.224-.486,3.616,3.616,0,0,0-.65,1.368,24.9,24.9,0,0,0-1.35,8.739" transform="translate(-414.559 -369.807)" fill="#eebc32"/>
                  <path id="Path_922288" data-name="Path 922288" d="M563.313,382.178l6.152-.131c1.949-4.51,3.887-9.148,3.976-14.06a5.381,5.381,0,0,0-.394-2.448,2.019,2.019,0,0,0-3.421-.669,5.708,5.708,0,0,0-.958,1.358,26.617,26.617,0,0,0-3.311,13.486,7.988,7.988,0,0,0-2.176-4.481,3.071,3.071,0,0,0-.957-.745,1.4,1.4,0,0,0-1.181-.022,1.416,1.416,0,0,0-.7,1.057,3.338,3.338,0,0,0,.111,1.3,12.574,12.574,0,0,0,2.858,5.353" transform="translate(-340.445 -360.226)" fill="#eebc32"/>
                  <path id="Path_922289" data-name="Path 922289" d="M446.8,372.7c-1.887-4.6-3.805-9.355-3.754-14.326a5.067,5.067,0,0,1,.4-2.212,2.1,2.1,0,0,1,1.76-1.241c.977,0,1.72.857,2.233,1.69a19.242,19.242,0,0,1,2.47,6.9,39.989,39.989,0,0,1,.433,7.343,5.358,5.358,0,0,1,2.963-3.155,1.551,1.551,0,0,1,1.692.1,1.163,1.163,0,0,1,.275.926,2.968,2.968,0,0,1-.306.944,15.028,15.028,0,0,1-2.106,3.466,7.683,7.683,0,0,1,3.275-2.05,1.545,1.545,0,0,1,1.521.127,1.114,1.114,0,0,1,.258,1.042,2.819,2.819,0,0,1-.5.993,13.32,13.32,0,0,1-3.131,3.181l-11.553.142a18.7,18.7,0,0,1-3.444-4.959c-.4-.83-.72-1.89-.15-2.615a1.743,1.743,0,0,1,1.512-.575,4.089,4.089,0,0,1,1.58.551A13.208,13.208,0,0,1,446.8,372.7" transform="translate(-270.905 -354.926)" fill="#eebc32"/>
                  <path id="Path_922290" data-name="Path 922290" d="M258.294,380.082a111.2,111.2,0,0,1,13.451-.461,11.687,11.687,0,0,0,3.026-4.967,3.217,3.217,0,0,0,.148-1.16,1.345,1.345,0,0,0-.545-1,1.825,1.825,0,0,0-1.849.195,6.774,6.774,0,0,0-2.924,3.385,14.245,14.245,0,0,0,1.538-5.238,2,2,0,0,0-.524-1.912,1.372,1.372,0,0,0-1.272-.09,3.181,3.181,0,0,0-1.065.777,9.833,9.833,0,0,0-2.661,5.175,50.06,50.06,0,0,0-.751-6.342,16.654,16.654,0,0,0-2.215-5.935A5.433,5.433,0,0,0,261.319,361a2.343,2.343,0,0,0-3.607.763,5.378,5.378,0,0,0-.625,2.088,16.166,16.166,0,0,0,.744,6.709,48.341,48.341,0,0,0,2.6,6.28,12.311,12.311,0,0,0-4.319-3.816,3.751,3.751,0,0,0-1.324-.45,1.428,1.428,0,0,0-1.662,1.692,3.66,3.66,0,0,0,.466,1.282,11.339,11.339,0,0,0,4.707,4.534" transform="translate(-164.603 -358.092)" fill="#eebc32"/>
                  <path id="Path_922291" data-name="Path 922291" d="M50.293,377.649l13.684.058a18.378,18.378,0,0,0,2.8-3.423,1.772,1.772,0,0,0,.307-1.758,1.2,1.2,0,0,0-1.049-.516,2.87,2.87,0,0,0-1.167.332,10.209,10.209,0,0,0-3.9,3.233,18.029,18.029,0,0,0,1-7.064,4.068,4.068,0,0,0-.288-1.42,1.632,1.632,0,0,0-1.042-.946,1.609,1.609,0,0,0-1.317.335,3.678,3.678,0,0,0-.885,1.08,10.813,10.813,0,0,0-1.5,5.965,66.659,66.659,0,0,0-1.058-8.357,22.035,22.035,0,0,0-3.09-7.738c-.416-.618-1.041-1.278-1.772-1.134a1.368,1.368,0,0,0-.961.968,3.809,3.809,0,0,0-.083,1.421A46,46,0,0,0,53.122,372.4a10.405,10.405,0,0,0-4.383-4.007c-.711-.36-1.663-.608-2.234-.052a2.024,2.024,0,0,0-.223,1.985,15.917,15.917,0,0,0,4.011,7.329" transform="translate(-46.134 -355.699)" fill="#eebc32"/>
                </g>
              </g>
            </g>
            <rect id="Rectangle_408881" data-name="Rectangle 408881" width="10.105" height="106.284" transform="translate(38.485 67.302)" fill="#d4b39d"/>
            <path id="Path_922292" data-name="Path 922292" d="M101.454,114.17H99.316v-23.2l9.095-9.094,1.512,1.512-8.468,8.468Z" transform="translate(-56.847 -46.867)" fill="#d4b39d"/>
            <rect id="Rectangle_408882" data-name="Rectangle 408882" width="10.105" height="106.284" transform="translate(272.12 67.302)" fill="#d4b39d"/>
            <path id="Path_922293" data-name="Path 922293" d="M636.487,114.17h-2.138V91.86l-8.468-8.468,1.512-1.512,9.095,9.094Z" transform="translate(-358.245 -46.867)" fill="#d4b39d"/>
            <rect id="Rectangle_408883" data-name="Rectangle 408883" width="295" height="4.094" transform="translate(5.711 118.398)" fill="#d4b39d"/>
            <rect id="Rectangle_408884" data-name="Rectangle 408884" width="295" height="4.094" transform="translate(5.711 75.636)" fill="#d4b39d"/>
            <rect id="Rectangle_408885" data-name="Rectangle 408885" width="295" height="4.094" transform="translate(5.711 139.779)" fill="#d4b39d"/>
            <rect id="Rectangle_408886" data-name="Rectangle 408886" width="295" height="4.094" transform="translate(5.711 97.017)" fill="#d4b39d"/>
            <path id="Path_922294" data-name="Path 922294" d="M322.584,404.266c0,.5-36.151.932-88.439,1.133-20.119.077-42.625.12-66.383.12s-46.264-.043-66.383-.12c-52.289-.2-88.439-.633-88.439-1.133s36.151-.928,88.439-1.129c20.119-.077,42.625-.12,66.383-.12s46.264.043,66.383.12c52.289.2,88.439.633,88.439,1.129" transform="translate(-7.407 -230.681)" fill="#d4b39d"/>
            <path id="Path_922295" data-name="Path 922295" d="M336.135,108.222a12.914,12.914,0,0,1-2.45-11.791,79.544,79.544,0,0,0,35.089.2,12.021,12.021,0,0,1-1.622,10.811,68.989,68.989,0,0,0-31.017.781" transform="translate(-190.708 -55.196)" fill="#738c96"/>
            <path id="Path_922296" data-name="Path 922296" d="M342.872,129.247a43.963,43.963,0,0,0-6.69,15.693,17.084,17.084,0,0,0-.445,5.093,7.74,7.74,0,0,0,1.95,4.643,10.512,10.512,0,0,0,4.527,2.456,39.864,39.864,0,0,0,19.508,1.182c2.536-.484,5.231-1.358,6.686-3.491,1.258-1.845,1.314-4.239,1.184-6.469A53.16,53.16,0,0,0,366.371,133a61.6,61.6,0,0,0-23.5-3.749" transform="translate(-192.142 -73.954)" fill="#6585b8"/>
            <path id="Path_922297" data-name="Path 922297" d="M400.381,388.472l.437-4.556H396.19l.463,4.468v1.429h3.8Z" transform="translate(-226.773 -219.748)" fill="#ed7b5f"/>
            <path id="Path_922298" data-name="Path 922298" d="M407.262,404.125H390.6a.464.464,0,0,1-.464-.464v-.428a.464.464,0,0,1,.464-.464h16.662a.465.465,0,0,1,.464.464v.428a.464.464,0,0,1-.464.464" transform="translate(-223.308 -230.538)" fill="#444145"/>
            <path id="Path_922299" data-name="Path 922299" d="M392.006,397.222v-2.99a1.154,1.154,0,0,1,1.154-1.153h.115a1.154,1.154,0,0,1,.983.549l.084.136a2.118,2.118,0,0,0,1.806,1.01h.127a1.914,1.914,0,0,0,1.712-1.058,1.154,1.154,0,0,1,1.032-.638,1.179,1.179,0,0,1,.93.475c2.379,3.094,8.194.219,8.194,3.668Z" transform="translate(-224.379 -224.993)" fill="#fff"/>
            <path id="Path_922300" data-name="Path 922300" d="M394.888,400.174a.117.117,0,0,1-.113-.088,2.1,2.1,0,0,0-2.825-1.435.118.118,0,0,1-.152-.064.117.117,0,0,1,.064-.151A2.333,2.333,0,0,1,395,400.029a.117.117,0,0,1-.085.141.131.131,0,0,1-.028,0" transform="translate(-224.255 -227.962)" fill="#444145"/>
            <path id="Path_922301" data-name="Path 922301" d="M413.624,390.376a.111.111,0,0,1-.044-.009h0l-.009,0a.114.114,0,0,1-.049-.048,5.734,5.734,0,0,1-.578-3.9,1.787,1.787,0,0,1,.485-.966.835.835,0,0,1,1.09-.055,1.125,1.125,0,0,1,.257.887,9.8,9.8,0,0,1-.389,2.26,8.956,8.956,0,0,1,2.9-3.145,2.252,2.252,0,0,1,.969-.344,1.037,1.037,0,0,1,.958.446,1.245,1.245,0,0,1,0,1.084,4.142,4.142,0,0,1-1.08,1.481,9.078,9.078,0,0,1-4.493,2.306l-.023,0m.265-.413c-.02.046-.04.092-.061.136a8.85,8.85,0,0,0,4.153-2.2A3.926,3.926,0,0,0,419,386.5a1.054,1.054,0,0,0,.012-.88.806.806,0,0,0-.745-.335,2.048,2.048,0,0,0-.868.314,10.473,10.473,0,0,0-3.515,4.361m.153-4.512a.711.711,0,0,0-.458.176,1.573,1.573,0,0,0-.414.843,5.483,5.483,0,0,0,.447,3.524l.06-.128a10.856,10.856,0,0,0,.867-3.587.935.935,0,0,0-.184-.711.458.458,0,0,0-.319-.117" transform="translate(-236.293 -220.399)" fill="#444145"/>
            <path id="Path_922302" data-name="Path 922302" d="M334.5,388.472l-.437-4.556h4.629l-.463,4.468v1.429h-3.8Z" transform="translate(-191.212 -219.748)" fill="#ed7b5f"/>
            <path id="Path_922303" data-name="Path 922303" d="M310.268,404.125H326.93a.464.464,0,0,0,.464-.464v-.428a.464.464,0,0,0-.464-.464H310.268a.465.465,0,0,0-.464.464v.428a.464.464,0,0,0,.464.464" transform="translate(-177.327 -230.538)" fill="#444145"/>
            <path id="Path_922304" data-name="Path 922304" d="M327.471,397.222v-2.99a1.154,1.154,0,0,0-1.154-1.153H326.2a1.154,1.154,0,0,0-.983.549l-.084.136a2.118,2.118,0,0,1-1.806,1.01H323.2a1.914,1.914,0,0,1-1.712-1.058,1.154,1.154,0,0,0-1.032-.638,1.179,1.179,0,0,0-.93.475c-2.379,3.094-8.194.219-8.194,3.668Z" transform="translate(-178.203 -224.993)" fill="#fff"/>
            <path id="Path_922305" data-name="Path 922305" d="M341.888,400.174a.131.131,0,0,1-.028,0,.116.116,0,0,1-.084-.141,2.331,2.331,0,0,1,3.138-1.593.116.116,0,1,1-.087.214A2.1,2.1,0,0,0,342,400.086a.116.116,0,0,1-.112.088" transform="translate(-195.625 -227.962)" fill="#444145"/>
            <path id="Path_922306" data-name="Path 922306" d="M318.722,390.375l-.023,0a9.083,9.083,0,0,1-4.493-2.306,4.15,4.15,0,0,1-1.08-1.481,1.246,1.246,0,0,1,.005-1.084,1.03,1.03,0,0,1,.957-.446,2.251,2.251,0,0,1,.969.344,8.953,8.953,0,0,1,2.9,3.146,9.817,9.817,0,0,1-.389-2.261,1.126,1.126,0,0,1,.257-.887.835.835,0,0,1,1.09.055,1.785,1.785,0,0,1,.485.966,5.737,5.737,0,0,1-.578,3.9.116.116,0,0,1-.049.048l-.009,0a.11.11,0,0,1-.045.009m-4.708-5.089a.788.788,0,0,0-.684.336,1.055,1.055,0,0,0,.012.88,3.92,3.92,0,0,0,1.023,1.4,8.854,8.854,0,0,0,4.152,2.2c-.02-.044-.04-.089-.06-.135a10.478,10.478,0,0,0-3.516-4.363,2.05,2.05,0,0,0-.868-.313l-.061,0m4.655,4.581.06.127a5.487,5.487,0,0,0,.447-3.524,1.578,1.578,0,0,0-.414-.843.606.606,0,0,0-.777-.059.933.933,0,0,0-.184.711,10.856,10.856,0,0,0,.867,3.589" transform="translate(-179.158 -220.399)" fill="#444145"/>
            <path id="Path_922307" data-name="Path 922307" d="M349.392,205.066c-.6,5.12-6.392,18.475-9.641,25.09.993,7.863.626,24.839-1.876,40.942H330.03s-.028-6.6-.046-14.72c0-3.017-.009-6.239-.014-9.414,0-7.4,0-14.529.06-18.057.139-9.113,4.354-29.458,7.367-42.015l12,.827Z" transform="translate(-188.869 -106.974)" fill="#444145"/>
            <path id="Path_922308" data-name="Path 922308" d="M390.748,271.471h-7.682c-3.208-20.221-6.777-56.8-7.673-66.033V188.091l12.357-.548c.548,6.165,1.049,12.237,1.486,17.941.446,5.8.821,11.22,1.1,15.987.186,3.222.325,6.146.413,8.685.343,9.985,0,41.314,0,41.314" transform="translate(-214.869 -107.347)" fill="#444145"/>
            <path id="Path_922309" data-name="Path 922309" d="M375.073,208.443h0a.116.116,0,0,1-.116-.116l.038-15.471a.116.116,0,1,1,.232,0l-.038,15.47a.117.117,0,0,1-.116.116" transform="translate(-214.62 -110.322)" fill="#6e6e6e"/>
            <path id="Path_922310" data-name="Path 922310" d="M374.194,203.511a5.681,5.681,0,0,1-4.165-1.835,7.591,7.591,0,0,1-1.753-4.256,22.16,22.16,0,0,1,.13-4.621.125.125,0,0,1,.127-.1.116.116,0,0,1,.1.127,22.016,22.016,0,0,0-.13,4.572,7.369,7.369,0,0,0,1.694,4.127,5.453,5.453,0,0,0,4.279,1.751.109.109,0,0,1,.122.109.115.115,0,0,1-.109.122c-.1.006-.2.009-.3.009" transform="translate(-210.752 -110.295)" fill="#6e6e6e"/>
            <path id="Path_922311" data-name="Path 922311" d="M398.98,197.457a.116.116,0,0,1-.065-.02,7.9,7.9,0,0,1-3.414-5.912.116.116,0,0,1,.108-.124.107.107,0,0,1,.124.108,7.669,7.669,0,0,0,3.312,5.735.116.116,0,0,1-.065.213" transform="translate(-226.379 -109.555)" fill="#6e6e6e"/>
            <path id="Path_922312" data-name="Path 922312" d="M344.519,197.182a.116.116,0,0,1-.048-.222,10.165,10.165,0,0,0,4.874-4.786.116.116,0,1,1,.209.1,10.4,10.4,0,0,1-4.986,4.9.121.121,0,0,1-.048.01" transform="translate(-197.131 -109.96)" fill="#6e6e6e"/>
            <path id="Path_922313" data-name="Path 922313" d="M346.825,292.705h0a.116.116,0,0,1-.112-.121c.13-3.424.514-6.885.886-10.232.269-2.418.547-4.919.726-7.384.518-7.127.011-12.666-1.6-17.433a.116.116,0,0,1,.049-.136c.243-.151.484-.335.716-.513.2-.156.413-.316.628-.458-.156-.2-.328-.408-.5-.609-.2-.237-.4-.482-.579-.717a.116.116,0,0,1,.029-.167c.268-.176.529-.361.789-.546.238-.168.475-.336.718-.5l-.845-1.967a.114.114,0,0,1,.007-.105,92.565,92.565,0,0,0,9.6-21.308.116.116,0,1,1,.222.065,92.726,92.726,0,0,1-9.592,21.311l.86,2a.116.116,0,0,1-.043.143c-.269.177-.531.362-.792.547-.229.163-.458.325-.692.481.156.2.33.409.5.61.2.237.4.482.579.717a.116.116,0,0,1-.031.169c-.244.151-.484.335-.718.514-.213.163-.431.33-.656.476,1.6,4.778,2.1,10.322,1.581,17.437-.18,2.47-.458,4.973-.727,7.393-.372,3.343-.756,6.8-.885,10.214a.116.116,0,0,1-.116.112" transform="translate(-198.451 -131.895)" fill="#6e6e6e"/>
            <path id="Path_922314" data-name="Path 922314" d="M385.813,293.709a.117.117,0,0,1-.115-.1c-2-13.165-3.358-24.807-4.16-35.592a.116.116,0,0,1,.056-.108c.291-.175.594-.369.9-.563.241-.154.482-.309.718-.455-.3-.144-.609-.284-.916-.424-.373-.17-.745-.34-1.107-.517a.116.116,0,0,1-.013-.2,5.225,5.225,0,0,0,.7-.587,6.7,6.7,0,0,1,.6-.52l-1.334-1.035a.118.118,0,0,1-.044-.08c-.4-3.827-.779-7.616-1.144-11.281-.366-3.684-.745-7.492-1.149-11.339a.115.115,0,0,1,.1-.127.113.113,0,0,1,.127.1c.4,3.848.783,7.657,1.15,11.342.363,3.648.738,7.42,1.138,11.23l1.42,1.1a.116.116,0,0,1-.007.189,5.362,5.362,0,0,0-.7.587,6.812,6.812,0,0,1-.564.5c.3.146.615.287.925.429.374.171.749.342,1.113.52a.118.118,0,0,1,.065.1.115.115,0,0,1-.056.1c-.291.175-.593.369-.895.562-.284.182-.568.363-.842.53.8,10.76,2.161,22.374,4.153,35.5a.116.116,0,0,1-.1.132h-.018" transform="translate(-216.816 -132.095)" fill="#6e6e6e"/>
            <path id="Path_922315" data-name="Path 922315" d="M402.746,286.682h0l-6.152-.023a.116.116,0,0,1,0-.232h0l6.152.023a.116.116,0,0,1,0,.232" transform="translate(-226.938 -163.947)" fill="#6e6e6e"/>
            <path id="Path_922316" data-name="Path 922316" d="M334.274,285.84h0l-4.774-.07a.116.116,0,0,1,0-.232h0l4.774.07a.116.116,0,0,1,0,.232" transform="translate(-188.535 -163.438)" fill="#6e6e6e"/>
            <path id="Path_922317" data-name="Path 922317" d="M369.3,229.005q-1.214,0-2.425-.106a.116.116,0,0,1-.106-.126.119.119,0,0,1,.126-.106,27.724,27.724,0,0,0,7.007-.28.115.115,0,0,1,.134.095.116.116,0,0,1-.1.134,27.989,27.989,0,0,1-4.64.388" transform="translate(-209.933 -130.725)" fill="#6e6e6e"/>
            <path id="Path_922318" data-name="Path 922318" d="M399.7,379.953l-.914,2.855h-8.822l-.8-2.855Z" transform="translate(-222.752 -217.48)" fill="#6e6e6e"/>
            <path id="Path_922319" data-name="Path 922319" d="M336.663,382.37l1.17-3.183H327.208l.749,3.183Z" transform="translate(-187.289 -217.041)" fill="#6e6e6e"/>
            <path id="Path_922320" data-name="Path 922320" d="M399.629,245.487c-1.954.288-3.923.506-5.872.812a63.661,63.661,0,0,1-2.126-16.493l6.9-.307c.446,5.8.822,11.22,1.1,15.987" transform="translate(-224.164 -131.362)" fill="#6e6e6e"/>
            <path id="Path_922321" data-name="Path 922321" d="M333.671,328.892c-.538,2.8-1,5.691-1.541,8.49a21.429,21.429,0,0,0-2.145-.594c0-3.017-.009-6.238-.014-9.414l3.7,1.518" transform="translate(-188.871 -187.384)" fill="#6e6e6e"/>
            <path id="Path_922322" data-name="Path 922322" d="M369.935,119.8l1.453,20.555c-7.539,2.678-17.7,2.121-24.352-.279l2.233-20.838-2.461-12.12,7.362-1.977a9.975,9.975,0,0,0,4.526,1.495,5.614,5.614,0,0,0,4.011-1.532l9.824,2.014Z" transform="translate(-198.508 -60.161)" fill="#785252"/>
            <path id="Path_922323" data-name="Path 922323" d="M367.7,108.716a7.7,7.7,0,0,1-4.834-1.734.116.116,0,0,1,.148-.179,7.355,7.355,0,0,0,9.544-.157.116.116,0,0,1,.154.174,7.7,7.7,0,0,1-4.893,1.9H367.7" transform="translate(-207.677 -61.026)" fill="#5c3434"/>
            <path id="Path_922324" data-name="Path 922324" d="M381.093,168.141a.11.11,0,0,1-.031,0,20.366,20.366,0,0,1-12.554-10.253.116.116,0,0,1,.207-.105,20.128,20.128,0,0,0,12.408,10.135.116.116,0,0,1-.031.228" transform="translate(-210.922 -90.274)" fill="#5c3434"/>
            <path id="Path_922325" data-name="Path 922325" d="M371.342,178.249a15.583,15.583,0,0,1-8.481-2.528.116.116,0,1,1,.127-.194,15.3,15.3,0,0,0,8.844,2.482.116.116,0,1,1,.008.232c-.166.006-.332.008-.5.008" transform="translate(-207.667 -100.458)" fill="#5c3434"/>
            <path id="Path_922326" data-name="Path 922326" d="M348.583,134.065a13.662,13.662,0,0,0,7.411-7.544,19.3,19.3,0,0,0,.989-10.355,44.052,44.052,0,0,0-2.913-10.713,5.453,5.453,0,0,0-2.533.811,48.33,48.33,0,0,1,2.5,9.506,19.992,19.992,0,0,1-.112,8.2,9.368,9.368,0,0,1-4.953,6.268,6.716,6.716,0,0,0-.388,3.825" transform="translate(-199.455 -60.36)" fill="#edc472"/>
            <path id="Path_922327" data-name="Path 922327" d="M341.8,147.233c-1.481,1.681-7.307,6.819-9.911,9.094a4.05,4.05,0,0,1-2.674,1c-.088,0-.176,0-.264-.009a4.069,4.069,0,0,1-3.709-3.156l0-.032a4.036,4.036,0,0,1,.042-2,93.354,93.354,0,0,1,3.231-9.665,20.221,20.221,0,0,0,6.81,2.553l-1.913,3.407c.093-.07,1.671-1.235,6.847-4.661Z" transform="translate(-186.101 -81.548)" fill="#ed7b5f"/>
            <path id="Path_922328" data-name="Path 922328" d="M336.035,159.014a.117.117,0,0,1-.074-.027.116.116,0,0,1-.015-.163,10.774,10.774,0,0,1,3.666-2.829.116.116,0,1,1,.1.21,10.54,10.54,0,0,0-3.586,2.768.114.114,0,0,1-.089.042" transform="translate(-192.275 -89.283)" fill="#444145"/>
            <path id="Path_922329" data-name="Path 922329" d="M362.447,136.678c.511-.357,1.014-.751,1.525-1.108a1.813,1.813,0,0,1,.129-.686,1.121,1.121,0,0,1,.924.972.876.876,0,0,1,.533.407.913.913,0,0,1,.108.676.693.693,0,0,1,.517.566,1.748,1.748,0,0,1-.088.821.56.56,0,0,1,.294.558,1.29,1.29,0,0,1-.254.614,5.167,5.167,0,0,1-1.84,1.589,5.069,5.069,0,0,1-2.289.878l-1.543-3.462a12.316,12.316,0,0,1,.121-2.754,4.477,4.477,0,0,1,1.581-2.317c.109-.1.265-.21.4-.142s.139.263.114.415a5.574,5.574,0,0,1-.624,1.8,2.206,2.206,0,0,1,.391,1.169" transform="translate(-206.309 -76.281)" fill="#ed7b5f"/>
            <path id="Path_922330" data-name="Path 922330" d="M370.555,140.027a.109.109,0,0,1-.03,0,.116.116,0,0,1-.082-.142l.23-.845a.116.116,0,0,1,.224.061l-.23.845a.116.116,0,0,1-.112.086" transform="translate(-212.034 -79.533)" fill="#444145"/>
            <path id="Path_922331" data-name="Path 922331" d="M371.783,142.822a.11.11,0,0,1-.04-.007.116.116,0,0,1-.068-.149l.355-.96a.115.115,0,0,1,.149-.068.116.116,0,0,1,.069.149l-.355.96a.116.116,0,0,1-.109.076" transform="translate(-212.737 -81.066)" fill="#444145"/>
            <path id="Path_922332" data-name="Path 922332" d="M372.547,145.712a.114.114,0,0,1-.056-.015.115.115,0,0,1-.044-.158l.493-.882a.116.116,0,0,1,.2.113l-.493.882a.116.116,0,0,1-.1.059" transform="translate(-213.174 -82.765)" fill="#444145"/>
            <path id="Path_922333" data-name="Path 922333" d="M337.251,109.817c-2.315,2.94-7.139,13.086-7.139,13.086,1.419,1.312,6.98,3.849,9.13,3.414l1.441-6.43Z" transform="translate(-188.951 -62.858)" fill="#785252"/>
            <path id="Path_922334" data-name="Path 922334" d="M351.3,139.59a.121.121,0,0,1-.032,0,.116.116,0,0,1-.08-.143,33.009,33.009,0,0,0,1.185-6.612.114.114,0,0,1,.124-.107.117.117,0,0,1,.107.124,33.22,33.22,0,0,1-1.193,6.658.116.116,0,0,1-.112.084" transform="translate(-201.011 -75.968)" fill="#5c3434"/>
            <path id="Path_922335" data-name="Path 922335" d="M340.549,140.685a.131.131,0,0,1-.031,0,35.8,35.8,0,0,1-8.108-3.4.116.116,0,0,1,.115-.2,35.546,35.546,0,0,0,8.055,3.381.116.116,0,0,1-.031.228" transform="translate(-190.233 -78.452)" fill="#5c3434"/>
            <path id="Path_922336" data-name="Path 922336" d="M393.419,134.065a13.662,13.662,0,0,1-7.411-7.544,19.3,19.3,0,0,1-.989-10.355,44.051,44.051,0,0,1,2.913-10.713,5.453,5.453,0,0,1,2.533.811,48.328,48.328,0,0,0-2.5,9.506,19.992,19.992,0,0,0,.112,8.2,9.368,9.368,0,0,0,4.953,6.268,6.716,6.716,0,0,1,.388,3.825" transform="translate(-220.223 -60.36)" fill="#edc472"/>
            <path id="Path_922337" data-name="Path 922337" d="M389.66,147.233c1.481,1.681,7.307,6.819,9.911,9.094a4.05,4.05,0,0,0,2.674,1c.088,0,.176,0,.264-.009a4.069,4.069,0,0,0,3.709-3.156l0-.032a4.036,4.036,0,0,0-.042-2,93.368,93.368,0,0,0-3.231-9.665,20.222,20.222,0,0,1-6.81,2.553l1.913,3.407c-.093-.07-1.671-1.235-6.847-4.661Z" transform="translate(-223.036 -81.548)" fill="#ed7b5f"/>
            <path id="Path_922338" data-name="Path 922338" d="M412.573,159.014a.115.115,0,0,1-.089-.042A10.545,10.545,0,0,0,408.9,156.2a.116.116,0,1,1,.1-.21,10.777,10.777,0,0,1,3.666,2.829.116.116,0,0,1-.015.163.117.117,0,0,1-.074.027" transform="translate(-234.009 -89.283)" fill="#444145"/>
            <path id="Path_922339" data-name="Path 922339" d="M383.356,136.678c-.511-.357-1.014-.751-1.525-1.108a1.811,1.811,0,0,0-.129-.686,1.122,1.122,0,0,0-.925.972.878.878,0,0,0-.533.407.913.913,0,0,0-.108.676.692.692,0,0,0-.517.566,1.755,1.755,0,0,0,.087.821.56.56,0,0,0-.294.558,1.29,1.29,0,0,0,.254.614,5.167,5.167,0,0,0,1.84,1.589,5.069,5.069,0,0,0,2.289.878l1.543-3.462a12.316,12.316,0,0,0-.121-2.754,4.477,4.477,0,0,0-1.581-2.317c-.109-.1-.265-.21-.4-.142s-.139.263-.114.415a5.553,5.553,0,0,0,.624,1.8,2.2,2.2,0,0,0-.391,1.169" transform="translate(-217.169 -76.281)" fill="#ed7b5f"/>
            <path id="Path_922340" data-name="Path 922340" d="M382.6,140.028a.116.116,0,0,1-.112-.086l-.23-.845a.116.116,0,0,1,.224-.061l.23.845a.116.116,0,0,1-.082.142.107.107,0,0,1-.03,0" transform="translate(-218.795 -79.533)" fill="#444145"/>
            <path id="Path_922341" data-name="Path 922341" d="M381.2,142.822a.117.117,0,0,1-.109-.076l-.355-.961a.116.116,0,0,1,.218-.08l.355.96a.117.117,0,0,1-.068.149.114.114,0,0,1-.041.007" transform="translate(-217.926 -81.066)" fill="#444145"/>
            <path id="Path_922342" data-name="Path 922342" d="M380.254,145.712a.116.116,0,0,1-.1-.059l-.493-.882a.116.116,0,0,1,.2-.113l.493.882a.116.116,0,0,1-.045.158.111.111,0,0,1-.056.015" transform="translate(-217.303 -82.766)" fill="#444145"/>
            <path id="Path_922343" data-name="Path 922343" d="M402.371,109.817c2.315,2.94,7.139,13.086,7.139,13.086-1.419,1.312-6.98,3.849-9.13,3.414l-1.441-6.43Z" transform="translate(-228.347 -62.858)" fill="#785252"/>
            <path id="Path_922344" data-name="Path 922344" d="M400.573,139.59a.116.116,0,0,1-.112-.084,33.279,33.279,0,0,1-1.193-6.658.116.116,0,1,1,.231-.018,33.016,33.016,0,0,0,1.184,6.612.116.116,0,0,1-.08.143.122.122,0,0,1-.032,0" transform="translate(-228.535 -75.968)" fill="#5c3434"/>
            <path id="Path_922345" data-name="Path 922345" d="M402.1,140.685a.116.116,0,0,1-.031-.228,35.541,35.541,0,0,0,8.055-3.381.116.116,0,1,1,.115.2,35.8,35.8,0,0,1-8.108,3.4.131.131,0,0,1-.031,0" transform="translate(-230.087 -78.452)" fill="#5c3434"/>
            <path id="Path_922346" data-name="Path 922346" d="M372.559,93.634a5.618,5.618,0,0,1-4.009,1.53,9.98,9.98,0,0,1-4.528-1.495c.58-2.317,1.621-6.388,1.333-8.607l3.092.645,3.249,3.927c0,.116,0,.232.009.353a7.384,7.384,0,0,0,.144,1.193c.112.636.45,1.6.71,2.454" transform="translate(-208.361 -48.688)" fill="#ed7b5f"/>
            <path id="Path_922347" data-name="Path 922347" d="M375.143,92.472a6.284,6.284,0,0,1-3.4-1.569,6.357,6.357,0,0,1-1.964-3.584,14.629,14.629,0,0,0,1.676,2.135,5.959,5.959,0,0,0,3,1.755,3.484,3.484,0,0,0,.544.07,7.377,7.377,0,0,0,.144,1.193" transform="translate(-211.655 -49.98)" fill="#444145"/>
            <path id="Path_922348" data-name="Path 922348" d="M377.543,64.98c-.009.534-.033,1.063-.065,1.592-.014.218-.028.431-.047.65a5.579,5.579,0,0,1-1.216,3.574,3.634,3.634,0,0,1-3.268.882,5.966,5.966,0,0,1-3-1.755,17.742,17.742,0,0,1-2.121-2.813l-.682-.288V62.6l.255-4.893,6.468-4.513,3.327,2.619c.218,3.05.432,6.109.353,9.163" transform="translate(-210.146 -30.45)" fill="#ed7b5f"/>
            <path id="Path_922349" data-name="Path 922349" d="M364.868,77.571a2.192,2.192,0,1,1-2.192-2.192,2.192,2.192,0,0,1,2.192,2.192" transform="translate(-206.336 -43.146)" fill="#ed7b5f"/>
            <path id="Path_922350" data-name="Path 922350" d="M365.074,80.516a.116.116,0,0,1-.116-.111,2.079,2.079,0,0,0-2.293-1.968.116.116,0,0,1-.024-.231,2.31,2.31,0,0,1,2.549,2.188.115.115,0,0,1-.11.121h-.006" transform="translate(-207.511 -44.757)" fill="#444145"/>
            <path id="Path_922351" data-name="Path 922351" d="M363.31,80.353a.118.118,0,0,1-.068-.022.116.116,0,0,1-.026-.162,2.308,2.308,0,0,1,1.362-.9.116.116,0,1,1,.051.226,2.082,2.082,0,0,0-1.225.806.116.116,0,0,1-.094.048" transform="translate(-207.887 -45.373)" fill="#444145"/>
            <path id="Path_922352" data-name="Path 922352" d="M382.128,79.175a.116.116,0,0,1-.034-.227,2.228,2.228,0,0,0,.575-.242.788.788,0,0,0,.348-.441,1.278,1.278,0,0,0-.145-.784l-.954-2.336a.116.116,0,1,1,.215-.088l.954,2.336a1.508,1.508,0,0,1,.155.931,1.019,1.019,0,0,1-.445.576,2.465,2.465,0,0,1-.635.27.115.115,0,0,1-.034.005" transform="translate(-218.599 -42.921)" fill="#444145"/>
            <path id="Path_922353" data-name="Path 922353" d="M375.291,73.918a2.142,2.142,0,0,1-1.653.766,2.07,2.07,0,0,1-1.592-.845,1.8,1.8,0,0,1,1.026-.937,1.655,1.655,0,0,1,1.207.014,1.8,1.8,0,0,1,1.012,1" transform="translate(-212.954 -41.666)" fill="#fff"/>
            <path id="Path_922354" data-name="Path 922354" d="M375.11,73.934a.117.117,0,0,1-.109-.077,1.632,1.632,0,0,0-3.058-.032.116.116,0,1,1-.216-.083,1.864,1.864,0,0,1,3.493.036.116.116,0,0,1-.109.156" transform="translate(-212.766 -41.526)" fill="#444145"/>
            <path id="Path_922355" data-name="Path 922355" d="M375.58,73.379a.768.768,0,1,1-1.537,0,.754.754,0,0,1,.171-.478,1.654,1.654,0,0,1,1.207.014.758.758,0,0,1,.158.464" transform="translate(-214.097 -41.666)" fill="#444145"/>
            <path id="Path_922356" data-name="Path 922356" d="M387.232,73.918a2.141,2.141,0,0,1-1.653.766,2.07,2.07,0,0,1-1.592-.845,1.8,1.8,0,0,1,1.026-.937,1.653,1.653,0,0,1,1.207.014,1.805,1.805,0,0,1,1.012,1" transform="translate(-219.788 -41.666)" fill="#fff"/>
            <path id="Path_922357" data-name="Path 922357" d="M387.051,73.934a.116.116,0,0,1-.109-.077,1.632,1.632,0,0,0-3.058-.032.116.116,0,1,1-.216-.083,1.864,1.864,0,0,1,3.493.036.116.116,0,0,1-.109.156" transform="translate(-219.601 -41.526)" fill="#444145"/>
            <path id="Path_922358" data-name="Path 922358" d="M387.521,73.379a.768.768,0,1,1-1.536,0,.754.754,0,0,1,.171-.478,1.655,1.655,0,0,1,1.207.014.758.758,0,0,1,.158.464" transform="translate(-220.932 -41.666)" fill="#444145"/>
            <path id="Path_922359" data-name="Path 922359" d="M371.2,69.509a14.563,14.563,0,0,1,3.177-1.568,1.158,1.158,0,0,0-.456-.886,6.269,6.269,0,0,0-2.9,2.169c-.044.061.123.242.184.286" transform="translate(-212.362 -38.381)" fill="#444145"/>
            <path id="Path_922360" data-name="Path 922360" d="M388.071,68.2a14.573,14.573,0,0,0-3.2-1.517,1.156,1.156,0,0,1,.442-.893,6.269,6.269,0,0,1,2.939,2.121c.046.06-.119.243-.179.289" transform="translate(-220.293 -37.658)" fill="#444145"/>
            <path id="Path_922361" data-name="Path 922361" d="M378.6,88.926a.118.118,0,0,1-.058-.015.116.116,0,0,1-.043-.158,2.773,2.773,0,0,1,2.036-1.429,1.984,1.984,0,0,1,2.079,1.264.116.116,0,0,1-.222.07,1.749,1.749,0,0,0-1.833-1.1,2.541,2.541,0,0,0-1.859,1.313.115.115,0,0,1-.1.059" transform="translate(-216.641 -49.976)" fill="#444145"/>
            <path id="Path_922362" data-name="Path 922362" d="M377.557,49.36a3.23,3.23,0,0,1-1.931,2.952,5.19,5.19,0,0,1-3.1.084,19.126,19.126,0,0,0-3.086-.622,3.411,3.411,0,0,0-2.846,1.054,5.286,5.286,0,0,0-.836,2.674,5.1,5.1,0,0,1-.538,1.843A2.162,2.162,0,0,0,363.9,56.9a1.114,1.114,0,0,0-.125,0,12.647,12.647,0,0,1-1.137-4.581,4.245,4.245,0,0,1,.148-1.569,1.8,1.8,0,0,1,1.031-1.133,1.2,1.2,0,0,1,1.425.422,6.189,6.189,0,0,1,2.595-4.786,13.246,13.246,0,0,1,5.167-2.163,3.613,3.613,0,0,1-.548,2.915,3.429,3.429,0,0,0,2.409-1.253,2.983,2.983,0,0,1-.177,2.595A4.106,4.106,0,0,0,376.739,46a2.67,2.67,0,0,1-.715,3.324,2.057,2.057,0,0,0,1.532.032" transform="translate(-207.564 -24.669)" fill="#444145"/>
            <path id="Path_922363" data-name="Path 922363" d="M550.122,257.585H516.371a.928.928,0,0,1-.928-.928V232.007a.928.928,0,0,1,.928-.928h33.751a.928.928,0,0,1,.928.928v24.649a.928.928,0,0,1-.928.928" transform="translate(-295.032 -132.266)" fill="#785252"/>
            <path id="Path_922364" data-name="Path 922364" d="M520.444,231.079h-4.073a.928.928,0,0,0-.929.928v6.171a2.249,2.249,0,0,0,2.249-2.249v-2.206h.5a2.248,2.248,0,0,0,2.248-2.248Z" transform="translate(-295.032 -132.266)" fill="#967a7a"/>
            <path id="Path_922365" data-name="Path 922365" d="M587.017,231.079h4.073a.928.928,0,0,1,.929.928v6.171a2.249,2.249,0,0,1-2.249-2.249v-2.206h-.5a2.248,2.248,0,0,1-2.249-2.248Z" transform="translate(-336 -132.266)" fill="#967a7a"/>
            <path id="Path_922366" data-name="Path 922366" d="M520.444,283.562h-4.073a.928.928,0,0,1-.929-.928v-6.171a2.249,2.249,0,0,1,2.249,2.248v2.206h.5a2.248,2.248,0,0,1,2.248,2.248Z" transform="translate(-295.032 -158.243)" fill="#967a7a"/>
            <path id="Path_922367" data-name="Path 922367" d="M587.017,283.562h4.073a.928.928,0,0,0,.929-.928v-6.171a2.249,2.249,0,0,0-2.249,2.248v2.206h-.5a2.248,2.248,0,0,0-2.249,2.248Z" transform="translate(-336 -158.243)" fill="#967a7a"/>
            <path id="Path_922368" data-name="Path 922368" d="M550.9,258.115H515.287a.116.116,0,0,1-.116-.116v-2.927a.116.116,0,1,1,.232,0v2.811h35.376v-2.811a.116.116,0,1,1,.232,0V258a.116.116,0,0,1-.115.116" transform="translate(-294.876 -145.933)" fill="#5c3434"/>
            <path id="Path_922369" data-name="Path 922369" d="M551.031,212.462c-.664.694-1.336,1.334-2,2.028-.848.887-.543,2.365-.458,3.589a.246.246,0,0,0,.3.033.641.641,0,0,0,.207-.247,3.727,3.727,0,0,0,.472-1.875,3.068,3.068,0,0,0,1.279-.608,6.677,6.677,0,0,0,.2-2.92" transform="translate(-313.925 -121.61)" fill="#ed7b5f"/>
            <path id="Path_922370" data-name="Path 922370" d="M555.443,225.166H554.05v-2.793a.232.232,0,0,0-.232-.232h-6.413a.233.233,0,0,0-.232.232v2.793h-1.392v-2.793a1.627,1.627,0,0,1,1.625-1.625h6.413a1.627,1.627,0,0,1,1.625,1.625Z" transform="translate(-312.397 -126.353)" fill="#444145"/>
            <path id="Path_922371" data-name="Path 922371" d="M553.507,212.462h3.059a10.917,10.917,0,0,1,.41,5.378.952.952,0,0,1-.7.05.8.8,0,0,1-1-.006.892.892,0,0,1-1.218-.007.9.9,0,0,1-1.125-.031,9.942,9.942,0,0,1,.577-5.383" transform="translate(-316.401 -121.61)" fill="#ed7b5f"/>
            <path id="Path_922372" data-name="Path 922372" d="M552.587,218.282h0a.116.116,0,0,1-.112-.12c0-.109.012-.217.02-.325a4.474,4.474,0,0,0,.017-.588.763.763,0,0,1,.29-.651.689.689,0,0,1,.717-.069.611.611,0,0,1,.257.266.752.752,0,0,1,.524-.273.737.737,0,0,1,.64.337.66.66,0,0,1,.532-.254.687.687,0,0,1,.476.245.624.624,0,0,1,.348-.277.632.632,0,0,1,.706.252.116.116,0,0,1-.194.128.391.391,0,0,0-.717.223.116.116,0,0,1-.109.118.113.113,0,0,1-.123-.1.436.436,0,0,0-.4-.353.407.407,0,0,0-.409.316.116.116,0,0,1-.226.006.543.543,0,0,0-.513-.406.532.532,0,0,0-.471.42c0,.008,0,.016,0,.024a.113.113,0,0,1-.133.094.116.116,0,0,1-.1-.13c0-.008,0-.015,0-.023a.416.416,0,0,0-.2-.4.453.453,0,0,0-.469.047.539.539,0,0,0-.2.452,4.557,4.557,0,0,1-.017.619c-.008.106-.015.211-.019.317a.116.116,0,0,1-.116.112" transform="translate(-316.226 -123.897)" fill="#444145"/>
            <path id="Path_922373" data-name="Path 922373" d="M555.345,220.944a.116.116,0,0,1-.115-.1,13.62,13.62,0,0,1-.153-3.212.109.109,0,0,1,.124-.107.116.116,0,0,1,.107.124,13.409,13.409,0,0,0,.15,3.157.116.116,0,0,1-.1.133l-.019,0" transform="translate(-317.699 -124.509)" fill="#444145"/>
            <path id="Path_922374" data-name="Path 922374" d="M558.187,220.855a.117.117,0,0,1-.115-.1,22.423,22.423,0,0,1-.166-3.226.116.116,0,1,1,.232,0,22.15,22.15,0,0,0,.164,3.192.116.116,0,0,1-.1.13h-.014" transform="translate(-319.334 -124.444)" fill="#444145"/>
            <path id="Path_922375" data-name="Path 922375" d="M560.558,220.94a.116.116,0,0,1-.116-.11l-.163-3.148a.116.116,0,0,1,.11-.122.118.118,0,0,1,.122.11l.163,3.148a.117.117,0,0,1-.11.122Z" transform="translate(-320.695 -124.528)" fill="#444145"/>
            <path id="Path_922376" data-name="Path 922376" d="M554.64,143.395a48.676,48.676,0,0,0-.133,13.68,5.319,5.319,0,0,0-1.735,3.827,33.969,33.969,0,0,0,.567,12.027H556.4c2.227-11.026,4.011-21.8,4.233-26.888Z" transform="translate(-316.232 -82.077)" fill="#ed7b5f"/>
            <path id="Path_922377" data-name="Path 922377" d="M559.224,175.344a.121.121,0,0,1-.028,0,6.2,6.2,0,0,0-2.412-.113.116.116,0,1,1-.035-.229,6.417,6.417,0,0,1,2.5.117.116.116,0,0,1-.028.229" transform="translate(-318.618 -100.125)" fill="#444145"/>
            <path id="Path_922378" data-name="Path 922378" d="M562.229,110.219a33.91,33.91,0,0,0-7.671,15.306l7.877,2.09Z" transform="translate(-317.421 -63.088)" fill="#fff"/>
            <path id="Path_922379" data-name="Path 922379" d="M547.758,388.13l.15-4.812,4.316.273-.738,4.451v1.429h-3.8Z" transform="translate(-313.487 -219.406)" fill="#ed7b5f"/>
            <path id="Path_922380" data-name="Path 922380" d="M523.039,404.125H539.7a.464.464,0,0,0,.464-.464v-.428a.464.464,0,0,0-.464-.464H523.039a.465.465,0,0,0-.464.464v.428a.464.464,0,0,0,.464.464" transform="translate(-299.114 -230.538)" fill="#444145"/>
            <path id="Path_922381" data-name="Path 922381" d="M540.241,397.222v-2.99a1.154,1.154,0,0,0-1.154-1.153h-.115a1.154,1.154,0,0,0-.983.549l-.083.136a2.119,2.119,0,0,1-1.806,1.01h-.127a1.914,1.914,0,0,1-1.712-1.058,1.153,1.153,0,0,0-1.032-.638,1.179,1.179,0,0,0-.931.475c-2.379,3.094-8.194.219-8.194,3.668Z" transform="translate(-299.989 -224.993)" fill="#fff"/>
            <path id="Path_922382" data-name="Path 922382" d="M554.657,400.174a.13.13,0,0,1-.028,0,.117.117,0,0,1-.085-.141,2.332,2.332,0,0,1,3.138-1.593.116.116,0,1,1-.088.214,2.1,2.1,0,0,0-2.825,1.436.117.117,0,0,1-.113.088" transform="translate(-317.411 -227.963)" fill="#444145"/>
            <path id="Path_922383" data-name="Path 922383" d="M531.493,390.375l-.023,0a9.083,9.083,0,0,1-4.492-2.306,4.143,4.143,0,0,1-1.08-1.481,1.246,1.246,0,0,1,.006-1.084,1.026,1.026,0,0,1,.957-.446,2.257,2.257,0,0,1,.969.344,8.967,8.967,0,0,1,2.9,3.146,9.8,9.8,0,0,1-.389-2.261,1.124,1.124,0,0,1,.257-.887.835.835,0,0,1,1.09.055,1.788,1.788,0,0,1,.486.966,5.731,5.731,0,0,1-.579,3.9.114.114,0,0,1-.053.05.109.109,0,0,1-.049.011m-4.708-5.089a.787.787,0,0,0-.683.337,1.053,1.053,0,0,0,.012.88,3.925,3.925,0,0,0,1.024,1.4,8.85,8.85,0,0,0,4.152,2.2l-.059-.134a10.483,10.483,0,0,0-3.517-4.364,2.051,2.051,0,0,0-.867-.313l-.061,0m4.656,4.582.059.125a5.483,5.483,0,0,0,.448-3.524,1.577,1.577,0,0,0-.414-.843.605.605,0,0,0-.777-.059.933.933,0,0,0-.183.711,10.851,10.851,0,0,0,.867,3.59" transform="translate(-300.945 -220.399)" fill="#444145"/>
            <path id="Path_922384" data-name="Path 922384" d="M653.117,387.847l-.839-5.023h4.334l.234,4.935v1.429h-3.8Z" transform="translate(-373.354 -219.123)" fill="#ed7b5f"/>
            <path id="Path_922385" data-name="Path 922385" d="M629.424,404.125h16.662a.464.464,0,0,0,.464-.464v-.428a.464.464,0,0,0-.464-.464H629.424a.464.464,0,0,0-.464.464v.428a.464.464,0,0,0,.464.464" transform="translate(-360.008 -230.538)" fill="#444145"/>
            <path id="Path_922386" data-name="Path 922386" d="M646.627,397.222v-2.99a1.154,1.154,0,0,0-1.154-1.153h-.115a1.154,1.154,0,0,0-.983.549l-.083.136a2.119,2.119,0,0,1-1.806,1.01h-.127a1.914,1.914,0,0,1-1.712-1.058,1.154,1.154,0,0,0-1.032-.638,1.179,1.179,0,0,0-.931.475c-2.379,3.094-8.193.219-8.193,3.668Z" transform="translate(-360.884 -224.993)" fill="#fff"/>
            <path id="Path_922387" data-name="Path 922387" d="M661.043,400.175a.13.13,0,0,1-.028,0,.117.117,0,0,1-.085-.141,2.332,2.332,0,0,1,3.138-1.594.116.116,0,1,1-.088.215,2.1,2.1,0,0,0-2.825,1.435.117.117,0,0,1-.113.088" transform="translate(-378.305 -227.963)" fill="#444145"/>
            <path id="Path_922388" data-name="Path 922388" d="M637.878,390.376l-.023,0a9.083,9.083,0,0,1-4.493-2.305,4.146,4.146,0,0,1-1.08-1.481,1.244,1.244,0,0,1,.005-1.084,1.029,1.029,0,0,1,.957-.446,2.249,2.249,0,0,1,.969.344,8.961,8.961,0,0,1,2.9,3.145,9.775,9.775,0,0,1-.389-2.26,1.124,1.124,0,0,1,.257-.887.835.835,0,0,1,1.09.055,1.787,1.787,0,0,1,.486.966,5.735,5.735,0,0,1-.578,3.9.109.109,0,0,1-.052.05h0a.124.124,0,0,1-.047.01m-4.708-5.09a.789.789,0,0,0-.684.337,1.05,1.05,0,0,0,.012.88,3.924,3.924,0,0,0,1.023,1.4,8.854,8.854,0,0,0,4.153,2.2c-.02-.045-.041-.091-.06-.136A10.474,10.474,0,0,0,634.1,385.6a2.046,2.046,0,0,0-.867-.313l-.061,0m4.654,4.58c.022.044.042.087.061.128a5.483,5.483,0,0,0,.447-3.524,1.574,1.574,0,0,0-.413-.843.606.606,0,0,0-.778-.059.933.933,0,0,0-.183.711,10.844,10.844,0,0,0,.866,3.588" transform="translate(-361.838 -220.399)" fill="#444145"/>
            <path id="Path_922389" data-name="Path 922389" d="M568.3,206.572c-.548,6.722-5.236,16.962-9.145,25.642,1.481,13.054-3.069,28.975-7.525,40.515h-6.879c-.232-7.794,1.755-22.8,3.667-33.292.659-3.654,1.318-6.838,1.871-9.126a64.544,64.544,0,0,1,.538-6.936c1.175-10.087,4.025-26.246,5.9-34.476l11.573.394Z" transform="translate(-311.794 -108.124)" fill="#6585b8"/>
            <path id="Path_922390" data-name="Path 922390" d="M628.149,272.1H620.51c-3.556-9.776-7.118-23.757-9.839-33.38-.757-2.66-1.448-5.037-2.075-6.982-.794-2.479-1.717-5.078-2.66-7.678-2.488-6.833-5.134-13.643-6.095-18.118V188.667l12.821-.863c2.581,10.4,5.552,34.527,5.863,42.047,5.473,11.74,9.859,32.293,9.623,42.25" transform="translate(-343.341 -107.496)" fill="#6585b8"/>
            <path id="Path_922391" data-name="Path 922391" d="M622.131,282.592a8.162,8.162,0,0,1-3.3,4.661c-.757-2.66-1.448-5.036-2.075-6.982-.794-2.479-1.717-5.078-2.66-7.678a8.012,8.012,0,0,1,8.035,10" transform="translate(-351.5 -156.026)" fill="#84a1cf"/>
            <path id="Path_922392" data-name="Path 922392" d="M559.786,280.127a8.927,8.927,0,0,1-6.439,5.459c.659-3.653,1.318-6.838,1.871-9.126a64.516,64.516,0,0,1,.538-6.935,6.307,6.307,0,0,1,2.549,1.889,8.916,8.916,0,0,1,1.481,8.713" transform="translate(-316.728 -154.272)" fill="#84a1cf"/>
            <path id="Path_922393" data-name="Path 922393" d="M596.376,209.21a.116.116,0,0,1-.113-.089,153.8,153.8,0,0,1-2.907-16.1.116.116,0,0,1,.231-.029,153.659,153.659,0,0,0,2.9,16.072.116.116,0,0,1-.086.139.094.094,0,0,1-.026,0" transform="translate(-339.628 -110.409)" fill="#46679c"/>
            <path id="Path_922394" data-name="Path 922394" d="M594.022,204.882l-.021,0a16.514,16.514,0,0,1-5.462-2.062.116.116,0,0,1-.053-.072A55.255,55.255,0,0,1,587,192.8a.116.116,0,0,1,.109-.122.105.105,0,0,1,.122.109,55.09,55.09,0,0,0,1.468,9.858,16.3,16.3,0,0,0,5.344,2.009.116.116,0,0,1-.021.23" transform="translate(-335.99 -110.285)" fill="#46679c"/>
            <path id="Path_922395" data-name="Path 922395" d="M625.718,199.628a.115.115,0,0,1-.049-.011,9.115,9.115,0,0,1-5.148-7.764.117.117,0,0,1,.111-.12.125.125,0,0,1,.121.112,8.878,8.878,0,0,0,5.013,7.561.116.116,0,0,1-.048.221" transform="translate(-355.177 -109.745)" fill="#46679c"/>
            <path id="Path_922396" data-name="Path 922396" d="M569.473,199.7a.116.116,0,0,1-.07-.209,10.209,10.209,0,0,0,3.987-7.47.1.1,0,0,1,.122-.109.116.116,0,0,1,.109.122,10.441,10.441,0,0,1-4.078,7.641.116.116,0,0,1-.07.024" transform="translate(-325.891 -109.847)" fill="#46679c"/>
            <path id="Path_922397" data-name="Path 922397" d="M562.488,286.569l-.02,0-4.618-.786a.116.116,0,0,1-.094-.134.114.114,0,0,1,.134-.095l4.618.786a.116.116,0,0,1-.02.23" transform="translate(-319.25 -163.445)" fill="#46679c"/>
            <path id="Path_922398" data-name="Path 922398" d="M559.783,295.209a.123.123,0,0,1-.037-.006.116.116,0,0,1-.074-.147,153.527,153.527,0,0,0,7.288-36.567q-.359-.429-.717-.86t-.7-.835a.115.115,0,0,1-.026-.085.117.117,0,0,1,.042-.079c.2-.166.407-.358.6-.543.171-.162.347-.328.526-.479-.2-.233-.4-.473-.6-.712-.219-.266-.439-.533-.667-.791a.114.114,0,0,1-.027-.1.115.115,0,0,1,.063-.082c.3-.142.586-.3.865-.458s.547-.3.836-.444a115.578,115.578,0,0,0,8.073-22.5.119.119,0,0,1,.14-.086.117.117,0,0,1,.086.141,115.854,115.854,0,0,1-8.108,22.585.118.118,0,0,1-.054.054c-.3.142-.584.3-.861.455-.239.133-.486.27-.74.4.194.224.383.454.572.683.22.268.441.536.67.795a.116.116,0,0,1-.014.167c-.2.166-.408.359-.605.545-.172.162-.347.328-.526.479q.312.373.621.746.373.449.747.9a.113.113,0,0,1,.027.083,153.791,153.791,0,0,1-7.3,36.669.117.117,0,0,1-.11.08" transform="translate(-320.345 -131.896)" fill="#46679c"/>
            <path id="Path_922399" data-name="Path 922399" d="M644.573,283.331a.116.116,0,0,1-.115-.1,227.933,227.933,0,0,0-8.489-38.3c-.24-.073-.486-.142-.732-.21-.268-.075-.536-.15-.8-.229a.116.116,0,0,1-.073-.156,6.034,6.034,0,0,0,.239-.733c.061-.216.123-.438.21-.662-.177-.094-.356-.192-.535-.29-.214-.117-.428-.234-.639-.345a.117.117,0,0,1-.046-.162l1.364-2.326c-.763-4.943-1.5-9.946-2.221-14.784s-1.462-9.867-2.228-14.824a.116.116,0,0,1,.1-.132.118.118,0,0,1,.132.1c.765,4.956,1.509,9.973,2.228,14.825s1.462,9.867,2.228,14.824a.12.12,0,0,1-.015.077l-1.323,2.257c.177.094.356.192.535.29.21.114.419.229.625.337a.116.116,0,0,1,.053.148,6,6,0,0,0-.239.732c-.059.21-.119.425-.2.641.22.066.445.128.67.192.268.075.535.15.8.229a.118.118,0,0,1,.077.076,228.076,228.076,0,0,1,8.516,38.4.115.115,0,0,1-.1.131h-.016" transform="translate(-360.895 -120.244)" fill="#46679c"/>
            <path id="Path_922400" data-name="Path 922400" d="M620.285,289.419a.116.116,0,0,1-.013-.231,16.535,16.535,0,0,0,4.93-1.364.115.115,0,0,1,.154.057.117.117,0,0,1-.057.154,16.786,16.786,0,0,1-5,1.383h-.013" transform="translate(-354.976 -164.74)" fill="#46679c"/>
            <path id="Path_922401" data-name="Path 922401" d="M624.086,275.4a.119.119,0,0,1-.046-.009.116.116,0,0,1-.06-.153l1.185-2.751a.116.116,0,1,1,.213.092l-1.185,2.751a.117.117,0,0,1-.106.07" transform="translate(-357.151 -155.928)" fill="#46679c"/>
            <path id="Path_922402" data-name="Path 922402" d="M626.953,277.117a.114.114,0,0,1-.081-.033.116.116,0,0,1,0-.164l1.488-1.507a.117.117,0,0,1,.164,0,.116.116,0,0,1,0,.164l-1.488,1.507a.116.116,0,0,1-.083.035" transform="translate(-358.792 -157.623)" fill="#46679c"/>
            <path id="Path_922403" data-name="Path 922403" d="M630.814,300.079a.116.116,0,0,1-.076-.028l-2.1-1.815a.116.116,0,0,1,.152-.175l2.1,1.815a.116.116,0,0,1-.076.2" transform="translate(-359.798 -170.589)" fill="#46679c"/>
            <path id="Path_922404" data-name="Path 922404" d="M562.843,301.912a.117.117,0,0,1-.105-.066,13.151,13.151,0,0,0-1.4-2.3.116.116,0,0,1,.186-.14,13.456,13.456,0,0,1,1.42,2.338.116.116,0,0,1-.056.155.12.12,0,0,1-.049.011" transform="translate(-321.29 -171.351)" fill="#46679c"/>
            <path id="Path_922405" data-name="Path 922405" d="M566.073,298.9a.116.116,0,0,1-.048-.011l-1.529-.7a.116.116,0,1,1,.1-.211l1.529.7a.116.116,0,0,1-.048.222" transform="translate(-323.07 -170.55)" fill="#46679c"/>
            <path id="Path_922406" data-name="Path 922406" d="M564.266,274.309a.116.116,0,0,1-.078-.2l1.848-1.689a.116.116,0,1,1,.156.171l-1.847,1.689a.117.117,0,0,1-.078.03" transform="translate(-322.911 -155.911)" fill="#46679c"/>
            <path id="Path_922407" data-name="Path 922407" d="M607.777,89.975a13.745,13.745,0,0,1,4.853-9.431,6.782,6.782,0,0,1,1.413,2.659,7.587,7.587,0,0,1,2.6-2.1c.169.771.409,1.537.578,2.308a12.576,12.576,0,0,1,4.17.683,24.775,24.775,0,0,1-9.787,5.637,14.625,14.625,0,0,1,8.746,6.028,14.436,14.436,0,0,1,2.283,10.3,11.164,11.164,0,0,1,6.97,7.119,9.744,9.744,0,0,1-2.356,9.587,12.492,12.492,0,0,1-7.455,3.127c-3.843.416-8-.4-10.824-3.034a16.044,16.044,0,0,1-4.112-7.7c-2.262-8.3-6.636-19.657,2.925-25.189" transform="translate(-344.498 -46.102)" fill="#edc472"/>
            <path id="Path_922408" data-name="Path 922408" d="M616.772,102.557a6.29,6.29,0,0,1-1.524-.186.116.116,0,1,1,.056-.225,6.128,6.128,0,0,0,3.95-.344.116.116,0,0,1,.095.212,6.356,6.356,0,0,1-2.576.544" transform="translate(-352.108 -58.264)" fill="#d1a64f"/>
            <path id="Path_922409" data-name="Path 922409" d="M618.077,106.128a.115.115,0,0,1-.08-.032,2.7,2.7,0,0,0-2.4-.678.116.116,0,1,1-.048-.227,2.923,2.923,0,0,1,2.6.737.116.116,0,0,1-.08.2" transform="translate(-352.281 -60.174)" fill="#d1a64f"/>
            <path id="Path_922410" data-name="Path 922410" d="M629.812,137.967c-.413,0-.827-.017-1.24-.051a.116.116,0,1,1,.018-.231,14.808,14.808,0,0,0,11.265-3.826,5.284,5.284,0,0,0,1.536-3.311,8.8,8.8,0,0,0-.5-3.7,13.3,13.3,0,0,0-5.747-7.2.116.116,0,0,1-.058-.106,15.945,15.945,0,0,0-10.08-15.658.116.116,0,1,1,.085-.216,16.178,16.178,0,0,1,10.231,15.815,13.545,13.545,0,0,1,5.788,7.289,9.009,9.009,0,0,1,.508,3.8,5.516,5.516,0,0,1-1.607,3.456,14.957,14.957,0,0,1-10.2,3.94" transform="translate(-357.703 -59.336)" fill="#d1a64f"/>
            <path id="Path_922411" data-name="Path 922411" d="M617.207,92.308a.117.117,0,0,1-.072-.026,7.873,7.873,0,0,1-2.95-6.587,2.155,2.155,0,0,1,.2-.872.957.957,0,0,1,.754-.543c.481-.03.891.372,1.164,1.132a24,24,0,0,1,.919,5.474,8,8,0,0,1,2.155-4.265,1.812,1.812,0,0,1,.688-.39.828.828,0,0,1,.806.194c.192.2.339.6-.051,1.359a18.5,18.5,0,0,1-3.527,4.49.114.114,0,0,1-.076.034h-.006m-2.021-7.8h-.036a.732.732,0,0,0-.563.418,1.947,1.947,0,0,0-.171.779,7.647,7.647,0,0,0,2.653,6.22l0-.053a28.788,28.788,0,0,0-.983-6.385c-.133-.37-.425-.981-.9-.981m5.114,1.922a.743.743,0,0,0-.182.023,1.611,1.611,0,0,0-.6.345,8.1,8.1,0,0,0-2.2,5.107,17.689,17.689,0,0,0,3.285-4.231c.181-.351.343-.826.089-1.093a.549.549,0,0,0-.4-.151" transform="translate(-351.542 -48.24)" fill="#d1a64f"/>
            <path id="Path_922412" data-name="Path 922412" d="M657.565,176.4a.114.114,0,0,1-.051-.012l-2.221-1.089a.116.116,0,1,1,.1-.208l2.221,1.089a.116.116,0,0,1-.051.22" transform="translate(-375.043 -100.212)" fill="#d1a64f"/>
            <path id="Path_922413" data-name="Path 922413" d="M660.008,160.395a.116.116,0,0,1-.051-.221l2.2-1.07a.116.116,0,1,1,.1.209l-2.2,1.07a.12.12,0,0,1-.051.012" transform="translate(-377.713 -91.062)" fill="#d1a64f"/>
            <path id="Path_922414" data-name="Path 922414" d="M661.4,164.673a.116.116,0,0,1-.017-.231l1.246-.191a.115.115,0,0,1,.133.1.117.117,0,0,1-.1.132l-1.246.192H661.4" transform="translate(-378.511 -94.014)" fill="#d1a64f"/>
            <path id="Path_922415" data-name="Path 922415" d="M641.045,116.6a.116.116,0,0,1-.078-.2l1.119-1.022a.116.116,0,1,1,.156.171l-1.119,1.022a.115.115,0,0,1-.078.03" transform="translate(-366.859 -66.023)" fill="#d1a64f"/>
            <path id="Path_922416" data-name="Path 922416" d="M644.314,124.576a.116.116,0,0,1-.052-.22l1.069-.538a.116.116,0,0,1,.1.208l-1.069.537a.114.114,0,0,1-.052.012" transform="translate(-368.729 -70.865)" fill="#d1a64f"/>
            <path id="Path_922417" data-name="Path 922417" d="M627.889,105.212a.116.116,0,0,1-.1-.173l.535-.951a.116.116,0,1,1,.2.114l-.535.951a.115.115,0,0,1-.1.059" transform="translate(-359.328 -59.544)" fill="#d1a64f"/>
            <path id="Path_922418" data-name="Path 922418" d="M647.8,181.992a.116.116,0,0,1-.106-.068l-.7-1.552a.116.116,0,1,1,.211-.1l.7,1.552a.116.116,0,0,1-.058.154.117.117,0,0,1-.047.01" transform="translate(-370.325 -103.148)" fill="#d1a64f"/>
            <path id="Path_922419" data-name="Path 922419" d="M596.523,140.681a75.693,75.693,0,0,1-25.675.357,220.557,220.557,0,0,1,.436-34.226l8.2-2.544a5.614,5.614,0,0,0,4.011,1.532,9.972,9.972,0,0,0,4.526-1.495l8.5,2.507c0,11.178,0,22.691,0,33.868" transform="translate(-326.476 -59.682)" fill="#fff"/>
            <path id="Path_922420" data-name="Path 922420" d="M570.149,135.083h-.005a.116.116,0,0,1-.111-.121l.528-12.534a.117.117,0,0,1,.121-.111.116.116,0,0,1,.111.121l-.528,12.534a.117.117,0,0,1-.116.111" transform="translate(-326.278 -70.013)" fill="#c6c3c7"/>
            <path id="Path_922421" data-name="Path 922421" d="M594.239,107.756a10.015,10.015,0,0,1-5.535-1.687.116.116,0,1,1,.129-.192,9.784,9.784,0,0,0,5.406,1.648h.048a9.782,9.782,0,0,0,5.437-1.7.116.116,0,0,1,.131.191,10.016,10.016,0,0,1-5.567,1.745Z" transform="translate(-336.936 -60.559)" fill="#c6c3c7"/>
            <path id="Path_922422" data-name="Path 922422" d="M599.2,157.038a.109.109,0,0,1-.039-.007,25.867,25.867,0,0,1-15.635-15.9.116.116,0,0,1,.22-.074,25.631,25.631,0,0,0,15.492,15.757.116.116,0,0,1-.038.225" transform="translate(-333.996 -80.693)" fill="#c6c3c7"/>
            <path id="Path_922423" data-name="Path 922423" d="M595.536,178.012a15.421,15.421,0,0,1-9-2.921.116.116,0,0,1,.137-.188,15.161,15.161,0,0,0,9.986,2.833.113.113,0,0,1,.125.106.116.116,0,0,1-.107.125q-.569.045-1.14.044" transform="translate(-335.697 -100.099)" fill="#c6c3c7"/>
            <path id="Path_922424" data-name="Path 922424" d="M613.793,133.621a18.46,18.46,0,0,1-7.465-1.26,12.907,12.907,0,0,1-5.879-4.677c-2.339-3.523-2.476-8.185-1.16-12.2a29.852,29.852,0,0,1,6.787-10.6,4.351,4.351,0,0,1,2.384.639,37.541,37.541,0,0,0-5.292,7.928,12.815,12.815,0,0,0-.844,9.357,11.866,11.866,0,0,0,4.636,5.757,22.618,22.618,0,0,0,6.873,2.963c.012.667-.052,1.435-.04,2.1" transform="translate(-342.547 -60.029)" fill="#edc472"/>
            <path id="Path_922425" data-name="Path 922425" d="M599.031,128.356a1.148,1.148,0,0,0-.521.882c-.415-.384-.85-.8-1.265-1.186-.019-.36-.106-.746-.124-1.107a1.13,1.13,0,0,0-.738.371,1.026,1.026,0,0,0-.283.733.731.731,0,0,0-.687.258.682.682,0,0,0-.123.7.548.548,0,0,0-.492.205.9.9,0,0,0-.186.517,2.621,2.621,0,0,0,.014.546.639.639,0,0,0-.434.669,1.615,1.615,0,0,0,.33.791,8.062,8.062,0,0,0,3.441,2.839l2.242-2.939a7.971,7.971,0,0,0,.138-3.311,5.175,5.175,0,0,0-1.214-2.269c-.093-.118-.225-.245-.37-.206-.165.045-.2.262-.192.433a6.083,6.083,0,0,0,.462,2.076" transform="translate(-340.107 -72.029)" fill="#ed7b5f"/>
            <path id="Path_922426" data-name="Path 922426" d="M595.664,134.341l-.022,0a.117.117,0,0,1-.092-.136,5.675,5.675,0,0,1,1.715-3.064.116.116,0,0,1,.157.171,5.44,5.44,0,0,0-1.643,2.939.117.117,0,0,1-.114.094" transform="translate(-340.883 -75.044)" fill="#444145"/>
            <path id="Path_922427" data-name="Path 922427" d="M617.825,157.232c-3.4-.724-11.874-11.837-14.813-14.905l2.242-2.939c4.753,3.728,9.47,7.26,9.47,7.26l-1.193-3.314,7.177-2.906a101.482,101.482,0,0,1,2.758,12.649c.2,2.209-2.242,4.883-5.64,4.155" transform="translate(-345.155 -79.784)" fill="#ed7b5f"/>
            <path id="Path_922428" data-name="Path 922428" d="M632.523,160.252h-.015a.116.116,0,0,1-.1-.131,3.489,3.489,0,0,0-2.289-3.751.116.116,0,1,1,.078-.219,3.721,3.721,0,0,1,2.441,4,.115.115,0,0,1-.115.1" transform="translate(-360.627 -89.374)" fill="#444145"/>
            <path id="Path_922429" data-name="Path 922429" d="M625.541,110.219c5.148,3.772,6.836,12.975,6.836,12.975l-9.524,3.858a47.805,47.805,0,0,1-1.768-13.222Z" transform="translate(-355.495 -63.088)" fill="#fff"/>
            <path id="Path_922430" data-name="Path 922430" d="M623.058,138.9a.115.115,0,0,1-.051-.012.117.117,0,0,1-.061-.073,50.251,50.251,0,0,1-1.511-7.973.116.116,0,1,1,.23-.025,50.018,50.018,0,0,0,1.47,7.81l9.4-3.809a.116.116,0,0,1,.087.215l-9.524,3.858a.12.12,0,0,1-.044.009" transform="translate(-355.7 -74.816)" fill="#c6c3c7"/>
            <path id="Path_922431" data-name="Path 922431" d="M594.162,60.156a9.242,9.242,0,0,0,.959-4.794,3.993,3.993,0,0,0-.609-2.031,1.9,1.9,0,0,0-1.843-.848,2.112,2.112,0,0,0-.019-1.892,2.9,2.9,0,0,0-1.362-1.352,4.765,4.765,0,0,0-1.89-.452,7.147,7.147,0,0,0-5.14,1.855,2.9,2.9,0,0,0-1.107,2.119c-.349-.114-.628.1-.861.385a2.526,2.526,0,0,0,.6,3.74Z" transform="translate(-332.966 -27.92)" fill="#444145"/>
            <path id="Path_922432" data-name="Path 922432" d="M591.669,92.8a5.618,5.618,0,0,0,4.009,1.53,9.98,9.98,0,0,0,4.528-1.495c-.58-2.316-1.621-6.388-1.333-8.607l-3.092.645L592.532,88.8c0,.116,0,.232-.009.353a7.377,7.377,0,0,1-.144,1.193c-.112.636-.45,1.6-.71,2.454" transform="translate(-338.663 -48.209)" fill="#ed7b5f"/>
            <path id="Path_922433" data-name="Path 922433" d="M593.33,91.635a6.284,6.284,0,0,0,3.4-1.569,6.358,6.358,0,0,0,1.964-3.584,14.633,14.633,0,0,1-1.676,2.136,5.96,5.96,0,0,1-3,1.755,3.489,3.489,0,0,1-.543.07,7.427,7.427,0,0,1-.144,1.193" transform="translate(-339.613 -49.501)" fill="#444145"/>
            <path id="Path_922434" data-name="Path 922434" d="M584.161,67.138c.009.534.033,1.063.065,1.592.014.219.028.432.047.65a5.579,5.579,0,0,0,1.216,3.574,3.634,3.634,0,0,0,3.268.882,5.966,5.966,0,0,0,3-1.755,17.73,17.73,0,0,0,2.121-2.813l.682-.288v-4.22l-.255-4.893L589.1,57.593l-4.651,1.327a75.893,75.893,0,0,0-.286,8.217" transform="translate(-334.353 -32.965)" fill="#ed7b5f"/>
            <path id="Path_922435" data-name="Path 922435" d="M604.921,76.734a2.192,2.192,0,1,0,2.192-2.192,2.192,2.192,0,0,0-2.192,2.192" transform="translate(-346.248 -42.667)" fill="#ed7b5f"/>
            <path id="Path_922436" data-name="Path 922436" d="M607.032,79.679a.116.116,0,0,0,.116-.111,2.06,2.06,0,0,1,.145-.669,2.085,2.085,0,0,1,2.148-1.3.116.116,0,0,0,.024-.231,2.31,2.31,0,0,0-2.549,2.188.115.115,0,0,0,.11.121h.005" transform="translate(-347.39 -44.278)" fill="#444145"/>
            <path id="Path_922437" data-name="Path 922437" d="M610.306,79.516a.118.118,0,0,0,.068-.022.116.116,0,0,0,.026-.162,2.309,2.309,0,0,0-1.362-.9.115.115,0,0,0-.139.087.117.117,0,0,0,.088.139,2.037,2.037,0,0,1,.31.1,2.07,2.07,0,0,1,.914.71.115.115,0,0,0,.094.048" transform="translate(-348.523 -44.893)" fill="#444145"/>
            <path id="Path_922438" data-name="Path 922438" d="M591.706,78.338a.116.116,0,0,0,.034-.227,2.229,2.229,0,0,1-.575-.242.788.788,0,0,1-.348-.441,1.28,1.28,0,0,1,.145-.784l.954-2.335a.116.116,0,0,0-.215-.089l-.954,2.336a1.507,1.507,0,0,0-.155.931,1.019,1.019,0,0,0,.445.576,2.469,2.469,0,0,0,.634.27.137.137,0,0,0,.034,0" transform="translate(-338.031 -42.442)" fill="#444145"/>
            <path id="Path_922439" data-name="Path 922439" d="M596.022,73.08a2.141,2.141,0,0,0,1.653.766A2.07,2.07,0,0,0,599.267,73a1.8,1.8,0,0,0-1.026-.937,1.653,1.653,0,0,0-1.207.014,1.805,1.805,0,0,0-1.012,1" transform="translate(-341.154 -41.187)" fill="#fff"/>
            <path id="Path_922440" data-name="Path 922440" d="M595.851,73.1a.117.117,0,0,0,.109-.077,1.632,1.632,0,0,1,3.058-.032.116.116,0,1,0,.216-.083,1.864,1.864,0,0,0-3.493.036.116.116,0,0,0,.109.156" transform="translate(-340.99 -41.048)" fill="#444145"/>
            <path id="Path_922441" data-name="Path 922441" d="M598.02,72.541a.768.768,0,1,0,1.536,0,.752.752,0,0,0-.172-.478,1.653,1.653,0,0,0-1.207.014.756.756,0,0,0-.158.464" transform="translate(-342.298 -41.187)" fill="#444145"/>
            <path id="Path_922442" data-name="Path 922442" d="M584.081,73.08a2.141,2.141,0,0,0,1.653.766A2.07,2.07,0,0,0,587.326,73a1.8,1.8,0,0,0-1.026-.937,1.653,1.653,0,0,0-1.207.014,1.806,1.806,0,0,0-1.012,1" transform="translate(-334.319 -41.187)" fill="#fff"/>
            <path id="Path_922443" data-name="Path 922443" d="M583.91,73.1a.116.116,0,0,0,.109-.077,1.631,1.631,0,0,1,3.058-.032.116.116,0,1,0,.217-.083,1.864,1.864,0,0,0-3.493.036.116.116,0,0,0,.07.149.114.114,0,0,0,.039.007" transform="translate(-334.155 -41.048)" fill="#444145"/>
            <path id="Path_922444" data-name="Path 922444" d="M586.079,72.541a.768.768,0,1,0,1.536,0,.754.754,0,0,0-.171-.478,1.655,1.655,0,0,0-1.207.014.757.757,0,0,0-.158.464" transform="translate(-335.463 -41.187)" fill="#444145"/>
            <path id="Path_922445" data-name="Path 922445" d="M599.944,68.671a14.562,14.562,0,0,0-3.177-1.568,1.157,1.157,0,0,1,.456-.886,6.269,6.269,0,0,1,2.9,2.169c.044.061-.123.242-.184.286" transform="translate(-341.581 -37.901)" fill="#444145"/>
            <path id="Path_922446" data-name="Path 922446" d="M583.048,67.365a14.571,14.571,0,0,1,3.2-1.517,1.156,1.156,0,0,0-.442-.893,6.269,6.269,0,0,0-2.939,2.121c-.046.06.119.243.179.289" transform="translate(-333.621 -37.179)" fill="#444145"/>
            <path id="Path_922447" data-name="Path 922447" d="M587.735,87.452a.116.116,0,0,1-.027-.229l4.834-1.118a.114.114,0,0,1,.139.087.116.116,0,0,1-.087.139l-4.834,1.119-.026,0" transform="translate(-336.345 -49.283)" fill="#444145"/>
            <path id="Path_922448" data-name="Path 922448" d="M595.292,63.964a.394.394,0,0,0-.074,0,2.176,2.176,0,0,0-1.272.408,13.049,13.049,0,0,0-2.228-5.57,6.712,6.712,0,0,1-6.3.056,4.515,4.515,0,0,0-1.279,2.039l.234-3.2,5.51-1.639,5.046,2.3Z" transform="translate(-334.352 -32.082)" fill="#444145"/>
            <path id="Path_922449" data-name="Path 922449" d="M120.526,199.245h-9.391a2.321,2.321,0,0,1-2.321-2.321v-8.873a7.017,7.017,0,1,1,14.033,0v8.873a2.321,2.321,0,0,1-2.321,2.321" transform="translate(-62.284 -103.622)" fill="#84a1cf"/>
            <path id="Path_922450" data-name="Path 922450" d="M157.716,179.365c-7.22-1.022-22.27-2.206-32.494,0v18.21h32.494Z" transform="translate(-71.675 -101.951)" fill="#84a1cf"/>
            <path id="Path_922451" data-name="Path 922451" d="M196.514,199.245h-9.391a2.321,2.321,0,0,1-2.321-2.321v-8.873a7.017,7.017,0,0,1,14.033,0v8.873a2.321,2.321,0,0,1-2.321,2.321" transform="translate(-105.778 -103.622)" fill="#6585b8"/>
            <path id="Path_922452" data-name="Path 922452" d="M163.729,388.472l.437-4.556h-4.629l.463,4.468v1.429h3.8Z" transform="translate(-91.317 -219.748)" fill="#ed7b5f"/>
            <path id="Path_922453" data-name="Path 922453" d="M170.609,404.125H153.947a.464.464,0,0,1-.464-.464v-.428a.464.464,0,0,1,.464-.464h16.662a.464.464,0,0,1,.464.464v.428a.464.464,0,0,1-.464.464" transform="translate(-87.851 -230.538)" fill="#444145"/>
            <path id="Path_922454" data-name="Path 922454" d="M155.354,397.222v-2.99a1.154,1.154,0,0,1,1.154-1.153h.115a1.154,1.154,0,0,1,.983.549l.083.136a2.12,2.12,0,0,0,1.806,1.01h.127a1.914,1.914,0,0,0,1.712-1.058,1.153,1.153,0,0,1,1.032-.638,1.179,1.179,0,0,1,.93.475c2.379,3.094,8.194.219,8.194,3.668Z" transform="translate(-88.922 -224.993)" fill="#fff"/>
            <path id="Path_922455" data-name="Path 922455" d="M158.235,400.174a.116.116,0,0,1-.113-.088,2.1,2.1,0,0,0-2.826-1.435.116.116,0,0,1-.087-.215,2.332,2.332,0,0,1,3.138,1.594.116.116,0,0,1-.084.141.13.13,0,0,1-.028,0" transform="translate(-88.798 -227.963)" fill="#444145"/>
            <path id="Path_922456" data-name="Path 922456" d="M176.972,390.376a.122.122,0,0,1-.044-.009l-.011-.006h0a.112.112,0,0,1-.047-.047,5.736,5.736,0,0,1-.578-3.9,1.782,1.782,0,0,1,.486-.966.835.835,0,0,1,1.09-.055,1.126,1.126,0,0,1,.257.887,9.792,9.792,0,0,1-.389,2.26,8.967,8.967,0,0,1,2.9-3.145,2.25,2.25,0,0,1,.969-.344,1.04,1.04,0,0,1,.957.446,1.245,1.245,0,0,1,.005,1.084,4.151,4.151,0,0,1-1.08,1.481A9.08,9.08,0,0,1,177,390.374l-.023,0m.264-.412c-.02.046-.04.091-.06.135a8.851,8.851,0,0,0,4.152-2.2,3.921,3.921,0,0,0,1.024-1.4,1.051,1.051,0,0,0,.012-.88.8.8,0,0,0-.745-.335,2.051,2.051,0,0,0-.868.314,10.474,10.474,0,0,0-3.516,4.362m.154-4.513a.714.714,0,0,0-.458.175,1.578,1.578,0,0,0-.414.843,5.485,5.485,0,0,0,.447,3.524l.06-.127a10.861,10.861,0,0,0,.867-3.589.933.933,0,0,0-.183-.711.456.456,0,0,0-.319-.117" transform="translate(-100.837 -220.4)" fill="#444145"/>
            <path id="Path_922457" data-name="Path 922457" d="M93.787,388.334l1.327-4.659H90.485l-.426,4.571v1.429h3.8Z" transform="translate(-51.548 -219.61)" fill="#ed7b5f"/>
            <path id="Path_922458" data-name="Path 922458" d="M100.048,404.125H83.386a.464.464,0,0,1-.464-.464v-.428a.464.464,0,0,1,.464-.464h16.662a.464.464,0,0,1,.464.464v.428a.464.464,0,0,1-.464.464" transform="translate(-47.463 -230.538)" fill="#444145"/>
            <path id="Path_922459" data-name="Path 922459" d="M84.792,397.222v-2.99a1.154,1.154,0,0,1,1.154-1.153h.115a1.154,1.154,0,0,1,.983.549l.084.136a2.118,2.118,0,0,0,1.806,1.01h.127a1.914,1.914,0,0,0,1.712-1.058,1.153,1.153,0,0,1,1.032-.638,1.179,1.179,0,0,1,.93.475c2.379,3.094,8.194.219,8.194,3.668Z" transform="translate(-48.534 -224.993)" fill="#fff"/>
            <path id="Path_922460" data-name="Path 922460" d="M87.674,400.174a.116.116,0,0,1-.112-.088,2.1,2.1,0,0,0-2.826-1.435.116.116,0,0,1-.087-.215,2.332,2.332,0,0,1,3.138,1.594.116.116,0,0,1-.084.141.131.131,0,0,1-.028,0" transform="translate(-48.41 -227.963)" fill="#444145"/>
            <path id="Path_922461" data-name="Path 922461" d="M106.41,390.376a.122.122,0,0,1-.044-.009l-.011-.006h0a.112.112,0,0,1-.047-.047,5.736,5.736,0,0,1-.578-3.9,1.786,1.786,0,0,1,.485-.966.835.835,0,0,1,1.09-.055,1.126,1.126,0,0,1,.257.887,9.792,9.792,0,0,1-.389,2.26,8.963,8.963,0,0,1,2.9-3.145,2.25,2.25,0,0,1,.969-.344,1.043,1.043,0,0,1,.957.446,1.245,1.245,0,0,1,.005,1.084,4.148,4.148,0,0,1-1.08,1.481,9.077,9.077,0,0,1-4.493,2.306l-.023,0m.264-.412c-.02.046-.04.091-.06.135a8.85,8.85,0,0,0,4.152-2.2,3.921,3.921,0,0,0,1.024-1.4,1.051,1.051,0,0,0,.012-.88.8.8,0,0,0-.744-.335,2.051,2.051,0,0,0-.868.314,10.472,10.472,0,0,0-3.516,4.362m.154-4.513a.714.714,0,0,0-.458.175,1.578,1.578,0,0,0-.413.843,5.485,5.485,0,0,0,.447,3.524l.06-.127a10.862,10.862,0,0,0,.867-3.589.933.933,0,0,0-.183-.711.456.456,0,0,0-.319-.117" transform="translate(-60.448 -220.4)" fill="#444145"/>
            <path id="Path_922462" data-name="Path 922462" d="M155.668,228.248c-.009,1.811-.107,4.317-.26,7.214-.706,13.387-2.6,35.1-2.6,35.1h-8.6c-.7-7.72-.4-30.916.5-41.816-1.736-6.494-3.974-15.5-5.608-22.161-1.281-5.241-2.191-9.038-2.191-9.038v-13.7h14.372c1.249,7.594,3.194,23.656,4.006,35.33.246,3.547.39,6.689.376,9.066" transform="translate(-78.368 -105.234)" fill="#785252"/>
            <path id="Path_922463" data-name="Path 922463" d="M113.329,181.445v9.9s-1.755,6.146-3.807,13.638c-1.406,5.143-2.952,10.918-4.164,15.764-.673,2.688-1.244,5.087-1.629,6.94-.469,2.242-1.026,4.809-1.657,7.608-2.177,9.721-5.19,22.236-8.142,33.664h-8.7s3-31.719,7-44.016c.2-10.9,4.1-34.8,6.5-43.9Z" transform="translate(-48.785 -103.625)" fill="#785252"/>
            <path id="Path_922464" data-name="Path 922464" d="M174.172,275.54c-.009,1.811-.107,4.317-.26,7.214-1.555-.242-3.119-.515-4.67-.678.395-2.149.353-4.206,1.161-6.573a48.587,48.587,0,0,1-.343-7.924q1.873-.55,3.737-1.1c.246,3.547.39,6.689.376,9.066" transform="translate(-96.872 -152.526)" fill="#916b6b"/>
            <path id="Path_922465" data-name="Path 922465" d="M121.676,273.212c-.673,2.688-1.244,5.088-1.629,6.94-.469,2.242-1.026,4.809-1.657,7.608-1.541-.376-3.129-.771-4.651-1.146,1-4.623,2.177-9.284,3.18-13.907a33.412,33.412,0,0,1,4.758.506" transform="translate(-65.102 -156.093)" fill="#916b6b"/>
            <path id="Path_922466" data-name="Path 922466" d="M142.122,208.653a.106.106,0,0,1-.032,0,.116.116,0,0,1-.08-.143l6.09-21.4a.115.115,0,0,1,.143-.079.116.116,0,0,1,.08.143l-6.09,21.4a.116.116,0,0,1-.111.084" transform="translate(-81.282 -107.05)" fill="#5c3434"/>
            <path id="Path_922467" data-name="Path 922467" d="M167.093,192.938a.117.117,0,0,1-.077-.029,10.046,10.046,0,0,1-3.319-6.265.116.116,0,0,1,.1-.129.119.119,0,0,1,.13.1,9.81,9.81,0,0,0,3.241,6.119.116.116,0,0,1,.011.164.114.114,0,0,1-.087.04" transform="translate(-93.698 -106.758)" fill="#5c3434"/>
            <path id="Path_922468" data-name="Path 922468" d="M113.5,195.121a.116.116,0,0,1-.043-.224,10.588,10.588,0,0,0,6.282-7.546.116.116,0,0,1,.227.046,10.824,10.824,0,0,1-6.423,7.715.11.11,0,0,1-.043.009" transform="translate(-64.902 -107.184)" fill="#5c3434"/>
            <path id="Path_922469" data-name="Path 922469" d="M89.417,282.063h-.011a.116.116,0,0,1-.105-.126c1.17-12.892,2.958-26.092,5.317-39.233a.116.116,0,0,1,.071-.087l2.328-.924c-.252-.283-.491-.573-.724-.856-.264-.321-.537-.653-.825-.969a.114.114,0,0,1-.027-.1.116.116,0,0,1,.071-.082c.364-.143.782-.289,1.184-.429.34-.119.691-.241,1.009-.362a7.423,7.423,0,0,1-1.756-2.833.124.124,0,0,1-.006-.041c.314-7.892,2.387-20.8,4.929-30.695a.116.116,0,0,1,.224.058c-2.536,9.871-4.6,22.744-4.92,30.624A7.182,7.182,0,0,0,98,238.848a.116.116,0,0,1-.038.192c-.365.143-.782.288-1.185.429-.344.12-.7.244-1.019.366.251.281.489.571.72.852.265.322.538.655.827.972a.116.116,0,0,1-.042.186l-2.424.962c-2.351,13.114-4.135,26.285-5.3,39.15a.116.116,0,0,1-.115.106" transform="translate(-51.115 -117.472)" fill="#5c3434"/>
            <path id="Path_922470" data-name="Path 922470" d="M94.662,380.855h-.009l-8-.623a.116.116,0,0,1,.018-.231l8,.623a.116.116,0,0,1-.009.232" transform="translate(-49.541 -217.506)" fill="#5c3434"/>
            <path id="Path_922471" data-name="Path 922471" d="M162.293,380h-.009l-8.365-.583a.116.116,0,0,1-.107-.124.112.112,0,0,1,.124-.108l8.365.583a.116.116,0,0,1-.008.232" transform="translate(-88.039 -217.04)" fill="#5c3434"/>
            <path id="Path_922472" data-name="Path 922472" d="M150.845,297.441a.116.116,0,0,1-.115-.108,274.85,274.85,0,0,1,.024-37.728.116.116,0,0,1,.034-.074c.279-.276.575-.593.861-.9.255-.273.518-.555.771-.809-.273-.2-.549-.387-.825-.578-.318-.22-.636-.44-.95-.668a.116.116,0,0,1-.007-.183c.319-.271.638-.535.957-.8.274-.227.548-.453.821-.684a8.04,8.04,0,0,1-2.348-1.825.126.126,0,0,1-.026-.051c-1.216-5.3-3.2-13.871-4.772-20.575a.116.116,0,1,1,.226-.053c1.573,6.693,3.549,15.244,4.766,20.548a7.806,7.806,0,0,0,2.413,1.827.116.116,0,0,1,.025.193c-.319.271-.638.535-.958.8-.281.232-.562.464-.842.7.273.2.549.387.826.579.315.218.629.436.939.661a.115.115,0,0,1,.048.085.117.117,0,0,1-.034.092c-.279.275-.575.592-.861.9s-.564.6-.837.875a274.682,274.682,0,0,0-.021,37.652.116.116,0,0,1-.107.124h-.009" transform="translate(-83.149 -132.974)" fill="#5c3434"/>
            <path id="Path_922473" data-name="Path 922473" d="M170.208,287.425a.116.116,0,0,1,0-.232l4.752-.105a.116.116,0,1,1,.005.232l-4.752.105Z" transform="translate(-97.358 -164.325)" fill="#5c3434"/>
            <path id="Path_922474" data-name="Path 922474" d="M122.406,288.892a22.935,22.935,0,0,1-5.149-.587.116.116,0,0,1-.087-.139.115.115,0,0,1,.139-.087,22.7,22.7,0,0,0,5.1.581h.017a.116.116,0,0,1,.116.116.122.122,0,0,1-.133.116" transform="translate(-67.064 -164.89)" fill="#5c3434"/>
            <path id="Path_922475" data-name="Path 922475" d="M135.936,121.947c.891,5.4,1.778,10.858,2.669,16.256a78.3,78.3,0,0,1-24.589-.515,44.91,44.91,0,0,1,2.534-13.462,57.671,57.671,0,0,1-2.562-17.816l7.979-2.172a9.977,9.977,0,0,0,4.526,1.495,5.622,5.622,0,0,0,4.011-1.527l7.037,1.527.492,4.8a20.266,20.266,0,0,1,1.736,3.774,6.971,6.971,0,0,1,.107,4.164,5.286,5.286,0,0,1-3.941,3.482" transform="translate(-65.241 -59.645)" fill="#fff"/>
            <path id="Path_922476" data-name="Path 922476" d="M172.2,127.365a.119.119,0,0,1-.056-.014.116.116,0,0,1-.046-.157,2.078,2.078,0,0,0,.176-1.283,6.353,6.353,0,0,0-.4-1.306c-.411-1.075-.789-2.169-1.155-3.227-.154-.443-.307-.888-.464-1.334a.116.116,0,0,1,.219-.077c.157.447.311.892.465,1.336.365,1.056.743,2.148,1.152,3.22a6.551,6.551,0,0,1,.408,1.355,2.3,2.3,0,0,1-.2,1.428.115.115,0,0,1-.1.061" transform="translate(-97.453 -68.623)" fill="#c6c3c7"/>
            <path id="Path_922477" data-name="Path 922477" d="M89.586,128.075c1.686-7.41,6.688-14.364,12.66-19.063.39.481.267,1.307.657,1.788a41.859,41.859,0,0,0-10.849,17.374c-.809-.062-1.659-.037-2.468-.1" transform="translate(-51.278 -62.397)" fill="#edc472"/>
            <path id="Path_922478" data-name="Path 922478" d="M81.813,148.828l23.654,3.766-1.759,11.049a11.976,11.976,0,0,1-23.654-3.766Z" transform="translate(-45.735 -85.187)" fill="#edc472"/>
            <path id="Path_922479" data-name="Path 922479" d="M121.34,128.117a53.817,53.817,0,0,0-.284-21.694,2.106,2.106,0,0,1,2.3-.7,46,46,0,0,1,1.353,22.334,7.645,7.645,0,0,1-3.372.062" transform="translate(-69.291 -60.454)" fill="#edc472"/>
            <path id="Path_922480" data-name="Path 922480" d="M98.763,138.447l-2.582,10.207a4.422,4.422,0,0,0,.11,2.536l.172.5a4.422,4.422,0,0,0,6.458,2.337c3.124-1.884,10.373-6.382,12.087-8.539l1.005-3.205c-2.961.788-10.323,1.494-11.682,2.445l1.214-3.553Z" transform="translate(-54.975 -79.245)" fill="#ed7b5f"/>
            <path id="Path_922481" data-name="Path 922481" d="M105.43,155.3a.116.116,0,0,1-.082-.2,8.725,8.725,0,0,1,4.324-2.322.116.116,0,0,1,.047.227,8.493,8.493,0,0,0-4.208,2.259.115.115,0,0,1-.082.034" transform="translate(-60.28 -87.449)" fill="#444145"/>
            <path id="Path_922482" data-name="Path 922482" d="M141.4,145.559l-1,3.205a6.891,6.891,0,0,0,3.418-.526,1.99,1.99,0,0,0,1.4.905,3.88,3.88,0,0,0,.239,1.545.93.93,0,0,0,.185.318.373.373,0,0,0,.335.117.378.378,0,0,0,.249-.23,1.057,1.057,0,0,0,.065-.345,13.161,13.161,0,0,0,0-1.873.518.518,0,0,0,.389.173,1.981,1.981,0,0,0,.591,1.6.389.389,0,0,0,.376.143c.143-.052.185-.232.2-.384a5.606,5.606,0,0,0-.129-1.811.58.58,0,0,0,.44.169,1.949,1.949,0,0,0,.6,1.059.34.34,0,0,0,.308.114c.145-.047.171-.239.163-.392a4.615,4.615,0,0,0-1.4-3.051c.293.048.607.074.9.123a1.872,1.872,0,0,0,1.243.533.388.388,0,0,0,.372-.16c.08-.167-.078-.345-.221-.463a8.328,8.328,0,0,0-3.624-2.079,5.543,5.543,0,0,0-2.658.246,9.9,9.9,0,0,0-2.426,1.064" transform="translate(-80.358 -82.526)" fill="#ed7b5f"/>
            <path id="Path_922483" data-name="Path 922483" d="M139.811,152.044a.116.116,0,0,1-.1-.05,1.928,1.928,0,0,1,.057-2.266.116.116,0,0,1,.184.141,1.7,1.7,0,0,0-.05,1.994.116.116,0,0,1-.1.182" transform="translate(-79.776 -85.676)" fill="#444145"/>
            <path id="Path_922484" data-name="Path 922484" d="M152.284,152.512a.116.116,0,0,1-.106-.069,4.114,4.114,0,0,0-1.328-1.647.116.116,0,0,1,.137-.187,4.352,4.352,0,0,1,1.4,1.74.117.117,0,0,1-.059.154.122.122,0,0,1-.047.01" transform="translate(-86.317 -86.193)" fill="#444145"/>
            <path id="Path_922485" data-name="Path 922485" d="M155.331,151.046a.117.117,0,0,1-.113-.088l-.273-1.106-1.294-1.329a.116.116,0,1,1,.166-.162l1.316,1.352a.122.122,0,0,1,.03.053l.281,1.136a.117.117,0,0,1-.085.14.107.107,0,0,1-.028,0" transform="translate(-87.929 -84.9)" fill="#444145"/>
            <path id="Path_922486" data-name="Path 922486" d="M156.565,148.246a.118.118,0,0,1-.077-.029l-.756-.666a.116.116,0,0,1,.154-.174l.756.667a.116.116,0,0,1-.077.2" transform="translate(-89.116 -84.34)" fill="#444145"/>
            <path id="Path_922487" data-name="Path 922487" d="M104.888,108.3,98.08,121.223l9.671,3.52,1.431-6.5L107.9,107.5Z" transform="translate(-56.14 -61.533)" fill="#fff"/>
            <path id="Path_922488" data-name="Path 922488" d="M107.6,141.086a.107.107,0,0,1-.04-.007l-9.671-3.52a.116.116,0,0,1,.08-.218l9.547,3.475,1.073-4.872a.116.116,0,1,1,.227.05l-1.1,5a.116.116,0,0,1-.057.077.114.114,0,0,1-.056.015" transform="translate(-55.984 -77.76)" fill="#c6c3c7"/>
            <path id="Path_922489" data-name="Path 922489" d="M232,91.689a10.977,10.977,0,0,1,1.81-4.173,8.748,8.748,0,0,1,3.912,1.92,9.478,9.478,0,0,1-2.68,3.833A10.062,10.062,0,0,1,232,91.689" transform="translate(-132.795 -50.093)" fill="#ed7b5f"/>
            <path id="Path_922490" data-name="Path 922490" d="M236.235,83.217l3.912,1.92a3.052,3.052,0,0,0,1.522-1.613,3.163,3.163,0,0,0,1.155-.6.8.8,0,0,0,.191-.2.32.32,0,0,0,.041-.266.332.332,0,0,0-.253-.2.986.986,0,0,0-.334.008,1.325,1.325,0,0,0,.693-.718.385.385,0,0,0,0-.371.4.4,0,0,0-.324-.116,1.844,1.844,0,0,0-.807.179.359.359,0,0,0,.165-.343.415.415,0,0,0-.193-.363.764.764,0,0,0-.467-.068,5.262,5.262,0,0,0-1.146.222c.147-.092.3-.221.288-.395a.323.323,0,0,0-.237-.263.846.846,0,0,0-.372-.008,5.083,5.083,0,0,0-2.406,1.022,5.03,5.03,0,0,0-1.423,2.173" transform="translate(-135.217 -45.793)" fill="#ed7b5f"/>
            <path id="Path_922491" data-name="Path 922491" d="M231.732,90.171a7.147,7.147,0,0,1-.056-3.074.94.94,0,0,1,.233-.473,8.717,8.717,0,0,1,2.785-1.661,1.175,1.175,0,0,1,.479-.1.421.421,0,0,1,.381.25,3.625,3.625,0,0,1-1.859,2.128,1.951,1.951,0,0,1,.776,1.6,2,2,0,0,1-.9,1.563,1.676,1.676,0,0,1-1.84-.236" transform="translate(-132.525 -48.574)" fill="#ed7b5f"/>
            <path id="Path_922492" data-name="Path 922492" d="M236.15,90.366a.116.116,0,0,1-.063-.213,1.88,1.88,0,0,0,.845-1.471,1.833,1.833,0,0,0-.731-1.5.115.115,0,0,1-.044-.1.117.117,0,0,1,.065-.092,3.529,3.529,0,0,0,1.784-2.017.328.328,0,0,0-.264-.141,1.09,1.09,0,0,0-.431.091,8.591,8.591,0,0,0-.8.339.116.116,0,1,1-.1-.209c.268-.13.545-.247.821-.349a1.228,1.228,0,0,1,.527-.1.531.531,0,0,1,.481.325.112.112,0,0,1,0,.076,3.768,3.768,0,0,1-1.761,2.117,2.041,2.041,0,0,1,.684,1.582,2.115,2.115,0,0,1-.952,1.655.115.115,0,0,1-.062.018" transform="translate(-135.102 -48.418)" fill="#444145"/>
            <path id="Path_922493" data-name="Path 922493" d="M240.852,83.1a.116.116,0,0,1-.059-.216,1.887,1.887,0,0,0,.868-1.2.116.116,0,0,1,.089-.09,4.785,4.785,0,0,0,1.28-.479.116.116,0,0,1,.112.2,5.042,5.042,0,0,1-1.27.485,2.1,2.1,0,0,1-.96,1.277.115.115,0,0,1-.059.016" transform="translate(-137.794 -46.424)" fill="#444145"/>
            <path id="Path_922494" data-name="Path 922494" d="M241.592,85.425a.116.116,0,0,1-.057-.217A3.125,3.125,0,0,0,243,83.33a.117.117,0,0,1,.106-.085,3.194,3.194,0,0,0,1.979-.846.116.116,0,0,1,.159.169,3.429,3.429,0,0,1-2.043.9,3.361,3.361,0,0,1-1.548,1.939.114.114,0,0,1-.057.015" transform="translate(-138.217 -47.146)" fill="#444145"/>
            <path id="Path_922495" data-name="Path 922495" d="M243.8,87.461a.116.116,0,0,1-.051-.22,2.7,2.7,0,0,0,1.408-1.8.114.114,0,0,1,.117-.091,2.26,2.26,0,0,0,1.615-.626.116.116,0,0,1,.161.167,2.475,2.475,0,0,1-1.688.693,2.938,2.938,0,0,1-1.51,1.864.117.117,0,0,1-.051.012" transform="translate(-139.483 -48.477)" fill="#444145"/>
            <path id="Path_922496" data-name="Path 922496" d="M241.527,89.825a.114.114,0,0,1-.082-.034,5.455,5.455,0,0,0-2.266-1.355.117.117,0,0,1-.077-.145.115.115,0,0,1,.145-.077,5.686,5.686,0,0,1,2.363,1.413.116.116,0,0,1-.082.2" transform="translate(-136.855 -50.489)" fill="#444145"/>
            <path id="Path_922497" data-name="Path 922497" d="M208.028,98.854l-3.042-1.58c-3.368,3.409-9.931,8.765-10.711,11.923l-6.989-3.122-2.483,8.017,7.5,2.462a5.86,5.86,0,0,0,6.884-2.606Z" transform="translate(-105.779 -55.678)" fill="#ed7b5f"/>
            <path id="Path_922498" data-name="Path 922498" d="M207.012,128.168a.116.116,0,0,1-.11-.08,7.61,7.61,0,0,1-.264-3.641.118.118,0,0,1,.134-.095.116.116,0,0,1,.095.134,7.374,7.374,0,0,0,.256,3.53.115.115,0,0,1-.074.146.106.106,0,0,1-.036.006" transform="translate(-118.214 -71.176)" fill="#444145"/>
            <path id="Path_922499" data-name="Path 922499" d="M167.587,107.78l11.112,3.775-3.869,10.1-6.035-2.244-2.321-7.892Z" transform="translate(-95.287 -61.692)" fill="#fff"/>
            <path id="Path_922500" data-name="Path 922500" d="M169.665,136.814c-1.156-.079-2.354-.148-3.579-.2a61.313,61.313,0,0,0-4.442-31.19,4.39,4.39,0,0,1,2.646.46,50.408,50.408,0,0,1,5.376,30.935" transform="translate(-92.523 -60.318)" fill="#6585b8"/>
            <path id="Path_922501" data-name="Path 922501" d="M139.736,69.816a3.067,3.067,0,0,0,.06-3.373,3.169,3.169,0,0,1-.737-1.335c-.079-.894.987-1.618.833-2.5-.1-.581-.705-.97-.824-1.548a2.94,2.94,0,0,1,.219-1.287,3.288,3.288,0,0,0-1.041-3.345,11.475,11.475,0,0,0,1.394-3.065,3.873,3.873,0,0,0-.533-3.226,4.585,4.585,0,0,0-2.819-1.483A10.889,10.889,0,0,0,123.337,60.4a2.64,2.64,0,0,0-1.048,2.931,4.007,4.007,0,0,1,.415,1.82,4.075,4.075,0,0,1-.864,1.329,2.678,2.678,0,0,0,.582,3.668c.015-.51.714-.946,1.213-1.053a3.7,3.7,0,0,1,1.516.111,3.089,3.089,0,0,0,1.514.049c.65-.2,1.146-.793,1.819-.882,1.082-.143,1.945,1.076,3.036,1.069a3.222,3.222,0,0,0,1.489-.57,2.134,2.134,0,0,1,1.528-.369c.45.116.8.494,1.249.6.592.144,1.184-.2,1.788-.279a2.334,2.334,0,0,1,2.163.989" transform="translate(-69.464 -27.735)" fill="#444145"/>
            <path id="Path_922502" data-name="Path 922502" d="M141.2,92.728a5.618,5.618,0,0,1-4.009,1.53,9.978,9.978,0,0,1-4.528-1.495c.58-2.316,1.621-6.388,1.333-8.607l3.092.645,3.249,3.927c0,.116,0,.232.009.353a7.377,7.377,0,0,0,.144,1.193c.112.636.45,1.6.71,2.454" transform="translate(-75.932 -48.17)" fill="#ed7b5f"/>
            <path id="Path_922503" data-name="Path 922503" d="M143.78,91.567a6.284,6.284,0,0,1-3.4-1.569,6.358,6.358,0,0,1-1.964-3.584,14.629,14.629,0,0,0,1.676,2.136,5.959,5.959,0,0,0,3,1.755,3.485,3.485,0,0,0,.543.07,7.377,7.377,0,0,0,.144,1.193" transform="translate(-79.226 -49.462)" fill="#444145"/>
            <path id="Path_922504" data-name="Path 922504" d="M146.18,66.636c-.009.534-.033,1.063-.065,1.593-.014.218-.028.431-.046.65a5.583,5.583,0,0,1-1.217,3.574,3.634,3.634,0,0,1-3.268.882,5.969,5.969,0,0,1-3-1.755,17.727,17.727,0,0,1-2.121-2.813l-.682-.287V64.26l.255-4.893,4.769-2.6,5.025.706c.218,3.049.432,6.109.353,9.163" transform="translate(-77.717 -32.493)" fill="#ed7b5f"/>
            <path id="Path_922505" data-name="Path 922505" d="M133.5,76.666a2.192,2.192,0,1,1-2.192-2.192,2.192,2.192,0,0,1,2.192,2.192" transform="translate(-73.907 -42.628)" fill="#ed7b5f"/>
            <path id="Path_922506" data-name="Path 922506" d="M133.711,79.611a.116.116,0,0,1-.116-.111,2.079,2.079,0,0,0-2.293-1.968.116.116,0,0,1-.024-.231,2.31,2.31,0,0,1,2.549,2.188.116.116,0,0,1-.11.121h-.006" transform="translate(-75.082 -44.239)" fill="#444145"/>
            <path id="Path_922507" data-name="Path 922507" d="M131.947,79.448a.118.118,0,0,1-.068-.022.116.116,0,0,1-.026-.162,2.308,2.308,0,0,1,1.362-.9.116.116,0,0,1,.051.226,2.081,2.081,0,0,0-1.225.806.116.116,0,0,1-.094.048" transform="translate(-75.458 -44.855)" fill="#444145"/>
            <path id="Path_922508" data-name="Path 922508" d="M150.765,78.27a.116.116,0,0,1-.034-.227,2.228,2.228,0,0,0,.575-.242.788.788,0,0,0,.348-.441,1.279,1.279,0,0,0-.145-.784l-.954-2.336a.116.116,0,0,1,.215-.088l.954,2.336a1.508,1.508,0,0,1,.155.931,1.019,1.019,0,0,1-.445.576,2.469,2.469,0,0,1-.634.27.12.12,0,0,1-.034.005" transform="translate(-86.17 -42.403)" fill="#444145"/>
            <path id="Path_922509" data-name="Path 922509" d="M143.928,73.012a2.141,2.141,0,0,1-1.653.766,2.07,2.07,0,0,1-1.592-.845A1.8,1.8,0,0,1,141.709,72a1.653,1.653,0,0,1,1.207.014,1.8,1.8,0,0,1,1.012,1" transform="translate(-80.525 -41.148)" fill="#fff"/>
            <path id="Path_922510" data-name="Path 922510" d="M143.748,73.029a.117.117,0,0,1-.11-.077,1.632,1.632,0,0,0-3.058-.032.115.115,0,0,1-.15.067.117.117,0,0,1-.066-.15,1.864,1.864,0,0,1,3.493.036.116.116,0,0,1-.069.149.119.119,0,0,1-.039.007" transform="translate(-80.338 -41.009)" fill="#444145"/>
            <path id="Path_922511" data-name="Path 922511" d="M144.217,72.473a.768.768,0,1,1-1.536,0,.754.754,0,0,1,.171-.478,1.655,1.655,0,0,1,1.207.014.758.758,0,0,1,.158.464" transform="translate(-81.669 -41.148)" fill="#444145"/>
            <path id="Path_922512" data-name="Path 922512" d="M155.869,73.012a2.141,2.141,0,0,1-1.653.766,2.07,2.07,0,0,1-1.592-.845A1.8,1.8,0,0,1,153.65,72a1.653,1.653,0,0,1,1.207.014,1.805,1.805,0,0,1,1.012,1" transform="translate(-87.36 -41.148)" fill="#fff"/>
            <path id="Path_922513" data-name="Path 922513" d="M155.689,73.029a.117.117,0,0,1-.109-.077,1.632,1.632,0,0,0-3.058-.032.115.115,0,0,1-.15.067.116.116,0,0,1-.067-.15,1.864,1.864,0,0,1,3.493.036.116.116,0,0,1-.109.156" transform="translate(-87.173 -41.009)" fill="#444145"/>
            <path id="Path_922514" data-name="Path 922514" d="M156.158,72.473a.768.768,0,1,1-1.536,0,.752.752,0,0,1,.172-.478,1.653,1.653,0,0,1,1.207.014.758.758,0,0,1,.158.464" transform="translate(-88.503 -41.148)" fill="#444145"/>
            <path id="Path_922515" data-name="Path 922515" d="M139.841,68.6a14.562,14.562,0,0,1,3.177-1.568,1.158,1.158,0,0,0-.456-.886,6.269,6.269,0,0,0-2.9,2.169c-.044.061.123.242.184.286" transform="translate(-79.933 -37.862)" fill="#444145"/>
            <path id="Path_922516" data-name="Path 922516" d="M156.709,67.3a14.572,14.572,0,0,0-3.2-1.517,1.156,1.156,0,0,1,.442-.893,6.269,6.269,0,0,1,2.939,2.121c.046.06-.119.243-.179.289" transform="translate(-87.865 -37.14)" fill="#444145"/>
            <path id="Path_922517" data-name="Path 922517" d="M147.282,88.251h-.008a.116.116,0,0,1-.108-.124,1.168,1.168,0,0,0-.851-1.113,2.118,2.118,0,0,0-1.528.182.116.116,0,1,1-.1-.21,2.348,2.348,0,0,1,1.7-.194,1.405,1.405,0,0,1,1.012,1.35.116.116,0,0,1-.115.108" transform="translate(-82.779 -49.632)" fill="#444145"/>
            <path id="Path_922518" data-name="Path 922518" d="M145,59.615a4.587,4.587,0,0,0-1.815-2,4.638,4.638,0,0,0-2.623-.631,4.721,4.721,0,0,1-2.725,2.92,3.775,3.775,0,0,0-1.653.836,2.173,2.173,0,0,0-.408,1.3,8.04,8.04,0,0,1-.093,1.383,1.709,1.709,0,0,1-.255.613,2.191,2.191,0,0,0-1.486-.58c-.074,0-.153,0-.223.009a27.791,27.791,0,0,1,.525-5.227,43.662,43.662,0,0,1,5.134-3.013c1.926.241,3.82.548,5.728.937A10.4,10.4,0,0,1,145,59.615" transform="translate(-76.539 -31.609)" fill="#444145"/>
          </g>
        </g>
      </g>
    </g>
  </g>
</svg>
