<svg xmlns="http://www.w3.org/2000/svg" xmlns:xlink="http://www.w3.org/1999/xlink" width="70" height="70" viewBox="0 0 70 70">
  <defs>
    <clipPath id="clip-path">
      <rect id="Rectangle_408892" data-name="Rectangle 408892" width="42.86" height="42.86" fill="#953c2d"/>
    </clipPath>
  </defs>
  <g id="Group_1118718" data-name="Group 1118718" transform="translate(-268.711 -958.261)">
    <circle id="Ellipse_5614" data-name="Ellipse 5614" cx="35" cy="35" r="35" transform="translate(268.711 958.261)" fill="#fff"/>
    <g id="Group_1118964" data-name="Group 1118964" transform="translate(282.711 971.261)">
      <g id="Group_1118963" data-name="Group 1118963" clip-path="url(#clip-path)">
        <path id="Path_922535" data-name="Path 922535" d="M203.15,90.332a4.267,4.267,0,0,0-2.948,0,27.721,27.721,0,0,0-1.074-6.6c-.154-.5-.651-2.2-1.1-2.336-1.959-.581-.434,2.487-.22,3.289a23.663,23.663,0,0,1,.8,4.108c.044.648.12,2.521-.261,2.941-.349.385-3.533,2.32-3.8,2.035a11.77,11.77,0,0,0-3.184-7.813,5.362,5.362,0,0,0-1.545-7.659c-.291-.193-.61-.3-.891-.461-.1-.06-.2.035-.156-.21l2.055-1.518a6.4,6.4,0,0,0,5.372-.02c4.94,2.9,7.078,8.689,6.95,14.243" transform="translate(-165.565 -66.747)" fill="#953c2d"/>
        <path id="Path_922536" data-name="Path 922536" d="M57.95,77.809a5.351,5.351,0,0,0-2.593,8.149,11.762,11.762,0,0,0-3.183,7.813c-.266.284-3.45-1.651-3.8-2.035-.381-.42-.305-2.293-.261-2.941a23.662,23.662,0,0,1,.8-4.108c.192-.723.957-2.371.774-2.983-.115-.385-.672-.4-.994-.306-.452.134-.949,1.835-1.1,2.336a27.479,27.479,0,0,0-1.074,6.6,4.085,4.085,0,0,0-2.825,0c-.243-4.733,1.4-9.8,5.036-12.954a9.738,9.738,0,0,1,1.811-1.269,8.822,8.822,0,0,1,1.361.436,6.275,6.275,0,0,0,4.011-.456,10.414,10.414,0,0,1,1.792,1.288c.132.128.287.215.244.43" transform="translate(-38.306 -66.749)" fill="#953c2d"/>
        <path id="Path_922537" data-name="Path 922537" d="M135.539,175.175c-.224.155-.367-1.02-.4-1.131a12.784,12.784,0,0,0-1.821-3.582.829.829,0,0,0-1.317.26c-.154.534.991,1.938,1.266,2.614a14.72,14.72,0,0,1,.762,2.8c.118.7.493,4.3.228,4.693-.1.147-.581.185-.8.31-.2.116-.338.406-.5.481a43.349,43.349,0,0,1-4.849.061c-.409-.078-.838-.934-1.534-.739a18.829,18.829,0,0,1,1.118-7.773c.44-.994,2.324-2.889.167-2.9-.405.08-1.482,2.138-1.682,2.619-.313.755-.45,1.55-.777,2.293-.105-.405-.938-1.041-1.019-1.314-.472-1.59.916-5.624,1.962-6.952,1.09-1.384.977-.559,2.282-.112a5.563,5.563,0,0,0,5.01-.708c.594,0,1.776,2.25,2,2.793.43,1.057,1.173,3.94.864,4.979-.1.325-.957.8-.96,1.314" transform="translate(-109.014 -145.698)" fill="#953c2d"/>
        <path id="Path_922538" data-name="Path 922538" d="M217.857,178.705v-2.271a9,9,0,0,1,.632-2.07c1.12-2.451,2.77-2.426,4.813-3.663.84-.508,2.692-2.214,3.394-2.378a1.924,1.924,0,0,1,1.727.376c-1.335,1.8-3.1,3.2-4.576,4.882-.339.789.456,1.352,1.2.826A31.28,31.28,0,0,0,230,169.044c.938-1.617,1.468-3.57,2.351-5.231.777-.624,1.817-.145,1.553.9-1.429,2.6-2.328,6.3-4.246,8.53-1.627,1.892-3.8,3.58-5.472,5.46Z" transform="translate(-191.085 -143.457)" fill="#953c2d"/>
        <path id="Path_922539" data-name="Path 922539" d="M16.08,178.663H9.752c-1.676-1.88-3.845-3.568-5.472-5.46-1.9-2.213-2.789-5.86-4.214-8.436-.367-1.17.879-1.789,1.616-.755a36.117,36.117,0,0,1,1.759,4.014,11.4,11.4,0,0,0,1.338,2.224,40.666,40.666,0,0,0,4.113,4.116c.761.535,1.507-.125,1.2-.827-1.469-1.682-3.248-3.076-4.573-4.883,1.788-1.339,3.579,1.076,5.119,2,2.044,1.23,3.7,1.221,4.813,3.663a9,9,0,0,1,.632,2.07Z" transform="translate(0 -143.415)" fill="#953c2d"/>
        <path id="Path_922540" data-name="Path 922540" d="M197.146.044c4.985-.673,6.7,6.524,1.994,8.13-5.9,2.011-7.933-7.328-1.994-8.13" transform="translate(-169.789 0)" fill="#953c2d"/>
        <path id="Path_922541" data-name="Path 922541" d="M91.183.045c4.905-.662,6.674,6.308,2.183,8.074C87.475,10.435,85.086.868,91.183.045" transform="translate(-76.852 -0.001)" fill="#953c2d"/>
        <path id="Path_922542" data-name="Path 922542" d="M83.213,305.24H74.857V299.1h8.356Zm-2.8-2.485c.291.292,1.808.334,2.009-.336.309-1.029-.985-1.166-1.7-.96a.873.873,0,0,0-.3,1.3" transform="translate(-65.658 -262.38)" fill="#953c2d"/>
        <path id="Path_922543" data-name="Path 922543" d="M214.214,305.24h-8.356V299.1h8.356Zm-5.559-2.485a.873.873,0,0,0-.3-1.3c-.72-.206-2.013-.069-1.7.96.2.67,1.718.627,2.009.336" transform="translate(-180.561 -262.38)" fill="#953c2d"/>
        <path id="Path_922544" data-name="Path 922544" d="M146.726,99.893c5.329-.84,6.1,7.032,1.186,7.569-5.02.548-5.818-6.839-1.186-7.569" transform="translate(-126.008 -87.574)" fill="#953c2d"/>
      </g>
    </g>
  </g>
</svg>
