<svg xmlns="http://www.w3.org/2000/svg" xmlns:xlink="http://www.w3.org/1999/xlink" width="70" height="70" viewBox="0 0 70 70">
  <defs>
    <clipPath id="clip-path">
      <rect id="Rectangle_408890" data-name="Rectangle 408890" width="42" height="42" fill="#953c2d"/>
    </clipPath>
  </defs>
  <g id="Group_1118716" data-name="Group 1118716" transform="translate(-268.711 -958.261)">
    <circle id="Ellipse_5614" data-name="Ellipse 5614" cx="35" cy="35" r="35" transform="translate(268.711 958.261)" fill="#fff"/>
    <g id="Group_1118960" data-name="Group 1118960" transform="translate(282.711 972.261)">
      <g id="Group_1118959" data-name="Group 1118959" clip-path="url(#clip-path)">
        <path id="Path_922528" data-name="Path 922528" d="M30.019,13.488c-1.24,0-2.582-.286-3,1.2.228,3.907-.411,8.384-.038,12.225.172,1.779,1.611,1.62,3.036,1.576V40.809c0,.438-.9,1.313-1.439,1.176l-27.275,0C.919,42.094,0,41.194,0,40.947V10.46H9.433a2.761,2.761,0,0,0,1.033-1.032V0H28.986c.258,0,1.033.884,1.033,1.17ZM23.96,21.747v8.189c0,.288-1.364,2.3-1.459,2.955a.771.771,0,0,0,.279.7,11.093,11.093,0,0,0,4.039-.043c.712-.714-1.2-3.007-1.335-3.9l-.08-9c-.365-.694-1.112-.279-1.62-.415a11.485,11.485,0,0,0-.922-.761,70.92,70.92,0,0,0-8.542-4.262,1.8,1.8,0,0,0-1.647,0c-2.878,1-6,3.323-8.911,4.444a1.544,1.544,0,0,0-.088,2.619c2.926,1.2,5.9,3.294,8.81,4.407a1.947,1.947,0,0,0,2.025,0c2.761-1.056,5.576-3.04,8.354-4.175Zm-3.029,3.441c-2.066.545-5.5,3.32-7.5,3.315-1.911-.005-5.463-2.935-7.5-3.315V28.56c0,1.328,2.744,2.115,3.8,2.4a13.454,13.454,0,0,0,7.769-.058c.562-.163,3.443-1.185,3.443-1.789Z" fill="#953c2d"/>
        <path id="Path_922529" data-name="Path 922529" d="M207,83.633V80.605h2.41c.2,0,2.325-2.524,2.834-2.81.852-.479,1.948,0,2.652-.24.142-.048.542-.692.872-.918a3,3,0,1,1-.083,4.853c-.748-.556-.507-1.146-1.866-.882-.722.14-2.662,3.024-3.583,3.024Z" transform="translate(-178.496 -65.603)" fill="#953c2d"/>
        <path id="Path_922530" data-name="Path 922530" d="M207,177.028V174h3.236c.921,0,2.861,2.884,3.583,3.024,1.359.264,1.117-.326,1.866-.882a3,3,0,1,1,.083,4.853c-.33-.225-.73-.869-.872-.918-.7-.24-1.8.239-2.652-.24-.509-.286-2.634-2.81-2.834-2.81Z" transform="translate(-178.496 -150.051)" fill="#953c2d"/>
        <path id="Path_922531" data-name="Path 922531" d="M207,134.961v-2.89h7.78c.119,0,1.1-1.258,1.855-1.449,5.073-1.29,5.073,7.079,0,5.789-.751-.191-1.736-1.449-1.855-1.449Z" transform="translate(-178.496 -112.526)" fill="#953c2d"/>
        <path id="Path_922532" data-name="Path 922532" d="M9.813,9.809H1L9.813,1Z" transform="translate(-0.862 -0.863)" fill="#953c2d"/>
      </g>
    </g>
  </g>
</svg>
