<svg xmlns="http://www.w3.org/2000/svg" xmlns:xlink="http://www.w3.org/1999/xlink" width="150" height="150" viewBox="0 0 150 150">
  <defs>
    <clipPath id="clip-path">
      <rect id="Rectangle_407255" data-name="Rectangle 407255" width="150" height="150" transform="translate(0)" fill="#f69a8b"/>
    </clipPath>
    <clipPath id="clip-path-2">
      <rect id="Rectangle_401492" data-name="Rectangle 401492" width="96.296" height="96.297" transform="translate(0.712 3.137)" fill="#953c2d" stroke="#707070" stroke-width="1"/>
    </clipPath>
    <clipPath id="clip-path-3">
      <rect id="Rectangle_408922" data-name="Rectangle 408922" width="88.711" height="88.692" fill="#953c2d"/>
    </clipPath>
  </defs>
  <g id="Group_1118697" data-name="Group 1118697" transform="translate(-179.328 -3684.533)">
    <g id="Group_1116923" data-name="Group 1116923" transform="translate(179.328 3684.533)" clip-path="url(#clip-path)">
      <path id="Path_893365" data-name="Path 893365" d="M148.169,44.41C139.386,14.569,73.684-19.323,25.142,13.36s-13,149.535-6.586,125.918c6.165-22.7,33.5-4.155,54.014-3.491,22.845.739,37.666-5.15,37.63-5.238,10.531-3.911,17.983-9.053,24.206-18.726C146.839,92.5,153.455,62.367,148.169,44.41" transform="translate(0.001 3.798)" fill="#f69a8b"/>
    </g>
    <g id="Group_1115380" data-name="Group 1115380" transform="translate(222.027 3726.987)">
      <rect id="Rectangle_401104" data-name="Rectangle 401104" width="60.924" height="61.907" transform="translate(2.232 0)" fill="none"/>
      <g id="Mask_Group_1098697" data-name="Mask Group 1098697" transform="translate(-15.7 -15.454)" clip-path="url(#clip-path-2)">
        <g id="Group_1119022" data-name="Group 1119022" transform="translate(-0.288 3.137)">
          <g id="Group_1119021" data-name="Group 1119021" transform="translate(4.289 4.288)" clip-path="url(#clip-path-3)">
            <path id="Path_923368" data-name="Path 923368" d="M30.9,15.567a7.475,7.475,0,0,1,8.139-6.649c-3.8-11.905,14.4-11.875,10.584,0a7.149,7.149,0,0,1,7.213,4.093c3.5-2.015,7.427-1.991,10.286,1.059,5.756-10.674,18.634,1.915,7.467,7.466a7.11,7.11,0,0,1,2.248,7.951c-.318.961-.987,1.539-1.168,2.491a6.766,6.766,0,0,1,4.071,7.057c4.137-1.719,8.975.448,8.975,5.292a5.867,5.867,0,0,1-6.928,5.818c-.667-.095-1.255-.721-2.048-.527a7.148,7.148,0,0,1-4.093,7.215c2.015,3.5,1.991,7.427-1.059,10.286,10.749,5.64-1.843,18.271-7.466,7.467-2.982,3.26-6.813,3.094-10.442,1.08-1.024,2.885-4.364,4.459-7.328,4.071,2.624,5.1-2.063,10.665-7.513,8.46-3.466-1.4-4.35-5.249-2.8-8.46a7.146,7.146,0,0,1-7.171-3.546A20.559,20.559,0,0,1,30.9,73.9V68.068c-1.133.656-2.292,3.055-3.786,1.752-1.945-1.7,2.936-4.6,3.781-5.957a19.086,19.086,0,0,1-5.969-6.1c-.7-.482-5.461,6.647-6.454,3.334-.508-1.695,1.135-2.126,1.847-3.336H15.973c-1.586,2.132-2.445,3.862-.769,6.332a93.619,93.619,0,0,0,9.046,9.133,6.408,6.408,0,0,0,2.018.967c1.2.323,3.071-.221,2.686,1.818-.463,2.46-4.839.639-6.18-.224-.421-.27-1.237-1.485-1.642-1.2-2.284,7.713-13.816,3.737-10.988-3.8.764-2.034,2.059-2.779,3.925-3.667a7.11,7.11,0,0,1-2.247-7.951c.317-.961.987-1.539,1.167-2.491a6.766,6.766,0,0,1-4.071-7.057c-11.88,3.813-11.9-14.39,0-10.584-.43-3.334,1.52-5.666,4.068-7.479-2.544-3.5-1.815-7.423,1.089-10.424a5.545,5.545,0,0,1-4.341-4.75c-.694-7.232,9.591-9.155,11.8-2.313.85-1.715,6.689-4.372,7.146-1.426.3,1.957-2.806,1.567-4.163,2.515A116.028,116.028,0,0,0,15.2,24.565a4.189,4.189,0,0,0,0,4.8A10.738,10.738,0,0,0,16.651,30.9h3.934c-.656-1.133-3.055-2.292-1.752-3.786,1.7-1.945,4.6,2.936,5.957,3.781a19.083,19.083,0,0,1,6.1-5.969c.482-.7-6.647-5.461-3.334-6.454,1.695-.508,2.126,1.135,3.336,1.847.128-1.514-.175-3.269,0-4.748M43.576,3.012c-3.417.694-2.485,6.172.956,5.851C48.5,8.494,48,2.115,43.576,3.012m11.2,20.016V15.567c0-1.178-1.928-3.345-3.182-3.6-2.17-.442-11.32-.315-13.789-.076a3.9,3.9,0,0,0-3.063,1.821,15.2,15.2,0,0,0-.858,1.855v7.461l2.948-1.122c.271-2.191-1.028-6.853,2.677-5.317a2.556,2.556,0,0,1,.345.606v3.934a19.921,19.921,0,0,1,8.954,0V17.195a2.566,2.566,0,0,1,.345-.606c3.706-1.535,2.4,3.126,2.678,5.317ZM14.81,12.774c-3.952.9-1.726,7.818,2.344,5.329a2.936,2.936,0,0,0-2.344-5.329m57.526.005c-4.5.922-1.456,7.836,2.343,5.328a2.965,2.965,0,0,0-2.343-5.328m-4,18.117h3.934a14.378,14.378,0,0,0,1.457-1.8,4.426,4.426,0,0,0-.637-4.99c-.926-1.208-8.684-8.892-9.666-9.326-2.417-1.069-3.721-.085-5.669,1.193v4.341c.79-.673,2.852-2.952,3.819-1.447,1.332,2.074-2.749,4.445-3.814,5.924a26.219,26.219,0,0,1,6.1,6.1c1.371-.7,4.627-5.587,6.13-3.684C71.167,28.7,69,29.847,68.338,30.9M57.757,68.339V72.68c1.907,1.341,3.263,2.307,5.669,1.193.993-.46,9.06-8.407,9.939-9.6a4.351,4.351,0,0,0,.551-4.636c-.358-.734-1.1-1.07-1.237-1.884H68.338c.688,1.155,2.587,1.868,1.764,3.529-1.215,2.451-4.971-2.84-5.977-3.524l-.386,0c-.084,1.186-2.123,1.445-2.545.472-.732-1.684.464-2.152,1.121-3.384C74.3,32.4,45.766,12.933,29.532,29.94S33.67,74,54.777,62.239c.949-.529,4.144-3.491,4.763-1.249.492,1.785-.768,1.832-1.778,2.872.6,1.183,5.939,5.047,3.524,6.24-1.663.822-2.373-1.075-3.529-1.764M23.027,33.881H15.566c-1.178,0-3.345,1.928-3.6,3.183-.442,2.17-.315,11.32-.076,13.789a3.9,3.9,0,0,0,1.821,3.062,15.156,15.156,0,0,0,1.855.858h7.461l-1.122-2.948c-2.191-.271-6.853,1.028-5.317-2.676a2.553,2.553,0,0,1,.606-.345h3.934a19.921,19.921,0,0,1,0-8.954H17.194a2.551,2.551,0,0,1-.606-.345c-1.536-3.7,3.127-2.406,5.317-2.677Zm42.6,20.892h7.461c1.178,0,3.345-1.928,3.6-3.182.442-2.17.315-11.32.076-13.789a3.9,3.9,0,0,0-1.821-3.063,15.178,15.178,0,0,0-1.855-.858H65.625l1.122,2.948c2.191.271,6.853-1.028,5.317,2.677a2.545,2.545,0,0,1-.606.345H67.524a19.918,19.918,0,0,1,0,8.954h3.934a2.547,2.547,0,0,1,.606.345c1.536,3.7-3.127,2.406-5.317,2.676ZM4.779,41.547c-3.029.779-2.288,6.908,2.255,5.507C10,46.14,9.175,40.417,4.779,41.547m77.045-.01c-3.173.731-2.467,6.732,2.048,5.571,2.88-.741,2.471-6.612-2.048-5.571M33.88,65.626v7.461c0,1.178,1.928,3.345,3.182,3.6,2.17.442,11.32.315,13.789.076a3.9,3.9,0,0,0,3.063-1.821,15.119,15.119,0,0,0,.858-1.855V65.626l-2.947,1.123c-.273,2.191,1.028,6.852-2.678,5.316a2.555,2.555,0,0,1-.345-.606V67.525a19.917,19.917,0,0,1-8.954,0v3.934a2.546,2.546,0,0,1-.345.606c-3.7,1.536-2.406-3.127-2.677-5.317Zm-18.52,4.4c-3.717.348-3.4,6.206.474,5.929,4.178-.3,3.106-6.265-.474-5.929m57.52,0c-3.228.3-3.868,5.054-.763,5.795,4.914,1.173,4.859-6.174.763-5.795M44.12,79.791c-3.738.348-3.6,6.207.473,5.93,3.933-.268,3.159-6.268-.473-5.93" transform="translate(0 0)" fill="#953c2d"/>
            <path id="Path_923369" data-name="Path 923369" d="M116.465,140.9c1.249,1.116,2.574,2.935,4.423,2.076,3.17-3.393,7.472-6.7,10.385-10.233a7.628,7.628,0,0,0,1.215-1.77c2.634-6.251-4.421-11.385-9.761-7.319-.807.615-1.99,2.416-2.991,2.416-1.539-.413-2.266-2.057-3.624-2.869a6.223,6.223,0,0,0-8.839,8.3c.826,1.505,4.332,3.966,4.194,5.3a1.613,1.613,0,0,1-1.754,1.241c-1.317-.192-5.414-5.381-5.834-6.944-2.673-9.961,8.972-16.061,15.857-8.806,6.958-7.609,19.113-.448,15.54,9.3-.926,2.527-9.457,11.168-11.874,13.088-2.591,2.057-4.752,2.047-7.332,0-1.157-.918-4.983-4.312-2.305-5.321,1.343-.506,1.964.885,2.7,1.543" transform="translate(-75.41 -86.784)" fill="#953c2d"/>
            <path id="Path_923370" data-name="Path 923370" d="M181.831,143.927c-.209-.215-1.484,1.093-2.57-.008-1.841-1.865,2.808-4.523,5.019-1.763,2.23,2.784-1.378,6.225-2.587,4.214-.444-.739.148-1.662.137-2.443" transform="translate(-130.316 -102.719)" fill="#953c2d"/>
          </g>
        </g>
      </g>
    </g>
  </g>
</svg>
