<svg xmlns="http://www.w3.org/2000/svg" xmlns:xlink="http://www.w3.org/1999/xlink" width="99" height="99" viewBox="0 0 99 99">
  <defs>
    <clipPath id="clip-path">
      <rect id="Rectangle_401223" data-name="Rectangle 401223" width="99" height="99" transform="translate(0)" fill="#8ce6fe"/>
    </clipPath>
    <clipPath id="clip-path-2">
      <rect id="Rectangle_401223-2" data-name="Rectangle 401223" width="88.539" height="88.539" fill="#f3f9ff"/>
    </clipPath>
    <clipPath id="clip-path-3">
      <rect id="Rectangle_408845" data-name="Rectangle 408845" width="65.827" height="61.449" fill="none"/>
    </clipPath>
  </defs>
  <g id="Group_1118709" data-name="Group 1118709" transform="translate(-619.921 -5755.871)">
    <g id="Group_1100724" data-name="Group 1100724" transform="translate(619.921 5755.871)">
      <g id="Group_1099654" data-name="Group 1099654" transform="translate(0 0)">
        <g id="Group_1099652" data-name="Group 1099652" clip-path="url(#clip-path)">
          <path id="Path_873521" data-name="Path 873521" d="M99,77.066A22,22,0,0,1,77.066,99H21.934A22,22,0,0,1,0,77.066V21.933A22,22,0,0,1,21.934,0H77.066A22,22,0,0,1,99,21.934Z" transform="translate(0)" fill="#ffdcd6"/>
        </g>
      </g>
      <g id="Group_1099659" data-name="Group 1099659" transform="translate(4.77 5.723)">
        <g id="Group_1099652-2" data-name="Group 1099652" transform="translate(0 0)" clip-path="url(#clip-path-2)">
          <path id="Path_873521-2" data-name="Path 873521" d="M88.539,68.922A19.674,19.674,0,0,1,68.923,88.539H19.616A19.674,19.674,0,0,1,0,68.922V19.616A19.674,19.674,0,0,1,19.616,0H68.923A19.674,19.674,0,0,1,88.539,19.616Z" fill="#f3f9ff"/>
        </g>
      </g>
    </g>
    <g id="Group_1100725" data-name="Group 1100725" transform="translate(636.343 5771.293)">
      <rect id="Rectangle_401104" data-name="Rectangle 401104" width="68" height="69" fill="none"/>
      <g id="Group_1118926" data-name="Group 1118926" transform="translate(2.173 3.776)">
        <g id="Group_1118925" data-name="Group 1118925" transform="translate(0 0)" clip-path="url(#clip-path-3)">
          <path id="Path_921945" data-name="Path 921945" d="M38.537,57.241c-10.486-8.077-12.224-5.482-21.473-.751C7.045,61.615.858,56.635.088,48.262c-1.576-17.129,18.434-9.288,16.081-27.475C14.436,7.386,19.782,1.562,27.079.274,34.3-1,44.482,1.91,44.122,14.582c-.2,7.01,8.894,9.964,14.819,13.368,8.909,5.119,7.807,18.094,4.3,23.929-5.893,9.806-14.9,12.911-24.7,5.361" transform="translate(0 0)" fill="#ffdcd6"/>
          <path id="Path_921946" data-name="Path 921946" d="M26.726,23.978s3.96-.427,5.281-2.023a2.352,2.352,0,0,0,.3-2.943S28.425,21.9,26.186,21.94s.54,2.038.54,2.038" transform="translate(0.864 0.649)" fill="#ffbe9e"/>
          <path id="Path_921947" data-name="Path 921947" d="M34.729,18.025c1.37,2.758-4.615,5.643-4.615,5.643l-2-2.655s5.277-5.677,6.613-2.989" transform="translate(0.96 0.591)" fill="#fdd95f"/>
          <path id="Path_921948" data-name="Path 921948" d="M26.114,23.669c-1.233-1.1-3.228-5.015-3.228-5.015l1.289.059,3.82,3.933s-.627,2.148-1.881,1.023" transform="translate(0.781 0.637)" fill="#ffbe9e"/>
          <path id="Path_921949" data-name="Path 921949" d="M40.928,37.267l-10.717-7.56.211-1.548,10.189-.774Z" transform="translate(1.032 0.935)" fill="#b3d0ff"/>
          <path id="Path_921950" data-name="Path 921950" d="M31.664,19.148c.69-2.207,4.01-2.321,6.712-1.912,1.821.276,2.993.868,3.194,3.142.129,1.451-.27,7.8-1.158,9.475,0,0-3.1,1.736-10.014-.393a35.779,35.779,0,0,1,1.266-10.311" transform="translate(1.038 0.582)" fill="#feb824"/>
          <path id="Path_921951" data-name="Path 921951" d="M40.833,29.869s-6.577,1.274-10.69-.688l.281-1.048a20.669,20.669,0,0,0,10.3.533Z" transform="translate(1.029 0.961)" fill="#94b8ed"/>
          <path id="Path_921952" data-name="Path 921952" d="M37.339,28.784h-.585l-.139,1.752h.964Z" transform="translate(1.25 0.983)" fill="#b3d0ff"/>
          <path id="Path_921953" data-name="Path 921953" d="M33.4,28.593l-.424-.132-.725,1.606.871.273Z" transform="translate(1.101 0.972)" fill="#b3d0ff"/>
          <path id="Path_921954" data-name="Path 921954" d="M37.951,14.392s-2.782.6-2.627.825-.116.685-.123,1.128a2.519,2.519,0,0,1-.756,1.476c-.3.34.233.746.706.836,2.042.384,3.332-.38,2.9-1.04a3.511,3.511,0,0,1-.1-3.224" transform="translate(1.173 0.492)" fill="#ffbe9e"/>
          <path id="Path_921955" data-name="Path 921955" d="M35.184,16.347c.007-.444.278-.9.123-1.128s2.846-.872,2.846-.872a2.169,2.169,0,0,0-.534,1.167,5.528,5.528,0,0,1-2.776,1.769,2.267,2.267,0,0,0,.34-.936" transform="translate(1.19 0.49)" fill="#ff9c81"/>
          <path id="Path_921956" data-name="Path 921956" d="M35.171,11.3c-1.094.827-2.028,3.684-.883,5.045.63.748,2.918-.047,3.992-1.673a3.511,3.511,0,0,0-.09-2.74,2.247,2.247,0,0,0-3.019-.631" transform="translate(1.153 0.374)" fill="#ffbe9e"/>
          <path id="Path_921957" data-name="Path 921957" d="M33.907,13.589c0,.176.245-1.728,1.315-1.857.435-.052.337.406.842.444.431.032,1.724-.836,1.226,1.733-.023.123.093.269.15.38.071.137-.149.449-.146.6s.448-.306.44-.158c-.013.224-.4.848-.079.934.156.041.346-.209.46-.294a5.688,5.688,0,0,0,.957-.709,2.453,2.453,0,0,0,.546-1.222,2.314,2.314,0,0,0-.112-1.318,1.7,1.7,0,0,0-1-.917,6.424,6.424,0,0,1-.806-.218c-.219-.108-.459-.134-.68-.243a.933.933,0,0,1-.357-.34A1.308,1.308,0,0,0,35.6,9.9a1.086,1.086,0,0,0-.947.66c-.083.214-.113.487-.319.588-.075.037-.163.043-.234.087a.434.434,0,0,0-.146.184,1.794,1.794,0,0,0-.094,1.222,1.543,1.543,0,0,1,.088.492c-.01.154-.043.3-.041.458" transform="translate(1.154 0.338)" fill="#53424d"/>
          <path id="Path_921958" data-name="Path 921958" d="M36.929,14.41s.79-.7,1.226-.5-.177,1.388-1.077,1.223-.393-.54-.15-.728" transform="translate(1.249 0.474)" fill="#ffbe9e"/>
          <path id="Path_921959" data-name="Path 921959" d="M30.558,54.005s-.411.481-.895,1.13-.846,1.329-.169,1.64,1.5-.452,1.764-.9.568-.4.933-.7.174-1.416.174-1.416Z" transform="translate(0.994 1.836)" fill="#e79e30"/>
          <path id="Path_921960" data-name="Path 921960" d="M36.756,33.473c-.989,1.251-4.28,21.4-4.28,21.4-.99.831-2.473,0-2.473,0-1.071-10.276.254-25.54.254-25.54s7.487,5.387,6.5,4.136" transform="translate(1.01 1.002)" fill="#b3d0ff"/>
          <path id="Path_921961" data-name="Path 921961" d="M31.195,29.662c.013.836-.013,3.178-1.209,3.177a.154.154,0,0,0,0,.307c1.463,0,1.533-2.46,1.515-3.484a.153.153,0,0,0-.306,0" transform="translate(1.019 1.008)" fill="#94b8ed"/>
          <path id="Path_921962" data-name="Path 921962" d="M40.105,54.325s.411.481.895,1.13.846,1.329.17,1.64-1.5-.452-1.765-.9-.568-.4-.933-.7-.174-1.416-.174-1.416Z" transform="translate(1.306 1.847)" fill="#e79e30"/>
          <path id="Path_921963" data-name="Path 921963" d="M34.039,33.787c.989,1.251,4.28,21.4,4.28,21.4.99.831,2.473,0,2.473,0,1.071-10.276-.089-25.38-.089-25.38s-7.653,5.227-6.664,3.975" transform="translate(1.159 1.018)" fill="#b3d0ff"/>
          <path id="Path_921964" data-name="Path 921964" d="M39.109,29.982c-.017,1.024.052,3.484,1.515,3.484a.153.153,0,0,0,0-.306c-1.2,0-1.221-2.341-1.208-3.178a.154.154,0,0,0-.307,0" transform="translate(1.335 1.019)" fill="#94b8ed"/>
          <path id="Path_921965" data-name="Path 921965" d="M36.126,14.1c.021-.01-.023.009-.031.012a.423.423,0,0,1-.1.025c-.138.011-.2-.079-.233-.2-.02-.073-.134-.033-.115.039a.36.36,0,0,0,.551.216c.069-.036,0-.132-.07-.1" transform="translate(1.217 0.475)" fill="#201714"/>
          <path id="Path_921966" data-name="Path 921966" d="M34.894,13.647a.421.421,0,0,1-.115.074c-.135.058-.211-.025-.259-.145-.029-.071-.145-.031-.116.039.057.142.16.269.335.241a.5.5,0,0,0,.247-.133c.057-.053-.037-.129-.093-.077" transform="translate(1.175 0.463)" fill="#201714"/>
          <path id="Path_921967" data-name="Path 921967" d="M34.671,13.044a.364.364,0,0,1,.431.251c.033.089.166.028.133-.061a.5.5,0,0,0-.589-.335.073.073,0,0,0,.025.145" transform="translate(1.181 0.44)" fill="#4d2f20"/>
          <path id="Path_921968" data-name="Path 921968" d="M35.808,13.529a.364.364,0,0,1,.483.126c.056.077.169-.02.113-.1a.5.5,0,0,0-.659-.162c-.085.042-.022.176.063.131" transform="translate(1.219 0.456)" fill="#4d2f20"/>
          <path id="Path_921969" data-name="Path 921969" d="M35.339,13.542a.732.732,0,0,1-.026.408c-.077.181-.3.241-.432.383-.184.2-.039.34.211.443.061.025.1-.052.039-.075-.562-.23.148-.453.263-.685a.774.774,0,0,0,.047-.481c-.009-.054-.112-.047-.1.007" transform="translate(1.188 0.461)" fill="#7c4930"/>
          <path id="Path_921970" data-name="Path 921970" d="M34.6,15.112s.232-.45.589-.234a.489.489,0,0,1,.162.628Z" transform="translate(1.182 0.506)" fill="#faffff"/>
          <path id="Path_921971" data-name="Path 921971" d="M36.32,15a.286.286,0,1,1-.139-.38.286.286,0,0,1,.139.38" transform="translate(1.222 0.498)" fill="#ff9c81"/>
          <path id="Path_921972" data-name="Path 921972" d="M34.078,14.053a.289.289,0,1,1-.089.4.289.289,0,0,1,.089-.4" transform="translate(1.159 0.479)" fill="#ff9c81"/>
          <path id="Path_921973" data-name="Path 921973" d="M40.263,27.581s1.78-3.564,1.152-5.537A2.354,2.354,0,0,0,39.1,20.2s.334,4.824-.843,6.73,2.007.647,2.007.647" transform="translate(1.297 0.69)" fill="#ffbe9e"/>
          <path id="Path_921974" data-name="Path 921974" d="M39.582,17.606c3.061.337,2.255,6.933,2.255,6.933l-3.313.246s-1.927-7.508,1.058-7.179" transform="translate(1.295 0.601)" fill="#fdd95f"/>
          <path id="Path_921975" data-name="Path 921975" d="M39.76,27.806c-1.6.44-5.964.006-5.964.006l.747-1.052,5.372-1.09s1.47,1.688-.155,2.136" transform="translate(1.154 0.877)" fill="#ffbe9e"/>
          <path id="Path_921976" data-name="Path 921976" d="M34.777,26.6a1.883,1.883,0,0,1-.231-.376,2.356,2.356,0,0,0-.58-.566c-.12-.092-.265-.426-.453-.375-.307.083.085.573.13.707a.314.314,0,0,1-.079.358.392.392,0,0,1-.25.046,7.779,7.779,0,0,1-.817-.121c-.141-.023-.281-.036-.424-.05a1.452,1.452,0,0,0-.347-.05.146.146,0,0,0-.123.185c.031.078.112.065.179.085.152.043.3.09.454.14.033.01.19.037.2.073.067.177-.356.109-.423.1a.843.843,0,0,0-.5.051.078.078,0,0,0-.046.049c-.006.036.033.063.067.078.2.082.426.088.626.174.032.014.068.036.071.072.011.141-.273.154-.365.166-.059.008-.13.024-.146.081a.1.1,0,0,0,.044.1.31.31,0,0,0,.109.038,2.932,2.932,0,0,0,.339.066c.054,0,.217,0,.228.078a.06.06,0,0,1-.016.04.3.3,0,0,1-.144.067c-.052.016-.107.049-.113.1s.064.113.126.134a2.449,2.449,0,0,0,.716.084c.252.009.506.007.758-.006a8.555,8.555,0,0,0,1-.115,1.313,1.313,0,0,0,.812-.366,1.076,1.076,0,0,0,.135-.221,1.159,1.159,0,0,0,.117-.321.456.456,0,0,0-.062-.329.109.109,0,0,0-.033-.032.113.113,0,0,0-.059-.006,3.21,3.21,0,0,1-.456.025.782.782,0,0,1-.445-.164" transform="translate(1.074 0.863)" fill="#ffbe9e"/>
          <path id="Path_921977" data-name="Path 921977" d="M23.006,18.7s-4.583.064-3.446-.8,4.015-.672,4.734.862-1.289-.06-1.289-.06" transform="translate(0.662 0.594)" fill="#ffbe9e"/>
          <path id="Path_921978" data-name="Path 921978" d="M2.37,24.119c-.415,1.7.69,6.57.69,6.57l1.062-1.141.431-5.331s-1.767-1.8-2.183-.1" transform="translate(0.078 0.799)" fill="#fbb99d"/>
          <path id="Path_921979" data-name="Path 921979" d="M2.285,24.945s.337-4.288,1.968-5.546a2.549,2.549,0,0,1,3.2.123s-3.039,3.808-3.019,6.257-2.147-.834-2.147-.834" transform="translate(0.078 0.645)" fill="#fbb99d"/>
          <path id="Path_921980" data-name="Path 921980" d="M4.525,30.2a1.117,1.117,0,0,1,.309.6c.02.147,0,.3.009.444a3.789,3.789,0,0,0,.231.893.507.507,0,0,1,.031.2.173.173,0,0,1-.295.127.454.454,0,0,1-.119-.172,2.626,2.626,0,0,0-.312-.632.238.238,0,0,0-.22-.1c-.119.029-.144.186-.138.308a1.466,1.466,0,0,0,.143.625.674.674,0,0,0,.5.369c.132.013.292-.014.375.089a.224.224,0,0,1-.052.3.476.476,0,0,1-.321.084,2.114,2.114,0,0,1-.393-.061,2.01,2.01,0,0,1-.756-.272,1.4,1.4,0,0,1-.524-.926,5.64,5.64,0,0,1-.03-1.09,10.551,10.551,0,0,0-.068-1.446.811.811,0,0,1,.072-.582.67.67,0,0,1,.28-.2,1.039,1.039,0,0,1,.391-.1.479.479,0,0,1,.368.144.758.758,0,0,1,.088.622c-.019.124-.1.317,0,.423.119.137.308.222.435.359" transform="translate(0.098 0.979)" fill="#fbb99d"/>
          <path id="Path_921981" data-name="Path 921981" d="M6.506,17.985s-2.49-.2-3.607,2.857c-.96,2.627-.73,2.5-.73,2.5L4.636,24s2.838-4.146,1.87-6.01" transform="translate(0.073 0.614)" fill="#ff4650"/>
          <path id="Path_921982" data-name="Path 921982" d="M4.778,37.432l9.715-7.113L14.3,28.863l-9.237-.727Z" transform="translate(0.163 0.961)" fill="#5969b2"/>
          <path id="Path_921983" data-name="Path 921983" d="M13.956,53.18s.372.452.811,1.064.766,1.25.153,1.543-1.358-.426-1.6-.852-.515-.378-.846-.662-.157-1.332-.157-1.332Z" transform="translate(0.419 1.808)" fill="#feb801"/>
          <path id="Path_921984" data-name="Path 921984" d="M8.456,33.861C9.352,35.038,12.336,54,12.336,54c.9.782,2.241,0,2.241,0,.971-9.669-.231-24.029-.231-24.029s-6.787,5.067-5.89,3.89" transform="translate(0.286 1.024)" fill="#5969b2"/>
          <path id="Path_921985" data-name="Path 921985" d="M12.6,30.237c1.1,7.841,2.083,16.121,1.285,24.028-.018.182-.3.184-.277,0,.794-7.883-.175-16.137-1.276-23.951-.026-.183.242-.26.268-.078" transform="translate(0.421 1.029)" fill="#4b5c9b"/>
          <path id="Path_921986" data-name="Path 921986" d="M5.3,53.481s-.372.452-.811,1.064-.766,1.25-.153,1.543,1.359-.426,1.6-.852.514-.378.845-.662.157-1.332.157-1.332Z" transform="translate(0.137 1.818)" fill="#feb801"/>
          <path id="Path_921987" data-name="Path 921987" d="M10.921,34.191c-.9,1.177-3.88,20.139-3.88,20.139-.9.782-2.241,0-2.241,0-.971-9.669.084-24.908.084-24.908s6.934,5.946,6.037,4.769" transform="translate(0.15 1.005)" fill="#5969b2"/>
          <path id="Path_921988" data-name="Path 921988" d="M6.89,30.616c-1.1,7.813-2.07,16.07-1.276,23.952.019.184-.26.183-.278,0-.8-7.907.182-16.189,1.286-24.028.026-.183.294-.105.268.077" transform="translate(0.172 1.039)" fill="#4b5c9b"/>
          <path id="Path_921989" data-name="Path 921989" d="M18.016,24.106s-4-.842-5.1-2.561a2.3,2.3,0,0,1,.156-2.944s3.53,3.268,5.822,3.544-.874,1.961-.874,1.961" transform="translate(0.425 0.635)" fill="#fbb99d"/>
          <path id="Path_921990" data-name="Path 921990" d="M10.722,17.791s-.389-.026-.1,1.9c.354,2.385,4.35,3.78,4.35,3.78L17.044,21.2s-3.83-3.409-6.322-3.409" transform="translate(0.359 0.608)" fill="#ff4650"/>
          <path id="Path_921991" data-name="Path 921991" d="M13.207,19.528c-.636-2.114-3.7-2.223-6.19-1.831-1.679.264-2.626,1.411-2.629,3.479,0,1.356-.112,7.065.708,8.674,0,0,2.806,2.152,9.278-.445a35.511,35.511,0,0,0-1.168-9.877" transform="translate(0.15 0.598)" fill="#ff4650"/>
          <path id="Path_921992" data-name="Path 921992" d="M17.249,23.836c1.57.6,5.052.162,5.052.162l-.267-1.219-4.6-1.027s-1.758,1.48-.188,2.084" transform="translate(0.567 0.743)" fill="#fbb99d"/>
          <path id="Path_921993" data-name="Path 921993" d="M23.362,22.606c.549-.152,1.08-.367,1.632-.509a1.755,1.755,0,0,1,.474-.069.32.32,0,0,1,.173.042.135.135,0,0,1,.058.156c-.022.055-.091.092-.085.15.009.08.13.074.187.129a.142.142,0,0,1,0,.179.43.43,0,0,1-.154.116l-.447.235a.389.389,0,0,0,.251.117.423.423,0,0,1,.12.012.086.086,0,0,1,.062.091.113.113,0,0,1-.04.056,1.672,1.672,0,0,1-.8.336,8.007,8.007,0,0,0-.858.165.481.481,0,0,0-.324.23.545.545,0,0,0,.107.473l.206.35c.053.089.1.218.017.281a.193.193,0,0,1-.177.006,2.52,2.52,0,0,1-.74-.528,2.974,2.974,0,0,0-1.522-.656.424.424,0,0,1-.134-.03.344.344,0,0,1-.133-.139,1.177,1.177,0,0,1-.16-.744.27.27,0,0,1,.034-.114.265.265,0,0,1,.113-.083,1.917,1.917,0,0,1,.955-.074,4.285,4.285,0,0,0,1.182-.179" transform="translate(0.719 0.752)" fill="#fbb99d"/>
          <path id="Path_921994" data-name="Path 921994" d="M8.307,18.494a92.912,92.912,0,0,0,.8,11.435l.8.052a53.14,53.14,0,0,1-.9-11.486Z" transform="translate(0.284 0.632)" fill="#fdfefd"/>
          <path id="Path_921995" data-name="Path 921995" d="M4.745,29.961s6.066,1.221,9.86-.658l-.259-1a18.4,18.4,0,0,1-9.5.509Z" transform="translate(0.162 0.967)" fill="#4b5c9b"/>
          <path id="Path_921996" data-name="Path 921996" d="M7.672,28.922h.54L8.339,30.6H7.45Z" transform="translate(0.254 0.988)" fill="#5969b2"/>
          <path id="Path_921997" data-name="Path 921997" d="M11.307,28.739l.391-.127.669,1.539-.8.262Z" transform="translate(0.386 0.977)" fill="#5969b2"/>
          <path id="Path_921998" data-name="Path 921998" d="M8.5,19.741a.178.178,0,0,1-.014-.252.182.182,0,0,1,.254-.014.178.178,0,0,1,.014.252.18.18,0,0,1-.254.014" transform="translate(0.288 0.664)" fill="#d94951"/>
          <path id="Path_921999" data-name="Path 921999" d="M8.5,21.366a.178.178,0,0,1-.014-.252A.183.183,0,0,1,8.74,21.1a.179.179,0,1,1-.24.267" transform="translate(0.288 0.719)" fill="#d94951"/>
          <path id="Path_922000" data-name="Path 922000" d="M8.573,22.794a.182.182,0,0,1,.254-.014.179.179,0,0,1,.014.253.181.181,0,0,1-.254.013.178.178,0,0,1-.014-.252" transform="translate(0.291 0.777)" fill="#d94951"/>
          <path id="Path_922001" data-name="Path 922001" d="M9,24.752A.178.178,0,0,1,9.015,25a.182.182,0,0,1-.254.014.178.178,0,0,1-.014-.252A.18.18,0,0,1,9,24.752" transform="translate(0.297 0.844)" fill="#d94951"/>
          <path id="Path_922002" data-name="Path 922002" d="M9.153,27a.183.183,0,0,1,.013.252.168.168,0,0,1-.243.014.183.183,0,0,1-.013-.252A.167.167,0,0,1,9.153,27" transform="translate(0.303 0.921)" fill="#d94951"/>
          <path id="Path_922003" data-name="Path 922003" d="M5.521,21.982H7.368l-.087-.09c.04.6.025,1.8-.672,1.995-.657.182-1.085-.449-1.116-1.046a2.8,2.8,0,0,1,.112-.926.087.087,0,0,0-.168-.049c-.259.876-.122,2.316,1.069,2.219.922-.074,1-1.476.949-2.194a.091.091,0,0,0-.088-.091H5.521a.091.091,0,0,0,0,.181" transform="translate(0.182 0.745)" fill="#ed3748"/>
          <path id="Path_922004" data-name="Path 922004" d="M12.13,21.455l-1.915.217a.092.092,0,0,0-.088.091c-.009.852.262,2.3,1.351,2.163s.978-1.6.736-2.405a.087.087,0,0,0-.168.049,2.884,2.884,0,0,1,.092,1.571.815.815,0,0,1-1.038.579,1.229,1.229,0,0,1-.667-.916c-.08-.292-.068-.592-.128-.882-.01-.05,0-.1,0-.155.03.247-.153.028-.026.08.033.014.125-.013.16-.018l1.694-.192c.111-.012.112-.193,0-.181" transform="translate(0.346 0.733)" fill="#ed3748"/>
          <path id="Path_922005" data-name="Path 922005" d="M7.095,15.266s2.566.573,2.423.79.107.657.113,1.081a2.451,2.451,0,0,0,.7,1.414c.277.326-.215.716-.652.8-1.884.368-3.073-.363-2.674-1a3.478,3.478,0,0,0,.092-3.089" transform="translate(0.236 0.521)" fill="#fbb99d"/>
          <path id="Path_922006" data-name="Path 922006" d="M9.631,17.138c-.006-.425-.256-.864-.114-1.081s-2.625-.835-2.625-.835a2.1,2.1,0,0,1,.491,1.117,7.67,7.67,0,0,0,2.4,1.4,1.717,1.717,0,0,1-.153-.6" transform="translate(0.235 0.52)" fill="#dc8162"/>
          <path id="Path_922007" data-name="Path 922007" d="M9.774,11.887c1.078.846,2,3.767.869,5.158-.619.764-2.873-.048-3.93-1.71a3.718,3.718,0,0,1,.089-2.8,2.164,2.164,0,0,1,2.972-.644" transform="translate(0.221 0.394)" fill="#fbb99d"/>
          <path id="Path_922008" data-name="Path 922008" d="M11.048,14.225c0,.179-.242-1.767-1.3-1.9-.428-.054-.332.415-.829.453-.425.033-1.7-.854-1.208,1.773.024.126-.091.274-.148.388-.069.14.147.459.144.616s-.441-.313-.432-.162c.014.242.18.456.2.7.035.445-.335.2-.484-.014l-.611-.865a1.358,1.358,0,0,1-.242-.458c-.018-.073-.071-.434-.133-.458a.834.834,0,0,0-.4-.051,3.141,3.141,0,0,1,.181-1.137,1.864,1.864,0,0,1,.694-.9,2.526,2.526,0,0,1-.433,0,.1.1,0,0,1-.067-.023c-.033-.034-.005-.09.023-.128a3.428,3.428,0,0,1,.744-.719c.171-.122.656-.478.884-.385a.446.446,0,0,1-.21-.178,7.828,7.828,0,0,1,1.786.093,2.879,2.879,0,0,1-.3-.471,2.572,2.572,0,0,1,1.34.753,1.869,1.869,0,0,1,.421,1.542c-.014.123.032.142.082.23a2.041,2.041,0,0,1,.145.4,3.1,3.1,0,0,1,.144.9" transform="translate(0.192 0.355)" fill="#53424d"/>
          <path id="Path_922009" data-name="Path 922009" d="M7.945,15.064s-.779-.711-1.207-.507.173,1.42,1.059,1.251.387-.552.148-.745" transform="translate(0.225 0.496)" fill="#fbb99d"/>
          <path id="Path_922010" data-name="Path 922010" d="M8.339,14.648c-.025-.011.026.01.036.013a.47.47,0,0,0,.12.027c.162.011.234-.1.27-.234.022-.086.157-.04.134.046a.421.421,0,0,1-.641.263c-.084-.04,0-.154.081-.115" transform="translate(0.281 0.492)" fill="#1e100c"/>
          <path id="Path_922011" data-name="Path 922011" d="M9.776,14.1a.469.469,0,0,0,.137.086c.159.065.246-.034.3-.176.032-.084.168-.039.135.044-.064.168-.183.319-.388.289a.581.581,0,0,1-.294-.151c-.067-.061.042-.152.109-.092" transform="translate(0.329 0.477)" fill="#1e100c"/>
          <path id="Path_922012" data-name="Path 922012" d="M10.028,13.388a.427.427,0,0,0-.5.3c-.038.105-.2.035-.159-.068a.591.591,0,0,1,.687-.405c.109.02.083.191-.027.171" transform="translate(0.32 0.451)" fill="#552b19"/>
          <path id="Path_922013" data-name="Path 922013" d="M8.706,13.979a.429.429,0,0,0-.566.156c-.064.091-.2-.019-.132-.109a.591.591,0,0,1,.77-.2c.1.05.027.206-.072.157" transform="translate(0.273 0.47)" fill="#552b19"/>
          <path id="Path_922014" data-name="Path 922014" d="M9.253,13.985a.867.867,0,0,0,.038.479c.093.211.355.277.515.441.219.225.053.4-.24.523-.07.03-.118-.058-.047-.088.655-.279-.183-.527-.323-.8a.912.912,0,0,1-.063-.563c.01-.064.129-.058.119.006" transform="translate(0.311 0.476)" fill="#dc8162"/>
          <path id="Path_922015" data-name="Path 922015" d="M9.035,15.729s.03.594.518.535a.571.571,0,0,0,.476-.592Z" transform="translate(0.309 0.535)" fill="#faffff"/>
          <path id="Path_922016" data-name="Path 922016" d="M8.1,15.675a.335.335,0,1,0,.155-.448.335.335,0,0,0-.155.448" transform="translate(0.276 0.519)" fill="#f3a498"/>
          <path id="Path_922017" data-name="Path 922017" d="M10.74,14.561a.339.339,0,1,0,.112.466.339.339,0,0,0-.112-.466" transform="translate(0.349 0.496)" fill="#f3a498"/>
          <path id="Path_922018" data-name="Path 922018" d="M56.833,37.039,45.648,29.149l.22-1.615L56.5,26.726Z" transform="translate(1.559 0.913)" fill="#feb801"/>
          <path id="Path_922019" data-name="Path 922019" d="M42.15,25.171s4.188-1.941,4.971-4.053a2.444,2.444,0,0,0-.916-3.081s-3.059,4.391-5.514,5.284,1.459,1.849,1.459,1.849" transform="translate(1.362 0.616)" fill="#cc8b6e"/>
          <path id="Path_922020" data-name="Path 922020" d="M50.03,16.107s-1.049.347-.876,2.463c.213,2.621-3.834,5.148-3.834,5.148l-2.858-1.865s3.757-5.446,7.568-5.747" transform="translate(1.45 0.55)" fill="#ff4650"/>
          <path id="Path_922021" data-name="Path 922021" d="M47.164,18.128c.72-2.3,4.185-2.422,7-1.995,1.9.287,3.124.9,3.335,3.278.134,1.514-.282,8.136-1.209,9.89,0,0-3.237,1.811-10.451-.412a37.34,37.34,0,0,1,1.321-10.761" transform="translate(1.565 0.544)" fill="#ff4650"/>
          <path id="Path_922022" data-name="Path 922022" d="M46.994,22.233a.958.958,0,0,1-.955.728c-.126.009-.126-.188,0-.2a.76.76,0,0,0,.764-.583c.018-.125.208-.071.19.052" transform="translate(1.569 0.755)" fill="#ed3748"/>
          <path id="Path_922023" data-name="Path 922023" d="M38.954,24.281s-2.952.694-3.206.826c-1.618.851-2.551.88-2.3,1.185.462.561,2.5.133,2.8.077a10.956,10.956,0,0,0,1.624-.49,6.818,6.818,0,0,0,1.08-1.6" transform="translate(1.141 0.829)" fill="#cc8b6e"/>
          <path id="Path_922024" data-name="Path 922024" d="M42.923,24.681c-1.576,1.051-6.741,1.743-6.741,1.743l.475-1.293,5.533-2.61s2.308,1.108.733,2.16" transform="translate(1.235 0.769)" fill="#cc8b6e"/>
          <path id="Path_922025" data-name="Path 922025" d="M52.394,17a97.717,97.717,0,0,1-.9,12.459l-.9.056A55.856,55.856,0,0,0,51.619,17Z" transform="translate(1.728 0.581)" fill="#fdfefd"/>
          <path id="Path_922026" data-name="Path 922026" d="M56.734,29.317s-6.865,1.33-11.157-.718l.294-1.093a21.573,21.573,0,0,0,10.755.555Z" transform="translate(1.556 0.939)" fill="#e08b03"/>
          <path id="Path_922027" data-name="Path 922027" d="M53.087,28.185h-.611l-.144,1.828h1.006Z" transform="translate(1.787 0.963)" fill="#feb801"/>
          <path id="Path_922028" data-name="Path 922028" d="M48.98,27.985l-.442-.139-.757,1.676.908.285Z" transform="translate(1.632 0.951)" fill="#feb801"/>
          <path id="Path_922029" data-name="Path 922029" d="M52.131,18.36a.189.189,0,0,0,.016-.275.21.21,0,0,0-.287-.016.189.189,0,0,0-.016.275.21.21,0,0,0,.287.016" transform="translate(1.769 0.616)" fill="#2f7edd"/>
          <path id="Path_922030" data-name="Path 922030" d="M52.131,20.131a.189.189,0,0,0,.016-.275.21.21,0,0,0-.287-.016.189.189,0,0,0-.016.275.21.21,0,0,0,.287.016" transform="translate(1.769 0.676)" fill="#2f7edd"/>
          <path id="Path_922031" data-name="Path 922031" d="M52.049,21.687a.211.211,0,0,0-.287-.016.19.19,0,0,0-.017.275.211.211,0,0,0,.289.016.189.189,0,0,0,.016-.275" transform="translate(1.765 0.739)" fill="#2f7edd"/>
          <path id="Path_922032" data-name="Path 922032" d="M51.564,23.82a.188.188,0,0,0-.017.275.21.21,0,0,0,.287.016.19.19,0,0,0,.017-.275.21.21,0,0,0-.287-.016" transform="translate(1.758 0.812)" fill="#2f7edd"/>
          <path id="Path_922033" data-name="Path 922033" d="M51.391,26.27a.195.195,0,1,0,.275.016.195.195,0,0,0-.275-.016" transform="translate(1.753 0.896)" fill="#2f7edd"/>
          <path id="Path_922034" data-name="Path 922034" d="M53.726,13.164s-2.9.624-2.742.86-.122.716-.129,1.178a2.626,2.626,0,0,1-.789,1.541c-.314.355.243.779.738.872,2.13.4,3.477-.4,3.025-1.086a3.661,3.661,0,0,1-.1-3.365" transform="translate(1.706 0.45)" fill="#cc8b6e"/>
          <path id="Path_922035" data-name="Path 922035" d="M50.838,15.2c.007-.463.291-.941.128-1.178s2.971-.909,2.971-.909a2.257,2.257,0,0,0-.557,1.217,5.766,5.766,0,0,1-2.9,1.846,2.362,2.362,0,0,0,.355-.976" transform="translate(1.724 0.448)" fill="#8b482a"/>
          <path id="Path_922036" data-name="Path 922036" d="M50.824,9.94c-1.143.864-2.117,3.845-.921,5.265.657.781,3.046-.049,4.167-1.746a3.669,3.669,0,0,0-.094-2.861,2.346,2.346,0,0,0-3.151-.658" transform="translate(1.685 0.327)" fill="#cc8b6e"/>
          <path id="Path_922037" data-name="Path 922037" d="M49.5,12.327c0,.183.256-1.8,1.373-1.938.454-.055.353.424.879.462.451.033,1.8-.872,1.28,1.809-.025.129.1.28.156.4.074.143-.155.468-.152.629s.467-.319.458-.165c-.013.234-.418.886-.082.975.163.043.362-.218.481-.307a5.928,5.928,0,0,0,1-.74,2.555,2.555,0,0,0,.57-1.275A4.339,4.339,0,0,0,55.35,10.8c-.428-2.883-3.655-2.342-4.079-2.323a1.132,1.132,0,0,0-.989.689c-.086.223-.117.508-.332.614a2.368,2.368,0,0,0-.244.091.447.447,0,0,0-.152.191,1.874,1.874,0,0,0-.1,1.276,1.65,1.65,0,0,1,.092.514c-.011.16-.045.314-.044.478" transform="translate(1.686 0.288)" fill="#53424d"/>
          <path id="Path_922038" data-name="Path 922038" d="M52.659,13.182s.825-.726,1.279-.517-.183,1.449-1.122,1.277-.411-.564-.157-.76" transform="translate(1.785 0.431)" fill="#cc8b6e"/>
          <path id="Path_922039" data-name="Path 922039" d="M55.568,20.8h-2.09c.033-.033.065-.066.1-.1-.046.649-.028,1.964.76,2.174.745.2,1.229-.489,1.264-1.14a2.975,2.975,0,0,0-.127-1.008c-.037-.122.153-.174.19-.053.292.955.139,2.524-1.21,2.419-1.043-.082-1.129-1.608-1.074-2.392a.1.1,0,0,1,.1-.1h2.09a.1.1,0,0,1,0,.2" transform="translate(1.822 0.704)" fill="#ed3748"/>
          <path id="Path_922040" data-name="Path 922040" d="M48.093,20.228l2.168.237a.1.1,0,0,1,.1.1c.011.929-.295,2.5-1.526,2.358S47.725,21.179,48,20.3c.037-.121.229-.069.19.053a3.03,3.03,0,0,0-.1,1.71.928.928,0,0,0,1.176.632,1.342,1.342,0,0,0,.754-1c.09-.317.078-.644.145-.961.011-.055,0-.115,0-.17-.034.269.173.031.029.087a.582.582,0,0,1-.182-.02l-1.916-.209c-.125-.013-.126-.211,0-.2" transform="translate(1.633 0.691)" fill="#ed3748"/>
          <path id="Path_922041" data-name="Path 922041" d="M46.009,54.51s-.429.5-.934,1.18-.883,1.387-.176,1.712,1.564-.472,1.841-.944.593-.421.974-.734.181-1.478.181-1.478Z" transform="translate(1.52 1.852)" fill="#552b19"/>
          <path id="Path_922042" data-name="Path 922042" d="M47.825,55.319c-.406.334-.74.279-1.036.782s-1.208,1.35-1.959,1a.739.739,0,0,1-.317-.251.574.574,0,0,0,.387.515c.707.324,1.565-.473,1.842-.945s.593-.42.974-.734a.779.779,0,0,0,.215-.5.458.458,0,0,1-.105.131" transform="translate(1.52 1.885)" fill="#421f13"/>
          <path id="Path_922043" data-name="Path 922043" d="M52.479,33.078c-1.032,1.306-4.468,22.342-4.468,22.342-1.032.868-2.581,0-2.581,0-1.118-10.726.266-26.658.266-26.658s7.815,5.623,6.783,4.317" transform="translate(1.536 0.982)" fill="#feb801"/>
          <path id="Path_922044" data-name="Path 922044" d="M47.531,29.059c-1.272,8.7-2.4,17.885-1.481,26.656.022.2.341.2.321,0-.915-8.746.2-17.9,1.468-26.571.03-.2-.278-.289-.308-.085" transform="translate(1.561 0.988)" fill="#e08b03"/>
          <path id="Path_922045" data-name="Path 922045" d="M46.675,29.1c.014.873-.013,3.317-1.262,3.317a.16.16,0,0,0,0,.32c1.527,0,1.6-2.568,1.581-3.636a.16.16,0,0,0-.32,0" transform="translate(1.545 0.989)" fill="#e08b03"/>
          <path id="Path_922046" data-name="Path 922046" d="M55.975,54.844s.429.5.934,1.18.882,1.387.176,1.712-1.564-.472-1.842-.944-.592-.421-.973-.734-.181-1.478-.181-1.478Z" transform="translate(1.845 1.864)" fill="#552b19"/>
          <path id="Path_922047" data-name="Path 922047" d="M54.159,55.653c.406.334.74.279,1.036.782s1.208,1.35,1.959,1a.74.74,0,0,0,.317-.251.572.572,0,0,1-.387.515c-.706.325-1.565-.473-1.842-.944s-.593-.421-.974-.735a.779.779,0,0,1-.215-.5.476.476,0,0,0,.105.131" transform="translate(1.846 1.896)" fill="#421f13"/>
          <path id="Path_922048" data-name="Path 922048" d="M49.643,33.407c1.032,1.306,4.468,22.342,4.468,22.342,1.033.868,2.581,0,2.581,0C57.81,45.023,56.6,29.258,56.6,29.258s-7.988,5.455-6.956,4.149" transform="translate(1.692 0.999)" fill="#feb801"/>
          <path id="Path_922049" data-name="Path 922049" d="M54.1,29.478c1.267,8.668,2.383,17.827,1.468,26.571-.022.2.3.2.321,0,.916-8.772-.209-17.96-1.482-26.656-.029-.2-.338-.117-.307.085" transform="translate(1.847 1)" fill="#e08b03"/>
          <path id="Path_922050" data-name="Path 922050" d="M54.934,29.435c-.018,1.068.054,3.637,1.581,3.636a.16.16,0,0,0,0-.32c-1.248,0-1.275-2.444-1.262-3.317a.16.16,0,0,0-.32,0" transform="translate(1.876 1)" fill="#e08b03"/>
          <path id="Path_922051" data-name="Path 922051" d="M51.822,12.854c.022-.01-.024.01-.032.012a.419.419,0,0,1-.108.026c-.144.012-.209-.082-.242-.2-.021-.077-.142-.034-.12.041a.376.376,0,0,0,.575.225c.073-.037,0-.138-.073-.1" transform="translate(1.752 0.432)" fill="#1e100c"/>
          <path id="Path_922052" data-name="Path 922052" d="M50.536,12.386a.437.437,0,0,1-.12.079c-.141.06-.219-.027-.27-.152-.03-.074-.15-.032-.12.041.059.148.166.281.349.251a.519.519,0,0,0,.26-.14c.059-.055-.039-.134-.1-.08" transform="translate(1.708 0.419)" fill="#1e100c"/>
          <path id="Path_922053" data-name="Path 922053" d="M50.3,11.757a.38.38,0,0,1,.45.263c.035.093.175.028.14-.064a.524.524,0,0,0-.615-.35.077.077,0,0,0,.026.151" transform="translate(1.715 0.396)" fill="#552b19"/>
          <path id="Path_922054" data-name="Path 922054" d="M51.49,12.264a.381.381,0,0,1,.5.13c.058.081.175-.02.117-.1a.525.525,0,0,0-.688-.171c-.088.044-.022.184.066.139" transform="translate(1.755 0.412)" fill="#552b19"/>
          <path id="Path_922055" data-name="Path 922055" d="M51,12.277a.765.765,0,0,1-.027.426c-.081.189-.311.252-.452.4-.191.2-.04.355.221.461.063.026.1-.053.04-.079-.586-.24.154-.473.275-.715a.809.809,0,0,0,.048-.5c-.01-.056-.116-.05-.105.007" transform="translate(1.722 0.418)" fill="#8b482a"/>
          <path id="Path_922056" data-name="Path 922056" d="M51.226,13.824s-.018.528-.453.483-.432-.519-.432-.519Z" transform="translate(1.719 0.471)" fill="#faffff"/>
          <path id="Path_922057" data-name="Path 922057" d="M52.024,13.795a.3.3,0,1,1-.145-.4.3.3,0,0,1,.145.4" transform="translate(1.757 0.457)" fill="#c1775d"/>
          <path id="Path_922058" data-name="Path 922058" d="M49.684,12.811a.3.3,0,1,1-.093.417.3.3,0,0,1,.093-.417" transform="translate(1.692 0.436)" fill="#c1775d"/>
          <path id="Path_922059" data-name="Path 922059" d="M59.1,25.537s.017-4.092-1.485-5.623a2.483,2.483,0,0,0-3.018-.64s2.544,4.291,2.326,6.581,2.177-.319,2.177-.319" transform="translate(1.864 0.65)" fill="#cc8b6e"/>
          <path id="Path_922060" data-name="Path 922060" d="M55.376,16.789c2.542-1.088,4.15,5.637,4.15,5.637l-3.162,1.4s-3.867-5.806-.988-7.037" transform="translate(1.855 0.569)" fill="#ff4650"/>
          <path id="Path_922061" data-name="Path 922061" d="M58.908,26.141c-.894,1.456-4.86,3.827-4.86,3.827l-.077-1.323,3.538-4.159s2.292.2,1.4,1.655" transform="translate(1.843 0.836)" fill="#cc8b6e"/>
          <path id="Path_922062" data-name="Path 922062" d="M54.08,28.3a1.955,1.955,0,0,1-.433-.155,2.507,2.507,0,0,0-.842-.082c-.158,0-.493-.172-.613-.011-.2.264.442.405.567.485a.322.322,0,0,1,.169.337.409.409,0,0,1-.175.2,8.393,8.393,0,0,1-.745.426c-.13.072-.253.152-.378.232a1.553,1.553,0,0,0-.315.183.148.148,0,0,0,.02.228c.075.042.133-.02.2-.048q.228-.093.461-.178c.033-.013.18-.092.214-.071.169.1-.219.315-.279.352a.876.876,0,0,0-.378.364.082.082,0,0,0-.005.069c.019.033.067.029.1.019.217-.063.405-.2.624-.261a.1.1,0,0,1,.1.011c.1.107-.121.3-.188.368-.042.043-.091.1-.066.158a.1.1,0,0,0,.1.051.294.294,0,0,0,.113-.039,3,3,0,0,0,.32-.163c.048-.032.179-.138.236-.084a.052.052,0,0,1,.013.042.293.293,0,0,1-.073.146.146.146,0,0,0-.025.154c.037.058.125.05.19.027a2.593,2.593,0,0,0,.638-.391q.318-.233.614-.491a8.847,8.847,0,0,0,.74-.733,1.345,1.345,0,0,0,.425-.814,1.206,1.206,0,0,0-.034-.265,1.19,1.19,0,0,0-.114-.332.475.475,0,0,0-.265-.224.11.11,0,0,0-.049,0,.115.115,0,0,0-.051.032,3.285,3.285,0,0,1-.356.312.827.827,0,0,1-.471.153" transform="translate(1.751 0.949)" fill="#cc8b6e"/>
        </g>
      </g>
    </g>
  </g>
</svg>
