<svg xmlns="http://www.w3.org/2000/svg" xmlns:xlink="http://www.w3.org/1999/xlink" width="150" height="150" viewBox="0 0 150 150">
  <defs>
    <clipPath id="clip-path">
      <rect id="Rectangle_407255" data-name="Rectangle 407255" width="150" height="150" transform="translate(0)" fill="#f69a8b"/>
    </clipPath>
    <clipPath id="clip-path-2">
      <rect id="Rectangle_401492" data-name="Rectangle 401492" width="96.296" height="96.297" transform="translate(-0.288 0.138)" fill="#953c2d" stroke="#707070" stroke-width="1"/>
    </clipPath>
    <clipPath id="clip-path-3">
      <rect id="Rectangle_408921" data-name="Rectangle 408921" width="91.788" height="86.122" fill="#953c2d"/>
    </clipPath>
  </defs>
  <g id="Group_1118696" data-name="Group 1118696" transform="translate(-179.328 -3684.533)">
    <g id="Group_1116923" data-name="Group 1116923" transform="translate(179.328 3684.533)" clip-path="url(#clip-path)">
      <path id="Path_893365" data-name="Path 893365" d="M148.169,44.41C139.386,14.569,73.684-19.323,25.142,13.36s-13,149.535-6.586,125.918c6.165-22.7,33.5-4.155,54.014-3.491,22.845.739,37.666-5.15,37.63-5.238,10.531-3.911,17.983-9.053,24.206-18.726C146.839,92.5,153.455,62.367,148.169,44.41" transform="translate(0.001 3.798)" fill="#f69a8b"/>
    </g>
    <g id="Group_1115380" data-name="Group 1115380" transform="translate(222.027 3726.987)">
      <rect id="Rectangle_401104" data-name="Rectangle 401104" width="60.924" height="61.907" transform="translate(2.232 0)" fill="none"/>
      <g id="Mask_Group_1098697" data-name="Mask Group 1098697" transform="translate(-15.7 -15.454)" clip-path="url(#clip-path-2)">
        <g id="Group_1119020" data-name="Group 1119020" transform="translate(2.712 5.137)">
          <g id="Group_1119019" data-name="Group 1119019" clip-path="url(#clip-path-3)">
            <path id="Path_923357" data-name="Path 923357" d="M22.616,35.827c-.316-1.528-1.079-2.956-1.447-4.465C16.448,12,35.434-5.2,54.226,1.459c1.746.618,7.631,2.84,6.213,5.292-1.273,2.2-3.817-.374-5.4-1.115-20-9.387-40.28,14.516-26.6,32.645,13.045,17.286,40.107,6.9,39.121-14.148-.078-1.658-2-6.852-.078-7.443,2.772-.851,3.287,3.7,3.464,5.634A24.872,24.872,0,0,1,68.89,35.436c.02.349,3.149.769,3.786.937C82.2,38.886,89.966,46.865,91.46,56.759,95.469,83.32,61.687,96.843,45.881,75.792,37.262,87.513,20.974,89.45,9.494,80.628-8.3,66.953.53,37.759,22.616,35.827m.472,3.5C.392,41.405-3.3,73.387,17.221,81.05A21.7,21.7,0,0,0,44.439,50.678c-7.44-.509-13.052-3.753-18.014-9.062-1.362-1.457-1-2.506-3.337-2.292M48.379,50.553a25.94,25.94,0,0,1,1.294,17.2c-.441,1.626-1.309,3.093-1.519,4.688,9.69,15.96,34.933,12.327,39.269-6.107,3.249-13.813-6.18-26.769-20.457-27.087a25.566,25.566,0,0,1-18.587,11.31" transform="translate(0 -0.001)" fill="#953c2d"/>
            <path id="Path_923358" data-name="Path 923358" d="M129.079,114.073c1.63-.5,2.5.78,3.756,1.4a15.52,15.52,0,0,0,14.429.225c1.091-.543,4.223-3.239,4.976-.7.654,2.207-3.259,4.024-4.95,4.666-5.071,1.926-14.758,1.634-18.635-2.643-.793-.875-.705-2.607.423-2.951" transform="translate(-94.451 -83.978)" fill="#953c2d"/>
            <path id="Path_923359" data-name="Path 923359" d="M140.89,55.363c.732.73.714,4.47.525,5.527a1.827,1.827,0,0,1-3.612.32,26.679,26.679,0,0,1,.051-4.933,1.935,1.935,0,0,1,3.036-.914" transform="translate(-101.51 -40.503)" fill="#953c2d"/>
            <path id="Path_923360" data-name="Path 923360" d="M196.982,55.165a1.705,1.705,0,0,1,2.427,1.405c.171,1.046.222,5.119-.519,5.758-3.388,2.922-4.3-6.451-1.908-7.163" transform="translate(-144.21 -40.574)" fill="#953c2d"/>
            <path id="Path_923361" data-name="Path 923361" d="M240.9,37.182c3.225-.951,3.338,4.289,0,3.3-1.353-.4-1.359-2.9,0-3.3" transform="translate(-176.82 -27.322)" fill="#953c2d"/>
            <path id="Path_923362" data-name="Path 923362" d="M45.224,250.861A1.872,1.872,0,0,1,47,247.88c.782.161,1.4,1.034,2.168.911,1.208-.194,2.007-1.856,4.361-1.907,2.208-.048,3.809,1.931,4.9,1.928.793,0,2.086-1.456,3.012-1.7a6.31,6.31,0,0,1,3.531.167c.75.294,1.811,1.408,2.451,1.51,1.065.169,2.831-2.067,4.035-.373,1.179,1.659-.5,3.049-1.938,3.62-2.694,1.068-4.146-.372-6.38-1.637-2.5,1.112-3.783,2.872-6.786,1.556-.731-.32-1.857-1.412-2.454-1.508-.855-.137-3.153,2.016-4.936,2.016a8.148,8.148,0,0,1-3.735-1.6" transform="translate(-33.046 -181.984)" fill="#953c2d"/>
            <path id="Path_923363" data-name="Path 923363" d="M52.12,201.685c.848-.9,5.862-.883,6.776.053a1.892,1.892,0,0,1-.722,2.98,26.548,26.548,0,0,1-5.147,0,1.919,1.919,0,0,1-.908-3.031" transform="translate(-38.109 -148.178)" fill="#953c2d"/>
            <path id="Path_923364" data-name="Path 923364" d="M113.233,201.123c1.228-.218,4.971-.335,5.707.737,2.234,3.252-4.441,3.289-6.177,2.762a1.819,1.819,0,0,1,.47-3.5" transform="translate(-82.272 -148.145)" fill="#953c2d"/>
            <path id="Path_923365" data-name="Path 923365" d="M216.422,241.221c4.349-.491,10.182.443,13.59,3.351.85.725,1.458,1.154,1.073,2.372-.908,2.871-4.8-.665-6.387-1.263a16.368,16.368,0,0,0-12.653.628c-1.024.516-2.686,2.155-3.719,1.834a1.881,1.881,0,0,1-1.191-2.539c.638-1.978,7.277-4.155,9.287-4.382" transform="translate(-152.592 -177.718)" fill="#953c2d"/>
            <path id="Path_923366" data-name="Path 923366" d="M209.54,198.4c.938-.279,4.8,1.548,5.585,2.195a1.815,1.815,0,0,1-1.412,3.268c-.288-.046-4.355-2.01-4.617-2.233a1.9,1.9,0,0,1,.445-3.229" transform="translate(-153.613 -146.227)" fill="#953c2d"/>
            <path id="Path_923367" data-name="Path 923367" d="M269.925,200.706a28.666,28.666,0,0,1,4.806-2.444,1.74,1.74,0,0,1,1.432,3.033,22.027,22.027,0,0,1-4.637,2.484,1.834,1.834,0,0,1-1.6-3.073" transform="translate(-198.593 -146.134)" fill="#953c2d"/>
          </g>
        </g>
      </g>
    </g>
  </g>
</svg>
