<svg xmlns="http://www.w3.org/2000/svg" xmlns:xlink="http://www.w3.org/1999/xlink" width="400" height="298.834" viewBox="0 0 400 298.834">
  <defs>
    <clipPath id="clip-path">
      <rect id="Rectangle_409021" data-name="Rectangle 409021" width="400" height="298.834" transform="translate(389.711 10185)" fill="#fff" stroke="#707070" stroke-width="1"/>
    </clipPath>
    <clipPath id="clip-path-2">
      <rect id="Rectangle_409020" data-name="Rectangle 409020" width="440" height="315.471" fill="none"/>
    </clipPath>
    <clipPath id="clip-path-3">
      <rect id="Rectangle_409019" data-name="Rectangle 409019" width="400.222" height="473.602" fill="none"/>
    </clipPath>
    <clipPath id="clip-path-4">
      <rect id="Rectangle_409018" data-name="Rectangle 409018" width="400.222" height="291.57" fill="none"/>
    </clipPath>
    <clipPath id="clip-path-5">
      <rect id="Rectangle_409016" data-name="Rectangle 409016" width="7.239" height="3.251" fill="none"/>
    </clipPath>
    <clipPath id="clip-path-6">
      <rect id="Rectangle_409017" data-name="Rectangle 409017" width="3.644" height="3.14" fill="none"/>
    </clipPath>
  </defs>
  <g id="Mask_Group_1119100" data-name="Mask Group 1119100" transform="translate(-389.711 -10185)" clip-path="url(#clip-path)">
    <g id="Group_1119129" data-name="Group 1119129" transform="translate(390 10176.353)">
      <g id="Group_1119128" data-name="Group 1119128" clip-path="url(#clip-path-2)">
        <g id="Group_1119127" data-name="Group 1119127" transform="translate(-0.289 20.28)">
          <g id="Group_1119126" data-name="Group 1119126" clip-path="url(#clip-path-3)">
            <g id="Group_1119125" data-name="Group 1119125">
              <g id="Group_1119124" data-name="Group 1119124" clip-path="url(#clip-path-4)">
                <path id="Path_924109" data-name="Path 924109" d="M150.514,356.6c-.011.105-.027.207-.04.313,0,0-.273.515-.791,1.476-3.657,6.758-19.566,35.593-39.321,62.766-2.848,3.918-5.778,7.8-8.758,11.573q-1.967,2.491-3.963,4.908c-5.776,7-10.624,11.3-16.152,14.918-.586.384-1.177.757-1.781,1.13-1.149.7-2.331,1.39-3.564,2.076q-.875.481-1.787.972s-8.9-9.362-13.042-18.438c0,0,1.159-1.887,3.022-4.958l1.175-1.935c1.256-2.076,2.727-4.517,4.322-7.178,7.174-11.977,16.836-28.421,20.441-36.058,2.638-5.578,5.776-11.769,9.287-17.868q1-1.741,2.042-3.463c.078-.136.154-.266.238-.4,4.772-7.88,10.115-15.364,15.712-20.882l-12.729-75.124-.8-4.717,28.148-9.936,1.606-.565,6.7-2.365s.536,2.467,1.369,6.711c.1.512.2,1.051.313,1.613,3.732,19.28,12.079,67.464,8.351,95.431" transform="translate(-6.976 -28.766)" fill="#001736"/>
                <path id="Path_924110" data-name="Path 924110" d="M125.743,350.21c-.139.134-14.252,14.174-55,89.048-.363.67-.731,1.348-1.1,2.029l-1.006-1.332q.556-1.022,1.1-2.027c37.808-69.421,52.307-86.042,54.63-88.486-3.319-12.279-13.488-75.166-13.924-77.87a.76.76,0,1,1,1.5-.242c.107.667,10.841,67.049,14,78.122a.752.752,0,0,1-.2.757" transform="translate(-7.809 -30.796)" fill="#28536f"/>
                <path id="Path_924111" data-name="Path 924111" d="M57.12,230.059s-2.119,20.1,2.453,31.287,63.763,5.43,78.847-4.639c6.188-4.131-6.99-42.244-6.99-42.244Z" transform="translate(-6.443 -24.399)" fill="#001736"/>
                <path id="Path_924112" data-name="Path 924112" d="M150.162,259.251a17.308,17.308,0,0,1-2.62-.674,17.581,17.581,0,0,1-3.893-1.884,20.553,20.553,0,0,1-3.477-2.836c-6.525-6.582-8.446-16.533-8.537-17.019a.76.76,0,1,1,1.5-.279c.021.119,2.021,10.466,8.646,16.73a18.251,18.251,0,0,0,2.7,2.13,16.017,16.017,0,0,0,5.37,2.216c.1.513.207,1.051.314,1.616" transform="translate(-14.975 -26.843)" fill="#28536f"/>
                <path id="Path_924113" data-name="Path 924113" d="M110.756,263.481a.749.749,0,0,1-.718.769h-.006a.747.747,0,0,1-.794-.7c-.134-2.747-.3-5.562-.472-8.372-.031-.494-.062-.989-.1-1.484-.6-9.185-1.357-18.2-1.929-24.568-.047-.514-.09-1.014-.136-1.493-.128-1.4-.243-2.637-.342-3.686.5-.078,1.008-.16,1.506-.243.1,1.048.214,2.3.343,3.712.045.479.089.978.136,1.493.565,6.31,1.32,15.248,1.918,24.378.035.5.066,1.009.1,1.513.182,2.913.35,5.832.489,8.677" transform="translate(-12.089 -25.451)" fill="#28536f"/>
                <path id="Path_924114" data-name="Path 924114" d="M112.128,253.9a19.89,19.89,0,0,1-2.654,1.017,15.335,15.335,0,0,1-1.5.378,11.009,11.009,0,0,1-1.438.187,5.239,5.239,0,0,1-2.549-.4,3.1,3.1,0,0,1-1.729-2.32c-.553-2.833-1.713-14.533-2.493-22.809-.051-.508-.1-1-.142-1.487-.124-1.324-.234-2.528-.329-3.551.5-.06,1.007-.121,1.512-.188.094,1.029.206,2.247.333,3.589.045.479.091.976.139,1.487.783,8.254,1.938,19.938,2.473,22.683a1.632,1.632,0,0,0,.915,1.282,5.359,5.359,0,0,0,3.211.042c.511-.111,1.02-.254,1.5-.407a18.3,18.3,0,0,0,2.084-.817.769.769,0,0,1,1.017.331.723.723,0,0,1-.346.983" transform="translate(-11.296 -25.567)" fill="#28536f"/>
                <path id="Path_924115" data-name="Path 924115" d="M101.077,259.265v204.5l-.221,3.24H78.3c-.242-1.476-.783-3.86-1.5-6.929-.155-.67-.321-1.372-.491-2.1-2.941-12.506-7.976-33.829-8.864-52.366-1.269-26.471-.911-60.773-.911-60.773-2.575-19.673-6.617-62.288-8.627-84.1-.05-.521-.094-1.023-.139-1.519-.675-7.326-1.091-11.941-1.091-11.941,3.632-1.513,10.22-.472,17.227,1.516.508.142,1.015.286,1.524.441a209.447,209.447,0,0,1,25.652,10.028" transform="translate(-6.448 -28.051)" fill="#001736"/>
                <path id="Path_924116" data-name="Path 924116" d="M81.465,462.826H79.92q-.186-.977-.4-2.1c-1.995-10.592-5.642-30.4-7.537-43.25-2.646-17.944-1.406-67.7-1.356-69.647C68.623,330.714,64.539,272.1,64.5,271.5a.76.76,0,1,1,1.515-.105c.043.591,4.131,59.3,6.134,76.3,0,.037.005.074.005.111-.016.51-1.328,51.356,1.337,69.44,1.908,12.947,5.6,32.96,7.581,43.471.139.752.273,1.456.394,2.1" transform="translate(-7.338 -30.796)" fill="#28536f"/>
                <path id="Path_924117" data-name="Path 924117" d="M79.762,236.838a39.778,39.778,0,0,1-4.2,11.19,24.522,24.522,0,0,1-7.817,8.665,17.766,17.766,0,0,1-9.707,2.839c-.049-.519-.094-1.024-.139-1.52a16.349,16.349,0,0,0,9.023-2.595,22.752,22.752,0,0,0,7.115-7.829,39.1,39.1,0,0,0,4.227-11.026.76.76,0,1,1,1.5.276" transform="translate(-6.587 -26.843)" fill="#28536f"/>
                <path id="Path_924118" data-name="Path 924118" d="M31.247,86s-9.571-.709-14.18,4.608-4.14,16.479-4.14,16.479l17.256-4.6Z" transform="translate(-1.469 -9.78)" fill="#28536f"/>
                <path id="Path_924119" data-name="Path 924119" d="M24.94,120.159s-10.989-6.735-17.9,5.317c-3.5,6.1,1.418,16.484,1.418,16.484l15.42-5.317Z" transform="translate(-0.658 -13.457)" fill="#28536f"/>
                <path id="Path_924120" data-name="Path 924120" d="M46.536,79.14s-23.574-6.026-33.5,25.169-2.127,64.872,14.534,69.481,41.121-13.471,41.121-13.471Z" transform="translate(-0.984 -8.95)" fill="#001736"/>
                <path id="Path_924121" data-name="Path 924121" d="M32,82.163S34.836,70.287,49.016,71c9.389.47,7.74,10.812,7.74,10.812l-2.423-.354s-.237-8.922-7.208-8.271-10.162,8.271-10.162,8.271Z" transform="translate(-3.641 -8.074)" fill="#001736"/>
                <path id="Path_924122" data-name="Path 924122" d="M55.808,250.7l-1.878,11.46s21.681,4.846,35.345,1.343,46.629-6.8,52.262-7.023l-3.611-15.248S95.636,254.559,55.808,250.7" transform="translate(-6.136 -27.445)" fill="#fff"/>
                <path id="Path_924123" data-name="Path 924123" d="M101.543,86.013s8.052-16.365-9.05-25.445c-11.966-6.352-35.065-7.514-42.115,7.027-6.557,13.523,8.19,24.9,8.19,24.9s31.581,6.752,42.976-6.48" transform="translate(-5.54 -6.381)" fill="#ea8400"/>
                <path id="Path_924124" data-name="Path 924124" d="M75.553,68.479s-14.785,2.014-9.427,9.9c2.836,4.172,18.855,6.45,18.855,6.45s3.139-14.453-9.429-16.347" transform="translate(-7.39 -7.791)" fill="#001736"/>
                <path id="Path_924125" data-name="Path 924125" d="M134.575,219.124s-54.764,18.391-78.364,9.211c0,0-7.4-2.3-10.366-16.794-.1-.473-.189-.959-.276-1.461-1.251-7.169-1.443-17.088.638-30.773,2.5-16.418-.956-24.8-2.435-41.15q-.08-.863-.155-1.758c-.158-1.768-.3-3.628-.452-5.607-1.59-21.582-8.459-30.807,2.294-37.216S70.314,82.254,70.314,82.254s12,3.808,20.454,0c0,0,12.865,6.3,22.756,9.91s6.641,29.74,9.757,44.748,8.4,26.947,13.173,51.845c4.362,22.769-1.879,30.368-1.879,30.368" transform="translate(-4.498 -9.358)" fill="#fdb105"/>
                <path id="Path_924126" data-name="Path 924126" d="M146.327,191.88a.788.788,0,0,1-.785-.731c-.459-6.28-5.233-22.214-8.086-31.736-.555-1.851-1.033-3.45-1.379-4.641-2.069-7.134-4.419-23.9-4.518-24.611a.788.788,0,0,1,1.562-.218c.024.173,2.433,17.365,4.47,24.389.344,1.185.822,2.781,1.375,4.629,2.871,9.583,7.677,25.622,8.148,32.074a.789.789,0,0,1-.728.844l-.058,0" transform="translate(-14.966 -14.706)" fill="#ea8400"/>
                <path id="Path_924127" data-name="Path 924127" d="M138.729,228.122s2.335,7.165-.965,11.982c0,0-49.2,17.077-82.2,9.108,0,0-2.972-3.579-3.8-10.926,0,0,39.692,9.868,86.968-10.163" transform="translate(-5.889 -25.953)" fill="#ea8400"/>
                <path id="Path_924128" data-name="Path 924128" d="M89.483,107.056c9.12,0,11.977-8.174,12-8.26a.6.6,0,1,0-1.132-.381,11.463,11.463,0,0,1-11.789,7.417c-9.322-.582-21.3-6.742-21.419-6.8a.6.6,0,1,0-.55,1.061c.5.259,12.319,6.337,21.9,6.935.338.021.668.032.99.032" transform="translate(-7.54 -11.15)" fill="#ea8400"/>
                <path id="Path_924129" data-name="Path 924129" d="M122.947,188.158s6.326,19.364,4.007,30.117c0,0-20.819,12.408-51.852,6.173,0,0-1.737-19.146-2.957-31.455,0,0,31.687-5.137,50.8-4.835" transform="translate(-8.208 -21.405)" fill="#ea8400"/>
                <path id="Path_924130" data-name="Path 924130" d="M87.128,191.5a.448.448,0,0,0,.448-.427C89.486,149.718,77.918,87.683,77.8,87.062a.448.448,0,0,0-.881.166c.117.62,11.665,62.554,9.76,103.806a.448.448,0,0,0,.426.469h.021" transform="translate(-8.75 -9.863)" fill="#fff"/>
                <path id="Path_924131" data-name="Path 924131" d="M117.172,188.694h.014a.448.448,0,0,0,.433-.462c-1.5-49.943-18.462-100.9-18.633-101.41a.448.448,0,0,0-.849.285c.17.508,17.087,51.345,18.587,101.151a.448.448,0,0,0,.448.435" transform="translate(-11.162 -9.843)" fill="#fff"/>
                <path id="Path_924132" data-name="Path 924132" d="M93.884,77.388,92.74,82.6c-.717.359-1.485.522-2.127.887-11.013,6.272-19.513-2.645-19.36-3.2l4.81-20.272,15.7,15.305Z" transform="translate(-8.106 -6.827)" fill="#cd6061"/>
                <path id="Path_924133" data-name="Path 924133" d="M95.009,78.449l-1.176,5.357a16.445,16.445,0,0,1-2.127.886c-7.03-4.738-10.861-14.046-10.861-14.046l12.006,5.879Z" transform="translate(-9.198 -8.037)" fill="#001736"/>
                <path id="Path_924134" data-name="Path 924134" d="M72.944,34.713s-5.481-4.192-2.8-9.221a6.907,6.907,0,0,1,7.977-3.448s.088-5.519,4.686-7.1,7.421,2.748,7.421,2.748,2.1-5.3,6.772-4.714a5.011,5.011,0,0,1,4.537,5.1s4.482-3.865,9.341-.758,1.2,7.518,1.2,7.518a4.158,4.158,0,0,1,2.685,5.76c-.857,2.376-4.638,3.546-4.638,3.546Z" transform="translate(-7.896 -1.471)" fill="#001736"/>
                <path id="Path_924135" data-name="Path 924135" d="M75.439,35.77s-3.712-.526-5.428,3.741c-1.775,4.406,1.222,6.688,1.222,6.688s-3.089,2.607-1.679,6.161A3.868,3.868,0,0,0,74.476,54.7s-3.946,3.505-1.118,6.6,8.1-3.65,8.1-3.65Z" transform="translate(-7.871 -4.067)" fill="#001736"/>
                <path id="Path_924136" data-name="Path 924136" d="M110.427,31.544s12.291,4.457,4,12.185c0,0-5.051-8.808-4-12.185" transform="translate(-12.547 -3.589)" fill="#001736"/>
                <path id="Path_924137" data-name="Path 924137" d="M110.2,41.581s4.07-.548,5.246,2.676-2,4.944-2,4.944,2.009,2.106.533,5.632-3.938,2.8-3.938,2.8,2.364,2.28-.523,5.319-6.511-2.5-6.511-2.5Z" transform="translate(-11.718 -4.727)" fill="#001736"/>
                <path id="Path_924138" data-name="Path 924138" d="M108.815,54.878s3.725-2.845,4.629,1.017-1.933,10.651-6.18,8.506Z" transform="translate(-12.203 -6.129)" fill="#b54357"/>
                <path id="Path_924139" data-name="Path 924139" d="M106.439,65.058S104.091,75.827,92.9,73.346c-11.125-2.464-16.791-12.869-17.1-13.36a.056.056,0,0,0-.011-.013l.375-2.289L78.111,45.8l1.04-6.352S80.21,27.832,91.4,28.129c8.179.215,15.253,3.135,18.068,8.044a9.867,9.867,0,0,1,1.214,6.21l-2.127,11.352-.521,2.783Z" transform="translate(-8.623 -3.2)" fill="#cd6061"/>
                <path id="Path_924140" data-name="Path 924140" d="M101.243,62.863c-1.725,0-4.157-.718-6.544-3.862a.443.443,0,0,1,.706-.536c3.911,5.156,7.77,3.135,7.809,3.114a.443.443,0,0,1,.424.778,5.518,5.518,0,0,1-2.4.506" transform="translate(-10.764 -6.632)" fill="#001736"/>
                <path id="Path_924141" data-name="Path 924141" d="M99.024,67.235a3.281,3.281,0,0,0,1.46-.085.312.312,0,0,0-.206-.589,3.258,3.258,0,0,1-2.433-.365.313.313,0,0,0-.291.554,4.558,4.558,0,0,0,1.47.486" transform="translate(-11.08 -7.527)" fill="#001736"/>
                <path id="Path_924142" data-name="Path 924142" d="M101.9,56.973a15.889,15.889,0,0,1-2.661-1.407.469.469,0,0,1,.507-.789c1.6,1.027,3.411,1.789,3.734,1.569a.738.738,0,0,0,.007-.116c-.118-4.04-2-4.9-2.023-4.9a.476.476,0,0,1-.278-.538l.817-3.564a.468.468,0,1,1,.913.21l-.739,3.226c.693.472,2.142,1.891,2.248,5.542a1,1,0,0,1-.485.961,2.641,2.641,0,0,1-2.039-.19" transform="translate(-11.266 -5.331)" fill="#001736"/>
                <path id="Path_924143" data-name="Path 924143" d="M98.452,43.268c2.127-1.26.78-3.032-1.614-2.415-2.086.538-4.2.837-5.532,2.13-2.949,2.874,4.776,1.613,7.077.323l.068-.039" transform="translate(-10.312 -4.633)" fill="#001736"/>
                <path id="Path_924144" data-name="Path 924144" d="M106.606,45.105c-1.2-2.162.858-3.011,2.613-1.269,1.529,1.517,2.96,2.277,3.19,4.116.354,2.836-4.428-.5-5.764-2.778-.013-.023-.027-.045-.039-.068" transform="translate(-12.088 -4.881)" fill="#001736"/>
                <path id="Path_924145" data-name="Path 924145" d="M80.12,49.656c-.247-1.756-1.31-3.806-4.336-5.194a9.4,9.4,0,0,1-.634-4.831c.274-2.333-.013-4.654,1.4-7.124,0,0,3.581-4.675,14.776-4.379,8.179.216,15.253,3.136,18.067,8.045a2.5,2.5,0,0,1-.7.856c-2.817,2.416-7.065.951-11.509-1.57a10.692,10.692,0,0,0-9.106-.327,2.2,2.2,0,0,1,.859,2.082,5.23,5.23,0,0,1-.622,2.225c-.448.858-1.182,1.934-1.987,1.757,0,0,1.146,2.682-.45,4.222s-2.3,1.492-2.3,1.492,1.11,2.267-.32,3.81c-1.021,1.1-3.13-1.064-3.13-1.064" transform="translate(-8.541 -3.198)" fill="#001736"/>
                <g id="Group_1119120" data-name="Group 1119120" transform="translate(77.8 46.299)" opacity="0.8">
                  <g id="Group_1119119" data-name="Group 1119119">
                    <g id="Group_1119118" data-name="Group 1119118" clip-path="url(#clip-path-5)">
                      <path id="Path_924146" data-name="Path 924146" d="M95.013,54.659c-.172.783-1.926,1.065-3.917.627s-3.467-1.427-3.3-2.21,1.927-1.065,3.918-.628,3.466,1.427,3.294,2.211" transform="translate(-87.788 -52.242)" fill="#b54357"/>
                    </g>
                  </g>
                </g>
                <path id="Path_924147" data-name="Path 924147" d="M111.641,59.752a8.832,8.832,0,0,1-.878-.149c-1.99-.437-3.464-1.428-3.292-2.211s1.926-1.065,3.915-.628c.269.058.53.129.776.206Z" transform="translate(-12.225 -6.435)" fill="#b54357"/>
                <path id="Path_924148" data-name="Path 924148" d="M80.265,60.014c-.077.108-2.216,3.084-4.465,3.6l-.008-.013.375-2.289a7.914,7.914,0,0,0,4.1-1.3" transform="translate(-8.623 -6.828)" fill="#001736"/>
                <path id="Path_924149" data-name="Path 924149" d="M79.352,50.567s-3.035-6.726-7.186-2.875c-3.421,3.174-.649,14.01,5.229,11.8Z" transform="translate(-8.041 -5.29)" fill="#cd6061"/>
                <path id="Path_924150" data-name="Path 924150" d="M77.569,57.988l.05.008a.453.453,0,0,0,.5-.4,8.484,8.484,0,0,0-3.384-7.755.453.453,0,1,0-.509.75A7.579,7.579,0,0,1,77.217,57.5a.453.453,0,0,0,.353.491" transform="translate(-8.422 -5.661)" fill="#001736"/>
                <path id="Path_924151" data-name="Path 924151" d="M73.979,54.805a.452.452,0,0,0,.3-.038,3.555,3.555,0,0,1,2.511-.375.454.454,0,0,0,.409-.81c-1.257-.634-3.119.27-3.327.375a.454.454,0,0,0,.107.848" transform="translate(-8.376 -6.071)" fill="#001736"/>
                <path id="Path_924152" data-name="Path 924152" d="M96.157,49.6c-.2,1.114-.876,1.924-1.5,1.81s-.963-1.11-.759-2.224.876-1.924,1.5-1.81.963,1.11.759,2.224" transform="translate(-10.676 -5.388)" fill="#001736"/>
                <path id="Path_924153" data-name="Path 924153" d="M108.193,51.881c-.2,1.114-.876,1.924-1.5,1.81s-.963-1.11-.759-2.224.876-1.924,1.5-1.81.962,1.11.758,2.224" transform="translate(-12.045 -5.648)" fill="#001736"/>
                <path id="Path_924154" data-name="Path 924154" d="M65.326,80.541s15.794,6.937,18.894,6.9a19.148,19.148,0,0,1-10.4,4.4c-8.362.821-22.461-1-22.461-1s4.148-8.591,13.971-10.3" transform="translate(-5.843 -9.163)" fill="#ea8400"/>
                <path id="Path_924155" data-name="Path 924155" d="M95.873,79.18s0,6.484-7.434,8.112c0,0,1.4,4.842,7.745,3.946a18.138,18.138,0,0,0,9.881-4.538s-5.185-7.52-10.193-7.52" transform="translate(-10.062 -9.008)" fill="#ea8400"/>
                <path id="Path_924156" data-name="Path 924156" d="M67.459,212.473s-25.144,4.288-42.445-5.928c-9.823-5.8-17.118-16.279-15.846-34.87.019-.282.04-.565.063-.849,4.076-50.19,29.978-72.9,29.978-72.9,9.7-2.52,20.488.069,5.526,63.954-4.39,25.917,20.6,28.04,20.6,28.04Z" transform="translate(-1.027 -11.073)" fill="#fdb105"/>
                <path id="Path_924157" data-name="Path 924157" d="M42.936,96.742s21,13,19.982,29.275-9.017,22.2-9.017,22.2l-4.189,14.867s17.684-7.85,22.824-26.816S65.115,95.691,52.165,88.773s-9.228,7.969-9.228,7.969" transform="translate(-4.828 -9.891)" fill="#001736"/>
                <path id="Path_924158" data-name="Path 924158" d="M48.644,170.517a.778.778,0,0,1-.244-.039.788.788,0,0,1-.506-.993c.1-.31,10.08-31.216,10.252-47.545a.788.788,0,1,1,1.577.016c-.175,16.572-10.228,47.7-10.329,48.017a.789.789,0,0,1-.75.545" transform="translate(-5.444 -13.784)" fill="#ea8400"/>
                <path id="Path_924159" data-name="Path 924159" d="M58.814,135.538a.788.788,0,0,1-.67-1.2l4.6-7.466a.789.789,0,0,1,1.343.828l-4.6,7.466a.79.79,0,0,1-.672.375" transform="translate(-6.602 -14.391)" fill="#ea8400"/>
                <path id="Path_924160" data-name="Path 924160" d="M68.559,225.563a.788.788,0,0,1-.725-.479c-2.891-6.774-2.233-25.9-2.2-26.715a.788.788,0,0,1,1.576.058c-.008.195-.676,19.587,2.076,26.039a.789.789,0,0,1-.724,1.1" transform="translate(-7.457 -22.482)" fill="#ea8400"/>
                <path id="Path_924161" data-name="Path 924161" d="M71.937,227.908a47.333,47.333,0,0,1-12.876,1.685,46.261,46.261,0,0,1-12.442-1.655q-.146-.71-.277-1.461a.783.783,0,0,1,.615-.082,48.272,48.272,0,0,0,24.514.005.789.789,0,0,1,.465,1.508" transform="translate(-5.272 -25.753)" fill="#ea8400"/>
                <path id="Path_924162" data-name="Path 924162" d="M65.187,198.264c-.322,0-.652-.01-.993-.032-3.377-.217-8.287-1.7-12.491-7.517a.788.788,0,0,1,1.278-.923c7.332,10.151,16.909,6.079,17,6.036a.788.788,0,0,1,.636,1.443,14.555,14.555,0,0,1-5.435.993" transform="translate(-5.865 -21.555)" fill="#ea8400"/>
                <path id="Path_924163" data-name="Path 924163" d="M25.014,216.09c-9.822-5.8-17.116-16.279-15.844-34.87,6.913,7.646,18.033,22.222,15.844,34.87" transform="translate(-1.027 -20.617)" fill="#ea8400"/>
                <path id="Path_924164" data-name="Path 924164" d="M163.561,193.779c-11.641,12.238-30.443,13.486-30.443,13.486.332-9.285-2.582-22.82-4.431-29.6,0,0,10.1-3.013,7.272-19.734-15.909-44.475-14.033-63.041-10.083-62.31,0,0,32.768,19.241,43.985,70.28q.545,2.479,1.019,5.058c1.741,9.472-1.767,16.986-7.319,22.82" transform="translate(-14.009 -10.876)" fill="#fdb105"/>
                <path id="Path_924165" data-name="Path 924165" d="M168.7,202.8c-1.848-10.258,3.571-22.538,6.3-27.878q.545,2.479,1.019,5.058c1.741,9.472-1.767,16.986-7.319,22.82" transform="translate(-19.15 -19.901)" fill="#ea8400"/>
                <path id="Path_924166" data-name="Path 924166" d="M138.3,167.528a.773.773,0,0,1-.769-.7c-1.74-19.353-10.888-45.771-10.98-46.035a.773.773,0,1,1,1.461-.509c.093.266,9.3,26.864,11.06,46.4a.773.773,0,0,1-.7.839.618.618,0,0,1-.07,0" transform="translate(-14.393 -13.625)" fill="#ea8400"/>
                <path id="Path_924167" data-name="Path 924167" d="M130.511,133.1a.774.774,0,0,1-.66-.195l-6.15-5.717a.773.773,0,0,1,1.052-1.133l6.15,5.717a.773.773,0,0,1,.04,1.093.763.763,0,0,1-.432.235" transform="translate(-14.045 -14.318)" fill="#ea8400"/>
                <path id="Path_924168" data-name="Path 924168" d="M148.54,218.092a.838.838,0,0,0-1.121-.79c-6.1,2.178-13.157,3.9-13.253,3.923a.838.838,0,0,0,.2,1.652.85.85,0,0,0,.2-.024c.393-.1,7.316-1.786,13.425-3.971a.839.839,0,0,0,.554-.791" transform="translate(-15.191 -24.717)" fill="#ea8400"/>
                <path id="Path_924169" data-name="Path 924169" d="M129.284,182.187a.773.773,0,0,1-.485-1.375c1.172-.941,11.575-9.158,16.118-7.957a.773.773,0,0,1-.4,1.5c-3.215-.851-11.74,5.246-14.754,7.668a.771.771,0,0,1-.484.17" transform="translate(-14.62 -19.652)" fill="#ea8400"/>
                <path id="Path_924170" data-name="Path 924170" d="M305.528,173.613a18.085,18.085,0,0,0-.2-5.862q-.089-.488-.2-.988c-2.251-9.932-7.867-23.213-16.693-39.472-6.377-11.749-12.086-20.716-12.327-21.092a12.416,12.416,0,0,0-20.934,13.355c2.649,4.151,7.333,11.933,12.028,20.675a12.415,12.415,0,0,0-8.356,20.762c.222.242,5.5,6.009,11.385,11.605a97.877,97.877,0,0,0,9.511,8.146,30.506,30.506,0,0,0,5.666,3.361,17.475,17.475,0,0,0,3.812,1.181,14.279,14.279,0,0,0,6.754-.338,13.264,13.264,0,0,0,2.357-.953,13.672,13.672,0,0,0,7.2-10.382" transform="translate(-28.809 -11.429)" fill="#fff"/>
                <path id="Path_924171" data-name="Path 924171" d="M303.82,192.634a13.332,13.332,0,0,1-2.357.953c-.12-7.888,5.643-14.051,9.357-17.2a18.085,18.085,0,0,1,.2,5.862,13.673,13.673,0,0,1-7.2,10.382" transform="translate(-34.297 -20.068)" fill="#e0e0e0"/>
                <path id="Path_924172" data-name="Path 924172" d="M300.775,172.607a.67.67,0,0,1-.385-.221c-3.831-4.421-13.953-10.885-14.054-10.949a.671.671,0,1,1,.721-1.133c.422.269,10.389,6.635,14.348,11.2a.671.671,0,0,1-.629,1.1" transform="translate(-32.541 -18.226)" fill="#e0e0e0"/>
                <path id="Path_924173" data-name="Path 924173" d="M299.011,169.81a.671.671,0,0,1-.513-.44l-2.684-7.715a.671.671,0,1,1,1.267-.44l2.684,7.714a.672.672,0,0,1-.414.854.663.663,0,0,1-.341.027" transform="translate(-33.65 -18.29)" fill="#e0e0e0"/>
                <path id="Path_924174" data-name="Path 924174" d="M195.644,267.089c.144.576.3,1.141.468,1.692.006.02.012.043.018.064q.347,1.121.764,2.149c2.48,6.071,21.644,6.96,40.51,4.85,14.633-1.636,29.088-5.082,35.434-9.32,5.96-3.978-6.733-40.688-6.733-40.688l-71.576,15.023s-1.61,15.265,1.115,26.231" transform="translate(-22.078 -25.693)" fill="#001736"/>
                <path id="Path_924175" data-name="Path 924175" d="M244.466,279.673,256.191,380.89c-2.7,17.031,4.569,86.768,4.569,86.768l21.076-.638,6.12-92.374c-.14-26.743-2.956-63.713-7.107-104.047-.065-.618-.126-1.235-.193-1.856q-.316-3.087-.65-6.2c-.058-.554-.118-1.107-.176-1.663l-6.89,3.173-1.689.779L244.19,277.294Z" transform="translate(-27.781 -29.68)" fill="#001736"/>
                <path id="Path_924176" data-name="Path 924176" d="M263.234,462.2H265c-6.8-57.994-2.153-81.939-2.1-82.179a.878.878,0,0,0,.011-.289L250.262,283.2a.878.878,0,1,0-1.741.228l12.628,96.393c-.387,2.127-4.439,26.576,2.085,82.38" transform="translate(-28.273 -32.133)" fill="#28536f"/>
                <path id="Path_924177" data-name="Path 924177" d="M266.14,247.4c.085.454,1.815,9.426,7.607,15.781a20.357,20.357,0,0,0,4.028,3.439,17,17,0,0,0,3.735,1.812,15.2,15.2,0,0,0,1.835.518c-.065-.618-.126-1.235-.193-1.856-.3-.076-.588-.161-.878-.258a15.393,15.393,0,0,1-3.55-1.692,18.009,18.009,0,0,1-3.288-2.743c-5.781-6.041-7.549-15.216-7.569-15.324a.878.878,0,1,0-1.727.322" transform="translate(-30.277 -28.028)" fill="#28536f"/>
                <path id="Path_924178" data-name="Path 924178" d="M249.26,273.051a.721.721,0,0,1-.691.741h-.005a.72.72,0,0,1-.766-.67c-.129-2.646-.284-5.357-.455-8.064-.03-.477-.059-.953-.093-1.43-.575-8.846-1.306-17.532-1.858-23.663-.045-.5-.088-.977-.131-1.438-.122-1.346-.234-2.539-.329-3.55.485-.075.97-.153,1.45-.234.095,1.01.206,2.215.331,3.574.043.462.085.944.131,1.439.545,6.078,1.272,14.687,1.847,23.48.034.485.064.973.1,1.457.175,2.807.337,5.618.471,8.358" transform="translate(-27.866 -26.706)" fill="#28536f"/>
                <path id="Path_924179" data-name="Path 924179" d="M250.582,263.827a19.18,19.18,0,0,1-2.557.979,14.585,14.585,0,0,1-1.445.364,10.368,10.368,0,0,1-1.385.18,5.041,5.041,0,0,1-2.456-.385,2.993,2.993,0,0,1-1.665-2.234c-.532-2.73-1.649-14-2.4-21.97-.048-.489-.092-.968-.136-1.432-.119-1.275-.225-2.434-.316-3.42.484-.058.97-.117,1.456-.182.091.991.2,2.165.322,3.456q.065.694.133,1.433c.754,7.951,1.867,19.2,2.383,21.848a1.575,1.575,0,0,0,.882,1.235,5.176,5.176,0,0,0,3.092.04c.493-.106.983-.245,1.441-.392a17.517,17.517,0,0,0,2.008-.787.741.741,0,0,1,.979.317.7.7,0,0,1-.333.947" transform="translate(-27.102 -26.819)" fill="#28536f"/>
                <path id="Path_924180" data-name="Path 924180" d="M194.714,256.025s.508,5.695,1.316,14.422c.05.544.1,1.1.154,1.672a.05.05,0,0,1,0,.02.28.28,0,0,0,.008.064q.08.855.16,1.74c2.042,21.985,5.549,58.495,7.848,76.053,0,0-.342,33.04.881,58.536,1.133,23.69,9.3,52.11,10.455,59.134h21.727l.213-3.12V267.572a212.769,212.769,0,0,0-20.259-8.234c-.566-.193-1.135-.381-1.708-.569-1.083-.351-2.169-.69-3.249-1.007q-.863-.253-1.717-.488c-6.463-1.771-12.467-2.648-15.833-1.249" transform="translate(-22.152 -29.049)" fill="#001736"/>
                <path id="Path_924181" data-name="Path 924181" d="M218.281,461.283c-1.919-10.194-5.426-29.231-7.247-41.582-2.565-17.406-1.3-66.367-1.288-66.859a.855.855,0,0,0-.005-.126c-1.927-16.378-5.867-72.919-5.906-73.488a.878.878,0,1,0-1.752.121c.039.569,3.972,57.009,5.906,73.509-.052,2.035-1.237,49.831,1.308,67.1,1.8,12.249,5.262,31.042,7.2,41.326Z" transform="translate(-22.991 -31.674)" fill="#28536f"/>
                <path id="Path_924182" data-name="Path 924182" d="M196.373,271.879a.049.049,0,0,1,0,.02.287.287,0,0,0,.008.065c.053.569.106,1.15.16,1.739a14.141,14.141,0,0,0,7.291-.653c4.5-1.63,8.025-5.308,10.586-8.971a43.242,43.242,0,0,0,2.987-4.979,42.4,42.4,0,0,0,2.093-4.691.879.879,0,0,0-1.655-.589,41.387,41.387,0,0,1-2.146,4.71,42.248,42.248,0,0,1-2.785,4.59c-2.4,3.419-5.639,6.819-9.684,8.281a12.489,12.489,0,0,1-6.859.479" transform="translate(-22.341 -28.81)" fill="#28536f"/>
                <path id="Path_924183" data-name="Path 924183" d="M230.088,73.638s-48.472-13.018-63.982,35.731-3.324,101.375,22.712,108.577,64.26-21.051,64.26-21.051Z" transform="translate(-18.118 -8.198)" fill="#001736"/>
                <path id="Path_924184" data-name="Path 924184" d="M174.845,68.674s32.279-10.078,69.309-8.648c0,0,10.579,9.4,1.731,23.79L181.469,94.887s-8.436-15.927-6.624-26.213" transform="translate(-19.863 -6.813)" fill="#fdb105"/>
                <path id="Path_924185" data-name="Path 924185" d="M199.7,63.946S214.057,70.326,209.626,90l4.431-1.6s5.229-15.332-8.929-25.245c0,0-3.124-1.342-5.428.785" transform="translate(-22.72 -7.138)" fill="#001736"/>
                <path id="Path_924186" data-name="Path 924186" d="M169.775,73a6.75,6.75,0,0,1,11.884.378,27.43,27.43,0,0,1,2.7,9.535c1,9.886-3.017,16.588-8.446,11.969s-9.072-16.569-6.226-21.728c.028-.051.057-.1.086-.153" transform="translate(-19.192 -7.922)" fill="#ea8400"/>
                <path id="Path_924187" data-name="Path 924187" d="M178.882,94.545a2.975,2.975,0,0,1-.872-.134c-2.065-.628-4.081-3.542-5.394-7.8A43.5,43.5,0,0,1,171,75.673a.445.445,0,0,1,.442-.445h0a.443.443,0,0,1,.443.442,42.563,42.563,0,0,0,1.576,10.683c1.19,3.853,3.076,6.683,4.806,7.209a2.187,2.187,0,0,0,2.114-.51c1.018-.825,1.523-2.821,1.419-5.62-.206-5.551-2.668-12.371-5.067-14.033a.708.708,0,0,0-.884-.057c-1.024.68-1.647,3.62-.783,7.733,1.219,5.807,2.964,9.172,3.584,9.4a.43.43,0,0,0,.251-.235c.887-1.58-.647-7.974-1.317-9.806a.443.443,0,0,1,.832-.3c.336.919,2.5,8.331,1.258,10.543a1.289,1.289,0,0,1-.879.678c-.262.052-1.061.212-2.391-2.818a38.608,38.608,0,0,1-2.206-7.274c-1-4.78-.14-7.791,1.161-8.654a1.607,1.607,0,0,1,1.878.067c2.878,2,5.25,9.422,5.447,14.729.081,2.182-.156,5.053-1.747,6.341a3.243,3.243,0,0,1-2.057.8" transform="translate(-19.455 -8.229)" fill="#fdb105"/>
                <path id="Path_924188" data-name="Path 924188" d="M273.546,217.5a41.888,41.888,0,0,1-5.3,4.117c-.059.043-.12.081-.183.12-1.358.9-2.806,1.763-4.327,2.576-.545.289-1.095.575-1.656.852a74.309,74.309,0,0,1-14.85,5.391q-.735.191-1.483.358-2.152.505-4.369.9c-.494.094-.992.175-1.491.255a88.145,88.145,0,0,1-17.741,1.048q-1.067-.044-2.134-.119-2.842-.185-5.685-.584c-.047,0-.09-.012-.136-.017-.571-.081-1.141-.166-1.712-.26a75.934,75.934,0,0,1-9.118-2.057,67.507,67.507,0,0,1-7.725-2.76c-.43-.178-.855-.37-1.281-.557q-.8-.364-1.585-.745c-.046-.021-.1-.043-.149-.068-3.117-8.518-6.541-38.92-7.461-48.007q-.274-2.716-.451-5.43c-.328-4.932-.43-9.88-.379-14.913.035-3.377.136-6.784.285-10.255.018-.507.043-1.014.064-1.521,0-.038,0-.076,0-.115.021-.459.043-.92.068-1.383q.179-3.636.4-7.359c.319-5.272.689-10.7,1.043-16.357.575-9.1,2.508-16.268,5.737-21.119a18.582,18.582,0,0,1,2.683-3.22,14.217,14.217,0,0,1,7.669-3.8,40.994,40.994,0,0,0,4.962-1.094c.281-.076.549-.157.817-.242.847-.261,1.644-.541,2.389-.827.861-.332,1.652-.677,2.376-1.017l.337-.158c.191-.1.383-.188.566-.285a29.965,29.965,0,0,0,4.829-2.986h21.3c.167.243.337.478.507.7.017.018.026.035.039.047a15.932,15.932,0,0,0,5.025,4.246c.349.2.707.375,1.06.545.277.136.554.26.835.384s.583.243.877.358c.7.272,1.4.515,2.108.744.008,0,.017,0,.025,0,5.162,1.648,10.409,2.355,13.287,6.166a9.688,9.688,0,0,1,1.141,1.972,12.275,12.275,0,0,1,.758,2.487,10.181,10.181,0,0,1,.188,1.7c.208,6.247-3.385,17.959-2.969,39.685q.039,2.031.128,4.17c.018.425.035.856.056,1.286.043.882.09,1.776.149,2.687v0c.056.911.115,1.84.187,2.781.129,1.755.286,3.569.473,5.425q.237,2.446.554,5.02c.213,1.755.447,3.556.715,5.4,1.048,7.35,3.407,21.94,5.885,34.2.387,1.929.783,3.8,1.175,5.574.043.188.081.37.124.554.438,1.975.92,3.829,1.35,5.5" transform="translate(-20.97 -9.768)" fill="#fff"/>
                <path id="Path_924189" data-name="Path 924189" d="M197.448,232.4a.621.621,0,0,1-.595-.472,311.282,311.282,0,0,1-8.167-58.715c-.691-15.374-.051-25.493-.043-25.593a.62.62,0,0,1,1.238.081c-.006.1-.643,10.166.045,25.478a310.076,310.076,0,0,0,8.132,58.454.621.621,0,0,1-.455.751.629.629,0,0,1-.156.018" transform="translate(-21.43 -16.729)" fill="#e0e0e0"/>
                <path id="Path_924190" data-name="Path 924190" d="M247.1,119.81a26.731,26.731,0,0,1-11.831.829,48.916,48.916,0,0,1-14.084-4.261.531.531,0,0,1-.245-.666.436.436,0,0,1,.612-.23,47.963,47.963,0,0,0,13.807,4.171c9.915,1.286,17.094-1.721,21.335-8.938a.438.438,0,0,1,.641-.133.533.533,0,0,1,.155.692,18.546,18.546,0,0,1-10.239,8.484l-.152.051" transform="translate(-25.131 -12.571)" fill="#e0e0e0"/>
                <path id="Path_924191" data-name="Path 924191" d="M245.47,111.135c-4.768,1.569-11.664-.708-12.045-.836a.531.531,0,0,1-.331-.627.44.44,0,0,1,.57-.323c.116.039,11.639,3.843,14.625-1.615a.438.438,0,0,1,.635-.154.534.534,0,0,1,.175.688,6.137,6.137,0,0,1-3.631,2.866" transform="translate(-26.517 -12.231)" fill="#e0e0e0"/>
                <path id="Path_924192" data-name="Path 924192" d="M249.757,211.412a33.6,33.6,0,0,1-5.762-.51,47.991,47.991,0,0,1-14.981-5.554,71.914,71.914,0,0,1-14.757-10.988.531.531,0,0,1-.02-.709.435.435,0,0,1,.652-.021,70.973,70.973,0,0,0,14.566,10.837c7.884,4.383,19.7,8.6,31.215,3.786a.453.453,0,0,1,.6.289.516.516,0,0,1-.266.648,28.933,28.933,0,0,1-11.245,2.223" transform="translate(-24.359 -22.013)" fill="#e0e0e0"/>
                <path id="Path_924193" data-name="Path 924193" d="M240.1,198.549a33.632,33.632,0,0,1-4.986-2.933,47.987,47.987,0,0,1-11.147-11.447,71.878,71.878,0,0,1-8.612-16.258.533.533,0,0,1,.286-.649.437.437,0,0,1,.6.261,70.964,70.964,0,0,0,8.5,16.04c5.239,7.343,14.1,16.221,26.569,16.817a.452.452,0,0,1,.416.517.516.516,0,0,1-.518.471,28.943,28.943,0,0,1-11.111-2.819" transform="translate(-24.497 -19.025)" fill="#e0e0e0"/>
                <path id="Path_924194" data-name="Path 924194" d="M215.262,27.691s-6.392,3.851-3.7,11.133c1.721,4.648-2.751,9.606,1.2,13.714s8.419.355,8.419.355-2.674-16.81,2.149-17.919,10.637-4.514,17.536-2.926,12.553.76,13.484-2.412S250.6,26,252.863,23.725c4.583-4.606-1.275-10.217-6.616-7.79-2.674,1.215-6.8,4.319-12.209,3.271s-13.323-.167-17.278,2.267-1.5,6.218-1.5,6.218" transform="translate(-23.994 -1.746)" fill="#001736"/>
                <path id="Path_924195" data-name="Path 924195" d="M243.344,78.055l.358,5.368a16.715,16.715,0,0,1-1.811,1.458c-8.947,6.219-19.464-.04-19.464-.04l-1.24-18.611L240.7,76.645Z" transform="translate(-25.164 -7.535)" fill="#cd6061"/>
                <path id="Path_924196" data-name="Path 924196" d="M244.143,79.094l.358,5.368a16.714,16.714,0,0,1-1.811,1.458c-8.145-2.613-14.477-10.554-14.477-10.554L241.5,77.684Z" transform="translate(-25.964 -8.574)" fill="#001736"/>
                <path id="Path_924197" data-name="Path 924197" d="M221.47,76s-3.545.709-2.3,2.659,1.418,8.862,1.418,8.862,18.788,6.026,24.637,0a34.706,34.706,0,0,1-.354-6.735c.177-1.241-2.464.48-5.317.886C229.223,83.142,221.47,76,221.47,76" transform="translate(-24.904 -8.646)" fill="#fff"/>
                <path id="Path_924198" data-name="Path 924198" d="M238.068,89.626c-5.019.08-10.925-4.145-11.251-4.381a.529.529,0,0,1-.129-.7.439.439,0,0,1,.64-.139c.1.073,9.969,7.131,14.444,2.808a.436.436,0,0,1,.652.043.532.532,0,0,1-.037.708,6.138,6.138,0,0,1-4.319,1.656" transform="translate(-25.781 -9.594)" fill="#e0e0e0"/>
                <path id="Path_924199" data-name="Path 924199" d="M244.17,30.175s13.051.356,9.273,14.236c0,0-9.336-10.67-9.273-14.236" transform="translate(-27.779 -3.433)" fill="#001736"/>
                <path id="Path_924200" data-name="Path 924200" d="M251.968,52s2.808-3.8,4.771-.318,1.124,10.865-3.595,9.982Z" transform="translate(-28.666 -5.712)" fill="#b54357"/>
                <path id="Path_924201" data-name="Path 924201" d="M252.243,62.042s.756,11.1-10.789,11.841c-11.473.743-19.891-7.746-20.326-8.136a.048.048,0,0,0-.013-.01l-.281-2.324-1.459-12.062L218.6,44.9s-2.242-11.553,8.689-14.415c7.986-2.092,15.662-1.254,19.771,2.711a9.959,9.959,0,0,1,2.925,5.676l1.133,11.6.277,2.843Z" transform="translate(-24.848 -3.342)" fill="#cd6061"/>
                <path id="Path_924202" data-name="Path 924202" d="M243.657,54.669a.417.417,0,0,1-.2-.746l2.3-1.743-2.074-1.03a.42.42,0,0,1-.222-.283l-1-4.456a.417.417,0,1,1,.814-.182l.954,4.261,2.5,1.242a.416.416,0,0,1,.067.705l-2.832,2.15a.415.415,0,0,1-.306.082" transform="translate(-27.584 -5.222)" fill="#001736"/>
                <path id="Path_924203" data-name="Path 924203" d="M235.056,42.571s-3.705,1.3-4.343,4.411,2.956,1.515,4.351.477,2.162-.951,2.892-1.982a2.1,2.1,0,0,0-2.9-2.905" transform="translate(-26.239 -4.807)" fill="#001736"/>
                <path id="Path_924204" data-name="Path 924204" d="M248.524,41.414s3.749,1.174,4.494,4.257-2.9,1.616-4.331.627-2.194-.876-2.959-1.881a2.1,2.1,0,0,1,2.8-3" transform="translate(-27.909 -4.68)" fill="#001736"/>
                <path id="Path_924205" data-name="Path 924205" d="M225.682,53.985s3.416,5.985,6.878,4.688,7.513-2,10.824-.721c0,0,5.262-2.364,8.626-.361,2.255,1.344,2.008,16.153-5.443,18.781s-17.854.643-20.8-6.352a41.907,41.907,0,0,1-3.193-13.1Z" transform="translate(-25.322 -6.142)" fill="#001736"/>
                <path id="Path_924206" data-name="Path 924206" d="M247.19,64.241c-1.5.744-3.921,1.169-7.349-.534a.43.43,0,0,1,.383-.77c5.619,2.793,8.1-.626,8.124-.66a.43.43,0,0,1,.7.493,5.344,5.344,0,0,1-1.863,1.472" transform="translate(-27.259 -7.064)" fill="#28536f"/>
                <path id="Path_924207" data-name="Path 924207" d="M243.744,70.013a5.478,5.478,0,0,1-2.255-.827.417.417,0,0,1,.476-.685,4.447,4.447,0,0,0,3.734.485.417.417,0,0,1,.288.783,4.709,4.709,0,0,1-2.243.244" transform="translate(-27.454 -7.785)" fill="#28536f"/>
                <path id="Path_924208" data-name="Path 924208" d="M237.476,55.766c.054.808-1.567,1.574-3.619,1.71s-3.76-.407-3.814-1.215,1.567-1.574,3.619-1.71,3.76.407,3.814,1.215" transform="translate(-26.171 -6.204)" fill="#b54357"/>
                <path id="Path_924209" data-name="Path 924209" d="M255.021,56.024c-.284.048-.585.082-.893.1-2.051.136-3.759-.409-3.813-1.217s1.567-1.574,3.618-1.71c.278-.019.549-.024.811-.018Z" transform="translate(-28.478 -6.05)" fill="#b54357"/>
                <path id="Path_924210" data-name="Path 924210" d="M237.22,51.175c.073,1.11-.37,2.043-.99,2.084s-1.186-.825-1.258-1.935.369-2.043.989-2.084,1.185.825,1.259,1.935" transform="translate(-26.732 -5.602)" fill="#001736"/>
                <path id="Path_924211" data-name="Path 924211" d="M249.608,50.35c.074,1.11-.37,2.043-.991,2.084s-1.184-.825-1.258-1.935.37-2.043.99-2.084,1.185.825,1.258,1.935" transform="translate(-28.141 -5.508)" fill="#001736"/>
                <path id="Path_924212" data-name="Path 924212" d="M224.754,65.064c-.044.126-1.28,3.611-3.314,4.744l-.012-.011-.28-2.324a8,8,0,0,0,3.606-2.41" transform="translate(-25.16 -7.402)" fill="#001736"/>
                <path id="Path_924213" data-name="Path 924213" d="M221.272,56.166S216.437,50.5,213.5,55.4c-2.422,4.038,3.313,13.758,8.385,9.959Z" transform="translate(-24.225 -6.076)" fill="#cd6061"/>
                <path id="Path_924214" data-name="Path 924214" d="M221.491,64a.458.458,0,0,1-.48-.377,7.643,7.643,0,0,0-4.841-5.853.457.457,0,0,1,.282-.87,8.562,8.562,0,0,1,5.461,6.563.458.458,0,0,1-.37.53.489.489,0,0,1-.051.006" transform="translate(-24.557 -6.471)" fill="#001736"/>
                <path id="Path_924215" data-name="Path 924215" d="M217.137,61.84a.457.457,0,0,1-.343-.791c.173-.16,1.723-1.56,3.119-1.3a.457.457,0,0,1-.167.9c-.8-.149-1.978.744-2.327,1.069a.454.454,0,0,1-.281.122" transform="translate(-24.648 -6.794)" fill="#001736"/>
                <path id="Path_924216" data-name="Path 924216" d="M247.055,33.2a2.011,2.011,0,0,1-.439,1.028c-2.087,2.5-7.442,2.021-12.456.83a8.648,8.648,0,0,0-8.225,2.6c1.679,4.612-2.922,5.3-1.7,8.8a28.474,28.474,0,0,1,1.159,8.228l-2.909-.188a7.041,7.041,0,0,0-3.111-3.15L218.6,44.9s-2.242-11.552,8.689-14.415c7.986-2.092,15.661-1.254,19.77,2.712" transform="translate(-24.848 -3.342)" fill="#001736"/>
                <path id="Path_924217" data-name="Path 924217" d="M194.886,96.565a50.709,50.709,0,0,1,18.339,32.5c2.736,21.184-10.372,49.881-27.378,57.19,0,0-4.806,4.2-1.718,12.762,0,0,34.965-7,40.721-52.165s-18.442-54.714-18.442-54.714c-3.19-1.6-9.749.709-11.521,4.431" transform="translate(-20.83 -10.424)" fill="#001736"/>
                <path id="Path_924218" data-name="Path 924218" d="M217.478,126.129a30.294,30.294,0,0,1,9.922-2.051,3.1,3.1,0,0,1,3.12,2.995c.155,4.281.331,12.56-.347,17.9a3.1,3.1,0,0,1-3.058,2.708l-8.613.061a3.1,3.1,0,0,1-3.112-3.414,68.2,68.2,0,0,0,.1-14.875,3.1,3.1,0,0,1,1.983-3.321" transform="translate(-24.503 -14.116)" fill="#28536f"/>
                <path id="Path_924219" data-name="Path 924219" d="M263.169,94.985s2.515,31.017,5.119,47.233c2.632,16.393,5.859,39.285,6.961,38.922,0,0,9.676-26.315,5.048-40.946s-5.065-33.71-8.1-39.531a10.468,10.468,0,0,0-9.031-5.678" transform="translate(-29.94 -10.806)" fill="#001736"/>
                <path id="Path_924220" data-name="Path 924220" d="M291.184,171.757s-1.776-6.859-3.978-9.709a6.223,6.223,0,0,0-5.095-2.649l-.189,3.565s-10.984-.788-12.47.826.825,4.027.825,4.027-.588-.483-.711,1.583,2.415,3.483,2.415,3.483-.631.623-.5,2.469,2.6,3.595,2.6,3.595a2.105,2.105,0,0,0,1.034,3.338c1.19.556,4.808,1.993,10.133-.089,2.438-.953,7.029-3.4,5.932-10.44" transform="translate(-30.599 -18.134)" fill="#cd6061"/>
                <path id="Path_924221" data-name="Path 924221" d="M276.666,122.811a30.286,30.286,0,0,0-10.107-.718,3.1,3.1,0,0,0-2.7,3.382c.413,4.263,1.336,12.492,2.715,17.692a3.1,3.1,0,0,0,3.39,2.279l8.545-1.08a3.1,3.1,0,0,0,2.631-3.8,68.2,68.2,0,0,1-2.074-14.73,3.1,3.1,0,0,0-2.406-3.028" transform="translate(-30.018 -13.872)" fill="#28536f"/>
                <path id="Path_924222" data-name="Path 924222" d="M206.545,174.494a189.445,189.445,0,0,1-18.808,8.849,85.746,85.746,0,0,1-16.174,4.936,34.727,34.727,0,0,1-9.108.551q-.533-.045-1.054-.113a21.43,21.43,0,0,1-5.809-1.554,18.353,18.353,0,0,1-4.317-2.617,17.778,17.778,0,0,1-6.409-11.708,23.585,23.585,0,0,1,.284-7.529,33.917,33.917,0,0,1,.934-3.705c1.512-4.89,4.643-11.033,9.57-18.78,3.567-5.605,8.112-12.111,13.509-19.335,9.072-12.142,17.389-22.095,17.739-22.514a8.131,8.131,0,0,1,3.631-2.585,105.684,105.684,0,0,1,12.039,24.37c-3.21,3.979-7.888,9.882-12.709,16.34a251.589,251.589,0,0,0-14.545,21.237c1.659-.606,3.541-1.348,5.67-2.26,7.092-3.034,13-6.27,13.063-6.3a12.963,12.963,0,0,1,12.493,22.717" transform="translate(-16.461 -11.194)" fill="#fff"/>
                <path id="Path_924223" data-name="Path 924223" d="M155.593,195.755a18.4,18.4,0,0,1-4.317-2.616,17.773,17.773,0,0,1-6.408-11.708,23.588,23.588,0,0,1,.284-7.529c4.771,3.15,14.538,11.16,10.442,21.854" transform="translate(-16.461 -19.785)" fill="#e0e0e0"/>
                <path id="Path_924224" data-name="Path 924224" d="M156.547,177.876a.7.7,0,0,1-.334-1.254c6.739-5.09,19.221-9.172,19.749-9.343a.7.7,0,0,1,.432,1.333c-.128.041-12.787,4.181-19.337,9.128a.7.7,0,0,1-.51.136" transform="translate(-17.741 -19.027)" fill="#e0e0e0"/>
                <path id="Path_924225" data-name="Path 924225" d="M175.145,169.277a.689.689,0,0,1-.212-.062c-2.688-1.274-7.74-1.244-7.791-1.243a.7.7,0,1,1-.012-1.4c.221,0,5.427-.032,8.4,1.378a.7.7,0,0,1-.388,1.328" transform="translate(-18.935 -18.951)" fill="#e0e0e0"/>
                <path id="Path_924226" data-name="Path 924226" d="M192.194,147.668a.7.7,0,0,1-.473-1.113l17.909-24.136a.7.7,0,1,1,1.126.836l-17.909,24.136a.7.7,0,0,1-.652.277" transform="translate(-21.796 -13.895)" fill="#e0e0e0"/>
                <path id="Path_924227" data-name="Path 924227" d="M210.749,132.089l-4.312-.549a.7.7,0,1,1,.177-1.391l4.312.549a.7.7,0,0,1-.177,1.39" transform="translate(-23.416 -14.806)" fill="#e0e0e0"/>
                <path id="Path_924228" data-name="Path 924228" d="M197,162.8s9.166-9.851,12.488-10.417,4.624.589,4.624.589l-.58,2.932s11.892-2.2,13.418-.872-.339,3.771-.339,3.771.487-.5.814,1.375-1.851,3.437-1.851,3.437.643.506.708,2.209-2.008,3.558-2.008,3.558.693,1.219-.46,3.615-11.158,6.631-17.884,6.2-12.285-8.912-8.93-16.4" transform="translate(-22.298 -17.319)" fill="#cd6061"/>
                <path id="Path_924229" data-name="Path 924229" d="M387.456,233.444s12.279,26.056-9.883,31.147-48.3-.971-61.695-8.686c-9.883-5.69,0-26.654,0-26.654s43.634,8.685,71.578,4.193" transform="translate(-35.437 -26.082)" fill="#fdb105"/>
                <path id="Path_924230" data-name="Path 924230" d="M321.847,348.288s2.984,33.957-4.948,62.439c-5.378,19.327-11.265,40.682-14.494,52.418q-.3,1.086-.568,2.06c-1.189,4.327-1.9,6.9-1.9,6.9l-2.844-.144-1.531-.074-13.594-.681.639-6,.222-2.06,12.314-115.388.678-6.353.043-.393.051-.474.021-.211.159-1.2.07-.524,10.216-77.293.2-1.524,2.338-17.689,13.365,4.127,1.467.453,22.006,6.8c-1.727,42.621-13.51,60.738-23.916,94.814" transform="translate(-32.08 -27.543)" fill="#fdb105"/>
                <path id="Path_924231" data-name="Path 924231" d="M309.52,260.8a17.367,17.367,0,0,0,7.989-2.723c4.648-2.988,7.592-7.805,9.38-11.911a38.485,38.485,0,0,0,2.457-7.658.748.748,0,0,0-1.471-.272,38.271,38.271,0,0,1-2.45,7.478c-1.716,3.882-4.483,8.377-8.733,11.105a15.847,15.847,0,0,1-6.973,2.456Z" transform="translate(-35.214 -27.034)" fill="#ea8400"/>
                <path id="Path_924232" data-name="Path 924232" d="M299.271,467.838h1.546q.254-.982.534-2.06c3.519-13.6,9.826-38.1,13.963-55.056,5.776-23.672,4.171-60.841,4.025-63.909,20.314-40.337,23.322-80.37,23.35-80.772a.75.75,0,0,0-1.5-.1c-.027.4-3.025,40.259-23.28,80.377a.762.762,0,0,0-.081.378c.022.389,1.973,39.306-3.971,63.674-4.173,17.1-10.556,41.9-14.057,55.411q-.28,1.079-.533,2.06" transform="translate(-34.048 -30.176)" fill="#ea8400"/>
                <path id="Path_924233" data-name="Path 924233" d="M395.474,346.388c-.02.648-.043,1.3-.064,1.953,0,.032,0,.065,0,.1q-.033,1.086-.07,2.184-.055,1.591-.109,3.212l-1.815,109.512-.035,2.057-.131,7.93H376.343s-.309-2.978-.858-7.93q-.108-.978-.23-2.057c-1.82-16.315-5.682-49.1-9.66-71.477-5.128-28.84-.9-41.629-.9-41.629s-7.853-70.955-8.436-89.371l26.959-5.422,1.694-.341,10.943-2.2s.113,2.806.235,8.132c.009.482.025.987.033,1.507.3,14.241.6,43.623-.65,83.845" transform="translate(-40.531 -28.773)" fill="#fdb105"/>
                <path id="Path_924234" data-name="Path 924234" d="M378.792,238.508c.081.44,1.7,8.811,6.987,15.2a21.242,21.242,0,0,0,4.852,4.37,17.39,17.39,0,0,0,8.053,2.729c-.009-.521-.021-1.025-.03-1.507a15.916,15.916,0,0,1-7.209-2.48,19.029,19.029,0,0,1-3.971-3.454c-5.484-6.2-7.191-15.023-7.212-15.13a.748.748,0,1,0-1.47.272" transform="translate(-43.093 -27.034)" fill="#ea8400"/>
                <path id="Path_924235" data-name="Path 924235" d="M378,467.191q-.124-.985-.259-2.057c-2.743-21.8-8.553-68.368-9.906-81.895a148.51,148.51,0,0,1,.257-32.119l-9.571-81.664a.749.749,0,1,1,1.488-.175l9.582,81.76a.692.692,0,0,1,0,.2,145.811,145.811,0,0,0-.263,31.853c1.355,13.551,7.194,60.323,9.928,82.043q.134,1.07.257,2.057Z" transform="translate(-40.788 -30.561)" fill="#ea8400"/>
                <path id="Path_924236" data-name="Path 924236" d="M368.058,88.031h-6.09a24.878,24.878,0,0,1-24.894-23.263c-.014-.23-.026-.461-.036-.694a29.725,29.725,0,0,1,2.746-13.753c.879-4.039,2.332-7.425,4.608-9.462C354.677,31.643,362.3,33.2,362.3,33.2c4.169-1.208,17.246-.515,24.215,11.076l0,0a29.938,29.938,0,0,1,6.474,19.8q-.016.348-.036.694a24.878,24.878,0,0,1-24.894,23.263" transform="translate(-38.341 -3.728)" fill="#001736"/>
                <path id="Path_924237" data-name="Path 924237" d="M373.6,31.505s1.965-13.814,14.283-11.349,16.806,18.649,4.432,24.542S373.6,31.505,373.6,31.505" transform="translate(-42.504 -2.26)" fill="#001736"/>
                <path id="Path_924238" data-name="Path 924238" d="M378.254,84.4s20.206,2.836,15.952,16.661,1.241,12.053-18.256,11.167-39.368-1.99-35.8-9.749c3.013-6.558.75-18.615,38.108-18.079" transform="translate(-38.651 -9.6)" fill="#001736"/>
                <path id="Path_924239" data-name="Path 924239" d="M315.287,200.41a203.216,203.216,0,0,0,8.754-33.212c.2-1.213.356-2.286.467-3.187.03-.237.057-.461.078-.674,0-.03.006-.057.009-.084,0,0-.2-.194-.533-.554-1.462-1.563-5.514-6.244-6.954-11.425-1.771-6.368,5.394-18.449,7.871-31.54s1.147-16.867,22.156-19.224l24.122-3.839s9.92,3.736,18,6.431c12.368,4.125,12.958,17.022,7.815,29-1.18,2.746-2.306,5.594-3.354,8.455-.144.385-.284.769-.422,1.156-3.507,9.74-6.131,19.515-7.1,26.029-2.019,13.5-1.417,11.85,4.57,38.631,0,0,1.184,8.277,2.489,18.871,1.445,11.734,5.957,26.952-2.958,29.192s-26.054,3.346-43.361,1.213c-18.363-2.263-36.055-8.775-37.456-14.936s1.741-22.964,5.81-40.308" transform="translate(-35.17 -10.998)" fill="#001736"/>
                <path id="Path_924240" data-name="Path 924240" d="M328.633,116.546c-.112.418-1.844,6.9-3.978,13.324-.376-.062-.75-.127-1.124-.191,2.19-6.575,3.994-13.317,4.021-13.422a.56.56,0,0,1,1.081.29" transform="translate(-36.808 -13.179)" fill="#28536f"/>
                <path id="Path_924241" data-name="Path 924241" d="M342.159,235.125a58.546,58.546,0,0,0,19.148-3.579,89.2,89.2,0,0,0,17.866-8.619.7.7,0,1,0-.775-1.166,87.736,87.736,0,0,1-17.582,8.474c-9.194,3.206-22.486,5.837-33.6.167a.7.7,0,1,0-.636,1.247,33.971,33.971,0,0,0,15.582,3.476" transform="translate(-37.111 -25.216)" fill="#28536f"/>
                <path id="Path_924242" data-name="Path 924242" d="M338.626,211.49a58.533,58.533,0,0,0,19.316,2.518,89.3,89.3,0,0,0,19.656-2.672.7.7,0,1,0-.377-1.349,87.773,87.773,0,0,1-19.34,2.621c-9.735.206-23.19-1.4-32.007-10.232a.7.7,0,1,0-.991.99,33.981,33.981,0,0,0,13.743,8.123" transform="translate(-36.938 -23.001)" fill="#28536f"/>
                <path id="Path_924243" data-name="Path 924243" d="M364.31,259.235a196.8,196.8,0,0,0,30.7-2.4.7.7,0,0,0-.246-1.379,195.807,195.807,0,0,1-31.118,2.38c-15.808-.059-37.8-2.286-52.8-12.565a.7.7,0,1,0-.791,1.155c15.3,10.485,37.6,12.754,53.609,12.81h.641" transform="translate(-35.241 -27.89)" fill="#28536f"/>
                <path id="Path_924244" data-name="Path 924244" d="M398.146,273.548a.7.7,0,0,0,.682-.542c1.31-5.614,1.332-14.283,1.333-14.649a.7.7,0,0,0-1.4,0c0,.089-.023,8.876-1.3,14.333a.7.7,0,0,0,.682.86" transform="translate(-45.217 -29.313)" fill="#28536f"/>
                <path id="Path_924245" data-name="Path 924245" d="M386.887,274.64a.7.7,0,0,0,.682-.542c1.312-5.62,1.182-13.61,1.176-13.947a.691.691,0,0,0-.713-.688.7.7,0,0,0-.687.713c0,.081.131,8.154-1.141,13.6a.7.7,0,0,0,.682.86" transform="translate(-43.936 -29.519)" fill="#28536f"/>
                <path id="Path_924246" data-name="Path 924246" d="M371.891,275.441a.7.7,0,0,0,.682-.541c1.312-5.62,1.193-13.66,1.187-14a.7.7,0,1,0-1.4.023c0,.082.121,8.208-1.151,13.659a.7.7,0,0,0,.682.86" transform="translate(-42.23 -29.604)" fill="#28536f"/>
                <path id="Path_924247" data-name="Path 924247" d="M357.684,274.64a.7.7,0,0,0,.7-.657c.357-5.781,1.3-13.657,1.311-13.736a.7.7,0,1,0-1.391-.167c-.009.08-.959,8-1.318,13.816a.7.7,0,0,0,.656.743h.043" transform="translate(-40.614 -29.519)" fill="#28536f"/>
                <path id="Path_924248" data-name="Path 924248" d="M343.766,273.034l.047,0a.7.7,0,0,0,.652-.745c-.322-4.818,1.289-13.716,1.3-13.8a.7.7,0,1,0-1.377-.252c-.068.371-1.658,9.16-1.325,14.15a.7.7,0,0,0,.7.653" transform="translate(-39.025 -29.313)" fill="#28536f"/>
                <path id="Path_924249" data-name="Path 924249" d="M328.378,269.566a.7.7,0,0,0,.7-.7,122.575,122.575,0,0,1,1.306-13.912.7.7,0,1,0-1.384-.209,121.146,121.146,0,0,0-1.322,14.121.7.7,0,0,0,.7.7" transform="translate(-37.28 -28.914)" fill="#28536f"/>
                <path id="Path_924250" data-name="Path 924250" d="M315.386,264.184a.7.7,0,0,0,.7-.7,67,67,0,0,1,1.716-12.714.7.7,0,0,0-1.361-.328,67.136,67.136,0,0,0-1.755,13.036.7.7,0,0,0,.7.7Z" transform="translate(-35.802 -28.432)" fill="#28536f"/>
                <path id="Path_924251" data-name="Path 924251" d="M326.5,171.732q-.033.319-.079.674a37.484,37.484,0,0,0,15.178-.17,34.531,34.531,0,0,1,21.749,3.225.591.591,0,0,0,.3.081.606.606,0,0,0,.522-.3.6.6,0,0,0-.222-.818,35.157,35.157,0,0,0-22.576-3.363,35.626,35.626,0,0,1-15.394.033c.334.36.532.554.532.554,0,.027-.005.054-.008.084" transform="translate(-37.086 -19.392)" fill="#28536f"/>
                <path id="Path_924252" data-name="Path 924252" d="M346.34,135.793c7.294,0,22.177-10.447,22.807-10.892a.6.6,0,0,0-.69-.978c-.152.106-15.2,10.672-22.117,10.672-6.617,0-8.083-7.228-8.1-7.3a.6.6,0,0,0-1.176.226c.016.083,1.679,8.273,9.274,8.273" transform="translate(-38.346 -14.086)" fill="#28536f"/>
                <path id="Path_924253" data-name="Path 924253" d="M376.087,80.35s13.732-5.2,13.438-20.339-8.692-25.468-24.233-23.4c0,0-4.906,42.9,10.8,43.743" transform="translate(-41.476 -4.135)" fill="#001736"/>
                <path id="Path_924254" data-name="Path 924254" d="M342.112,49.449s-3.18,12.482-1.143,14.659,5.046-2.5,5.046-2.5-1.483-11.66-3.9-12.162" transform="translate(-38.714 -5.626)" fill="#001736"/>
                <path id="Path_924255" data-name="Path 924255" d="M345.541,67.875s-3.286-3.883-5.145,0-.429,11.743,4.573,10.457Z" transform="translate(-38.638 -7.526)" fill="#b54357"/>
                <path id="Path_924256" data-name="Path 924256" d="M355.669,89.84v10.709s5.645,9.246,22.5-1.958c-3.193-3.564-3.29-10.45-2-14.558a23.442,23.442,0,0,1-3.276,1.742q-.626.28-1.343.583c-4.211,1.768-10.548,3.894-15.879,3.481" transform="translate(-40.464 -9.56)" fill="#cd6061"/>
                <path id="Path_924257" data-name="Path 924257" d="M355.669,90.063v5.013c4.581-1.02,12.614-3.518,17.222-9.077q-.626.28-1.343.583c-4.211,1.768-10.548,3.894-15.879,3.481" transform="translate(-40.464 -9.784)" fill="#001736"/>
                <path id="Path_924258" data-name="Path 924258" d="M342.593,65.1c0,1.108.011,2.153.027,3.14.115,7.4.627,11.46,2.4,13.3,9,9.306,28.968-1.8,29.61-2.161a.077.077,0,0,0,.017-.012q.275-1.251.5-2.476a65.152,65.152,0,0,0,.647-19.463,14.738,14.738,0,0,0-9.559-14.652c-6.28-2.286-11.912.475-15.3,1.516-5.109,1.577-8.323,8.177-8.35,17.583,0,1.13-.005,2.2,0,3.225" transform="translate(-38.976 -4.767)" fill="#cd6061"/>
                <path id="Path_924259" data-name="Path 924259" d="M349.748,75.925c1.667.436,4.2.357,7.307-2.083a.443.443,0,1,0-.548-.7c-5.087,4-8.31,1.069-8.341,1.039a.443.443,0,1,0-.608.645,5.506,5.506,0,0,0,2.19,1.1" transform="translate(-39.525 -8.311)" fill="#001736"/>
                <path id="Path_924260" data-name="Path 924260" d="M351.627,79.482a3.29,3.29,0,0,1-1.391-.451.313.313,0,0,1,.35-.518,3.255,3.255,0,0,0,2.445.262.313.313,0,1,1,.142.609,4.563,4.563,0,0,1-1.546.1" transform="translate(-39.83 -8.926)" fill="#001736"/>
                <path id="Path_924261" data-name="Path 924261" d="M359.788,57.125s-1.834-.4-1.734,1.433,4.242,1.184,5.826,5.008c0,0,2.345-3.558-4.092-6.441" transform="translate(-40.735 -6.495)" fill="#001736"/>
                <path id="Path_924262" data-name="Path 924262" d="M347.295,57.1s1.827-.431,1.761,1.4-4.22,1.262-5.733,5.114c0,0-2.41-3.514,3.972-6.516" transform="translate(-39.009 -6.491)" fill="#001736"/>
                <path id="Path_924263" data-name="Path 924263" d="M359.519,69.651c0,.871,1.794,1.577,4.008,1.577s4.008-.706,4.008-1.577-1.795-1.577-4.008-1.577-4.008.706-4.008,1.577" transform="translate(-40.902 -7.745)" fill="#b54357"/>
                <path id="Path_924264" data-name="Path 924264" d="M351.18,68.785a4.807,4.807,0,0,0,2.275-.557.492.492,0,0,0-.466-.868,3.857,3.857,0,0,1-2.017.436l1.623-4.647a.492.492,0,1,0-.93-.324l-1.821,5.217a.49.49,0,0,0,.342.639,4.289,4.289,0,0,0,.994.1" transform="translate(-39.798 -7.11)" fill="#001736"/>
                <g id="Group_1119123" data-name="Group 1119123" transform="translate(303.617 60.336)" opacity="0.8">
                  <g id="Group_1119122" data-name="Group 1119122">
                    <g id="Group_1119121" data-name="Group 1119121" clip-path="url(#clip-path-6)">
                      <path id="Path_924265" data-name="Path 924265" d="M342.593,68.083c0,1.108.011,2.153.027,3.14,2.032-.077,3.617-.752,3.617-1.571s-1.6-1.5-3.644-1.569" transform="translate(-342.593 -68.082)" fill="#b54357"/>
                    </g>
                  </g>
                </g>
                <path id="Path_924266" data-name="Path 924266" d="M359.3,65.072c0,1.2.542,2.166,1.212,2.166s1.211-.97,1.211-2.166-.542-2.166-1.211-2.166-1.212.97-1.212,2.166" transform="translate(-40.878 -7.157)" fill="#001736"/>
                <path id="Path_924267" data-name="Path 924267" d="M346.747,65.272c0,1.2.542,2.166,1.212,2.166s1.211-.97,1.211-2.166-.542-2.166-1.211-2.166-1.212.97-1.212,2.166" transform="translate(-39.449 -7.18)" fill="#001736"/>
                <path id="Path_924268" data-name="Path 924268" d="M374.356,78.717c.058.134,1.631,3.782,3.893,4.854l0,0,.012-.012c.185-.832.351-1.66.5-2.476a9.167,9.167,0,0,1-4.409-2.367" transform="translate(-42.59 -8.956)" fill="#001736"/>
                <path id="Path_924269" data-name="Path 924269" d="M376.815,68.916S381.6,62.49,385.1,67.54c2.888,4.161-2.55,15.24-8.4,11.192Z" transform="translate(-42.857 -7.464)" fill="#cd6061"/>
                <path id="Path_924270" data-name="Path 924270" d="M377.5,77.315a.493.493,0,0,0,.489-.439,8.223,8.223,0,0,1,4.779-6.628.492.492,0,0,0-.365-.915,9.212,9.212,0,0,0-5.393,7.435.493.493,0,0,0,.436.543l.054,0" transform="translate(-42.892 -7.884)" fill="#001736"/>
                <path id="Path_924271" data-name="Path 924271" d="M382.3,74.706a.492.492,0,0,0,.311-.874c-.2-.16-1.96-1.551-3.439-1.172a.493.493,0,1,0,.244.954c.849-.217,2.177.658,2.575.981a.489.489,0,0,0,.31.111" transform="translate(-43.096 -8.259)" fill="#001736"/>
                <path id="Path_924272" data-name="Path 924272" d="M352.032,37.343a17.259,17.259,0,0,0-10.725,8.663c-1.367,2.673-2.715,6.267,1.312,6.376,10.987.3,15.454-6.235,15.454-6.235s4.453,9.749,13.116,9.749,8.43-9.355,4.152-13.687c-3.488-3.531-13.077-7.76-23.309-4.865" transform="translate(-38.675 -4.139)" fill="#001736"/>
                <path id="Path_924273" data-name="Path 924273" d="M373.823,53.617a19.2,19.2,0,0,1-.346,10.894c-1.866,5.6-.651,15.173.709,18.434,0,0,.487-10.891,3.3-15.018,2.306-3.389,4.366-5.925,3.72-10.327-.443-3.021-2.144-6.115-7.379-3.982" transform="translate(-42.382 -6.02)" fill="#001736"/>
                <path id="Path_924274" data-name="Path 924274" d="M294.9,165.487a11.886,11.886,0,0,0,10.263,10.445,11.984,11.984,0,0,0,1.574.1,13.638,13.638,0,0,0,7.325-2.271A29.361,29.361,0,0,0,317.683,171c1.8-1.57,3.348-3.172,3.523-3.354a11.415,11.415,0,0,0,1.624-2.142c.012-.09.024-.178.035-.263.027-.244.058-.476.077-.692,0-.035.008-.062.012-.089,0,0-.2-.2-.545-.565-1.5-1.6-5.677-6.42-7.155-11.757-1.388-4.981,3.009-13.33,6.091-22.986.5-1.578.522-3.229.955-4.865.216-.815.417-1.632.6-2.456.151-.653.286-1.314.417-1.98.008-.046.02-.1.031-.146.023-.159.051-.31.082-.456.58-3.136,3.441-9.68,3.979-11.857-1.713,2.428-4.277,5.557-4.985,6.605-.9,1.345-2.165,3.221-3.65,5.465-7.374,11.133-20.288,31.227-23.056,39.48a15.063,15.063,0,0,0-.82,6.543" transform="translate(-33.541 -12.218)" fill="#001736"/>
                <path id="Path_924275" data-name="Path 924275" d="M300.49,162.657a.578.578,0,0,0,.4-.16,73.524,73.524,0,0,1,7.241-5.512.58.58,0,0,0-.646-.964,72.976,72.976,0,0,0-7.392,5.635.58.58,0,0,0,.4,1" transform="translate(-34.12 -17.739)" fill="#28536f"/>
                <path id="Path_924276" data-name="Path 924276" d="M295.7,115.814s17.236,21.264,24.793,38.652c6.766,15.566,22.281,63.606,22.281,63.606s19.285,6.268,32.636-16.055c0,0-22.219-40.7-30.349-60.329s-16.9-45.979-16.9-45.979Z" transform="translate(-33.641 -10.889)" fill="#fdb105"/>
                <path id="Path_924277" data-name="Path 924277" d="M317.092,94.045s-22.41,9.7-21.707,19.834,31.23-10.71,32.557-15.443-1.761-7.968-10.85-4.39" transform="translate(-33.604 -10.526)" fill="#ea8400"/>
                <path id="Path_924278" data-name="Path 924278" d="M299.209,113.271a2.165,2.165,0,0,1-1.074-.228c-.447-.255-.887-.82-.446-2.053,2.29-6.4,21.177-16.125,21.98-16.536a.443.443,0,1,1,.4.789c-.193.1-19.377,9.974-21.549,16.045-.284.795-.032.939.051.987.931.531,4.855-.582,11.529-4.27,5.591-3.089,10.644-6.62,12.287-8.588,1.22-1.461,1.055-1.836,1.052-1.839s-.483-.439-3.472.713a50.668,50.668,0,0,0-7.068,3.528c-8.068,4.771-9.253,6.546-9.421,7.017,1.593-.229,9.3-4.685,11.255-6.26a.443.443,0,0,1,.556.69c-1.494,1.2-9.981,6.457-12,6.457a.847.847,0,0,1-.172-.016.642.642,0,0,1-.451-.328c-.375-.728.29-1.731,2.156-3.249a65.936,65.936,0,0,1,7.629-5.075,50.777,50.777,0,0,1,7.2-3.592c3.281-1.263,4.121-.868,4.467-.46.652.767-.285,2.068-1.048,2.981-1.705,2.042-6.861,5.659-12.538,8.8-2.635,1.455-8.471,4.49-11.323,4.49" transform="translate(-33.847 -10.74)" fill="#fdb105"/>
                <path id="Path_924279" data-name="Path 924279" d="M305.694,168a7.679,7.679,0,0,0,9.661-4.456,18.814,18.814,0,0,1,3.262-5.5c3.168-3.32,8.563-5.377,10.061-8.6s.535-3.678-2.279-2.45-7.756,4.112-7.756,4.112,5.34-5.682,8.154-6.911,3.55-3.9.268-4.25-10.468,4.682-12.082,6.615c0,0,2.389-4.355,6.146-6.145s5.957-2.638,6.916-4.025-1.679-2.991-6.859-.357-7.927,4.615-9.561,6.929a30.764,30.764,0,0,1,2.175-5.635c1.644-3.4,6.152-5.122,6.145-7.38-.007-2.31-5.112-.1-7.381,2.384s-4.13,4.091-5.608,8.125a54.226,54.226,0,0,0-3.057,10.569c-.3,2.629-2.618,11.83-.7,15.125A4.706,4.706,0,0,0,305.694,168" transform="translate(-34.409 -14.674)" fill="#cd6061"/>
                <path id="Path_924280" data-name="Path 924280" d="M408.8,118.744l.45.9.432.888.856,1.77c.565,1.18,1.116,2.365,1.67,3.548s1.1,2.369,1.638,3.56,1.072,2.382,1.6,3.577q3.173,7.171,6.114,14.5c1.95,4.905,3.836,9.851,5.576,15.023.217.648.436,1.291.648,1.954s.428,1.307.635,1.987c.415,1.34.816,2.7,1.2,4.136l.288,1.082.073.27.069.285.139.573c.092.386.184.754.275,1.153l.261,1.244.063.312c.021.106.039.189.07.365.055.312.11.612.158.935s.09.654.128,1,.067.7.09,1.063a20.426,20.426,0,0,1-.3,5.06,17.706,17.706,0,0,1-2.35,6.053,17.4,17.4,0,0,1-2.136,2.752c-.2.2-.4.4-.6.595l-.307.288-.308.269c-.2.175-.417.354-.625.517s-.417.316-.627.468-.418.29-.627.427-.424.275-.627.392c-.407.238-.829.474-1.221.665a19.875,19.875,0,0,1-2.311.972,22.8,22.8,0,0,1-3.978.976,27.912,27.912,0,0,1-3.326.307c-1.027.036-1.986.018-2.9-.031a47.077,47.077,0,0,1-5.085-.561c-1.588-.254-3.094-.572-4.553-.919s-2.873-.725-4.258-1.125c-2.764-.815-5.418-1.7-8.008-2.665-5.178-1.915-10.123-4.062-14.958-6.368-1.209-.575-2.408-1.167-3.6-1.761s-2.381-1.2-3.56-1.83-2.354-1.256-3.526-1.9l-1.754-.987-.881-.5-.916-.535a8.959,8.959,0,0,1,7.293-16.254l.306.1.4.131.433.144.877.3,1.772.589q1.772.6,3.558,1.18c2.377.776,4.753,1.545,7.125,2.283,4.744,1.478,9.48,2.866,14.128,4.038,2.324.574,4.622,1.115,6.858,1.531,1.115.215,2.215.408,3.28.56.534.077,1.058.145,1.57.2s1.014.111,1.5.147a21.992,21.992,0,0,0,2.609.071c.37-.017.7-.044.957-.079a2.1,2.1,0,0,0,.511-.115c.065-.032.005-.055-.243.013a4.625,4.625,0,0,0-1.371.68c-.083.056-.165.114-.243.177s-.175.133-.258.2l-.259.23c-.089.082-.172.166-.257.254a7.359,7.359,0,0,0-.966,1.219c-.069.113-.139.219-.2.332s-.121.23-.18.336-.109.222-.157.337-.095.211-.136.319l-.113.31c-.035.1-.065.2-.092.3s-.053.177-.075.268l-.03.136-.027.117a6.09,6.09,0,0,0-.137,1.212c0,.046-.007.068,0,.1s-.01.027-.008.04-.015-.01-.018-.014c0,.018-.017-.057-.03-.107l-.045-.159-.168-.638-.211-.716-.105-.362-.053-.182-.062-.193-.247-.774c-.334-1.039-.714-2.129-1.11-3.233-.187-.546-.4-1.114-.6-1.671s-.417-1.125-.631-1.69c-1.719-4.53-3.607-9.17-5.534-13.806s-3.9-9.3-5.88-13.973l-1.485-3.5-1.479-3.508-1.479-3.506-.731-1.751-.364-.871-.351-.853-.038-.093A12.7,12.7,0,0,1,408.8,118.744" transform="translate(-40.212 -12.708)" fill="#001736"/>
                <path id="Path_924281" data-name="Path 924281" d="M398.836,152.334a.531.531,0,0,1-.476-.3c-.333-.668-8.183-16.465-10.134-24.489a.532.532,0,1,1,1.033-.251c1.924,7.909,9.971,24.1,10.052,24.266a.532.532,0,0,1-.475.769" transform="translate(-44.166 -14.436)" fill="#28536f"/>
                <path id="Path_924282" data-name="Path 924282" d="M391.246,136.964a.525.525,0,0,1-.226-.051l-5.314-2.5a.532.532,0,1,1,.453-.962l5.314,2.5a.532.532,0,0,1-.227,1.013" transform="translate(-43.847 -15.177)" fill="#28536f"/>
                <path id="Path_924283" data-name="Path 924283" d="M360.866,181.914a7.678,7.678,0,0,1-10-3.626,18.834,18.834,0,0,0-3.713-5.2c-3.437-3.041-8.986-4.637-10.75-7.722s-.843-3.62,2.066-2.633,8.074,3.445,8.074,3.445-5.8-5.213-8.707-6.2-3.865-3.583-.624-4.212,10.825,3.783,12.6,5.574c0,0-2.747-4.138-6.642-5.605s-6.158-2.128-7.23-3.429,1.421-3.122,6.8-.933,8.289,3.931,10.111,6.1a30.721,30.721,0,0,0-2.642-5.432c-1.925-3.249-6.561-4.586-6.744-6.836-.187-2.3,5.085-.526,7.555,1.754s4.459,3.729,6.272,7.624a54.158,54.158,0,0,1,3.936,10.275c.526,2.593,3.605,11.568,1.967,15.012a4.707,4.707,0,0,1-2.328,2.05" transform="translate(-38.133 -16.397)" fill="#cd6061"/>
                <path id="Path_924284" data-name="Path 924284" d="M421.575,189.166a.544.544,0,0,1-.2-.121c-2.9-2.746-10.415-6.938-10.49-6.98a.545.545,0,0,1,.53-.954c.313.175,7.706,4.3,10.709,7.141a.545.545,0,0,1-.55.913" transform="translate(-46.714 -20.597)" fill="#28536f"/>
                <path id="Path_924285" data-name="Path 924285" d="M413.129,183.345a.545.545,0,0,1,.173-1.062,30.15,30.15,0,0,1,9.006,1.841.545.545,0,1,1-.382,1.022,29.637,29.637,0,0,0-8.618-1.772.542.542,0,0,1-.179-.029" transform="translate(-46.959 -20.738)" fill="#28536f"/>
              </g>
            </g>
          </g>
        </g>
      </g>
    </g>
  </g>
</svg>
