<svg xmlns="http://www.w3.org/2000/svg" xmlns:xlink="http://www.w3.org/1999/xlink" width="107.004" height="102.673" viewBox="0 0 107.004 102.673">
  <defs>
    <clipPath id="clip-path">
      <rect id="Rectangle_401492" data-name="Rectangle 401492" width="59.93" height="59.93" transform="translate(-0.025 -0.036)" fill="#fff0ee" stroke="#707070" stroke-width="1"/>
    </clipPath>
    <clipPath id="clip-path-2">
      <rect id="Rectangle_408931" data-name="Rectangle 408931" width="55.325" height="55.352" fill="#fff0ee"/>
    </clipPath>
    <clipPath id="clip-path-3">
      <rect id="Rectangle_407253" data-name="Rectangle 407253" width="19" height="18.533" fill="#eebc32"/>
    </clipPath>
    <clipPath id="clip-path-4">
      <rect id="Rectangle_407253-2" data-name="Rectangle 407253" width="11.91" height="11.617" fill="#eebc32"/>
    </clipPath>
  </defs>
  <g id="Group_1119135" data-name="Group 1119135" transform="translate(-810 -2182.299)">
    <path id="Path_920871" data-name="Path 920871" d="M0,0H107V102.673H0Z" transform="translate(810 2182.299)" fill="#f69a8b"/>
    <g id="Group_1118645" data-name="Group 1118645" transform="translate(821 2191.271)">
      <g id="Group_1118062" data-name="Group 1118062" transform="translate(0 -0.001)">
        <circle id="Ellipse_11771" data-name="Ellipse 11771" cx="42.5" cy="42.5" r="42.5" fill="#953c2d"/>
        <g id="Group_1118061" data-name="Group 1118061" transform="translate(12.736 11.766)">
          <rect id="Rectangle_401104" data-name="Rectangle 401104" width="55.839" height="56.739" transform="translate(2.046)" fill="none"/>
          <g id="Group_1098697" data-name="Group 1098697" transform="translate(0 0)" clip-path="url(#clip-path)">
            <g id="Group_1119037" data-name="Group 1119037" transform="translate(1.975 1.963)">
              <g id="Group_1119036" data-name="Group 1119036" clip-path="url(#clip-path-2)">
                <path id="Path_923438" data-name="Path 923438" d="M82.176,100.78l10.186,3.365a4.219,4.219,0,0,1,2.912,3.587c.105.9.435,4.927-1.252,4.105-1.4-.68.894-4.688-1.9-6.024-2.487-1.188-5.9-1.7-8.5-2.769-1.2.453-2.131,1.129-3.393,1.5-.76.223-3.316,1-3.315-.317,0-1.014,2.148-1,3-1.266.5-.156.923-.431,1.425-.558-.321-.743-.98-1.156-1.032-2.061a9.852,9.852,0,0,1-7.051,0c.232,1.025-.71,1.287-.951,2.059.943.467,3.145.542,2.338,2.025-.911.911-3.668-1.228-4.617-1.386-1.843.989-7.979,2.027-9.137,3.4-1.052,1.251-.412,3.648-.71,5.155a.861.861,0,0,1-1.474-.273,21.474,21.474,0,0,1,0-3.891,4.287,4.287,0,0,1,2.891-3.291c3.15-1.312,6.8-1.989,9.925-3.39l.061-5.163a15.358,15.358,0,0,1-3.8-4.439c-.346-.622-.827-2.144-1.075-2.492-.259-.365-1.326-1.09-1.762-1.645a11.922,11.922,0,0,1-2.134-8.765c.111-.819.309-2.866,1.567-2.24.693.345.041,2.283-.008,3.006a9.662,9.662,0,0,0,2.781,8.009c1.789-2.207,1.662-5.323,2.345-7.956,1.135-4.378,3.769-6.068,8.137-6.6.412-.051,1.869.127,1.934-.253-.352-2.086-1.976-2.884-3.9-3.214a8.9,8.9,0,0,0-7.963,2.417c-.515.522-1.478,2.223-1.812,2.466a.864.864,0,0,1-1.334-.847c.157-.962,2.7-3.457,3.569-4.05,2.844-1.949,5.367-1.978,8.644-1.407a22.409,22.409,0,0,0,3.85.114c5.565.279,9.442,4.658,9.906,10.065.121,1.407-.249,3.061-.167,4.275.062.915.792,1.242.643,2.854-.2,2.118-1.96,3.109-3.883,3.408a15.54,15.54,0,0,1-5.069,7.295c-.035.858-.308,4.736.119,5.189m6.615-19.3a11.9,11.9,0,0,0-1.93-8.925c-1.659-2.236-4.074-3.041-6.786-3.278.222.629.658,1.077.867,1.747.111.357.193,1.428.273,1.55.042.064.907.374,1.132.532.625.437,3.09,2.908,1.285,3.148-.977.13-1.168-1.027-1.894-1.588C80.371,73.612,77.68,74,76.079,74.4c-6.278,1.541-4.6,7.314-6.6,11.949-.2.473-1.063,1.7-1.108,1.911a6.4,6.4,0,0,0,.894,2.209c1.568,2.836,5.72,6.617,9.187,5.328,4.867-1.809,8.057-7.746,7.8-12.8-.073-.467-.567-.534-.86-.884-.527-.63-2.355-4.027-.644-3.936.931.049,1.034,1.445,1.377,2.094.651,1.235,1.318,1.329,2.665,1.215m-1.266,5.073c2-.08,2.912-3.458.476-3.486ZM80.389,96.7c-1.86.934-3.358,1.446-5.424.749a10.8,10.8,0,0,0-1.707-.748c-.208,1.574.174,1.99,1.616,2.425a6.828,6.828,0,0,0,5.49-.707Z" transform="translate(-49.329 -56.596)" fill="#fff0ee"/>
                <path id="Path_923439" data-name="Path 923439" d="M16.429,209.506c1.063,1.063.707,2.293-.108,3.35-.479.622-2.864,2.638-2.982,3.051-.238.832.7,1.976.008,3.485a15.876,15.876,0,0,1-3.357,3.3,4.6,4.6,0,0,1-5.555-.637c-2.525-2.063-5.82-5.245-3.806-8.724.454-.785,3.533-3.839,4.328-4.073,2.8-.823,3.84,1.094,5.6,2.718,1.636-1.1,3.621-4.718,5.868-2.471m-4.545,7.872c-.173-.132-2.74,3.479-3.105.788l6.444-6.565c.467-.789-.064-1.369-.889-.889-.894.52-2.658,3.216-3.663,3.3-1.839-.711-2.82-3.832-5.13-3.218a13.911,13.911,0,0,0-3.6,3.534,2.79,2.79,0,0,0,.275,3.127,40.05,40.05,0,0,0,3.723,3.727,3.348,3.348,0,0,0,2.5.438c.932-.192,4.25-3,3.442-4.243" transform="translate(-0.004 -175.689)" fill="#fff0ee"/>
                <path id="Path_923440" data-name="Path 923440" d="M247.335,222.408a17.786,17.786,0,0,1-2.318-2.513c-.688-1.511.245-2.652.008-3.485-.148-.518-2.769-2.593-3.278-3.39a2.291,2.291,0,0,1,3.382-3.065c.47.344,2.362,2.58,2.673,2.524,1.76-1.583,2.507-3.26,5.243-2.832.988.155,3.53,2.7,4.214,3.553,2.917,3.622-.488,6.963-3.249,9.28-2.32,1.947-4.378,1.769-6.676-.074m-.856-4.527c-.632,1.1,1.459,3.033,2.3,3.645a3.136,3.136,0,0,0,3.647.16,40.32,40.32,0,0,0,3.723-3.727,2.877,2.877,0,0,0,.275-3.126,13.911,13.911,0,0,0-3.6-3.534c-2.311-.615-3.292,2.506-5.13,3.218-1.006-.085-2.77-2.781-3.663-3.3-.825-.48-1.356.1-.889.889l6.444,6.565c-.366,2.691-2.932-.919-3.105-.788" transform="translate(-203.052 -176.193)" fill="#fff0ee"/>
                <path id="Path_923441" data-name="Path 923441" d="M6.93.041C9.523-.331,11.9,1.887,13.392,3.8c2.2,2.812.059,4.858-1.974,6.763-.068.385,2.743,2.5,2.967,3.5a2.3,2.3,0,0,1-3.442,2.65c-.812-.484-2.873-3.2-3.456-3.371-.923-.264-1.911.768-3.581-.054A14.743,14.743,0,0,1,1.181,10.78,4.729,4.729,0,0,1,.875,4.923C1.858,3.545,5.277.277,6.93.041m4.542,14.947a1.148,1.148,0,0,0,1.1.369c.372-.125.307-.654.178-.932-.313-.675-2.5-2.267-3.088-3.093-.3-.423-.454-.632-.168-1.118.936-1.59,4.511-2.859,2.628-5.306A25.506,25.506,0,0,0,9.241,2.085,2.727,2.727,0,0,0,6.41,1.9,17.816,17.816,0,0,0,1.864,6.546a2.642,2.642,0,0,0,0,2.282c.261.623,2.685,3.162,3.3,3.219a1.25,1.25,0,0,0,.856-.237C5.366,10.95,3.1,9.734,4.744,8.78a1.161,1.161,0,0,1,.851.282c1.9,1.215,3.995,4.452,5.877,5.926" transform="translate(0 0)" fill="#fff0ee"/>
                <path id="Path_923442" data-name="Path 923442" d="M271.557,9.674a.859.859,0,0,1-1.365-.665c-.028-1.054.6-1.147-.092-2.629a20.3,20.3,0,0,0-4.33-4.388,2.653,2.653,0,0,0-2.523-.072,21.112,21.112,0,0,0-3.465,3.193c-1.61,2.282,2.258,3.862,2.942,5.619a1.262,1.262,0,0,1-.32.648c-.581.823-2.78,2.424-3.088,3.093-.465,1.011.57,1.244,1.219.622,1.925-1.615,3.74-4.268,5.67-5.779.288-.225.753-.588,1.118-.488,1.68,1.01-.719,2.144-1.273,3.106,1.152.6,1.424-.374,2.1-.671,1.318-.579,1.79.852.393,1.818-1.862,1.287-3.188-.048-4.074.36-.68.313-2.343,2.585-3.167,3.177a2.292,2.292,0,0,1-3.529-2.737c.335-.891,2.814-2.8,2.877-3.157-1.8-2-4.243-3.9-2.049-6.794,1.86-2.455,4.87-5.042,8.065-3.31,1.095.593,4.8,4.442,5.169,5.61.262.831.389,2.806-.278,3.443" transform="translate(-216.759 -0.049)" fill="#fff0ee"/>
                <path id="Path_923443" data-name="Path 923443" d="M158.6,214.964c.969-.162,4.311-.015,3.82,1.595-.337,1.1-1.865-.06-2.748-.06s-2.41,1.166-2.748.06c-.268-.876.967-1.476,1.676-1.595" transform="translate(-132.018 -180.847)" fill="#fff0ee"/>
                <path id="Path_923444" data-name="Path 923444" d="M142.156,162.293a1.036,1.036,0,0,1-1.234-.038l-.154-1.35a.853.853,0,0,1-.953-1.35c.325-.366,3.025-1.649,3.409-.87.575,1.163-.74,1.21-.851,1.527-.172.49.19,1.673-.217,2.081" transform="translate(-117.472 -133.324)" fill="#fff0ee"/>
                <path id="Path_923445" data-name="Path 923445" d="M188.124,160.754l-.214,1.212c-2.065.916-1.085-1.641-1.414-2.156-.04-.063-.439-.131-.6-.263a.817.817,0,0,1,.668-1.479,22.231,22.231,0,0,1,2.432,1.227c.636.756-.042,1.409-.868,1.459" transform="translate(-156.093 -132.998)" fill="#fff0ee"/>
                <path id="Path_923446" data-name="Path 923446" d="M162.32,194.914c.557-.168,1.039.14,1.553.14.633,0,1.629-.592,1.915.3.5,1.549-3.016,1.583-3.673.813-.347-.406-.339-1.088.205-1.252" transform="translate(-136.219 -163.973)" fill="#fff0ee"/>
              </g>
            </g>
          </g>
        </g>
      </g>
      <g id="Group_1118063" data-name="Group 1118063" transform="translate(0 66.083)">
        <g id="Group_1116914" data-name="Group 1116914" transform="translate(0 0)" clip-path="url(#clip-path-3)">
          <path id="Path_893319" data-name="Path 893319" d="M19,9.266a9.386,9.386,0,0,1-9.5,9.267A9.386,9.386,0,0,1,0,9.266,9.385,9.385,0,0,1,9.5,0,9.385,9.385,0,0,1,19,9.266" transform="translate(0 0)" fill="#eebc32"/>
        </g>
      </g>
      <g id="Group_1118064" data-name="Group 1118064" transform="translate(73.004 12.999)">
        <g id="Group_1116914-2" data-name="Group 1116914" transform="translate(0 0)" clip-path="url(#clip-path-4)">
          <path id="Path_893319-2" data-name="Path 893319" d="M11.91,5.808a5.884,5.884,0,0,1-5.955,5.809A5.883,5.883,0,0,1,0,5.808,5.883,5.883,0,0,1,5.955,0,5.883,5.883,0,0,1,11.91,5.808" transform="translate(0 0)" fill="#eebc32"/>
        </g>
      </g>
    </g>
  </g>
</svg>
