<svg xmlns="http://www.w3.org/2000/svg" xmlns:xlink="http://www.w3.org/1999/xlink" width="164" height="115" viewBox="0 0 164 115">
  <defs>
    <clipPath id="clip-path">
      <rect id="Rectangle_408924" data-name="Rectangle 408924" width="164" height="115" transform="translate(310.711 4403.137)" fill="#fff" stroke="#707070" stroke-width="1"/>
    </clipPath>
    <clipPath id="clip-path-2">
      <rect id="Rectangle_408923" data-name="Rectangle 408923" width="99.863" height="105.858" fill="none"/>
    </clipPath>
  </defs>
  <g id="Mask_Group_1116950" data-name="Mask Group 1116950" transform="translate(-310.711 -4403.137)" clip-path="url(#clip-path)">
    <g id="Group_1119024" data-name="Group 1119024" transform="translate(342.711 4408.004)">
      <g id="Group_1119023" data-name="Group 1119023" clip-path="url(#clip-path-2)">
        <path id="Path_923371" data-name="Path 923371" d="M89.069,16.62c-.822,0-1.342-.2-1.509-1.07L87.552,3.273l-.3-.3c-19.713.093-39.444-.124-59.156,0-1.816.012-3.645-.008-5.461,0V29.664c1.8.091,3.668-.125,5.461,0a6.6,6.6,0,0,1,1.8,12.926c.164,1.118-.176,2.546.026,3.6.189.987,2.6,2.794,1.813,4.71,1.787-.3,4.866.4,6.462,0,.279-.069.419-.766.818-1.065.968-.727,6.939-.717,7.892,0,.388.292.539.918.666.993.461.273,9.831.239,10.711.069.779-.151.739-.863,1.24-1.187.751-.487,8.883-.491,10.3-.351,1.15.114,1.646.209,1.651,1.534.009,2.248-4.054,1.495-5.764,1.517-1.412.018-2.836-.013-4.247,0V59.7H93.771c1.332,0,2.738-1.728,2.882-3.034A3.537,3.537,0,0,0,94,52.485l-17.214-.077c-.87-.167-1.07-.686-1.07-1.509s.2-1.342,1.07-1.509c1.594-.305,10.382.374,10.763-.006L87.537,22.52c.2-1.561,1.426-1.486,1.532-1.653,1.218.127,1.394.522,1.517,1.663l0,26.853c12.37-1.707,12.373,15.047,0,13.346v41.407c0,.695-1.737,1.957-2.564,1.683l-85.8-.079c-2.714-.608-2.325-6.359-1.963-8.509.526-3.128,3.213-2.814,3.526-3.3.263-.408-.2-2.727.414-3.984A6.7,6.7,0,0,1,6.4,87.908H19.6v-5.46H13.683A12.135,12.135,0,0,1,10.2,80.473a6.639,6.639,0,0,1,.933-9.983c.482-.371,1.84-.9,1.957-1.077a9.646,9.646,0,0,0,.081-3.437c-.245-.819-1.552-1.306-1.766-3.088a92.365,92.365,0,0,1-.008-13.37c.264-2.735,2.291-2.484,1.852-6.07-.17-1.389-1.2-1.119-2.121-1.821a6.66,6.66,0,0,1-.927-9.99,8.747,8.747,0,0,1,3.487-1.973H19.6L19.592,2.507A2.9,2.9,0,0,1,21.634,0H88.852c1.314.41,1.633,1.22,1.748,2.5.373,4.142-.3,8.844-.022,13.05-.167.87-.687,1.07-1.509,1.07M17.778,39.675c2.651.064,9.087.439,11.312-.064,3.024-.684,3.338-6-.374-6.779-2.509-.523-7.849-.2-10.635-.135-2.516.061-6.567-.278-6.624,3.482-.059,3.889,3.724,3.433,6.321,3.5M19.9,43.012c-1.21.015-2.432-.011-3.642,0l0,2.86c.048.319,3.077.168,3.646.175,2.321.027,4.658-.021,6.979,0l0-2.86c-.052-.345-6.25-.184-6.983-.175m0,20.021c2.009.032,5.974.321,7.727-.008a1.179,1.179,0,0,0,.92-.6c.319-.657.269-10.247.164-11.694a4.019,4.019,0,0,0-.36-1.613c-2.809-.046-5.642-.088-8.451-.042-.834.014-5.461-.269-5.461.455V62.578c0,.724,4.627.442,5.461.455M42.654,52.416c-.5.026-1.016-.022-1.519,0l0,7.107c.052.335,1.137.157,1.522.175.7.035,1.421-.022,2.125,0l0-7.108c-.046-.3-1.729-.2-2.129-.174M31.733,56.359c.016.417-.157,1.775.175,1.826l6.2,0c.018-.6-.026-1.217,0-1.822.017-.427.131-2.386-.174-2.432l-6.2,0c.022.805-.029,1.623,0,2.428m26.7-.3c0-.554.322-2.281-.458-2.135l-10.161.313c-.017.6.023,1.217,0,1.822-.015.43-.133,2.082.174,2.129l10.445,0c0-.706,0-1.419,0-2.125M28.093,87.908c2.246.014,7.917-.465,9.51.653,2.288,1.606,1.015,4.89,1.441,5.385a9.132,9.132,0,0,1,2.471.932,10.617,10.617,0,0,1,1.139,1.676v6.219h44.9V62.729H60.1c-.381,0-1.241-1.288-1.366-1.352a89.334,89.334,0,0,0-11.011-.171c-.272.067-.446.865-1,1.189-.824.48-5.838.507-6.882.27-1.1-.25-1.05-1.3-1.881-1.456-1.735-.332-4.373.251-6.224,0,.788,1.916-1.624,3.723-1.813,4.71-.2,1.055.138,2.483-.026,3.6,7.072,2.47,5.927,12.306-1.8,12.926-1.762.141-3.679-.1-5.461,0v5.46c1.816.008,3.645-.012,5.461,0M19.9,66.066c-.569.007-3.6-.144-3.646.175l0,2.86c1.21.009,2.432-.016,3.642,0,2.321.029,4.658-.022,6.979,0l0-2.86c-.052-.345-6.249-.183-6.983-.175m-1.82,13.347c2.691.066,8.336.409,10.7-.069,3.482-.7,3.428-6.139.309-6.844-2.225-.5-8.661-.127-11.312-.064-2.6.062-6.38-.393-6.321,3.5.057,3.759,4.108,3.421,6.624,3.482M12.318,90.941c-1.715.012-3.443-.008-5.159,0l0,2.86c.051.338,4.481.137,5.162.175,1.3.071,2.38-.173,2.73,1.517-.066.059.116,1.176-.818,1.459-1.088.33-4.154.024-5.553.058-.952.023-5.461-.362-5.461.758v4.55c0,.724,4.627.441,5.461.455,10.3.167,20.638-.125,30.943,0V97.463c0-.251-.735-.537-1.046-.471L20.365,97c-.839-.122-1.064-.734-1.07-1.509-.008-1.2.563-1.4,1.663-1.522,4.646-.536,10.271.408,15.023.007-.1-.706.271-2.515-.285-2.9-7.784-.2-15.594-.186-23.378-.133" transform="translate(0)" fill="#030302"/>
        <path id="Path_923372" data-name="Path 923372" d="M151.758,9.7l.3.3.008,12.277c.167.87.686,1.07,1.509,1.07-.16.764.221,3.9,0,4.247-.106.168-1.327.092-1.532,1.653l.017,26.863c-.381.38-9.169-.3-10.763.006-.871.167-1.07.686-1.07,1.509h-4.247c-.005-1.325-.5-1.42-1.651-1.534-1.419-.14-9.55-.137-10.3.351-.5.324-.46,1.036-1.24,1.187-.88.171-10.25.2-10.711-.068-.127-.076-.278-.7-.666-.993-.953-.717-6.924-.727-7.892,0-.4.3-.538,1-.818,1.065-1.6.393-4.675-.3-6.462,0,.788-1.916-1.624-3.723-1.813-4.71-.2-1.055.138-2.483-.026-3.6a6.6,6.6,0,0,0-1.8-12.926V9.7c19.712-.124,39.444.093,59.156,0m-34.65,6.759c-16.929,2.033-18.537,28.178-.6,31.677,24.055,4.692,26.181-34.749.6-31.677" transform="translate(-64.51 -6.729)" fill="#fdf1dc"/>
        <path id="Path_923373" data-name="Path 923373" d="M92.6,222.774c7.728-.619,8.873-10.456,1.8-12.926.164-1.118-.176-2.546.026-3.6.189-.987,2.6-2.794,1.813-4.71,1.851.25,4.489-.333,6.224,0,.831.159.777,1.206,1.881,1.456,1.045.236,6.058.21,6.882-.27.556-.324.73-1.122,1-1.189a89.33,89.33,0,0,1,11.011.171c.124.064.984,1.352,1.366,1.352h27.454V243.1h-44.9V236.88a10.615,10.615,0,0,0-1.139-1.676,9.131,9.131,0,0,0-2.471-.932c-.426-.495.846-3.779-1.441-5.385-1.593-1.118-7.264-.639-9.51-.653Zm20.541-14.8c-1.759.84-1.345,2.742.527,2.985l28.546,0a1.535,1.535,0,1,0-.312-3.053Zm10.026,10.178a1.616,1.616,0,0,0-.694-2.649,58.314,58.314,0,0,0-9.075.019c-2.043.288-1.653,2.69-.009,3a53.837,53.837,0,0,0,8.2.02c.471-.039,1.247-.052,1.583-.388m3.562-2.658c-1.179.412-.833,3.033,0,3.033H142.81c.99,0,.99-3.033,0-3.033Zm16.46,10.242c.544-.545.575-2.122-.23-2.507l-29.6-.168c-2.018.238-1.641,2.949.3,3.067,9.049-.6,19,.743,27.938,0,.471-.039,1.247-.052,1.583-.388m-29.433,4.695c-2.257.4-2.421,2.444-.368,3.257l16.39.024c2.184-.284,2.329-2.949-.033-3.335a108.932,108.932,0,0,0-15.988.055m20.935,0c-2.149.4-1.956,2.838-.311,3.194,1.044.226,7.735.205,8.507-.156,1.355-.633.791-2.709-.752-3.049a38.346,38.346,0,0,0-7.444.01" transform="translate(-64.511 -140.327)" fill="#fbf0db"/>
        <path id="Path_923374" data-name="Path 923374" d="M39.221,314.681c.005.775.231,1.388,1.07,1.509l18.209-.008c.311-.066,1.046.219,1.046.471v5.309c-10.306-.125-20.639.167-30.943,0V316.2c1.4-.034,4.465.272,5.553-.058.934-.283.752-1.4.818-1.459.161-.147,3.6.107,4.247,0" transform="translate(-19.926 -219.19)" fill="#863e2d"/>
        <path id="Path_923375" data-name="Path 923375" d="M80.064,9.784V36.479c-1.793-.125-3.66.091-5.461,0V9.784c1.816-.008,3.645.012,5.461,0" transform="translate(-51.971 -6.815)" fill="#f4ddbd"/>
        <path id="Path_923376" data-name="Path 923376" d="M226.492,167.789c0,.822.2,1.342,1.07,1.509l17.214.077a3.537,3.537,0,0,1,2.648,4.177l-29.873-.008c-1.749-.328-.883-2.968-1.07-4.238,1.71-.022,5.773.732,5.764-1.517Z" transform="translate(-150.772 -116.89)" fill="#c86d58"/>
        <path id="Path_923377" data-name="Path 923377" d="M206.85,172.781c.187,1.27-.678,3.91,1.07,4.238l29.873.008c-.143,1.3-1.55,3.033-2.882,3.033H202.6v-7.28c1.412-.013,2.836.018,4.247,0" transform="translate(-141.141 -120.366)" fill="#b85c4b"/>
        <path id="Path_923378" data-name="Path 923378" d="M65.6,161.744c2.809-.046,5.643,0,8.451.042a4.018,4.018,0,0,1,.36,1.613c.105,1.447.155,11.037-.164,11.694a1.179,1.179,0,0,1-.92.6c-1.753.329-5.718.041-7.727.008Z" transform="translate(-45.701 -112.665)" fill="#c66c57"/>
        <path id="Path_923379" data-name="Path 923379" d="M56.826,245.319c-1.587-2.455-1.531-4.361-.3-6.977,2.651-.064,9.087-.439,11.312.064,3.119.7,3.173,6.139-.309,6.844-2.364.479-8.009.135-10.7.069" transform="translate(-38.745 -165.906)" fill="#c86d58"/>
        <path id="Path_923380" data-name="Path 923380" d="M56.523,114.4c-1.228-2.616-1.284-4.522.3-6.977,2.786-.068,8.125-.388,10.635.135,3.712.774,3.4,6.095.374,6.779-2.225.5-8.661.127-11.312.064" transform="translate(-38.745 -74.726)" fill="#c86d58"/>
        <path id="Path_923381" data-name="Path 923381" d="M40.6,299.709c7.785-.053,15.594-.071,23.378.133.556.387.189,2.2.285,2.9-4.752.4-10.378-.543-15.023-.007-1.1.127-1.672.322-1.663,1.522-.648.107-4.086-.146-4.247,0-.35-1.69-1.426-1.445-2.73-1.517Z" transform="translate(-28.286 -208.768)" fill="#c86d58"/>
        <path id="Path_923382" data-name="Path 923382" d="M53.064,161.69v13.954c-.834-.013-5.461.269-5.461-.455V162.145c0-.724,4.627-.441,5.461-.455" transform="translate(-33.162 -112.611)" fill="#b85c4b"/>
        <path id="Path_923383" data-name="Path 923383" d="M44.39,107.789c-1.587,2.455-1.531,4.361-.3,6.977-2.6-.062-6.38.393-6.321-3.5.057-3.759,4.108-3.421,6.624-3.482" transform="translate(-26.308 -75.091)" fill="#b85c4b"/>
        <path id="Path_923384" data-name="Path 923384" d="M44.086,238.789c-1.228,2.616-1.284,4.522.3,6.977-2.516-.061-6.567.278-6.624-3.482-.059-3.889,3.724-3.433,6.321-3.5" transform="translate(-26.308 -166.352)" fill="#b85c4b"/>
        <path id="Path_923385" data-name="Path 923385" d="M16.064,319.684v5.764c-.834-.014-5.461.269-5.461-.455v-4.55c0-1.12,4.509-.735,5.461-.758" transform="translate(-7.386 -222.676)" fill="#6a3124"/>
        <path id="Path_923386" data-name="Path 923386" d="M80.064,271.729v5.46c-1.816-.011-3.645.008-5.461,0v-5.46c1.782-.1,3.7.141,5.461,0" transform="translate(-51.971 -189.282)" fill="#f4ddbd"/>
        <path id="Path_923387" data-name="Path 923387" d="M168.141,184.789c0,.706,0,1.419,0,2.125l-10.445,0c-.307-.046-.19-1.7-.174-2.129Z" transform="translate(-109.712 -128.733)" fill="#6a3124"/>
        <path id="Path_923388" data-name="Path 923388" d="M65.6,141.684c.733-.009,6.931-.17,6.983.175l0,2.86c-2.321-.022-4.658.026-6.979,0Z" transform="translate(-45.701 -98.673)" fill="#863e2d"/>
        <path id="Path_923389" data-name="Path 923389" d="M65.6,217.685c.733-.008,6.931-.17,6.983.175l0,2.86c-2.321-.023-4.658.027-6.979,0Z" transform="translate(-45.701 -151.619)" fill="#863e2d"/>
        <path id="Path_923390" data-name="Path 923390" d="M157.59,179.865c.022-.6-.018-1.218,0-1.822l10.161-.313c.78-.145.46,1.581.458,2.135Z" transform="translate(-109.779 -123.81)" fill="#863e2d"/>
        <path id="Path_923391" data-name="Path 923391" d="M28.748,299.783v3.033c-.682-.037-5.112.164-5.162-.175l0-2.86c1.715-.006,3.443.013,5.159,0" transform="translate(-16.431 -208.842)" fill="#b85c4b"/>
        <path id="Path_923392" data-name="Path 923392" d="M140.6,172.707c.4-.021,2.083-.129,2.129.174l0,7.107c-.7-.024-1.422.033-2.125,0Z" transform="translate(-97.949 -120.291)" fill="#c66c57"/>
        <path id="Path_923393" data-name="Path 923393" d="M104.58,180.2c-.03-.805.02-1.623,0-2.428l6.2,0c.305.045.191,2.005.174,2.432Z" transform="translate(-72.847 -123.845)" fill="#863e2d"/>
        <path id="Path_923394" data-name="Path 923394" d="M110.9,185.789c-.024.6.02,1.218,0,1.822l-6.2,0c-.332-.051-.159-1.408-.175-1.826Z" transform="translate(-72.799 -129.43)" fill="#6a3124"/>
        <path id="Path_923395" data-name="Path 923395" d="M137.107,172.773v7.28c-.385-.019-1.47.16-1.522-.175l0-7.107c.5-.021,1.015.028,1.519,0" transform="translate(-94.453 -120.358)" fill="#b85c4b"/>
        <path id="Path_923396" data-name="Path 923396" d="M57.231,141.781v3.034c-.568-.007-3.6.144-3.646-.175l0-2.86c1.21-.009,2.432.016,3.642,0" transform="translate(-37.329 -98.769)" fill="#6a3124"/>
        <path id="Path_923397" data-name="Path 923397" d="M57.231,217.721v3.033c-1.21-.015-2.432.011-3.642,0l0-2.86c.048-.319,3.077-.168,3.646-.175" transform="translate(-37.329 -151.654)" fill="#6a3124"/>
        <path id="Path_923398" data-name="Path 923398" d="M287.906,10.092l-.3-.3Z" transform="translate(-200.355 -6.82)" fill="#f4ddbd"/>
        <path id="Path_923399" data-name="Path 923399" d="M142.639,31.677c25.58-3.073,23.453,36.368-.6,31.677-17.935-3.5-16.327-29.643.6-31.677m1.887,28.733c18.039.8,17.723-26.255.3-25.785-16.294.44-16.673,25.059-.3,25.785" transform="translate(-90.041 -21.948)" fill="#050604"/>
        <path id="Path_923400" data-name="Path 923400" d="M187.783,275.407c-.335.335-1.112.349-1.583.388-8.939.747-18.889-.6-27.938,0-1.945-.117-2.323-2.828-.3-3.067l29.6.168c.805.385.774,1.962.23,2.507" transform="translate(-109.102 -189.998)" fill="#020202"/>
        <path id="Path_923401" data-name="Path 923401" d="M157.739,222.838l28.761-.07a1.535,1.535,0,1,1,.312,3.053l-28.546,0c-1.872-.244-2.286-2.145-.527-2.985" transform="translate(-109.106 -155.191)" fill="#030302"/>
        <path id="Path_923402" data-name="Path 923402" d="M158.193,296.288a108.97,108.97,0,0,1,15.989-.055c2.363.386,2.217,3.052.033,3.335l-16.39-.023c-2.053-.813-1.889-2.857.368-3.257" transform="translate(-108.944 -206.185)" fill="#090807"/>
        <path id="Path_923403" data-name="Path 923403" d="M203.358,247.789h16.078c.99,0,.99,3.034,0,3.034H203.358c-.833,0-1.179-2.622,0-3.034" transform="translate(-141.137 -172.622)" fill="#050604"/>
        <path id="Path_923404" data-name="Path 923404" d="M167.735,250.079c-.336.335-1.112.349-1.583.388a53.8,53.8,0,0,1-8.2-.02c-1.643-.307-2.034-2.709.01-3a58.3,58.3,0,0,1,9.075-.02,1.616,1.616,0,0,1,.694,2.649" transform="translate(-109.075 -172.255)" fill="#050604"/>
        <path id="Path_923405" data-name="Path 923405" d="M227.725,296.608a38.343,38.343,0,0,1,7.444-.01c1.543.34,2.107,2.416.752,3.049-.772.361-7.463.381-8.507.156-1.646-.356-1.838-2.8.311-3.194" transform="translate(-157.541 -206.502)" fill="#090807"/>
        <path id="Path_923406" data-name="Path 923406" d="M163.78,67.56c-.439-1.233-1.955-1.765-2.89-2.723a14.631,14.631,0,0,1-.6-19.426l3.8-3.636c17.419-.47,17.736,26.584-.3,25.785m6.9-17.541c-1.68.351-5.6,5.969-6.8,6.285-1.355.355-3.119-3.98-5.383-3.609-3.576.586,2.434,5.99,3.47,6.829.647.524,1.278,1.206,2.133.942,1.719-.533,6.448-6.788,8.329-8.078.547-1.493-.049-2.723-1.744-2.369" transform="translate(-109.295 -29.098)" fill="#4ebe23"/>
        <path id="Path_923407" data-name="Path 923407" d="M152.124,41.789l-3.8,3.637a14.631,14.631,0,0,0,.6,19.426c.935.958,2.451,1.489,2.89,2.723-16.37-.726-15.991-25.345.3-25.785" transform="translate(-97.335 -29.112)" fill="#46a61f"/>
        <path id="Path_923408" data-name="Path 923408" d="M171.763,68.824c1.7-.354,2.29.876,1.744,2.369-1.882,1.29-6.611,7.546-8.329,8.078-.855.265-1.486-.418-2.133-.942-1.036-.839-7.046-6.243-3.47-6.829,2.264-.371,4.029,3.963,5.383,3.609,1.206-.315,5.125-5.934,6.8-6.285" transform="translate(-110.383 -47.904)" fill="#030701"/>
      </g>
    </g>
  </g>
</svg>
