<svg xmlns="http://www.w3.org/2000/svg" xmlns:xlink="http://www.w3.org/1999/xlink" width="70" height="70" viewBox="0 0 70 70">
  <defs>
    <clipPath id="clip-path">
      <rect id="Rectangle_408891" data-name="Rectangle 408891" width="42.86" height="42.86" fill="#953c2d"/>
    </clipPath>
  </defs>
  <g id="Group_1118717" data-name="Group 1118717" transform="translate(-269 -958)">
    <circle id="Ellipse_5614" data-name="Ellipse 5614" cx="35" cy="35" r="35" transform="translate(269 958)" fill="#fff"/>
    <g id="Group_1118962" data-name="Group 1118962" transform="translate(283 972)">
      <g id="Group_1118961" data-name="Group 1118961" clip-path="url(#clip-path)">
        <path id="Path_922533" data-name="Path 922533" d="M28.712,13.945c-5.663,9.713,6.317,19.259,13.926,11.14a13.723,13.723,0,0,1-3.144,11.281C34.259,42.613,27.522,48.2,22.152,54.4a.954.954,0,0,1-1.478,0C15.3,48.281,8.8,42.739,3.532,36.577A14.182,14.182,0,0,1,.223,29.99C-1.93,17.173,11.931,8.845,21.413,17.142a12.2,12.2,0,0,1,7.3-3.2m-5.13,22.514L27.2,32.216l8-.038c1.1-.179,1.173-1.9-.393-2.08-2.512-.3-5.568.193-8.137.033a1.4,1.4,0,0,0-.639.31c-.8.6-1.867,2.412-2.675,3.206-.1.1-.157.255-.331.211l-5.044-9.379a.959.959,0,0,0-1.648-.085l-2.884,5.635c-1.309.368-5.307-.373-6.231.344a1.024,1.024,0,0,0,.413,1.805l6.763-.052c.335-.115.5-.526.683-.821.781-1.289,1.291-2.825,2.053-4.131l4.962,9.183a1.006,1.006,0,0,0,1.492.1" transform="translate(0 -11.892)" fill="#953c2d"/>
        <path id="Path_922534" data-name="Path 922534" d="M225.445,0c8.688-.148,9.12,13.32,1.032,14.165C216.685,15.189,216.266.158,225.445,0m1.368,5.811c.133-1.1-.014-2.934-1.48-2.725-1.391.2-.974,1.552-1.123,2.593-.29.431-2.2-.473-2.562,1.1-.361,1.553,1.531,1.882,2.621,1.671.03.907-.291,2.229.8,2.584,1.661.542,1.913-1.313,1.748-2.584,3.458.61,3.441-3.282,0-2.644" transform="translate(-189.531 0)" fill="#953c2d"/>
      </g>
    </g>
  </g>
</svg>
