<svg xmlns="http://www.w3.org/2000/svg" xmlns:xlink="http://www.w3.org/1999/xlink" width="150" height="150" viewBox="0 0 150 150">
  <defs>
    <clipPath id="clip-path">
      <rect id="Rectangle_407255" data-name="Rectangle 407255" width="150" height="150" transform="translate(0)" fill="#f69a8b"/>
    </clipPath>
    <clipPath id="clip-path-2">
      <rect id="Rectangle_401492" data-name="Rectangle 401492" width="96.296" height="96.297" transform="translate(-0.288 0.138)" fill="#953c2d" stroke="#707070" stroke-width="1"/>
    </clipPath>
    <clipPath id="clip-path-3">
      <rect id="Rectangle_408920" data-name="Rectangle 408920" width="91.322" height="91.314" fill="#953c2d"/>
    </clipPath>
  </defs>
  <g id="Group_1118695" data-name="Group 1118695" transform="translate(-179.328 -3684.533)">
    <g id="Group_1116923" data-name="Group 1116923" transform="translate(179.328 3684.533)" clip-path="url(#clip-path)">
      <path id="Path_893365" data-name="Path 893365" d="M148.169,44.41C139.386,14.569,73.684-19.323,25.142,13.36s-13,149.535-6.586,125.918c6.165-22.7,33.5-4.155,54.014-3.491,22.845.739,37.666-5.15,37.63-5.238,10.531-3.911,17.983-9.053,24.206-18.726C146.839,92.5,153.455,62.367,148.169,44.41" transform="translate(0.001 3.798)" fill="#f69a8b"/>
    </g>
    <g id="Group_1115380" data-name="Group 1115380" transform="translate(222.027 3726.987)">
      <rect id="Rectangle_401104" data-name="Rectangle 401104" width="60.924" height="61.907" transform="translate(2.232 0)" fill="none"/>
      <g id="Mask_Group_1098697" data-name="Mask Group 1098697" transform="translate(-15.7 -15.454)" clip-path="url(#clip-path-2)">
        <g id="Group_1119018" data-name="Group 1119018" transform="translate(2.712 2.137)">
          <g id="Group_1119017" data-name="Group 1119017" clip-path="url(#clip-path-3)">
            <path id="Path_923341" data-name="Path 923341" d="M126.011,72.462c3.3-2.251,6.239-5.018,9.452-7.379,1.211-.89,2.469-2.244,4.077-2,2.009.307,5.7,5.494,3.449,7.368L129.214,81.212,130.1,88.3c1.757,1.225,6.132,2.528,7.223,4.225.831,1.293,2.02,6.38,2.565,8.209a3.425,3.425,0,0,1,.127,1.084c.41.112.448-.107.676-.264a44.409,44.409,0,0,0,4.448-4.44c1.017-1.126,1.851-2.455,2.954-3.512.094-.575-.1-.315-.37-.425-1.934-.787-5.313-.277-3.868-3.41l13.82-7.6a1.479,1.479,0,0,1,1.871,1.07c.96,2.626,1.9,8.05,2.471,11a9.036,9.036,0,0,1,.41,2.942c-.592,2.707-4.216-.555-5.39.129-.264.154-2.9,4.312-3.444,5.037-12.5,16.5-29.382,29.8-50.862,31.236-.72-.17-.361-2.274-.41-2.918,23.215-1.487,41.366-17.779,53.331-36.493.981-.855,2.194.069,3.214.387.25-.336-1.379-7.184-1.619-8.214-.075-.32.2-.489-.391-.4l-7.682,4.44c5.868.658,1.223,5.166-.817,7.533a67.923,67.923,0,0,1-41.47,22.768l-.241-2.936,3.693-.612.245-.687c.423-7.415,2.955-15.535,3.3-22.837a48.305,48.305,0,0,0-.537-6.327l-7,9.019c-1.242,1.323-5.665,1.629-7.2,1.012-1.143-.46-2.063-2.526-1.358-3.642,4.085-5.219,7.769-11.809,12.068-16.753a7.455,7.455,0,0,1,4.034-2.568,7.331,7.331,0,0,1,7.542-11.983c4.367,1.287,6.181,5.966,4.581,10.1m-7.619-7.479c-6.473,1.327-2.923,11.725,3.228,8.074,4.071-2.416,1.541-9.052-3.228-8.074M134.9,106.129c.136.137,2.985-1.908,2.708-2.549-.758-1.689-2.112-8.962-3.145-9.811-1.334-1.1-6.007-2.391-6.849-3.655L126.1,80.444l.467-1.1L140.7,68.7,139.072,66l-13.05,10.109c-3.288.873-10.8-.068-13.3,2.049L100.694,94.418c-.066.742.165.216.465.2,1.105-.068,2.3.138,3.173-.6l9.1-12.043a1.612,1.612,0,0,1,2.609.867c.612,3.3.329,7.379.824,10.779l-3.239,22.748c1.134-.71,3.672-.545,4.179-1.879,1.511-6.464,1.906-13.594,3.435-20,.349-1.462.663-2.143,2.355-1.705a70.568,70.568,0,0,1,7.954,4.175Zm-14.006,7.811a57.11,57.11,0,0,0,11.557-6.1l-3.08-8.705-5.144-2.671Z" transform="translate(-71.268 -45.316)" fill="#953c2d"/>
            <path id="Path_923342" data-name="Path 923342" d="M20.834,222.313a5.032,5.032,0,0,0,1.148.238c.758-.145,1.478-2.283,3.205-1.776a55.446,55.446,0,0,1,4.906,4.808c.833,1.8-1.653,2.637-1.682,3.572-.065,2.152,3.317-.081,3.916,2a56.4,56.4,0,0,1,.013,7.171c-.53,1.575-4.37-.385-3.933,1.9.146.759,2.283,1.478,1.776,3.206a55.371,55.371,0,0,1-4.807,4.9c-1.968.905-2.684-1.773-3.582-1.7-1.857.146-.22,3.082-1.718,3.946-.917.529-6.774.529-7.61-.1-1.279-.959.426-3.692-1.727-3.846-1.523,1.244-1.917,2.587-4,1.284-.241-.151-3.772-3.717-3.9-3.964-1.228-2.391,1.563-2.965,1.488-3.914-.146-1.857-3.082-.219-3.946-1.718-.529-.917-.529-6.774.1-7.61.959-1.279,3.692.426,3.847-1.727-.749-1.128-2.287-1.575-1.788-3.214a49.638,49.638,0,0,1,4.989-4.994c1.747-.513,2.629,1.857,3.393,1.8,1.844-.145.288-3.475,1.71-3.954a58.147,58.147,0,0,1,6.951-.037c2.017.377.867,3.306,1.25,3.732m-3.023-.748-2.935-.3c-.053.922.242,2.211-.409,2.957a20.928,20.928,0,0,1-3.561,1.562c-1.633.315-1.853-.605-2.9-1.55L5.994,226.25c.659.709,1.631,1.332,1.627,2.425a30.815,30.815,0,0,1-1.4,3.733c-.779,1.176-1.966.6-3.2.709v2.965c.927.053,2.2-.243,2.957.41a29.37,29.37,0,0,1,1.566,3.556c.331,1.613-.626,1.872-1.554,2.9l2.015,2.015c.711-.561,1.151-1.575,2.153-1.637a21.737,21.737,0,0,1,4.01,1.405c1.026.7.651,2.159.7,3.2h2.965c.1-.867-.272-2.128.247-2.85a26.45,26.45,0,0,1,3.723-1.68c1.4-.282,2.024.711,2.9,1.562l2.015-2.016c-1.051-1.091-1.959-1.426-1.538-3.161.052-.214,1.192-2.836,1.306-3,.7-1.026,2.16-.651,3.2-.7l-.119-2.712c-.41-.59-1.968.142-2.87-.631a29.668,29.668,0,0,1-1.678-3.717c-.25-1.314.96-1.93,1.7-2.772l-2.015-2.015c-.734.592-1.131,1.542-2.151,1.635-.858.078-4.429-1.287-4.66-2.1-.2-.714.051-1.487-.086-2.2" transform="translate(0 -159.645)" fill="#953c2d"/>
            <path id="Path_923343" data-name="Path 923343" d="M280,11.951c-.386.476-1.094.9-1.24,1.61-.283,1.711,2.221,6.678-.459,7.079-1.263.189-4.306-2.623-5.849-2.654-1.291.4-4.451,2.965-5.61,2.656-2.2-.588.01-5.7-.239-7.306-.826-1.46-5.577-4.337-3.856-6.117.819-.847,4.778-.747,6.056-1.214C269.824,4.866,270.925.7,272.114.133c2.247-1.066,3.121,4.636,4.346,5.758,1.372.71,6.784.208,6.565,2.5A26.7,26.7,0,0,1,280,11.951m-3.93,4.422c.242-1.821-1.138-3.093,0-4.714.3-.42,2.142-1.994,2.148-2.154-1.027-.79-2.689-.319-3.761-1.081-.932-.663-.857-2.331-1.755-3.088-.41,0-1.225,2.764-1.911,3.2-.666.425-3.61.484-3.605.968,2.619,2,2.7,3.456,2.151,6.6,1.113-.1,2.267-1.362,3.365-1.361,1.08,0,2.381,1.211,3.364,1.632" transform="translate(-191.709 0)" fill="#953c2d"/>
            <path id="Path_923344" data-name="Path 923344" d="M17.166,8.737c.007-.487-.13-2.925.155-2.967l2.809,0c.009.985-.016,1.979,0,2.964-.983-.015-1.98-.014-2.963,0" transform="translate(-12.523 -4.216)" fill="#953c2d"/>
            <path id="Path_923345" data-name="Path 923345" d="M9.188,16.715c-.014.983-.015,1.98,0,2.963-.985-.015-1.979.011-2.964,0l0-2.809c.043-.285,2.48-.148,2.967-.155" transform="translate(-4.545 -12.193)" fill="#953c2d"/>
            <path id="Path_923346" data-name="Path 923346" d="M28.238,16.778c.985.015,1.979-.011,2.964,0l0,2.809c-.043.285-2.48.148-2.967.155.014-.983.015-1.98,0-2.963" transform="translate(-20.632 -12.256)" fill="#953c2d"/>
            <path id="Path_923347" data-name="Path 923347" d="M20.191,27.787c-.007.487.13,2.925-.155,2.967l-2.809,0c-.009-.985.016-1.979,0-2.964.983.015,1.98.014,2.963,0" transform="translate(-12.586 -20.303)" fill="#953c2d"/>
            <path id="Path_923348" data-name="Path 923348" d="M60.166,24.737c.007-.487-.13-2.925.155-2.967l2.809,0c.009.985-.016,1.979,0,2.964-.983-.015-1.98-.016-2.963,0" transform="translate(-43.941 -15.906)" fill="#953c2d"/>
            <path id="Path_923349" data-name="Path 923349" d="M52.919,32.714c-.014.983-.014,1.98,0,2.963-.9-.016-1.8.012-2.695,0l0-2.809c.043-.286,2.226-.147,2.7-.155" transform="translate(-36.694 -23.883)" fill="#953c2d"/>
            <path id="Path_923350" data-name="Path 923350" d="M71.238,32.778c.985.015,1.979-.011,2.964,0l0,2.809c-.043.285-2.48.148-2.967.155.015-.983.015-1.98,0-2.963" transform="translate(-52.051 -23.947)" fill="#953c2d"/>
            <path id="Path_923351" data-name="Path 923351" d="M63.128,43.787c-.015.985.011,1.979,0,2.964l-2.809,0c-.285-.043-.148-2.48-.155-2.967.983.017,1.98.014,2.963,0" transform="translate(-43.941 -31.993)" fill="#953c2d"/>
            <path id="Path_923352" data-name="Path 923352" d="M311.166,302.737c.007-.487-.13-2.925.155-2.967l2.809,0c.009.985-.016,1.979,0,2.964-.983-.015-1.98-.014-2.963,0" transform="translate(-227.336 -219.029)" fill="#953c2d"/>
            <path id="Path_923353" data-name="Path 923353" d="M303.188,310.715c-.014.983-.015,1.98,0,2.963-.985-.015-1.979.011-2.964,0l0-2.809c.043-.285,2.48-.148,2.967-.155" transform="translate(-219.359 -227.006)" fill="#953c2d"/>
            <path id="Path_923354" data-name="Path 923354" d="M322.238,310.778c.985.015,1.979-.011,2.964,0l0,2.809c-.043.285-2.48.148-2.967.155.014-.983.015-1.98,0-2.963" transform="translate(-235.445 -227.069)" fill="#953c2d"/>
            <path id="Path_923355" data-name="Path 923355" d="M314.191,321.787c-.007.487.13,2.925-.155,2.967l-2.809,0c-.009-.985.016-1.979,0-2.964.983.015,1.98.014,2.963,0" transform="translate(-227.399 -235.116)" fill="#953c2d"/>
            <path id="Path_923356" data-name="Path 923356" d="M40.281,250.885c8.161-.974,11.408,11.142,3.394,14.173-10.427,3.944-14.309-12.87-3.394-14.173m-.006,2.958c-6.36,1.017-3.6,11.222,2.673,8.333,4.641-2.139,2.18-9.109-2.673-8.333" transform="translate(-24.658 -183.271)" fill="#953c2d"/>
          </g>
        </g>
      </g>
    </g>
  </g>
</svg>
