<svg xmlns="http://www.w3.org/2000/svg" xmlns:xlink="http://www.w3.org/1999/xlink" width="99" height="99" viewBox="0 0 99 99">
  <defs>
    <clipPath id="clip-path">
      <rect id="Rectangle_401223" data-name="Rectangle 401223" width="99" height="99" transform="translate(0)" fill="#8ce6fe"/>
    </clipPath>
    <clipPath id="clip-path-2">
      <rect id="Rectangle_401223-2" data-name="Rectangle 401223" width="88.539" height="88.539" fill="#f3f9ff"/>
    </clipPath>
    <clipPath id="clip-path-3">
      <rect id="Rectangle_408912" data-name="Rectangle 408912" width="73.306" height="70.607" fill="none"/>
    </clipPath>
  </defs>
  <g id="Group_1118901" data-name="Group 1118901" transform="translate(-619.921 -5755.871)">
    <g id="Group_1100724" data-name="Group 1100724" transform="translate(619.921 5755.871)">
      <g id="Group_1099654" data-name="Group 1099654" transform="translate(0 0)">
        <g id="Group_1099652" data-name="Group 1099652" clip-path="url(#clip-path)">
          <path id="Path_873521" data-name="Path 873521" d="M99,77.066A22,22,0,0,1,77.066,99H21.934A22,22,0,0,1,0,77.066V21.933A22,22,0,0,1,21.934,0H77.066A22,22,0,0,1,99,21.934Z" transform="translate(0)" fill="#ffdcd6"/>
        </g>
      </g>
      <g id="Group_1099659" data-name="Group 1099659" transform="translate(4.77 5.723)">
        <g id="Group_1099652-2" data-name="Group 1099652" transform="translate(0 0)" clip-path="url(#clip-path-2)">
          <path id="Path_873521-2" data-name="Path 873521" d="M88.539,68.922A19.674,19.674,0,0,1,68.923,88.539H19.616A19.674,19.674,0,0,1,0,68.922V19.616A19.674,19.674,0,0,1,19.616,0H68.923A19.674,19.674,0,0,1,88.539,19.616Z" fill="#f3f9ff"/>
        </g>
      </g>
    </g>
    <g id="Group_1100725" data-name="Group 1100725" transform="translate(636.343 5771.293)">
      <rect id="Rectangle_401104" data-name="Rectangle 401104" width="68" height="69" fill="none"/>
      <g id="Group_1119000" data-name="Group 1119000" transform="translate(-20.306 -14.393)">
        <g id="Group_1118999" data-name="Group 1118999" transform="translate(15 12)" clip-path="url(#clip-path-3)">
          <path id="Path_923068" data-name="Path 923068" d="M33.806,66.387l-33.26.254c-5.227-35.32,28.917-22.693,23.648-43.874C17.147-5.56,56.946-5.237,67.124,11.6c3.865,6.386,5.541,23.253-5.878,30.579C44.614,52.85,74.789,39.14,69.8,66.887Z" transform="translate(2.94 2.269)" fill="#fff0ee"/>
          <path id="Path_923069" data-name="Path 923069" d="M101.076,52.407a8.283,8.283,0,0,0,1.388-4.562c0-4.888-4.305-8.849-9.612-8.849a10.354,10.354,0,0,0-2.651.35,13.118,13.118,0,0,0-15.576-.624A7.441,7.441,0,0,0,67.9,34.728,7.129,7.129,0,0,0,60.528,41.3C53.772,42.521,48.673,48,48.673,54.584a12.467,12.467,0,0,0,.3,2.718,7.89,7.89,0,0,0-5.884,7.418c0,3.074,2.64,6.559,5.443,7.825-.173.271,58.118,0,58.118,0a11.915,11.915,0,0,0,3.486-8.344,12.642,12.642,0,0,0-9.059-11.795" transform="translate(-40.089 -3.089)" fill="#025974"/>
          <path id="Path_923070" data-name="Path 923070" d="M89.835,56.417a5.394,5.394,0,0,0,.9-2.967,6.023,6.023,0,0,0-6.252-5.758,6.783,6.783,0,0,0-1.723.228,8.524,8.524,0,0,0-10.13-.4,4.836,4.836,0,0,0-4.374-2.6,4.636,4.636,0,0,0-4.794,4.275,9.029,9.029,0,0,0-7.71,8.639,8.136,8.136,0,0,0,.193,1.769,5.132,5.132,0,0,0-3.826,4.823A5.039,5.039,0,0,0,55.2,68.969c-.112.175-.2.362-.3.545H93.459a7.758,7.758,0,0,0,2.268-5.429,8.219,8.219,0,0,0-5.892-7.668" transform="translate(-22.421 -0.057)" fill="#025974"/>
          <path id="Path_923071" data-name="Path 923071" d="M33.692,45.415s.144-.745,1.329-.689c1.381.067,3.9,2.247,5.781,1.745a3.725,3.725,0,0,0,2.635-2.635c.372-.841.149-1.338.415-1.8s.773-.135.487,1.343c-.139.707-.426,4.268-2.572,5.289-2.808,1.338-8.579-1.493-8.075-3.252" transform="translate(-6.762 -0.973)" fill="#be4719"/>
          <path id="Path_923072" data-name="Path 923072" d="M33.676,44.6s1.46-1.787,5.672.829c0,0,.383,1.368-1.7,3.04,0,0-5.758-2.184-3.967-3.869" transform="translate(-6.86 -0.328)" fill="#e32e1b"/>
          <path id="Path_923073" data-name="Path 923073" d="M36.732,52.319c-.842-2.415.343-4.022.091-5.586-.3-1.848-1.71-2.922-3.562-2.28-1.169.4-2.839.987-1.815,3.76a5.587,5.587,0,0,1-.51,5.041c-1.194,2.341-.747,7.463-1.261,9.475-.586,2.3-1.323,7.221-.295,7.271s1.614-.279,1.021-.476-.611-.269-.588-.452c.306-2.38,2.443-4.4,3.063-7.179a43.536,43.536,0,0,0,.166-4.993,7.521,7.521,0,0,1,1.452.641,42.8,42.8,0,0,0-.263,5.067c.052,2.6.444,7.506,1.573,7.536,1.2.039,1.8-.314,1.039-.509-.659-.167-.633-.2-.618-.38.219-2.616.872-7.447,1.165-10.548a16.034,16.034,0,0,0-.659-6.389" transform="translate(-8.189 -0.251)" fill="#be4719"/>
          <path id="Path_923074" data-name="Path 923074" d="M35.168,63.775s-.631.362-.943.266a1.55,1.55,0,0,1-.448-.2s.147.5.564.5,1.592-.036,1.382-.383a.989.989,0,0,0-.555-.183" transform="translate(-6.728 5.554)" fill="#f42a5e"/>
          <path id="Path_923075" data-name="Path 923075" d="M30.12,63.68a1.7,1.7,0,0,1-.886.141c-.31-.106-.3-.179-.3-.179s-.075.572.348.583,1.591.008,1.392-.345a1.02,1.02,0,0,0-.551-.2" transform="translate(-8.171 5.514)" fill="#f42a5e"/>
          <path id="Path_923076" data-name="Path 923076" d="M37.048,44.374c2.1,2.1,1.979,3.954,1.4,10.553-.183,2.05.008,6.563-.728,6.943-4.63,2.38-8.722-1.3-8.722-1.3s1.138-11.128,2.524-15.417c.712-2.208,4.567-1.734,5.522-.781" transform="translate(-8.148 -0.456)" fill="#f69a8b"/>
          <path id="Path_923077" data-name="Path 923077" d="M31.884,45.015s.663-.365,1.375.585c.825,1.108.745,4.44,2.324,5.57a3.719,3.719,0,0,0,3.712.362c.885-.245,1.128-.734,1.654-.823s.6.509-.729,1.226c-.636.343-3.563,2.385-5.714,1.377-2.82-1.316-4.305-7.57-2.622-8.3" transform="translate(-7.502 -0.049)" fill="#be4719"/>
          <path id="Path_923078" data-name="Path 923078" d="M32.232,44.486c1.181-.069,1.8.875,2.468,4.055,0,0-.694,1.242-3.353.955,0,0-1.667-4.855.885-5.01" transform="translate(-7.61 -0.187)" fill="#e32e1b"/>
          <path id="Path_923079" data-name="Path 923079" d="M33.678,39.157a1.28,1.28,0,0,0,1.248,1.308c.711.016,1.3-1.667,1.314-2.372s-2.548.357-2.563,1.064" transform="translate(-6.757 -2.157)" fill="#1d1b3a"/>
          <path id="Path_923080" data-name="Path 923080" d="M34.745,39.637a.452.452,0,0,1-.641.027.455.455,0,1,1,.641-.027" transform="translate(-6.674 -1.855)" fill="#f42a5e"/>
          <path id="Path_923081" data-name="Path 923081" d="M32.74,41.679s.457,1.926-.188,2.826c-.41.577,2.81,2.037,2.748,1.261-.077-1-.646-1.625.017-2.749Z" transform="translate(-7.103 -1.021)" fill="#af3814"/>
          <path id="Path_923082" data-name="Path 923082" d="M35.1,39.655c.834.875,1.569,4.574.6,5.325-.42.322-2.05-.165-3.008-1.826a3.041,3.041,0,0,1-.114-3.14,1.615,1.615,0,0,1,2.524-.359" transform="translate(-7.202 -1.767)" fill="#be4719"/>
          <path id="Path_923083" data-name="Path 923083" d="M35.959,40.414c.061.524.056.834-1.064.659-1.374-.218-1.2.824-1.08,1.186.354,1.047-1.225-.149-.688,1.064.6,1.348-.978.261-1.239-.367a3.073,3.073,0,0,1,.01-3.079c.88-1.728,3.882-1.082,4.06.537" transform="translate(-7.409 -1.862)" fill="#1d1b3a"/>
          <path id="Path_923084" data-name="Path 923084" d="M32.5,40.288a.454.454,0,1,1-.03-.641.453.453,0,0,1,.03.641" transform="translate(-7.342 -1.661)" fill="#f42a5e"/>
          <path id="Path_923085" data-name="Path 923085" d="M30.369,38.609c-.016.707.651,2.215,1.359,2.228a1.277,1.277,0,0,0,1.308-1.25c.017-.71-2.648-1.688-2.666-.978" transform="translate(-7.742 -2.008)" fill="#1d1b3a"/>
          <path id="Path_923086" data-name="Path 923086" d="M53.976,37.35s3.084,2.243,8.9-4.488c4.8-5.557,3.137-5.413,2.9-5.332a2.118,2.118,0,0,0-2.084,1.652c-.612,1.749-2.8,2.773-4.329,3.462-2.12.96-3.773.925-6.488-1.976-.817-.875,1.087,5.326,1.1,6.682" transform="translate(-1.106 -5.237)" fill="#be4719"/>
          <path id="Path_923087" data-name="Path 923087" d="M47.765,29.361s2.193-4.164,4.666-1.138,6.206,8.949,4.343,9.516c-2.179.67-8.2-6.918-9.009-8.378" transform="translate(-2.566 -5.353)" fill="#be4719"/>
          <path id="Path_923088" data-name="Path 923088" d="M51.187,53.511c.01-.875,1.146-4.613,3.956-1.637S60.31,66.1,59.978,67.33a.906.906,0,0,1-1.4.624s-7.453-9.189-7.392-14.443" transform="translate(-1.547 1.676)" fill="#be4719"/>
          <path id="Path_923089" data-name="Path 923089" d="M44.286,51.211c.692-.58,4.356-2.286,3.93,1.7s-7.575,13.208-8.751,13.8-1.34-.45-1.34-.45S40.17,54.7,44.286,51.211" transform="translate(-5.434 1.558)" fill="#be4719"/>
          <path id="Path_923090" data-name="Path 923090" d="M52.367,37.114s-4.44,4.138-7.078,12.545c0,0-2.246,5.762-4.225,8.267,0,0,.141,2.435,4.951,2.871,0,0,11.395-11.008,10.419-19.811Z" transform="translate(-4.559 -2.379)" fill="#8ce6fe"/>
          <path id="Path_923091" data-name="Path 923091" d="M42.57,40.44s-.79,5.651,5.206,12.306c0,0,5.887,6.1,7.03,9.04,0,0,2.225,1.2,5.2-2.428,0,0-4.883-15.459-7.9-19.681Z" transform="translate(-4.122 -1.617)" fill="#8ce6fe"/>
          <path id="Path_923092" data-name="Path 923092" d="M38.282,62.1s-.846,1.625.475,2.2,3.672,1.06,3.161-.035C41.59,63.568,40,62.8,40,62.8a2.209,2.209,0,0,1-1.719-.7" transform="translate(-5.466 5.056)" fill="#f42a5e"/>
          <path id="Path_923093" data-name="Path 923093" d="M56.711,63.978s.616,1.718,1.976,1.229,3.374-1.748,2.2-2.169a5.513,5.513,0,0,0-2.441.266,2.188,2.188,0,0,1-1.731.675" transform="translate(0.096 5.311)" fill="#f42a5e"/>
          <path id="Path_923094" data-name="Path 923094" d="M42.536,40.685a9.025,9.025,0,0,0,.256,2.521c.087.206,8.184.487,11.726-1.34,0,0-8.674-.306-11.981-1.181" transform="translate(-4.122 -1.317)" fill="#1d1b3a"/>
          <path id="Path_923095" data-name="Path 923095" d="M45.988,20c-2.164,1.8-3.052,5.342-9.118,5.9-4.916.452-.675,9.924,8.365,8.887,5.823-.668,11.683-2.159,9.942-10.474C53.814,17.8,48.1,18.249,45.988,20" transform="translate(-6.424 -7.805)" fill="#1d1b3a"/>
          <path id="Path_923096" data-name="Path 923096" d="M54.714,42.194c-1.9-5.084.537-8.553-.071-11.861-.721-3.912-5.494-4.829-9.392-3.385-2.463.915-5.4,1.7-3.1,7.535,1.488,3.771,2.712,4.9.731,9.011-2.42,5.033,11.939-1.006,11.832-1.3" transform="translate(-4.484 -5.596)" fill="#be4719"/>
          <path id="Path_923097" data-name="Path 923097" d="M57.233,45.235c.005-.01-2.406-8.041-2.4-8.051,2.365-4.5-3.58-10.4-3.58-10.4l-2.108-.664c4.166,4.626,4.518,5.934,3.16,6.227-4.51.981-7.99-5.058-7.99-5.058a7.764,7.764,0,0,0-.941.276,6.244,6.244,0,0,0-.676.489s2.826.59,3.145,4.661c.387,4.931-2.887,4.465-2.887,4.465a9.24,9.24,0,0,1-.218,5.674l-.849,2.622c3.353,1.6,16.9,1.506,15.342-.24" transform="translate(-4.313 -5.651)" fill="#07c3f3"/>
          <path id="Path_923098" data-name="Path 923098" d="M43.48,50.481c1.17.378,1.115-.888-.33-1.975s-1.409-6.219-1.272-8.068c.169-2.263,3.426-7.476,3.426-7.476,1.608-4.68-1.125-5.14-2.179-4.9-1.331.3-7.968,11.389-3.143,18.583,2.67,3.981,2.975,3.664,3.5,3.832" transform="translate(-5.397 -5.087)" fill="#be4719"/>
          <path id="Path_923099" data-name="Path 923099" d="M45.424,23.032s.51,3.175-.436,4.521c-.6.858,4.366,2.653,4.27,1.5-.125-1.486-.973-2.4-.005-4.065Z" transform="translate(-3.407 -6.569)" fill="#af3814"/>
          <path id="Path_923100" data-name="Path 923100" d="M48.854,20.015c1.239,1.285,2.369,6.754.946,7.871-.619.487-3.041-.218-4.477-2.663a4.523,4.523,0,0,1-.208-4.656c.487-.811,2.3-2.055,3.738-.553" transform="translate(-3.522 -7.677)" fill="#be4719"/>
          <path id="Path_923101" data-name="Path 923101" d="M50.421,21.1c.093.781.091,1.234-1.571.986-2.032-.308-1.763,1.237-1.582,1.766.535,1.551-2.648.023-1.619,1.7,1.541,2.516-1.974.965-2.81.157-.636-.614-.213-2.605,1.068-5.176s6.233-1.835,6.515.563" transform="translate(-4.118 -7.792)" fill="#1d1b3a"/>
        </g>
      </g>
    </g>
  </g>
</svg>
