<svg xmlns="http://www.w3.org/2000/svg" xmlns:xlink="http://www.w3.org/1999/xlink" width="99" height="99" viewBox="0 0 99 99">
  <defs>
    <clipPath id="clip-path">
      <rect id="Rectangle_401223" data-name="Rectangle 401223" width="99" height="99" transform="translate(0)" fill="#8ce6fe"/>
    </clipPath>
    <clipPath id="clip-path-2">
      <rect id="Rectangle_401223-2" data-name="Rectangle 401223" width="88.539" height="88.539" fill="#f3f9ff"/>
    </clipPath>
    <clipPath id="clip-path-3">
      <rect id="Rectangle_408917" data-name="Rectangle 408917" width="61.243" height="69" fill="none"/>
    </clipPath>
  </defs>
  <g id="Group_1118899" data-name="Group 1118899" transform="translate(-619.921 -5755.871)">
    <g id="Group_1100724" data-name="Group 1100724" transform="translate(619.921 5755.871)">
      <g id="Group_1099654" data-name="Group 1099654" transform="translate(0 0)">
        <g id="Group_1099652" data-name="Group 1099652" clip-path="url(#clip-path)">
          <path id="Path_873521" data-name="Path 873521" d="M99,77.066A22,22,0,0,1,77.066,99H21.934A22,22,0,0,1,0,77.066V21.933A22,22,0,0,1,21.934,0H77.066A22,22,0,0,1,99,21.934Z" transform="translate(0)" fill="#ffdcd6"/>
        </g>
      </g>
      <g id="Group_1099659" data-name="Group 1099659" transform="translate(4.77 5.723)">
        <g id="Group_1099652-2" data-name="Group 1099652" transform="translate(0 0)" clip-path="url(#clip-path-2)">
          <path id="Path_873521-2" data-name="Path 873521" d="M88.539,68.922A19.674,19.674,0,0,1,68.923,88.539H19.616A19.674,19.674,0,0,1,0,68.922V19.616A19.674,19.674,0,0,1,19.616,0H68.923A19.674,19.674,0,0,1,88.539,19.616Z" fill="#f3f9ff"/>
        </g>
      </g>
    </g>
    <g id="Group_1100725" data-name="Group 1100725" transform="translate(636.343 5771.293)">
      <rect id="Rectangle_401104" data-name="Rectangle 401104" width="68" height="69" transform="translate(0.29 -0.116)" fill="none"/>
      <g id="Group_1119012" data-name="Group 1119012" transform="translate(3.29 -0.116)">
        <g id="Group_1119011" data-name="Group 1119011" clip-path="url(#clip-path-3)">
          <path id="Path_923290" data-name="Path 923290" d="M164.316,262.469c1.015.327,2.436,1.442,3.668,1.82a3.255,3.255,0,0,0,1.229.207c.868-.019.939-.288,1.52-.507,1.07-.4,2.386-1.253,3.208-1.52a9.381,9.381,0,0,1,1.689-.169c3.487.972,5.3,3.838,5.57,7.348.519,6.681-2.829,14.714-9.454,17.138-.765-.152-1.61-.63-2.283-.68-1.064-.079-1.911.595-3.03.686a9.482,9.482,0,0,1-3.637-.512c-6.616-2.966-11.4-17.522-5.237-22.545a7.638,7.638,0,0,1,6.756-1.264M159.21,271.8a.78.78,0,0,0-1.24.284c-.327,1.207,1.047,5.238,1.7,6.433.32.587.627,1.456,1.345,1.351,1.335-.195.078-1.66-.158-2.2a20.006,20.006,0,0,1-.978-2.568c-.158-.576-.5-3.124-.668-3.3m3.105,9.1c-.991.623,1.462,2.861,2.089,1.834.545-.892-1.464-2.227-2.089-1.834" transform="translate(-128.583 -217.892)" fill="#fb6559"/>
          <path id="Path_923291" data-name="Path 923291" d="M45.862,100.272c-.8,1.229-2.224.824-3.546.844-10.675.163-21.61.293-32.253.169-.678-.008-1.764-.123-2.533-.169-2.315-.136-3.807-.413-5.4-2.284L.607,96.388c.124-5.045,1.469-8,7-8.451l36.655,0c2.74.641.983,2.4.5,4.058-.973,3.371.151,5.194,1.1,8.273M4.829,97.57c.3.238,1.041.844,1.435.844H42.316a11.712,11.712,0,0,1-.338-6.586,6.526,6.526,0,0,0,.338-1.182H6.939c-.08,0-.879.242-1.049.3A3.775,3.775,0,0,0,4.829,97.57" transform="translate(-0.504 -73.088)" fill="#07c3f3"/>
          <path id="Path_923292" data-name="Path 923292" d="M.1,137.984l1.524,2.444c1.593,1.871,3.084,2.147,5.4,2.284l-.015,34.349c-.729,2.887-3.191,3.1-5.666,2.15-.216-.083-.568-.382-.735-.024A4.542,4.542,0,0,1,.272,178L.1,177.5c.241-13.157-.323-26.361,0-39.514m2.982,15.909c-1,.088-1.01,2.253-.452,2.583,1.65.974,1.905-2.711.452-2.583m0,4.053c-.535.047-.737.612-.79,1.059a71.262,71.262,0,0,0,0,10.143c.147,1.61,1.544,1.52,1.7.338.434-3.193-.348-7.354,0-10.655a.938.938,0,0,0-.91-.885" transform="translate(0 -114.684)" fill="#8ce6fe"/>
          <path id="Path_923293" data-name="Path 923293" d="M89.913,174.155c-1.24-.324-2.966,1.725-3.546,2.7a5.19,5.19,0,0,0-5.741-4.559c-.22.024-.412-.058-.59.167-.907,1.143-.762,4.713.252,5.912a7.637,7.637,0,0,0-6.757,1.265c-6.16,5.023-1.379,19.579,5.237,22.545-8.38-.11-16.782.147-25.161,0,.768-.988.481-2.355.507-3.546H73.194c-.5-1.072-1.222-2.008-1.717-3.094-2.369-5.2-3.4-14.438,2.559-17.594a12.589,12.589,0,0,1,2.451-.926h2.617c-.452-1.156-.195-5.083,1.308-5.376a10.9,10.9,0,0,1,1.945.181,7.245,7.245,0,0,1,3.087,1.641l.919,1.189,0-12.833c1.322-.02,2.746.385,3.546-.844Z" transform="translate(-44.555 -133.8)" fill="#ebb024"/>
          <path id="Path_923294" data-name="Path 923294" d="M12.557,166.153c-.2,12.2.266,24.444,0,36.643-.026,1.191.261,2.558-.507,3.546-3.756-.066-6.753.1-8.443-3.884.167-.358.52-.058.735.024,2.476.95,4.937.737,5.666-2.15l.015-34.349c.769.046,1.855.161,2.533.169" transform="translate(-2.998 -137.955)" fill="#07c3f3"/>
          <path id="Path_923295" data-name="Path 923295" d="M255.607,287.271c6.625-2.424,9.973-10.457,9.454-17.138-.272-3.51-2.083-6.376-5.57-7.348,8.138-.716,8.886,8.25,7.176,14.184-1.253,4.349-5.766,11.355-11.06,10.3" transform="translate(-212.444 -218.377)" fill="#ef5746"/>
          <path id="Path_923296" data-name="Path 923296" d="M245.335,238.815a3.025,3.025,0,0,1,.654.612c.67,1.06.09,1.822-.822,2.427-.093.062-.366.059-.558.195a6.549,6.549,0,0,0-2.482,2.507c-.581.218-.652.488-1.52.507a3.9,3.9,0,0,1,.169-.844,10.375,10.375,0,0,1,1.013-2.7c.58-.977,2.306-3.026,3.546-2.7" transform="translate(-199.977 -198.459)" fill="#a95a22"/>
          <path id="Path_923297" data-name="Path 923297" d="M252.647,256.984l.169,1.182c-.823.267-2.138,1.118-3.208,1.52a6.549,6.549,0,0,1,2.482-2.507c.191-.135.464-.133.558-.195" transform="translate(-207.458 -213.589)" fill="#ebb024"/>
          <path id="Path_923298" data-name="Path 923298" d="M.626,372.491c0-.026-.292-.256-.169-.507Z" transform="translate(-0.354 -309.17)" fill="#a3a2f6"/>
          <path id="Path_923299" data-name="Path 923299" d="M175.018,318.258c.171.175.511,2.723.668,3.3a19.994,19.994,0,0,0,.978,2.568c.235.541,1.492,2.006.158,2.2-.718.1-1.025-.764-1.345-1.351-.652-1.195-2.026-5.226-1.7-6.433a.78.78,0,0,1,1.24-.284" transform="translate(-144.392 -264.351)" fill="#fc9188"/>
          <path id="Path_923300" data-name="Path 923300" d="M207.739,227.984c-1.311,3.648.717,7.29,4.728,7.261a3.9,3.9,0,0,0-.169.844,3.246,3.246,0,0,1-1.229-.207c-1.232-.378-2.653-1.492-3.668-1.82-1.014-1.2-1.16-4.77-.252-5.912.178-.225.37-.143.59-.167" transform="translate(-171.669 -189.486)" fill="#4fa247"/>
          <path id="Path_923301" data-name="Path 923301" d="M198.61,372.787c.625-.393,2.633.942,2.089,1.834-.627,1.027-3.079-1.212-2.089-1.834" transform="translate(-164.878 -309.778)" fill="#fc9188"/>
          <path id="Path_923302" data-name="Path 923302" d="M88.608,165.985l0,12.833-.919-1.189a7.245,7.245,0,0,0-3.088-1.641,10.849,10.849,0,0,0-1.945-.181c-1.5.292-1.759,4.22-1.308,5.376H78.73a12.575,12.575,0,0,0-2.451.926C70.32,185.265,71.35,194.5,73.719,199.7c.495,1.086,1.212,2.022,1.717,3.094H56.355c.266-12.2-.2-24.44,0-36.643,10.643.124,21.578-.006,32.253-.169m-24.864,3.249c-.392-.39-2.1-.364-2.407.3-.524,1.15,1.44,1.41,2.241,1.066.431-.185.482-1.052.166-1.367m2.188-.173c-.992.509-.759,1.467.312,1.643a52.524,52.524,0,0,0,7.761.013c1.216-.144,1.449-1.215.331-1.688Z" transform="translate(-46.796 -137.956)" fill="#eebc32"/>
          <path id="Path_923303" data-name="Path 923303" d="M61.03,110.984a11.712,11.712,0,0,0,.338,6.586H25.316c-.394,0-1.131-.607-1.435-.844.055-.639-.347-1.135-.351-1.772A4.018,4.018,0,0,1,27.023,111Zm-28.285,4.053h20.77c.429,0,1-1.53-.836-1.7-6.156.477-13.21-.61-19.258.009-.816.083-1.352.287-1.064,1.231a1.1,1.1,0,0,0,.388.457" transform="translate(-19.556 -92.243)" fill="#cff5ff"/>
          <path id="Path_923304" data-name="Path 923304" d="M18.074,110.907a3.775,3.775,0,0,1,1.061-6.622c.17-.059.969-.3,1.049-.3H55.562a6.526,6.526,0,0,1-.338,1.182l-34.007.019a4.018,4.018,0,0,0-3.493,3.951c0,.636.406,1.133.351,1.772" transform="translate(-13.75 -86.425)" fill="#0894b8"/>
          <path id="Path_923305" data-name="Path 923305" d="M13.476,256.188a.938.938,0,0,1,.91.884c-.348,3.3.434,7.462,0,10.655-.161,1.182-1.558,1.271-1.7-.338a71.262,71.262,0,0,1,0-10.143c.053-.447.255-1.011.79-1.059" transform="translate(-10.391 -212.925)" fill="#07c3f3"/>
          <path id="Path_923306" data-name="Path 923306" d="M14.217,232.181c1.454-.129,1.2,3.557-.452,2.583-.558-.33-.547-2.494.452-2.583" transform="translate(-11.133 -192.971)" fill="#07c3f3"/>
          <path id="Path_923307" data-name="Path 923307" d="M217.394,232.4a10.376,10.376,0,0,0-1.013,2.7c-4.011.029-6.04-3.613-4.728-7.261a5.19,5.19,0,0,1,5.741,4.559" transform="translate(-175.582 -189.343)" fill="#5cc557"/>
          <path id="Path_923308" data-name="Path 923308" d="M110.213,184.038l8.4-.032c1.118.473.885,1.544-.331,1.688a52.526,52.526,0,0,1-7.761-.013c-1.071-.176-1.3-1.134-.312-1.643" transform="translate(-91.078 -152.934)" fill="#fad383"/>
          <path id="Path_923309" data-name="Path 923309" d="M88.081,183.969c.316.315.265,1.182-.166,1.367-.8.344-2.765.084-2.241-1.066.3-.666,2.016-.691,2.407-.3" transform="translate(-71.134 -152.692)" fill="#fad383"/>
          <path id="Path_923310" data-name="Path 923310" d="M75.812,125.712a1.1,1.1,0,0,1-.388-.457c-.288-.944.248-1.148,1.064-1.231,6.048-.618,13.1.468,19.258-.009,1.832.167,1.265,1.7.836,1.7Z" transform="translate(-62.622 -102.918)" fill="#07c3f3"/>
          <path id="Path_923311" data-name="Path 923311" d="M235.883.108a6.81,6.81,0,0,1,5.462,1.442,7.057,7.057,0,0,1,5.144-1.5,6.634,6.634,0,0,1,4.872,10.023l-6.154.013c-.509.114-.5,1.14-.873,1.428l-1.752-5.565a.522.522,0,0,0-.963-.069c-.585,1.9-1.1,3.817-1.72,5.7-.044.134-.024.473-.175.178-.567-1.108-.807-2.763-1.384-3.837a.511.511,0,0,0-.907-.114c-.255.334-.773,2.206-1,2.263-.224-.526-.543-1.006-.768-1.534a10.15,10.15,0,0,1,.218-8.428" transform="translate(-193.053 1.917)" fill="#c1211b"/>
          <path id="Path_923312" data-name="Path 923312" d="M219.765,80.69c.218.007.272.237.41.38a6.171,6.171,0,0,0,1.444,1.2c.113.3.351,1.285.619,1.407a.507.507,0,0,0,.755-.445c.578.171,1.12.436,1.7.6a10.979,10.979,0,0,0,5.374.088c-1.435,1.437-2.829,2.919-4.306,4.316a3.038,3.038,0,0,1-3.665-.091l-7.35-7.352c1.543-.081,3.094-.009,4.64-.031.136,0,.285-.074.374-.072" transform="translate(-175.698 -67.742)" fill="#953c2d"/>
          <path id="Path_923313" data-name="Path 923313" d="M207.4.789a10.15,10.15,0,0,0-.218,8.428c.225.527.544,1.007.768,1.534l-5.153-.033A6.619,6.619,0,0,1,207.4.789" transform="translate(-164.567 1.236)" fill="#953c2d"/>
          <path id="Path_923314" data-name="Path 923314" d="M275.051,63.277l1.718-5.7c.111.01.1.107.13.178.678,1.578,1.01,3.532,1.652,5.15a.53.53,0,0,0,.859.234l.931-2.332h4.947c-1,1.1-2.109,2.107-3.16,3.16a10.979,10.979,0,0,1-5.374-.088c-.583-.163-1.125-.427-1.7-.6" transform="translate(-227.755 -47.787)" fill="#c1211b"/>
          <path id="Path_923315" data-name="Path 923315" d="M253.287,72.706a6.174,6.174,0,0,1-1.445-1.2c-.139-.143-.192-.373-.41-.38.186-.054.643-1.6.755-1.511.328,1.043.717,2.068,1.1,3.091" transform="translate(-207.365 -58.178)" fill="#fc3730"/>
        </g>
      </g>
    </g>
  </g>
</svg>
