<svg xmlns="http://www.w3.org/2000/svg" xmlns:xlink="http://www.w3.org/1999/xlink" width="70" height="70" viewBox="0 0 70 70">
  <defs>
    <clipPath id="clip-path">
      <rect id="Rectangle_408905" data-name="Rectangle 408905" width="42.86" height="42.86" fill="#953c2d"/>
    </clipPath>
  </defs>
  <g id="Group_1118917" data-name="Group 1118917" transform="translate(-269 -958)">
    <circle id="Ellipse_5614" data-name="Ellipse 5614" cx="35" cy="35" r="35" transform="translate(269 958)" fill="#fff"/>
    <g id="Group_1118988" data-name="Group 1118988" transform="translate(282.57 971.57)">
      <g id="Group_1118987" data-name="Group 1118987" clip-path="url(#clip-path)">
        <path id="Path_922809" data-name="Path 922809" d="M24.115.523c.695.729.052,2.543.463,2.831a19.163,19.163,0,0,1,7.507,3.114c.94-.716,1.361-1.941,2.773-1.619A9.468,9.468,0,0,1,38.01,8c.35,1.529-.972,1.83-1.6,2.851a18.272,18.272,0,0,1,3.093,7.428c.328.468,2.695-.484,3.189,1.015a18.146,18.146,0,0,1,.1,3.948c-.291,1.761-2.155.945-3.293,1.333a19.164,19.164,0,0,1-3.114,7.507c1.187,1.288,2.506,1.931,1.019,3.714a19.693,19.693,0,0,1-1.687,1.677c-1.7,1.353-2.392.132-3.569-1.054l-.149-.009a18.442,18.442,0,0,1-7.428,3.093c-.5.348.536,2.674-1.015,3.189a18.209,18.209,0,0,1-3.948.1c-1.926-.319-.849-2.954-1.333-3.293a19.165,19.165,0,0,1-7.507-3.114c-.943.761-1.405,2.048-2.88,1.586a26.224,26.224,0,0,1-2.8-2.67c-1.057-1.527.677-2.2,1.347-3.3a18.442,18.442,0,0,1-3.093-7.428c-.348-.5-2.674.536-3.189-1.015a18.189,18.189,0,0,1-.1-3.948c.291-1.761,2.155-.945,3.293-1.333a19.164,19.164,0,0,1,3.115-7.507c-1.125-1.24-2.49-1.894-1.083-3.644.2-.246,1.582-1.624,1.823-1.812C9,3.923,9.6,5.529,10.853,6.447a18.441,18.441,0,0,1,7.428-3.093C18.78,3,17.715.6,19.392.118A21.3,21.3,0,0,1,23.245.061a2.21,2.21,0,0,1,.87.462m-3.2,7.142C7.425,8.425,2.649,25.74,14.082,33.053c10.4,6.649,23.238-2.761,20.809-14.641A13.908,13.908,0,0,0,20.91,7.665" transform="translate(0 -0.001)" fill="#953c2d"/>
        <path id="Path_922810" data-name="Path 922810" d="M76.933,65.446A12.267,12.267,0,1,1,69.67,86.782c-7.987-7.149-3.324-20.485,7.263-21.337m-3.364,5.039a5.519,5.519,0,0,0-4.012,2.443c-2.976,4.775,2.429,12.836,7.616,13.36s10.26-5.926,9.863-10.844a5.259,5.259,0,0,0-9.163-3.174,5.634,5.634,0,0,0-4.3-1.785" transform="translate(-56.442 -56.239)" fill="#953c2d"/>
        <path id="Path_922811" data-name="Path 922811" d="M101.8,112.569a4.2,4.2,0,0,1,2.9,1.091c.348.34.666,1.162,1.154,1.238.645.1,1.453-1.372,2.094-1.777a3.641,3.641,0,0,1,5.1,1.305c2.1,3.66-1.934,9.43-5.474,10.654-4.463,1.543-9.382-4.375-9.255-8.554a3.85,3.85,0,0,1,3.485-3.956" transform="translate(-84.535 -96.784)" fill="#953c2d"/>
      </g>
    </g>
  </g>
</svg>
