<svg xmlns="http://www.w3.org/2000/svg" xmlns:xlink="http://www.w3.org/1999/xlink" width="295" height="276" viewBox="0 0 295 276">
  <defs>
    <clipPath id="clip-path">
      <rect id="Rectangle_408910" data-name="Rectangle 408910" width="295" height="228.266" fill="none"/>
    </clipPath>
  </defs>
  <g id="Group_1118916" data-name="Group 1118916" transform="translate(-179.711 -16954)">
    <g id="Group_1118912" data-name="Group 1118912" transform="translate(179.711 16954)">
      <circle id="Ellipse_11797" data-name="Ellipse 11797" cx="55.5" cy="55.5" r="55.5" transform="translate(22)" fill="#ffdcd6"/>
      <circle id="Ellipse_11798" data-name="Ellipse 11798" cx="49" cy="49" r="49" transform="translate(154 34)" fill="#fff0c5"/>
      <g id="Group_1118996" data-name="Group 1118996" transform="translate(0 40.755)">
        <g id="Group_1118995" data-name="Group 1118995" clip-path="url(#clip-path)">
          <path id="Path_922827" data-name="Path 922827" d="M324.794,224.94c-4.8-11.277-15.364-16.111-26.077-18.128-18.215-3.429-39.671-3.227-57.415,2.64l-44.011-2.58c-16.99-8.085-38.277-11.018-56.735-9.932-10.857.639-21.869,4.095-27.85,14.684-5.489,9.721-6.232,23.325.588,31.992a25.966,25.966,0,0,0,7.761,6.435c10.627,5.99,23.14,5.921,35.1,6.291,15.975.494,63.633,7.45,63.633,7.45l.233-.861c13.094-.285,40.921-.652,56.8.887,11.922,1.155,24.342,2.817,35.541-1.778a25.256,25.256,0,0,0,8.4-5.4c7.707-7.739,8.433-21.344,4.028-31.7" transform="translate(-32.498 -58.986)" fill="#2f1506"/>
          <path id="Path_922828" data-name="Path 922828" d="M345.16,230.063a34.78,34.78,0,0,0-12.559-2.689,358.279,358.279,0,0,0-67.785,7.784" transform="translate(-79.403 -68.176)" fill="none" stroke="#000" stroke-miterlimit="10" stroke-width="1"/>
          <path id="Path_922829" data-name="Path 922829" d="M402.676,230.251a31.338,31.338,0,0,1,10.479,11.765" transform="translate(-120.739 -69.039)" fill="none" stroke="#562d19" stroke-miterlimit="10" stroke-width="1"/>
          <path id="Path_922830" data-name="Path 922830" d="M404.882,237.387a29.3,29.3,0,0,1,7.264,9.776" transform="translate(-121.4 -71.178)" fill="none" stroke="#562d19" stroke-miterlimit="10" stroke-width="1"/>
          <path id="Path_922831" data-name="Path 922831" d="M405.128,244.414c3.247,3.6,5.559,8.015,7.833,12.38" transform="translate(-121.474 -73.285)" fill="none" stroke="#562d19" stroke-miterlimit="10" stroke-width="1"/>
          <path id="Path_922832" data-name="Path 922832" d="M405.852,253.748a26.435,26.435,0,0,1,4.659,7.838" transform="translate(-121.691 -76.084)" fill="none" stroke="#562d19" stroke-miterlimit="10" stroke-width="1"/>
          <path id="Path_922833" data-name="Path 922833" d="M388.314,221.8A34.664,34.664,0,0,1,399,232.632" transform="translate(-116.433 -66.506)" fill="none" stroke="#562d19" stroke-miterlimit="10" stroke-width="1"/>
          <path id="Path_922834" data-name="Path 922834" d="M393.178,229.971a28.348,28.348,0,0,1,6.247,6.8" transform="translate(-117.891 -68.955)" fill="none" stroke="#562d19" stroke-miterlimit="10" stroke-width="1"/>
          <path id="Path_922835" data-name="Path 922835" d="M268.742,273.609a25.89,25.89,0,0,1,11.576,8.1c2.078,2.534,3.77,5.523,6.388,7.4,2.826,2.031,7.188,3.661,9.74,2.916,0,0-8.517-44.389-8.951-44.583-5.432-2.423-13.938-1.923-13.938-1.923" transform="translate(-80.58 -73.605)"/>
          <path id="Path_922836" data-name="Path 922836" d="M242.666,269.972l5.873-34.522a56.9,56.9,0,0,1-6.085-1.71c-19.079-6.519-38.586-11.46-58.563-13.536" transform="translate(-55.138 -66.026)" fill="none" stroke="#000" stroke-miterlimit="10" stroke-width="1"/>
          <path id="Path_922837" data-name="Path 922837" d="M266.154,75.392c15.189,15.562,21.652,36.43,28.482,57.533,2.581,7.978,3.978,16.539,2.871,24.9a9.549,9.549,0,0,1-1.247,4.062,9.139,9.139,0,0,1-4.488,3.058c-12.93,5.207-26.488,6.048-40.055,7.484-13.191,1.4-26.965.635-39-5.834a6.129,6.129,0,0,1-2.739-4.879,27.306,27.306,0,0,1,.41-5.9c.945-7.945-.4-15.986-2.043-23.8a311.61,311.61,0,0,0-12.416-43.337l9.51-23.331L230.723,61.5s24.423,2.609,35.431,13.888" transform="translate(-58.747 -18.441)" fill="#025974"/>
          <path id="Path_922838" data-name="Path 922838" d="M175.97,63.468c-9.173,2.462-17.633,4.511-24.634,8.687-11.8,7.039-37.083,30.47-38.883,31.418-2.34,1.232-29.719-.055-29.719-.055L68.9,122.787s42.692,19.628,63.338,10.739,35.113-30.009,35.113-30.009" transform="translate(-20.658 -19.03)" fill="#025974"/>
          <path id="Path_922839" data-name="Path 922839" d="M238.454,60.251c10.333,1.1,21.874.976,31.761,4.535C280.678,68.551,288,74.834,296.16,82.62c8.515,8.125,19.389,21.046,22.016,33.329a200.983,200.983,0,0,1,4.39,46.519S300.7,155.835,300.7,155.8s-9.513-42.295-9.513-42.295l-32-20.995" transform="translate(-71.498 -18.066)" fill="#025974"/>
          <path id="Path_922840" data-name="Path 922840" d="M309.581,169.619c0-.033-9.513-42.294-9.513-42.294l-32-21" transform="translate(-80.378 -31.882)" fill="none" stroke="#000" stroke-miterlimit="10" stroke-width="1"/>
          <path id="Path_922841" data-name="Path 922841" d="M201.119,119.781l-6.767-14.81a6.734,6.734,0,0,1-.877-3.543" transform="translate(-58.004 -30.412)" fill="none" stroke="#000" stroke-miterlimit="10" stroke-width="1"/>
          <path id="Path_922842" data-name="Path 922842" d="M208.849,70.04a14.027,14.027,0,0,0,10.4,8.41A16.569,16.569,0,0,0,232.1,74.99a25,25,0,0,0,7.966-11.522" transform="translate(-62.622 -19.03)" fill="none" stroke="#000" stroke-miterlimit="10" stroke-width="1"/>
          <path id="Path_922858" data-name="Path 922858" d="M231.136,47.379,235.9,57.452s-1.466,8.775-12.127,10.993c-9.014,1.875-9.825-3.613-9.825-3.613l-3.327-12.75" transform="translate(-63.152 -14.206)" fill="#f69a8b"/>
          <path id="Path_922859" data-name="Path 922859" d="M201.451,39.895c-.615-4.36-1.435-10.083-.855-13.951.636-4.25,3.248-6.266,6.773-7.81a14.4,14.4,0,0,1,12.77,1.11c5.227,3.075,7.609,10.26,6.8,16.469-.983,7.556-3.595,12.394-10.24,15.434-2.853,1.306-8.709,1.675-11.628-.663-2.663-2.135-3.138-7.163-3.621-10.589" transform="translate(-60.088 -5.132)" fill="#f69a8b"/>
          <path id="Path_922860" data-name="Path 922860" d="M227.968,56.629a15.768,15.768,0,0,1-14.276,7.553" transform="translate(-64.074 -16.98)" fill="none" stroke="#000" stroke-miterlimit="10" stroke-width="1"/>
          <path id="Path_922861" data-name="Path 922861" d="M208.218,38.608a17.515,17.515,0,0,1-.968,4.823,3.626,3.626,0,0,0-.022,2.614c.38.711,2.049.673,2.78.718" transform="translate(-62.065 -11.576)" fill="none" stroke="#000" stroke-miterlimit="10" stroke-width="1"/>
          <path id="Path_922862" data-name="Path 922862" d="M220.609,35.647a6.019,6.019,0,0,0-2.748-1.71c-1.284-.471-2.768-.881-3.643-2.078" transform="translate(-64.231 -9.552)" fill="none" stroke="#000" stroke-miterlimit="10" stroke-width="1"/>
          <path id="Path_922863" data-name="Path 922863" d="M204.374,33.93a4.246,4.246,0,0,1-1.657,2.177c-.977.7-2.139.778-2.681,1.94" transform="translate(-59.979 -10.174)" fill="none" stroke="#000" stroke-miterlimit="10" stroke-width="1"/>
          <path id="Path_922864" data-name="Path 922864" d="M216.039,39.986c.2.89.778,1.5,1.3,1.373s.79-.959.6-1.848-.778-1.5-1.3-1.372-.79.959-.6,1.847" transform="translate(-64.758 -11.431)"/>
          <path id="Path_922865" data-name="Path 922865" d="M202.243,42.793c.2.889.778,1.5,1.3,1.372s.79-.959.6-1.848-.778-1.5-1.3-1.372-.79.959-.6,1.848" transform="translate(-60.621 -12.272)"/>
          <path id="Path_922866" data-name="Path 922866" d="M216.472,15.459c-2.824.886-5.941,1.555-8.639.3-.929-.433-1.938-1.119-3-1.009-1.128.116-2.1,1.031-3.022,1.645a18.013,18.013,0,0,0-2.933,2.325c-1.31,1.332-1.9,3.827-2.087,5.748a26.5,26.5,0,0,1-2.577-2.121c-.771-.616-1.694-.921-2.483-1.538a8.428,8.428,0,0,1-3.137-5.617,3.753,3.753,0,0,1,.125-1.687,3.7,3.7,0,0,1,1.155-1.489A10.271,10.271,0,0,1,197.1,9.544a3.644,3.644,0,0,1-.85-3,6.3,6.3,0,0,1,1.311-2.9,9.2,9.2,0,0,1,6.79-3.634A9.086,9.086,0,0,1,211.4,3.02,3.759,3.759,0,0,1,213.592.674a6.946,6.946,0,0,1,3.161-.4,6.1,6.1,0,0,1,3.474,1.115,14.123,14.123,0,0,1,2.162,2.7c1.566,2.061,3.848,3.471,5.119,5.75a8.2,8.2,0,0,1,.239,7.3c1.7.732,2.319,2.949,2.489,4.9a15.925,15.925,0,0,1-.078,5.451,36.465,36.465,0,0,1-2.581,5.363,24.166,24.166,0,0,0-1.232,4.19s-2.232-3.356-2.631-4.12q-1.149-2.2-2.136-4.5a10.6,10.6,0,0,0-1.824-3.406,11.306,11.306,0,0,1-2.27-3.772,18.389,18.389,0,0,1-1.014-5.776" transform="translate(-56.538 0)"/>
          <path id="Path_922867" data-name="Path 922867" d="M202.127,49.166s1.64-2,6.49-2.736a36.684,36.684,0,0,1,9.592-.027l5.263-11.713,4.691,8.176s-.853,6.376-3.408,9.793c-2.155,2.883-5.136,6.106-12.336,6.411-5.414.229-6.493.305-8.755-1.539-2.2-1.792-2.962-6.043-3.014-8.246a12.873,12.873,0,0,1,.835-4.418Z" transform="translate(-60.163 -10.401)"/>
          <path id="Path_922868" data-name="Path 922868" d="M233.5,36.983a3.72,3.72,0,0,1,2.233-2.048c3.313-.762,4.265,1.8,4.171,4.316a7.091,7.091,0,0,1-2.825,4.909c-1.936,1.162-3.762,1.2-4.359-1.333" transform="translate(-69.779 -10.434)" fill="#f69a8b"/>
          <path id="Path_922869" data-name="Path 922869" d="M238.3,39.834q-2.547,1.325-5.049,2.754" transform="translate(-69.94 -11.944)" fill="none" stroke="#000" stroke-miterlimit="10" stroke-width="1"/>
          <path id="Path_922870" data-name="Path 922870" d="M213.554,53.872a2.432,2.432,0,0,0-1.356.242,1.142,1.142,0,0,0-.555,1.236,1.067,1.067,0,0,0,.921.7,2.937,2.937,0,0,0,1.172-.193l1.179-.363a.759.759,0,0,0,.449-.268.588.588,0,0,0-.086-.657,2.36,2.36,0,0,0-1.724-.692" transform="translate(-63.448 -16.151)" fill="#fff"/>
          <path id="Path_922871" data-name="Path 922871" d="M266.8,169.742l-16.418,5.879s-10.538,4.6-10.983,4.965-1.823,25.12-1.823,25.12,8.611,4.241,24.867,2.145,33.53-11.909,33.53-11.909l-13.649-23.212Z" transform="translate(-71.234 -50.896)" fill="#ef8e63"/>
          <path id="Path_922872" data-name="Path 922872" d="M267.67,200.186c-5.593-3.41-12.517-5.242-18.837-3.448-2.264.643-4.382,1.725-6.661,2.309-3.764.966-7.742.527-11.605.964a25.677,25.677,0,0,0-17.337,9.8c-7.2,9.468-6.689,21.22-11.559,31.627-2.232,4.769-5.623,9.56-10.759,10.971-3.186.876-7.22.628-9.01,3.368-1.036,1.584-.684,3.648-1.516,5.407a13.175,13.175,0,0,1-4,4.94,41.839,41.839,0,0,0,34.864,9.419c6.649-1.3,13.111-4.267,19.864-3.962a25.23,25.23,0,0,1,5.535.919c1.795.492,3.523,1.289,5.335,1.687,1.877.412,3.84.239,5.7.711,2.586.654,4.8,2.27,7.007,3.777,5.7,3.9,12.53,4.707,19.081,3.306,4.6-.982,8.837-3.314,13.328-4.749,8.325-2.661,17.119-2.129,25.657-1.249,4.41.454,8.811,1.015,13.234,1.316a28.1,28.1,0,0,0,4.746-.241,18.835,18.835,0,0,1,5.738.905c-.221-.052-2.729-7.315-3.226-8.146-4.71-7.87-14.509-13.735-22.947-17.068-3.343-1.321-7.066-2.327-9.35-5.069a15.562,15.562,0,0,1-2.557-5.326c-5.334-16.576-15.4-32.824-30.727-42.165" transform="translate(-52.887 -58.78)" fill="#953c2d"/>
          <path id="Path_922873" data-name="Path 922873" d="M251.257,192.72a27.838,27.838,0,0,1,6.083-2.554,23.157,23.157,0,0,1,5.548-1.1c1.391-.058,3.593-.268,4.708.805.7.671,1.3,1.256,1.956,1.969.51.549,1.159.937,1.645,1.51a6.573,6.573,0,0,1,.965,1.632,3.124,3.124,0,0,1,.48,1.752c-.178.766-1.512.434-1.512.434s.581.711.383,1.241c-.092.244-.614.39-.814.41a4,4,0,0,1-1.75-.541c.2,0,.431.693.47.863.062.271.207.678.02.873-.77.8-1.934-.251-2.764-.2-1.274.077-2.4,1.139-3.548,1.628-.994.424-2.079.538-3.1.877a15.333,15.333,0,0,0-2.893,1.44" transform="translate(-75.337 -56.672)" fill="#7c3727"/>
          <path id="Path_922874" data-name="Path 922874" d="M274.661,201.878c-2-1.439-3.682-2.3-5.918-1.331" transform="translate(-80.58 -60.009)" fill="none" stroke="#000" stroke-miterlimit="10" stroke-width="1"/>
          <path id="Path_922875" data-name="Path 922875" d="M276.614,199.315c-1.644-2.441-4.39-3.189-7.068-3.132" transform="translate(-80.821 -58.823)" fill="none" stroke="#000" stroke-miterlimit="10" stroke-width="1"/>
          <path id="Path_922876" data-name="Path 922876" d="M277.121,195.028a10.056,10.056,0,0,0-3.92-2.521,9.493,9.493,0,0,0-3.24-.076" transform="translate(-80.945 -57.668)" fill="none" stroke="#000" stroke-miterlimit="10" stroke-width="1"/>
          <path id="Path_922877" data-name="Path 922877" d="M249.909,176.023c-7.415.781-13.327.339-19.217,5.211s-11.623,15.211-12.155,23.149c-.246,3.668.392,7.607,2.692,10.343a9.647,9.647,0,0,0,8.6,3.259c3.267-.443,6.183-2.445,8.613-4.82s4.485-5.152,6.846-7.605a38.219,38.219,0,0,1,6.551-5.444l-4.308-13.227s-9.219.081-13.568,3.92" transform="translate(-65.512 -52.779)" fill="#ef8e63"/>
          <path id="Path_922878" data-name="Path 922878" d="M227.817,203.98a68.972,68.972,0,0,1,20.7-10.311" transform="translate(-68.309 -58.07)" fill="none" stroke="#000" stroke-miterlimit="10" stroke-width="1"/>
          <path id="Path_922879" data-name="Path 922879" d="M251.929,219.9a112.685,112.685,0,0,1,9.818-11.05" transform="translate(-75.539 -62.623)" fill="none" stroke="#000" stroke-miterlimit="10" stroke-width="1"/>
          <path id="Path_922880" data-name="Path 922880" d="M227.564,202.3a21.142,21.142,0,0,1,7.4-.916" transform="translate(-68.233 -60.374)" fill="none" stroke="#000" stroke-miterlimit="10" stroke-width="1"/>
          <path id="Path_922881" data-name="Path 922881" d="M276.82,187.469a27.84,27.84,0,0,0-6.083-2.554,23.193,23.193,0,0,0-5.548-1.1c-1.391-.058-3.592-.268-4.708.805-.7.671-1.3,1.257-1.956,1.969-.51.549-1.159.937-1.645,1.51a6.574,6.574,0,0,0-.965,1.632,3.125,3.125,0,0,0-.48,1.753c.177.766,1.512.434,1.512.434s-.582.711-.383,1.241c.092.245.614.391.814.41a4.008,4.008,0,0,0,1.75-.541c-.2,0-.431.692-.47.862-.062.271-.207.678-.02.873.77.8,1.934-.251,2.765-.2,1.273.077,2.4,1.139,3.547,1.628.994.424,2.079.538,3.1.877a15.352,15.352,0,0,1,2.893,1.44" transform="translate(-76.582 -55.097)" fill="#f69a8b"/>
          <path id="Path_922882" data-name="Path 922882" d="M260.051,196.626c2-1.438,3.682-2.3,5.918-1.33" transform="translate(-77.974 -58.434)" fill="none" stroke="#000" stroke-miterlimit="10" stroke-width="1"/>
          <path id="Path_922883" data-name="Path 922883" d="M257.607,194.064c1.644-2.441,4.39-3.189,7.068-3.132" transform="translate(-77.241 -57.248)" fill="none" stroke="#000" stroke-miterlimit="10" stroke-width="1"/>
          <path id="Path_922884" data-name="Path 922884" d="M257.06,189.778a10.056,10.056,0,0,1,3.92-2.521,9.511,9.511,0,0,1,3.24-.076" transform="translate(-77.077 -56.094)" fill="none" stroke="#000" stroke-miterlimit="10" stroke-width="1"/>
          <path id="Path_922885" data-name="Path 922885" d="M275.422,169.654c5.35-1.022,8.744-.468,14.136.812,5.84,1.386,11.122,4.241,14.71,9.141,4.088,5.584,8.412,12.246,8.6,19.6.309,12.074-11.982,17.875-21.368,13.064a18,18,0,0,1-2.918-1.874c-8.1-6.372-15.543-16.479-15.543-16.479L280.676,182s4.411,0,12.281,5.452" transform="translate(-81.868 -50.71)" fill="#ef8e63"/>
          <path id="Path_922886" data-name="Path 922886" d="M283.822,187.328a38.172,38.172,0,0,1,11.007,3.109A57.22,57.22,0,0,1,304,196.349" transform="translate(-85.102 -56.169)" fill="none" stroke="#000" stroke-miterlimit="10" stroke-width="1"/>
          <path id="Path_922887" data-name="Path 922887" d="M273.357,205.1q6.057,5.982,11.541,12.583" transform="translate(-81.964 -61.496)" fill="none" stroke="#000" stroke-miterlimit="10" stroke-width="1"/>
          <path id="Path_922888" data-name="Path 922888" d="M301.826,192.808a43.747,43.747,0,0,1,8.982.32" transform="translate(-90.5 -57.782)" fill="none" stroke="#000" stroke-miterlimit="10" stroke-width="1"/>
          <line id="Line_3351" data-name="Line 3351" y1="14.657" x2="9.676" transform="translate(194.79 132.334)" fill="none" stroke="#000" stroke-miterlimit="10" stroke-width="1"/>
          <path id="Path_922889" data-name="Path 922889" d="M351.951,267.53a41.493,41.493,0,0,0,4.484,10.866,18.433,18.433,0,0,0,8.428,7.518" transform="translate(-105.529 -80.217)" fill="none" stroke="#000" stroke-miterlimit="10" stroke-width="1"/>
          <path id="Path_922890" data-name="Path 922890" d="M369.441,285.229c2.244,1.767,4.744,3.127,7.046,4.806a16,16,0,0,1,5.6,6.475" transform="translate(-110.774 -85.523)" fill="none" stroke="#000" stroke-miterlimit="10" stroke-width="1"/>
          <path id="Path_922891" data-name="Path 922891" d="M254.1,237.833c6.484,19.987,22.967,35.913,42.233,40.8" transform="translate(-76.189 -71.312)" fill="none" stroke="#000" stroke-miterlimit="10" stroke-width="1"/>
          <path id="Path_922892" data-name="Path 922892" d="M263.6,233.645c8.126,10.255,21.283,14.551,33.858,14.9" transform="translate(-79.037 -70.056)" fill="none" stroke="#000" stroke-miterlimit="10" stroke-width="1"/>
          <path id="Path_922893" data-name="Path 922893" d="M196.9,279.043a34.314,34.314,0,0,0,9.141-12.284" transform="translate(-59.039 -79.985)" fill="none" stroke="#000" stroke-miterlimit="10" stroke-width="1"/>
          <path id="Path_922894" data-name="Path 922894" d="M234.838,148.651a9.858,9.858,0,0,0-1.384,6.875,2.015,2.015,0,0,1-.17,1.4,2.31,2.31,0,0,1-.7.527,3.479,3.479,0,0,0-1.253,4.05c.357.905,1.11,1.708,1.027,2.687-.094,1.1-1.169,1.742-1.757,2.647a5.828,5.828,0,0,0-.335,4.355,10.719,10.719,0,0,1,.453,4.435,14.1,14.1,0,0,0,8.194-.055,19.338,19.338,0,0,0,3.757-2.067c2.183-1.419,4.477-2.965,5.609-5.413,1.083-2.343.907-5.115.473-7.688a41.878,41.878,0,0,0-1.791-6.95,16.676,16.676,0,0,0-2.5-4.893,7.058,7.058,0,0,0-4.424-2.76" transform="translate(-68.966 -43.717)" fill="#1c100d"/>
          <path id="Path_922895" data-name="Path 922895" d="M264.731,156.4l4.7,8.916a7.972,7.972,0,0,1-5.635,8.72,8.751,8.751,0,0,1-7.8-1.574l-2.747-9.668" transform="translate(-75.936 -46.897)" fill="#f69a8b"/>
          <path id="Path_922896" data-name="Path 922896" d="M239.507,158.907c-1.4-3.57-3.242-8.254-3.486-11.7-.268-3.791,1.647-6.17,4.465-8.374A13.666,13.666,0,0,1,252,136.569c5.226,1.314,8.739,6.854,9.239,12.361.608,6.7-2.6,10.527-6.389,13.079a13.071,13.071,0,0,1-8.729,2.472,8.522,8.522,0,0,1-6.615-5.575" transform="translate(-70.761 -40.825)" fill="#f69a8b"/>
          <path id="Path_922897" data-name="Path 922897" d="M276.278,159.028c-1.393.222-2.78.5-4.174.706a17.025,17.025,0,0,1-7.564-.225,10.289,10.289,0,0,1-5.438-3.9c-1.531-2.224-1.3-4.9-2.346-7.314-.015-.036-.031-.072-.048-.107-.6-1.293-1.661-1.911-2.558-2.92a4.271,4.271,0,0,1-.781-1.581c-.078-.257-.464-1.837-.174-2.005-1,.579-2.3,1-3.212.277-.945-.752-.9-2.254-.752-3.5a5.549,5.549,0,0,1-4.066.788,6.715,6.715,0,0,1-2.683-1.994,9.983,9.983,0,0,1-2.915,3.137,3.566,3.566,0,0,1-3.951.025,20.937,20.937,0,0,0-1.694,3.777,6.264,6.264,0,0,0-.248,1.764,17.75,17.75,0,0,0,.342,2.2s-3.526-2.292-3.871-2.471a8.689,8.689,0,0,1-3.206-2.658c-1.23-1.756-1.534-4.4-.235-6.1.467-.611,1.156-.77,1.625-1.257a3.5,3.5,0,0,0,.635-2.434,7.867,7.867,0,0,1,.194-2.843,7.7,7.7,0,0,1,3.614-3.69c1.867-1.061,3.371-.173,5.328-.1,1.893.07,3.569-1.208,5.156-2.138a9.665,9.665,0,0,1,5.854-1.516c2.61.232,4.562,1.624,6.462,3.42a11.834,11.834,0,0,1,1.988,2.243c.538.858.874,1.85,1.444,2.684,1.543,2.257,4.293,3.013,5.713,5.422,1.438,2.437,1.921,4.9,4.5,6.355,1.272.718,2.668.618,3.854,1.564a4.6,4.6,0,0,1,1.661,3.239c.041,1.155-.741,2.262-.608,3.38.136,1.157,1.419,1.622,2.389,2.158,1.807,1,3.966,2.723,4.057,4.893-1.134.047-3.174.54-4.3.718" transform="translate(-67.723 -36.856)" fill="#1c100d"/>
          <path id="Path_922898" data-name="Path 922898" d="M264.806,152.477a2.98,2.98,0,0,1,1.693-1.8c2.078-.569,3.7,1.811,3.792,3.8a4.174,4.174,0,0,1-1.556,3.544c-1.51,1.08-3.513,1.048-4.174-.886" transform="translate(-79.326 -45.153)" fill="#f69a8b"/>
          <path id="Path_922899" data-name="Path 922899" d="M268.786,154.215q-2,1.26-3.955,2.6" transform="translate(-79.407 -46.24)" fill="none" stroke="#000" stroke-miterlimit="10" stroke-width="1"/>
          <path id="Path_922900" data-name="Path 922900" d="M265.778,151.26a3.98,3.98,0,0,0-1.337,2.014" transform="translate(-79.29 -45.354)" fill="none" stroke="#000" stroke-miterlimit="10" stroke-width="1"/>
          <path id="Path_922901" data-name="Path 922901" d="M270.178,157.812a4.049,4.049,0,0,1-2.141,2.83,2.726,2.726,0,0,1-3.224-.753,7.1,7.1,0,0,1-.4-.622" transform="translate(-79.281 -47.319)" fill="none" stroke="#000" stroke-miterlimit="10" stroke-width="1"/>
          <path id="Path_922902" data-name="Path 922902" d="M263.489,165.365a12.34,12.34,0,0,1-7.012,7.948" transform="translate(-76.902 -49.583)" fill="none" stroke="#000" stroke-miterlimit="10" stroke-width="1"/>
          <path id="Path_922903" data-name="Path 922903" d="M246.444,159.67a3.594,3.594,0,0,1,.62,2.6c-.118.566-.3,1.394.529,1.523a2.617,2.617,0,0,0,.757-.026" transform="translate(-73.894 -47.876)" fill="none" stroke="#000" stroke-miterlimit="10" stroke-width="1"/>
          <path id="Path_922904" data-name="Path 922904" d="M253.113,167.711a3.38,3.38,0,0,0-3.637.942" transform="translate(-74.803 -50.228)" fill="none" stroke="#000" stroke-miterlimit="10" stroke-width="1"/>
          <path id="Path_922905" data-name="Path 922905" d="M249.344,152.209c2.462.728,5.2.751,7.3,2.311" transform="translate(-74.764 -45.639)" fill="none" stroke="#000" stroke-miterlimit="10" stroke-width="1"/>
          <path id="Path_922906" data-name="Path 922906" d="M252.073,159.2a5.376,5.376,0,0,0,4.367-.23" transform="translate(-75.582 -47.664)" fill="none" stroke="#000" stroke-miterlimit="10" stroke-width="1"/>
          <path id="Path_922907" data-name="Path 922907" d="M240.915,154.121a7.212,7.212,0,0,1-3.384,3.079" transform="translate(-71.222 -46.212)" fill="none" stroke="#000" stroke-miterlimit="10" stroke-width="1"/>
          <path id="Path_922908" data-name="Path 922908" d="M240.333,161.945A2.945,2.945,0,0,0,243,160.517" transform="translate(-72.062 -48.13)" fill="none" stroke="#000" stroke-miterlimit="10" stroke-width="1"/>
          <path id="Path_922909" data-name="Path 922909" d="M243.533,303.777a18.583,18.583,0,0,0-6.8-.6c-2.266.325-6.794,1.984-8.346,4.123-.083.115,5.007,4.267,8.872,4.173,1.089-.027,7.388.2,8.263-.628a2.367,2.367,0,0,0,.61-2.98,28.927,28.927,0,0,0-2.6-4.087" transform="translate(-68.48 -90.87)" fill="#843a29"/>
          <path id="Path_922910" data-name="Path 922910" d="M258.734,304.428a18.579,18.579,0,0,1,6.8-.6c2.266.325,6.794,1.984,8.347,4.123.083.115-5.007,4.267-8.872,4.173-1.089-.027-7.388.2-8.263-.628a2.367,2.367,0,0,1-.61-2.98,28.827,28.827,0,0,1,2.6-4.087" transform="translate(-76.717 -91.065)" fill="#843a29"/>
          <path id="Path_922911" data-name="Path 922911" d="M279.6,296.312c7.082,1.54,12.959,7.7,20.179,8.057" transform="translate(-83.836 -88.847)" fill="none" stroke="#000" stroke-miterlimit="10" stroke-width="1"/>
          <path id="Path_922912" data-name="Path 922912" d="M231.918,294.323c-3.214-.4-6.369.9-9.443,1.976s-6.462,1.943-9.489.726" transform="translate(-63.862 -88.228)" fill="none" stroke="#000" stroke-miterlimit="10" stroke-width="1"/>
          <path id="Path_922913" data-name="Path 922913" d="M213.46,292.526a19.393,19.393,0,0,0,7.6.506" transform="translate(-64.004 -87.711)" fill="none" stroke="#000" stroke-miterlimit="10" stroke-width="1"/>
          <path id="Path_922914" data-name="Path 922914" d="M126.236,128.8c.547,3.637,1.548,7.074,1.905,10.72a27.892,27.892,0,0,1-1.115,11.687c-1.357,4.244-3.394,8.2-5.016,12.333s-2.843,8.594-2.431,13.056c0,0-57.144-7.342-57.144-7.774s-1.451-28.159,4.177-38.575,14.056-15.854,23.535-19.8,13.858-3.084,13.858-3.084l14.649,7.175Z" transform="translate(-18.67 -32.167)" fill="#eebc32"/>
          <path id="Path_922915" data-name="Path 922915" d="M156.8,165.6a47.955,47.955,0,0,1-4.288-4.024,38.513,38.513,0,0,0-5.876-4.484c-.9-.615-3.672-.608-4.732-.555a26.8,26.8,0,0,0-7.35,1.832c-.3.1-.673.341-.641.7l.689.776-1.986,1.024a.861.861,0,0,0-.524.555.751.751,0,0,0,.118.493,4.215,4.215,0,0,0,.933.93,6.29,6.29,0,0,1-.735.438c-.623.233-.5.93-.142,1.515a2.335,2.335,0,0,0,1.581.923c-.366.1-.564,1.078-.424,1.471a1.473,1.473,0,0,0,.8.773c2.469,1.274,5.475,1.365,7.531,3.392,1.341,1.321,2.113,3.319,3.313,4.826a15.9,15.9,0,0,0,2.818,2.584l4.72,3.67" transform="translate(-39.569 -46.93)" fill="#7c3727"/>
          <path id="Path_922916" data-name="Path 922916" d="M135.592,160.459c2.95-1.141,6.1-2.434,9.114-2.415" transform="translate(-40.656 -47.388)" fill="none" stroke="#000" stroke-miterlimit="10" stroke-width="1"/>
          <path id="Path_922917" data-name="Path 922917" d="M133.482,165.167a47.863,47.863,0,0,1,9.435-1.617" transform="translate(-40.023 -49.039)" fill="none" stroke="#000" stroke-miterlimit="10" stroke-width="1"/>
          <path id="Path_922918" data-name="Path 922918" d="M134.281,169.735a17.74,17.74,0,0,1,8.153.454" transform="translate(-40.263 -50.804)" fill="none" stroke="#000" stroke-miterlimit="10" stroke-width="1"/>
          <path id="Path_922919" data-name="Path 922919" d="M138.059,116.341a42.815,42.815,0,0,1,13.581,4.449c13.065,7.3,20.447,22.294,24.98,36.653a67.845,67.845,0,0,1,2.625,11.826c.555,4.344.778,9.2-1.549,13.139-2.166,3.671-5.946,4.194-9.6,2.934-8.713-3.008-16.033-11.742-20.368-20.066l5.243-15.9-2.762-3.143" transform="translate(-41.396 -34.884)" fill="#eebc32"/>
          <path id="Path_922920" data-name="Path 922920" d="M121.188,120.326a13.267,13.267,0,0,0,12.634,3.874,4.713,4.713,0,0,0,3.3-2.213" transform="translate(-36.337 -36.079)" fill="none" stroke="#000" stroke-miterlimit="10" stroke-width="1"/>
          <path id="Path_922921" data-name="Path 922921" d="M159.359,163.528s7.319,4.567,10.1,6.02,7.682,3.233,10.1,6.02" transform="translate(-47.782 -49.032)" fill="none" stroke="#000" stroke-miterlimit="10" stroke-width="1"/>
          <line id="Line_3352" data-name="Line 3352" x1="6.271" y2="19.422" transform="translate(110.584 117.838)" fill="none" stroke="#000" stroke-miterlimit="10" stroke-width="1"/>
          <path id="Path_922922" data-name="Path 922922" d="M162.723,140.062c-.109,2.975,1.21,5.918,2.147,8.646,1.886,5.49,2.775,9.442,2.287,11.922" transform="translate(-48.789 -41.996)" fill="none" stroke="#000" stroke-miterlimit="10" stroke-width="1"/>
          <path id="Path_922923" data-name="Path 922923" d="M56.332,189.845s-2.939,12.635-4.77,18.07-13.336,29.378-8.451,43.292,15.836,21.051,26.566,18.887c10.661-2.149,12.494-.015,20.969-.015,1.066,0,8.809.071,8.809.071a5.009,5.009,0,0,1,1,2.242c.186,1.9-.464,2.675,1.051,3.82,4.584,3.466,13.29,3.342,18.543,2.516,3.118-.491,6.213-1.438,9.362-1.267a42,42,0,0,1,7.142,1.475,36.487,36.487,0,0,0,14.688.076c4.573-.816,8.967-2.829,13.549-3.406.948-.119,7.789-.534,7.789-.534s-.038-5.068-1.127-7.535c-3.3-7.488-8.67-7.594-11.2-15.7-1.745-5.58-4.163-16.293-5.68-21.955-1.477-5.516-3.323-15.607-4.821-21.116-3.664-13.479-7.969-24.624-15.5-26.947s-8.463-.809-12.5-2.167-16.483-3.631-22.467-1.155c-8.061,3.337-16.608,15.1-16.608,15.1Z" transform="translate(-12.567 -53.191)" fill="#6b4502"/>
          <path id="Path_922924" data-name="Path 922924" d="M123.176,287.661a130.236,130.236,0,0,1-2.2-51.628" transform="translate(-35.793 -70.772)" fill="none" stroke="#000" stroke-miterlimit="10" stroke-width="1"/>
          <path id="Path_922925" data-name="Path 922925" d="M158.126,181.654a19.43,19.43,0,0,0,9.327,4.252" transform="translate(-47.413 -54.467)" fill="none" stroke="#000" stroke-miterlimit="10" stroke-width="1"/>
          <path id="Path_922926" data-name="Path 922926" d="M119.092,246.9a53.755,53.755,0,0,1-1.524-15.466" transform="translate(-35.234 -69.393)" fill="none" stroke="#000" stroke-miterlimit="10" stroke-width="1"/>
          <path id="Path_922927" data-name="Path 922927" d="M186.6,245.114c5.124,11.98,10.564,24.41,19.9,32.522" transform="translate(-55.951 -73.495)" fill="none" stroke="#000" stroke-miterlimit="10" stroke-width="1"/>
          <path id="Path_922928" data-name="Path 922928" d="M154.6,318.19a23.609,23.609,0,0,1,4.123-2.2,8.284,8.284,0,0,1,5.951.534,15.826,15.826,0,0,1,4.9,3.8.758.758,0,0,1,.264.533.727.727,0,0,1-.313.463c-2.725,2.277-8.105,1.539-11.554,1.255a79.216,79.216,0,0,1-9.051-2.019s4.284-1.577,5.68-2.36" transform="translate(-44.652 -94.646)"/>
          <path id="Path_922929" data-name="Path 922929" d="M207.755,315.688a21.783,21.783,0,0,1,3.532-2.678,7.114,7.114,0,0,1,5.517-.176,14.5,14.5,0,0,1,4.923,3.19.767.767,0,0,1,.3.5.748.748,0,0,1-.235.5c-2.243,2.584-7.259,2.49-10.455,2.617a68.02,68.02,0,0,1-8.528-.929s3.751-2.074,4.943-3.018" transform="translate(-60.811 -93.66)"/>
          <path id="Path_922930" data-name="Path 922930" d="M153.224,274.2c2.532,7.876,8.5,13.847,12.687,20.872a48.95,48.95,0,0,1,4.37,9.544" transform="translate(-45.943 -82.215)" fill="none" stroke="#000" stroke-miterlimit="10" stroke-width="1"/>
          <path id="Path_922931" data-name="Path 922931" d="M158.829,233.915a94.273,94.273,0,0,0,6.411,35.171" transform="translate(-47.622 -70.137)" fill="none" stroke="#000" stroke-miterlimit="10" stroke-width="1"/>
          <path id="Path_922932" data-name="Path 922932" d="M126.839,162.835a55.871,55.871,0,0,0,4.788-4.225,45.534,45.534,0,0,1,6.528-4.748c1-.655,4.013-.746,5.164-.73a29.667,29.667,0,0,1,7.935,1.6c.319.1.722.321.676.684l-.773.811,2.127.966c.236.107.508.263.553.543a.751.751,0,0,1-.144.5,4.892,4.892,0,0,1-1.043.975,6.509,6.509,0,0,0,.786.418c.671.214.513.924.108,1.529a2.785,2.785,0,0,1-1.748.989c.4.091.581,1.072.417,1.475a1.705,1.705,0,0,1-.893.81c-2.724,1.378-6,1.577-8.295,3.7-1.5,1.386-2.4,3.436-3.752,5a18.594,18.594,0,0,1-3.144,2.717l-5.247,3.882" transform="translate(-38.032 -45.915)" fill="#f69a8b"/>
          <path id="Path_922933" data-name="Path 922933" d="M157.5,156.854c-3.172-1.051-6.554-2.25-9.837-2.123" transform="translate(-44.275 -46.392)" fill="none" stroke="#000" stroke-miterlimit="10" stroke-width="1"/>
          <path id="Path_922934" data-name="Path 922934" d="M159.5,161.555a54.032,54.032,0,0,0-10.21-1.3" transform="translate(-44.762 -48.05)" fill="none" stroke="#000" stroke-miterlimit="10" stroke-width="1"/>
          <path id="Path_922935" data-name="Path 922935" d="M159.073,166.1a20.932,20.932,0,0,0-8.879.748" transform="translate(-45.034 -49.742)" fill="none" stroke="#000" stroke-miterlimit="10" stroke-width="1"/>
          <path id="Path_922936" data-name="Path 922936" d="M84.979,123.2c4.214,9.373,10.6,36.358,10.6,36.358l17.3-10.331,9.643,16.209s-17.138,26.313-31.41,29.889c-7.92,1.985-14.829-2.584-19.9-14.508-5.58-13.113-8.37-33.378-8.37-33.378" transform="translate(-18.843 -36.941)" fill="#eebc32"/>
          <path id="Path_922937" data-name="Path 922937" d="M94.458,123.2c4.214,9.373,10.6,36.358,10.6,36.358l17.3-10.331" transform="translate(-28.322 -36.941)" fill="none" stroke="#000" stroke-miterlimit="10" stroke-width="1"/>
          <line id="Line_3353" data-name="Line 3353" x2="10.278" y2="18.751" transform="translate(89.362 115.467)" fill="none" stroke="#000" stroke-miterlimit="10" stroke-width="1"/>
          <path id="Path_922938" data-name="Path 922938" d="M103.479,175.13s-11.432,5.933-14.3,12.468" transform="translate(-26.74 -52.511)" fill="none" stroke="#000" stroke-miterlimit="10" stroke-width="1"/>
          <path id="Path_922939" data-name="Path 922939" d="M152.506,73.232c-.291,7.778-.578,15.623.629,23.3a106.305,106.305,0,0,0,4.452,16.8c-3.221-.456-6.535-1.013-9.3-2.832a18.53,18.53,0,0,1-7.855-10.246c-1.465-5.223-1.267-10.878-1.315-16.27q-.006-.711-.008-1.421c0-.121,0-.242,0-.363a28.1,28.1,0,0,1,.589-6.736,14.869,14.869,0,0,1,2.822-5.741c1.179-1.466,2.777-2.731,4.586-2.766,1.856-.035,3.494,1.206,4.981,2.393" transform="translate(-41.71 -20.078)"/>
          <path id="Path_922940" data-name="Path 922940" d="M170.83,113.83a18.211,18.211,0,0,1-7.723-11.781" transform="translate(-48.906 -30.598)" fill="none" stroke="#000" stroke-miterlimit="10" stroke-width="1"/>
          <path id="Path_922941" data-name="Path 922941" d="M121.963,89.223l-2.922,11.991s-.772,7.521,9.725,10.729c4.94,1.509,6.228-1.633,6.228-1.633l1.952-10.987" transform="translate(-35.689 -26.753)" fill="#f69a8b"/>
          <path id="Path_922942" data-name="Path 922942" d="M145.486,90.552a35.765,35.765,0,0,0,1.651-9.225c0-2.84-2.1-7.54-5.333-9.187-2.961-1.51-5.9-.987-9.541.433-4.971,1.935-8.729,7.478-9.1,11.256-.641,6.6,1.082,11.284,7,14.746,2.459,1.437,7.939,2.735,10.775,1.119,2.589-1.475,3.773-6.259,4.542-9.141" transform="translate(-36.892 -21.357)" fill="#f69a8b"/>
          <path id="Path_922943" data-name="Path 922943" d="M147.932,89.967a12.043,12.043,0,0,0,.349,3.558c.214.679.851,1.814.58,2.652s-1.517,1.06-2.063,1.227" transform="translate(-44.016 -26.976)" fill="none" stroke="#000" stroke-miterlimit="10" stroke-width="1"/>
          <path id="Path_922944" data-name="Path 922944" d="M152.644,83.8c.206,1.732,1.989,2.428,2.77,3.793" transform="translate(-45.769 -25.128)" fill="none" stroke="#000" stroke-miterlimit="10" stroke-width="1"/>
          <path id="Path_922945" data-name="Path 922945" d="M139.092,110.25c-3.676-.18-8.1-3.036-10.048-6.61" transform="translate(-38.693 -31.076)" fill="none" stroke="#000" stroke-miterlimit="10" stroke-width="1"/>
          <path id="Path_922946" data-name="Path 922946" d="M111.73,75.726a.787.787,0,0,1,.156-.07c1.094-.376,2.368-.257,3.5-.538A15.209,15.209,0,0,0,125.5,67.1a24.564,24.564,0,0,1,4.775,2.5,8.823,8.823,0,0,1,2.643,2.49,10.121,10.121,0,0,1,1.361,3.977,21.061,21.061,0,0,1,.166,2.423,7.243,7.243,0,0,1-.113,2.425c1.152-2.619,3.243-4.78,3.843-7.6A10.217,10.217,0,0,0,137.8,68.2c-1.09-3.5-3.656-6.566-6.974-7.576-.845-.257-1.725-.382-2.554-.692a22.3,22.3,0,0,1-3.155-1.767c-7.338-4.225-16.237-.578-20.5,6.642a25.664,25.664,0,0,0-3.255,10.1c-.436,3.8-.023,7.5-1.5,11.06a20.328,20.328,0,0,1-5.7,7.809c-2.764,2.3-6.126,3.78-8.54,6.49a26.709,26.709,0,0,0-3.826,6.418,1.606,1.606,0,0,0-.214.741c.036.865,1.175.985,1.984.93,4.586-.315,8.885,2.562,13.476,2.776a23.665,23.665,0,0,0,5.423-.587,12.032,12.032,0,0,0,5.282-1.89c2.71-2.082,3.409-6.019,3.693-9.572.569-7.131.254-14.238.125-21.37-.008-.407-.008-.814,0-1.22s-.057-.624.167-.762" transform="translate(-24.46 -16.902)"/>
          <path id="Path_922947" data-name="Path 922947" d="M125.644,85.69a3.466,3.466,0,0,0-2.056-2.027c-2.455-.567-4.253,2.3-4.28,4.625a4.864,4.864,0,0,0,1.97,4.074c1.811,1.192,4.155,1.059,4.848-1.236" transform="translate(-35.773 -25.064)" fill="#f69a8b"/>
          <path id="Path_922948" data-name="Path 922948" d="M121.88,87.942q2.392,1.38,4.736,2.853" transform="translate(-36.545 -26.369)" fill="none" stroke="#000" stroke-miterlimit="10" stroke-width="1"/>
          <path id="Path_922949" data-name="Path 922949" d="M126.355,84.008a3.609,3.609,0,0,1,1.556,2.449" transform="translate(-37.886 -25.189)" fill="none" stroke="#000" stroke-miterlimit="10" stroke-width="1"/>
          <path id="Path_922950" data-name="Path 922950" d="M123.852,96.513a2.639,2.639,0,0,0,3.774-1.972" transform="translate(-37.136 -28.347)" fill="none" stroke="#000" stroke-miterlimit="10" stroke-width="1"/>
          <path id="Path_922951" data-name="Path 922951" d="M140.374,102.633a6.407,6.407,0,0,1,3.751.744" transform="translate(-42.09 -30.762)" fill="none" stroke="#000" stroke-miterlimit="10" stroke-width="1"/>
          <path id="Path_922952" data-name="Path 922952" d="M136.78,90.815a9.563,9.563,0,0,0,2.348.406,3.925,3.925,0,0,0,2.28-.616" transform="translate(-41.012 -27.167)" fill="none" stroke="#000" stroke-miterlimit="10" stroke-width="1"/>
          <path id="Path_922953" data-name="Path 922953" d="M151.606,91.186a2.471,2.471,0,0,0,.774.858,4.319,4.319,0,0,0,2.23.562" transform="translate(-45.458 -27.341)" fill="none" stroke="#000" stroke-miterlimit="10" stroke-width="1"/>
          <path id="Path_922954" data-name="Path 922954" d="M140.737,81.339a2.955,2.955,0,0,1-1.95.816c-2.1.326-4.3.851-5.851,2.4" transform="translate(-39.86 -24.389)" fill="none" stroke="#000" stroke-miterlimit="10" stroke-width="1"/>
          <path id="Path_922955" data-name="Path 922955" d="M97.552,103.281a60.68,60.68,0,0,0,7-9.33" transform="translate(-29.25 -28.17)" fill="none" stroke="#000" stroke-miterlimit="10" stroke-width="1"/>
          <path id="Path_922956" data-name="Path 922956" d="M102.806,93.441l2.532-5.049" transform="translate(-30.825 -26.504)" fill="none" stroke="#000" stroke-miterlimit="10" stroke-width="1"/>
          <path id="Path_922957" data-name="Path 922957" d="M76.687,116.028c-.062.236-.1.514-.3.641a.81.81,0,0,1-.524.05,2.947,2.947,0,0,0-2.917,3.275,2.643,2.643,0,0,0-2.1,3.258,1.788,1.788,0,0,0-1.528,1.041,4.693,4.693,0,0,0-.43,1.965,14.575,14.575,0,0,0,1.173,6.462c.19.438.457.911.9,1,.7.146,1.269-.664,1.512-1.381.146.432.245.716.463,1.482.151.531.576.795,1.04.543.933-.508,1.442-3.114,1.442-3.114s.313,1.376.878,1.408a1.8,1.8,0,0,0,1.077-.392c1.368-1.068.728-2.968.744-4.778l.563,1.559a.9.9,0,0,0,.223.392c.362.309,1.353-.206,1.556-.652,1.3-2.854.24-7.892.961-10.971a19.662,19.662,0,0,1,1.173-3.28s-5.392-.5-5.907,1.489" transform="translate(-20.651 -34.327)" fill="#f69a8b"/>
          <path id="Path_922958" data-name="Path 922958" d="M79.927,117.548a29.124,29.124,0,0,0,1.542,11.119" transform="translate(-23.952 -35.246)" fill="none" stroke="#000" stroke-miterlimit="10" stroke-width="1"/>
          <path id="Path_922959" data-name="Path 922959" d="M74.734,122.415A41.083,41.083,0,0,0,76.9,133.841" transform="translate(-22.408 -36.705)" fill="none" stroke="#000" stroke-miterlimit="10" stroke-width="1"/>
          <path id="Path_922960" data-name="Path 922960" d="M71.718,127.278a38.033,38.033,0,0,0,1.573,9.685" transform="translate(-21.504 -38.163)" fill="none" stroke="#000" stroke-miterlimit="10" stroke-width="1"/>
          <path id="Path_922961" data-name="Path 922961" d="M329.9,197.373c-1.856,5.662-1.8,13.773-1.456,19.761.029.5.117,1.1.547,1.31.506.245,1.064-.272,1.272-.823a7.193,7.193,0,0,1,.578-1.657c.263,3.4-1.974,6.472-2.329,9.867a2.753,2.753,0,0,0,.381,1.82c.237.328.891-.153,1.171-.439a4.209,4.209,0,0,0,.312,1.692c.4.606.9.891,1.382.36.26-.286.916-1.1.916-1.1a3.776,3.776,0,0,0,1.2.257,8.587,8.587,0,0,0,2.943-2.154c.93-.912,1.966-1.663,2.9-2.565a21.463,21.463,0,0,0,4.866-7.488,53.866,53.866,0,0,0,2.883-13.248" transform="translate(-98.423 -59.181)" fill="#f69a8b"/>
          <path id="Path_922962" data-name="Path 922962" d="M331.253,221.3a20.577,20.577,0,0,0-1.717-6.634" transform="translate(-98.808 -64.366)" fill="none" stroke="#000" stroke-miterlimit="10" stroke-width="1"/>
          <path id="Path_922963" data-name="Path 922963" d="M330.6,235.306a29.777,29.777,0,0,0,4.884-10.881" transform="translate(-99.128 -67.292)" fill="none" stroke="#000" stroke-miterlimit="10" stroke-width="1"/>
          <path id="Path_922964" data-name="Path 922964" d="M334.321,236.341s1.211-1.448,1.862-2.25c2.051-2.527,2.975-5.448,3.806-8.92" transform="translate(-100.243 -67.516)" fill="none" stroke="#000" stroke-miterlimit="10" stroke-width="1"/>
          <path id="Path_922965" data-name="Path 922965" d="M344.765,225.392a25.281,25.281,0,0,1-1.938,4.587,71.641,71.641,0,0,1-4.565,6.074" transform="translate(-101.425 -67.582)" fill="none" stroke="#000" stroke-miterlimit="10" stroke-width="1"/>
          <path id="Path_922966" data-name="Path 922966" d="M15.04,207.47c-1.379,4.168-1.862,8.6-2.445,12.98a262.725,262.725,0,0,1-7.786,37.426c-.741,2.6-1.532,5.269-1.283,7.971.384,4.162,3.252,7.71,6.7,9.7s7.411,2.658,11.309,3.063c12.538,1.3,25.18.217,37.774.578a42.79,42.79,0,0,0,10.015-.4,12.992,12.992,0,0,0,8.428-5.329,18.468,18.468,0,0,0,2.167-5.762c4.216-17.7,1.563-36.3-.064-54.476A45.386,45.386,0,0,0,78.1,202.658c-1.143-3.373-3.27-6.529-6.337-7.988-2.585-1.229-5.526-1.142-8.354-1.057-11.133.336-22.4-.636-33.5.006-7.736.448-12.331,6.185-14.869,13.851" transform="translate(-1.043 -57.988)" fill="#b78f5b"/>
          <path id="Path_922967" data-name="Path 922967" d="M59.993,271.167c-1.735-.035-3.609-.025-5.01,1.069-1.372,1.073-1.959,2.939-2.331,4.711-1.141,5.447-.99,11.1-.834,16.675.036,1.29.071,5.86.5,7.066.884,2.48,3.183,3.469,7.415,3.18,6.715-.457,18,4.027,19.553-6.39.939-6.294-.308-12.309-.443-18.68-.087-4.092-1.3-7.507-5.479-7.244-4.99.315-8.371-.286-13.371-.387" transform="translate(-15.505 -81.304)" fill="#825231"/>
          <path id="Path_922968" data-name="Path 922968" d="M10.934,268.107c-1.6-.205-3.88-.553-5.248.632-1.039.9-1.213,2.729-1.71,4.026A65.522,65.522,0,0,0,.435,285.99a20.473,20.473,0,0,0,.193,9.269c1.057,3.357,3.511,5.742,6.792,5.447,2.615-.235,5.384.75,7.95,1.216,5.125.932,10.7.816,12.281-5.565,1.527-6.161.853-12.279,1.319-18.633.3-4.08-.583-7.609-4.769-7.8-4.994-.223-8.3-1.185-13.266-1.822" transform="translate(0 -80.326)" fill="#825231"/>
          <path id="Path_922969" data-name="Path 922969" d="M73.879,188.327l-3.252-1.008a5.059,5.059,0,0,0-.021-3.68c-.755-1.359-2.851-1.851-4.7-2.284l-.572-.136c-2.557-.62-5.655-.482-7.205.318-.949.49-1.66,2.175-2.838,4.967l-.16.381L52.043,185.4l.16-.379c1.493-3.539,2.395-5.674,4.451-6.736,2.6-1.344,6.712-1.246,9.429-.59l.55.131c2.27.533,5.378,1.262,6.883,3.968.953,1.713,1.075,3.912.363,6.536" transform="translate(-15.605 -53.139)" fill="#49301d"/>
          <path id="Path_922970" data-name="Path 922970" d="M67.1,189.395c-4.562-.4-9.983.113-11.454-.053-8.6-.966-17.281-3.15-25.951-1.672a18.866,18.866,0,0,0-7.933,3.049c-3.03,2.18-5.13,5.552-6.78,9.033-4.336,9.149-6.032,19.426-7.6,29.542a8.939,8.939,0,0,0,.08,4.514,6.771,6.771,0,0,0,2.184,2.723c3.532,2.89,8.209,1.916,12.6,2.71,6.961,1.261,22.353,1.859,29.309.566,3.193-.594,7.446-1.522,10.079-3.541,5.916-4.538,3.569-10.619,4.637-21.36.781-7.858,1.075-12.059,5.825-18.117a7.255,7.255,0,0,0,1.827-3.4c.431-3.427-4.688-3.8-6.818-3.992" transform="translate(-2.138 -56.122)" fill="#825231"/>
          <path id="Path_922971" data-name="Path 922971" d="M32.081,188.244a14.8,14.8,0,0,0-6.444,3.081c-2.742,1.973-5.376,6.936-6.869,10.087-3.924,8.28-5.459,17.582-6.879,26.738a8.084,8.084,0,0,0,.073,4.085,6.118,6.118,0,0,0,1.976,2.465c3.2,2.615,7.429,1.734,11.4,2.453,6.3,1.141,20.23,1.682,26.526.513,2.89-.537,6.739-1.377,9.122-3.2,5.353-4.107,3.23-9.61,4.2-19.331.625-6.285.917-12.181,4.283-17.659,1.358-2.21,3.068-4.253,3.78-6.785" transform="translate(-3.496 -56.443)" fill="none" stroke="#49301d" stroke-miterlimit="10" stroke-width="1"/>
          <path id="Path_922972" data-name="Path 922972" d="M71.2,252.364l-3.377-.271c.509-7.221.681-14.679.833-21.26.155-6.735,1.384-13.244,3.182-20.945,1.638-7.013,3.558-13.414,8.391-19.726.52-.678,2.061-.856,3.048-.9a2.792,2.792,0,0,1,1.8.738c-5.463,6.131-8.254,13.475-9.955,20.759-1.743,7.469-2.934,13.755-3.083,20.16-.153,6.623-.326,14.129-.841,21.441" transform="translate(-20.337 -56.749)" fill="#49301d"/>
          <path id="Path_922973" data-name="Path 922973" d="M20.675,248.438,17.314,248c.814-7.181,1.3-14.628,1.734-21.2.441-6.721,1.945-13.163,4.068-20.77,1.79-6.417,4.076-13.055,8.454-18.824.855-1.127,4.714-.2,4.714-.2-5.717,5.86-7.916,12.858-9.923,20.053-2.059,7.378-3.516,13.6-3.936,19.99-.433,6.612-.925,14.107-1.75,21.379" transform="translate(-5.191 -55.967)" fill="#49301d"/>
          <path id="Path_922974" data-name="Path 922974" d="M70.15,259.086a1.454,1.454,0,0,0-1.05.108c-.45.3-.512.958-.526,1.523-.032,1.238-.085,3.009-.116,4.247-.019.755.9.646,1.514.613.557-.03,1.789.188,2.083-.569a1.075,1.075,0,0,0,.051-.358l.134-4.34c.018-.568-.051-.759-.544-.886C71.185,259.292,70.672,259.171,70.15,259.086Z" transform="translate(-20.527 -77.671)" fill="none" stroke="#e2b783" stroke-miterlimit="10" stroke-width="1"/>
          <path id="Path_922975" data-name="Path 922975" d="M71.5,259.307c-.1-.048-.184.09-.214.2a6.535,6.535,0,0,0-.225,1.911" transform="translate(-21.305 -77.748)" fill="none" stroke="#e2b783" stroke-miterlimit="10" stroke-width="1"/>
          <path id="Path_922976" data-name="Path 922976" d="M19.715,256.174a1.457,1.457,0,0,0-1.05.108c-.45.3-.512.958-.526,1.523-.032,1.238-.085,3.009-.116,4.247-.019.755.9.646,1.514.613.557-.03,1.789.188,2.083-.568a1.075,1.075,0,0,0,.051-.358l.134-4.34c.018-.569-.051-.76-.544-.887C20.75,256.379,20.237,256.258,19.715,256.174Z" transform="translate(-5.404 -76.798)" fill="none" stroke="#e2b783" stroke-miterlimit="10" stroke-width="1"/>
          <path id="Path_922977" data-name="Path 922977" d="M21.061,256.395c-.1-.048-.184.09-.214.2a6.535,6.535,0,0,0-.225,1.911" transform="translate(-6.182 -76.875)" fill="none" stroke="#e2b783" stroke-miterlimit="10" stroke-width="1"/>
          <path id="Path_922978" data-name="Path 922978" d="M35.4,274.114A46.5,46.5,0,0,0,33.6,299.4" transform="translate(-9.782 -82.191)" fill="none" stroke="#49301d" stroke-miterlimit="10" stroke-width="1"/>
          <path id="Path_922979" data-name="Path 922979" d="M38.45,276.173q-.78,7.11-1.25,14.254" transform="translate(-11.154 -82.808)" fill="none" stroke="#49301d" stroke-miterlimit="10" stroke-width="1"/>
          <path id="Path_922980" data-name="Path 922980" d="M83.324,275.18a42.515,42.515,0,0,0-1.289,23.133" transform="translate(-24.289 -82.51)" fill="none" stroke="#49301d" stroke-miterlimit="10" stroke-width="1"/>
          <path id="Path_922981" data-name="Path 922981" d="M86.64,276.869q.008,5.776.541,11.534" transform="translate(-25.978 -83.017)" fill="none" stroke="#49301d" stroke-miterlimit="10" stroke-width="1"/>
          <path id="Path_922982" data-name="Path 922982" d="M42.391,192.943A94.114,94.114,0,0,0,67.817,191.3" transform="translate(-12.711 -57.36)" fill="none" stroke="#49301d" stroke-miterlimit="10" stroke-width="1"/>
          <path id="Path_922983" data-name="Path 922983" d="M3.744,300.857a20.265,20.265,0,0,1,4.978-4.615" transform="translate(-1.123 -88.826)" fill="none" stroke="#49301d" stroke-miterlimit="10" stroke-width="1"/>
          <path id="Path_922984" data-name="Path 922984" d="M5.642,302.535a19.929,19.929,0,0,1,4.1-3.854" transform="translate(-1.692 -89.557)" fill="none" stroke="#49301d" stroke-miterlimit="10" stroke-width="1"/>
          <path id="Path_922985" data-name="Path 922985" d="M4.639,306.354a12.308,12.308,0,0,1,4.8-4.426" transform="translate(-1.391 -90.53)" fill="none" stroke="#49301d" stroke-miterlimit="10" stroke-width="1"/>
          <path id="Path_922986" data-name="Path 922986" d="M8.442,307.769a8.971,8.971,0,0,1,2.391-2.082" transform="translate(-2.531 -91.658)" fill="none" stroke="#49301d" stroke-miterlimit="10" stroke-width="1"/>
          <path id="Path_922987" data-name="Path 922987" d="M11.583,308.729a14.6,14.6,0,0,1,2.785-2.308" transform="translate(-3.473 -91.878)" fill="none" stroke="#49301d" stroke-miterlimit="10" stroke-width="1"/>
          <path id="Path_922988" data-name="Path 922988" d="M27.043,247.8a42.579,42.579,0,0,1,5.485-4.836" transform="translate(-8.109 -72.851)" fill="none" stroke="#49301d" stroke-miterlimit="10" stroke-width="1"/>
          <path id="Path_922989" data-name="Path 922989" d="M28.926,250.255a26.4,26.4,0,0,1,5.255-4.115" transform="translate(-8.673 -73.803)" fill="none" stroke="#49301d" stroke-miterlimit="10" stroke-width="1"/>
          <path id="Path_922990" data-name="Path 922990" d="M34.736,250.984l4.251-3.314" transform="translate(-10.415 -74.262)" fill="none" stroke="#49301d" stroke-miterlimit="10" stroke-width="1"/>
          <path id="Path_922991" data-name="Path 922991" d="M39.951,252.235a7.925,7.925,0,0,1,3.007-2.372" transform="translate(-11.979 -74.919)" fill="none" stroke="#49301d" stroke-miterlimit="10" stroke-width="1"/>
          <path id="Path_922992" data-name="Path 922992" d="M47.041,252.448a5.537,5.537,0,0,1,1.49-1.255" transform="translate(-14.105 -75.318)" fill="none" stroke="#49301d" stroke-miterlimit="10" stroke-width="1"/>
          <path id="Path_922993" data-name="Path 922993" d="M99.645,230.268A70.69,70.69,0,0,1,107,237.139" transform="translate(-29.878 -69.044)" fill="none" stroke="#a07747" stroke-miterlimit="10" stroke-width="1"/>
          <path id="Path_922994" data-name="Path 922994" d="M99.818,226.469a23.263,23.263,0,0,1,6.972,6.633" transform="translate(-29.93 -67.905)" fill="none" stroke="#a07747" stroke-miterlimit="10" stroke-width="1"/>
          <path id="Path_922995" data-name="Path 922995" d="M100.562,221.457a23.567,23.567,0,0,1,5.593,5.717" transform="translate(-30.153 -66.402)" fill="none" stroke="#a07747" stroke-miterlimit="10" stroke-width="1"/>
          <path id="Path_922996" data-name="Path 922996" d="M103.036,216.194a15.763,15.763,0,0,1,3.857,4.946" transform="translate(-30.894 -64.824)" fill="none" stroke="#a07747" stroke-miterlimit="10" stroke-width="1"/>
          <path id="Path_922997" data-name="Path 922997" d="M99.2,212.46a12.882,12.882,0,0,1,5.963,3.492" transform="translate(-29.744 -63.704)" fill="none" stroke="#a07747" stroke-miterlimit="10" stroke-width="1"/>
          <path id="Path_922998" data-name="Path 922998" d="M101.007,208.478a13.762,13.762,0,0,1,4.918,4.691" transform="translate(-30.286 -62.51)" fill="none" stroke="#a07747" stroke-miterlimit="10" stroke-width="1"/>
        </g>
      </g>
    </g>
    <rect id="Rectangle_408833" data-name="Rectangle 408833" width="261" height="9" transform="translate(195.711 17221)" fill="#eebc32"/>
  </g>
</svg>
