<svg xmlns="http://www.w3.org/2000/svg" xmlns:xlink="http://www.w3.org/1999/xlink" width="70" height="70" viewBox="0 0 70 70">
  <defs>
    <clipPath id="clip-path">
      <rect id="Rectangle_408906" data-name="Rectangle 408906" width="42.703" height="42.8" fill="#953c2d"/>
    </clipPath>
  </defs>
  <g id="Group_1118918" data-name="Group 1118918" transform="translate(-268.711 -958.188)">
    <circle id="Ellipse_5614" data-name="Ellipse 5614" cx="35" cy="35" r="35" transform="translate(268.711 958.188)" fill="#fff"/>
    <g id="Group_1118990" data-name="Group 1118990" transform="translate(282.711 971.188)">
      <g id="Group_1118989" data-name="Group 1118989" clip-path="url(#clip-path)">
        <path id="Path_922812" data-name="Path 922812" d="M2.524,121.032a3.117,3.117,0,0,1-2.5-3.238c1.33-4.179,1.9-9.08,3.333-13.17A5.108,5.108,0,0,1,7.3,101.242a47.362,47.362,0,0,1,7.078-.014,4.722,4.722,0,0,1,1.537.569,6.256,6.256,0,0,0,1.091,6.091,5.844,5.844,0,0,0-2.626,2.756c-1.309,3.168-1.7,7.495-2.763,10.817a4.016,4.016,0,0,0,3.908,3.985,35.777,35.777,0,0,0,.194,5.252,2.59,2.59,0,0,1-1.589.724,44.568,44.568,0,0,1-6.711-.009,2.7,2.7,0,0,1-2.15-2.251v-8.129c-.858-.086-1.922.117-2.75,0" transform="translate(0 -88.743)" fill="#953c2d"/>
        <path id="Path_922813" data-name="Path 922813" d="M221.878,121.032v8.129a2.636,2.636,0,0,1-2.275,2.248,43.536,43.536,0,0,1-6.588.014,3.237,3.237,0,0,1-1.586-.726,36.721,36.721,0,0,0,.2-5.247,7.085,7.085,0,0,1,1.184-.222,4.087,4.087,0,0,0,2.721-3.646c0-1.477-1.44-6.181-1.9-7.886-.66-2.427-.973-4.577-3.486-5.808a6.256,6.256,0,0,0,1.091-6.091,4.721,4.721,0,0,1,1.537-.569,47.362,47.362,0,0,1,7.078.014,5.131,5.131,0,0,1,3.953,3.382c1.446,4.111,2.044,9.079,3.335,13.3.216,1.244-1.292,3.112-2.507,3.112Z" transform="translate(-184.454 -88.743)" fill="#953c2d"/>
        <path id="Path_922814" data-name="Path 922814" d="M120.96,180.408l-.028,6.267a1.87,1.87,0,0,1-1.215,1.352,32.52,32.52,0,0,1-5.408.072,1.841,1.841,0,0,1-1.539-1.64c-.215-1.877.16-4.133,0-6.051h-2.261c-.715,0-1.9-1.473-1.658-2.263.863-3.1,1.387-6.558,2.392-9.594a3.674,3.674,0,0,1,2.227-2.54,18.954,18.954,0,0,1,6.513-.089c2.38.7,2.563,2.9,3.118,4.95a54.087,54.087,0,0,1,1.77,7.156,2.2,2.2,0,0,1-.31,1.4,2.9,2.9,0,0,1-1.339.984Z" transform="translate(-95.515 -145.43)" fill="#953c2d"/>
        <path id="Path_922815" data-name="Path 922815" d="M48.811.05c7.576-.9,8.537,10.514,1.186,11.088C42.836,11.7,41.808.884,48.811.05" transform="translate(-38.674 0.001)" fill="#953c2d"/>
        <path id="Path_922816" data-name="Path 922816" d="M220.312.147c7.49-.779,8.374,10.291,1.3,11.075-7.338.813-8.447-10.332-1.3-11.075" transform="translate(-189.147 -0.095)" fill="#953c2d"/>
        <path id="Path_922817" data-name="Path 922817" d="M144.749,90.915c5.557-.877,6.574,7.54,1.3,8.148-5.6.645-6.307-7.358-1.3-8.148" transform="translate(-124.104 -79.745)" fill="#953c2d"/>
      </g>
    </g>
  </g>
</svg>
