<svg xmlns="http://www.w3.org/2000/svg" xmlns:xlink="http://www.w3.org/1999/xlink" width="99" height="99" viewBox="0 0 99 99">
  <defs>
    <clipPath id="clip-path">
      <rect id="Rectangle_401223" data-name="Rectangle 401223" width="99" height="99" transform="translate(0)" fill="#8ce6fe"/>
    </clipPath>
    <clipPath id="clip-path-2">
      <rect id="Rectangle_401223-2" data-name="Rectangle 401223" width="88.539" height="88.539" fill="#f3f9ff"/>
    </clipPath>
    <clipPath id="clip-path-3">
      <rect id="Rectangle_408916" data-name="Rectangle 408916" width="68.249" height="73.115" fill="none"/>
    </clipPath>
    <clipPath id="clip-path-5">
      <rect id="Rectangle_408913" data-name="Rectangle 408913" width="18.466" height="52.702" fill="none"/>
    </clipPath>
    <clipPath id="clip-path-6">
      <rect id="Rectangle_408914" data-name="Rectangle 408914" width="22.153" height="55.643" fill="none"/>
    </clipPath>
  </defs>
  <g id="Group_1118903" data-name="Group 1118903" transform="translate(-619.921 -5755.871)">
    <g id="Group_1100724" data-name="Group 1100724" transform="translate(619.921 5755.871)">
      <g id="Group_1099654" data-name="Group 1099654" transform="translate(0 0)">
        <g id="Group_1099652" data-name="Group 1099652" clip-path="url(#clip-path)">
          <path id="Path_873521" data-name="Path 873521" d="M99,77.066A22,22,0,0,1,77.066,99H21.934A22,22,0,0,1,0,77.066V21.933A22,22,0,0,1,21.934,0H77.066A22,22,0,0,1,99,21.934Z" transform="translate(0)" fill="#ffdcd6"/>
        </g>
      </g>
      <g id="Group_1099659" data-name="Group 1099659" transform="translate(4.77 5.723)">
        <g id="Group_1099652-2" data-name="Group 1099652" transform="translate(0 0)" clip-path="url(#clip-path-2)">
          <path id="Path_873521-2" data-name="Path 873521" d="M88.539,68.922A19.674,19.674,0,0,1,68.923,88.539H19.616A19.674,19.674,0,0,1,0,68.922V19.616A19.674,19.674,0,0,1,19.616,0H68.923A19.674,19.674,0,0,1,88.539,19.616Z" fill="#f3f9ff"/>
        </g>
      </g>
    </g>
    <g id="Group_1100725" data-name="Group 1100725" transform="translate(636.343 5771.293)">
      <rect id="Rectangle_401104" data-name="Rectangle 401104" width="68" height="69" transform="translate(0.29 -2.115)" fill="none"/>
      <g id="Group_1119010" data-name="Group 1119010" transform="translate(0.29 -4.115)">
        <g id="Group_1119009" data-name="Group 1119009" clip-path="url(#clip-path-3)">
          <g id="Group_1119008" data-name="Group 1119008">
            <g id="Group_1119007" data-name="Group 1119007" clip-path="url(#clip-path-3)">
              <g id="Group_1119003" data-name="Group 1119003" transform="translate(36.632 10.415)" opacity="0.6">
                <g id="Group_1119002" data-name="Group 1119002">
                  <g id="Group_1119001" data-name="Group 1119001" clip-path="url(#clip-path-5)">
                    <path id="Path_923102" data-name="Path 923102" d="M110.24,44.551c.853-.11,1.662.788,1.841,2.379s.125,2.7.161,3.111.437,2.893.437,3.567A1.286,1.286,0,0,1,111.636,55c-.567.064-1.371-.871-1.721-1.98s-1.965-8.173.325-8.467" transform="translate(-96.493 -34.869)" fill="#dd885b"/>
                    <path id="Path_923103" data-name="Path 923103" d="M111.109,45.23s.7.1.955,1.6c.152.89.563,5.7.563,5.7s-3.171.617-3.319.578a9.96,9.96,0,0,1-.692-1.788s1.133-6.207,2.493-6.081" transform="translate(-96.263 -35.246)" fill="#002d56"/>
                    <path id="Path_923104" data-name="Path 923104" d="M87.178,44.551c-.853-.11-1.662.788-1.84,2.379s-.126,2.7-.161,3.111-.437,2.893-.437,3.567A1.285,1.285,0,0,0,85.782,55c.568.064,1.371-.871,1.721-1.98s1.965-8.173-.325-8.467" transform="translate(-83.154 -34.869)" fill="#dd885b"/>
                    <path id="Path_923105" data-name="Path 923105" d="M84.5,63.764c-.676-.076-1.274.217-1.586,2.1s-.469,6.339-.469,6.339l1.1.123s1.491-3.588,1.7-4.6,1.026-3.76-.746-3.958" transform="translate(-81.892 -45.416)" fill="#dd885b"/>
                    <path id="Path_923106" data-name="Path 923106" d="M97.7,50.448c.74-2.273,2.654-6.17,1.533-6.847-1.461-.884-5.664-1.426-5.664-1.426v.072s-4.239.355-5.7,1.239c-1.121.678.83,4.762,1.569,7.035a30.741,30.741,0,0,1,.09,5.159,39.684,39.684,0,0,0-.377,4.011,12.5,12.5,0,0,0,4.418,2.23v-.072a12.5,12.5,0,0,0,4.418-2.23,39.685,39.685,0,0,0-.377-4.011,30.739,30.739,0,0,1,.09-5.159" transform="translate(-84.686 -33.569)" fill="#dd885b"/>
                    <path id="Path_923107" data-name="Path 923107" d="M85.86,45.23s-.7.1-.954,1.6c-.153.89-.564,5.7-.564,5.7s3.171.617,3.319.578a9.96,9.96,0,0,0,.692-1.788S87.219,45.1,85.86,45.23" transform="translate(-82.936 -35.246)" fill="#002d56"/>
                    <path id="Path_923108" data-name="Path 923108" d="M99,37.548c-.1-.433-.337-2.573-.337-2.573H97.246v.072H95.827s-.241,2.14-.337,2.573-1.264,1.086-1.264,1.086h3.02v-.072h3.02S99.1,37.981,99,37.548" transform="translate(-88.362 -29.617)" fill="#dd885b"/>
                    <path id="Path_923109" data-name="Path 923109" d="M98.907,36.944c-.09-.656-.2-1.589-.231-1.879l-.091-.09H97.247v.072H95.828s-.24,2.14-.336,2.573-1.264,1.086-1.264,1.086h.143c1.348-.359,2.688-.718,2.868-.769A12.371,12.371,0,0,0,98.907,36.944Z" transform="translate(-88.363 -29.616)" fill="#d17345"/>
                    <path id="Path_923110" data-name="Path 923110" d="M99.587,43.666c-.143-.34-1.213-.577-2.155-.869-.831-.258-1.574-.584-1.574-.584l-2.305,1.32-2.306-1.32s-.743.326-1.574.583c-.942.292-1.994.537-2.155.869s1.526,6.81,1.715,7.361-.3,4.4.185,5.555l4.13.129h.009l4.131-.129c.377-1.321-.01-5.076.179-5.627s2.114-6.35,1.721-7.289" transform="translate(-84.673 -33.591)" fill="#002d56"/>
                    <path id="Path_923111" data-name="Path 923111" d="M94.031,58.247c-.4-.248-.993-.5-1.354-.72s-.011-.993-.015-1.39S93.758,55,94.5,54.722s2.035-.174,2.333-.695-.5-1.018-.844-1.018-2.582-.645-2.929-.6-2.979.323-3.4,0-2.52-6.394-2.52-6.394c.471,2.04,1.77,6.746,1.891,7.1.189.551-.3,4.4.184,5.555l4.131.129h.009l4.13-.129a12.564,12.564,0,0,1-1.271-.239c-.373-.113-1.788.063-2.185-.185" transform="translate(-84.473 -35.68)" fill="#00233f"/>
                    <path id="Path_923112" data-name="Path 923112" d="M84.844,85.675h0a.239.239,0,0,1-.248-.226l-.047-1.015a.238.238,0,0,1,.227-.249h0a.238.238,0,0,1,.248.226l.048,1.016a.238.238,0,0,1-.227.249" transform="translate(-83.049 -56.633)" fill="#dd885b"/>
                    <path id="Path_923113" data-name="Path 923113" d="M83.863,85.814h0a.239.239,0,0,1-.248-.226l-.047-1.015a.238.238,0,0,1,.227-.248h0a.238.238,0,0,1,.248.226l.048,1.016a.238.238,0,0,1-.227.248" transform="translate(-82.51 -56.709)" fill="#dd885b"/>
                    <path id="Path_923114" data-name="Path 923114" d="M82.9,85.892h0a.239.239,0,0,1-.248-.226L82.6,84.65a.238.238,0,0,1,.227-.248h0a.238.238,0,0,1,.248.226l.048,1.016a.238.238,0,0,1-.227.248" transform="translate(-81.982 -56.752)" fill="#dd885b"/>
                    <path id="Path_923115" data-name="Path 923115" d="M81.965,85.878h0a.238.238,0,0,1-.248-.226l-.047-1.016a.238.238,0,0,1,.227-.249h0a.238.238,0,0,1,.248.226l.048,1.016a.238.238,0,0,1-.227.249" transform="translate(-81.468 -56.744)" fill="#dd885b"/>
                    <path id="Path_923116" data-name="Path 923116" d="M81.861,79.722a16.405,16.405,0,0,0-.635,1.9,10.242,10.242,0,0,0,.276,1.575s.41-.409.7-.381,1.043.167,1.043.167a7.286,7.286,0,0,0,.18-1.606,5.175,5.175,0,0,0-.23-1.011Z" transform="translate(-81.225 -54.183)" fill="#dd885b"/>
                    <path id="Path_923117" data-name="Path 923117" d="M90.866,74.036a45.727,45.727,0,0,0-.719,4.72c-.1,1.663.716,8.931.719,9.731s-.051,3.258,0,5.668.672,7.153.672,7.153l3.079-.076s0-10.188,0-11.79.385-10.035.385-10.035V74.165Z" transform="translate(-86.119 -51.061)" fill="#00233f"/>
                    <path id="Path_923118" data-name="Path 923118" d="M105.049,74.037a45.639,45.639,0,0,1,.719,4.715c.1,1.661-.716,8.921-.719,9.721s.051,3.254,0,5.662-.681,7.146-.681,7.146l-3.079-.077s0-10.177,0-11.777-.385-10.025-.385-10.025V74.166Z" transform="translate(-92.031 -51.062)" fill="#00233f"/>
                    <path id="Path_923119" data-name="Path 923119" d="M92.742,134.415s-1.051,1.233-.995,1.558a1.488,1.488,0,0,0,1.283.9,6.031,6.031,0,0,0,1.768-.541c.361-.038.357-1.981.357-1.981Z" transform="translate(-87 -84.177)" fill="#191919"/>
                    <path id="Path_923120" data-name="Path 923120" d="M104.684,134.352s1.051,1.232.995,1.557a1.488,1.488,0,0,1-1.283.9,6.033,6.033,0,0,1-1.768-.54c-.361-.037-.357-1.979-.357-1.979Z" transform="translate(-92.78 -84.142)" fill="#191919"/>
                    <path id="Path_923121" data-name="Path 923121" d="M106.58,80.19c.059,1.1-.509,8.394-.523,8.809s-.157,11.732-.164,12.256l1.013.025s.63-4.739.681-7.146,0-4.863,0-5.662.815-8.06.718-9.721a45.551,45.551,0,0,0-.718-4.715l-1.953.061-.1.068s.987,4.924,1.046,6.024" transform="translate(-94.57 -51.062)" fill="#002d56"/>
                    <path id="Path_923122" data-name="Path 923122" d="M97.074,80.726a1.178,1.178,0,0,0-2.2.49,10.539,10.539,0,0,0-.02,2.556c.262,1.376.645,8.1.6,8.28s0,12.533,0,12.533l.055.033,1.659-.041s0-10.188,0-11.79.385-10.035.385-10.035v-.458l.031-.661Z" transform="translate(-88.671 -54.407)" fill="#002d56"/>
                    <path id="Path_923123" data-name="Path 923123" d="M100.562,26.777c0,1.825-1.379,3.643-2.55,3.643-1.119,0-2.55-1.818-2.55-3.643s1.142-3.3,2.55-3.3,2.55,1.48,2.55,3.3" transform="translate(-89.041 -23.302)" fill="#dd885b"/>
                    <path id="Path_923124" data-name="Path 923124" d="M94.948,26.935a3.1,3.1,0,0,1-.411-1.424,7.41,7.41,0,0,1,.679-1.457,5.406,5.406,0,0,1,1.672-.927,5.213,5.213,0,0,1,1.143,0,2.132,2.132,0,0,1,1.307.679c.166.331.576.712.71.977a3.606,3.606,0,0,1,.332,1.043c-.032.1-.215.927-.232.993a1.6,1.6,0,0,1-.135.254s-.688-1.743-.7-1.909a16.033,16.033,0,0,0-3.708-.1,7.9,7.9,0,0,0-.653,1.869" transform="translate(-88.527 -23.094)" fill="#683b26"/>
                    <path id="Path_923125" data-name="Path 923125" d="M95.561,31.483s1.031,2.453,2.413,2.453,2.41-2.509,2.41-2.509l.205-.28s-.38,4.032-2.6,4.032c-1.871,0-2.538-2.937-2.635-3.915Z" transform="translate(-88.979 -27.516)" fill="#683b26"/>
                    <path id="Path_923126" data-name="Path 923126" d="M98.154,35.934s.624-.985,1.4-1,1.387,1,1.387,1a5.156,5.156,0,0,0-1.376-.5,5.138,5.138,0,0,0-1.414.5" transform="translate(-90.519 -29.596)" fill="#683b26"/>
                    <path id="Path_923127" data-name="Path 923127" d="M113.025,64.208c.658.175,1.108.665.715,2.532s-1.866,6.076-1.866,6.076l-1.064-.283s-.086-3.884.083-4.907.41-3.876,2.132-3.417" transform="translate(-97.455 -45.638)" fill="#dd885b"/>
                    <path id="Path_923128" data-name="Path 923128" d="M102.83,84.436l-.27.222a14.22,14.22,0,0,0-4.755,9c-.64,5.793,3.109,7.922,6.175,7.709s4.855-2.877,4.77-6.23-4.3-10.7-4.3-10.7,1.7,5.3-1.031,5-.588-5-.588-5" transform="translate(-90.288 -56.771)" fill="#7e723d"/>
                    <path id="Path_923129" data-name="Path 923129" d="M108.631,85.327h0a.238.238,0,0,0,.313-.121l.413-.929a.238.238,0,0,0-.121-.314h0a.239.239,0,0,0-.313.121l-.413.929a.239.239,0,0,0,.121.314" transform="translate(-96.193 -56.5)" fill="#dd885b"/>
                    <path id="Path_923130" data-name="Path 923130" d="M109.5,85.813h0a.239.239,0,0,0,.313-.121l.413-.929a.238.238,0,0,0-.121-.314h0a.239.239,0,0,0-.313.121l-.413.929a.239.239,0,0,0,.121.314" transform="translate(-96.668 -56.767)" fill="#dd885b"/>
                    <path id="Path_923131" data-name="Path 923131" d="M110.364,86.235h0a.238.238,0,0,0,.313-.121l.413-.929a.239.239,0,0,0-.121-.314h0a.239.239,0,0,0-.313.121l-.413.929a.238.238,0,0,0,.121.314" transform="translate(-97.144 -56.999)" fill="#dd885b"/>
                    <path id="Path_923132" data-name="Path 923132" d="M111.24,86.563h0a.238.238,0,0,0,.313-.121l.413-.929a.238.238,0,0,0-.121-.314h0a.239.239,0,0,0-.313.121l-.413.929a.238.238,0,0,0,.121.314" transform="translate(-97.625 -57.179)" fill="#dd885b"/>
                    <path id="Path_923133" data-name="Path 923133" d="M111.007,80.708a16.441,16.441,0,0,1-.1,2,10.256,10.256,0,0,1-.83,1.367s-.233-.529-.515-.61-1.032-.223-1.032-.223a7.285,7.285,0,0,1,.415-1.561,5.194,5.194,0,0,1,.581-.858Z" transform="translate(-96.217 -54.724)" fill="#dd885b"/>
                  </g>
                </g>
              </g>
              <g id="Group_1119006" data-name="Group 1119006" transform="translate(12.176 7.638)" opacity="0.7">
                <g id="Group_1119005" data-name="Group 1119005">
                  <g id="Group_1119004" data-name="Group 1119004" clip-path="url(#clip-path-6)">
                    <path id="Path_923134" data-name="Path 923134" d="M64.638,48.514c.82-.106,1.6.758,1.771,2.289s.121,2.594.156,2.993.42,2.783.42,3.432a1.236,1.236,0,0,1-1,1.338c-.546.061-1.32-.838-1.656-1.905s-1.891-7.864.313-8.147" transform="translate(-47.027 -34.267)" fill="#dd885b"/>
                    <path id="Path_923135" data-name="Path 923135" d="M65.475,49.168s.672.1.918,1.535c.147.857.542,5.481.542,5.481s-3.051.594-3.193.556a9.562,9.562,0,0,1-.666-1.72s1.091-5.973,2.4-5.852" transform="translate(-46.806 -34.63)" fill="#cee0ff"/>
                    <path id="Path_923136" data-name="Path 923136" d="M39.614,43.316c.691-.454.721-1.616-.146-2.89s-1.6-2.048-1.831-2.374-1.493-2.386-1.914-2.879a1.237,1.237,0,0,0-1.634-.363c-.454.309-.456,1.5-.016,2.524s3.683,7.2,5.541,5.982" transform="translate(-30.703 -26.65)" fill="#dd885b"/>
                    <path id="Path_923137" data-name="Path 923137" d="M32.946,29.494c.6-.253.969-.779.349-2.508s-2.577-5.546-2.577-5.546l-.978.41s.429,3.714.725,4.666.9,3.64,2.482,2.977" transform="translate(-28.503 -19.408)" fill="#dd885b"/>
                    <path id="Path_923138" data-name="Path 923138" d="M52.573,54.189c.712-2.187,2.554-5.936,1.475-6.589-1.406-.851-5.45-1.372-5.45-1.372V46.3s-4.079.341-5.485,1.192c-1.078.653.8,4.583,1.51,6.769a29.494,29.494,0,0,1,.087,4.964,38.123,38.123,0,0,0-.363,3.86A12.034,12.034,0,0,0,48.6,65.228v-.069a12.038,12.038,0,0,0,4.251-2.146,38.257,38.257,0,0,0-.363-3.86,29.512,29.512,0,0,1,.087-4.964" transform="translate(-35.666 -33.017)" fill="#dd885b"/>
                    <path id="Path_923139" data-name="Path 923139" d="M40.516,44.233s.446-.512-.3-1.763c-.446-.746-3.156-4.514-3.156-4.514s-2.7,1.536-2.786,1.656,4.573,7.269,4.573,7.269a11.022,11.022,0,0,1,1.671-2.648" transform="translate(-30.991 -28.476)" fill="#cee0ff"/>
                    <path id="Path_923140" data-name="Path 923140" d="M53.825,41.776C53.733,41.36,53.5,39.3,53.5,39.3H52.136v.069H50.77s-.231,2.06-.324,2.476-1.216,1.045-1.216,1.045h2.906v-.069h2.906s-1.124-.629-1.216-1.045" transform="translate(-39.204 -29.213)" fill="#dd885b"/>
                    <path id="Path_923141" data-name="Path 923141" d="M53.733,41.2c-.087-.631-.19-1.529-.222-1.808l-.088-.087H52.136v.069H50.77s-.231,2.06-.324,2.476-1.216,1.045-1.216,1.045h.137c1.3-.345,2.586-.69,2.76-.74A11.9,11.9,0,0,0,53.733,41.2Z" transform="translate(-39.204 -29.213)" fill="#d17345"/>
                    <path id="Path_923142" data-name="Path 923142" d="M54.387,47.663c-.138-.328-1.167-.555-2.074-.836a16.042,16.042,0,0,1-1.514-.561l-2.218,1.27-2.219-1.27s-.715.314-1.514.561c-.907.281-1.919.516-2.074.836s1.468,6.553,1.651,7.083-.285,4.237.178,5.345l3.975.124h.009l3.975-.124c.364-1.271-.009-4.885.173-5.415s2.034-6.111,1.656-7.013" transform="translate(-35.653 -33.037)" fill="#cee0ff"/>
                    <path id="Path_923143" data-name="Path 923143" d="M49.041,61.694c-.382-.239-.956-.478-1.3-.693s-.011-.956-.015-1.338,1.055-1.1,1.772-1.362,1.959-.167,2.246-.669-.478-.979-.812-.979-2.484-.621-2.819-.574-2.866.311-3.272,0-2.425-6.153-2.425-6.153c.453,1.962,1.7,6.492,1.819,6.829.183.53-.285,4.237.178,5.345l3.975.124h.009l3.975-.124a12.209,12.209,0,0,1-1.224-.23c-.359-.109-1.72.061-2.1-.178" transform="translate(-35.461 -35.048)" fill="#b8d1ff"/>
                    <path id="Path_923144" data-name="Path 923144" d="M27.107,18.49h0a.23.23,0,0,1,.314.074l.516.831a.229.229,0,0,1-.074.315h0a.23.23,0,0,1-.314-.074l-.516-.831a.23.23,0,0,1,.074-.316" transform="translate(-26.998 -17.77)" fill="#dd885b"/>
                    <path id="Path_923145" data-name="Path 923145" d="M27.867,17.913h0a.23.23,0,0,1,.314.074l.516.831a.229.229,0,0,1-.074.315h0a.229.229,0,0,1-.314-.074l-.516-.831a.23.23,0,0,1,.074-.316" transform="translate(-27.415 -17.453)" fill="#dd885b"/>
                    <path id="Path_923146" data-name="Path 923146" d="M28.639,17.4h0a.23.23,0,0,1,.314.074l.516.831a.23.23,0,0,1-.074.315h0a.229.229,0,0,1-.314-.074l-.516-.831a.229.229,0,0,1,.074-.315" transform="translate(-27.839 -17.17)" fill="#dd885b"/>
                    <path id="Path_923147" data-name="Path 923147" d="M29.432,16.969h0a.23.23,0,0,1,.314.074l.516.831a.229.229,0,0,1-.074.315h0a.229.229,0,0,1-.314-.074l-.516-.831a.229.229,0,0,1,.074-.315" transform="translate(-28.275 -16.935)" fill="#dd885b"/>
                    <path id="Path_923148" data-name="Path 923148" d="M29.764,20.1a15.811,15.811,0,0,0-.355-1.89,9.86,9.86,0,0,0-.97-1.194s-.153.535-.412.649-.954.348-.954.348a7.015,7.015,0,0,0,.6,1.434,4.981,4.981,0,0,0,.667.742Z" transform="translate(-27.039 -16.98)" fill="#dd885b"/>
                    <path id="Path_923149" data-name="Path 923149" d="M46,76.887a44,44,0,0,0-.692,4.542c-.092,1.6.689,8.593.692,9.363s-.049,3.135,0,5.454.646,6.884.646,6.884l2.962-.074s0-9.8,0-11.344.37-9.657.37-9.657V77.011Z" transform="translate(-37.044 -49.849)" fill="#00233f"/>
                    <path id="Path_923150" data-name="Path 923150" d="M59.643,76.888a43.933,43.933,0,0,1,.692,4.537c.092,1.6-.689,8.585-.692,9.354s.049,3.132,0,5.448-.655,6.876-.655,6.876l-2.963-.074s0-9.793,0-11.332-.37-9.647-.37-9.647V77.012Z" transform="translate(-42.734 -49.849)" fill="#00233f"/>
                    <path id="Path_923151" data-name="Path 923151" d="M47.8,134.986s-1.011,1.187-.957,1.5a1.432,1.432,0,0,0,1.234.87,5.809,5.809,0,0,0,1.7-.52c.347-.036.343-1.906.343-1.906Z" transform="translate(-37.893 -81.713)" fill="#191919"/>
                    <path id="Path_923152" data-name="Path 923152" d="M59.292,134.926s1.011,1.185.957,1.5a1.431,1.431,0,0,1-1.234.869,5.814,5.814,0,0,1-1.7-.52c-.347-.036-.343-1.9-.343-1.9Z" transform="translate(-43.453 -81.681)" fill="#191919"/>
                    <path id="Path_923153" data-name="Path 923153" d="M61.117,82.808c.056,1.059-.49,8.077-.5,8.477s-.151,11.29-.157,11.793l.975.024s.606-4.56.655-6.876,0-4.679,0-5.448.784-7.755.692-9.354a43.8,43.8,0,0,0-.692-4.537l-1.879.059-.1.065s.95,4.738,1.007,5.8" transform="translate(-45.177 -49.849)" fill="#002d56"/>
                    <path id="Path_923154" data-name="Path 923154" d="M51.97,83.324a1.133,1.133,0,0,0-2.114.472,10.165,10.165,0,0,0-.02,2.46c.253,1.324.621,7.8.573,7.967s0,12.06,0,12.06l.052.032,1.6-.04s0-9.8,0-11.344.37-9.657.37-9.657v-.441l.03-.635Z" transform="translate(-39.501 -53.068)" fill="#002d56"/>
                    <path id="Path_923155" data-name="Path 923155" d="M55.326,31.412c0,1.756-1.327,3.505-2.454,3.505-1.077,0-2.454-1.749-2.454-3.505s1.1-3.18,2.454-3.18,2.454,1.424,2.454,3.18" transform="translate(-39.856 -23.137)" fill="#dd885b"/>
                    <path id="Path_923156" data-name="Path 923156" d="M49.924,31.564a2.982,2.982,0,0,1-.4-1.37,7.158,7.158,0,0,1,.653-1.4A5.2,5.2,0,0,1,51.79,27.9a4.986,4.986,0,0,1,1.1,0,2.05,2.05,0,0,1,1.258.653c.16.319.555.685.684.94a3.487,3.487,0,0,1,.32,1c-.032.1-.207.892-.223.956a1.565,1.565,0,0,1-.13.245s-.662-1.677-.678-1.837a15.415,15.415,0,0,0-3.568-.1,7.615,7.615,0,0,0-.628,1.8" transform="translate(-39.361 -22.937)" fill="#683b26"/>
                    <path id="Path_923157" data-name="Path 923157" d="M50.513,35.94s.993,2.361,2.322,2.361,2.319-2.414,2.319-2.414l.2-.269S54.987,39.5,52.846,39.5c-1.8,0-2.442-2.825-2.536-3.766Z" transform="translate(-39.797 -27.192)" fill="#683b26"/>
                    <path id="Path_923158" data-name="Path 923158" d="M53.009,40.224s.6-.948,1.351-.96,1.335.96,1.335.96a4.951,4.951,0,0,0-1.325-.48,4.94,4.94,0,0,0-1.361.48" transform="translate(-41.278 -29.194)" fill="#683b26"/>
                    <path id="Path_923159" data-name="Path 923159" d="M67.318,67.43c.633.169,1.067.64.688,2.436s-1.795,5.847-1.795,5.847l-1.025-.273s-.082-3.737.08-4.722.394-3.729,2.052-3.288" transform="translate(-47.952 -44.631)" fill="#dd885b"/>
                    <path id="Path_923160" data-name="Path 923160" d="M57.509,86.894l-.259.214a13.679,13.679,0,0,0-4.576,8.657c-.616,5.574,2.991,7.623,5.942,7.418s4.672-2.769,4.59-6-4.139-10.294-4.139-10.294,1.631,5.1-.992,4.814-.566-4.814-.566-4.814" transform="translate(-41.056 -55.343)" fill="#7e723d"/>
                    <path id="Path_923161" data-name="Path 923161" d="M63.091,87.751h0a.23.23,0,0,0,.3-.116l.4-.894a.229.229,0,0,0-.117-.3h0a.23.23,0,0,0-.3.116l-.4.894a.229.229,0,0,0,.117.3" transform="translate(-46.738 -55.082)" fill="#dd885b"/>
                    <path id="Path_923162" data-name="Path 923162" d="M63.922,88.219h0a.23.23,0,0,0,.3-.116l.4-.894a.229.229,0,0,0-.117-.3h0a.23.23,0,0,0-.3.116l-.4.894a.229.229,0,0,0,.117.3" transform="translate(-47.195 -55.339)" fill="#dd885b"/>
                    <path id="Path_923163" data-name="Path 923163" d="M64.758,88.624h0a.229.229,0,0,0,.3-.116l.4-.894a.229.229,0,0,0-.117-.3h0a.23.23,0,0,0-.3.116l-.4.894a.229.229,0,0,0,.117.3" transform="translate(-47.653 -55.561)" fill="#dd885b"/>
                    <path id="Path_923164" data-name="Path 923164" d="M65.6,88.94h0a.23.23,0,0,0,.3-.116l.4-.894a.229.229,0,0,0-.117-.3h0a.23.23,0,0,0-.3.116l-.4.894a.229.229,0,0,0,.117.3" transform="translate(-48.116 -55.735)" fill="#dd885b"/>
                    <path id="Path_923165" data-name="Path 923165" d="M65.377,83.306a15.827,15.827,0,0,1-.093,1.921,9.9,9.9,0,0,1-.8,1.316s-.224-.509-.5-.587S63,85.741,63,85.741a7,7,0,0,1,.4-1.5,4.976,4.976,0,0,1,.559-.826Z" transform="translate(-46.761 -53.373)" fill="#dd885b"/>
                  </g>
                </g>
              </g>
              <path id="Path_923166" data-name="Path 923166" d="M117.7,56.863c.841-2.584,2.982-6.981,1.708-7.751C117.748,48.107,113,47.455,113,47.455v.082s-4.82.4-6.482,1.409c-1.275.771.943,5.415,1.785,8a34.931,34.931,0,0,1,.1,5.866,45.1,45.1,0,0,0-.428,4.561c.025.345,3.929,2.481,5.023,2.536v-.082c1.094-.055,5-2.191,5.023-2.536a42.434,42.434,0,0,0-.507-4.548,32.583,32.583,0,0,1,.181-5.88" transform="translate(-58.269 -26.053)" fill="#dd885b"/>
              <path id="Path_923167" data-name="Path 923167" d="M131.659,50.409c.793-.572,2.089-.114,3.129,1.38s1.587,2.627,1.848,3.022,2,2.655,2.371,3.328a1.461,1.461,0,0,1-.288,1.956c-.533.371-1.843-.127-2.794-1.046s-6.4-7.1-4.266-8.639" transform="translate(-72.012 -27.544)" fill="#232d29"/>
              <path id="Path_923168" data-name="Path 923168" d="M100,51.129c-.713-.668-2.057-.38-3.28.969s-1.91,2.4-2.219,2.761-2.327,2.376-2.777,3a1.462,1.462,0,0,0,.037,1.977c.481.436,1.118.787,2.9-.681,1.021-.84,7.251-6.228,5.335-8.023" transform="translate(-50.156 -27.88)" fill="#232d29"/>
              <path id="Path_923169" data-name="Path 923169" d="M119.18,42.195c-.109-.492-.383-2.927-.383-2.927h-1.614v.082H115.57s-.273,2.434-.382,2.927-1.438,1.235-1.438,1.235h3.434V43.43h3.434s-1.328-.743-1.437-1.235" transform="translate(-62.449 -21.558)" fill="#dd885b"/>
              <path id="Path_923170" data-name="Path 923170" d="M119.072,41.508c-.1-.746-.225-1.807-.262-2.137l-.1-.1h-1.521v.082h-1.614s-.273,2.434-.383,2.927-1.437,1.235-1.437,1.235h.162c1.532-.409,3.056-.816,3.261-.875A14.064,14.064,0,0,0,119.072,41.508Z" transform="translate(-62.45 -21.558)" fill="#d17345"/>
              <path id="Path_923171" data-name="Path 923171" d="M119.811,49.187c-.162-.387-.9-.752-1.988-1.031-1.169-.3-2.217-.655-2.217-.655L112.984,49l-2.622-1.5a19.068,19.068,0,0,1-1.79.663c-1.072.332-2.268.61-2.451.988s1.735,7.744,1.951,8.37-.336,5.007.21,6.317l4.7.146h.01l4.7-.146c.429-1.5-.011-5.773.2-6.4s2.369-7.186,1.921-8.253" transform="translate(-58.254 -26.078)" fill="#232d29"/>
              <path id="Path_923172" data-name="Path 923172" d="M113.528,65.733c-.452-.282-1.129-.565-1.54-.819s-.013-1.129-.018-1.581,1.247-1.3,2.094-1.609,2.315-.2,2.653-.79-.564-1.158-.96-1.158-2.936-.734-3.331-.677-3.387.367-3.867,0-2.866-7.271-2.866-7.271c.536,2.319,2.013,7.671,2.15,8.07.216.626-.336,5.007.21,6.316l4.7.146h.01l4.7-.146a14.366,14.366,0,0,1-1.446-.271c-.423-.128-2.033.072-2.484-.211" transform="translate(-58.026 -28.454)" fill="#161e1d"/>
              <path id="Path_923173" data-name="Path 923173" d="M120.955,29.947c0,2.076-1.568,4.143-2.9,4.143-1.272,0-2.9-2.067-2.9-4.143s1.3-3.757,2.9-3.757,2.9,1.682,2.9,3.757" transform="translate(-63.22 -14.378)" fill="#dd885b"/>
              <path id="Path_923174" data-name="Path 923174" d="M114.571,30.127a3.525,3.525,0,0,1-.467-1.619,8.449,8.449,0,0,1,.772-1.657,6.148,6.148,0,0,1,1.9-1.054,5.838,5.838,0,0,1,1.3,0,2.422,2.422,0,0,1,1.487.772c.188.377.655.81.807,1.111a4.1,4.1,0,0,1,.378,1.186c-.037.113-.244,1.054-.263,1.13a1.857,1.857,0,0,1-.154.289s-.782-1.982-.8-2.17A18.22,18.22,0,0,0,115.313,28a9.009,9.009,0,0,0-.742,2.126" transform="translate(-62.636 -14.142)" fill="#7e3b26"/>
              <path id="Path_923175" data-name="Path 923175" d="M115.267,35.3s1.173,2.789,2.744,2.789,2.741-2.853,2.741-2.853l.233-.318s-.431,4.585-2.962,4.585c-2.128,0-2.886-3.339-3-4.451Z" transform="translate(-63.15 -19.17)" fill="#7e3b26"/>
              <path id="Path_923176" data-name="Path 923176" d="M118.217,40.36s.71-1.121,1.6-1.134,1.578,1.134,1.578,1.134a5.866,5.866,0,0,0-1.565-.567,5.827,5.827,0,0,0-1.608.567" transform="translate(-64.901 -21.535)" fill="#7e3b26"/>
              <path id="Path_923177" data-name="Path 923177" d="M123.93,85.2c1.969-.005,2.735,1.231,2.68,5.024a39.214,39.214,0,0,1-.957,8.5c-.273.591-3.064.6-3.337.258s-.957-8.213-.957-9.444.426-4.328,2.571-4.334" transform="translate(-66.626 -46.773)" fill="#ffbd95"/>
              <path id="Path_923178" data-name="Path 923178" d="M124.828,116.853l.664-.014a1.352,1.352,0,0,0,1.32-1.385l-.038-1.438A1.355,1.355,0,0,0,125.4,112.7l-.665.014a1.352,1.352,0,0,0-1.32,1.385l.038,1.438a1.355,1.355,0,0,0,1.378,1.313" transform="translate(-67.753 -61.874)" fill="#ffbd95"/>
              <path id="Path_923179" data-name="Path 923179" d="M125.08,116.755c.6,0,2.079.18,2,3.715a34.61,34.61,0,0,1-1.75,8.378H123.9s-.694-6.546-.7-7.8c-.008-2.857-.028-4.291,1.873-4.291" transform="translate(-67.64 -64.099)" fill="#ffbd95"/>
              <path id="Path_923180" data-name="Path 923180" d="M125.567,83.676a42.248,42.248,0,0,1,.817,4.823c.11,1.7-.814,9.126-.817,9.944s.058,3.33,0,5.792-.774,7.311-.774,7.311l-3.5-.078s0-10.411,0-12.048-.828-10.012-.828-10.012l.391-5.6Z" transform="translate(-66.138 -45.938)" fill="#161e1d"/>
              <path id="Path_923181" data-name="Path 923181" d="M125.628,145.379s1.195,1.26,1.131,1.592a1.673,1.673,0,0,1-1.459.924,7.414,7.414,0,0,1-2.01-.553c-.41-.038-.405-2.025-.405-2.025Z" transform="translate(-67.464 -79.78)" fill="#191919"/>
              <path id="Path_923182" data-name="Path 923182" d="M127.784,89.971c.067,1.126-.579,8.587-.595,9.012s-.178,12-.185,12.538l1.152.026s.716-4.848.774-7.311,0-4.975,0-5.792.927-8.245.817-9.944a42.356,42.356,0,0,0-.817-4.823l-2.22.062-.115.069s1.123,5.037,1.189,6.163" transform="translate(-69.501 -45.938)" fill="#232d29"/>
              <path id="Path_923183" data-name="Path 923183" d="M110.685,85.728c-1.953-.253-2.885,1.013-3.36,5.2a48.14,48.14,0,0,0-.237,9.48c.189.686,2.955,1.05,3.275.7s2.1-8.928,2.268-10.285.181-4.823-1.946-5.1" transform="translate(-58.717 -47.048)" fill="#ffbd95"/>
              <path id="Path_923184" data-name="Path 923184" d="M108.988,120.587l-2.089-.316a.627.627,0,0,1-.525-.712l.5-3.306a.628.628,0,0,1,.712-.525l2.089.316a.627.627,0,0,1,.525.712l-.5,3.306a.628.628,0,0,1-.712.525" transform="translate(-58.396 -63.531)" fill="#ffbd95"/>
              <path id="Path_923185" data-name="Path 923185" d="M107.359,120.476c-.6-.076-2.087-.064-2.5,3.842a42.069,42.069,0,0,0,.567,9.45l1.411.179s1.6-7.125,1.781-8.508c.406-3.147.626-4.725-1.26-4.964" transform="translate(-57.513 -66.133)" fill="#ffbd95"/>
              <path id="Path_923186" data-name="Path 923186" d="M106.951,83.314a51.7,51.7,0,0,0-1.484,5.211c-.346,1.859-.466,10.157-.577,11.059s-.522,3.661-.808,6.381-.262,8.15-.262,8.15l3.484.354S108.761,103,108.99,101.2s2.338-11.353,2.338-11.353l.391-6.219Z" transform="translate(-56.997 -45.74)" fill="#161e1d"/>
              <path id="Path_923187" data-name="Path 923187" d="M102.994,151.693s-1.361,1.238-1.344,1.612a1.691,1.691,0,0,0,1.318,1.2,6.857,6.857,0,0,0,2.071-.356c.413.009.685-2.18.685-2.18Z" transform="translate(-55.806 -83.28)" fill="#191919"/>
              <path id="Path_923188" data-name="Path 923188" d="M112.486,91.815a1.34,1.34,0,0,0-2.548.238,11.962,11.962,0,0,0-.388,2.875c.1,1.587-.428,9.217-.509,9.408s-1.783,14.111-1.783,14.111l.057.045,1.877.191s1.458-11.47,1.687-13.273,2.338-11.354,2.338-11.354Z" transform="translate(-58.885 -49.953)" fill="#232d29"/>
              <path id="Path_923189" data-name="Path 923189" d="M144.512,67.344c.77-.079,1.446.26,1.781,2.4s.465,7.212.465,7.212l-1.246.128s-1.657-4.1-1.89-5.251-1.127-4.286.89-4.493" transform="translate(-78.63 -36.966)" fill="#dd885b"/>
              <path id="Path_923190" data-name="Path 923190" d="M92.076,59.719c.756.169,1.467-.089,2.05-2.179s1.305-7.109,1.305-7.109l-1.223-.273s-2.124,3.874-2.491,4.994-1.62,4.125.359,4.566" transform="translate(-49.953 -27.537)" fill="#dd885b"/>
              <path id="Path_923191" data-name="Path 923191" d="M102.869,47.695h0a.271.271,0,0,0-.38.033l-.746.883a.27.27,0,0,0,.033.382h0a.271.271,0,0,0,.38-.033l.745-.883a.27.27,0,0,0-.033-.382" transform="translate(-55.822 -26.15)" fill="#dd885b"/>
              <path id="Path_923192" data-name="Path 923192" d="M102.08,46.89h0a.271.271,0,0,0-.38.033l-.746.883a.27.27,0,0,0,.033.382h0a.271.271,0,0,0,.38-.033l.746-.883a.271.271,0,0,0-.033-.382" transform="translate(-55.389 -25.708)" fill="#dd885b"/>
              <path id="Path_923193" data-name="Path 923193" d="M101.265,46.154h0a.271.271,0,0,0-.38.033l-.745.883a.27.27,0,0,0,.033.382h0a.271.271,0,0,0,.38-.033l.745-.883a.271.271,0,0,0-.033-.382" transform="translate(-54.941 -25.304)" fill="#dd885b"/>
              <path id="Path_923194" data-name="Path 923194" d="M100.412,45.519h0a.271.271,0,0,0-.38.033l-.745.883a.27.27,0,0,0,.033.382h0a.271.271,0,0,0,.38-.033l.745-.883a.271.271,0,0,0-.033-.382" transform="translate(-54.473 -24.955)" fill="#dd885b"/>
              <path id="Path_923195" data-name="Path 923195" d="M96.624,48.889a18.659,18.659,0,0,1,.739-2.149A11.642,11.642,0,0,1,98.7,45.51s.087.652.37.83,1.057.571,1.057.571a8.272,8.272,0,0,1-.948,1.574,5.888,5.888,0,0,1-.907.753Z" transform="translate(-53.047 -24.985)" fill="#dd885b"/>
              <path id="Path_923196" data-name="Path 923196" d="M148.944,91.539h0a.272.272,0,0,1-.228-.306l.164-1.144a.27.27,0,0,1,.307-.229h0a.271.271,0,0,1,.228.306l-.164,1.144a.271.271,0,0,1-.307.229" transform="translate(-81.643 -49.332)" fill="#dd885b"/>
              <path id="Path_923197" data-name="Path 923197" d="M147.819,91.485h0a.271.271,0,0,1-.228-.306l.163-1.144a.271.271,0,0,1,.307-.23h0a.272.272,0,0,1,.228.306l-.164,1.144a.271.271,0,0,1-.307.229" transform="translate(-81.026 -49.302)" fill="#dd885b"/>
              <path id="Path_923198" data-name="Path 923198" d="M146.727,91.367h0a.271.271,0,0,1-.228-.306l.164-1.144a.271.271,0,0,1,.307-.23h0a.272.272,0,0,1,.228.306l-.164,1.144a.271.271,0,0,1-.307.229" transform="translate(-80.426 -49.237)" fill="#dd885b"/>
              <path id="Path_923199" data-name="Path 923199" d="M145.685,91.152h0a.271.271,0,0,1-.228-.306l.164-1.144a.27.27,0,0,1,.307-.229h0a.272.272,0,0,1,.228.306l-.164,1.144a.271.271,0,0,1-.307.229" transform="translate(-79.854 -49.119)" fill="#dd885b"/>
              <path id="Path_923200" data-name="Path 923200" d="M146.6,84.363a18.619,18.619,0,0,0-1.114,1.981,11.622,11.622,0,0,0-.028,1.818s.544-.369.865-.276,1.129.41,1.129.41a8.3,8.3,0,0,0,.544-1.755,5.881,5.881,0,0,0-.041-1.178Z" transform="translate(-79.842 -46.316)" fill="#dd885b"/>
              <path id="Path_923201" data-name="Path 923201" d="M144.4,67.344c.77-.079,1.557.266,1.892,2.41s.474,5.862.474,5.862l-2.3-.061s-.9-2.623-1.137-3.779-.948-4.225,1.068-4.432" transform="translate(-78.515 -36.966)" fill="#232d29"/>
              <path id="Path_923202" data-name="Path 923202" d="M92.1,61.659c.756.169,1.691-.277,2.274-2.367s1.068-5.152,1.068-5.152l-2.6-.789s-1.072,2.454-1.439,3.575-1.282,4.291.7,4.733" transform="translate(-49.888 -29.29)" fill="#232d29"/>
              <path id="Path_923203" data-name="Path 923203" d="M68.023,38.722l-5.738.271a1.636,1.636,0,1,1-.154-3.268l5.738-.271a1.636,1.636,0,1,1,.154,3.268" transform="translate(-33.254 -19.463)" fill="#ab3700"/>
              <path id="Path_923204" data-name="Path 923204" d="M79.954,35.579c-.737-.642-.585-2.008.633-3.361s2.2-2.143,2.522-2.486,2.129-2.555,2.7-3.065a1.461,1.461,0,0,1,1.97-.164c.483.434.295,1.824-.384,2.958s-5.464,7.843-7.443,6.118" transform="translate(-43.65 -14.377)" fill="#dd885b"/>
              <path id="Path_923205" data-name="Path 923205" d="M93.642,19.3c-.762-.137-1.319-.65-1.047-2.8s1.547-7.06,1.547-7.06l1.233.222s.46,4.394.364,5.569-.1,4.431-2.1,4.072" transform="translate(-50.797 -5.18)" fill="#dd885b"/>
              <path id="Path_923206" data-name="Path 923206" d="M79.085,36.932a3.277,3.277,0,0,1,.654-2.79c.642-.8,4.417-4.78,4.417-4.78s2.919,2.23,3,2.384-5.2,6.4-5.2,6.4a2.669,2.669,0,0,1-2.865-1.216" transform="translate(-43.373 -16.12)" fill="#232d29"/>
              <path id="Path_923207" data-name="Path 923207" d="M99.844,4.863h0a.271.271,0,0,0-.343.166L99.118,6.12a.271.271,0,0,0,.167.345h0a.271.271,0,0,0,.343-.166l.382-1.091a.271.271,0,0,0-.167-.345" transform="translate(-54.408 -2.661)" fill="#dd885b"/>
              <path id="Path_923208" data-name="Path 923208" d="M98.82,4.393h0a.271.271,0,0,0-.343.166L98.094,5.65a.271.271,0,0,0,.167.345h0a.271.271,0,0,0,.343-.166l.382-1.091a.271.271,0,0,0-.167-.345" transform="translate(-53.845 -2.403)" fill="#dd885b"/>
              <path id="Path_923209" data-name="Path 923209" d="M98.852.281h0c-.122-.1-.3-.015-.388.193L97.754,2.1a.525.525,0,0,0,.058.571h0c.123.1.3.015.388-.193L98.91.852a.525.525,0,0,0-.058-.571" transform="translate(-53.637 -0.13)" fill="#dd885b"/>
              <path id="Path_923210" data-name="Path 923210" d="M97.125,0h0c-.146-.029-.29.124-.321.341l-.244,1.693c-.031.219.063.422.21.451h0c.146.03.29-.124.322-.341L97.334.455c.032-.218-.063-.422-.21-.451" transform="translate(-53.008 0)" fill="#dd885b"/>
              <path id="Path_923211" data-name="Path 923211" d="M95.3,7.767A18.707,18.707,0,0,1,95.227,5.5a11.675,11.675,0,0,1,.813-1.627s.313.578.642.643,1.19.156,1.19.156a8.292,8.292,0,0,1-.324,1.808A5.879,5.879,0,0,1,96.969,7.5Z" transform="translate(-52.268 -2.124)" fill="#dd885b"/>
              <path id="Path_923212" data-name="Path 923212" d="M49.744,43.114c-.713-.668-2.057-.38-3.28.969s-1.91,2.4-2.219,2.761-2.327,2.376-2.777,3a1.462,1.462,0,0,0,.037,1.977c.481.436,1.844.109,2.9-.681s7.251-6.228,5.335-8.023" transform="translate(-22.565 -23.48)" fill="#dd885b"/>
              <path id="Path_923213" data-name="Path 923213" d="M67.446,48.824c.841-2.585,3.2-7.851,1.926-8.622-1.661-1.005-6.623-.787-6.623-.787V39.5s-4.82.4-6.482,1.409c-1.275.771.943,5.415,1.785,8a34.931,34.931,0,0,1,.1,5.866,45.092,45.092,0,0,0-.428,4.561c.025.345,3.929,2.481,5.023,2.536v-.082c1.094-.055,5-2.191,5.023-2.536a42.438,42.438,0,0,0-.507-4.548,32.582,32.582,0,0,1,.181-5.88" transform="translate(-30.679 -21.628)" fill="#dd885b"/>
              <path id="Path_923214" data-name="Path 923214" d="M49.96,42.466s-.712-.37-1.942.836c-.734.719-4.31,4.877-4.31,4.877s2.514,2.679,2.675,2.742,3.833-3.145,3.833-3.145,1.08-4.52-.257-5.309" transform="translate(-23.996 -23.284)" fill="#232d29"/>
              <path id="Path_923215" data-name="Path 923215" d="M68.925,34.181c-.11-.492-.383-2.927-.383-2.927H66.929v.082H65.315s-.273,2.434-.382,2.927S63.5,35.5,63.5,35.5h3.434v-.082h3.434s-1.328-.743-1.437-1.235" transform="translate(-34.859 -17.159)" fill="#dd885b"/>
              <path id="Path_923216" data-name="Path 923216" d="M68.817,33.494c-.1-.745-.225-1.807-.262-2.137l-.1-.1H66.929v.082H65.316s-.274,2.434-.383,2.927S63.5,35.5,63.5,35.5h.162c1.533-.409,3.056-.816,3.262-.875A14.093,14.093,0,0,0,68.817,33.494Z" transform="translate(-34.859 -17.159)" fill="#d17345"/>
              <path id="Path_923217" data-name="Path 923217" d="M69.773,40.2c-.162-.387-.889-.469-1.975-.749a6.54,6.54,0,0,0-2.448-.067l-2.622,1.5-2.622-1.5a19.031,19.031,0,0,1-1.79.663c-1.072.332-2.268.61-2.451.988S57.6,48.777,57.816,49.4s-.336,5.007.21,6.316l4.7.146h.01l4.7-.146c.429-1.5-.012-5.773.2-6.4s2.587-8.057,2.139-9.123" transform="translate(-30.663 -21.573)" fill="#232d29"/>
              <path id="Path_923218" data-name="Path 923218" d="M63.273,57.718c-.452-.282-1.129-.565-1.54-.819s-.012-1.129-.018-1.581,1.247-1.3,2.094-1.609,2.315-.2,2.654-.79-.564-1.157-.959-1.157-2.936-.734-3.332-.678-3.387.367-3.867,0-2.866-7.271-2.866-7.271c.537,2.319,2.014,7.671,2.151,8.07.216.626-.337,5.007.21,6.316l4.7.146h.01l4.7-.146a14.392,14.392,0,0,1-1.446-.271c-.423-.128-2.032.072-2.484-.211" transform="translate(-30.436 -24.054)" fill="#161e1d"/>
              <path id="Path_923219" data-name="Path 923219" d="M70.7,21.933c0,2.075-1.568,4.142-2.9,4.142-1.272,0-2.9-2.067-2.9-4.142s1.3-3.758,2.9-3.758,2.9,1.682,2.9,3.758" transform="translate(-35.63 -9.978)" fill="#dd885b"/>
              <path id="Path_923220" data-name="Path 923220" d="M64.316,22.113a3.525,3.525,0,0,1-.467-1.619,8.424,8.424,0,0,1,.772-1.657,6.148,6.148,0,0,1,1.9-1.054,5.866,5.866,0,0,1,1.3,0,2.425,2.425,0,0,1,1.487.772c.188.377.655.81.807,1.111a4.1,4.1,0,0,1,.378,1.186c-.037.113-.244,1.054-.263,1.129a1.866,1.866,0,0,1-.154.29s-.782-1.982-.8-2.171a18.221,18.221,0,0,0-4.217-.113,9.009,9.009,0,0,0-.742,2.126" transform="translate(-35.046 -9.742)" fill="#7e3b26"/>
              <path id="Path_923221" data-name="Path 923221" d="M65.012,27.284s1.173,2.789,2.744,2.789S70.5,27.221,70.5,27.221l.233-.318s-.431,4.585-2.962,4.585c-2.128,0-2.886-3.34-3-4.451Z" transform="translate(-35.56 -14.77)" fill="#7e3b26"/>
              <path id="Path_923222" data-name="Path 923222" d="M67.962,32.346s.709-1.121,1.6-1.134,1.578,1.134,1.578,1.134a5.844,5.844,0,0,0-1.565-.567,5.822,5.822,0,0,0-1.608.567" transform="translate(-37.311 -17.135)" fill="#7e3b26"/>
              <path id="Path_923223" data-name="Path 923223" d="M73.674,77.182c1.969-.005,2.735,1.231,2.68,5.024a39.221,39.221,0,0,1-.957,8.5c-.273.591-3.064.6-3.337.258s-.957-8.213-.957-9.444.426-4.328,2.571-4.334" transform="translate(-39.036 -42.373)" fill="#ffbd95"/>
              <path id="Path_923224" data-name="Path 923224" d="M74.573,108.839l.665-.014a1.352,1.352,0,0,0,1.32-1.385L76.519,106a1.355,1.355,0,0,0-1.378-1.313l-.664.015a1.352,1.352,0,0,0-1.32,1.385l.038,1.438a1.355,1.355,0,0,0,1.378,1.313" transform="translate(-40.163 -57.474)" fill="#ffbd95"/>
              <path id="Path_923225" data-name="Path 923225" d="M74.824,108.741c.6,0,2.079.179,2,3.715a34.61,34.61,0,0,1-1.75,8.378H73.648s-.694-6.546-.7-7.8c-.008-2.857-.027-4.292,1.873-4.292" transform="translate(-40.049 -59.699)" fill="#ffbd95"/>
              <path id="Path_923226" data-name="Path 923226" d="M75.312,75.662a42.248,42.248,0,0,1,.817,4.823c.109,1.7-.814,9.126-.817,9.944s.058,3.33,0,5.792-.774,7.311-.774,7.311l-3.5-.078s.005-10.411.005-12.048-.828-10.013-.828-10.013l.391-5.6Z" transform="translate(-38.548 -41.539)" fill="#161e1d"/>
              <path id="Path_923227" data-name="Path 923227" d="M75.373,137.365s1.195,1.26,1.131,1.592a1.673,1.673,0,0,1-1.459.924,7.413,7.413,0,0,1-2.01-.553c-.41-.038-.405-2.025-.405-2.025Z" transform="translate(-39.874 -75.38)" fill="#191919"/>
              <path id="Path_923228" data-name="Path 923228" d="M77.528,81.957c.067,1.126-.579,8.587-.595,9.012s-.178,12-.185,12.538l1.152.026s.716-4.848.774-7.311,0-4.975,0-5.792.927-8.245.817-9.944a42.246,42.246,0,0,0-.817-4.823l-2.22.062-.115.069s1.123,5.037,1.189,6.163" transform="translate(-41.91 -41.539)" fill="#232d29"/>
              <path id="Path_923229" data-name="Path 923229" d="M60.429,77.713c-1.953-.253-2.885,1.013-3.36,5.2a48.177,48.177,0,0,0-.237,9.48c.189.686,2.956,1.05,3.275.7s2.1-8.928,2.268-10.285.182-4.823-1.946-5.1" transform="translate(-31.127 -42.648)" fill="#ffbd95"/>
              <path id="Path_923230" data-name="Path 923230" d="M58.733,112.573l-2.089-.316a.627.627,0,0,1-.525-.712l.5-3.306a.627.627,0,0,1,.712-.525l2.089.316a.628.628,0,0,1,.525.712l-.5,3.306a.628.628,0,0,1-.712.525" transform="translate(-30.806 -59.132)" fill="#ffbd95"/>
              <path id="Path_923231" data-name="Path 923231" d="M57.1,112.461c-.6-.076-2.087-.064-2.5,3.842a42.069,42.069,0,0,0,.567,9.45l1.411.179s1.6-7.124,1.781-8.507c.406-3.147.626-4.725-1.26-4.964" transform="translate(-29.922 -61.732)" fill="#ffbd95"/>
              <path id="Path_923232" data-name="Path 923232" d="M56.7,75.3a51.666,51.666,0,0,0-1.484,5.211c-.346,1.859-.466,10.157-.577,11.058s-.522,3.661-.808,6.382-.262,8.15-.262,8.15l3.484.354s1.458-11.47,1.686-13.273,2.338-11.354,2.338-11.354l.391-6.218Z" transform="translate(-29.407 -41.34)" fill="#161e1d"/>
              <path id="Path_923233" data-name="Path 923233" d="M52.738,143.678s-1.361,1.238-1.344,1.612a1.69,1.69,0,0,0,1.318,1.2,6.844,6.844,0,0,0,2.071-.356c.412.009.685-2.179.685-2.179Z" transform="translate(-28.215 -78.88)" fill="#191919"/>
              <path id="Path_923234" data-name="Path 923234" d="M62.229,83.8a1.34,1.34,0,0,0-2.548.238,11.965,11.965,0,0,0-.388,2.876c.1,1.587-.428,9.217-.509,9.408S57,110.433,57,110.433l.057.044,1.877.191S60.393,99.2,60.622,97.4,62.96,86.041,62.96,86.041Z" transform="translate(-31.294 -45.553)" fill="#232d29"/>
              <path id="Path_923235" data-name="Path 923235" d="M34.966,58.2c.011-.774-.386-1.418-2.55-1.564s-7.225.166-7.225.166l-.018,1.252s4.224,1.293,5.4,1.424,4.368.748,4.4-1.279" transform="translate(-13.819 -31.073)" fill="#dd885b"/>
              <path id="Path_923236" data-name="Path 923236" d="M19.852,60.155h0a.271.271,0,0,1,.229-.305l1.144-.165a.27.27,0,0,1,.306.23h0a.271.271,0,0,1-.229.305l-1.144.166a.271.271,0,0,1-.306-.23" transform="translate(-10.897 -32.765)" fill="#dd885b"/>
              <path id="Path_923237" data-name="Path 923237" d="M19.586,59.06h0a.271.271,0,0,1,.229-.305l1.144-.165a.27.27,0,0,1,.306.23h0a.271.271,0,0,1-.229.305l-1.144.166a.271.271,0,0,1-.306-.23" transform="translate(-10.751 -32.164)" fill="#dd885b"/>
              <path id="Path_923238" data-name="Path 923238" d="M19.392,57.978h0a.272.272,0,0,1,.229-.305l1.144-.165a.271.271,0,0,1,.306.23h0a.271.271,0,0,1-.229.305l-1.144.166a.271.271,0,0,1-.306-.23" transform="translate(-10.645 -31.57)" fill="#dd885b"/>
              <path id="Path_923239" data-name="Path 923239" d="M19.3,56.918h0a.271.271,0,0,1,.229-.305l1.144-.165a.271.271,0,0,1,.306.23h0a.271.271,0,0,1-.229.305l-1.144.166a.271.271,0,0,1-.306-.23" transform="translate(-10.597 -30.988)" fill="#dd885b"/>
              <path id="Path_923240" data-name="Path 923240" d="M23.536,56.349a18.7,18.7,0,0,0-2.214-.511,11.657,11.657,0,0,0-1.752.486s.506.418.508.753-.075,1.2-.075,1.2a8.285,8.285,0,0,0,1.837.028,5.879,5.879,0,0,0,1.119-.371Z" transform="translate(-10.743 -30.656)" fill="#dd885b"/>
              <path id="Path_923241" data-name="Path 923241" d="M60.094,40.594l2.988,4.826a1.11,1.11,0,0,1,.166.579L63.3,56.69a1.109,1.109,0,0,1-1.324,1.093l-4.3-.851a2.123,2.123,0,0,1-.663-1.436,2.71,2.71,0,0,1,.589-1.546,3.115,3.115,0,0,1-.81-1.627A2.323,2.323,0,0,1,57,51.293a1.155,1.155,0,0,0-.015-.926A2.938,2.938,0,0,1,56.7,49.31a5.5,5.5,0,0,1,.461-1.657,4.562,4.562,0,0,0,.773-2.239,19.5,19.5,0,0,0-1.1-4.353c-.169-.136,1.164-.817,2.15-.982a1.1,1.1,0,0,1,1.109.515" transform="translate(-31.127 -21.996)" fill="#c23700"/>
              <path id="Path_923242" data-name="Path 923242" d="M73.678,38.921l-2.532,6.021-.051,10.932a.966.966,0,0,0,1.321.9l4.3-1.7a2.123,2.123,0,0,0,.663-1.436,2.711,2.711,0,0,0-.589-1.546,3.115,3.115,0,0,0,.81-1.627,2.487,2.487,0,0,0-.442-1.45,4.2,4.2,0,0,0,.535-1.562,5.5,5.5,0,0,0-.461-1.657,16.9,16.9,0,0,1-1.293-2.918c-.278-1.253-.58-3.674-.351-3.857s-1.216-.54-1.911-.1" transform="translate(-39.031 -21.251)" fill="#d63e00"/>
              <path id="Path_923243" data-name="Path 923243" d="M15.026,46.046c.116-.954.61-.626,2.4-.067s3.8.91,3.51,1.709-2.223-.05-3.281-.295-2.715-.578-2.623-1.348" transform="translate(-8.247 -24.947)" fill="#dd885b"/>
              <path id="Path_923244" data-name="Path 923244" d="M14.928,44.915c.4-.452,2.352.371,2.352.371l-.722,2.275-1.605-.477a2.217,2.217,0,0,1-.025-2.169" transform="translate(-8.046 -24.584)" fill="#b90051"/>
              <path id="Path_923245" data-name="Path 923245" d="M11.324,119.333s1.956,4.551,8.129,4.4,5.839-5.454,5.839-5.454l-6.655-3.287Z" transform="translate(-6.217 -63.131)" fill="#0e0908"/>
              <path id="Path_923246" data-name="Path 923246" d="M25.593,50.011c-.3-.681-1.865-.982-2.581-1.2a18.978,18.978,0,0,0-2.894-.292s-3.422.342-4.163.314c-.313-.012-.544,1.117-.665,1.439-.677,1.806-1.482,3.908.214,5.374.387.334.725,4.146.725,5.911a9.451,9.451,0,0,1-.678,3.274c1.706,0,2.861.343,4.566.343h5.117a28.938,28.938,0,0,1-1.229-3.617c-.994-5.432,2.043-10.522,1.587-11.55" transform="translate(-7.957 -26.64)" fill="#cee0ff"/>
              <path id="Path_923247" data-name="Path 923247" d="M22.342,151.316a.658.658,0,0,1,.389.552c.013.3.044,2.194.044,2.194a2.818,2.818,0,0,0-.88.558c-.391.35-.748,1.113-1.275,1.33a2.712,2.712,0,0,1-1.685.168c-.239-.1-.156-.635.189-1.184.521-.833,1.148-1.838,1.148-1.838Z" transform="translate(-10.32 -83.073)" fill="#0e0908"/>
              <path id="Path_923248" data-name="Path 923248" d="M21.48,150.248a7.975,7.975,0,0,1-.192,1.124,13.857,13.857,0,0,1-.744,2.247c-.246.48-.2.832.554.61s1.961-2.164,2.188-2.982a2.06,2.06,0,0,0-.166-1c-.107-.56-1.641,0-1.641,0" transform="translate(-11.205 -82.35)" fill="#0e0908"/>
              <path id="Path_923249" data-name="Path 923249" d="M15.552,86.688c-.566,1.031-.54,2.89-.258,5.306.383,3.294,1.464,8.541,1.6,9.008.611,2.134,2.713,2.044,3.034.349.089-.467.808-9.935.69-10.987a11.409,11.409,0,0,0-1.452-4.151,2.306,2.306,0,0,0-3.612.475" transform="translate(-8.289 -46.964)" fill="#ffbd95"/>
              <path id="Path_923250" data-name="Path 923250" d="M22.421,120.37c-.087-3.273-.994-3.917-2.164-3.916-1.872,0-1.56,3.5-1.531,4.559.029,1.04,1.445,9.476,1.808,10.819h1.641c.216-2.29.317-8.78.245-11.462" transform="translate(-10.261 -63.934)" fill="#ffbd95"/>
              <path id="Path_923251" data-name="Path 923251" d="M36.7,152.185a2.719,2.719,0,0,1,.391,1.136c-.009.479-.327,1.611-.695,1.662s-1.126-.714-1.229-.842a5.311,5.311,0,0,1-.725-2.489Z" transform="translate(-18.906 -83.257)" fill="#0e0908"/>
              <path id="Path_923252" data-name="Path 923252" d="M36.045,148.39s.7,2.087.708,2.337-.239,1.213-.59,1.222c-.983.025-1.786-1.679-1.754-2.275s.056-1.243.056-1.243Z" transform="translate(-18.89 -81.467)" fill="#0e0908"/>
              <path id="Path_923253" data-name="Path 923253" d="M32.416,130.9c.108-1.075-.255-8.841-.439-9.89s-.372-4.963-3.024-4.414c-1.144.237-1.44.983-.869,4.211.465,2.625,1.974,8.042,2.7,10.27a6.916,6.916,0,0,0,1.635-.176" transform="translate(-15.262 -63.984)" fill="#ffbd95"/>
              <path id="Path_923254" data-name="Path 923254" d="M32.835,87.38c.54,1.045.468,2.9.127,5.31a86.767,86.767,0,0,1-1.835,8.568c-.663,2.118-3.167,1.931-3.447.228-.077-.469-.226-9.853-.083-10.9a10.243,10.243,0,0,1,1.1-4.125c.587-.856,3.336-.637,4.142.921" transform="translate(-15.118 -47.194)" fill="#ffbd95"/>
              <path id="Path_923255" data-name="Path 923255" d="M9.707,49.234c-.695-.424-2.515,1.415-3.863,3.734-2.343,4.031-3.7,5-2.536,5.861,1.053.783,2.079-.818,4.537-3.981,1.922-2.472,3.3-4.737,1.861-5.614" transform="translate(-1.585 -26.996)" fill="#232d29"/>
              <path id="Path_923256" data-name="Path 923256" d="M16.144,84.693a5.128,5.128,0,0,0-.539,2.434c.387,1.5,4.813,2.77,4.813,2.77h.292v-4.86c-1.706,0-2.861-.343-4.566-.343" transform="translate(-8.549 -46.497)" fill="#27547c"/>
              <path id="Path_923257" data-name="Path 923257" d="M26.964,85.454v4.86h.292s4.977-.927,5.364-2.426a5.128,5.128,0,0,0-.539-2.434Z" transform="translate(-14.803 -46.914)" fill="#27547c"/>
              <path id="Path_923258" data-name="Path 923258" d="M25.005,42.752a13.635,13.635,0,0,1-.2-2.719H22.075a13.635,13.635,0,0,1-.2,2.719,5.143,5.143,0,0,1-1.33,1.4h5.788a5.136,5.136,0,0,1-1.33-1.4" transform="translate(-11.28 -21.978)" fill="#ffbd95"/>
              <path id="Path_923259" data-name="Path 923259" d="M24.822,41.1c-.018-.573-.014-1.063-.014-1.063H22.075a13.647,13.647,0,0,1-.2,2.719,5.136,5.136,0,0,1-1.33,1.4L24.822,41.1Z" transform="translate(-11.28 -21.978)" fill="#ffa47c"/>
              <path id="Path_923260" data-name="Path 923260" d="M15.453,84.693a11.868,11.868,0,0,0-1.117,3.823c-.2,2.054,1.071,12.427,1.271,13.5S17.5,116,17.5,116s.145.482,1.386.616a2.3,2.3,0,0,0,1.929-.669s-.429-13.231-.773-15.292.289-9.226.269-10.761,0-4.86,0-4.86Z" transform="translate(-7.859 -46.497)" fill="#2a322f"/>
              <path id="Path_923261" data-name="Path 923261" d="M32.33,85.454a5.268,5.268,0,0,1,.978,2.656c.2,1.74-1.74,12.849-1.74,12.849a30.934,30.934,0,0,1,.877,5.755c.327,3.948.29,7.9.29,7.9a1.413,1.413,0,0,1-1.368.937,4.117,4.117,0,0,1-1.807-.239s-2.2-13.146-2.141-13.949.087-11.046.087-11.046l0-4.86Z" transform="translate(-15.052 -46.914)" fill="#363e3b"/>
              <path id="Path_923262" data-name="Path 923262" d="M23.954,49.882c-.3-.681-1.936-1.073-2.652-1.287a22.175,22.175,0,0,0-2.861-.377s-3.539.3-4.226.452c-.306.067-.747,1.133-.868,1.455-.677,1.806-1.419,4.081.277,5.546.387.335.742,3.808.651,5.571-.114,2.208-1.387,4.689-1.782,7.579-.819,6-1.169,12.849-1.169,13.853,1.706,0,6.089-2.936,7.795-2.936s4.468,1.882,6.173,1.882c.025-1.029.68-8.274-.6-13.852-.292-1.268-1.273-3.954-1.682-6.424-.9-5.449,1.4-10.433.946-11.462" transform="translate(-6.217 -26.472)" fill="#161e1d"/>
              <path id="Path_923263" data-name="Path 923263" d="M21.724,33.007c.327,2.122,2.411,3.562,3.5,3.4,1.054-.162,2.216-2.117,2.088-4.291-.126-2.144-1.618-3.323-3.222-3.076s-2.687,1.85-2.361,3.972" transform="translate(-11.895 -15.922)" fill="#dd885b"/>
              <path id="Path_923264" data-name="Path 923264" d="M8.66,44.408h1.985L10.52,42.16h-1.7Z" transform="translate(-4.754 -23.146)" fill="#dd885b"/>
              <path id="Path_923265" data-name="Path 923265" d="M14.549,33.685a1.107,1.107,0,0,1,1.062-.659c.837,0,1.257,1.083.954,2.117-.166.568-.372,1-.218,1.109s-.711.45-1.073-.205.039-1.22-.064-1.653-.661-.708-.661-.708" transform="translate(-7.987 -18.131)" fill="#8d3b26"/>
              <path id="Path_923266" data-name="Path 923266" d="M16.353,66.883a.759.759,0,0,1,.218.887.823.823,0,0,1-.723.563,22.136,22.136,0,0,1-4.114-1.695s-1.78-.986-1.467-1.775.994-1.678,2.217-1.006a32.229,32.229,0,0,1,3.868,3.026" transform="translate(-5.617 -34.927)" fill="#d17345"/>
              <path id="Path_923267" data-name="Path 923267" d="M11.037,68.786a.76.76,0,0,0,.9-.177c.2-.239.446-.571.28-.876-.44-.8-3.692-3.293-3.692-3.293s-1.646-1.194-2.23-.575-1.1,1.613.031,2.434a38.158,38.158,0,0,0,4.713,2.488" transform="translate(-3.104 -34.964)" fill="#d17345"/>
              <path id="Path_923268" data-name="Path 923268" d="M19.554,70.576a1,1,0,0,1,1.65.348,6.04,6.04,0,0,1-.338,2.657,21.554,21.554,0,0,0-1.143,2.572,7.539,7.539,0,0,0-.082,1.917c-.039.228-.379.374-.71.339a.558.558,0,0,1-.544-.676,10.693,10.693,0,0,0,.4-1.827A28.046,28.046,0,0,1,19,72.7a4.961,4.961,0,0,1,.551-2.122" transform="translate(-10.089 -38.591)" fill="#d17345"/>
              <path id="Path_923269" data-name="Path 923269" d="M18.47,85.578s-.626,1.557.327,1.816c.793.214.891-.567.764-1.49a.53.53,0,0,1-.589.528c-.551-.053-.5-.854-.5-.854" transform="translate(-10.029 -46.983)" fill="#8b003d"/>
              <path id="Path_923270" data-name="Path 923270" d="M8.946,42.16l-.064.879,1.841.569-.072-1.259Z" transform="translate(-4.876 -23.146)" fill="#d17345"/>
              <path id="Path_923271" data-name="Path 923271" d="M7.37,57.85a20.5,20.5,0,0,1,3.71-1.507,7.342,7.342,0,0,1,1.552.236L8.568,52.632l.307-7.748L7.6,45.1s-.1.8-.582.8A3.453,3.453,0,0,1,5.7,45.416l-1.615.857s-1.515,6.97-.579,8.966C4.043,56.393,7.37,57.85,7.37,57.85" transform="translate(-1.755 -24.641)" fill="#8b003d"/>
              <path id="Path_923272" data-name="Path 923272" d="M11.917,44.884l-.307,7.748,4.065,3.948a3.765,3.765,0,0,0-1.552-.236c-.531.129-1.444.409-1.444.409l-3.7-3.388s.41-6.551.18-7.032-.423-.916-.423-.916a2.847,2.847,0,0,0,1.374.446c.387-.031.531-.764.531-.764Z" transform="translate(-4.798 -24.641)" fill="#b90051"/>
              <path id="Path_923273" data-name="Path 923273" d="M6.134,34.218a2.812,2.812,0,0,0,2.818,2.79c.851-.123,1.808-1.33,1.808-2.894s-.879-2.73-2.213-2.73a2.65,2.65,0,0,0-2.414,2.835" transform="translate(-3.368 -17.229)" fill="#dd885b"/>
              <path id="Path_923274" data-name="Path 923274" d="M8.593,32.634a4.465,4.465,0,0,1-1.235.891c-.561.2-2.178,1.1-2.178,1.1s-.6-1.9.564-2.862a3.1,3.1,0,0,1,2.849-.357s.538-.35,1.118.4a2.374,2.374,0,0,1,.63,2.013,1.829,1.829,0,0,1-.8-.4c-.352-.256-.946-.788-.946-.788" transform="translate(-2.76 -17.133)" fill="#8d3b26"/>
              <path id="Path_923275" data-name="Path 923275" d="M4.6,34.544a1.107,1.107,0,0,0-1.062-.659c-.838,0-1.256,1.083-.954,2.117.165.568.372,1,.22,1.109s.711.45,1.073-.205-.041-1.22.062-1.653.661-.708.661-.708" transform="translate(-1.364 -18.603)" fill="#8d3b26"/>
              <path id="Path_923276" data-name="Path 923276" d="M5.76,34.992a.181.181,0,0,0,.148.209.185.185,0,0,0,.194-.17l.111-.938a.183.183,0,0,0-.148-.209.18.18,0,0,0-.193.168Z" transform="translate(-3.161 -18.602)" fill="#8b003d"/>
              <path id="Path_923277" data-name="Path 923277" d="M16.026,72.148a1.034,1.034,0,0,1,1.708-.288,5.167,5.167,0,0,1,.871,2.313,21.65,21.65,0,0,0,.212,2.807,7.562,7.562,0,0,0,.836,1.727c.074.219-.157.508-.465.635a.558.558,0,0,1-.8-.338,10.716,10.716,0,0,0-.51-1.8,28.123,28.123,0,0,1-1.334-2.925,4.957,4.957,0,0,1-.52-2.13" transform="translate(-8.796 -39.27)" fill="#d17345"/>
              <path id="Path_923278" data-name="Path 923278" d="M20.977,86.6s.187,1.668,1.149,1.444c.8-.187.516-.922-.032-1.675a.531.531,0,0,1-.268.744c-.511.214-.848-.513-.848-.513" transform="translate(-11.516 -47.42)" fill="#8b003d"/>
              <path id="Path_923279" data-name="Path 923279" d="M2.244,48.423C1.378,48,1.162,48.6.666,50.406S-.411,54.083.418,54.273s.962-1.912,1.332-2.932,1.189-2.577.495-2.917" transform="translate(0 -26.514)" fill="#dd885b"/>
              <path id="Path_923280" data-name="Path 923280" d="M.3,60.083A10,10,0,0,0,2.266,61c1.009.414,2.543,1.022,2.543,1.022l.213-.493s-1.173-.891-1.967-1.421a4.908,4.908,0,0,0-2.149-.986C-.024,59.1.3,60.083.3,60.083" transform="translate(-0.134 -32.46)" fill="#dd885b"/>
              <path id="Path_923281" data-name="Path 923281" d="M9.8,64.768c-.306-.13-.456-.456-.191-.641a1.142,1.142,0,0,1,1.042-.142c.482.126,1.43.552,1.352.712s-.6-.119-1.029-.114c-.623,0-.827.331-1.173.185" transform="translate(-5.202 -35.095)" fill="#dd885b"/>
              <path id="Path_923282" data-name="Path 923282" d="M2.729,47.541c-.617-.166-1.823,1.8-1.823,1.8l2.006,1.178s.586-2.769-.184-2.976" transform="translate(-0.497 -26.095)" fill="#8b003d"/>
              <path id="Path_923283" data-name="Path 923283" d="M18.511,73.271s.221-.393.27-.446a3.539,3.539,0,0,0,.589-.605c.074-.174.067-.3.1-.327s.393-.055.332.267-.278.6-.25.7.721.05.855-.018.946-.644.988-.669.172-.069.213-.036a.563.563,0,0,1-.007.341c-.031.051.1.076.1.133s-.031.259-.031.259a.916.916,0,0,1-.018.326,3.825,3.825,0,0,1-.309.491,5.8,5.8,0,0,1-.956.623,3.374,3.374,0,0,1-1.813-.077c-.2-.137-.056-.96-.056-.96" transform="translate(-10.135 -39.461)" fill="#dd885b"/>
              <path id="Path_923284" data-name="Path 923284" d="M2.66,68.441c-.259.7.962,1.861,2.949,2.376,2.289.594,5.552,1.506,5.755.876.278-.86-2.455-1.864-4.493-3.049-2.065-1.2-3.675-1.65-4.211-.2" transform="translate(-1.441 -37.077)" fill="#dd885b"/>
              <path id="Path_923285" data-name="Path 923285" d="M2.4,68.2c-.259.7.945,1.857,3.036,2.585a29.9,29.9,0,0,0,3.764.987,5.3,5.3,0,0,0,.336-.736,2.558,2.558,0,0,0-.052-1.2c-.854-.458-1.742-.907-2.646-1.432-2.065-1.2-3.9-1.647-4.439-.2" transform="translate(-1.299 -36.946)" fill="#232d29"/>
              <path id="Path_923286" data-name="Path 923286" d="M31.3,71.261c-.261.681-2.028.617-4.061-.168-2.343-.905-5.789-1.925-5.528-2.522.355-.813,3.355.044,5.891.354,2.569.314,4.238.926,3.7,2.336" transform="translate(-11.912 -37.459)" fill="#dd885b"/>
              <path id="Path_923287" data-name="Path 923287" d="M19.461,67.767a16.014,16.014,0,0,0-1.974-.393c-.268.032-2.06.246-2.137.236s-.008.305.1.365.251.11.407.174.349.2.472.229a11.011,11.011,0,0,1,1.114.265,6.832,6.832,0,0,0,1.232.045Z" transform="translate(-8.409 -36.988)" fill="#dd885b"/>
              <path id="Path_923288" data-name="Path 923288" d="M36.6,50.734c.811-.066,1.608,2.4,1.768,5.073.277,4.655,1.05,6.127-.374,6.375-1.293.225-1.489-1.666-2.26-5.6-.6-3.073-.813-5.715.866-5.851" transform="translate(-19.374 -27.853)" fill="#232d29"/>
              <path id="Path_923289" data-name="Path 923289" d="M32.192,70.99c-.261.681-1.375.755-4.123.051a36.424,36.424,0,0,1-4.747-1.835l.5-1.469c1.122.149,3.2.637,4.5.8,2.569.314,4.417,1.048,3.877,2.457" transform="translate(-12.804 -37.188)" fill="#232d29"/>
            </g>
          </g>
        </g>
      </g>
    </g>
  </g>
</svg>
