<svg xmlns="http://www.w3.org/2000/svg" xmlns:xlink="http://www.w3.org/1999/xlink" width="70" height="70" viewBox="0 0 70 70">
  <defs>
    <clipPath id="clip-path">
      <rect id="Rectangle_408908" data-name="Rectangle 408908" width="42.8" height="46.129" fill="#953c2d"/>
    </clipPath>
  </defs>
  <g id="Group_1118919" data-name="Group 1118919" transform="translate(-268.711 -958.188)">
    <circle id="Ellipse_5614" data-name="Ellipse 5614" cx="35" cy="35" r="35" transform="translate(268.711 958.188)" fill="#fff"/>
    <g id="Group_1118992" data-name="Group 1118992" transform="translate(282.711 970.188)">
      <g id="Group_1118991" data-name="Group 1118991" clip-path="url(#clip-path)">
        <path id="Path_922818" data-name="Path 922818" d="M195.454,68.777a1.116,1.116,0,0,1,2.226.139c.4,4.085-.313,8.848-.018,13.006-.162.837-.831,1.339-1.235,2.016a7.568,7.568,0,0,0-.972,3.979h-10.2a8.239,8.239,0,0,0-1.413-5.016c-.783-1.134-1.6-1.359-1.8-2.934a52.973,52.973,0,0,1,.022-8.467c.315-1.34,1.991-1.172,2.157.229.151,1.279-.179,2.772.069,4.069.264.53,2.02.135,2.619,1.371a7.194,7.194,0,0,1,.286,2.6c1.192.573,1.2-.472,1.167-1.389a3.163,3.163,0,0,0-2.818-3.389l-.125-.171.012-9.408a1.1,1.1,0,0,1,2.12-.113l.066,7.619.238.36c.66.307.877-.027.945-.653.307-2.815-.255-6.117.032-8.986a1.131,1.131,0,0,1,2.185.412V74.689c0,.194.588.3.789.2.241-.079.348-.424.384-.654.407-2.663-.309-6.213.042-8.974a1.045,1.045,0,0,1,2.04.261v10.2c.144.766,1.178.562,1.178.3Z" transform="translate(-155.006 -53.61)" fill="#953c2d"/>
        <path id="Path_922819" data-name="Path 922819" d="M106.533,15.981a2.536,2.536,0,0,0-2.845.628,3.853,3.853,0,0,0-.554,1.219V25H94.119a8.188,8.188,0,0,0-1.564-5.16C91.9,18.9,91.093,18.5,90.906,17.2a52.349,52.349,0,0,1-.046-8.1c.176-1.839,2.053-1.794,2.228-.291.1.881-.211,3.51.069,4.07.33.662,2.431-.009,2.819,2.058.125.666-.012,1.29.13,1.939,1.344.672,1.22-1.126,1.105-1.991a3.326,3.326,0,0,0-2.952-2.832l.173-9.874a1.066,1.066,0,0,1,1.954.229l.1,7.583c.147.771,1.069.714,1.178-.289.306-2.816-.253-6.118.03-8.987A1.132,1.132,0,0,1,99.661.462l.071,10.718c-.013,1.024,1.22,1.161,1.34.152l.025-8.99c.244-1.062,1.891-.9,2.045.256.4,3.023-.42,7.044-.016,10.065.106.795.867,1.107,1.19.288l.07-7.172a1.113,1.113,0,0,1,2.147-.07Z" transform="translate(-77.318 0)" fill="#953c2d"/>
        <path id="Path_922820" data-name="Path 922820" d="M13.549,73.659c.3-.338,1.363,1.65,1.457,1.868a7.332,7.332,0,0,1,.613,3.157c-.582,0-1.2-.115-1.626.369v8.941H3.352a8.213,8.213,0,0,0-1.417-5.011C.844,81.391.248,81.646.093,79.356c-.094-1.391-.2-6.8.129-7.866a.963.963,0,0,1,.991-.8c1.942-.069.737,3.975,1.176,5.186.3.594,2.512,0,2.848,2.029.083.5-.2,2.723.925,2.038.881-.537.053-3.42-.751-4.134-.611-.543-1.324-.5-1.893-.915l.012-9.408a1.1,1.1,0,0,1,2.12-.113l.066,7.619.238.36c.66.307.877-.027.945-.653.307-2.815-.255-6.117.032-8.986.268-1.168,2.185-.782,2.185.264V74.767c0,.194.588.3.789.2.241-.079.348-.424.384-.654.407-2.663-.309-6.213.042-8.974a1.045,1.045,0,0,1,2.04.261V75.8c.144.766,1.178.562,1.178.3Z" transform="translate(0 -53.688)" fill="#953c2d"/>
        <rect id="Rectangle_408907" data-name="Rectangle 408907" width="13.153" height="10.641" transform="translate(28.624 35.489)" fill="#953c2d"/>
        <path id="Path_922821" data-name="Path 922821" d="M23.949,240.129v2.143c0,.359.587.488.887.517v7.981H11.682V240.129Z" transform="translate(-9.956 -204.64)" fill="#953c2d"/>
        <path id="Path_922822" data-name="Path 922822" d="M113.323,177.129c-.133,2.027,1.7,3,2.487,4.533a7.535,7.535,0,0,1,.765,3.6c-.321-.034-1.626-.07-1.626.369v2.143H102.682V177.351l.222-.222Z" transform="translate(-87.507 -150.951)" fill="#953c2d"/>
      </g>
    </g>
  </g>
</svg>
